<svg height="95.377983mm" viewBox="0 0 179.06227 95.377983" width="179.06226mm" xmlns="http://www.w3.org/2000/svg" xmlns:xlink="http://www.w3.org/1999/xlink"><marker id="a" orient="auto" overflow="visible" refX="0" refY="0"><path d="m0 0 5-5-17.5 5 17.5 5z" fill-rule="evenodd" stroke="#000" stroke-width="1pt" transform="matrix(-.4 0 0 -.4 -4 0)"/></marker><g transform="translate(-31.901126 -106.18303)"><path d="m40.63244 194.37946 170.23512-77.00335" fill="none" stroke="#ccc" stroke-width=".465"/><path d="m60.287201 119.72916h63.311012v50.212486h-63.311012z" fill="#b3b3b3"/><path d="m60.419493 106.18303v95" fill="none" stroke="#000" stroke-width=".80737"/><path d="m123.46592 106.56101v95" fill="none" stroke="#000" stroke-width=".80737"/><path d="m40.63244 194.37946 118.11756-53.48363" fill="none" marker-end="url(#a)" stroke="#000" stroke-width=".465"/><circle cx="60.319397" cy="185.38992" r="1.227769"/><circle cx="123.57875" cy="156.95078" r="1.227769"/><circle cx="40.860508" cy="194.24228" r="1.227769"/><g fill-rule="evenodd"><g transform="translate(36.74956 58.932931)"><path d="m29.130152 131.72482h.776917c.164348 0 .247352 0 .247352-.16601 0-.0913-.083-.0913-.230751-.0913h-.728775c.297154-1.17534.338656-1.34135.338656-1.39115 0-.13945-.09794-.22245-.237391-.22245-.02656 0-.257313.008-.332016.29881l-.322056 1.31479h-.778577c-.166008 0-.249012 0-.249012.15604 0 .10127.06806.10127.234071.10127h.725455c-.594308 2.34735-.62751 2.4868-.62751 2.63786 0 .44491.313755.75866.760316.75866.843321 0 1.314783-1.20522 1.314783-1.27328 0-.083-.06474-.083-.09794-.083-.07636 0-.083.0266-.124506.11786-.355257.85826-.793518 1.05747-1.074072 1.05747-.174308 0-.257312-.1079-.257312-.38182 0-.19589.01494-.25565.0498-.39675z"/><path d="m32.466911 126.38932-.09961.0747-.09628.0764-.09131.078-.08798.0813-.083.083-.07802.0847-.0747.088-.06972.088-.0664.0896-.06142.0913-.05976.093-.05478.093-.05146.0946-.04648.0946-.04482.0963-.0415.0963-.03652.0963-.03486.0963-.03154.0979-.02988.0963-.0249.0963-.02324.0963-.02158.0946-.0166.0946-.0166.0946-.01162.093-.01162.0913-.0083.0897-.0066.0896-.005.088-.0017.0847-.0017.0847c0 .81676.244031 2.0834 1.389486 2.89186.04814 0 .114546 0 .114546-.0664 0-.0365-.01494-.0482-.05644-.0897-.770277-.69391-1.05415-1.67668-1.05415-2.73083 0-1.56047.597628-2.32411 1.072411-2.75241.02324-.0232.03818-.0415.03818-.0697 0-.0697-.0664-.0697-.114546-.0697z"/><path d="m34.940429 127.05004v-.007-.007-.007-.007-.007-.007-.007l-.0017-.005v-.007-.005-.005-.005l-.0017-.005v-.005-.005l-.0017-.003v-.005-.003l-.0017-.003-.0017-.005-.0017-.007-.0017-.007-.0033-.005-.0033-.005-.0033-.005-.005-.005-.0033-.003-.005-.003-.0066-.002-.005-.003-.0066-.002-.0083-.002-.0033-.002h-.005l-.0033-.002h-.005-.005l-.005-.002h-.0033-.0066-.005-.005l-.005-.002h-.0066-.0066-.005-.0066-.0066-.0083-.0066-.0066-.0083c-.370198.36522-.894783.3702-1.133834.3702v.20751c.141107 0 .521265 0 .83834-.15937v2.9483c0 .19257 0 .26727-.577708.26727h-.21913v.20751c.104585-.005.815099-.0232 1.030909-.0232.179289 0 .908063.0183 1.034229.0232v-.20751h-.22079c-.577708 0-.577708-.0747-.577708-.26727z"/><path d="m36.809679 126.38932h-.0033-.0033-.005-.005-.0033-.005-.005l-.005.002h-.0033-.005l-.005.002h-.005l-.005.002-.0033.002h-.005l-.0033.002-.005.002-.0033.002-.005.003-.0033.002-.0033.003-.0033.003-.0033.003-.0017.002-.0017.002-.0017.002v.002l-.0017.002-.0017.003v.002l-.0017.002v.003l-.0017.002v.003l-.0017.002v.003.003.002l-.0017.003v.003.003c0 .0282.01826.0465.05312.088.498024.45652 1.05249 1.23842 1.05249 2.72917 0 1.20854-.376838 2.1249-1.001028 2.68933-.09628.0996-.104585.10459-.104585.13613 0 .0282.01826.0664.07636.0664.06972 0 .619209-.38016 1.001028-1.10395.253992-.47977.42166-1.10562.42166-1.78293 0-.81344-.242372-2.08008-1.387826-2.89186z"/><path d="m31.852682 135.37533-.005.0183-.0066.0199-.0083.0199-.0083.0199-.0083.0199-.01.0216-.01.0216-.01162.0216-.01162.0199-.01162.0216-.01328.0216-.01494.0216-.01494.0199-.01494.0199-.0166.0216-.0166.0183-.0166.0199-.01826.0183-.01992.0166-.01992.0166-.01992.0166-.01992.0149-.02158.0133-.02324.0133-.02324.0116-.02324.01-.02324.01-.0249.007-.0249.007-.02656.003-.02656.003h-.02656c-.01826 0-.192569 0-.313755-.0797.237391-.0747.253992-.28553.253992-.31873 0-.12783-.09961-.21581-.230751-.21581-.161028 0-.330356.1411-.330356.35526 0 .28885.323716.42.607589.42.267273 0 .503004-.16601.647431-.41004.137787.30711.456522.41004.687273.41004.667352 0 1.020949-.72048 1.020949-.88317 0-.0764-.07636-.0764-.09463-.0764-.07968 0-.08466.0282-.107905.0996-.122846.39842-.469802.6989-.793518.6989-.232411 0-.353597-.15439-.353597-.37518 0-.15107.139447-.67731.300475-1.31976.117865-.4449.376838-.58933.567747-.58933.01162 0 .190909 0 .312095.0797-.184269.0531-.253992.21581-.253992.3204 0 .12616.09794.21249.230751.21249.134466 0 .323715-.10957.323715-.3536 0-.32371-.370198-.42-.600949-.42-.288853 0-.521265.18925-.649091.41004-.102925-.23905-.368537-.41004-.692253-.41004-.649091 0-1.019288.71051-1.019288.88482 0 .0747.083.0747.09794.0747.07636 0 .08134-.0232.111226-.0979.142766-.45154.509644-.70055.791857-.70055.19257 0 .346957.10292.346957.38182 0 .1162-.06972.4034-.121186.60095z"/></g><g transform="translate(79.245415 30.335091)"><path d="m49.268574 131.72482h.778577c.164348 0 .247352 0 .247352-.16601 0-.0913-.083-.0913-.230751-.0913h-.728775c.297154-1.17534.338656-1.34135.338656-1.39115 0-.13945-.09795-.22245-.239051-.22245-.0249 0-.255653.008-.332016.29881l-.320396 1.31479h-.778577c-.166008 0-.249012 0-.249012.15604 0 .10127.06806.10127.234072.10127h.725454c-.594308 2.34735-.62751 2.4868-.62751 2.63786 0 .44491.313755.75866.760317.75866.84332 0 1.314782-1.20522 1.314782-1.27328 0-.083-.06474-.083-.09794-.083-.07636 0-.083.0266-.124506.11786-.355257.85826-.795178 1.05747-1.074072 1.05747-.174308 0-.257312-.1079-.257312-.38182 0-.19589.0166-.25565.0498-.39675z"/><path d="m52.608653 126.38932-.101265.0747-.09628.0764-.0913.078-.08798.0813-.083.083-.07802.0847-.0747.088-.06972.088-.0664.0896-.06142.0913-.05976.093-.05478.093-.05146.0946-.04648.0946-.04482.0963-.0415.0963-.03652.0963-.03486.0963-.03154.0979-.02988.0963-.0249.0963-.02324.0963-.02158.0946-.0166.0946-.0166.0946-.01162.093-.01162.0913-.0083.0897-.0066.0896-.005.088-.0017.0847-.0017.0847c0 .81676.244031 2.0834 1.391146 2.89186.04648 0 .112886 0 .112886-.0664 0-.0365-.01494-.0482-.05644-.0897-.770277-.69391-1.05249-1.67668-1.05249-2.73083 0-1.56047.595968-2.32411 1.070751-2.75241.02324-.0232.03818-.0415.03818-.0697 0-.0697-.0664-.0697-.112886-.0697z"/><path d="m56.063278 129.67628h-.197549c-.01494.12617-.0747.46814-.149407.52625-.04482.0332-.491384.0332-.571068.0332h-1.06577c.605928-.53621.808458-.69724 1.157075-.96949.42664-.34197.826719-.70055.826719-1.25004 0-.70055-.612569-1.12885-1.352964-1.12885-.717155 0-1.205218.503-1.205218 1.03423 0 .29715.249012.32537.308775.32537.137786 0 .307114-.0996.307114-.30711 0-.10293-.0415-.30546-.341976-.30546.177629-.41004.572728-.5362.844981-.5362.577707 0 .879842.44822.879842.91802 0 .50301-.358578.90142-.544506 1.10893l-1.394467 1.37787c-.05976.0515-.05976.0647-.05976.22577h2.383874z"/><path d="m56.951421 126.38932h-.005-.0033-.005-.005-.0033-.005-.005l-.005.002h-.0033-.005l-.005.002h-.005l-.005.002-.0033.002h-.005l-.0033.002-.005.002-.0033.002-.005.003-.0033.002-.0033.003-.0033.003-.0033.003-.0017.002-.0017.002-.0017.002v.002l-.0017.002-.0017.003v.002l-.0017.002v.003l-.0017.002v.003l-.0017.002v.003.003.002l-.0017.003v.003.003c0 .0282.01826.0465.05312.088.498024.45652 1.05249 1.23842 1.05249 2.72917 0 1.20854-.376838 2.1249-1.001028 2.68933-.09628.0996-.104585.10459-.104585.13613 0 .0282.01826.0664.07636.0664.06972 0 .61921-.38016 1.001028-1.10395.253992-.47977.42166-1.10562.42166-1.78293 0-.81344-.242372-2.08008-1.386166-2.89186z"/><path d="m51.992764 135.37533-.005.0183-.0066.0199-.0083.0199-.0066.0199-.01.0199-.01.0216-.01.0216-.01162.0216-.01162.0199-.01162.0216-.01328.0216-.01494.0216-.01494.0199-.01494.0199-.0166.0216-.0166.0183-.0166.0199-.01826.0183-.01992.0166-.01992.0166-.01992.0166-.01992.0149-.02158.0133-.02324.0133-.02158.0116-.0249.01-.02324.01-.0249.007-.0249.007-.02656.003-.02656.003h-.02656c-.01826 0-.192569 0-.315415-.0797.239051-.0747.255652-.28553.255652-.31873 0-.12783-.09961-.21581-.230751-.21581-.161028 0-.330356.1411-.330356.35526 0 .28885.325376.42.607589.42.267273 0 .503004-.16601.647431-.41004.137787.30711.456522.41004.688933.41004.665692 0 1.017629-.72048 1.017629-.88317 0-.0764-.0747-.0764-.09296-.0764-.07968 0-.08466.0282-.107905.0996-.122846.39842-.469802.6989-.795178.6989-.229091 0-.351937-.15439-.351937-.37518 0-.15107.139447-.67731.300475-1.31976.117865-.4449.376838-.58933.569407-.58933.01 0 .187589 0 .310435.0797-.184269.0531-.253992.21581-.253992.3204 0 .12616.09794.21249.230751.21249.134466 0 .323715-.10957.323715-.3536 0-.32371-.370198-.42-.600949-.42-.288853 0-.521264.18925-.649091.41004-.102924-.23905-.368537-.41004-.692253-.41004-.649091 0-1.019288.71051-1.019288.88482 0 .0747.083.0747.09794.0747.0747 0 .08134-.0232.111226-.0979.142766-.45154.509644-.70055.791857-.70055.19257 0 .346957.10292.346957.38182 0 .1162-.06972.4034-.121186.60095z"/></g><g transform="translate(-4.810852 -21.219637)"><path d="m70.467786 132.53328.005-.0216.0066-.0249.0066-.0266.0066-.0299.01-.0332.01-.0332.01-.0365.01328-.0365.01328-.0399.01328-.0398.0166-.0398.0166-.0415.01826-.0415.01992-.0415.02158-.0415.02324-.0398.0249-.0415.0249-.0382.02822-.0382.02988-.0382.02988-.0349.0332-.0332.03486-.0315.03652-.0299.03818-.0266.0415-.0232.01992-.0116.02158-.01.02324-.008.02158-.008.02324-.008.02324-.007.0249-.005.0249-.005.0249-.003.02656-.003.02656-.002h.02656c.0415 0 .239051 0 .411699.10625-.230751.0415-.396759.24901-.396759.4449 0 .1328.0913.29051.313755.29051.182609 0 .446562-.14775.446562-.47976 0-.42996-.488064-.54451-.768617-.54451-.478103 0-.768617.43826-.868222.62751-.20751-.5445-.654071-.62751-.891462-.62751-.861581 0-1.333044 1.06577-1.333044 1.27328 0 .083.083.083.0996.083.0664 0 .0913-.0183.107905-.0897.278893-.87652.82672-1.08403 1.107273-1.08403.157707 0 .444901.0714.444901.55115 0 .25731-.139446.81344-.444901 1.96885-.132806.51463-.42166.86158-.786878.86158-.0498 0-.237391 0-.411699-.1079.20751-.0398.388458-.21415.388458-.44656 0-.22411-.180948-.28886-.305454-.28886-.249012 0-.456522.21581-.456522.47977 0 .37849.41502.5445.776917.5445.547826 0 .84332-.57771.869881-.62751.09795.30712.396759.62751.893123.62751.851621 0 1.324743-1.06577 1.324743-1.27328 0-.083-.0747-.083-.101264-.083-.07304 0-.0913.0349-.106245.0913-.272253.88482-.83502 1.08403-1.100633 1.08403-.323716 0-.456522-.26395-.456522-.54782 0-.18095.0498-.3619.142767-.72546z"/><path d="m77.181147 134.51375v-.0465l-.0033-.0465-.0033-.0432-.005-.0432-.0066-.0415-.0083-.0398-.01-.0398-.01162-.0365-.01328-.0365-.01494-.0349-.0166-.0332-.01826-.0315-.01992-.0315-.02158-.0282-.02324-.0282-.0249-.0266-.02822-.0249-.02822-.0232-.02988-.0216-.0332-.0199-.03486-.0183-.03652-.0183-.03818-.0149-.03984-.0149-.04316-.0116-.04316-.0116-.04648-.008-.04814-.008-.05146-.005-.05312-.005-.05312-.002-.0581-.002c-.458182 0-.770277.2457-.924665.53621-.117865-.40838-.4283-.53621-.85162-.53621-.474783 0-.780237.25898-.944585.56111h-.005v-.56111l-.84996.0631v.20751c.388458 0 .434941.0415.434941.32371v1.49905c0 .24902-.05976.24902-.434941.24902v.20751c.01162 0 .41668-.0232.660711-.0232.212491 0 .61257.0183.664032.0232v-.20751c-.375178 0-.433281 0-.433281-.24902v-1.04253c0-.60758.479763-.8898.861582-.8898.405059 0 .456521.31874.456521.61257v1.31976c0 .24902-.05644.24902-.43328.24902v.20751c.01328 0 .41834-.0232.659051-.0232.21581 0 .61423.0183.665692.0232v-.20751c-.375178 0-.434941 0-.434941-.24902v-1.04253c0-.60758.483083-.8898.863241-.8898.40506 0 .456522.31874.456522.61257v1.31976c0 .24902-.05644.24902-.43328.24902v.20751c.01162 0 .415019-.0232.659051-.0232.21249 0 .612569.0183.664032.0232v-.20751c-.375178 0-.433281 0-.433281-.24902z"/><path d="m79.086918 132.69763v-.0166l-.0017-.0149-.0017-.0149-.0033-.0166-.0033-.0149-.005-.0149-.005-.0149-.005-.0149-.0066-.0149-.0066-.0133-.0083-.0133-.0083-.0133-.01-.0133-.0083-.0133-.01162-.0116-.01-.0116-.01162-.0116-.01162-.0116-.01328-.01-.01328-.008-.01328-.01-.01328-.008-.01494-.008-.01494-.007-.0166-.007-.01494-.005-.0166-.005-.0166-.003-.01826-.003-.0166-.002-.01826-.002h-.01826c-.174308 0-.330356.13613-.330356.3287 0 .20751.169328.33533.330356.33533.185929 0 .336996-.14277.336996-.33533z"/><path d="m78.207076 133.78v.20751c.363557 0 .41502.0349.41502.31873v1.50403c0 .24902-.05644.24902-.433281.24902v.20751c.01162 0 .41502-.0232.649091-.0232.20253 0 .41004.005.612569.0232v-.20751c-.335336 0-.395098 0-.395098-.24404v-2.09834z"/><path d="m82.714191 134.51375v-.0465l-.0017-.0465-.005-.0432-.005-.0432-.0066-.0415-.0083-.0398-.01-.0398-.01162-.0365-.01328-.0365-.01328-.0349-.0166-.0332-.01826-.0315-.01992-.0315-.02158-.0282-.02324-.0282-.0249-.0266-.02822-.0249-.02822-.0232-.03154-.0216-.03154-.0199-.03486-.0183-.03652-.0183-.03818-.0149-.03984-.0149-.04316-.0116-.04482-.0116-.04648-.008-.04814-.008-.0498-.005-.05312-.005-.05478-.002-.0581-.002c-.473123 0-.780237.25898-.942925.56111h-.005v-.56111l-.851621.0631v.20751c.388459 0 .436601.0415.436601.32371v1.49905c0 .24902-.05976.24902-.436601.24902v.20751c.01328 0 .41834-.0232.662372-.0232.21249 0 .610909.0183.664031.0232v-.20751c-.376838 0-.43328 0-.43328-.24902v-1.04253c0-.60758.479763-.8898.859921-.8898.405059 0 .456522.31874.456522.61257v1.31976c0 .24902-.05644.24902-.431621.24902v.20751c.01162 0 .41668-.0232.657391-.0232.215811 0 .61589.0183.667352.0232v-.20751c-.376838 0-.436601 0-.436601-.24902z"/></g><g transform="translate(33.408691 -21.247927)"><path d="m94.83111 132.53328.005-.0216.0066-.0249.0066-.0266.0083-.0299.0083-.0332.01-.0332.01-.0365.01328-.0365.01328-.0399.01328-.0398.0166-.0398.0166-.0415.01826-.0415.01992-.0415.02158-.0415.02324-.0398.0249-.0415.0249-.0382.02822-.0382.02988-.0382.03154-.0349.03154-.0332.03486-.0315.03652-.0299.03984-.0266.03984-.0232.02158-.0116.02158-.01.02158-.008.02324-.008.02158-.008.0249-.007.02324-.005.0249-.005.0249-.003.02656-.003.02656-.002h.02656c.0415 0 .239052 0 .4117.10625-.230751.0415-.396759.24901-.396759.4449 0 .1328.0913.29051.313755.29051.182609 0 .446561-.14775.446561-.47976 0-.42996-.488063-.54451-.766956-.54451-.479763 0-.770277.43826-.869882.62751-.20751-.5445-.652411-.62751-.891462-.62751-.861582 0-1.333044 1.06577-1.333044 1.27328 0 .083.083.083.101265.083.06474 0 .08964-.0183.106245-.0897.278893-.87652.826719-1.08403 1.107273-1.08403.157707 0 .446561.0714.446561.55115 0 .25731-.141107.81344-.446561 1.96885-.132807.51463-.42.86158-.786878.86158-.04814 0-.237391 0-.4117-.1079.20751-.0398.388459-.21415.388459-.44656 0-.22411-.180949-.28886-.305455-.28886-.249011 0-.456521.21581-.456521.47977 0 .37849.415019.5445.778577.5445.546166 0 .84166-.57771.868221-.62751.0996.30712.396759.62751.893123.62751.853281 0 1.324743-1.06577 1.324743-1.27328 0-.083-.0747-.083-.101265-.083-.07304 0-.0913.0349-.106245.0913-.272253.88482-.83502 1.08403-1.098972 1.08403-.325376 0-.456522-.26395-.456522-.54782 0-.18095.04814-.3619.142767-.72546z"/><path d="m101.54447 134.51375v-.0465l-.003-.0465-.003-.0432-.005-.0432-.007-.0415-.008-.0398-.01-.0398-.0116-.0365-.0133-.0365-.0149-.0349-.0166-.0332-.0183-.0315-.0199-.0315-.0216-.0282-.0232-.0282-.0249-.0266-.0282-.0249-.0282-.0232-.0315-.0216-.0315-.0199-.0349-.0183-.0365-.0183-.0382-.0149-.0398-.0149-.0432-.0116-.0448-.0116-.0465-.008-.0481-.008-.0498-.005-.0531-.005-.0548-.002-.0564-.002c-.45818 0-.770277.2457-.926325.53621-.116205-.40838-.4283-.53621-.84996-.53621-.474783 0-.780238.25898-.944586.56111h-.005v-.56111l-.85162.0631v.20751c.390118 0 .4366.0415.4366.32371v1.49905c0 .24902-.05976.24902-.4366.24902v.20751c.01328 0 .41834-.0232.662371-.0232.21249 0 .612569.0183.664032.0232v-.20751c-.376838 0-.433281 0-.433281-.24902v-1.04253c0-.60758.479763-.8898.861581-.8898.4034 0 .456522.31874.456522.61257v1.31976c0 .24902-.0581.24902-.43328.24902v.20751c.01328 0 .416679-.0232.659051-.0232.21415 0 .614225.0183.665695.0232v-.20751c-.375181 0-.434944 0-.434944-.24902v-1.04253c0-.60758.481424-.8898.863244-.8898.40506 0 .45652.31874.45652.61257v1.31976c0 .24902-.0564.24902-.43328.24902v.20751c.01 0 .41502-.0232.65905-.0232.21249 0 .61257.0183.66403.0232v-.20751c-.37684 0-.43328 0-.43328-.24902z"/><path d="m104.80819 134.71628v-.0564-.0548l-.002-.0531-.002-.0515-.002-.0249-.003-.0249-.002-.0232-.003-.0249-.003-.0232-.005-.0232-.005-.0232-.007-.0216-.007-.0232-.007-.0216-.008-.0216-.01-.0216-.01-.0216-.0116-.0216-.0116-.0199-.0133-.0216-.0149-.0199-.0166-.0216-.0166-.0199-.0183-.0199-.0199-.0216-.0216-.0199-.0232-.0199-.0249-.0199c-.23573-.19589-.51296-.29052-.85494-.29052-.54948 0-.93628.21083-.93628.56277 0 .18427.12616.28387.27723.28387.15605 0 .27225-.11786.27225-.27225 0-.0996-.0465-.22079-.20252-.26561.2075-.14443.54284-.14443.57936-.14443.3204 0 .67399.21249.67399.70055v.17763.15107.57273c0 .55612-.48474.71051-.74537.71051-.29549 0-.57273-.19589-.57273-.47976 0-.31874.27724-.7653 1.3181-.80348v-.15107c-.31707.0116-.69723.0299-1.12055.18427-.52126.19257-.68229.50965-.68229.77028 0 .49802.60095.64079 1.01099.64079.4615 0 .73375-.25897.8566-.48474.0232.23573.17929.45652.44656.45652.01 0 .56941 0 .56941-.54949v-.31707h-.19423v.31209c0 .0564 0 .33368-.21415.33368s-.21415-.26894-.21415-.34364z"/><path d="m107.47593 134.97027-.002-.002-.002-.002v-.002h-.002l-.002-.002-.002-.002-.002-.003-.002-.002-.002-.002-.002-.002-.003-.003-.002-.002-.002-.003-.005-.003-.003-.005-.002-.003-.002-.002-.003-.003-.002-.002-.002-.002-.002-.002v-.003l-.002-.002h-.002v-.002l-.002-.002v-.002-.002c0-.0183.38016-.42664.43162-.47976.20253-.22577.40506-.4449.8649-.45154v-.20751c-.16434.0116-.33035.0232-.48806.0232-.17431 0-.40008-.005-.57107-.0232v.20751c.0963.0183.11455.0813.11455.1328 0 .0133 0 .0979-.0863.19755l-.40339.45652-.47977-.54782c-.0598-.0647-.0647-.093-.0647-.11621 0-.0863.0797-.12284.15439-.12284v-.20751c-.21249.0183-.43328.0232-.64743.0232-.17099 0-.39178-.005-.56111-.0232v.20751c.26727 0 .41834 0 .56775.17431l.72213.83335c.007.005.0465.0515.0465.0565 0 .0183-.43328.49304-.48972.55778-.21581.23076-.41336.44325-.87486.45653v.20751c.17431-.01.30047-.0232.47976-.0232.17431 0 .40506.005.57937.0232v-.20751c-.0714-.0133-.11787-.0515-.11787-.13447 0-.10957.0648-.18427.15937-.28387l.4034-.44491.503.57273c.10957.12119.10957.13447.10957.16933 0 .11289-.13281.12119-.15605.12119v.20751c.0531-.005.4698-.0232.65407-.0232s.3702.005.55447.0232v-.20751c-.38514 0-.43328-.0365-.56775-.18759z"/></g><path d="m37.611707 193.56617v-.1245l-.0166-.12119v-.11786l-.0166-.11455-.0332-.11288-.0166-.10957-.0332-.10624-.0332-.10293-.0498-.10126-.0332-.0963-.0498-.093-.0664-.0897-.0498-.0863-.0664-.083-.0498-.078-.083-.0764-.0664-.0697-.0664-.0681-.083-.0631-.083-.0581-.083-.0548-.0996-.0515-.083-.0448-.0996-.0415-.0996-.0365-.0996-.0332-.0996-.0266-.0996-.0232-.1162-.0183-.0996-.0116-.1162-.008-.11621-.003-.0498.20751c.68063 0 1.42767.4615 1.42767 1.69494 0 .59597-.23241 1.88585-1.04585 2.90514-.39842.503-1.07905.99107-1.77629.99107-.81343 0-1.39446-.67068-1.39446-1.76135 0-.36356.1162-1.57209.74703-2.53992.58103-.85826 1.39447-1.28988 2.0419-1.28988l.0498-.20751c-1.79288 0-3.60237 1.87921-3.60237 3.80656 0 1.37123.91305 2.20625 2.1083 2.20625 1.75969 0 3.60237-1.80949 3.60237-3.78665z"/><g transform="translate(20.446119 2.80633)"><path d="m137.7508 127.91992-.0166.01-.0166.0116v.0116l-.0166.0116-.0166.0133-.0166.0133-.0166.0149-.0166.0133-.0166.0149-.0166.0149-.0332.0315-.0332.0332-.0332.0332-.0166.0183v.0166l-.0166.0166-.0166.0166-.0166.0183-.0166.0166v.0166l-.0166.0166-.0166.0166v.0166l-.0166.0166v.0149.0149l-.0166.0149v.0149.0149c0 .083.083.16601.16601.16601.083 0 .1162-.0598.16601-.10957.0996-.1245.28221-.35525.64743-.5362.0664-.0349.14941-.0764.14941-.17431 0-.083-.0664-.12451-.11621-.16601-.18261-.1245-.28221-.27225-.34862-.4698-.0166-.0747-.0498-.18427-.166-.18427-.11621 0-.16601.10957-.16601.17431 0 .0415.0664.30545.19921.47976h-2.78894c-.1328 0-.28221 0-.28221.16601s.14941.16601.28221.16601z"/><path d="m136.75475 129.38245v-.002-.002-.002-.002-.002-.003-.003-.003-.003-.003-.003-.005-.003l-.0166-.005v-.003-.003-.005-.003-.005l-.0166-.003v-.002-.002-.002-.002-.002-.002l-.0166-.002v-.002-.002-.002-.002l-.0166-.002v-.002-.002h-.0166v-.002l-.0166-.002c-.13281 0-.91305.0747-1.06245.0913-.0664.007-.11621.0481-.11621.1577 0 .0979.083.0979.19921.0979.39842 0 .41502.0581.41502.14111l-.0166.166-.49802 1.96056c-.14941-.30546-.39842-.52957-.76364-.52957v.18261c.54783 0 .66403.67565.66403.72546 0 .0515-.0166.10126-.0332.14276l-.41502 1.6219c-.0332.14775-.0332.16269-.16601.30545-.34861.45321-.69723.58601-.92964.58601-.41502 0-.53123-.4532-.53123-.77857 0-.4117.26562-1.42933.46482-1.80949.24902-.48806.63083-.79352.94625-.79352v-.18261c-.96285 0-1.9921 1.21518-1.9921 2.42372 0 .77692.44823 1.32142 1.09566 1.32142.16601 0 .58102-.0332 1.07905-.61921.0664.34696.34862.61921.74703.61921.29882 0 .48143-.18925.61423-.4532.14941-.29881.24902-.80348.24902-.82008 0-.083-.0664-.083-.0996-.083-.083 0-.083.0349-.1162.15106-.13281.53621-.28222 1.02427-.63083 1.02427-.21582 0-.24902-.21581-.24902-.38182 0-.19589.0166-.25565.0498-.39675z"/></g></g><path d="m42.532251 120.17744h164.757349" fill="none" stroke="#000" stroke-width=".80737"/><path d="m42.532251 169.47619h164.757349" fill="none" stroke="#000" stroke-width=".80737"/><circle cx="95.229828" cy="169.41774" r="1.227769"/><circle cx="204.76617" cy="120.04809" r="1.227769"/><g fill-rule="evenodd" transform="translate(-41.293899 1.322917)"><path d="m133.34678 177.62735h.77148c.1632 0 .24562 0 .24562-.16485 0-.0907-.0824-.0907-.22913-.0907h-.72368c.29508-1.16712.33629-1.33197.33629-1.38142 0-.13847-.0973-.2209-.23573-.2209-.0264 0-.25552.008-.3297.29673l-.3198 1.30559h-.77313c-.16485 0-.24727 0-.24727.15495 0 .10056.0676.10056.23243.10056h.72038c-.59015 2.33094-.62312 2.46941-.62312 2.61942 0 .44179.31156.75335.755.75335.83742 0 1.30559-1.19679 1.30559-1.26438 0-.0824-.0643-.0824-.0973-.0824-.0758 0-.0824.0264-.12364.11704-.35277.85226-.78797 1.05008-1.06656 1.05008-.17309 0-.25551-.10715-.25551-.37915 0-.19452.0148-.25386.0495-.39398z"/><path d="m136.6602 172.32917-.0989.0742-.0956.0758-.0907.0775-.0874.0808-.0824.0824-.0775.0841-.0742.0874-.0692.0874-.0659.089-.061.0907-.0594.0923-.0544.0923-.0511.094-.0462.094-.0445.0956-.0412.0956-.0363.0956-.0346.0956-.0313.0973-.0297.0956-.0247.0956-.0231.0956-.0214.094-.0165.094-.0165.094-.0115.0923-.0115.0907-.008.089-.007.089-.005.0874-.002.0841-.002.0841c0 .81104.24233 2.06883 1.37977 2.87163.0478 0 .11375 0 .11375-.0659 0-.0363-.0148-.0478-.0561-.089-.76489-.68906-1.04678-1.66496-1.04678-2.71174 0-1.54956.59345-2.30786 1.06491-2.73316.0231-.0231.0379-.0412.0379-.0692 0-.0692-.0659-.0692-.11375-.0692z"/><path d="m139.11643 172.98526v-.007-.007-.007-.007-.007-.007-.007l-.002-.005v-.007-.005-.005-.005l-.002-.005v-.005-.005l-.002-.003v-.005-.003l-.002-.003-.002-.005-.002-.007-.002-.007-.003-.005-.003-.005-.003-.005-.005-.005-.003-.003-.005-.003-.007-.002-.005-.003-.007-.002-.008-.002-.003-.002h-.005l-.003-.002h-.005-.005l-.005-.002h-.003-.007-.005-.005l-.005-.002h-.007-.007-.005-.007-.007-.008-.007-.007-.008c-.36761.36266-.88853.36761-1.12591.36761v.20606c.14012 0 .51762 0 .83248-.15826v2.92769c0 .19122 0 .2654-.57367.2654h-.2176v.20606c.10386-.005.8094-.0231 1.0237-.0231.17804 0 .90172.0181 1.027.0231v-.20606h-.21925c-.57366 0-.57366-.0742-.57366-.2654z"/><path d="m140.9726 172.32917h-.003-.003-.005-.005-.003-.005-.005l-.005.002h-.003-.005l-.005.002h-.005l-.005.002-.003.002h-.005l-.003.002-.005.002-.003.002-.005.003-.003.002-.003.003-.003.003-.003.003-.002.002-.002.002-.002.002v.002l-.002.002-.002.003v.002l-.002.002v.003l-.002.002v.003l-.002.002v.003.003.002l-.002.003v.003.003c0 .028.0181.0462.0528.0874.49454.45333 1.04513 1.22976 1.04513 2.71009 0 1.20008-.37421 2.11004-.99403 2.67052-.0956.0989-.10385.10385-.10385.13517 0 .028.0181.0659.0758.0659.0692 0 .61488-.3775.99403-1.09623.25222-.47641.41871-1.09788.41871-1.77046 0-.80775-.24067-2.06553-1.37812-2.87163z"/><path d="m137.81413 179.69453.002-.003.002-.005v-.003l.002-.003.002-.003v-.003l.002-.005.002-.007.002-.005.002-.005.002-.005v-.005l.002-.005.002-.003v-.005l.002-.003v-.003-.003l.002-.003v-.003-.003l.002-.003v-.003-.005-.005-.007-.005-.003-.003-.003l.002-.003c0-.1121-.094-.18298-.19122-.18298-.0626 0-.17309.0297-.23408.13682-.0181.0363-.0643.21925-.094.33464l-.12034.47641c-.033.13682-.211.8605-.22913.92479-.005 0-.25716.49949-.70555.49949-.39233 0-.39233-.37256-.39233-.47641 0-.31156.13187-.67093.30496-1.11437.0692-.18298.0973-.25221.0973-.35112 0-.27529-.23408-.4863-.54564-.4863-.58026 0-.83742.77973-.83742.87864 0 .0742.0791.0742.0973.0742.0808 0 .0857-.028.10385-.0923.14342-.4764.39069-.7006.61982-.7006.0989 0 .14177.0643.14177.20112 0 .13023-.0511.25716-.0791.33134-.2753.7006-.333.9149-.333 1.16712 0 .0989 0 .36925.2242.55223.17803.14837.42036.17639.57531.17639.22914 0 .4352-.0841.62477-.25716-.0742.31651-.13847.55718-.3775.84566-.15495.17639-.38739.36432-.69071.36432-.0379 0-.30826 0-.43025-.18793.30992-.033.30992-.31156.30992-.31651 0-.18298-.16485-.21595-.2242-.21595-.14176 0-.33299.11375-.33299.37915 0 .29013.2753.50444.68247.50444.58191 0 1.28746-.44839 1.46549-1.16712z"/></g><g fill-rule="evenodd" transform="translate(42.994792 -64.917411)"><path d="m153.34437 177.62735h.77314c.16319 0 .24562 0 .24562-.16485 0-.0907-.0824-.0907-.22914-.0907h-.72368c.29508-1.16712.33629-1.33197.33629-1.38142 0-.13847-.0973-.2209-.23738-.2209-.0247 0-.25386.008-.32969.29673l-.31816 1.30559h-.77313c-.16485 0-.24727 0-.24727.15495 0 .10056.0676.10056.23243.10056h.72038c-.59015 2.33094-.62312 2.46941-.62312 2.61942 0 .44179.31156.75335.755.75335.83742 0 1.30559-1.19679 1.30559-1.26438 0-.0824-.0643-.0824-.0973-.0824-.0758 0-.0824.0264-.12363.11704-.35278.85226-.78962 1.05008-1.06657 1.05008-.17308 0-.25551-.10715-.25551-.37915 0-.19452.0165-.25386.0495-.39398z"/><path d="m156.6611 172.32917-.10056.0742-.0956.0758-.0907.0775-.0874.0808-.0824.0824-.0775.0841-.0742.0874-.0692.0874-.0659.089-.061.0907-.0593.0923-.0544.0923-.0511.094-.0462.094-.0445.0956-.0412.0956-.0363.0956-.0346.0956-.0313.0973-.0297.0956-.0247.0956-.0231.0956-.0214.094-.0165.094-.0165.094-.0115.0923-.0115.0907-.008.089-.007.089-.005.0874-.002.0841-.002.0841c0 .81104.24232 2.06883 1.38142 2.87163.0461 0 .11209 0 .11209-.0659 0-.0363-.0148-.0478-.056-.089-.76489-.68906-1.04513-1.66496-1.04513-2.71174 0-1.54956.5918-2.30786 1.06327-2.73316.0231-.0231.0379-.0412.0379-.0692 0-.0692-.0659-.0692-.11209-.0692z"/><path d="m160.09156 175.59314h-.19617c-.0148.12528-.0742.46487-.14836.52256-.0445.033-.48795.033-.56707.033h-1.05832c.60169-.53245.80281-.69235 1.14898-.9627.42366-.33959.82094-.69566.82094-1.2413 0-.69566-.60828-1.12096-1.3435-1.12096-.71214 0-1.19679.49948-1.19679 1.02699 0 .29508.24727.32311.30662.32311.13682 0 .30496-.0989.30496-.30497 0-.10221-.0412-.30332-.33958-.30332.17638-.40717.56872-.53246.83907-.53246.57367 0 .87369.44509.87369.91161 0 .49948-.35607.89512-.5407 1.10118l-1.38472 1.36823c-.0593.0511-.0593.0643-.0593.22419h2.3672z"/><path d="m160.97349 172.32917h-.005-.003-.005-.005-.003-.005-.005l-.005.002h-.003-.005l-.005.002h-.005l-.005.002-.003.002h-.005l-.003.002-.005.002-.003.002-.005.003-.003.002-.003.003-.003.003-.003.003-.002.002-.002.002-.002.002v.002l-.002.002-.002.003v.002l-.002.002v.003l-.002.002v.003l-.002.002v.003.003.002l-.002.003v.003.003c0 .028.0181.0462.0528.0874.49454.45333 1.04513 1.22976 1.04513 2.71009 0 1.20008-.3742 2.11004-.99403 2.67052-.0956.0989-.10385.10385-.10385.13517 0 .028.0181.0659.0758.0659.0692 0 .61488-.3775.99403-1.09623.25221-.47641.41871-1.09788.41871-1.77046 0-.80775-.24068-2.06553-1.37648-2.87163z"/><path d="m157.81502 179.69453v-.003l.002-.005v-.003l.002-.003.002-.003v-.003l.002-.005.002-.007.002-.005.002-.005.002-.005v-.005l.002-.005.002-.003v-.005l.002-.003v-.003-.003l.002-.003v-.003-.003l.002-.003v-.003-.005-.005-.007-.005-.003-.003-.003-.003c0-.1121-.0923-.18298-.18958-.18298-.0626 0-.17309.0297-.23408.13682-.0181.0363-.0643.21925-.0923.33464l-.12198.47641c-.033.13682-.21101.8605-.22914.92479-.005 0-.25716.49949-.70555.49949-.39233 0-.39233-.37256-.39233-.47641 0-.31156.13188-.67093.30497-1.11437.0692-.18298.0973-.25221.0973-.35112 0-.27529-.23409-.4863-.54565-.4863-.58026 0-.83742.77973-.83742.87864 0 .0742.0808.0742.0973.0742.0808 0 .0857-.028.10385-.0923.14342-.4764.39069-.7006.62148-.7006.0973 0 .14012.0643.14012.20112 0 .13023-.0511.25716-.0791.33134-.2753.7006-.33299.9149-.33299 1.16712 0 .0989 0 .36925.22419.55223.17803.14837.42036.17639.57532.17639.22913 0 .43519-.0841.62641-.25716-.0758.31651-.14012.55718-.37914.84566-.15496.17639-.38739.36432-.69071.36432-.0379 0-.30992 0-.43025-.18793.30991-.033.30991-.31156.30991-.31651 0-.18298-.16485-.21595-.22419-.21595-.14177 0-.33299.11375-.33299.37915 0 .29013.27529.50444.68246.50444.58191 0 1.28746-.44839 1.46549-1.16712z"/></g><path d="m95.527978 169.32163 28.196932-12.42804" fill="none" stroke="#000" stroke-width="1.765"/></g></svg>