<svg height="114.0907mm" viewBox="0 0 223.40241 114.09069" width="223.4024mm" xmlns="http://www.w3.org/2000/svg"><g transform="translate(5.505244 -66.73843)"><g transform="translate(0 -6.047619)"><g stroke="#000" stroke-linecap="round" stroke-width=".235"><path d="m22.719921 72.903549h8v8h-8z" fill="#ffd5d5"/><path d="m30.719921 72.903549h8v8h-8z" fill="#ffd5d5"/><path d="m38.719921 72.903549h8v8h-8z" fill="#d5ffd5"/><path d="m46.719925 72.903549h8v8h-8z" fill="#ffd5d5"/><path d="m54.719921 72.903549h8v8h-8z" fill="#d5ffd5"/><path d="m62.719925 72.903549h8v8h-8z" fill="#ffd5d5"/><path d="m70.719925 72.903549h8v8h-8z" fill="#ffd5d5"/><path d="m78.719925 72.903549h8v8h-8z" fill="#fff6d5"/><path d="m86.719925 72.903549h8v8h-8z" fill="#ffd5d5"/><path d="m94.719925 72.903549h8v8h-8z" fill="#d5ffd5"/><path d="m102.71992 72.903549h8v8h-8z" fill="#fff6d5"/><path d="m110.71993 72.903549h8v8h-8z" fill="#ffd5d5"/><path d="m118.71992 72.903549h8v8h-8z" fill="#ffd5d5"/><path d="m126.71993 72.903549h8v8h-8z" fill="#ffd5d5"/><path d="m134.71991 72.903549h8v8h-8z" fill="#d5ffd5"/></g><text font-family="sans-serif" font-size="6.35" letter-spacing="0" stroke-width=".264583" word-spacing="0" x="24.871971" y="79.270844"><tspan stroke-width=".264583" x="24.871971" y="79.270844">a</tspan></text><text font-family="sans-serif" font-size="6.35" letter-spacing="0" stroke-width=".264583" word-spacing="0" x="32.862106" y="79.270844"><tspan stroke-width=".264583" x="32.862106" y="79.270844">a</tspan></text><text font-family="sans-serif" font-size="6.35" letter-spacing="0" stroke-width=".264583" word-spacing="0" x="40.976265" y="79.270844"><tspan stroke-width=".264583" x="40.976265" y="79.270844">c</tspan></text><text font-family="sans-serif" font-size="6.35" letter-spacing="0" stroke-width=".264583" word-spacing="0" x="48.842384" y="79.270844"><tspan stroke-width=".264583" x="48.842384" y="79.270844">a</tspan></text><text font-family="sans-serif" font-size="6.35" letter-spacing="0" stroke-width=".264583" word-spacing="0" x="56.832523" y="79.270844"><tspan stroke-width=".264583" x="56.832523" y="79.270844">c</tspan></text><text font-family="sans-serif" font-size="6.35" letter-spacing="0" stroke-width=".264583" word-spacing="0" x="64.946678" y="79.270844"><tspan stroke-width=".264583" x="64.946678" y="79.270844">a</tspan></text><text font-family="sans-serif" font-size="6.35" letter-spacing="0" stroke-width=".264583" word-spacing="0" x="72.81279" y="79.270844"><tspan stroke-width=".264583" x="72.81279" y="79.270844">a</tspan></text><text font-family="sans-serif" font-size="6.35" letter-spacing="0" stroke-width=".264583" word-spacing="0" x="80.52076" y="79.270844"><tspan stroke-width=".264583" x="80.52076" y="79.270844">b</tspan></text><text font-family="sans-serif" font-size="6.35" letter-spacing="0" stroke-width=".264583" word-spacing="0" x="88.917084" y="79.270844"><tspan stroke-width=".264583" x="88.917084" y="79.270844">a</tspan></text><text font-family="sans-serif" font-size="6.35" letter-spacing="0" stroke-width=".264583" word-spacing="0" x="96.783203" y="79.270844"><tspan stroke-width=".264583" x="96.783203" y="79.270844">c</tspan></text><text font-family="sans-serif" font-size="6.35" letter-spacing="0" stroke-width=".264583" word-spacing="0" x="104.49119" y="79.270844"><tspan stroke-width=".264583" x="104.49119" y="79.270844">b</tspan></text><text font-family="sans-serif" font-size="6.35" letter-spacing="0" stroke-width=".264583" word-spacing="0" x="112.76347" y="79.270844"><tspan stroke-width=".264583" x="112.76347" y="79.270844">a</tspan></text><text font-family="sans-serif" font-size="6.35" letter-spacing="0" stroke-width=".264583" word-spacing="0" x="120.75361" y="79.270844"><tspan stroke-width=".264583" x="120.75361" y="79.270844">a</tspan></text><text font-family="sans-serif" font-size="6.35" letter-spacing="0" stroke-width=".264583" word-spacing="0" x="128.74376" y="79.270844"><tspan stroke-width=".264583" x="128.74376" y="79.270844">a</tspan></text><text font-family="sans-serif" font-size="6.35" letter-spacing="0" stroke-width=".264583" word-spacing="0" x="136.85789" y="79.270844"><tspan stroke-width=".264583" x="136.85789" y="79.270844">c</tspan></text></g><path d="m23.394773 88.87561h71.315002v7.761783h-71.315002z" fill="#ffd5d5" stroke="#000" stroke-linecap="round" stroke-width=".238"/><path d="m94.710403 88.876137h15.676445v7.760727h-15.676445z" fill="#fff6d5" stroke="#000" stroke-linecap="round" stroke-width=".239273"/><path d="m110.49995 88.877151h31.543447v7.758694h-31.543447z" fill="#d5ffd5" stroke="#000" stroke-linecap="round" stroke-width=".241306"/><path d="m23.394774 101.171836h71.315002v7.761783h-71.315002z" fill="#ffd5d5" stroke="#000" stroke-linecap="round" stroke-width=".238"/><path d="m94.710406 101.172363h15.676445v7.760727h-15.676445z" fill="#fff6d5" stroke="#000" stroke-linecap="round" stroke-width=".239273"/><path d="m110.499956 101.173377h31.543447v7.758694h-31.543447z" fill="#d5ffd5" stroke="#000" stroke-linecap="round" stroke-width=".241306"/><path d="m23.394774 113.468061h71.315002v7.761783h-71.315002z" fill="#ffd5d5" stroke="#000" stroke-linecap="round" stroke-width=".238"/><path d="m94.710406 113.468588h15.676445v7.760727h-15.676445z" fill="#fff6d5" stroke="#000" stroke-linecap="round" stroke-width=".239273"/><path d="m110.499956 113.469602h31.543447v7.758694h-31.543447z" fill="#d5ffd5" stroke="#000" stroke-linecap="round" stroke-width=".241306"/><path d="m23.394774 125.764287h71.315002v7.761783h-71.315002z" fill="#ffd5d5" stroke="#000" stroke-linecap="round" stroke-width=".238"/><path d="m94.710406 125.764814h15.676445v7.760727h-15.676445z" fill="#fff6d5" stroke="#000" stroke-linecap="round" stroke-width=".239273"/><path d="m110.499956 125.765828h31.543447v7.758694h-31.543447z" fill="#d5ffd5" stroke="#000" stroke-linecap="round" stroke-width=".241306"/><path d="m23.394774 138.060512h71.315002v7.761783h-71.315002z" fill="#ffd5d5" stroke="#000" stroke-linecap="round" stroke-width=".238"/><path d="m94.710406 138.061039h15.676445v7.760727h-15.676445z" fill="#fff6d5" stroke="#000" stroke-linecap="round" stroke-width=".239273"/><path d="m110.499956 138.062053h31.543447v7.758694h-31.543447z" fill="#d5ffd5" stroke="#000" stroke-linecap="round" stroke-width=".241306"/><path d="m23.394774 150.356738h71.315002v7.761783h-71.315002z" fill="#ffd5d5" stroke="#000" stroke-linecap="round" stroke-width=".238"/><path d="m94.710406 150.357265h15.676445v7.760727h-15.676445z" fill="#fff6d5" stroke="#000" stroke-linecap="round" stroke-width=".239273"/><path d="m110.499956 150.358279h31.543447v7.758694h-31.543447z" fill="#d5ffd5" stroke="#000" stroke-linecap="round" stroke-width=".241306"/><path d="m23.394774 162.652964h71.315002v7.761783h-71.315002z" fill="#ffd5d5" stroke="#000" stroke-linecap="round" stroke-width=".238"/><path d="m94.710406 162.653491h15.676445v7.760727h-15.676445z" fill="#fff6d5" stroke="#000" stroke-linecap="round" stroke-width=".239273"/><path d="m110.499956 162.654505h31.543447v7.758694h-31.543447z" fill="#d5ffd5" stroke="#000" stroke-linecap="round" stroke-width=".241306"/><path d="m23.394774 96.637391v4.534439l118.648626.002-47.332994-4.536516z" fill="#999"/><path d="m23.394774 108.93362v4.53444l118.648626.002-47.333621-4.53599z" fill="#999"/><path d="m110.38685 121.22931-86.992076 4.53498 118.648626.002v-4.53754z" fill="#999"/><path d="m94.710406 133.52554 47.332994 4.53651-118.648626-.002v-4.53445z" fill="#999"/><path d="m110.38685 145.82176-86.992076 4.53498 118.648626.002v-4.53754z" fill="#999"/><path d="m94.709779 158.11852 47.333621 4.53598-118.648626-.002v-4.53445z" fill="#999"/><g font-family="sans-serif" font-size="6.35" letter-spacing="0" stroke-width=".264583" word-spacing="0"><text x="57.204327" y="94.489731"><tspan stroke-width=".264583" x="57.204327" y="94.489731">a</tspan></text><text x="100.41853" y="94.489731"><tspan stroke-width=".264583" x="100.41853" y="94.489731">b</tspan></text><text x="124.54774" y="94.489731"><tspan stroke-width=".264583" x="124.54774" y="94.489731">c</tspan></text><text x="57.204327" y="106.6505"><tspan stroke-width=".264583" x="57.204327" y="106.6505">a</tspan></text><text x="100.41853" y="106.6505"><tspan stroke-width=".264583" x="100.41853" y="106.6505">b</tspan></text><text x="124.54774" y="106.6505"><tspan stroke-width=".264583" x="124.54774" y="106.6505">c</tspan></text><text x="57.204327" y="119.61307"><tspan stroke-width=".264583" x="57.204327" y="119.61307">a</tspan></text><text x="100.41853" y="119.61307"><tspan stroke-width=".264583" x="100.41853" y="119.61307">b</tspan></text><text x="124.54774" y="119.61307"><tspan stroke-width=".264583" x="124.54774" y="119.61307">c</tspan></text><text x="57.204327" y="131.37292"><tspan stroke-width=".264583" x="57.204327" y="131.37292">a</tspan></text><text x="100.41853" y="131.37292"><tspan stroke-width=".264583" x="100.41853" y="131.37292">b</tspan></text><text x="124.54774" y="131.37292"><tspan stroke-width=".264583" x="124.54774" y="131.37292">c</tspan></text><text x="57.204327" y="131.37292"><tspan stroke-width=".264583" x="57.204327" y="131.37292">a</tspan></text><text x="100.41853" y="131.37292"><tspan stroke-width=".264583" x="100.41853" y="131.37292">b</tspan></text><text x="124.54774" y="131.37292"><tspan stroke-width=".264583" x="124.54774" y="131.37292">c</tspan></text><text x="57.204327" y="143.80096"><tspan stroke-width=".264583" x="57.204327" y="143.80096">a</tspan></text><text x="100.41853" y="143.80096"><tspan stroke-width=".264583" x="100.41853" y="143.80096">b</tspan></text><text x="124.54774" y="143.80096"><tspan stroke-width=".264583" x="124.54774" y="143.80096">c</tspan></text><text x="57.204327" y="156.229"><tspan stroke-width=".264583" x="57.204327" y="156.229">a</tspan></text><text x="100.41853" y="156.229"><tspan stroke-width=".264583" x="100.41853" y="156.229">b</tspan></text><text x="124.54774" y="156.229"><tspan stroke-width=".264583" x="124.54774" y="156.229">c</tspan></text><text x="57.204327" y="168.65704"><tspan stroke-width=".264583" x="57.204327" y="168.65704">a</tspan></text><text x="100.41853" y="168.65704"><tspan stroke-width=".264583" x="100.41853" y="168.65704">b</tspan></text><text x="124.54774" y="168.65704"><tspan stroke-width=".264583" x="124.54774" y="168.65704">c</tspan></text><text x="16.360086" y="95.067986"><tspan stroke-width=".264583" x="16.360086" y="95.067986">0</tspan></text><text x="144.59917" y="95.071075"><tspan stroke-width=".264583" x="144.59917" y="95.071075">1</tspan></text><text x="16.360086" y="107.31876"><tspan stroke-width=".264583" x="16.360086" y="107.31876">0</tspan></text><text x="144.87822" y="107.3642"><tspan stroke-width=".264583" x="144.87822" y="107.3642">0.6</tspan></text><text x="16.360086" y="119.56952"><tspan stroke-width=".264583" x="16.360086" y="119.56952">0</tspan></text><text x="144.87822" y="119.66043"><tspan stroke-width=".264583" x="144.87822" y="119.66043">0.36</tspan></text><text x="2.156302" y="131.82028"><tspan stroke-width=".264583" x="2.156302" y="131.82028">0.264</tspan></text><text x="144.87822" y="131.95667"><tspan stroke-width=".264583" x="144.87822" y="131.95667">0.36</tspan></text><text x="2.156302" y="144.07104"><tspan stroke-width=".264583" x="2.156302" y="144.07104">0.264</tspan></text><text x="144.87822" y="144.25288"><tspan stroke-width=".264583" x="144.87822" y="144.25288">0.3216</tspan></text><text x="144.87822" y="156.54912"><tspan stroke-width=".264583" x="144.87822" y="156.54912">0.3216</tspan></text><text x="144.87822" y="168.84534"><tspan stroke-width=".264583" x="144.87822" y="168.84534">0.315456</tspan></text><text x="-5.923823" y="156.32182"><tspan stroke-width=".264583" x="-5.923823" y="156.32182">0.30624</tspan></text><text x="-5.923823" y="168.57259"><tspan stroke-width=".264583" x="-5.923823" y="168.57259">0.30624</tspan></text><text x="90.254425" y="87.130486"><tspan font-size="5.644444" stroke-width=".264583" x="90.254425" y="87.130486">0.6</tspan></text><text x="102.16641" y="87.298355"><tspan font-size="5.644444" stroke-width=".264583" x="102.16641" y="87.298355">0.733</tspan></text><text x="76.934219" y="180.73921"><tspan stroke-width=".264583" x="76.934219" y="180.73921">etc.</tspan></text><text x="188.06642" y="95.071075"><tspan stroke-width=".264583" x="188.06642" y="95.071075">«»</tspan></text><text x="188.06642" y="107.2916"><tspan stroke-width=".264583" x="188.06642" y="107.2916">«a»</tspan></text><text x="188.06642" y="119.51212"><tspan stroke-width=".264583" x="188.06642" y="119.51212">«aa»</tspan></text><text x="188.06642" y="131.73264"><tspan stroke-width=".264583" x="188.06642" y="131.73264">«aac»</tspan></text><text x="188.06642" y="143.95316"><tspan stroke-width=".264583" x="188.06642" y="143.95316">«aaca»</tspan></text><text x="188.06642" y="156.17368"><tspan stroke-width=".264583" x="188.06642" y="156.17368">«aacac»</tspan></text><text x="188.06642" y="168.3942"><tspan stroke-width=".264583" x="188.06642" y="168.3942">«aacaca»</tspan></text></g></g></svg>