<svg height="99.6978mm" viewBox="0 0 211.0955 99.6978" width="211.0955mm" xmlns="http://www.w3.org/2000/svg" xmlns:xlink="http://www.w3.org/1999/xlink"><marker id="a" orient="auto" overflow="visible" refX="0" refY="0"><path d="m0 0 5-5-17.5 5 17.5 5z" fill-rule="evenodd" stroke="#000" stroke-width="1pt" transform="matrix(-.4 0 0 -.4 -4 0)"/></marker><marker id="b" orient="auto" overflow="visible" refX="0" refY="0"><path d="m0 0 5-5-17.5 5 17.5 5z" fill-rule="evenodd" stroke="#000" stroke-width="1pt" transform="matrix(-.4 0 0 -.4 -4 0)"/></marker><g transform="translate(-9.00636 -123.24097)"><g stroke="#000"><path d="m50.21664 123.35847h8v8h-8z" fill="#ffd5d5" stroke-linecap="round" stroke-width=".235"/><path d="m58.216637 123.35847h8v8h-8z" fill="#ffd5d5" stroke-linecap="round" stroke-width=".235"/><path d="m66.216637 123.35847h8v8h-8z" fill="#d5ffd5" stroke-linecap="round" stroke-width=".235"/><path d="m74.216644 123.35847h8v8h-8z" fill="#ffd5d5" stroke-linecap="round" stroke-width=".235"/><path d="m82.216637 123.35847h8v8h-8z" fill="#d5ffd5" stroke-linecap="round" stroke-width=".235"/><path d="m90.216644 123.35847h8v8h-8z" fill="#ffd5d5" stroke-linecap="round" stroke-width=".235"/><path d="m98.216644 123.35847h8v8h-8z" fill="#ffd5d5" stroke-linecap="round" stroke-width=".235"/><path d="m106.21664 123.35847h8v8h-8z" fill="#fff6d5" stroke-linecap="round" stroke-width=".235"/><path d="m114.21664 123.35847h8v8h-8z" fill="#ffd5d5" stroke-linecap="round" stroke-width=".235"/><path d="m122.21664 123.35847h8v8h-8z" fill="#d5ffd5" stroke-linecap="round" stroke-width=".235"/><path d="m130.21663 123.35847h8v8h-8z" fill="#fff6d5" stroke-linecap="round" stroke-width=".235"/><path d="m138.21666 123.35847h8v8h-8z" fill="#ffd5d5" stroke-linecap="round" stroke-width=".235"/><path d="m146.21663 123.35847h8v8h-8z" fill="#ffd5d5" stroke-linecap="round" stroke-width=".235"/><path d="m154.21666 123.35847h8v8h-8z" fill="#ffd5d5" stroke-linecap="round" stroke-width=".235"/><path d="m162.21663 123.35847h8v8h-8z" fill="#d5ffd5" stroke-linecap="round" stroke-width=".235"/></g><text font-family="sans-serif" font-size="6.35" letter-spacing="0" stroke-width=".264583" word-spacing="0" x="52.36869" y="129.72575"><tspan stroke-width=".264583" x="52.36869" y="129.72575">a</tspan></text><text font-family="sans-serif" font-size="6.35" letter-spacing="0" stroke-width=".264583" word-spacing="0" x="60.358822" y="129.72575"><tspan stroke-width=".264583" x="60.358822" y="129.72575">a</tspan></text><text font-family="sans-serif" font-size="6.35" letter-spacing="0" stroke-width=".264583" word-spacing="0" x="68.472984" y="129.72575"><tspan stroke-width=".264583" x="68.472984" y="129.72575">c</tspan></text><text font-family="sans-serif" font-size="6.35" letter-spacing="0" stroke-width=".264583" word-spacing="0" x="76.339104" y="129.72575"><tspan stroke-width=".264583" x="76.339104" y="129.72575">a</tspan></text><text font-family="sans-serif" font-size="6.35" letter-spacing="0" stroke-width=".264583" word-spacing="0" x="84.329239" y="129.72575"><tspan stroke-width=".264583" x="84.329239" y="129.72575">c</tspan></text><text font-family="sans-serif" font-size="6.35" letter-spacing="0" stroke-width=".264583" word-spacing="0" x="92.443398" y="129.72575"><tspan stroke-width=".264583" x="92.443398" y="129.72575">a</tspan></text><text font-family="sans-serif" font-size="6.35" letter-spacing="0" stroke-width=".264583" word-spacing="0" x="100.30951" y="129.72575"><tspan stroke-width=".264583" x="100.30951" y="129.72575">a</tspan></text><text font-family="sans-serif" font-size="6.35" letter-spacing="0" stroke-width=".264583" word-spacing="0" x="108.01748" y="129.72575"><tspan stroke-width=".264583" x="108.01748" y="129.72575">b</tspan></text><text font-family="sans-serif" font-size="6.35" letter-spacing="0" stroke-width=".264583" word-spacing="0" x="116.4138" y="129.72575"><tspan stroke-width=".264583" x="116.4138" y="129.72575">a</tspan></text><text font-family="sans-serif" font-size="6.35" letter-spacing="0" stroke-width=".264583" word-spacing="0" x="124.27992" y="129.72575"><tspan stroke-width=".264583" x="124.27992" y="129.72575">c</tspan></text><text font-family="sans-serif" font-size="6.35" letter-spacing="0" stroke-width=".264583" word-spacing="0" x="131.9879" y="129.72575"><tspan stroke-width=".264583" x="131.9879" y="129.72575">b</tspan></text><text font-family="sans-serif" font-size="6.35" letter-spacing="0" stroke-width=".264583" word-spacing="0" x="140.26019" y="129.72575"><tspan stroke-width=".264583" x="140.26019" y="129.72575">a</tspan></text><text font-family="sans-serif" font-size="6.35" letter-spacing="0" stroke-width=".264583" word-spacing="0" x="148.25032" y="129.72575"><tspan stroke-width=".264583" x="148.25032" y="129.72575">a</tspan></text><text font-family="sans-serif" font-size="6.35" letter-spacing="0" stroke-width=".264583" word-spacing="0" x="156.24048" y="129.72575"><tspan stroke-width=".264583" x="156.24048" y="129.72575">a</tspan></text><text font-family="sans-serif" font-size="6.35" letter-spacing="0" stroke-width=".264583" word-spacing="0" x="164.35461" y="129.72575"><tspan stroke-width=".264583" x="164.35461" y="129.72575">c</tspan></text><path d="m13.580481 145.78053h116.16836v57.753464h-116.16836z" fill="#ffd5d5" stroke="#000" stroke-linecap="round" stroke-width=".235"/><path d="m129.74988 145.78452h25.536098v57.745605h-25.536098z" fill="#fff6d5" stroke="#000" stroke-linecap="round" stroke-width=".235"/><path d="m155.47018 145.79201h51.382603v57.73048h-51.382603z" fill="#d5ffd5" stroke="#000" stroke-linecap="round" stroke-width=".235"/><path d="m70.216637 141.47442v-8.69346" fill="none" marker-end="url(#b)" stroke="#000" stroke-width=".565"/><path d="m13.649491 155.536914h69.658562v39.694744h-69.658562z" fill="#ffd5d5" stroke="#000" stroke-linecap="round" stroke-width=".235"/><path d="m83.308674 155.539644h15.312326v39.689342h-15.312326z" fill="#fff6d5" stroke="#000" stroke-linecap="round" stroke-width=".235"/><path d="m98.731457 155.544804h30.810783v39.678947h-30.810783z" fill="#d5ffd5" stroke="#000" stroke-linecap="round" stroke-width=".235"/><path d="m13.598439 162.365164h41.889576v27.058018h-41.889576z" fill="#ffd5d5" stroke="#000" stroke-linecap="round" stroke-width=".235"/><path d="m55.488388 162.367024h9.208156v27.054337h-9.208156z" fill="#fff6d5" stroke="#000" stroke-linecap="round" stroke-width=".235"/><path d="m64.762966 162.370534h18.528242v27.047251h-18.528242z" fill="#d5ffd5" stroke="#000" stroke-linecap="round" stroke-width=".235"/><path d="m64.773449 167.916314h11.136596v15.955724h-11.136596z" fill="#ffd5d5" stroke="#000" stroke-linecap="round" stroke-width=".235"/><path d="m75.910145 167.917404h2.448044v15.953553h-2.448044z" fill="#fff6d5" stroke="#000" stroke-linecap="round" stroke-width=".235"/><path d="m78.375843 167.919484h4.925845v15.949374h-4.925845z" fill="#d5ffd5" stroke="#000" stroke-linecap="round" stroke-width=".235"/><path d="m9.0063597 212.46844h209.9820703" fill="none" marker-end="url(#a)" stroke="#000" stroke-width=".565"/><text font-family="sans-serif" font-size="6.35" letter-spacing="0" stroke-width=".264583" word-spacing="0" x="204.56195" y="222.30461"><tspan stroke-width=".264583" x="204.56195" y="222.30461">1</tspan></text><path d="m206.63779 208.7396v7.91482" fill="none" stroke="#000" stroke-width=".665"/><path d="m14.187897 208.7396v7.91482" fill="none" stroke="#000" stroke-width=".665"/><text font-family="sans-serif" font-size="6.35" letter-spacing="0" stroke-width=".264583" word-spacing="0" x="12.169415" y="222.30461"><tspan stroke-width=".264583" x="12.169415" y="222.30461">0</tspan></text></g></svg>