<svg height="135" width="180" xmlns="http://www.w3.org/2000/svg" xmlns:xlink="http://www.w3.org/1999/xlink"><linearGradient id="a"><stop offset="0" stop-color="#202020"/><stop offset="1" stop-color="#303030"/></linearGradient><linearGradient id="b"><stop offset="0" stop-color="#3a344c"/><stop offset="1" stop-color="#a8abd8"/></linearGradient><linearGradient id="c" gradientUnits="userSpaceOnUse" x1="45" x2="45" xlink:href="#b" y1="53.236687" y2="38.636093"/><linearGradient id="d" gradientUnits="userSpaceOnUse" x1="44.98225" x2="45" y1="76.16272" y2="71.937866"><stop offset="0" stop-color="#808080"/><stop offset="1" stop-color="#9b9b9b"/></linearGradient><linearGradient id="e" gradientUnits="userSpaceOnUse" x1="-15.023668" x2="-15" xlink:href="#a" y1="82.00296" y2="76.16272"/><linearGradient id="f" gradientUnits="userSpaceOnUse" x1="24.976332" x2="25" xlink:href="#a" y1="82.00296" y2="76.16272"/><linearGradient id="g" gradientUnits="userSpaceOnUse" x1="44.98225" x2="45" y1="67.029587" y2="53.112427"><stop offset="0" stop-color="#dcdcdc"/><stop offset=".60000002" stop-color="#b4b4b4"/><stop offset="1" stop-color="#e6e6e6"/></linearGradient><radialGradient id="h" cx="23.421827" cy="44.596478" gradientTransform="matrix(-.8846058 .00243657 -.00023644 -.08583828 65.729629 71.235513)" gradientUnits="userSpaceOnUse" r="25.5"><stop offset="0" stop-opacity=".12549"/><stop offset="1" stop-opacity="0"/></radialGradient><linearGradient id="i" gradientUnits="userSpaceOnUse" x1="20.45858" x2="20.955622" xlink:href="#b" y1="52.180473" y2="47.52071"/><g fill="#808080" transform="translate(0 7)"><g id="j" fill="#808080"><path d="m89 2h2v2h-2z" fill="#808080" fill-rule="evenodd"/><path d="m89 8h2v8h-2z" fill="#808080" fill-rule="evenodd"/><path d="m89 20h2v2h-2z" fill="#808080" fill-rule="evenodd"/></g><g fill="#808080"><use height="135" transform="translate(0 24)" width="180" xlink:href="#j"/><use height="135" transform="translate(0 48)" width="180" xlink:href="#j"/><use height="135" transform="translate(0 72)" width="180" xlink:href="#j"/><use height="135" transform="translate(0 96)" width="180" xlink:href="#j"/></g></g><g id="k" transform="translate(0 16)"><path d="m25 37.5.5-2.5 2-2h35l2 2 .5 2.5-1.5 2h-37z" fill="#fff" fill-rule="evenodd" stroke="#000"/><path d="m50.5 31.5h7v3.5h-7z" fill="#303030" fill-rule="evenodd" stroke="#000"/><use height="135" transform="matrix(-1 0 0 1 89.951546 0)" width="180" xlink:href="#l"/><path id="l" d="m22 52.5c-1.5 0-5-.5-4.5-2s3.5-1 5-1l-.5 3z" fill="url(#i)" fill-rule="evenodd" stroke="#000"/><rect id="m" fill="url(#f)" fill-rule="evenodd" height="15" rx="1" ry=".5" stroke="#000" width="9" x="20.5" y="67.5"/><use fill="url(#e)" height="135" transform="translate(40)" width="180" xlink:href="#m"/><path d="m19.5 69.5h51c0 1.5 0 4.5-1 6-17 1.5-32 1.5-49 0-1-1.5-1-4.5-1-6z" fill="url(#d)" fill-rule="evenodd" stroke="#000"/><path d="m19.5 69.5v-3.5c3-9.5.5-13.5 5.5-28.5 12.5-1 27.5-1 40 0 5 15 2.5 19 5.5 28.5v3.5c-18.5 1.5-33 1.5-51 0z" fill="url(#g)" fill-rule="evenodd" stroke="#000"/><rect fill="#dbb915" fill-rule="evenodd" height="3" rx=".5" stroke="#6d5c0a" width="11" x="39.5" y="68.5"/><path d="m34.5 76.5a1.5 1.5 0 1 1 -3 0 1.5 1.5 0 1 1 3 0z" fill="#202020" fill-rule="evenodd" stroke="#000" transform="translate(1)"/><path d="m26.5 39.5c11-1 26-1 37 0 1.5 4.5 2 8 2.5 13-13 1.5-28.5 1.5-42 0 .439628-4.893705 1-8.5 2.5-13z" fill="url(#c)" fill-rule="evenodd" stroke="#000"/><g fill="#013dff" transform="translate(0 -.5)"><path d="m33 57.5h6l9 9h-6z" fill="#013dff" fill-rule="evenodd"/><path d="m21 57.5h6l9 9h-6z" fill="#013dff" fill-rule="evenodd"/></g><g fill="#ff3d01" transform="translate(0 -.5)"><path d="m39 57.5 6 6 6-6z" fill="#ff3d01" fill-rule="evenodd"/><path d="m63 57.5h-6l-9 9h6z" fill="#ff3d01" fill-rule="evenodd"/><path id="n" d="m65.5 61-5.5 5.5c6.5 0 6-2.5 5.5-5.5z" fill="#ff3d01" fill-rule="evenodd"/><path d="m27 57.5h6l9 9h-6z" fill="#ff3d01" fill-rule="evenodd"/><use fill="#ff3d01" height="135" transform="matrix(-1 0 0 1 90 0)" width="180" xlink:href="#n"/></g><path id="o" d="m21.5 54.5c6.603507.504094 12.5 1 12 3.5s-6.5 2.5-12.5 2.5z" fill="#600000" fill-rule="evenodd" stroke="#a00000"/><use height="135" transform="matrix(-1 0 0 1 90 0)" width="180" xlink:href="#o"/><path d="m22.5 66c2 2 42.5 2 45 0l2.5 4h-50z" fill="url(#h)" fill-rule="evenodd"/><path d="m40 69h1.5v2h-1.5z" fill="#2f2f79" fill-rule="evenodd"/><path d="m25.5 31.5h7v3.5h-7z" fill="#040060" fill-rule="evenodd" stroke="#0600e0"/><path d="m57.5 31.5h7v3.5h-7z" fill="#040060" fill-rule="evenodd" stroke="#0600e0"/><path d="m33.5 31.5h17v3.5h-17z" fill="#600000" fill-rule="evenodd" stroke="#a00000"/><path d="m45 60 9.468843-4.397845-1.328166-1.495319 37.382975-33.204114-1.328165-1.495319-37.382973 33.204115-1.328165-1.495319z" fill-rule="evenodd"/></g><use height="135" transform="matrix(-1 0 0 1 179.95155 0)" width="180" xlink:href="#k"/><g transform="translate(0 15)"><path id="p" d="m5 75 10 3v-2h10v-2h-10v-2z" fill="#c00000" fill-rule="evenodd"/><use height="135" transform="translate(40)" width="180" xlink:href="#p"/><use height="135" transform="translate(90)" width="180" xlink:href="#p"/><use height="135" transform="translate(130)" width="180" xlink:href="#p"/></g><path d="m91.5 36.5a1.5 1.5 0 1 1 -3 0 1.5 1.5 0 1 1 3 0z" fill-rule="evenodd" transform="translate(0 -.261409)"/></svg>