<svg height="75.283783mm" viewBox="0 0 124.83858 75.283783" width="124.83858mm" xmlns="http://www.w3.org/2000/svg"><g transform="translate(-19.498817 -100.60001)"><path d="m59.552404 125.26768c5.343525 3.75364 2.027237 11.23764-7.40701 16.71611-9.434248 5.47846-21.414052 6.87705-26.757842 3.12314-5.343525-3.75365-2.027502-11.23765 7.407011-16.71611 9.434512-5.47846 21.414316-6.87679 26.757841-3.12314z" fill="none" stroke="#000" stroke-width=".529167"/><path d="m82.15761 105.27999v70.6038" fill="none" stroke="#000" stroke-dasharray="5.96056 5.96056" stroke-width=".745067"/><path d="m62.072825 135.92933-2.645834 2.80299.694532-.22331c-1.017852 1.27635-2.333096 2.55085-3.8862 3.74544-2.4638 1.89548-5.517621 3.59358-8.772525 4.87839-3.255434 1.28455-6.711156 2.15265-9.905471 2.48867h-.0082c-3.19114.33523-6.122458.14208-8.408723-.54583l-.14896.50403c2.380985.71623 5.37501.90434 8.623829.56224 3.246437-.34184 6.733116-1.21365 10.029295-2.51354h.0082c3.288241-1.29726 6.374341-3.02049 8.88021-4.94454l.02487-.0167c1.765564-1.35863 3.2385-2.8186 4.332552-4.29127l.421746 1.33112z" stroke-width=".264583"/><path d="m48.895516 150.11761 7.008196 17.576" fill="none" stroke="#00f" stroke-width=".529167"/><path d="m35.670431 170.27092s3.866845-10.94867 2.729971-17.8444" fill="none" stroke="#00f" stroke-width=".529167"/><path d="m68.345026 160.51141s-8.698888-6.92067-11.72611-13.65463" fill="none" stroke="#00f" stroke-width=".529167"/><text fill="#00f" font-family="serif" font-size="9.525" font-style="italic" stroke-width=".264583" x="35.751572" y="109.08232">B</text><text fill="#00f" font-family="serif" font-size="9.525" font-style="italic" stroke-width=".264583" x="125.78502" y="109.08232">B</text><text font-family="serif" font-size="9.525" font-style="italic" stroke-width=".264583" x="63.500515" y="131.28694">I</text><text font-family="serif" font-size="9.525" font-style="italic" stroke-width=".264583" x="97.786552" y="131.28694">I</text><path d="m40.211627 100.61565.396875.39688h-3.40651v.26458h3.40651l-.396875.39688 1.852083-.52917z" fill="#00f" stroke-width=".264583"/><path d="m66.66996 122.82848.396875.39688h-3.40651v.26458h3.40651l-.396875.39688 1.852083-.52917z" stroke-width=".264583"/><path d="m100.80121 122.82848.39687.39688h-3.406506v.26458h3.406506l-.39687.39688 1.85208-.52917z" stroke-width=".264583"/><path d="m104.66639 125.17713c-5.343521 3.75364-2.02723 11.23765 7.40701 16.71611 9.43425 5.47846 21.41406 6.87705 26.75785 3.12314 5.34352-3.75364 2.0275-11.23765-7.40701-16.71611-9.43452-5.47846-21.41432-6.87679-26.75785-3.12314z" fill="none" stroke="#000" stroke-width=".529167"/><path d="m102.14597 135.83878 2.64584 2.80299-.69454-.22331c1.01786 1.27635 2.3331 2.55085 3.8862 3.74545 2.4638 1.89547 5.51763 3.59357 8.77253 4.87838 3.25543 1.28456 6.71116 2.15265 9.90547 2.48867h.008c3.19114.33523 6.12246.14209 8.40873-.54583l.14896.50403c-2.38099.71623-5.37501.90435-8.62383.56224-3.24644-.34184-6.73312-1.21364-10.0293-2.51354h-.008c-3.28824-1.29725-6.37434-3.02048-8.88021-4.94453l-.0249-.0167c-1.76557-1.35864-3.2385-2.81861-4.33255-4.29128l-.42175 1.33112z" stroke-width=".264583"/><g fill="#00f"><path d="m115.08031 149.92737-7.01146 17.57826.49609.19843 7.00319-17.57825z"/><path d="m110.52998 165.50613-2.46974 2.74979.0999-3.69472c.4943.79372 1.45261 1.1724 2.36981.94493z" fill-rule="evenodd" stroke-linejoin="round" stroke-width=".165365"/><g transform="matrix(.26458333 0 0 .26458333 14.232719 97.17607)"><path d="m420.75 208.3125c-2.19185 13.29466.43255 30.21372 3.5625 43.875s6.8125 24.0625 6.8125 24.0625l1.875-.65625s-3.64674-10.29898-6.75-23.84375-5.63625-30.32581-3.53125-43.09375z"/><path d="m433.13918 264.44468-.17983 13.96825-8.9123-10.7571c3.38153 1.02711 7.04969-.28121 9.09213-3.21115z" fill-rule="evenodd" stroke-linejoin="round" stroke-width=".625"/></g><path d="m107.35778 146.66142c-1.48865 3.31145-4.40331 6.70798-6.94531 9.26869-2.541997 2.5607-4.704622 4.28294-4.704622 4.28294l.330729.41341s2.18998-1.74116 4.754233-4.32428c2.56425-2.58313 5.50596-6.00328 7.04453-9.42579z"/><path d="m98.837345 159.69968-3.508833 1.16148 1.920463-3.15797c.0352.93439.679217 1.73876 1.58837 1.99649z" fill-rule="evenodd" stroke-linejoin="round" stroke-width=".165365"/><path d="m130.17711 100.60001.39687.39688h-3.40651v.26458h3.40651l-.39687.39687 1.85208-.52916z" stroke-width=".264583"/><g transform="matrix(.26458333 0 0 .26458333 14.232719 97.17607)"><path d="m22.71875 98.1875-.9375 1.78125c39.113926 21.14191 51.375 54.84375 51.375 54.84375l1.875-.6875s-12.56855-34.45505-52.3125-55.9375z"/><path d="m29.144805 108.31165-9.241441-10.475692 13.826502 1.993024c-3.196155 1.508088-5.037373 4.939848-4.585061 8.482668z" fill-rule="evenodd" stroke-linejoin="round" stroke-width=".625"/></g><g transform="matrix(.26458333 0 0 .26458333 14.232719 97.17607)"><path d="m74.65625 57.25-1.84375.75 34.9375 86.84375 1.84375-.75z"/><path d="m73.143445 69.129362-.420564-13.963074 9.366315 10.364192c-3.422551-.88085-7.031096.58388-8.945751 3.598882z" fill-rule="evenodd" stroke-linejoin="round" stroke-width=".625"/></g><g transform="matrix(.26458333 0 0 .26458333 14.232719 97.17607)"><path d="m153.875 59.65625c-20.15154 39.679395-10.5625 74.4375-10.5625 74.4375l1.9375-.53125s-9.38566-33.967191 10.4375-73z"/><path d="m145.72754 67.256176 10.2355-9.506783-1.63815 13.873023c-1.58948-3.15647-5.06728-4.909166-8.59735-4.36624z" fill-rule="evenodd" stroke-linejoin="round" stroke-width=".625"/></g></g><path d="m130.48956 138.29379s3.28979-9.01877 13.72203-14.65761" fill="none" stroke="#00f" stroke-width=".529167"/><path d="m121.34556 135.64264 9.24352-22.97664" fill="none" stroke="#00f" stroke-width=".529167"/><path d="m111.92386 132.82971s2.50867-9.08842-2.77965-19.50138" fill="none" stroke="#00f" stroke-width=".529167"/></g></svg>