<svg height="102.47018mm" viewBox="0 0 115.59988 102.47018" width="115.59988mm" xmlns="http://www.w3.org/2000/svg"><g transform="translate(-23.583903 -83.650522)"><g stroke="#000" stroke-linecap="round" stroke-width=".440599"><path d="m33.732235 94.859779h15.033036v15.033036h-15.033036z" fill="#ccc"/><path d="m48.765274 94.859779h15.033036v15.033036h-15.033036z" fill="#ccc"/><path d="m63.798306 94.859779h15.033036v15.033036h-15.033036z" fill="#ccc"/><path d="m78.831337 94.859779h15.033036v15.033036h-15.033036z" fill="#ccc"/><path d="m93.864372 94.859779h15.033036v15.033036h-15.033036z" fill="#ccc"/><path d="m108.89741 94.859779h15.033036v15.033036h-15.033036z" fill="#ccc"/><path d="m123.93044 94.859779h15.033036v15.033036h-15.033036z" fill="#ccc"/><path d="m33.732235 109.89283h15.033036v15.033036h-15.033036z" fill="#ccc"/><path d="m48.765274 109.89283h15.033036v15.033036h-15.033036z" fill="#ccc"/><path d="m63.798306 109.89283h15.033036v15.033036h-15.033036z" fill="#ccc"/><path d="m78.831337 109.89283h15.033036v15.033036h-15.033036z" fill="#ccc"/><path d="m93.864372 109.89283h15.033036v15.033036h-15.033036z" fill="#ccc"/><path d="m108.89741 109.89283h15.033036v15.033036h-15.033036z" fill="#ccc"/><path d="m123.93044 109.89283h15.033036v15.033036h-15.033036z" fill="#ccc"/><path d="m33.732235 124.92586h15.033036v15.033036h-15.033036z" fill="#ccc"/><path d="m48.765274 124.92586h15.033036v15.033036h-15.033036z" fill="#ccc"/><path d="m63.798306 124.92586h15.033036v15.033036h-15.033036z" fill="#ccc"/><path d="m78.831337 124.92586h15.033036v15.033036h-15.033036z" fill="#4d4d4d"/><path d="m93.864372 124.92586h15.033036v15.033036h-15.033036z" fill="none"/><path d="m108.89741 124.92586h15.033036v15.033036h-15.033036z" fill="none"/><path d="m123.93044 124.92586h15.033036v15.033036h-15.033036z" fill="none"/><path d="m33.732235 139.95889h15.033036v15.033036h-15.033036z" fill="none"/><path d="m48.765274 139.95889h15.033036v15.033036h-15.033036z" fill="none"/><path d="m63.798306 139.95889h15.033036v15.033036h-15.033036z" fill="none"/><path d="m78.831337 139.95889h15.033036v15.033036h-15.033036z" fill="none"/><path d="m93.864372 139.95889h15.033036v15.033036h-15.033036z" fill="none"/><path d="m108.89741 139.95889h15.033036v15.033036h-15.033036z" fill="none"/><path d="m123.93044 139.95889h15.033036v15.033036h-15.033036z" fill="none"/></g><text font-family="sans-serif" font-size="9.825759" letter-spacing="0" stroke-width=".409407" word-spacing="0" x="83.241325" y="90.943077"><tspan stroke-width=".409407" x="83.241325" y="90.943077">3</tspan></text><text font-family="sans-serif" font-size="9.825759" letter-spacing="0" stroke-width=".409407" word-spacing="0" x="22.864243" y="136.08867"><tspan stroke-width=".409407" x="22.864243" y="136.08867">2</tspan></text><text font-family="sans-serif" font-size="9.825759" letter-spacing="0" stroke-width=".409407" word-spacing="0" x="36.385452" y="104.76077"><tspan font-size="6.550506" stroke-width=".409407" x="36.385452" y="104.76077">#0</tspan></text><text font-family="sans-serif" font-size="9.825759" letter-spacing="0" stroke-width=".409407" word-spacing="0" x="51.429279" y="104.76077"><tspan font-size="6.550506" stroke-width=".409407" x="51.429279" y="104.76077">#1</tspan></text><text font-family="sans-serif" font-size="9.825759" letter-spacing="0" stroke-width=".409407" word-spacing="0" x="66.413933" y="104.76077"><tspan font-size="6.550506" stroke-width=".409407" x="66.413933" y="104.76077">#2</tspan></text><text font-family="sans-serif" font-size="9.825759" letter-spacing="0" stroke-width=".409407" word-spacing="0" x="81.307434" y="104.76077"><tspan font-size="6.550506" stroke-width=".409407" x="81.307434" y="104.76077">#3</tspan></text><text font-family="sans-serif" font-size="9.825759" letter-spacing="0" stroke-width=".409407" word-spacing="0" x="96.188133" y="104.76077"><tspan font-size="6.550506" stroke-width=".409407" x="96.188133" y="104.76077">#4</tspan></text><text font-family="sans-serif" font-size="9.825759" letter-spacing="0" stroke-width=".409407" word-spacing="0" x="111.24956" y="104.76077"><tspan font-size="6.550506" stroke-width=".409407" x="111.24956" y="104.76077">#5</tspan></text><text font-family="sans-serif" font-size="9.825759" letter-spacing="0" stroke-width=".409407" word-spacing="0" x="126.12866" y="104.76077"><tspan font-size="6.550506" stroke-width=".409407" x="126.12866" y="104.76077">#6</tspan></text><text font-family="sans-serif" font-size="9.825759" letter-spacing="0" stroke-width=".409407" word-spacing="0" x="36.385452" y="119.79382"><tspan font-size="6.550506" stroke-width=".409407" x="36.385452" y="119.79382">#7</tspan></text><text font-family="sans-serif" font-size="9.825759" letter-spacing="0" stroke-width=".409407" word-spacing="0" x="51.372906" y="119.797"><tspan font-size="6.550506" stroke-width=".409407" x="51.372906" y="119.797">#8</tspan></text><text font-family="sans-serif" font-size="9.825759" letter-spacing="0" stroke-width=".409407" word-spacing="0" x="66.422729" y="119.84019"><tspan font-size="6.550506" stroke-width=".409407" x="66.422729" y="119.84019">#9</tspan></text><text font-family="sans-serif" font-size="9.825759" letter-spacing="0" stroke-width=".409407" word-spacing="0" x="79.369553" y="119.79382"><tspan font-size="6.550506" stroke-width=".409407" x="79.369553" y="119.79382">#10</tspan></text><text font-family="sans-serif" font-size="9.825759" letter-spacing="0" stroke-width=".409407" word-spacing="0" x="94.497742" y="119.797"><tspan font-size="6.550506" stroke-width=".409407" x="94.497742" y="119.797">#11</tspan></text><text font-family="sans-serif" font-size="9.825759" letter-spacing="0" stroke-width=".409407" word-spacing="0" x="109.56675" y="119.75063"><tspan font-size="6.550506" stroke-width=".409407" x="109.56675" y="119.75063">#12</tspan></text><text font-family="sans-serif" font-size="9.825759" letter-spacing="0" stroke-width=".409407" word-spacing="0" x="124.54462" y="119.79382"><tspan font-size="6.550506" stroke-width=".409407" x="124.54462" y="119.79382">#13</tspan></text><text font-family="sans-serif" font-size="9.825759" letter-spacing="0" stroke-width=".409407" word-spacing="0" x="34.268055" y="134.83005"><tspan font-size="6.550506" stroke-width=".409407" x="34.268055" y="134.83005">#14</tspan></text><text font-family="sans-serif" font-size="9.825759" letter-spacing="0" stroke-width=".409407" word-spacing="0" x="49.403439" y="134.82686"><tspan font-size="6.550506" stroke-width=".409407" x="49.403439" y="134.82686">#15</tspan></text><text font-family="sans-serif" font-size="9.825759" letter-spacing="0" stroke-width=".409407" word-spacing="0" x="64.356506" y="134.82686"><tspan font-size="6.550506" stroke-width=".409407" x="64.356506" y="134.82686">#16</tspan></text><text style="font-size:9.825759;font-family:sans-serif;letter-spacing:0;word-spacing:0;fill:#fff;stroke-width:.409407" x="79.463104" y="134.83005"><tspan fill="#fff" font-size="6.550506" stroke-width=".409407" x="79.463104" y="134.83005">#17</tspan></text><text font-family="sans-serif" font-size="9.825759" letter-spacing="0" stroke-width=".409407" word-spacing="0" x="86.304672" xml:space="preserve" y="171.79466"><tspan stroke-width=".409407" text-anchor="middle" x="86.304672" y="171.79466">2 × 7 + 3 = 17</tspan><tspan stroke-width=".409407" text-anchor="middle" x="86.304672" y="184.07686">y × <tspan font-style="italic" stroke-width=".409407" text-anchor="middle">width </tspan>+ x = <tspan font-style="italic" stroke-width=".409407" text-anchor="middle">pos</tspan></tspan></text></g></svg>