<svg height="108.5654mm" viewBox="0 0 148.02208 108.5654" width="148.02208mm" xmlns="http://www.w3.org/2000/svg" xmlns:xlink="http://www.w3.org/1999/xlink"><marker id="a" orient="auto" overflow="visible" refX="0" refY="0"><path d="m0 0 5-5-17.5 5 17.5 5z" fill-rule="evenodd" stroke="#000" stroke-width="1pt" transform="matrix(-.4 0 0 -.4 -4 0)"/></marker><marker id="b" orient="auto" overflow="visible" refX="0" refY="0"><path d="m0 0 5-5-17.5 5 17.5 5z" fill-rule="evenodd" stroke="#000" stroke-width="1pt" transform="matrix(-.4 0 0 -.4 -4 0)"/></marker><marker id="c" orient="auto" overflow="visible" refX="0" refY="0"><path d="m0 0 5-5-17.5 5 17.5 5z" fill-rule="evenodd" stroke="#000" stroke-width="1pt" transform="matrix(-.4 0 0 -.4 -4 0)"/></marker><marker id="d" orient="auto" overflow="visible" refX="0" refY="0"><path d="m0 0 5-5-17.5 5 17.5 5z" fill-rule="evenodd" stroke="#000" stroke-width="1pt" transform="matrix(-.4 0 0 -.4 -4 0)"/></marker><marker id="e" orient="auto" overflow="visible" refX="0" refY="0"><path d="m0 0 5-5-17.5 5 17.5 5z" fill-rule="evenodd" stroke="#000" stroke-width="1pt" transform="matrix(-.4 0 0 -.4 -4 0)"/></marker><marker id="f" orient="auto" overflow="visible" refX="0" refY="0"><path d="m0 0 5-5-17.5 5 17.5 5z" fill-rule="evenodd" stroke="#000" stroke-width="1pt" transform="matrix(-.4 0 0 -.4 -4 0)"/></marker><g transform="matrix(.96592583 -.25881905 .25881905 .96592583 -63.480421 -103.951097)"><g stroke="#000"><path d="m19.087797 199.67113h103.376483l42.14435-22.48958h-92.22619z" fill="#ccc" stroke-width=".264583"/><path d="m116.84635 186.91786a13.787531 5.4674706 0 0 1 -10.6643 6.47317 13.787531 5.4674706 0 0 1 -16.323735-4.2289 13.787531 5.4674706 0 0 1 10.664015-6.47324 13.787531 5.4674706 0 0 1 16.32393 4.22878" fill="#afe" stroke-linecap="round" stroke-width=".265"/><path d="m99.464287 182.85073-2.442239.24508" fill="none" marker-end="url(#d)" stroke-width=".264583"/><path d="m105.92 193.43859 2.44224-.24508" fill="none" marker-end="url(#c)" stroke-width=".264583"/></g><text font-family="sans-serif" font-size="6.35" letter-spacing="0" stroke-width=".264583" word-spacing="0" x="101.51753" y="190.26537"><tspan stroke-width=".264583" x="101.51753" y="190.26537">S</tspan></text><path d="m19.087797 174.34672h103.376483l42.14435-22.48958h-92.22619z" fill="#ccc" stroke="#000" stroke-width=".264583"/><path d="m78.808034 158.09374c-4.391499-.12781-8.811007.39107-13.057094 1.49626-1.900398.68721-3.496159 1.97118-5.051194 3.22434-.883894 1.80827-3.082382 2.46986-4.965748 2.33529-1.851389.72387-1.161638 3.66184.488955 4.20841 1.949554.72535 4.048463-.0991 6.045101.33369 1.884316-.0387 3.122236-1.73629 4.864724-2.21939 2.243457-1.14972 4.716028-2.08356 7.27745-1.85834 2.878009-.137 5.312369 2.10521 8.229347 1.72189 2.181139.0474 3.562278-1.67794 4.790881-3.17891 1.379824-.89152 3.383873-.8594 4.013483-2.68304.869178-1.70903 3.28303-1.69358 4.112583-3.47201-.0014-1.79244-2.797799-1.60511-4.12586-1.98186-2.245216-.21845-4.613193-.008-6.600247 1.13606-1.884585.83647-4.064499.37242-6.022381.93761z" fill="#afe" stroke="#000" stroke-width=".265"/><path d="m67.604584 167.24195 2.25014-.95084" fill="none" marker-end="url(#f)" stroke="#000" stroke-width=".264583"/><path d="m70.119588 158.66718-2.600932.5207" fill="none" marker-end="url(#e)" stroke="#000" stroke-width=".264583"/><text font-family="sans-serif" font-size="6.35" letter-spacing="0" stroke-width=".264583" word-spacing="0" x="74.391151" y="163.99646"><tspan stroke-width=".264583" x="74.391151" y="163.99646">S</tspan></text><path d="m19.087797 224.99554h103.376483l42.14435-22.48958h-92.22619z" fill="#ccc" stroke="#000" stroke-width=".264583"/><path d="m66.758975 218.94205h30.147762l12.290583-6.55866h-26.895988z" fill="#afe" stroke="#000" stroke-width=".265"/><text font-family="sans-serif" font-size="6.35" letter-spacing="0" stroke-width=".264583" word-spacing="0" x="87.53241" y="217.66864"><tspan stroke-width=".264583" x="87.53241" y="217.66864">S</tspan></text><path d="m91.237545 218.93921 2.578076.003" fill="none" marker-end="url(#b)" stroke="#000" stroke-width=".264583"/><path d="m87.04543 212.3911-2.578076.003" fill="none" marker-end="url(#a)" stroke="#000" stroke-width=".264583"/></g></svg>