<svg height="82.190384mm" viewBox="0 0 100.15976 82.190384" width="100.15976mm" xmlns="http://www.w3.org/2000/svg" xmlns:xlink="http://www.w3.org/1999/xlink"><marker id="a" orient="auto" overflow="visible" refX="0" refY="0"><path d="m0 0 5-5-17.5 5 17.5 5z" fill-rule="evenodd" stroke="#000" stroke-width="1pt" transform="matrix(-.4 0 0 -.4 -4 0)"/></marker><marker id="b" orient="auto" overflow="visible" refX="0" refY="0"><path d="m0 0 5-5-17.5 5 17.5 5z" fill-rule="evenodd" stroke="#000" stroke-width="1pt" transform="matrix(-.4 0 0 -.4 -4 0)"/></marker><marker id="c" orient="auto" overflow="visible" refX="0" refY="0"><path d="m0 0 5-5-17.5 5 17.5 5z" fill-rule="evenodd" stroke="#000" stroke-width="1pt" transform="matrix(-.4 0 0 -.4 -4 0)"/></marker><marker id="d" orient="auto" overflow="visible" refX="0" refY="0"><path d="m0 0 5-5-17.5 5 17.5 5z" fill-rule="evenodd" stroke="#000" stroke-width="1pt" transform="matrix(-.4 0 0 -.4 -4 0)"/></marker><marker id="e" orient="auto" overflow="visible" refX="0" refY="0"><path d="m0 0 5-5-17.5 5 17.5 5z" fill-rule="evenodd" stroke="#000" stroke-width="1pt" transform="matrix(-.4 0 0 -.4 -4 0)"/></marker><g transform="translate(-50.346482 -142.83812)"><path d="m57.329313 216.2846 88.733487-.13363-5.21176-28.06331-90.3371-.66817z" fill="#aef" stroke="#000" stroke-width=".264583"/><path d="m57.329313 216.2846 34.611405-42.22859-6.1472-29.93418-35.279578 43.29766z" fill="#fea" fill-opacity=".588235" stroke="#000" stroke-width=".264583"/><path d="m91.940718 174.05601 54.122082 42.09496-5.21176-28.06331-55.057522-43.96583z" fill="#afe" fill-opacity=".588235" stroke="#000" stroke-width=".264583"/><path d="m57.329313 216.2846 34.611405-42.22859" fill="none" marker-end="url(#d)" stroke="#000" stroke-width=".665"/><path d="m91.940718 174.05601-6.1472-29.93418" fill="none" marker-end="url(#e)" stroke="#000" stroke-width=".665"/><path d="m146.0628 216.15097-5.21176-28.06331" fill="none" marker-end="url(#c)" stroke="#000" stroke-width=".665"/><path d="m57.329313 218.03259 88.733487-.13363" fill="none" marker-end="url(#b)" stroke="#000" stroke-width=".665"/><g stroke-width=".264583"><text font-family="sans-serif" font-size="6.35" letter-spacing="0" word-spacing="0" x="62.674702" y="201.71841"><tspan font-weight="bold" stroke-width=".264583" x="62.674702" y="201.71841">u</tspan></text><text font-family="sans-serif" font-size="6.35" letter-spacing="0" word-spacing="0" x="91.406174" y="162.16252"><tspan font-weight="bold" stroke-width=".264583" x="91.406174" y="162.16252">w</tspan></text><text font-family="sans-serif" font-size="6.35" letter-spacing="0" word-spacing="0" x="120.80582" y="195.43758"><tspan font-weight="bold" stroke-width=".264583" x="120.80582" y="195.43758">v</tspan></text><text font-family="sans-serif" font-size="6.35" letter-spacing="0" word-spacing="0" x="144.86008" y="202.25294"><tspan font-weight="bold" stroke-width=".264583" x="144.86008" y="202.25294">w</tspan></text><text font-family="sans-serif" font-size="6.35" letter-spacing="0" word-spacing="0" x="95.159248" y="224.93858"><tspan font-weight="bold" stroke-width=".264583" x="95.159248" y="224.93858">u<tspan font-weight="normal">+</tspan>v</tspan></text><text font-family="sans-serif" font-size="6.35" letter-spacing="0" word-spacing="0" x="69.089165" y="179.0005"><tspan font-weight="bold" stroke-width=".264583" x="69.089165" y="179.0005">B<tspan baseline-shift="sub" font-size="64.999998%" font-weight="normal">1</tspan></tspan></text><text font-family="sans-serif" font-size="6.35" letter-spacing="0" word-spacing="0" x="110.78321" y="179.93594"><tspan font-weight="bold" stroke-width=".264583" x="110.78321" y="179.93594">B<tspan baseline-shift="sub" font-size="64.999998%" font-weight="normal">2</tspan></tspan></text><text font-family="sans-serif" font-size="6.35" letter-spacing="0" word-spacing="0" x="85.659882" y="203.05476"><tspan font-weight="bold" stroke-width=".264583" x="85.659882" y="203.05476">B<tspan baseline-shift="sub" font-size="64.999998%" font-weight="normal">1</tspan>+B<tspan baseline-shift="sub" font-size="64.999998%" font-weight="normal">2</tspan></tspan></text></g><path d="m91.940718 174.05601 54.122082 42.09496" fill="none" marker-end="url(#a)" stroke="#000" stroke-width=".665"/></g></svg>