<svg height="74.71698mm" viewBox="0 0 246.21558 74.71698" width="246.21559mm" xmlns="http://www.w3.org/2000/svg" xmlns:xlink="http://www.w3.org/1999/xlink"><marker id="a" orient="auto" overflow="visible" refX="0" refY="0"><path d="m0 0 5-5-17.5 5 17.5 5z" fill-rule="evenodd" stroke="#000" stroke-width="1pt" transform="matrix(-.4 0 0 -.4 -4 0)"/></marker><marker id="b" orient="auto" overflow="visible" refX="0" refY="0"><path d="m0 0 5-5-17.5 5 17.5 5z" fill-rule="evenodd" stroke="#000" stroke-width="1pt" transform="matrix(-.4 0 0 -.4 -4 0)"/></marker><marker id="c" orient="auto" overflow="visible" refX="0" refY="0"><path d="m0 0 5-5-17.5 5 17.5 5z" fill-rule="evenodd" stroke="#000" stroke-width="1pt" transform="matrix(-.4 0 0 -.4 -4 0)"/></marker><marker id="d" orient="auto" overflow="visible" refX="0" refY="0"><path d="m0 0 5-5-17.5 5 17.5 5z" fill-rule="evenodd" stroke="#000" stroke-width="1pt" transform="matrix(-.4 0 0 -.4 -4 0)"/></marker><g transform="translate(-38.210859 -114.00243)"><g stroke="#000"><path d="m38.931548 174.34672h71.437502l33.63988-46.30208h-65.578871z" fill="#ccc" stroke-width=".665"/><path d="m38.931548 174.34672h71.437502" fill="none" marker-end="url(#d)" stroke-width=".865"/><path d="m110.36905 174.34672 33.63988-46.30208" fill="none" marker-end="url(#c)" stroke-width=".865"/></g><g fill="#000" fill-rule="evenodd" stroke="none" stroke-miterlimit="10.433" transform="matrix(.3 0 0 -.3 -65.750881 310.414405)"><path d="m480.35 435.84-.07-.06-.07-.07-.07-.07-.09-.07-.08-.08-.09-.08-.09-.09-.09-.08-.1-.09-.1-.1-.19-.19-.2-.19-.19-.21-.09-.1-.09-.1-.09-.1-.08-.11-.08-.1-.08-.1-.07-.1-.06-.1-.06-.1-.05-.1-.05-.1-.04-.09-.03-.09-.02-.1-.02-.08v-.09c0-.5.5-1 1-1 .45 0 .7.36.95.66.59.75 1.74 2.14 3.94 3.23.34.21.84.46.84 1.05 0 .5-.34.75-.7 1-1.09.75-1.64 1.64-2.05 2.83-.09.45-.29 1.11-.98 1.11-.71 0-1-.66-1-1.05 0-.25.39-1.84 1.19-2.89h-16.79c-.84 0-1.75 0-1.75-1s.91-1 1.75-1z"/><path d="m478.83 424.73v.12l-.01.13v.12l-.01.11v.12l-.01.11-.02.11-.01.1-.03.21-.04.19-.04.18-.05.18-.05.16-.06.16-.06.15-.07.13-.07.13-.07.12-.08.12-.08.1-.08.1-.09.09-.09.08-.09.07-.09.07-.09.06-.09.05-.09.05-.09.04-.1.03-.09.03-.09.03-.09.01-.09.02h-.08-.09c-1.25 0-2.44-1.29-2.44-2.39 0-.64.25-.93.8-1.48 1.05-1 1.69-2.3 1.69-4.09 0-2.1-3.03-13.5-8.86-13.5-2.55 0-3.69 1.75-3.69 4.32 0 2.8 1.34 6.44 2.89 10.57.35.86.59 1.54.59 2.5 0 2.23-1.59 4.07-4.09 4.07-4.67 0-6.58-7.21-6.58-7.67 0-.5.5-.5.61-.5.5 0 .55.11.8.91 1.44 5.03 3.58 6.17 5.03 6.17.39 0 1.25 0 1.25-1.59 0-1.25-.5-2.6-.86-3.49-2.19-5.78-2.83-8.08-2.83-10.22 0-5.37 4.38-6.17 6.67-6.17 8.38 0 11.21 16.49 11.21 19.08z"/></g><g fill="#000" fill-rule="evenodd" stroke="none" stroke-miterlimit="10.433" transform="matrix(.3 0 0 -.3 -3.589676 277.747742)"><path d="m488.63 435.84-.07-.06-.07-.07-.08-.07-.08-.07-.08-.08-.09-.08-.09-.09-.1-.08-.09-.09-.1-.1-.19-.19-.2-.19-.19-.21-.09-.1-.09-.1-.09-.1-.08-.11-.08-.1-.08-.1-.07-.1-.07-.1-.05-.1-.06-.1-.04-.1-.04-.09-.03-.09-.03-.1-.01-.08v-.09c0-.5.5-1 1-1 .45 0 .7.36.95.66.59.75 1.73 2.14 3.94 3.23.34.21.84.46.84 1.05 0 .5-.34.75-.7 1-1.1.75-1.64 1.64-2.05 2.83-.09.45-.3 1.11-.98 1.11-.71 0-1-.66-1-1.05 0-.25.39-1.84 1.18-2.89h-16.78c-.84 0-1.75 0-1.75-1s.91-1 1.75-1z"/><path d="m478.53 423.09.03.1.02.11.03.12.03.11.02.12.03.12.06.25.07.25.06.25.06.24.06.25.03.11.03.12.02.11.03.11.02.1.03.1.02.1.02.09.02.08.01.08.02.07.01.06.01.06.01.05v.04.03c0 .91-.7 1.35-1.45 1.35-.6 0-1.49-.39-1.83-1.39-.16-.35-2.5-9.86-2.84-11.16-.36-1.5-.46-2.39-.46-3.3 0-.54 0-.64.05-.89-1.14-2.64-2.64-4.18-4.58-4.18-3.98 0-3.98 3.68-3.98 4.53 0 1.59.25 3.54 2.59 9.67.55 1.48.84 2.19.84 3.19 0 2.23-1.64 4.07-4.09 4.07-4.73 0-6.58-7.21-6.58-7.67 0-.5.5-.5.61-.5.5 0 .55.11.8.91 1.34 4.62 3.28 6.17 5.03 6.17.44 0 1.25-.05 1.25-1.64 0-1.25-.56-2.64-.91-3.48-2.18-5.88-2.78-8.18-2.78-10.07 0-4.53 3.33-6.28 7.07-6.28.86 0 3.18 0 5.18 3.49 1.3-3.19 4.74-3.49 6.24-3.49 3.73 0 5.92 3.14 7.22 6.13 1.68 3.89 3.28 10.56 3.28 12.95 0 2.75-1.35 3.48-2.19 3.48-1.25 0-2.48-1.29-2.48-2.39 0-.64.29-.93.73-1.34.55-.55 1.8-1.84 1.8-4.23 0-1.69-1.44-6.58-2.74-9.11-1.29-2.64-3.04-4.39-5.48-4.39-2.35 0-3.69 1.5-3.69 4.32 0 1.41.34 2.96.55 3.64z"/></g><g fill="#000" fill-rule="evenodd" stroke="none" stroke-miterlimit="10.433" transform="matrix(.3 0 0 -.3 -62.388973 277.666742)"><path d="m480.35 435.84-.07-.06-.07-.07-.07-.07-.09-.07-.08-.08-.09-.08-.09-.09-.09-.08-.1-.09-.1-.1-.19-.19-.2-.19-.19-.21-.09-.1-.09-.1-.09-.1-.08-.11-.08-.1-.08-.1-.07-.1-.06-.1-.06-.1-.05-.1-.05-.1-.04-.09-.03-.09-.02-.1-.02-.08v-.09c0-.5.5-1 1-1 .45 0 .7.36.95.66.59.75 1.74 2.14 3.94 3.23.34.21.84.46.84 1.05 0 .5-.34.75-.7 1-1.09.75-1.64 1.64-2.05 2.83-.09.45-.29 1.11-.98 1.11-.71 0-1-.66-1-1.05 0-.25.39-1.84 1.19-2.89h-16.79c-.84 0-1.75 0-1.75-1s.91-1 1.75-1z"/><path d="m478.83 424.73v.12l-.01.13v.12l-.01.11v.12l-.01.11-.02.11-.01.1-.03.21-.04.19-.04.18-.05.18-.05.16-.06.16-.06.15-.07.13-.07.13-.07.12-.08.12-.08.1-.08.1-.09.09-.09.08-.09.07-.09.07-.09.06-.09.05-.09.05-.09.04-.1.03-.09.03-.09.03-.09.01-.09.02h-.08-.09c-1.25 0-2.44-1.29-2.44-2.39 0-.64.25-.93.8-1.48 1.05-1 1.69-2.3 1.69-4.09 0-2.1-3.03-13.5-8.86-13.5-2.55 0-3.69 1.75-3.69 4.32 0 2.8 1.34 6.44 2.89 10.57.35.86.59 1.54.59 2.5 0 2.23-1.59 4.07-4.09 4.07-4.67 0-6.58-7.21-6.58-7.67 0-.5.5-.5.61-.5.5 0 .55.11.8.91 1.44 5.03 3.58 6.17 5.03 6.17.39 0 1.25 0 1.25-1.59 0-1.25-.5-2.6-.86-3.49-2.19-5.78-2.83-8.08-2.83-10.22 0-5.37 4.38-6.17 6.67-6.17 8.38 0 11.21 16.49 11.21 19.08z"/><path d="m510.33 434.95-.04.08-.03.07-.04.07-.04.07-.03.06-.03.06-.04.06-.03.05-.04.05-.03.05-.04.04-.03.04-.03.04-.04.04-.03.03-.03.03-.04.03-.03.02-.04.03-.03.02-.04.02-.03.01-.04.02-.03.01-.04.01-.04.01-.04.01-.03.01h-.04-.04l-.04.01h-.04c-.66 0-.8-.36-1.1-1.05l-12.4-27.86c-.3-.64-.36-.73-.36-.98 0-.55.45-1 1-1 .34 0 .75.09 1.14 1.04l11.72 26.41 11.7-26.41c.45-1.04.95-1.04 1.14-1.04.56 0 1 .45 1 1 0 .09 0 .18-.3.79z"/><path d="m569.98 435.84-.06-.06-.08-.07-.07-.07-.08-.07-.09-.08-.09-.08-.09-.09-.09-.08-.1-.09-.09-.1-.2-.19-.19-.19-.2-.21-.09-.1-.09-.1-.09-.1-.08-.11-.08-.1-.07-.1-.07-.1-.07-.1-.06-.1-.05-.1-.05-.1-.04-.09-.03-.09-.02-.1-.01-.08-.01-.09c0-.5.5-1 1-1 .45 0 .7.36.95.66.6.75 1.74 2.14 3.94 3.23.35.21.85.46.85 1.05 0 .5-.35.75-.71 1-1.09.75-1.64 1.64-2.05 2.83-.09.45-.29 1.11-.98 1.11-.7 0-1-.66-1-1.05 0-.25.39-1.84 1.19-2.89h-16.78c-.85 0-1.75 0-1.75-1s.9-1 1.75-1z"/><path d="m559.89 423.09.02.1.03.11.02.12.03.11.03.12.03.12.06.25.06.25.06.25.07.24.06.25.02.11.03.12.03.11.03.11.02.1.02.1.03.1.01.09.02.08.02.08.01.07.02.06v.06l.01.05.01.04v.03c0 .91-.71 1.35-1.46 1.35-.59 0-1.48-.39-1.83-1.39-.15-.35-2.5-9.86-2.84-11.16-.36-1.5-.45-2.39-.45-3.3 0-.54 0-.64.04-.89-1.13-2.64-2.63-4.18-4.57-4.18-3.99 0-3.99 3.68-3.99 4.53 0 1.59.25 3.54 2.6 9.67.54 1.48.84 2.19.84 3.19 0 2.23-1.64 4.07-4.09 4.07-4.74 0-6.58-7.21-6.58-7.67 0-.5.5-.5.61-.5.5 0 .55.11.8.91 1.34 4.62 3.28 6.17 5.03 6.17.43 0 1.25-.05 1.25-1.64 0-1.25-.57-2.64-.91-3.48-2.19-5.88-2.78-8.18-2.78-10.07 0-4.53 3.33-6.28 7.06-6.28.86 0 3.19 0 5.19 3.49 1.29-3.19 4.73-3.49 6.23-3.49 3.74 0 5.93 3.14 7.22 6.13 1.69 3.89 3.28 10.56 3.28 12.95 0 2.75-1.34 3.48-2.19 3.48-1.25 0-2.48-1.29-2.48-2.39 0-.64.3-.93.73-1.34.55-.55 1.8-1.84 1.8-4.23 0-1.69-1.43-6.58-2.73-9.11-1.3-2.64-3.05-4.39-5.49-4.39-2.34 0-3.68 1.5-3.68 4.32 0 1.41.34 2.96.54 3.64z"/></g><path d="m177.64443 174.34672h71.4375l33.63988-46.30208h-65.57887z" fill="#ccc" stroke="#000" stroke-width=".665"/><path d="m217.14294 128.04464h65.57887" fill="none" marker-end="url(#b)" stroke="#000" stroke-width=".865"/><path d="m177.64443 174.34672 39.49851-46.30208" fill="none" marker-end="url(#a)" stroke="#000" stroke-width=".865"/><g fill="#000" fill-rule="evenodd" stroke="none" stroke-miterlimit="10.433" transform="matrix(.3 0 0 -.3 109.53119 246.536429)"><path d="m480.35 435.84-.07-.06-.07-.07-.07-.07-.09-.07-.08-.08-.09-.08-.09-.09-.09-.08-.1-.09-.1-.1-.19-.19-.2-.19-.19-.21-.09-.1-.09-.1-.09-.1-.08-.11-.08-.1-.08-.1-.07-.1-.06-.1-.06-.1-.05-.1-.05-.1-.04-.09-.03-.09-.02-.1-.02-.08v-.09c0-.5.5-1 1-1 .45 0 .7.36.95.66.59.75 1.74 2.14 3.94 3.23.34.21.84.46.84 1.05 0 .5-.34.75-.7 1-1.09.75-1.64 1.64-2.05 2.83-.09.45-.29 1.11-.98 1.11-.71 0-1-.66-1-1.05 0-.25.39-1.84 1.19-2.89h-16.79c-.84 0-1.75 0-1.75-1s.91-1 1.75-1z"/><path d="m478.83 424.73v.12l-.01.13v.12l-.01.11v.12l-.01.11-.02.11-.01.1-.03.21-.04.19-.04.18-.05.18-.05.16-.06.16-.06.15-.07.13-.07.13-.07.12-.08.12-.08.1-.08.1-.09.09-.09.08-.09.07-.09.07-.09.06-.09.05-.09.05-.09.04-.1.03-.09.03-.09.03-.09.01-.09.02h-.08-.09c-1.25 0-2.44-1.29-2.44-2.39 0-.64.25-.93.8-1.48 1.05-1 1.69-2.3 1.69-4.09 0-2.1-3.03-13.5-8.86-13.5-2.55 0-3.69 1.75-3.69 4.32 0 2.8 1.34 6.44 2.89 10.57.35.86.59 1.54.59 2.5 0 2.23-1.59 4.07-4.09 4.07-4.67 0-6.58-7.21-6.58-7.67 0-.5.5-.5.61-.5.5 0 .55.11.8.91 1.44 5.03 3.58 6.17 5.03 6.17.39 0 1.25 0 1.25-1.59 0-1.25-.5-2.6-.86-3.49-2.19-5.78-2.83-8.08-2.83-10.22 0-5.37 4.38-6.17 6.67-6.17 8.38 0 11.21 16.49 11.21 19.08z"/></g><g fill="#000" fill-rule="evenodd" stroke="none" stroke-miterlimit="10.433" transform="matrix(.3 0 0 -.3 41.198416 277.747742)"><path d="m488.63 435.84-.07-.06-.07-.07-.08-.07-.08-.07-.08-.08-.09-.08-.09-.09-.1-.08-.09-.09-.1-.1-.19-.19-.2-.19-.19-.21-.09-.1-.09-.1-.09-.1-.08-.11-.08-.1-.08-.1-.07-.1-.07-.1-.05-.1-.06-.1-.04-.1-.04-.09-.03-.09-.03-.1-.01-.08v-.09c0-.5.5-1 1-1 .45 0 .7.36.95.66.59.75 1.73 2.14 3.94 3.23.34.21.84.46.84 1.05 0 .5-.34.75-.7 1-1.1.75-1.64 1.64-2.05 2.83-.09.45-.3 1.11-.98 1.11-.71 0-1-.66-1-1.05 0-.25.39-1.84 1.18-2.89h-16.78c-.84 0-1.75 0-1.75-1s.91-1 1.75-1z"/><path d="m478.53 423.09.03.1.02.11.03.12.03.11.02.12.03.12.06.25.07.25.06.25.06.24.06.25.03.11.03.12.02.11.03.11.02.1.03.1.02.1.02.09.02.08.01.08.02.07.01.06.01.06.01.05v.04.03c0 .91-.7 1.35-1.45 1.35-.6 0-1.49-.39-1.83-1.39-.16-.35-2.5-9.86-2.84-11.16-.36-1.5-.46-2.39-.46-3.3 0-.54 0-.64.05-.89-1.14-2.64-2.64-4.18-4.58-4.18-3.98 0-3.98 3.68-3.98 4.53 0 1.59.25 3.54 2.59 9.67.55 1.48.84 2.19.84 3.19 0 2.23-1.64 4.07-4.09 4.07-4.73 0-6.58-7.21-6.58-7.67 0-.5.5-.5.61-.5.5 0 .55.11.8.91 1.34 4.62 3.28 6.17 5.03 6.17.44 0 1.25-.05 1.25-1.64 0-1.25-.56-2.64-.91-3.48-2.18-5.88-2.78-8.18-2.78-10.07 0-4.53 3.33-6.28 7.07-6.28.86 0 3.18 0 5.18 3.49 1.3-3.19 4.74-3.49 6.24-3.49 3.73 0 5.92 3.14 7.22 6.13 1.68 3.89 3.28 10.56 3.28 12.95 0 2.75-1.35 3.48-2.19 3.48-1.25 0-2.48-1.29-2.48-2.39 0-.64.29-.93.73-1.34.55-.55 1.8-1.84 1.8-4.23 0-1.69-1.44-6.58-2.74-9.11-1.29-2.64-3.04-4.39-5.48-4.39-2.35 0-3.69 1.5-3.69 4.32 0 1.41.34 2.96.55 3.64z"/></g><g fill="#000" fill-rule="evenodd" stroke="none" stroke-miterlimit="10.433" transform="matrix(.29997272477 0 0 -.29997272477 69.70557570302 277.65519237468)"><path d="m488.35 417.65h.16.16l.15.01h.08l.08.01h.07l.08.01.07.01.07.01.07.02.07.02.07.02.06.02.06.02.06.03.05.03.06.04.05.03.04.05.04.04.04.05.02.03.02.03.01.03.02.03.01.03.02.03.01.04.01.03.01.04v.04l.01.04.01.04v.04l.01.04v.05.04c0 1-.91 1-1.75 1h-26.96c-.84 0-1.73 0-1.73-1s.89-1 1.73-1z"/><path d="m527.39 435.84-.07-.06-.07-.07-.08-.07-.08-.07-.09-.08-.08-.08-.1-.09-.09-.08-.09-.09-.1-.1-.2-.19-.19-.19-.19-.21-.1-.1-.09-.1-.08-.1-.09-.11-.08-.1-.07-.1-.07-.1-.07-.1-.06-.1-.05-.1-.05-.1-.03-.09-.04-.09-.02-.1-.01-.08-.01-.09c0-.5.5-1 1-1 .46 0 .71.36.96.66.59.75 1.73 2.14 3.93 3.23.35.21.85.46.85 1.05 0 .5-.35.75-.71 1-1.09.75-1.64 1.64-2.04 2.83-.1.45-.3 1.11-.99 1.11-.7 0-1-.66-1-1.05 0-.25.39-1.84 1.19-2.89h-16.78c-.84 0-1.75 0-1.75-1s.91-1 1.75-1z"/><path d="m517.29 423.09.02.1.03.11.03.12.02.11.03.12.03.12.06.25.06.25.07.25.06.24.06.25.03.11.02.12.03.11.03.11.02.1.03.1.02.1.02.09.02.08.01.08.02.07.01.06.01.06v.05l.01.04v.03c0 .91-.7 1.35-1.45 1.35-.6 0-1.49-.39-1.83-1.39-.16-.35-2.5-9.86-2.85-11.16-.36-1.5-.45-2.39-.45-3.3 0-.54 0-.64.05-.89-1.14-2.64-2.64-4.18-4.58-4.18-3.98 0-3.98 3.68-3.98 4.53 0 1.59.25 3.54 2.59 9.67.55 1.48.84 2.19.84 3.19 0 2.23-1.64 4.07-4.09 4.07-4.74 0-6.58-7.21-6.58-7.67 0-.5.5-.5.61-.5.5 0 .55.11.8.91 1.34 4.62 3.28 6.17 5.03 6.17.44 0 1.25-.05 1.25-1.64 0-1.25-.56-2.64-.91-3.48-2.19-5.88-2.78-8.18-2.78-10.07 0-4.53 3.33-6.28 7.06-6.28.86 0 3.19 0 5.19 3.49 1.3-3.19 4.74-3.49 6.24-3.49 3.73 0 5.92 3.14 7.21 6.13 1.69 3.89 3.29 10.56 3.29 12.95 0 2.75-1.35 3.48-2.19 3.48-1.25 0-2.49-1.29-2.49-2.39 0-.64.3-.93.74-1.34.54-.55 1.79-1.84 1.79-4.23 0-1.69-1.43-6.58-2.73-9.11-1.3-2.64-3.05-4.39-5.48-4.39-2.35 0-3.69 1.5-3.69 4.32 0 1.41.34 2.96.55 3.64z"/><path d="m560.12 434.95-.03.08-.04.07-.03.07-.04.07-.03.06-.04.06-.03.06-.04.05-.03.05-.03.05-.04.04-.03.04-.04.04-.03.04-.03.03-.04.03-.03.03-.04.02-.03.03-.04.02-.03.02-.04.01-.03.02-.04.01-.03.01-.04.01-.04.01-.04.01h-.04-.04l-.04.01h-.04c-.65 0-.79-.36-1.09-1.05l-12.41-27.86c-.29-.64-.36-.73-.36-.98 0-.55.46-1 1-1 .35 0 .76.09 1.15 1.04l11.71 26.41 11.71-26.41c.45-1.04.95-1.04 1.14-1.04.56 0 1 .45 1 1 0 .09 0 .18-.3.79z"/><path d="m611.5 435.84-.07-.06-.07-.07-.08-.07-.08-.07-.08-.08-.09-.08-.09-.09-.1-.08-.09-.09-.1-.1-.19-.19-.2-.19-.19-.21-.09-.1-.09-.1-.09-.1-.08-.11-.08-.1-.08-.1-.07-.1-.06-.1-.06-.1-.06-.1-.04-.1-.04-.09-.03-.09-.03-.1-.01-.08v-.09c0-.5.5-1 1-1 .45 0 .7.36.95.66.59.75 1.73 2.14 3.94 3.23.34.21.84.46.84 1.05 0 .5-.34.75-.7 1-1.1.75-1.64 1.64-2.05 2.83-.09.45-.3 1.11-.98 1.11-.71 0-1-.66-1-1.05 0-.25.39-1.84 1.18-2.89h-16.78c-.84 0-1.75 0-1.75-1s.91-1 1.75-1z"/><path d="m609.98 424.73v.12.13l-.01.12v.11l-.01.12-.01.11-.01.11-.02.1-.03.21-.04.19-.04.18-.05.18-.05.16-.06.16-.06.15-.07.13-.07.13-.07.12-.08.12-.08.1-.08.1-.09.09-.08.08-.09.07-.09.07-.09.06-.1.05-.09.05-.09.04-.09.03-.1.03-.09.03-.09.01-.09.02h-.08-.09c-1.25 0-2.44-1.29-2.44-2.39 0-.64.25-.93.8-1.48 1.05-1 1.69-2.3 1.69-4.09 0-2.1-3.03-13.5-8.86-13.5-2.55 0-3.69 1.75-3.69 4.32 0 2.8 1.35 6.44 2.89 10.57.35.86.6 1.54.6 2.5 0 2.23-1.6 4.07-4.1 4.07-4.67 0-6.58-7.21-6.58-7.67 0-.5.5-.5.62-.5.5 0 .54.11.79.91 1.44 5.03 3.58 6.17 5.03 6.17.39 0 1.25 0 1.25-1.59 0-1.25-.5-2.6-.86-3.49-2.18-5.78-2.83-8.08-2.83-10.22 0-5.37 4.38-6.17 6.68-6.17 8.37 0 11.2 16.49 11.2 19.08z"/></g></g></svg>