<svg height="96.526451mm" viewBox="0 0 232.15164 96.526451" width="232.15164mm" xmlns="http://www.w3.org/2000/svg" xmlns:xlink="http://www.w3.org/1999/xlink"><marker id="a" orient="auto" overflow="visible" refX="0" refY="0"><path d="m0 0 5-5-17.5 5 17.5 5z" fill-rule="evenodd" stroke="#000" stroke-width="1pt" transform="matrix(-.4 0 0 -.4 -4 0)"/></marker><marker id="b" orient="auto" overflow="visible" refX="0" refY="0"><path d="m0 0 5-5-17.5 5 17.5 5z" fill-rule="evenodd" stroke="#000" stroke-width="1pt" transform="matrix(-.4 0 0 -.4 -4 0)"/></marker><marker id="c" orient="auto" overflow="visible" refX="0" refY="0"><path d="m0 0 5-5-17.5 5 17.5 5z" fill-rule="evenodd" stroke="#000" stroke-width="1pt" transform="matrix(-.4 0 0 -.4 -4 0)"/></marker><marker id="d" orient="auto" overflow="visible" refX="0" refY="0"><path d="m0 0 5-5-17.5 5 17.5 5z" fill-rule="evenodd" stroke="#000" stroke-width="1pt" transform="matrix(-.4 0 0 -.4 -4 0)"/></marker><marker id="e" orient="auto" overflow="visible" refX="0" refY="0"><path d="m0 0 5-5-17.5 5 17.5 5z" fill-rule="evenodd" stroke="#000" stroke-width="1pt" transform="matrix(-.4 0 0 -.4 -4 0)"/></marker><marker id="f" orient="auto" overflow="visible" refX="0" refY="0"><path d="m0 0 5-5-17.5 5 17.5 5z" fill-rule="evenodd" stroke="#000" stroke-width="1pt" transform="matrix(-.4 0 0 -.4 -4 0)"/></marker><marker id="g" orient="auto" overflow="visible" refX="0" refY="0"><path d="m0 0 5-5-17.5 5 17.5 5z" fill-rule="evenodd" stroke="#000" stroke-width="1pt" transform="matrix(-.4 0 0 -.4 -4 0)"/></marker><g transform="translate(78.334704 -131.52395)"><g stroke="#000"><path d="m57.329313 216.2846 88.733487-.13363-5.21176-28.06331-90.3371-.66817z" fill="#aef" stroke-width=".465"/><path d="m57.329313 216.2846 34.611405-42.22859-6.1472-29.93418-35.279578 43.29766z" fill="#fea" fill-opacity=".588235" stroke-width=".465"/><path d="m91.940718 174.05601 54.122082 42.09496-5.21176-28.06331-55.057522-43.96583z" fill="#afe" fill-opacity=".588235" stroke-width=".465"/><path d="m57.329313 216.2846 34.611405-42.22859" fill="none" marker-end="url(#e)" stroke-width=".665"/><path d="m91.940718 174.05601-6.1472-29.93418" fill="none" marker-end="url(#f)" stroke-width=".665"/><path d="m146.0628 216.15097-5.21176-28.06331" fill="none" marker-end="url(#d)" stroke-width=".665"/><path d="m57.329313 218.03259 88.733487-.13363" fill="none" marker-end="url(#c)" stroke-width=".665"/><path d="m91.940718 174.05601 54.122082 42.09496" fill="none" marker-end="url(#b)" stroke-width=".665"/></g><g fill="#000" fill-rule="evenodd" stroke="none" stroke-miterlimit="10.433" transform="matrix(.221422635 0 0 -.221422635 44.651154875 293.4075064875)"><path d="m488.63 435.84-.07-.06-.07-.07-.08-.07-.08-.07-.08-.08-.09-.08-.09-.09-.1-.08-.09-.09-.1-.1-.19-.19-.2-.19-.19-.21-.09-.1-.09-.1-.09-.1-.08-.11-.08-.1-.08-.1-.07-.1-.07-.1-.05-.1-.06-.1-.04-.1-.04-.09-.03-.09-.03-.1-.01-.08v-.09c0-.5.5-1 1-1 .45 0 .7.36.95.66.59.75 1.73 2.14 3.94 3.23.34.21.84.46.84 1.05 0 .5-.34.75-.7 1-1.1.75-1.64 1.64-2.05 2.83-.09.45-.3 1.11-.98 1.11-.71 0-1-.66-1-1.05 0-.25.39-1.84 1.18-2.89h-16.78c-.84 0-1.75 0-1.75-1s.91-1 1.75-1z"/><path d="m478.53 423.09.03.1.02.11.03.12.03.11.02.12.03.12.06.25.07.25.06.25.06.24.06.25.03.11.03.12.02.11.03.11.02.1.03.1.02.1.02.09.02.08.01.08.02.07.01.06.01.06.01.05v.04.03c0 .91-.7 1.35-1.45 1.35-.6 0-1.49-.39-1.83-1.39-.16-.35-2.5-9.86-2.84-11.16-.36-1.5-.46-2.39-.46-3.3 0-.54 0-.64.05-.89-1.14-2.64-2.64-4.18-4.58-4.18-3.98 0-3.98 3.68-3.98 4.53 0 1.59.25 3.54 2.59 9.67.55 1.48.84 2.19.84 3.19 0 2.23-1.64 4.07-4.09 4.07-4.73 0-6.58-7.21-6.58-7.67 0-.5.5-.5.61-.5.5 0 .55.11.8.91 1.34 4.62 3.28 6.17 5.03 6.17.44 0 1.25-.05 1.25-1.64 0-1.25-.56-2.64-.91-3.48-2.18-5.88-2.78-8.18-2.78-10.07 0-4.53 3.33-6.28 7.07-6.28.86 0 3.18 0 5.18 3.49 1.3-3.19 4.74-3.49 6.24-3.49 3.73 0 5.92 3.14 7.22 6.13 1.68 3.89 3.28 10.56 3.28 12.95 0 2.75-1.35 3.48-2.19 3.48-1.25 0-2.48-1.29-2.48-2.39 0-.64.29-.93.73-1.34.55-.55 1.8-1.84 1.8-4.23 0-1.69-1.44-6.58-2.74-9.11-1.29-2.64-3.04-4.39-5.48-4.39-2.35 0-3.69 1.5-3.69 4.32 0 1.41.34 2.96.55 3.64z"/></g><g fill="#000" fill-rule="evenodd" stroke="none" stroke-miterlimit="10.433" transform="matrix(.221422635 0 0 -.221422635 -8.669115125 255.1879644875)"><path d="m488.63 435.84-.07-.06-.07-.07-.08-.07-.08-.07-.08-.08-.09-.08-.09-.09-.1-.08-.09-.09-.1-.1-.19-.19-.2-.19-.19-.21-.09-.1-.09-.1-.09-.1-.08-.11-.08-.1-.08-.1-.07-.1-.07-.1-.05-.1-.06-.1-.04-.1-.04-.09-.03-.09-.03-.1-.01-.08v-.09c0-.5.5-1 1-1 .45 0 .7.36.95.66.59.75 1.73 2.14 3.94 3.23.34.21.84.46.84 1.05 0 .5-.34.75-.7 1-1.1.75-1.64 1.64-2.05 2.83-.09.45-.3 1.11-.98 1.11-.71 0-1-.66-1-1.05 0-.25.39-1.84 1.18-2.89h-16.78c-.84 0-1.75 0-1.75-1s.91-1 1.75-1z"/><path d="m478.53 423.09.03.1.02.11.03.12.03.11.02.12.03.12.06.25.07.25.06.25.06.24.06.25.03.11.03.12.02.11.03.11.02.1.03.1.02.1.02.09.02.08.01.08.02.07.01.06.01.06.01.05v.04.03c0 .91-.7 1.35-1.45 1.35-.6 0-1.49-.39-1.83-1.39-.16-.35-2.5-9.86-2.84-11.16-.36-1.5-.46-2.39-.46-3.3 0-.54 0-.64.05-.89-1.14-2.64-2.64-4.18-4.58-4.18-3.98 0-3.98 3.68-3.98 4.53 0 1.59.25 3.54 2.59 9.67.55 1.48.84 2.19.84 3.19 0 2.23-1.64 4.07-4.09 4.07-4.73 0-6.58-7.21-6.58-7.67 0-.5.5-.5.61-.5.5 0 .55.11.8.91 1.34 4.62 3.28 6.17 5.03 6.17.44 0 1.25-.05 1.25-1.64 0-1.25-.56-2.64-.91-3.48-2.18-5.88-2.78-8.18-2.78-10.07 0-4.53 3.33-6.28 7.07-6.28.86 0 3.18 0 5.18 3.49 1.3-3.19 4.74-3.49 6.24-3.49 3.73 0 5.92 3.14 7.22 6.13 1.68 3.89 3.28 10.56 3.28 12.95 0 2.75-1.35 3.48-2.19 3.48-1.25 0-2.48-1.29-2.48-2.39 0-.64.29-.93.73-1.34.55-.55 1.8-1.84 1.8-4.23 0-1.69-1.44-6.58-2.74-9.11-1.29-2.64-3.04-4.39-5.48-4.39-2.35 0-3.69 1.5-3.69 4.32 0 1.41.34 2.96.55 3.64z"/></g><g fill="#000" fill-rule="evenodd" stroke="none" stroke-miterlimit="10.433" transform="matrix(.22142263589 0 0 -.22142263589 24.83206030402 288.62147584132)"><path d="m480.35 435.84-.07-.06-.07-.07-.07-.07-.09-.07-.08-.08-.09-.08-.09-.09-.09-.08-.1-.09-.1-.1-.19-.19-.2-.19-.19-.21-.09-.1-.09-.1-.09-.1-.08-.11-.08-.1-.08-.1-.07-.1-.06-.1-.06-.1-.05-.1-.05-.1-.04-.09-.03-.09-.02-.1-.02-.08v-.09c0-.5.5-1 1-1 .45 0 .7.36.95.66.59.75 1.74 2.14 3.94 3.23.34.21.84.46.84 1.05 0 .5-.34.75-.7 1-1.09.75-1.64 1.64-2.05 2.83-.09.45-.29 1.11-.98 1.11-.71 0-1-.66-1-1.05 0-.25.39-1.84 1.19-2.89h-16.79c-.84 0-1.75 0-1.75-1s.91-1 1.75-1z"/><path d="m478.83 424.73v.12l-.01.13v.12l-.01.11v.12l-.01.11-.02.11-.01.1-.03.21-.04.19-.04.18-.05.18-.05.16-.06.16-.06.15-.07.13-.07.13-.07.12-.08.12-.08.1-.08.1-.09.09-.09.08-.09.07-.09.07-.09.06-.09.05-.09.05-.09.04-.1.03-.09.03-.09.03-.09.01-.09.02h-.08-.09c-1.25 0-2.44-1.29-2.44-2.39 0-.64.25-.93.8-1.48 1.05-1 1.69-2.3 1.69-4.09 0-2.1-3.03-13.5-8.86-13.5-2.55 0-3.69 1.75-3.69 4.32 0 2.8 1.34 6.44 2.89 10.57.35.86.59 1.54.59 2.5 0 2.23-1.59 4.07-4.09 4.07-4.67 0-6.58-7.21-6.58-7.67 0-.5.5-.5.61-.5.5 0 .55.11.8.91 1.44 5.03 3.58 6.17 5.03 6.17.39 0 1.25 0 1.25-1.59 0-1.25-.5-2.6-.86-3.49-2.19-5.78-2.83-8.08-2.83-10.22 0-5.37 4.38-6.17 6.67-6.17 8.38 0 11.21 16.49 11.21 19.08z"/></g><g fill="#000" fill-rule="evenodd" stroke="none" stroke-miterlimit="10.433" transform="matrix(.22142263589 0 0 -.22142263589 -40.63531369598 290.70034584132)"><path d="m481.67 435.84-.07-.06-.07-.07-.07-.07-.09-.07-.08-.08-.09-.08-.09-.09-.09-.08-.1-.09-.1-.1-.19-.19-.2-.19-.19-.21-.09-.1-.09-.1-.09-.1-.08-.11-.08-.1-.08-.1-.07-.1-.06-.1-.06-.1-.05-.1-.05-.1-.04-.09-.03-.09-.02-.1-.02-.08v-.09c0-.5.5-1 1-1 .45 0 .7.36.95.66.6.75 1.74 2.14 3.94 3.23.34.21.84.46.84 1.05 0 .5-.34.75-.7 1-1.09.75-1.64 1.64-2.05 2.83-.09.45-.29 1.11-.98 1.11-.71 0-1-.66-1-1.05 0-.25.39-1.84 1.19-2.89h-16.79c-.84 0-1.75 0-1.75-1s.91-1 1.75-1z"/><path d="m472.95 409 .06-.19.06-.19.07-.18.07-.18.08-.17.09-.16.1-.16.1-.16.1-.15.11-.15.12-.14.12-.13.13-.13.13-.12.14-.12.14-.11.15-.11.15-.1.16-.09.16-.09.16-.08.17-.07.18-.07.17-.06.18-.06.18-.04.19-.05.19-.03.19-.02.19-.02.2-.01.2-.01c1.73 0 2.89 1.14 3.69 2.74.84 1.79 1.48 4.84 1.48 4.93 0 .5-.44.5-.59.5-.5 0-.55-.2-.7-.9-.69-2.78-1.65-6.17-3.74-6.17-1.05 0-1.53.65-1.53 2.29 0 1.1.59 3.44.98 5.17l1.41 5.4c.14.75.64 2.64.84 3.39.25 1.14.75 3.03.75 3.32 0 .91-.7 1.35-1.45 1.35-.25 0-1.55-.05-1.94-1.74-.95-3.64-3.14-12.36-3.73-15-.06-.2-2.05-4.18-5.69-4.18-2.59 0-3.09 2.25-3.09 4.09 0 2.78 1.4 6.72 2.7 10.16.6 1.5.84 2.18.84 3.14 0 2.23-1.59 4.07-4.09 4.07-4.73 0-6.58-7.21-6.58-7.67 0-.5.5-.5.61-.5.5 0 .55.11.8.91 1.23 4.33 3.14 6.17 5.03 6.17.44 0 1.25-.05 1.25-1.64 0-1.2-.56-2.64-.86-3.39-1.84-4.94-2.89-8.02-2.89-10.45 0-4.74 3.44-5.99 6.14-5.99 3.28 0 5.08 2.24 5.92 3.35z"/></g><g fill="#000" fill-rule="evenodd" stroke="none" stroke-miterlimit="10.433" transform="matrix(.2014098652 0 0 -.2014098652 -1.48378469576 309.02925812142)"><path d="m481.67 435.84-.07-.06-.07-.07-.07-.07-.09-.07-.08-.08-.09-.08-.09-.09-.09-.08-.1-.09-.1-.1-.19-.19-.2-.19-.19-.21-.09-.1-.09-.1-.09-.1-.08-.11-.08-.1-.08-.1-.07-.1-.06-.1-.06-.1-.05-.1-.05-.1-.04-.09-.03-.09-.02-.1-.02-.08v-.09c0-.5.5-1 1-1 .45 0 .7.36.95.66.6.75 1.74 2.14 3.94 3.23.34.21.84.46.84 1.05 0 .5-.34.75-.7 1-1.09.75-1.64 1.64-2.05 2.83-.09.45-.29 1.11-.98 1.11-.71 0-1-.66-1-1.05 0-.25.39-1.84 1.19-2.89h-16.79c-.84 0-1.75 0-1.75-1s.91-1 1.75-1z"/><path d="m472.95 409 .06-.19.06-.19.07-.18.07-.18.08-.17.09-.16.1-.16.1-.16.1-.15.11-.15.12-.14.12-.13.13-.13.13-.12.14-.12.14-.11.15-.11.15-.1.16-.09.16-.09.16-.08.17-.07.18-.07.17-.06.18-.06.18-.04.19-.05.19-.03.19-.02.19-.02.2-.01.2-.01c1.73 0 2.89 1.14 3.69 2.74.84 1.79 1.48 4.84 1.48 4.93 0 .5-.44.5-.59.5-.5 0-.55-.2-.7-.9-.69-2.78-1.65-6.17-3.74-6.17-1.05 0-1.53.65-1.53 2.29 0 1.1.59 3.44.98 5.17l1.41 5.4c.14.75.64 2.64.84 3.39.25 1.14.75 3.03.75 3.32 0 .91-.7 1.35-1.45 1.35-.25 0-1.55-.05-1.94-1.74-.95-3.64-3.14-12.36-3.73-15-.06-.2-2.05-4.18-5.69-4.18-2.59 0-3.09 2.25-3.09 4.09 0 2.78 1.4 6.72 2.7 10.16.6 1.5.84 2.18.84 3.14 0 2.23-1.59 4.07-4.09 4.07-4.73 0-6.58-7.21-6.58-7.67 0-.5.5-.5.61-.5.5 0 .55.11.8.91 1.23 4.33 3.14 6.17 5.03 6.17.44 0 1.25-.05 1.25-1.64 0-1.2-.56-2.64-.86-3.39-1.84-4.94-2.89-8.02-2.89-10.45 0-4.74 3.44-5.99 6.14-5.99 3.28 0 5.08 2.24 5.92 3.35z"/><path d="m515.49 417.65h13.91c.69 0 1.64 0 1.64 1s-.95 1-1.64 1h-13.91v13.96c0 .68 0 1.64-1 1.64-.98 0-.98-.96-.98-1.64v-13.96h-13.96c-.7 0-1.64 0-1.64-1s.94-1 1.64-1h13.96v-13.94c0-.7 0-1.65.98-1.65 1 0 1 .95 1 1.65z"/><path d="m569.74 435.84-.07-.06-.07-.07-.07-.07-.09-.07-.08-.08-.09-.08-.09-.09-.09-.08-.1-.09-.1-.1-.19-.19-.2-.19-.19-.21-.09-.1-.09-.1-.09-.1-.08-.11-.08-.1-.08-.1-.07-.1-.06-.1-.06-.1-.05-.1-.05-.1-.04-.09-.03-.09-.02-.1-.02-.08v-.09c0-.5.5-1 1-1 .45 0 .7.36.95.66.6.75 1.74 2.14 3.94 3.23.34.21.84.46.84 1.05 0 .5-.34.75-.7 1-1.09.75-1.64 1.64-2.05 2.83-.09.45-.29 1.11-.98 1.11-.7 0-1-.66-1-1.05 0-.25.39-1.84 1.19-2.89h-16.79c-.84 0-1.75 0-1.75-1s.91-1 1.75-1z"/><path d="m568.22 424.73v.12.13l-.01.12v.11l-.01.12-.01.11-.01.11-.01.1-.04.21-.03.19-.05.18-.04.18-.06.16-.05.16-.07.15-.06.13-.07.13-.08.12-.08.12-.08.1-.08.1-.09.09-.08.08-.09.07-.09.07-.09.06-.09.05-.1.05-.09.04-.09.03-.09.03-.1.03-.09.01-.08.02h-.09-.09c-1.25 0-2.43-1.29-2.43-2.39 0-.64.25-.93.8-1.48 1.04-1 1.68-2.3 1.68-4.09 0-2.1-3.03-13.5-8.86-13.5-2.54 0-3.69 1.75-3.69 4.32 0 2.8 1.35 6.44 2.9 10.57.34.86.59 1.54.59 2.5 0 2.23-1.59 4.07-4.09 4.07-4.68 0-6.58-7.21-6.58-7.67 0-.5.5-.5.61-.5.5 0 .54.11.79.91 1.44 5.03 3.58 6.17 5.03 6.17.4 0 1.25 0 1.25-1.59 0-1.25-.5-2.6-.85-3.49-2.19-5.78-2.83-8.08-2.83-10.22 0-5.37 4.37-6.17 6.67-6.17 8.38 0 11.2 16.49 11.2 19.08z"/></g><g fill="#000" fill-rule="evenodd" stroke="none" stroke-miterlimit="10.433" transform="matrix(.19291053441 0 0 -.19291053441 -8.98208675459 282.87329468711)"><path d="m463.49 410.09-.05-.18-.04-.17-.05-.16-.04-.15-.04-.15-.05-.13-.05-.13-.05-.12-.05-.11-.06-.11-.07-.1-.07-.09-.07-.09-.09-.07-.09-.08-.11-.06-.11-.07-.13-.05-.13-.05-.15-.05-.16-.04-.09-.02-.09-.01-.09-.02-.1-.02-.1-.01-.1-.01-.11-.01-.12-.02-.11-.01-.13-.01h-.12l-.13-.01-.14-.01h-.14l-.14-.01h-.15l-.16-.01h-.16-.16-.17-.18-.18c-.85 0-1.35 0-1.35-1 0-.55.46-.55 1.35-.55h17.78c7.87 0 13.75 5.87 13.75 10.76 0 3.58-2.89 6.47-7.72 7.02 5.19.95 10.42 4.64 10.42 9.38 0 3.68-3.3 6.87-9.28 6.87l-.69-1.55c4.38 0 5.42-2.93 5.42-5.12 0-4.39-4.28-9.13-10.35-9.13h-7.27l-.3-1.09h9.41c4.78 0 5.73-3.69 5.73-5.83 0-4.94-4.43-9.76-10.31-9.76h-6.78c-.69 0-.8 0-1.09.04-.5.05-.64.1-.64.5 0 .14 0 .25.25 1.14l3.43 13.91.3 1.09 3.08 12.36c.45 1.74.54 1.89 2.7 1.89h6.42l.69 1.55h-16.73c-.94 0-1.44 0-1.44-1 0-.55.44-.55 1.39-.55.09 0 1.05 0 1.89-.09.89-.11 1.34-.16 1.34-.8 0-.2-.04-.36-.2-.95z"/><path d="m504.99 420.92v.04.04.05.04.03.04.04.03.04l-.01.03v.03.03.03l-.01.03v.03.02l-.01.03v.02l-.01.03v.02l-.01.04-.02.04-.02.03-.02.03-.02.03-.02.03-.03.02-.03.02-.03.02-.04.01-.04.01-.05.02h-.02-.02l-.03.01h-.03l-.02.01h-.03-.03-.03-.03l-.04.01h-.03-.04-.03-.04-.04-.04-.04-.05-.04-.04c-2.24-2.2-5.4-2.23-6.83-2.23v-1.25c.84 0 3.14 0 5.04.97v-17.77c0-1.16 0-1.61-3.48-1.61h-1.31v-1.25c.62.03 4.9.14 6.2.14 1.08 0 5.47-.11 6.23-.14v1.25h-1.32c-3.49 0-3.49.45-3.49 1.61z"/><path d="m547.18 417.65h13.9c.69 0 1.64 0 1.64 1s-.95 1-1.64 1h-13.9v13.96c0 .68 0 1.64-1 1.64-.99 0-.99-.96-.99-1.64v-13.96h-13.95c-.71 0-1.64 0-1.64-1s.93-1 1.64-1h13.95v-13.94c0-.7 0-1.65.99-1.65 1 0 1 .95 1 1.65z"/><path d="m584.57 410.09-.05-.18-.04-.17-.05-.16-.04-.15-.04-.15-.05-.13-.05-.13-.05-.12-.05-.11-.06-.11-.07-.1-.07-.09-.08-.09-.08-.07-.1-.08-.1-.06-.11-.07-.13-.05-.13-.05-.15-.05-.16-.04-.09-.02-.09-.01-.09-.02-.1-.02-.1-.01-.11-.01-.1-.01-.12-.02-.12-.01-.12-.01h-.12l-.13-.01-.14-.01h-.14l-.15-.01h-.15l-.15-.01h-.16-.17-.17-.17-.19c-.84 0-1.34 0-1.34-1 0-.55.46-.55 1.34-.55h17.79c7.87 0 13.75 5.87 13.75 10.76 0 3.58-2.89 6.47-7.72 7.02 5.18.95 10.42 4.64 10.42 9.38 0 3.68-3.3 6.87-9.28 6.87l-.69-1.55c4.38 0 5.42-2.93 5.42-5.12 0-4.39-4.28-9.13-10.36-9.13h-7.26l-.3-1.09h9.41c4.78 0 5.73-3.69 5.73-5.83 0-4.94-4.44-9.76-10.31-9.76h-6.78c-.69 0-.8 0-1.1.04-.5.05-.64.1-.64.5 0 .14 0 .25.25 1.14l3.44 13.91.3 1.09 3.08 12.36c.45 1.74.54 1.89 2.7 1.89h6.42l.69 1.55h-16.74c-.93 0-1.43 0-1.43-1 0-.55.43-.55 1.39-.55.09 0 1.04 0 1.89-.09.89-.11 1.34-.16 1.34-.8 0-.2-.04-.36-.2-.95z"/><path d="m631.99 405.11h-1.19c-.09-.77-.45-2.83-.9-3.18-.27-.2-2.95-.2-3.44-.2h-6.42c3.66 3.23 4.87 4.2 6.97 5.84 2.58 2.07 4.98 4.22 4.98 7.54 0 4.21-3.69 6.79-8.15 6.79-4.32 0-7.25-3.03-7.25-6.23 0-1.78 1.5-1.96 1.86-1.96.82 0 1.84.6 1.84 1.85 0 .62-.25 1.84-2.06 1.84 1.07 2.47 3.45 3.24 5.09 3.24 3.48 0 5.3-2.71 5.3-5.53 0-3.04-2.16-5.44-3.28-6.69l-8.39-8.3c-.36-.31-.36-.39-.36-1.36h14.36z"/></g><g fill="#000" fill-rule="evenodd" stroke="none" stroke-miterlimit="10.433" transform="matrix(.19291053 0 0 -.19291053 -19.187447 254.52508)"><path d="m463.49 410.09-.05-.18-.04-.17-.05-.16-.04-.15-.04-.15-.05-.13-.05-.13-.05-.12-.05-.11-.06-.11-.07-.1-.07-.09-.07-.09-.09-.07-.09-.08-.11-.06-.11-.07-.13-.05-.13-.05-.15-.05-.16-.04-.09-.02-.09-.01-.09-.02-.1-.02-.1-.01-.1-.01-.11-.01-.12-.02-.11-.01-.13-.01h-.12l-.13-.01-.14-.01h-.14l-.14-.01h-.15l-.16-.01h-.16-.16-.17-.18-.18c-.85 0-1.35 0-1.35-1 0-.55.46-.55 1.35-.55h17.78c7.87 0 13.75 5.87 13.75 10.76 0 3.58-2.89 6.47-7.72 7.02 5.19.95 10.42 4.64 10.42 9.38 0 3.68-3.3 6.87-9.28 6.87l-.69-1.55c4.38 0 5.42-2.93 5.42-5.12 0-4.39-4.28-9.13-10.35-9.13h-7.27l-.3-1.09h9.41c4.78 0 5.73-3.69 5.73-5.83 0-4.94-4.43-9.76-10.31-9.76h-6.78c-.69 0-.8 0-1.09.04-.5.05-.64.1-.64.5 0 .14 0 .25.25 1.14l3.43 13.91.3 1.09 3.08 12.36c.45 1.74.54 1.89 2.7 1.89h6.42l.69 1.55h-16.73c-.94 0-1.44 0-1.44-1 0-.55.44-.55 1.39-.55.09 0 1.05 0 1.89-.09.89-.11 1.34-.16 1.34-.8 0-.2-.04-.36-.2-.95z"/><path d="m504.99 420.92v.04.04.05.04.03.04.04.03.04l-.01.03v.03.03.03l-.01.03v.03.02l-.01.03v.02l-.01.03v.02l-.01.04-.02.04-.02.03-.02.03-.02.03-.02.03-.03.02-.03.02-.03.02-.04.01-.04.01-.05.02h-.02-.02l-.03.01h-.03l-.02.01h-.03-.03-.03-.03l-.04.01h-.03-.04-.03-.04-.04-.04-.04-.05-.04-.04c-2.24-2.2-5.4-2.23-6.83-2.23v-1.25c.84 0 3.14 0 5.04.97v-17.77c0-1.16 0-1.61-3.48-1.61h-1.31v-1.25c.62.03 4.9.14 6.2.14 1.08 0 5.47-.11 6.23-.14v1.25h-1.32c-3.49 0-3.49.45-3.49 1.61z"/></g><g fill="#000" fill-rule="evenodd" stroke="none" stroke-miterlimit="10.433" transform="matrix(.19291053441 0 0 -.19291053441 22.01195524541 259.81675468711)"><path d="m463.49 410.09-.05-.18-.04-.17-.05-.16-.04-.15-.04-.15-.05-.13-.05-.13-.05-.12-.05-.11-.06-.11-.07-.1-.07-.09-.07-.09-.09-.07-.09-.08-.11-.06-.11-.07-.13-.05-.13-.05-.15-.05-.16-.04-.09-.02-.09-.01-.09-.02-.1-.02-.1-.01-.1-.01-.11-.01-.12-.02-.11-.01-.13-.01h-.12l-.13-.01-.14-.01h-.14l-.14-.01h-.15l-.16-.01h-.16-.16-.17-.18-.18c-.85 0-1.35 0-1.35-1 0-.55.46-.55 1.35-.55h17.78c7.87 0 13.75 5.87 13.75 10.76 0 3.58-2.89 6.47-7.72 7.02 5.19.95 10.42 4.64 10.42 9.38 0 3.68-3.3 6.87-9.28 6.87l-.69-1.55c4.38 0 5.42-2.93 5.42-5.12 0-4.39-4.28-9.13-10.35-9.13h-7.27l-.3-1.09h9.41c4.78 0 5.73-3.69 5.73-5.83 0-4.94-4.43-9.76-10.31-9.76h-6.78c-.69 0-.8 0-1.09.04-.5.05-.64.1-.64.5 0 .14 0 .25.25 1.14l3.43 13.91.3 1.09 3.08 12.36c.45 1.74.54 1.89 2.7 1.89h6.42l.69 1.55h-16.73c-.94 0-1.44 0-1.44-1 0-.55.44-.55 1.39-.55.09 0 1.05 0 1.89-.09.89-.11 1.34-.16 1.34-.8 0-.2-.04-.36-.2-.95z"/><path d="m510.91 405.11h-1.18c-.1-.77-.46-2.83-.91-3.18-.27-.2-2.95-.2-3.44-.2h-6.42c3.66 3.23 4.88 4.2 6.97 5.84 2.58 2.07 4.98 4.22 4.98 7.54 0 4.21-3.68 6.79-8.15 6.79-4.31 0-7.25-3.03-7.25-6.23 0-1.78 1.5-1.96 1.86-1.96.83 0 1.84.6 1.84 1.85 0 .62-.25 1.84-2.06 1.84 1.08 2.47 3.45 3.24 5.09 3.24 3.49 0 5.3-2.71 5.3-5.53 0-3.04-2.16-5.44-3.28-6.69l-8.39-8.3c-.36-.31-.36-.39-.36-1.36h14.36z"/></g><g transform="translate(7.414446 -7.490231)"><path d="m-85.285702 188.48857 41.025871-.26727 20.045213-27.26149-41.694051 1.33635z" fill="#fea" fill-opacity=".588235" stroke="#000" stroke-width=".465"/><path d="m-44.259831 188.2213 44.76764772 20.71339 19.10976728-27.52877-43.832202-20.44611z" fill="#afe" fill-opacity=".588235" stroke="#000" stroke-width=".465"/><g fill="#000" fill-rule="evenodd" stroke="none" stroke-miterlimit="10.433" transform="matrix(.19291053441 0 0 -.19291053441 -104.83416575459 264.36033468711)"><path d="m463.49 410.09-.05-.18-.04-.17-.05-.16-.04-.15-.04-.15-.05-.13-.05-.13-.05-.12-.05-.11-.06-.11-.07-.1-.07-.09-.07-.09-.09-.07-.09-.08-.11-.06-.11-.07-.13-.05-.13-.05-.15-.05-.16-.04-.09-.02-.09-.01-.09-.02-.1-.02-.1-.01-.1-.01-.11-.01-.12-.02-.11-.01-.13-.01h-.12l-.13-.01-.14-.01h-.14l-.14-.01h-.15l-.16-.01h-.16-.16-.17-.18-.18c-.85 0-1.35 0-1.35-1 0-.55.46-.55 1.35-.55h17.78c7.87 0 13.75 5.87 13.75 10.76 0 3.58-2.89 6.47-7.72 7.02 5.19.95 10.42 4.64 10.42 9.38 0 3.68-3.3 6.87-9.28 6.87l-.69-1.55c4.38 0 5.42-2.93 5.42-5.12 0-4.39-4.28-9.13-10.35-9.13h-7.27l-.3-1.09h9.41c4.78 0 5.73-3.69 5.73-5.83 0-4.94-4.43-9.76-10.31-9.76h-6.78c-.69 0-.8 0-1.09.04-.5.05-.64.1-.64.5 0 .14 0 .25.25 1.14l3.43 13.91.3 1.09 3.08 12.36c.45 1.74.54 1.89 2.7 1.89h6.42l.69 1.55h-16.73c-.94 0-1.44 0-1.44-1 0-.55.44-.55 1.39-.55.09 0 1.05 0 1.89-.09.89-.11 1.34-.16 1.34-.8 0-.2-.04-.36-.2-.95z"/><path d="m510.91 405.11h-1.18c-.1-.77-.46-2.83-.91-3.18-.27-.2-2.95-.2-3.44-.2h-6.42c3.66 3.23 4.88 4.2 6.97 5.84 2.58 2.07 4.98 4.22 4.98 7.54 0 4.21-3.68 6.79-8.15 6.79-4.31 0-7.25-3.03-7.25-6.23 0-1.78 1.5-1.96 1.86-1.96.83 0 1.84.6 1.84 1.85 0 .62-.25 1.84-2.06 1.84 1.08 2.47 3.45 3.24 5.09 3.24 3.49 0 5.3-2.71 5.3-5.53 0-3.04-2.16-5.44-3.28-6.69l-8.39-8.3c-.36-.31-.36-.39-.36-1.36h14.36z"/></g><g fill="#000" fill-rule="evenodd" stroke="none" stroke-miterlimit="10.433" transform="matrix(.19291053 0 0 -.19291053 -148.17172 255.05962)"><path d="m463.49 410.09-.05-.18-.04-.17-.05-.16-.04-.15-.04-.15-.05-.13-.05-.13-.05-.12-.05-.11-.06-.11-.07-.1-.07-.09-.07-.09-.09-.07-.09-.08-.11-.06-.11-.07-.13-.05-.13-.05-.15-.05-.16-.04-.09-.02-.09-.01-.09-.02-.1-.02-.1-.01-.1-.01-.11-.01-.12-.02-.11-.01-.13-.01h-.12l-.13-.01-.14-.01h-.14l-.14-.01h-.15l-.16-.01h-.16-.16-.17-.18-.18c-.85 0-1.35 0-1.35-1 0-.55.46-.55 1.35-.55h17.78c7.87 0 13.75 5.87 13.75 10.76 0 3.58-2.89 6.47-7.72 7.02 5.19.95 10.42 4.64 10.42 9.38 0 3.68-3.3 6.87-9.28 6.87l-.69-1.55c4.38 0 5.42-2.93 5.42-5.12 0-4.39-4.28-9.13-10.35-9.13h-7.27l-.3-1.09h9.41c4.78 0 5.73-3.69 5.73-5.83 0-4.94-4.43-9.76-10.31-9.76h-6.78c-.69 0-.8 0-1.09.04-.5.05-.64.1-.64.5 0 .14 0 .25.25 1.14l3.43 13.91.3 1.09 3.08 12.36c.45 1.74.54 1.89 2.7 1.89h6.42l.69 1.55h-16.73c-.94 0-1.44 0-1.44-1 0-.55.44-.55 1.39-.55.09 0 1.05 0 1.89-.09.89-.11 1.34-.16 1.34-.8 0-.2-.04-.36-.2-.95z"/><path d="m504.99 420.92v.04.04.05.04.03.04.04.03.04l-.01.03v.03.03.03l-.01.03v.03.02l-.01.03v.02l-.01.03v.02l-.01.04-.02.04-.02.03-.02.03-.02.03-.02.03-.03.02-.03.02-.03.02-.04.01-.04.01-.05.02h-.02-.02l-.03.01h-.03l-.02.01h-.03-.03-.03-.03l-.04.01h-.03-.04-.03-.04-.04-.04-.04-.05-.04-.04c-2.24-2.2-5.4-2.23-6.83-2.23v-1.25c.84 0 3.14 0 5.04.97v-17.77c0-1.16 0-1.61-3.48-1.61h-1.31v-1.25c.62.03 4.9.14 6.2.14 1.08 0 5.47-.11 6.23-.14v1.25h-1.32c-3.49 0-3.49.45-3.49 1.61z"/></g><g fill="none" stroke="#000" stroke-width=".665"><path d="m-85.285702 188.48857 41.025871-.26727" marker-end="url(#g)"/><path d="m-44.259831 188.2213 44.76764772 20.71339" marker-end="url(#a)"/></g></g><text font-family="sans-serif" font-size="6.35" letter-spacing="0" stroke-width=".264583" word-spacing="0" x="-49.933044" y="136.34846"><tspan stroke-width=".264583" x="-49.933044" y="136.34846">Caso coplanare</tspan></text><text font-family="sans-serif" font-size="6.35" letter-spacing="0" stroke-width=".264583" word-spacing="0" x="79.219681" y="136.34846"><tspan stroke-width=".264583" x="79.219681" y="136.34846">Caso generale</tspan></text><text font-family="sans-serif" font-size="6.35" letter-spacing="0" stroke-width=".264583" word-spacing="0" x="-25.376404" y="216.42241"><tspan stroke-width=".264583" text-anchor="middle" x="-25.376406" y="216.42241">Se le aree hanno verso</tspan><tspan stroke-width=".264583" text-anchor="middle" x="-25.376404" y="224.35991">opposto, si sottraggono.</tspan></text></g></svg>