<svg height="79.004906mm" viewBox="0 0 178.01393 79.004906" width="178.01393mm" xmlns="http://www.w3.org/2000/svg" xmlns:xlink="http://www.w3.org/1999/xlink"><marker id="a" orient="auto" overflow="visible" refX="0" refY="0"><path d="m0 0 5-5-17.5 5 17.5 5z" fill-rule="evenodd" stroke="#000" stroke-width="1pt" transform="matrix(-.4 0 0 -.4 -4 0)"/></marker><g transform="translate(-55.491469 -86.866767)"><g stroke="#000"><path d="m168.27299 86.999267a34.421794 34.421794 0 0 0 -33.11942 25.171073h20.42666v41.21557a34.421794 34.421794 0 0 0 12.69276 2.45722 34.421794 34.421794 0 0 0 34.42166-34.42167 34.421794 34.421794 0 0 0 -34.42166-34.422193z" fill="#fca" stroke-linecap="round" stroke-width=".265"/><path d="m423.67578 69.888672a130.09812 130.09812 0 0 0 -4.92187 34.964848 130.09812 130.09812 0 0 0 82.12304 120.80859v-155.773438z" fill="#e5ff80" stroke-linecap="round" stroke-width="1.001575" transform="matrix(.26458333 0 0 .26458333 23.056543 93.679482)"/><path d="m95.557025 112.17034v53.56883h60.023205v-12.35326a34.421794 34.421794 0 0 1 -21.7289-31.96445 34.421794 34.421794 0 0 1 1.30224-9.25112z" fill="#aaf" stroke-linecap="round" stroke-width=".265"/><path d="m55.542111 155.84358 177.272239-51.20242" fill="none" marker-end="url(#a)" stroke-width=".365"/><circle cx="95.62468" cy="144.25311" r=".497503" stroke-linecap="round" stroke-width=".565"/><circle cx="135.75211" cy="132.64647" r=".497503" stroke-linecap="round" stroke-width=".565"/><circle cx="155.5939" cy="126.95146" r=".497503" stroke-linecap="round" stroke-width=".565"/><circle cx="201.80257" cy="113.5929" r=".497503" stroke-linecap="round" stroke-width=".565"/></g><text font-family="sans-serif" font-size="5.644444" letter-spacing="0" stroke-width=".264583" word-spacing="0" x="96.687271" y="149.60001"><tspan stroke-width=".264583" x="96.687271" y="149.60001">A</tspan></text><text font-family="sans-serif" font-size="5.644444" letter-spacing="0" stroke-width=".264583" word-spacing="0" x="131.85849" y="138.58034"><tspan stroke-width=".264583" x="131.85849" y="138.58034">B</tspan></text><text font-family="sans-serif" font-size="5.644444" letter-spacing="0" stroke-width=".264583" word-spacing="0" x="157.0231" y="132.02409"><tspan stroke-width=".264583" x="157.0231" y="132.02409">C</tspan></text><text font-family="sans-serif" font-size="5.644444" letter-spacing="0" stroke-width=".264583" word-spacing="0" x="202.39037" y="110.75356"><tspan stroke-width=".264583" x="202.39037" y="110.75356">D</tspan></text><text font-family="sans-serif" font-size="5.644444" letter-spacing="0" stroke-width=".264583" word-spacing="0" x="97.012764" y="121.12334"><tspan font-size="8.466667" font-weight="bold" stroke-width=".264583" x="97.012764" y="121.12334">#1</tspan></text><text font-family="sans-serif" font-size="5.644444" letter-spacing="0" stroke-width=".264583" word-spacing="0" x="160.26282" y="97.028084"><tspan font-size="8.466667" font-weight="bold" stroke-width=".264583" x="160.26282" y="97.028084">#2</tspan></text></g></svg>