<svg height="89.0793mm" viewBox="0 0 158.9601 89.0793" width="158.9601mm" xmlns="http://www.w3.org/2000/svg" xmlns:xlink="http://www.w3.org/1999/xlink"><marker id="a" orient="auto" overflow="visible" refX="0.0" refY="0.0"><path d="m0 0 5-5-17.5 5 17.5 5z" fill-rule="evenodd" stroke="#000" stroke-width="1pt" transform="matrix(-.4 0 0 -.4 -4 0)"/></marker><marker id="b" orient="auto" overflow="visible" refX="0" refY="0"><path d="m0 0 5-5-17.5 5 17.5 5z" fill-rule="evenodd" stroke="#000" stroke-width="1pt" transform="matrix(-.8 0 0 -.8 -10 0)"/></marker><marker id="c" orient="auto" overflow="visible" refX="0" refY="0"><path d="m0 0 5-5-17.5 5 17.5 5z" fill-rule="evenodd" stroke="#000" stroke-width="1pt" transform="matrix(.8 0 0 .8 10 0)"/></marker><g transform="translate(-42.011611 -129.74232)"><path d="m56.527503 218.28912h88.466217l25.92514-35.68048h-88.466212z" fill="none" stroke="#000" stroke-width="1.065"/><path d="m84.590804 146.92816 37.284096 51.31575-33.007784-53.98845z" fill="#e6e6e6" stroke="#000" stroke-width=".264583"/><path d="m121.60763 135.5692.26727 62.67471 40.75861-54.12208" fill="none" marker-end="url(#b)" marker-start="url(#c)" stroke="#000" stroke-width=".365"/><path d="m92.341619 157.61894-.133633 49.04396 29.666914-8.41899 26.32605 6.01357-.13363-40.89225" fill="none" stroke="#000" stroke-dasharray=".529167 .264583" stroke-width=".264583"/><g stroke="#000" transform="translate(5.669643 7.9375)"><g fill="none" stroke-width=".264583"><path d="m75.770911 121.80482v13.22984"/><path d="m71.093456 123.74228 9.35491 9.35492"/><path d="m69.15599 128.41974h13.229842"/><path d="m71.093456 133.0972 9.35491-9.35492"/></g><circle cx="75.770912" cy="128.41974" fill="#ff0" r="2.672695" stroke-linecap="round" stroke-width=".265"/></g><g stroke-width=".264583"><text font-family="sans-serif" font-size="6.35" letter-spacing="0" word-spacing="0" x="41.388393" y="151.29018"><tspan stroke-width=".264583" x="41.388393" y="151.29018">Light source</tspan></text><text font-family="sans-serif" font-size="6.35" letter-spacing="0" word-spacing="0" x="173.30208" y="146.56548"><tspan stroke-width=".264583" x="173.30208" y="146.56548">Detector</tspan></text><text font-family="sans-serif" font-size="6.35" letter-spacing="0" word-spacing="0" x="95.627968" y="152.80208"><tspan stroke-width=".264583" x="95.627968" y="152.80208">Ψ</tspan></text><text font-family="sans-serif" font-size="6.35" letter-spacing="0" word-spacing="0" x="148.35565" y="153.36903"><tspan stroke-width=".264583" x="148.35565" y="153.36903">Θ</tspan></text><text font-family="sans-serif" font-size="6.35" letter-spacing="0" word-spacing="0" x="128.13393" y="138.62798"><tspan font-style="italic" stroke-width=".264583" x="128.13393" y="138.62798">N<tspan baseline-shift="sub" font-size="64.999998%" font-style="italic">x</tspan></tspan></text><text font-family="sans-serif" font-size="6.35" letter-spacing="0" word-spacing="0" x="120.19643" y="206.6637"><tspan font-style="italic" stroke-width=".264583" x="120.19643" y="206.6637">x</tspan></text></g><g stroke="#000" transform="translate(-6.803571 8.315476)"><path d="m169.86983 129.47155 8.06246-3.50578-2.31174 8.69623" fill="none" stroke-width=".264583"/><ellipse cx="33.227406" cy="215.0816" fill="#e6e6e6" rx=".850446" ry="2.976563" stroke-linecap="round" stroke-width=".365" transform="matrix(.71687817 -.69719846 .69719846 .71687817 0 0)"/></g><path d="m118.40928 193.26097a6.0696106 6.0696106 0 0 1 3.43858-1.08661l.027 6.06955z" fill="none" stroke="#000" stroke-linecap="round" stroke-width=".365"/><text font-family="sans-serif" font-size="9.029689" letter-spacing="0" stroke-width=".376237" word-spacing="0" x="92.939957" y="198.28683"><tspan font-size="5.016494" stroke-width=".376237" x="92.939957" y="198.28683">cos(<tspan font-size="5.016494" font-style="italic" stroke-width=".376237">N<tspan baseline-shift="sub" font-size="3.260721" stroke-width=".376237">x</tspan></tspan>, Ψ)</tspan></text><path d="m104.6195 193.96556c4.54358-8.21854 11.75986-12.22759 15.16754-2.47225" fill="none" marker-end="url(#a)" stroke="#000" stroke-width=".264583"/></g></svg>