<svg height="372.04724" width="524.40942" xmlns="http://www.w3.org/2000/svg"><path d="m34.9375 18.125v318.5.5h.5 425.1875v-1c-141.56561 0-283.12189 0-424.6875 0 0-94.44943 0-223.66014 0-318z" fill-rule="evenodd"/><path d="m35.433071 13.52354 4 6.92h-8l4-6.92z" fill-rule="evenodd" stroke="#000" stroke-width=".8pt"/><path d="m465.24592 336.61417-6.92 4v-8l6.92 4z" fill-rule="evenodd" stroke="#000" stroke-width=".8pt"/><path d="m1230.2 339.92v-.15-.15l-.1-.14v-.13-.13l-.1-.11v-.12-.1l-.1-.1v-.09l-.1-.09v-.08l-.1-.07v-.07l-.1-.07v-.05l-.1-.06-.1-.05-.1-.04v-.04l-.1-.04-.1-.03-.1-.03-.2-.02-.1-.02-.1-.02h-.1l-.1-.01v-.01h-.1l-.1-.01h-.1-.1l-.1-.01h-.1-.1-.1c-.7 0-1.2 0-1.2-.95 0-.39.3-.59.7-.59 1.3 0 2.7.14 4.1.14 1.7 0 3.4-.14 5-.14.2 0 .9 0 .9.99 0 .55-.5.55-1.2.55-2.5 0-2.5.35-2.5.8 0 .59 2.1 8.71 2.4 9.96.7-1.44 2.1-3.19 4.6-3.19v1.1c-3.3 0-4 4.13-4 4.43 0 .1 0 .2.2.8l2.4 9.76c.4 1.35 1.7 2.74 2.6 3.49 1.7 1.54 3.2 1.89 4 1.89 2 0 3.2-1.74 3.2-4.68s-1.6-8.67-2.5-10.56c-1.7-3.49-4.1-5.13-5.9-5.13v-1.1c5.8 0 12 7.28 12 14.6 0 4.68-2.8 7.97-6.6 7.97-2.5 0-4.9-1.8-6.5-3.74-.5 2.69-2.7 3.74-4.5 3.74-2.3 0-3.3-1.95-3.7-2.84-.9-1.7-1.6-4.68-1.6-4.83 0-.5.5-.5.6-.5.5 0 .6.05.9 1.14.8 3.54 1.8 5.93 3.6 5.93.9 0 1.6-.4 1.6-2.29 0-1.15-.2-1.69-.4-2.54z" transform="matrix(.5314961 0 0 -.5314961 -637.29926 206.23111)"/><path d="m1251.3 374.34.2.36.2.33.3.31.2.29.2.28.2.25.2.24.2.22.3.2.2.18.2.18.2.15.2.15.2.13.2.11.2.11.2.1.2.08.2.08.2.06.2.06.2.05.1.04.2.04.2.03.2.02.4.04.3.03.4.02c.6.05.6.9.6.95 0 .39-.2.59-.6.59-1.3 0-2.8-.15-4.1-.15-1.7 0-3.4.15-5 .15-.3 0-.9 0-.9-.95 0-.54.4-.59.8-.59 1.3-.1 2.3-.6 2.3-1.64 0-.75-.8-1.85-.8-1.9l-15.2-24.31-3.4 26.35c0 .85 1.1 1.5 3.4 1.5.7 0 1.2 0 1.2.99 0 .45-.4.55-.7.55-2 0-4.1-.15-6.1-.15-.9 0-1.9.05-2.8.05s-1.8.1-2.7.1c-.3 0-.9 0-.9-.95 0-.59.4-.59 1.2-.59 2.8 0 2.9-.45 3-1.69l4-30.74c.1-1 .3-1.15 1-1.15.8 0 .9.25 1.3.9z" transform="matrix(.5314961 0 0 -.5314961 -201.06501 545.67993)"/><g fill-rule="evenodd"><path d="m354.6875 194.84375-1 .09375c1.66836 17.36601 2.37557 21.19722 5.9375 36 3.99517 18.33916 4.89009 21.76627 10.90625 35.25l.90625-.40625c-6.00544-13.45969-6.84956-16.75911-10.84375-35.09375-3.55989-14.79432-4.23913-18.49064-5.90625-35.84375z"/><path d="m361.13744 235.30857-5.44492-5.85142 7.79778-1.78732-2.35286 7.63874z" stroke="#000" stroke-width=".8pt"/><path d="m71.09375 53.59375-1 .125c3.03338 23.289494 5.912995 47.07822 11.375 70.40625v.03125h.03125c13.279672 44.44443 16.864144 50.1508 24.21875 70.90625l.9375-.34375c-7.367674-20.79233-10.9552-26.42537-24.21875-70.8125h.03125c-5.445377-23.25701-8.340832-47.016954-11.375-70.3125z"/><path d="m80.779832 119.56081 5.645533 5.65812-7.730765 2.05798 2.085232-7.7161z" stroke="#000" stroke-width=".8pt"/><path d="m70.75 53.34375-.78125.625c30.49187 36.546867 90.94834 83.14714 141.9375 106.4375 47.85077 22.02104 115.78043 33.83686 141.90625 35.46875l.0625-1c-25.9326-1.61983-93.9152-13.4476-141.5625-35.375-50.8019-23.20482-111.21944-69.78774-141.5625-106.15625z"/><path d="m216.29443 161.87264-7.95744.752 3.33415-7.2721 4.62329 6.5201z" stroke="#000" stroke-width=".8pt"/><path d="m106.53125 194.1875-.46875.90625c44.45602 24.07243 97.65103 43.47928 141.375 52.84375 46.15044 10.99074 81.27164 16.14734 123.5 18.8125l.0625-1c-42.18246-2.66226-77.23618-7.80072-123.34375-18.78125h-.03125c-43.60929-9.33991-96.73335-28.76059-141.09375-52.78125z"/><path d="m243.02918 246.44155 7.63183-2.37521-1.7645 7.80299-5.86733-5.42778z" stroke="#000" stroke-width=".8pt"/></g><g fill="#f00" stroke="none" stroke-miterlimit="10.433" transform="matrix(.5314961 0 0 -.5314961 -393.57288 347.095287)"><path d="m1235.3 376.24v.13.12l.1.11v.11.11l.1.09v.1.08.09l.1.07v.08.06l.1.07v.06.05.06l.1.04v.05.04l.1.04v.03l.1.04v.03.02l.1.03v.02l.1.02v.02l.1.02v.02l.1.01v.02c.5.1 2.1.1 3.2.1 5 0 7.2-.2 7.2-4.09 0-.74-.2-2.68-.4-3.98 0-.2-.1-.8-.1-.95 0-.3.1-.64.6-.64s.6.39.7 1.14l1.4 8.67c0 .2.1.7.1.85 0 .54-.5.54-1.4.54h-27.6c-1.2 0-1.3-.05-1.6-.99l-3-8.77c-.1-.1-.3-.8-.3-.9 0-.29.2-.54.6-.54.5 0 .5.25.8 1.04 2.7 7.72 4 8.62 11.4 8.62h1.9c1.4 0 1.4-.2 1.4-.6 0-.3-.1-.9-.2-1.04l-6.6-26.61c-.5-1.84-.6-2.39-6-2.39-1.8 0-2.1 0-2.1-.94 0-.6.6-.6.9-.6 1.3 0 2.7.1 4.1.1s2.8.05 4.2.05 2.8-.05 4.1-.05c1.5 0 3-.1 4.4-.1.5 0 1.1 0 1.1 1 0 .54-.4.54-1.7.54s-1.9 0-3.2.1c-1.5.15-1.9.3-1.9 1.1 0 .05 0 .3.2 1.05z"/><path d="m1255.7 361.18v.04.04.04.04.04.04.03.04.03.03.04.03.02.03.03.03l-.1.02v.02.05.04.04.03.03l-.1.03v.03.02.02l-.1.02v.01.01l-.1.02-.1.01v.01h-.1l-.1.01h-.1-.1-.1-.1c-2.2-2.19-5.4-2.23-6.8-2.23v-1.25c.8 0 3.1 0 5.1.97v-17.78c0-1.15 0-1.61-3.5-1.61h-1.4v-1.25c.7.04 5 .14 6.2.14 1.1 0 5.5-.1 6.3-.14v1.25h-1.3c-3.5 0-3.5.46-3.5 1.61z"/></g><g fill="#00f" stroke="none" stroke-miterlimit="10.433" transform="matrix(.5314961 0 0 -.5314961 -412.01579 460.098435)"><path d="m1235.3 376.24v.13.12l.1.11v.11.11l.1.09v.1.08.09l.1.07v.08.06l.1.07v.06.05.06l.1.04v.05.04l.1.04v.03l.1.04v.03.02l.1.03v.02l.1.02v.02l.1.02v.02l.1.01v.02c.5.1 2.1.1 3.2.1 5 0 7.2-.2 7.2-4.09 0-.74-.2-2.68-.4-3.98 0-.2-.1-.8-.1-.95 0-.3.1-.64.6-.64s.6.39.7 1.14l1.4 8.67c0 .2.1.7.1.85 0 .54-.5.54-1.4.54h-27.6c-1.2 0-1.3-.05-1.6-.99l-3-8.77c-.1-.1-.3-.8-.3-.9 0-.29.2-.54.6-.54.5 0 .5.25.8 1.04 2.7 7.72 4 8.62 11.4 8.62h1.9c1.4 0 1.4-.2 1.4-.6 0-.3-.1-.9-.2-1.04l-6.6-26.61c-.5-1.84-.6-2.39-6-2.39-1.8 0-2.1 0-2.1-.94 0-.6.6-.6.9-.6 1.3 0 2.7.1 4.1.1s2.8.05 4.2.05 2.8-.05 4.1-.05c1.5 0 3-.1 4.4-.1.5 0 1.1 0 1.1 1 0 .54-.4.54-1.7.54s-1.9 0-3.2.1c-1.5.15-1.9.3-1.9 1.1 0 .05 0 .3.2 1.05z"/><path d="m1261.6 345.35h-1.2c-.1-.77-.4-2.83-.9-3.18-.3-.21-2.9-.21-3.4-.21h-6.4c3.6 3.25 4.8 4.22 6.9 5.86 2.6 2.06 5 4.22 5 7.54 0 4.21-3.7 6.79-8.2 6.79-4.3 0-7.2-3.03-7.2-6.24 0-1.78 1.5-1.95 1.8-1.95.9 0 1.9.59 1.9 1.85 0 .62-.2 1.85-2.1 1.85 1.1 2.47 3.5 3.24 5.1 3.24 3.5 0 5.3-2.72 5.3-5.54 0-3.04-2.1-5.45-3.3-6.7l-8.3-8.3c-.4-.31-.4-.38-.4-1.36h14.4z"/></g><path d="m190.875 123.84375-14.1875 35.40625.9375.375 14.1875-35.4375z" fill="#f00" fill-rule="evenodd"/><path d="m181.35529 155.49067-4.67288 5.19137.19645-6.98194c.93248 1.50097 2.74268 2.21855 4.47643 1.79057z" fill="#f00" fill-rule="evenodd" stroke="#f00" stroke-linejoin="round" stroke-width=".375"/><path d="m162.53125 201.8125-14.1875 42.53125.9375.3125 14.1875-42.53125z" fill="#00f" fill-rule="evenodd"/><path d="m152.76918 240.29083-4.35997 5.45681-.21389-6.98143c1.01902 1.44362 2.86824 2.05367 4.57386 1.52462z" fill="#00f" fill-rule="evenodd" stroke="#00f" stroke-linejoin="round" stroke-width=".375"/><g fill="#00f" stroke="none" stroke-miterlimit="10.433" transform="matrix(.5314961 0 0 -.5314961 -510.20083 454.138594)"><path d="m1230.8 346.3.7.29.8.33.7.36.7.39.7.42.7.45.7.49.6.5.7.54.6.56.7.59.6.61.6.64.5.66.6.68.5.7.5.72.5.73.5.76.4.77.4.79.4.8.4.82.3.83.3.84.2.85.3.87.1.87.2.88.1.89v.89l.1.9c0 8.02-5.3 13.4-12.7 13.4l-.3-1.25c4.9 0 8.6-3.88 8.6-10.56 0-4.98-2.6-16.63-10.9-21.32-.3 1.74-.8 5.38-4.4 5.38-2.6 0-5.1-2.49-5.1-5.08h1.1c0 2 1.9 3.99 4 3.99s3-1.2 3-4.24c0-.74 0-.79-.5-.99-1.3-.55-2.8-.9-4.2-.9-.7 0-2.3 0-2.3 2.14h-1.1c0-.99.3-1.54.3-1.59-3.9 1.54-5.6 5.43-5.6 9.91 0 3.44 1.3 10.51 5.1 15.89 3.6 5.08 8.3 7.37 12 7.37l.3 1.25c-10.8 0-21.8-11.31-21.8-22.92 0-8.27 5.6-13.3 12.8-13.3 1.2 0 2.9.2 4.9.75-.2-3.09-.2-3.19-.2-3.83 0-1.6 0-5.48 4.1-5.48 5.9 0 8.3 9.11 8.3 9.66 0 .35-.3.5-.5.5-.4 0-.5-.25-.6-.55-1.2-3.54-4.1-4.78-5.8-4.78-2.3 0-3.1 1.34-3.6 5.13z"/><path d="m1266.6 345.35h-1.2c-.1-.77-.4-2.83-.9-3.18-.3-.21-2.9-.21-3.4-.21h-6.4c3.6 3.25 4.8 4.22 6.9 5.86 2.6 2.06 5 4.22 5 7.54 0 4.21-3.7 6.79-8.2 6.79-4.3 0-7.2-3.03-7.2-6.24 0-1.78 1.5-1.95 1.8-1.95.9 0 1.9.59 1.9 1.85 0 .62-.2 1.85-2.1 1.85 1.1 2.47 3.5 3.24 5.1 3.24 3.5 0 5.3-2.72 5.3-5.54 0-3.04-2.1-5.45-3.3-6.7l-8.3-8.3c-.4-.31-.4-.38-.4-1.36h14.4z"/></g><g fill="#f00" stroke-miterlimit="10.433" transform="matrix(.5314961 0 0 -.5314961 -460.00989 298.233082)"><path d="m1230.8 346.3.7.29.8.33.7.36.7.39.7.42.7.45.7.49.6.5.7.54.6.56.7.59.6.61.6.64.5.66.6.68.5.7.5.72.5.73.5.76.4.77.4.79.4.8.4.82.3.83.3.84.2.85.3.87.1.87.2.88.1.89v.89l.1.9c0 8.02-5.3 13.4-12.7 13.4l-.3-1.25c4.9 0 8.6-3.88 8.6-10.56 0-4.98-2.6-16.63-10.9-21.32-.3 1.74-.8 5.38-4.4 5.38-2.6 0-5.1-2.49-5.1-5.08h1.1c0 2 1.9 3.99 4 3.99s3-1.2 3-4.24c0-.74 0-.79-.5-.99-1.3-.55-2.8-.9-4.2-.9-.7 0-2.3 0-2.3 2.14h-1.1c0-.99.3-1.54.3-1.59-3.9 1.54-5.6 5.43-5.6 9.91 0 3.44 1.3 10.51 5.1 15.89 3.6 5.08 8.3 7.37 12 7.37l.3 1.25c-10.8 0-21.8-11.31-21.8-22.92 0-8.27 5.6-13.3 12.8-13.3 1.2 0 2.9.2 4.9.75-.2-3.09-.2-3.19-.2-3.83 0-1.6 0-5.48 4.1-5.48 5.9 0 8.3 9.11 8.3 9.66 0 .35-.3.5-.5.5-.4 0-.5-.25-.6-.55-1.2-3.54-4.1-4.78-5.8-4.78-2.3 0-3.1 1.34-3.6 5.13z"/><path d="m1260.7 361.18v.04.04.04.04.04.04.03.04.03.03.04.03.02.03.03.03l-.1.02v.02.05.04.04.03.03l-.1.03v.03.02.02l-.1.02v.01.01l-.1.02-.1.01v.01h-.1l-.1.01h-.1-.1-.1-.1c-2.2-2.19-5.4-2.23-6.8-2.23v-1.25c.8 0 3.1 0 5.1.97v-17.78c0-1.15 0-1.61-3.5-1.61h-1.4v-1.25c.7.04 5 .14 6.2.14 1.1 0 5.5-.1 6.3-.14v1.25h-1.3c-3.5 0-3.5.46-3.5 1.61z"/></g><text font-family="Bitstream Charter" font-size="24" x="50.019421" y="53.149605"><tspan x="50.019421" y="53.149605">A</tspan></text><text font-family="Bitstream Charter" font-size="24" x="362.80518" y="192.99005"><tspan x="362.80518" y="192.99005">B</tspan></text><text font-family="Bitstream Charter" font-size="24" x="374.83578" y="284.10803"><tspan x="374.83578" y="284.10803">C</tspan></text><text font-family="Bitstream Charter" font-size="24" x="84.075211" y="209.65927"><tspan x="84.075211" y="209.65927">D</tspan></text></svg>