<svg height="53.151756mm" viewBox="0 0 125.23056 53.151756" width="125.23056mm" xmlns="http://www.w3.org/2000/svg"><g stroke="#000" transform="translate(26.431747 -77.063015)"><g stroke-linecap="round"><path d="m49.048954 80.47083h8.457646v8.457646h-8.457646z" stroke-width="1.542354"/><path d="m59.048954 90.47083h8.457646v8.457646h-8.457646z" stroke-width="1.542354"/><path d="m69.048954 80.47083h8.457646v8.457646h-8.457646z" stroke-width="1.542354"/><path d="m79.048956 90.47083h8.457646v8.457646h-8.457646z" stroke-width="1.542354"/><path d="m49.048954 100.47083h8.457646v8.457646h-8.457646z" stroke-width="1.542354"/><path d="m59.048954 110.47083h8.457646v8.457646h-8.457646z" stroke-width="1.542354"/><path d="m69.048954 100.47083h8.457646v8.457646h-8.457646z" stroke-width="1.542354"/><path d="m79.048956 110.47083h8.457646v8.457646h-8.457646z" stroke-width="1.542354"/><path d="m89.048956 80.47083h8.457646v8.457646h-8.457646z" stroke-width="1.542354"/><path d="m89.048956 100.47083h8.457646v8.457646h-8.457646z" stroke-width="1.542354"/><path d="m89.048956 120.47083h8.457646v8.457646h-8.457646z" stroke-width="1.542354"/><path d="m69.048954 120.42761h8.457646v8.457646h-8.457646z" stroke-width="1.542354"/><path d="m49.048954 120.42761h8.457646v8.457646h-8.457646z" stroke-width="1.542354"/><path d="m48.021332 79.466832h50.512898v50.483356h-50.512898z" fill="none" stroke-width=".529166"/><path d="m-26.167164 77.327599h54.33408v43.65625h-54.33408z" fill="#999" stroke-width=".529167"/><path d="m1.614087 97.360329h1.795387v1.795387h-1.795387z" fill="#999" stroke-width=".2"/></g><path d="m1.6140879 97.360347 46.4072441-17.89352" fill="none" stroke-width=".2"/><path d="m1.6140879 99.155707 46.4072441 30.794483" fill="none" stroke-width=".2"/></g></svg>