<svg height="80.264999mm" viewBox="0 0 80.264999 80.264999" width="80.264999mm" xmlns="http://www.w3.org/2000/svg"><g transform="translate(-23.654489 -108.44248)"><g stroke="#000" stroke-linecap="round" stroke-width=".265"><path d="m23.786989 108.57498h20v20h-20z" fill="#ccc"/><path d="m23.786989 128.57498h20v20h-20z" fill="#f3f3f3"/><path d="m43.786987 128.57498h20v20h-20z" fill="#ccc"/><path d="m43.786987 108.57498h20v20h-20z" fill="#f3f3f3"/><path d="m63.786987 108.57498h20v20h-20z" fill="#ccc"/><path d="m63.786987 128.57498h20v20h-20z" fill="#f3f3f3"/><path d="m63.786987 148.57498h20v20h-20z" fill="#ccc"/><path d="m43.786987 148.57498h20v20h-20z" fill="#f3f3f3"/><path d="m23.786989 148.57498h20v20h-20z" fill="#ccc"/><path d="m83.786987 108.57498h20v20h-20z" fill="#f3f3f3"/><path d="m83.786987 128.57498h20v20h-20z" fill="#ccc"/><path d="m83.786987 148.57498h20v20h-20z" fill="#f3f3f3"/><path d="m63.786987 168.57498h20v20h-20z" fill="#f3f3f3"/><path d="m43.786987 168.57498h20v20h-20z" fill="#ccc"/><path d="m23.786989 168.57498h20v20h-20z" fill="#f3f3f3"/><path d="m83.786987 168.57498h20v20h-20z" fill="#ccc"/></g><text font-family="sans-serif" font-size="4.233333" letter-spacing="0" stroke-width=".264583" word-spacing="0" x="28.09638" y="179.90204"><tspan stroke-width=".264583" x="28.09638" y="179.90204">(0, 0)</tspan></text><text font-family="sans-serif" font-size="4.233333" letter-spacing="0" stroke-width=".264583" word-spacing="0" x="48.096378" y="179.90204"><tspan stroke-width=".264583" x="48.096378" y="179.90204">(1, 0)</tspan></text><text font-family="sans-serif" font-size="4.233333" letter-spacing="0" stroke-width=".264583" word-spacing="0" x="68.096382" y="179.90204"><tspan stroke-width=".264583" x="68.096382" y="179.90204">(2, 0)</tspan></text><text font-family="sans-serif" font-size="4.233333" letter-spacing="0" stroke-width=".264583" word-spacing="0" x="88.096382" y="179.90204"><tspan stroke-width=".264583" x="88.096382" y="179.90204">(3, 0)</tspan></text><text font-family="sans-serif" font-size="4.233333" letter-spacing="0" stroke-width=".264583" word-spacing="0" x="28.09638" y="159.90204"><tspan stroke-width=".264583" x="28.09638" y="159.90204">(0, 1)</tspan></text><text font-family="sans-serif" font-size="4.233333" letter-spacing="0" stroke-width=".264583" word-spacing="0" x="48.096378" y="159.90204"><tspan stroke-width=".264583" x="48.096378" y="159.90204">(1, 1)</tspan></text><text font-family="sans-serif" font-size="4.233333" letter-spacing="0" stroke-width=".264583" word-spacing="0" x="68.096382" y="159.90204"><tspan stroke-width=".264583" x="68.096382" y="159.90204">(2, 1)</tspan></text><text font-family="sans-serif" font-size="4.233333" letter-spacing="0" stroke-width=".264583" word-spacing="0" x="88.096382" y="159.90204"><tspan stroke-width=".264583" x="88.096382" y="159.90204">(3, 1)</tspan></text><text font-family="sans-serif" font-size="4.233333" letter-spacing="0" stroke-width=".264583" word-spacing="0" x="28.09638" y="139.90204"><tspan stroke-width=".264583" x="28.09638" y="139.90204">(0, 2)</tspan></text><text font-family="sans-serif" font-size="4.233333" letter-spacing="0" stroke-width=".264583" word-spacing="0" x="48.096378" y="139.90204"><tspan stroke-width=".264583" x="48.096378" y="139.90204">(1, 2)</tspan></text><text font-family="sans-serif" font-size="4.233333" letter-spacing="0" stroke-width=".264583" word-spacing="0" x="68.096382" y="139.90204"><tspan stroke-width=".264583" x="68.096382" y="139.90204">(2, 2)</tspan></text><text font-family="sans-serif" font-size="4.233333" letter-spacing="0" stroke-width=".264583" word-spacing="0" x="88.096382" y="139.90204"><tspan stroke-width=".264583" x="88.096382" y="139.90204">(3, 2)</tspan></text><text font-family="sans-serif" font-size="4.233333" letter-spacing="0" stroke-width=".264583" word-spacing="0" x="28.09638" y="119.90203"><tspan stroke-width=".264583" x="28.09638" y="119.90203">(0, 3)</tspan></text><text font-family="sans-serif" font-size="4.233333" letter-spacing="0" stroke-width=".264583" word-spacing="0" x="48.096378" y="119.90203"><tspan stroke-width=".264583" x="48.096378" y="119.90203">(1, 3)</tspan></text><text font-family="sans-serif" font-size="4.233333" letter-spacing="0" stroke-width=".264583" word-spacing="0" x="68.096382" y="119.90203"><tspan stroke-width=".264583" x="68.096382" y="119.90203">(2, 3)</tspan></text><text font-family="sans-serif" font-size="4.233333" letter-spacing="0" stroke-width=".264583" word-spacing="0" x="88.096382" y="119.90203"><tspan stroke-width=".264583" x="88.096382" y="119.90203">(3, 3)</tspan></text></g></svg>