<svg height="113.67294mm" viewBox="0 0 126.14615 113.67294" width="126.14615mm" xmlns="http://www.w3.org/2000/svg" xmlns:xlink="http://www.w3.org/1999/xlink"><marker id="a" orient="auto" overflow="visible" refX="0" refY="0"><path d="m0 0 5-5-17.5 5 17.5 5z" fill-rule="evenodd" stroke="#000" stroke-width="1pt" transform="matrix(-.8 0 0 -.8 -10 0)"/></marker><marker id="b" orient="auto" overflow="visible" refX="0" refY="0"><path d="m0 0 5-5-17.5 5 17.5 5z" fill-rule="evenodd" stroke="#000" stroke-width="1pt" transform="matrix(-.8 0 0 -.8 -10 0)"/></marker><marker id="c" orient="auto" overflow="visible" refX="0" refY="0"><path d="m0 0 5-5-17.5 5 17.5 5z" fill-rule="evenodd" stroke="#000" stroke-width="1pt" transform="matrix(-.8 0 0 -.8 -10 0)"/></marker><g stroke="#000" transform="translate(-21.877072 -94.359213)"><path d="m22.678572 95.160713h124.54315v112.06995h-124.54315z" fill="none" stroke-linecap="round" stroke-width="1.603"/><g stroke-width=".264583"><path d="m22.678571 207.23065 25.655134-22.86756-.047249-65.53162-25.607885-23.670757z" fill="#f00"/><path d="m22.678571 207.23065 25.655133-22.86756 72.873026.11644 26.015 22.75112z" fill="#fca"/><path d="m48.286455 118.83147 72.519365-.50115.40091 66.14921-72.873026-.11644z" fill="#fca"/><path d="m120.80582 118.33032 26.4159-23.169607v112.069937l-26.01499-22.75112z" fill="#0f0"/><path d="m120.80582 118.33032-72.519365.50115-25.607884-23.670757h124.543149z" fill="#fca"/><path d="m64.54559 195.57121-14.165286-4.94448.400905-35.27958h13.630745z" fill="#c8b7b7"/><path d="m64.54559 195.57121-.133636-40.22406h13.229842l.53454 37.81864z" fill="#c8b7b7"/><path d="m89.53529 193.16579.267271-38.08591 12.428029.53454.53454 40.22406z" fill="#df5"/><path d="m118.4004 190.35946-15.63527 5.47902-.53454-40.22406 15.76891-.40091z" fill="#e5ff80"/><path d="m78.176336 107.5059 11.893494-.26727-.53454 3.0736h-10.557145z" fill="#fff"/></g><path d="m85.989582 108.76785 48.191968 39.30953-24.37947 24.56845" fill="none" marker-end="url(#c)" stroke-width=".265"/><path d="m81.765719 108.95388-45.480004 41.58035 20.599701 19.46577" fill="none" marker-end="url(#b)" stroke-width=".264583"/><path d="m84.440465 108.97589 56.166675 60.26815-18.52083 30.04911-11.52828-16.25297" fill="none" marker-end="url(#a)" stroke-width=".264583"/></g></svg>