<svg height="372pt" viewBox="0 0 776 372" width="776pt" xmlns="http://www.w3.org/2000/svg" xmlns:xlink="http://www.w3.org/1999/xlink"><clipPath id="a"><path d="m147.109375 307h26.890625v18h-26.890625zm0 0"/></clipPath><clipPath id="b"><path d="m147.109375 265h72.890625v18h-72.890625zm0 0"/></clipPath><clipPath id="c"><path d="m147.109375 224h86.890625v17h-86.890625zm0 0"/></clipPath><clipPath id="d"><path d="m147.109375 224h86.890625v18h-86.890625zm0 0"/></clipPath><clipPath id="e"><path d="m147.109375 182h107.890625v18h-107.890625zm0 0"/></clipPath><clipPath id="f"><path d="m147.109375 141h130.890625v17h-130.890625zm0 0"/></clipPath><clipPath id="g"><path d="m147.109375 140h130.890625v19h-130.890625zm0 0"/></clipPath><clipPath id="h"><path d="m147.109375 99h309.890625v18h-309.890625zm0 0"/></clipPath><clipPath id="i"><path d="m147.109375 58h374.890625v17h-374.890625zm0 0"/></clipPath><clipPath id="j"><path d="m147.109375 57h374.890625v18h-374.890625zm0 0"/></clipPath><clipPath id="k"><path d="m147.109375 16h500.890625v18h-500.890625zm0 0"/></clipPath><symbol id="l" overflow="visible"><path d="m6.359375-13.28125c-1.023437 0-1.789063.5-2.296875 1.5-.511719 1-.765625 2.5-.765625 4.5s.253906 3.5.765625 4.5c.507812 1 1.273438 1.5 2.296875 1.5 1.019531 0 1.785156-.5 2.296875-1.5.507812-1 .765625-2.5.765625-4.5s-.257813-3.5-.765625-4.5c-.511719-1-1.277344-1.5-2.296875-1.5zm0-1.5625c1.632813 0 2.878906.648438 3.734375 1.9375.863281 1.292969 1.296875 3.167969 1.296875 5.625 0 2.460938-.433594 4.335938-1.296875 5.625-.855469 1.292969-2.101562 1.9375-3.734375 1.9375-1.636719 0-2.886719-.644531-3.75-1.9375-.867187-1.289062-1.296875-3.164062-1.296875-5.625 0-2.457031.429688-4.332031 1.296875-5.625.863281-1.289062 2.113281-1.9375 3.75-1.9375zm0 0"/></symbol><symbol id="m" overflow="visible"><path d="m2.34375-2.484375h2.0625v1.6875l-1.609375 3.125h-1.25l.796875-3.125zm0 0"/></symbol><symbol id="n" overflow="visible"><path d="m2.15625-14.578125h7.75v1.65625h-5.9375v3.578125c.28125-.101562.5625-.175781.84375-.21875.289062-.050781.582031-.078125.875-.078125 1.625 0 2.910156.449219 3.859375 1.34375.957031.886719 1.4375 2.09375 1.4375 3.625 0 1.5625-.492187 2.78125-1.46875 3.65625-.980469.867187-2.359375 1.296875-4.140625 1.296875-.605469 0-1.226562-.054688-1.859375-.15625-.636719-.1054688-1.292969-.257812-1.96875-.46875v-1.984375c.582031.324219 1.1875.5625 1.8125.71875s1.285156.234375 1.984375.234375c1.125 0 2.015625-.296875 2.671875-.890625s.984375-1.394531.984375-2.40625c0-1.019531-.328125-1.828125-.984375-2.421875s-1.546875-.890625-2.671875-.890625c-.53125 0-1.058594.0625-1.578125.1875-.523437.117187-1.058594.296875-1.609375.546875zm0 0"/></symbol><symbol id="o" overflow="visible"/><symbol id="p" overflow="visible"><path d="m1.8125-15.203125h1.8125v8.984375l5.359375-4.71875h2.296875l-5.796875 5.109375 6.046875 5.828125h-2.34375l-5.5625-5.34375v5.34375h-1.8125zm0 0"/></symbol><symbol id="q" overflow="visible"><path d="m2.484375-1.65625h3.21875v-11.125l-3.5.703125v-1.796875l3.484375-.703125h1.96875v12.921875h3.21875v1.65625h-8.390625zm0 0"/></symbol><symbol id="r" overflow="visible"><path d="m1.96875-14.578125h2.9375l3.71875 9.921875 3.734375-9.921875h2.9375v14.578125h-1.921875v-12.796875l-3.75 10h-1.984375l-3.765625-10v12.796875h-1.90625zm0 0"/></symbol><symbol id="s" overflow="visible"><path d="m3.84375-1.65625h6.875v1.65625h-9.25v-1.65625c.75-.78125 1.769531-1.820312 3.0625-3.125 1.289062-1.300781 2.101562-2.144531 2.4375-2.53125.625-.707031 1.0625-1.304688 1.3125-1.796875.25-.488281.375-.972656.375-1.453125 0-.769531-.273438-1.398438-.8125-1.890625-.542969-.488281-1.25-.734375-2.125-.734375-.617188 0-1.265625.109375-1.953125.328125-.6875.210937-1.421875.53125-2.203125.96875v-1.984375c.789062-.320312 1.53125-.5625 2.21875-.71875.695312-.164062 1.332031-.25 1.90625-.25 1.507812 0 2.710938.382812 3.609375 1.140625.894531.75 1.34375 1.757813 1.34375 3.015625 0 .605469-.117187 1.179688-.34375 1.71875-.21875.53125-.625 1.164062-1.21875 1.890625-.15625.1875-.671875.734375-1.546875 1.640625-.875.898438-2.105469 2.15625-3.6875 3.78125zm0 0"/></symbol><symbol id="t" overflow="visible"><path d="m.671875-14.578125h1.984375l3.0625 12.328125 3.0625-12.328125h2.21875l3.0625 12.328125 3.0625-12.328125h2l-3.671875 14.578125h-2.46875l-3.078125-12.65625-3.109375 12.65625h-2.484375zm0 0"/></symbol><symbol id="u" overflow="visible"><path d="m11.234375-5.921875v.875h-8.25c.070313 1.242187.441406 2.1875 1.109375 2.84375.664062.648437 1.597656.96875 2.796875.96875.6875 0 1.351563-.082031 2-.25.644531-.175781 1.289063-.429687 1.9375-.765625v1.6875c-.648437.28125-1.308594.4921875-1.984375.625-.679688.144531-1.367188.21875-2.0625.21875-1.75 0-3.136719-.503906-4.15625-1.515625-1.011719-1.019531-1.515625-2.394531-1.515625-4.125 0-1.789063.476563-3.210937 1.4375-4.265625.96875-1.050781 2.273437-1.578125 3.921875-1.578125 1.46875 0 2.628906.476563 3.484375 1.421875.851563.949219 1.28125 2.234375 1.28125 3.859375zm-1.796875-.53125c-.011719-.976563-.289062-1.757813-.828125-2.34375-.53125-.582031-1.242187-.875-2.125-.875-1 0-1.804687.28125-2.40625.84375-.605469.5625-.953125 1.359375-1.046875 2.390625zm0 0"/></symbol><symbol id="v" overflow="visible"><path d="m9.734375-5.453125c0-1.320313-.273437-2.359375-.8125-3.109375-.542969-.757812-1.289063-1.140625-2.234375-1.140625-.960938 0-1.710938.382813-2.25 1.140625-.542969.75-.8125 1.789062-.8125 3.109375 0 1.3125.269531 2.351563.8125 3.109375.539062.75 1.289062 1.125 2.25 1.125.945312 0 1.691406-.375 2.234375-1.125.539063-.757812.8125-1.796875.8125-3.109375zm-6.109375-3.828125c.375-.644531.847656-1.125 1.421875-1.4375.582031-.320312 1.273437-.484375 2.078125-.484375 1.320312 0 2.398438.53125 3.234375 1.59375.832031 1.054687 1.25 2.4375 1.25 4.15625s-.417969 3.105469-1.25 4.15625c-.835937 1.054687-1.914063 1.578125-3.234375 1.578125-.804688 0-1.496094-.15625-2.078125-.46875-.574219-.320312-1.046875-.804688-1.421875-1.453125v1.640625h-1.8125v-15.203125h1.8125zm0 0"/></symbol><symbol id="w" overflow="visible"><path d="m3.9375-12.953125v5.46875h2.484375c.914063 0 1.625-.234375 2.125-.703125.5-.476562.75-1.15625.75-2.03125s-.25-1.546875-.75-2.015625c-.5-.476563-1.210937-.71875-2.125-.71875zm-1.96875-1.625h4.453125c1.632813 0 2.867187.371094 3.703125 1.109375.832031.742188 1.25 1.824219 1.25 3.25 0 1.4375-.417969 2.527344-1.25 3.265625-.835938.730469-2.070312 1.09375-3.703125 1.09375h-2.484375v5.859375h-1.96875zm0 0"/></symbol><symbol id="x" overflow="visible"><path d="m1.96875-14.578125h1.96875v13.5625c0 1.757813-.335938 3.035156-1 3.828125-.667969.789062-1.742188 1.1875-3.21875 1.1875h-.75v-1.65625h.609375c.875 0 1.488281-.246094 1.84375-.734375.363281-.492187.546875-1.367187.546875-2.625zm0 0"/></symbol><symbol id="y" overflow="visible"><path d="m1.96875-14.578125h9.21875v1.65625h-7.25v4.3125h6.9375v1.671875h-6.9375v5.28125h7.421875v1.65625h-9.390625zm0 0"/></symbol><symbol id="z" overflow="visible"><path d="m11.90625-2.078125v-3.921875h-3.21875v-1.625h5.171875v6.265625c-.761719.542969-1.601563.953125-2.515625 1.234375-.917969.269531-1.898438.40625-2.9375.40625-2.28125 0-4.070312-.664062-5.359375-2-1.28125-1.332031-1.921875-3.1875-1.921875-5.5625s.640625-4.226562 1.921875-5.5625c1.289063-1.332031 3.078125-2 5.359375-2 .945312 0 1.847656.121094 2.703125.359375.851563.230469 1.644531.574219 2.375 1.03125v2.09375c-.730469-.613281-1.507813-1.078125-2.328125-1.390625-.824219-.3125-1.6875-.46875-2.59375-.46875-1.78125 0-3.121094.5-4.015625 1.5-.898437.992188-1.34375 2.46875-1.34375 4.4375s.445313 3.453125 1.34375 4.453125c.894531.992187 2.234375 1.484375 4.015625 1.484375.695312 0 1.316406-.054688 1.859375-.171875.550781-.125 1.046875-.3125 1.484375-.5625zm0 0"/></symbol><symbol id="A" overflow="visible"><path d="m-.0625-14.578125h12.34375v1.65625h-5.1875v12.921875h-1.96875v-12.921875h-5.1875zm0 0"/></symbol><symbol id="B" overflow="visible"><path d="m1.96875-14.578125h1.96875v14.578125h-1.96875zm0 0"/></symbol><symbol id="C" overflow="visible"><path d="m1.96875-14.578125h8.375v1.65625h-6.40625v4.296875h5.78125v1.65625h-5.78125v6.96875h-1.96875zm0 0"/></symbol><symbol id="D" overflow="visible"><path d="m6.203125-15.171875c-.875 1.492187-1.527344 2.96875-1.953125 4.4375-.417969 1.46875-.625 2.953125-.625 4.453125s.210938 2.992188.640625 4.46875c.425781 1.480469 1.070313 2.960938 1.9375 4.453125h-1.5625c-.980469-1.53125-1.714844-3.035156-2.203125-4.515625-.480469-1.476562-.71875-2.945312-.71875-4.40625 0-1.445312.238281-2.90625.71875-4.375.488281-1.476562 1.222656-2.984375 2.203125-4.515625zm0 0"/></symbol><symbol id="E" overflow="visible"><path d="m1.609375-15.171875h1.5625c.96875 1.53125 1.691406 3.039063 2.171875 4.515625.488281 1.46875.734375 2.929688.734375 4.375 0 1.460938-.246094 2.929688-.734375 4.40625-.480469 1.480469-1.203125 2.984375-2.171875 4.515625h-1.5625c.863281-1.492187 1.507813-2.972656 1.9375-4.453125.425781-1.476562.640625-2.96875.640625-4.46875s-.214844-2.984375-.640625-4.453125c-.429687-1.46875-1.074219-2.945313-1.9375-4.4375zm0 0"/></symbol><symbol id="F" overflow="visible"><path d="m1.96875-14.578125h2.65625l6.453125 12.1875v-12.1875h1.921875v14.578125h-2.65625l-6.46875-12.203125v12.203125h-1.90625zm0 0"/></symbol><symbol id="G" overflow="visible"><path d="m3.625-1.640625v5.796875h-1.8125v-15.09375h1.8125v1.65625c.375-.644531.847656-1.125 1.421875-1.4375.582031-.320312 1.273437-.484375 2.078125-.484375 1.320312 0 2.398438.53125 3.234375 1.59375.832031 1.054687 1.25 2.4375 1.25 4.15625s-.417969 3.105469-1.25 4.15625c-.835937 1.054687-1.914063 1.578125-3.234375 1.578125-.804688 0-1.496094-.15625-2.078125-.46875-.574219-.320312-1.046875-.804688-1.421875-1.453125zm6.109375-3.8125c0-1.320313-.273437-2.359375-.8125-3.109375-.542969-.757812-1.289063-1.140625-2.234375-1.140625-.960938 0-1.710938.382813-2.25 1.140625-.542969.75-.8125 1.789062-.8125 3.109375 0 1.3125.269531 2.351563.8125 3.109375.539062.75 1.289062 1.125 2.25 1.125.945312 0 1.691406-.375 2.234375-1.125.539063-.757812.8125-1.796875.8125-3.109375zm0 0"/></symbol><symbol id="H" overflow="visible"><path d="m6.859375-5.5c-1.460937 0-2.46875.167969-3.03125.5-.554687.335938-.828125.902344-.828125 1.703125 0 .636719.207031 1.140625.625 1.515625.425781.375 1 .5625 1.71875.5625 1 0 1.796875-.351562 2.390625-1.0625.601563-.707031.90625-1.644531.90625-2.8125v-.40625zm3.578125-.734375v6.234375h-1.796875v-1.65625c-.40625.65625-.917969 1.148438-1.53125 1.46875-.617187.3125-1.367187.46875-2.25.46875-1.117187 0-2.007813-.3125-2.671875-.9375-.65625-.632812-.984375-1.476562-.984375-2.53125 0-1.226562.410156-2.15625 1.234375-2.78125.820312-.625 2.050781-.9375 3.6875-.9375h2.515625v-.171875c0-.832031-.273437-1.472656-.8125-1.921875-.542969-.445312-1.308594-.671875-2.296875-.671875-.625 0-1.234375.074219-1.828125.21875-.585937.148437-1.152344.371094-1.703125.671875v-1.65625c.65625-.257812 1.289062-.453125 1.90625-.578125.625-.125 1.226562-.1875 1.8125-.1875 1.582031 0 2.765625.414063 3.546875 1.234375.78125.824219 1.171875 2.070312 1.171875 3.734375zm0 0"/></symbol><symbol id="I" overflow="visible"><path d="m1.890625-15.203125h1.796875v15.203125h-1.796875zm0 0"/></symbol><symbol id="J" overflow="visible"><path d="m3.65625-14.046875v3.109375h3.703125v1.390625h-3.703125v5.9375c0 .898437.117188 1.476563.359375 1.734375.25.25.75.375 1.5.375h1.84375v1.5h-1.84375c-1.386719 0-2.34375-.253906-2.875-.765625-.523437-.519531-.78125-1.46875-.78125-2.84375v-5.9375h-1.328125v-1.390625h1.328125v-3.109375zm0 0"/></symbol><symbol id="K" overflow="visible"><path d="m7.5625-12.859375-4.984375 7.78125h4.984375zm-.515625-1.71875h2.46875v9.5h2.09375v1.640625h-2.09375v3.4375h-1.953125v-3.4375h-6.578125v-1.90625zm0 0"/></symbol><symbol id="L" overflow="visible"><path d="m1.890625-10.9375h1.796875v10.9375h-1.796875zm0-4.265625h1.796875v2.28125h-1.796875zm0 0"/></symbol><symbol id="M" overflow="visible"><path d="m1.96875-14.578125h1.96875v12.921875h7.09375v1.65625h-9.0625zm0 0"/></symbol><symbol id="N" overflow="visible"><path d="m1.125-14.578125h11.453125v1.5l-9.21875 11.421875h9.4375v1.65625h-11.890625v-1.5l9.21875-11.421875h-9zm0 0"/></symbol><symbol id="O" overflow="visible"><path d="m3.9375-6.96875v5.34375h3.15625c1.0625 0 1.847656-.21875 2.359375-.65625.507813-.4375.765625-1.109375.765625-2.015625 0-.914063-.257812-1.585937-.765625-2.015625-.511719-.4375-1.296875-.65625-2.359375-.65625zm0-5.984375v4.390625h2.921875c.957031 0 1.671875-.179688 2.140625-.546875.476562-.363281.71875-.914063.71875-1.65625 0-.726563-.242188-1.273437-.71875-1.640625-.46875-.363281-1.183594-.546875-2.140625-.546875zm-1.96875-1.625h5.03125c1.507812 0 2.671875.3125 3.484375.9375s1.21875 1.511719 1.21875 2.65625c0 .898437-.210937 1.609375-.625 2.140625-.417969.523438-1.03125.851562-1.84375.984375.96875.210937 1.722656.648437 2.265625 1.3125.539062.65625.8125 1.480469.8125 2.46875 0 1.304687-.445312 2.308594-1.328125 3.015625-.886719.710938-2.148437 1.0625-3.78125 1.0625h-5.234375zm0 0"/></symbol><path d="m.25.25h775.5v371.5h-775.5zm0 0" style="fill:#fff;stroke-width:.5;stroke-linecap:round;stroke-linejoin:round;stroke:#000;stroke-miterlimit:10"/><path d="m147.109375 4.042969h597.097656v332.566406h-597.097656zm0 0" fill="#d0d0d0" stroke="#848284" stroke-linecap="round" stroke-linejoin="round" stroke-miterlimit="10"/><g clip-path="url(#a)"><path d="m147.109375 324.136719h25.917969v-16.628907h-25.917969zm0 0" style="fill:#9c9cff;stroke-width:.5;stroke-linecap:round;stroke-linejoin:round;stroke:#000;stroke-miterlimit:10"/></g><g clip-path="url(#b)"><path d="m147.109375 282.566406h71.96875v-16.628906h-71.96875zm0 0" style="fill:#9c9cff;stroke-width:.5;stroke-linecap:round;stroke-linejoin:round;stroke:#000;stroke-miterlimit:10"/></g><g clip-path="url(#c)"><path d="m147.109375 240.996094h86.128906v-16.628906h-86.128906zm0 0" fill="#9c9cff"/></g><g clip-path="url(#d)"><path d="m147.109375 240.996094h86.128906v-16.628906h-86.128906zm0 0" style="fill:none;stroke-width:.5;stroke-linecap:round;stroke-linejoin:round;stroke:#000;stroke-miterlimit:10"/></g><g clip-path="url(#e)"><path d="m147.109375 199.425781h107.089844v-16.628906h-107.089844zm0 0" style="fill:#9c9cff;stroke-width:.5;stroke-linecap:round;stroke-linejoin:round;stroke:#000;stroke-miterlimit:10"/></g><g clip-path="url(#f)"><path d="m147.109375 157.855469h129.898437v-16.628907h-129.898437zm0 0" fill="#9c9cff"/></g><g clip-path="url(#g)"><path d="m147.109375 157.855469h129.898437v-16.628907h-129.898437zm0 0" style="fill:none;stroke-width:.5;stroke-linecap:round;stroke-linejoin:round;stroke:#000;stroke-miterlimit:10"/></g><g clip-path="url(#h)"><path d="m147.109375 116.285156h309.457031v-16.628906h-309.457031zm0 0" style="fill:#9c9cff;stroke-width:.5;stroke-linecap:round;stroke-linejoin:round;stroke:#000;stroke-miterlimit:10"/></g><g clip-path="url(#i)"><path d="m147.109375 74.714844h374.03125v-16.628906h-374.03125zm0 0" fill="#9c9cff"/></g><g clip-path="url(#j)"><path d="m147.109375 74.714844h374.03125v-16.628906h-374.03125zm0 0" style="fill:none;stroke-width:.5;stroke-linecap:round;stroke-linejoin:round;stroke:#000;stroke-miterlimit:10"/></g><g clip-path="url(#k)"><path d="m147.109375 33.144531h500.425781v-16.628906h-500.425781zm0 0" style="fill:#9c9cff;stroke-width:.5;stroke-linecap:round;stroke-linejoin:round;stroke:#000;stroke-miterlimit:10"/></g><path d="m147.109375 336.609375h597.097656m-597.097656 4.25v-4.25m119.421875 4.25v-4.25m119.417969 4.25v-4.25m119.417969 4.25v-4.25m119.421874 4.25v-4.25m119.417969 4.25v-4.25" style="fill:none;stroke-width:.5;stroke-linecap:round;stroke-linejoin:round;stroke:#000;stroke-miterlimit:10"/><g><use x="130.859375" xlink:href="#l" y="362.990234"/><use x="143.859375" xlink:href="#m" y="362.990234"/><use x="149.859375" xlink:href="#l" y="362.990234"/></g><g><use x="228.28125" xlink:href="#n" y="362.990234"/><use x="241.28125" xlink:href="#l" y="362.990234"/><use x="254.28125" xlink:href="#l" y="362.990234"/><use x="267.28125" xlink:href="#m" y="362.990234"/><use x="273.28125" xlink:href="#l" y="362.990234"/><use x="286.28125" xlink:href="#o" y="362.990234"/><use x="292.28125" xlink:href="#p" y="362.990234"/></g><g><use x="358.199219" xlink:href="#q" y="362.990234"/><use x="371.199219" xlink:href="#m" y="362.990234"/><use x="377.199219" xlink:href="#l" y="362.990234"/><use x="390.199219" xlink:href="#o" y="362.990234"/><use x="396.199219" xlink:href="#r" y="362.990234"/></g><g><use x="477.617188" xlink:href="#q" y="362.990234"/><use x="490.617188" xlink:href="#m" y="362.990234"/><use x="496.617188" xlink:href="#n" y="362.990234"/><use x="509.617188" xlink:href="#o" y="362.990234"/><use x="515.617188" xlink:href="#r" y="362.990234"/></g><g><use x="597.039062" xlink:href="#s" y="362.990234"/><use x="610.039062" xlink:href="#m" y="362.990234"/><use x="616.039062" xlink:href="#l" y="362.990234"/><use x="629.039062" xlink:href="#o" y="362.990234"/><use x="635.039062" xlink:href="#r" y="362.990234"/></g><g><use x="716.457031" xlink:href="#s" y="362.990234"/><use x="729.457031" xlink:href="#m" y="362.990234"/><use x="735.457031" xlink:href="#n" y="362.990234"/><use x="748.457031" xlink:href="#o" y="362.990234"/><use x="754.457031" xlink:href="#r" y="362.990234"/></g><path d="m147.109375 336.609375v-332.566406m-4.25 332.566406h4.25m-4.25-41.570313h4.25m-4.25-41.570312h4.25m-4.25-41.574219h4.25m-4.25-41.570312h4.25m-4.25-41.570313h4.25m-4.25-41.570312h4.25m-4.25-41.570313h4.25m-4.25-41.570312h4.25" style="fill:none;stroke-width:.5;stroke-linecap:round;stroke-linejoin:round;stroke:#000;stroke-miterlimit:10"/><g><use x="82.792969" xlink:href="#t" y="322.498047"/><use x="101.792969" xlink:href="#u" y="322.498047"/><use x="113.792969" xlink:href="#v" y="322.498047"/><use x="126.792969" xlink:href="#w" y="322.498047"/></g><g><use x="92.792969" xlink:href="#x" y="280.927734"/><use x="98.792969" xlink:href="#w" y="280.927734"/><use x="110.792969" xlink:href="#y" y="280.927734"/><use x="123.792969" xlink:href="#z" y="280.927734"/></g><g><use x="28.792969" xlink:href="#A" y="239.357422"/><use x="40.792969" xlink:href="#B" y="239.357422"/><use x="46.792969" xlink:href="#C" y="239.357422"/><use x="58.792969" xlink:href="#C" y="239.357422"/><use x="70.792969" xlink:href="#o" y="239.357422"/><use x="76.792969" xlink:href="#D" y="239.357422"/><use x="84.792969" xlink:href="#x" y="239.357422"/><use x="90.792969" xlink:href="#w" y="239.357422"/><use x="102.792969" xlink:href="#y" y="239.357422"/><use x="115.792969" xlink:href="#z" y="239.357422"/><use x="130.792969" xlink:href="#E" y="239.357422"/></g><g><use x="3.792969" xlink:href="#w" y="197.783203"/><use x="15.792969" xlink:href="#F" y="197.783203"/><use x="30.792969" xlink:href="#z" y="197.783203"/><use x="45.792969" xlink:href="#o" y="197.783203"/><use x="51.792969" xlink:href="#D" y="197.783203"/><use x="59.792969" xlink:href="#G" y="197.783203"/><use x="72.792969" xlink:href="#H" y="197.783203"/><use x="84.792969" xlink:href="#I" y="197.783203"/><use x="90.792969" xlink:href="#u" y="197.783203"/><use x="102.792969" xlink:href="#J" y="197.783203"/><use x="110.792969" xlink:href="#J" y="197.783203"/><use x="118.792969" xlink:href="#u" y="197.783203"/><use x="130.792969" xlink:href="#E" y="197.783203"/></g><g><use x="105.792969" xlink:href="#z" y="156.212891"/><use x="120.792969" xlink:href="#B" y="156.212891"/><use x="126.792969" xlink:href="#C" y="156.212891"/></g><g><use x="15.792969" xlink:href="#w" y="114.642578"/><use x="27.792969" xlink:href="#F" y="114.642578"/><use x="42.792969" xlink:href="#z" y="114.642578"/><use x="57.792969" xlink:href="#o" y="114.642578"/><use x="63.792969" xlink:href="#D" y="114.642578"/><use x="71.792969" xlink:href="#s" y="114.642578"/><use x="84.792969" xlink:href="#K" y="114.642578"/><use x="97.792969" xlink:href="#o" y="114.642578"/><use x="103.792969" xlink:href="#v" y="114.642578"/><use x="116.792969" xlink:href="#L" y="114.642578"/><use x="122.792969" xlink:href="#J" y="114.642578"/><use x="130.792969" xlink:href="#E" y="114.642578"/></g><g><use x="29.792969" xlink:href="#A" y="73.072266"/><use x="41.792969" xlink:href="#B" y="73.072266"/><use x="47.792969" xlink:href="#C" y="73.072266"/><use x="59.792969" xlink:href="#C" y="73.072266"/><use x="71.792969" xlink:href="#o" y="73.072266"/><use x="77.792969" xlink:href="#D" y="73.072266"/><use x="85.792969" xlink:href="#M" y="73.072266"/><use x="96.792969" xlink:href="#N" y="73.072266"/><use x="110.792969" xlink:href="#t" y="73.072266"/><use x="130.792969" xlink:href="#E" y="73.072266"/></g><g><use x="95.792969" xlink:href="#O" y="31.501953"/><use x="109.792969" xlink:href="#r" y="31.501953"/><use x="126.792969" xlink:href="#w" y="31.501953"/></g></svg>