<svg height="71.140663mm" viewBox="0 0 169.9071 71.140663" width="169.9071mm" xmlns="http://www.w3.org/2000/svg" xmlns:xlink="http://www.w3.org/1999/xlink"><marker id="a" orient="auto" overflow="visible" refX="0" refY="0"><path d="m0 0 5-5-17.5 5 17.5 5z" fill-rule="evenodd" stroke="#000" stroke-width="1pt" transform="matrix(.8 0 0 .8 10 0)"/></marker><marker id="b" orient="auto" overflow="visible" refX="0" refY="0"><path d="m0 0 5-5-17.5 5 17.5 5z" fill-rule="evenodd" stroke="#000" stroke-width="1pt" transform="matrix(.8 0 0 .8 10 0)"/></marker><marker id="c" orient="auto" overflow="visible" refX="0" refY="0"><path d="m0 0 5-5-17.5 5 17.5 5z" fill-rule="evenodd" stroke="#000" stroke-width="1pt" transform="matrix(-.8 0 0 -.8 -10 0)"/></marker><marker id="d" orient="auto" overflow="visible" refX="0" refY="0"><path d="m0 0 5-5-17.5 5 17.5 5z" fill-rule="evenodd" stroke="#000" stroke-width="1pt" transform="matrix(-.8 0 0 -.8 -10 0)"/></marker><marker id="e" orient="auto" overflow="visible" refX="0" refY="0"><path d="m0 0 5-5-17.5 5 17.5 5z" fill-rule="evenodd" stroke="#000" stroke-width="1pt" transform="matrix(-.8 0 0 -.8 -10 0)"/></marker><marker id="f" orient="auto" overflow="visible" refX="0" refY="0"><path d="m0 0 5-5-17.5 5 17.5 5z" fill-rule="evenodd" stroke="#000" stroke-width="1pt" transform="matrix(-.8 0 0 -.8 -10 0)"/></marker><g transform="translate(-24.430384 -123.44347)"><g stroke="#000"><path d="m60.282757 159.53036-34.680884 34.3036 129.759357.26727 37.81863-37.685-30.51088-.26727" fill="none" stroke-width=".965"/><path d="m57.195973 177.30321a54.923889 53.053001 0 0 1 27.49558-46.13776 54.923889 53.053001 0 0 1 55.113147.14406 54.923889 53.053001 0 0 1 27.23669 46.28081" fill="none" stroke-linecap="round" stroke-width="1.265"/><ellipse cx="112.13201" cy="177.78766" fill="none" rx="54.87397" ry="8.031994" stroke-linecap="round" stroke-width="1.165"/><ellipse cx="112.18638" cy="176.99597" rx="1.804069" ry="1.603617" stroke-linecap="round" stroke-width=".565"/><path d="m112.11956 177.12962-51.850282-15.368" fill="none" marker-end="url(#d)" stroke-width=".265"/><path d="m144.32554 135.03466-32.20598 42.09496-37.568066-37.6349" fill="none" marker-end="url(#f)" marker-start="url(#a)" stroke-width=".265"/><path d="m95.281585 126.61568 16.837975 50.51394 8.95354-52.11756" fill="none" marker-end="url(#c)" marker-start="url(#b)" stroke-linejoin="round" stroke-width=".265"/><path d="m112.11956 177.12962 53.05301-11.09169" fill="none" marker-end="url(#e)" stroke-width=".265"/></g><text font-family="sans-serif" font-size="6.35" letter-spacing="0" stroke-width=".264583" word-spacing="0" x="113.58184" y="183.60715"><tspan font-style="italic" font-weight="bold" stroke-width=".264583" x="113.58184" y="183.60715">x</tspan></text><text font-family="sans-serif" font-size="6.35" letter-spacing="0" stroke-width=".264583" word-spacing="0" x="37.797619" y="189.46577"><tspan stroke-width=".264583" x="37.797619" y="189.46577">d<tspan font-style="italic">A</tspan></tspan></text></g></svg>