<svg height="110.32791mm" viewBox="0 0 162.33882 110.32791" width="162.33882mm" xmlns="http://www.w3.org/2000/svg" xmlns:xlink="http://www.w3.org/1999/xlink"><marker id="a" orient="auto" overflow="visible" refX="0" refY="0"><path d="m0 0 5-5-17.5 5 17.5 5z" fill-rule="evenodd" stroke="#000" stroke-width="1pt" transform="matrix(-.4 0 0 -.4 -4 0)"/></marker><marker id="b" orient="auto" overflow="visible" refX="0" refY="0"><path d="m0 0 5-5-17.5 5 17.5 5z" fill-rule="evenodd" stroke="#000" stroke-width="1pt" transform="matrix(-.4 0 0 -.4 -4 0)"/></marker><marker id="c" orient="auto" overflow="visible" refX="0" refY="0"><path d="m0 0 5-5-17.5 5 17.5 5z" fill-rule="evenodd" stroke="#000" stroke-width="1pt" transform="matrix(-.4 0 0 -.4 -4 0)"/></marker><marker id="d" orient="auto" overflow="visible" refX="0" refY="0"><path d="m0 0 5-5-17.5 5 17.5 5z" fill-rule="evenodd" stroke="#000" stroke-width="1pt" transform="matrix(-.4 0 0 -.4 -4 0)"/></marker><marker id="e" orient="auto" overflow="visible" refX="0" refY="0"><path d="m0 0 5-5-17.5 5 17.5 5z" fill-rule="evenodd" stroke="#000" stroke-width="1pt" transform="matrix(-.4 0 0 -.4 -4 0)"/></marker><marker id="f" orient="auto" overflow="visible" refX="0" refY="0"><path d="m0 0 5-5-17.5 5 17.5 5z" fill-rule="evenodd" stroke="#000" stroke-width="1pt" transform="matrix(-.4 0 0 -.4 -4 0)"/></marker><marker id="g" orient="auto" overflow="visible" refX="0" refY="0"><path d="m0 0 5-5-17.5 5 17.5 5z" fill-rule="evenodd" stroke="#000" stroke-width="1pt" transform="matrix(-.4 0 0 -.4 -4 0)"/></marker><marker id="h" orient="auto" overflow="visible" refX="0" refY="0"><path d="m0 0 5-5-17.5 5 17.5 5z" fill-rule="evenodd" stroke="#000" stroke-width="1pt" transform="matrix(-.4 0 0 -.4 -4 0)"/></marker><marker id="i" orient="auto" overflow="visible" refX="0" refY="0"><path d="m0 0 5-5-17.5 5 17.5 5z" fill-rule="evenodd" stroke="#000" stroke-width="1pt" transform="matrix(-.4 0 0 -.4 -4 0)"/></marker><marker id="j" orient="auto" overflow="visible" refX="0" refY="0"><path d="m0 0 5-5-17.5 5 17.5 5z" fill-rule="evenodd" stroke="#000" stroke-width="1pt" transform="matrix(-.4 0 0 -.4 -4 0)"/></marker><marker id="k" orient="auto" overflow="visible" refX="0" refY="0"><path d="m0 0 5-5-17.5 5 17.5 5z" fill-rule="evenodd" stroke="#000" stroke-width="1pt" transform="matrix(-.4 0 0 -.4 -4 0)"/></marker><marker id="l" orient="auto" overflow="visible" refX="0" refY="0"><path d="m0 0 5-5-17.5 5 17.5 5z" fill-rule="evenodd" stroke="#000" stroke-width="1pt" transform="matrix(-.4 0 0 -.4 -4 0)"/></marker><marker id="m" orient="auto" overflow="visible" refX="0" refY="0"><path d="m0 0 5-5-17.5 5 17.5 5z" fill-rule="evenodd" stroke="#000" stroke-width="1pt" transform="matrix(-.4 0 0 -.4 -4 0)"/></marker><marker id="n" orient="auto" overflow="visible" refX="0" refY="0"><path d="m0 0 5-5-17.5 5 17.5 5z" fill-rule="evenodd" stroke="#000" stroke-width="1pt" transform="matrix(-.4 0 0 -.4 -4 0)"/></marker><marker id="o" orient="auto" overflow="visible" refX="0" refY="0"><path d="m0 0 5-5-17.5 5 17.5 5z" fill-rule="evenodd" stroke="#000" stroke-width="1pt" transform="matrix(-.4 0 0 -.4 -4 0)"/></marker><marker id="p" orient="auto" overflow="visible" refX="0" refY="0"><path d="m0 0 5-5-17.5 5 17.5 5z" fill-rule="evenodd" stroke="#000" stroke-width="1pt" transform="matrix(-.4 0 0 -.4 -4 0)"/></marker><marker id="q" orient="auto" overflow="visible" refX="0" refY="0"><path d="m0 0 5-5-17.5 5 17.5 5z" fill-rule="evenodd" stroke="#000" stroke-width="1pt" transform="matrix(-.4 0 0 -.4 -4 0)"/></marker><marker id="r" orient="auto" overflow="visible" refX="0" refY="0"><path d="m0 0 5-5-17.5 5 17.5 5z" fill-rule="evenodd" stroke="#000" stroke-width="1pt" transform="matrix(-.4 0 0 -.4 -4 0)"/></marker><marker id="s" orient="auto" overflow="visible" refX="0" refY="0"><path d="m0 0 5-5-17.5 5 17.5 5z" fill-rule="evenodd" stroke="#000" stroke-width="1pt" transform="matrix(-.4 0 0 -.4 -4 0)"/></marker><marker id="t" orient="auto" overflow="visible" refX="0" refY="0"><path d="m0 0 5-5-17.5 5 17.5 5z" fill-rule="evenodd" stroke="#000" stroke-width="1pt" transform="matrix(-.4 0 0 -.4 -4 0)"/></marker><g transform="translate(-20.128215 -109.09149)"><path d="m122.56763 202.24076-39.045904-6.53591 24.999894-36.8894z" fill="#aad400" stroke="#000" stroke-width=".264583"/><path d="m117.46495 150.26903-33.943224 45.43582 22.543044-71.47422z" fill="#efa" stroke="#000" stroke-width=".264583"/><path d="m20.410715 195.70238h161.77382v23.434523h-161.77382z" fill="#c87137" stroke="#fff" stroke-linecap="round" stroke-width=".565"/><path d="m20.410715 195.70238h161.773825" fill="none" stroke="#000" stroke-width=".565"/><path d="m116.41299 155.15168a21.515198 21.515198 0 0 1 29.14767 8.5776 21.515198 21.515198 0 0 1 -8.49428 29.17206 21.515198 21.515198 0 0 1 -29.19621-8.41089 21.515198 21.515198 0 0 1 8.32742-29.22013" fill="#c87137" stroke="#000" stroke-linecap="round" stroke-width=".565"/><path d="m116.41299 111.98764a21.515198 21.515198 0 0 1 29.14767 8.5776 21.515198 21.515198 0 0 1 -8.49428 29.17207 21.515198 21.515198 0 0 1 -29.19621-8.41089 21.515198 21.515198 0 0 1 8.32742-29.22013" fill="#e5ff80" stroke="#000" stroke-linecap="round" stroke-width=".565"/><g stroke-width=".264583"><path d="m83.521711 195.70483-21.864332-2.83725" fill="none" marker-end="url(#t)" stroke="#000"/><path d="m83.512134 195.70131-21.03948-6.59085" fill="none" marker-end="url(#s)" stroke="#000"/><path d="m83.503314 195.69618-19.575354-10.14419" fill="none" marker-end="url(#r)" stroke="#000"/><path d="m83.495519 195.68959-17.51644-13.3893" fill="none" marker-end="url(#q)" stroke="#000"/><path d="m83.488987 195.68175-14.925299-16.22759" fill="none" marker-end="url(#p)" stroke="#000"/><path d="m83.483915 195.67289-11.880658-18.5728" fill="none" marker-end="url(#o)" stroke="#000"/><path d="m83.480459 195.66329-8.475031-20.35369" fill="none" marker-end="url(#n)" stroke="#000"/><path d="m83.478723 195.65323-4.811895-21.51614" fill="none" marker-end="url(#m)" stroke="#000"/><path d="m83.47876 195.64302-1.002553-22.02483" fill="none" marker-end="url(#l)" stroke="#000"/><path d="m83.480569 195.63298 2.83725-21.86432" fill="none" marker-end="url(#k)" stroke="#000"/><path d="m83.484094 195.6234 6.590845-21.03947" fill="none" marker-end="url(#j)" stroke="#000"/><path d="m83.489229 195.61458 10.144181-19.57534" fill="none" marker-end="url(#i)" stroke="#000"/><path d="m83.495818 195.60679 13.38929-17.51643" fill="none" marker-end="url(#h)" stroke="#000"/><path d="m83.503659 195.60026 16.227573-14.92529" fill="none" marker-end="url(#g)" stroke="#000"/><path d="m83.512515 195.59519 18.572785-11.88065" fill="none" marker-end="url(#f)" stroke="#000"/><path d="m83.522117 195.59173 20.353673-8.47502" fill="none" marker-end="url(#e)" stroke="#000"/><path d="m83.532174 195.58999 21.516126-4.81188" fill="none" marker-end="url(#d)" stroke="#000"/><path d="m83.54238 195.59003 22.02482-1.00254" fill="none" marker-end="url(#c)" stroke="#000"/><text font-family="sans-serif" font-size="4.233333" letter-spacing="0" word-spacing="0" x="41.861847" y="135.50868"><tspan stroke-width=".264583" x="41.861847" y="135.50868">large radiance</tspan></text><text font-family="sans-serif" font-size="4.233333" letter-spacing="0" word-spacing="0" x="42.050835" y="146.65898"><tspan stroke-width=".264583" x="42.050835" y="146.65898">small radiance</tspan></text><path d="m73.800833 135.13071 30.238097 16.81995" fill="none" marker-end="url(#b)" stroke="#000"/><path d="m74.178809 146.65898 28.537211 29.10418" fill="none" marker-end="url(#a)" stroke="#000"/></g></g></svg>