<svg height="145.07318mm" viewBox="0 0 204.50993 145.07318" width="204.50993mm" xmlns="http://www.w3.org/2000/svg" xmlns:xlink="http://www.w3.org/1999/xlink"><marker id="a" orient="auto" overflow="visible" refX="0" refY="0"><path d="m0 0 5-5-17.5 5 17.5 5z" fill-rule="evenodd" stroke="#000" stroke-width="1pt" transform="matrix(-.4 0 0 -.4 -4 0)"/></marker><marker id="b" orient="auto" overflow="visible" refX="0" refY="0"><path d="m0 0 5-5-17.5 5 17.5 5z" fill-rule="evenodd" stroke="#000" stroke-width="1pt" transform="matrix(.4 0 0 .4 4 0)"/></marker><marker id="c" orient="auto" overflow="visible" refX="0" refY="0"><path d="m0 0 5-5-17.5 5 17.5 5z" fill-rule="evenodd" stroke="#000" stroke-width="1pt" transform="matrix(-.4 0 0 -.4 -4 0)"/></marker><marker id="d" orient="auto" overflow="visible" refX="0" refY="0"><path d="m0 0 5-5-17.5 5 17.5 5z" fill-rule="evenodd" stroke="#000" stroke-width="1pt" transform="matrix(.4 0 0 .4 4 0)"/></marker><marker id="e" orient="auto" overflow="visible" refX="0" refY="0"><path d="m0 0 5-5-17.5 5 17.5 5z" fill-rule="evenodd" stroke="#000" stroke-width="1pt" transform="matrix(-.4 0 0 -.4 -4 0)"/></marker><marker id="f" orient="auto" overflow="visible" refX="0" refY="0"><path d="m0 0 5-5-17.5 5 17.5 5z" fill-rule="evenodd" stroke="#000" stroke-width="1pt" transform="matrix(.4 0 0 .4 4 0)"/></marker><marker id="g" orient="auto" overflow="visible" refX="0" refY="0"><path d="m0 0 5-5-17.5 5 17.5 5z" fill-rule="evenodd" stroke="#000" stroke-width="1pt" transform="matrix(-.4 0 0 -.4 -4 0)"/></marker><g transform="translate(-2.614523 -67.385955)"><g transform="translate(-31.201931 -12.170833)"><path d="m108.47916 79.739288h55.184521v67.090775h-55.184521z" fill="#eee" stroke="#000" stroke-linecap="round" stroke-width=".365"/><text font-family="sans-serif" font-size="6.35" letter-spacing="0" stroke-width=".264583" word-spacing="0" x="124.0582" y="87.790161"><tspan font-weight="bold" stroke-width=".264583" x="124.0582" y="87.790161">Server</tspan></text><path d="m114.904766 96.483624h42.333328v46.491093h-42.333328z" fill="#aef" stroke="#000" stroke-linecap="round" stroke-width=".365"/><g transform="translate(102.823702 -41.511082)"><rect fill="#fea" height="9.071428" rx="1.889881" ry="2.456845" stroke="#000" stroke-linecap="round" stroke-width=".365" width="32.505951" x="16.994753" y="170.1227"/><text font-family="sans-serif" font-size="6.35" letter-spacing="0" stroke-width=".264583" word-spacing="0" x="23.62351" y="176.2366"><tspan font-size="4.233333" stroke-width=".264583" x="23.62351" y="176.2366">Version 1</tspan></text></g><g transform="translate(102.823702 -55.118225)"><rect fill="#fea" height="9.071428" rx="1.889881" ry="2.456845" stroke="#000" stroke-linecap="round" stroke-width=".365" width="32.505951" x="16.994753" y="170.1227"/><text font-family="sans-serif" font-size="6.35" letter-spacing="0" stroke-width=".264583" word-spacing="0" x="23.62351" y="176.2366"><tspan font-size="4.233333" stroke-width=".264583" x="23.62351" y="176.2366">Version 2</tspan></text></g><g transform="translate(102.823702 -68.347392)"><rect fill="#fea" height="9.071428" rx="1.889881" ry="2.456845" stroke="#000" stroke-linecap="round" stroke-width=".365" width="32.505951" x="16.994753" y="170.1227"/><text font-family="sans-serif" font-size="6.35" letter-spacing="0" stroke-width=".264583" word-spacing="0" x="23.62351" y="176.2366"><tspan font-size="4.233333" stroke-width=".264583" x="23.62351" y="176.2366">Version n</tspan></text></g></g><g transform="translate(-3.439584)"><path d="m6.236607 119.80476h55.184521v92.471878h-55.184521z" fill="#eee" stroke="#000" stroke-linecap="round" stroke-width=".365"/><text font-family="sans-serif" font-size="6.35" letter-spacing="0" stroke-width=".264583" word-spacing="0" x="12.534043" y="127.85564"><tspan font-weight="bold" stroke-width=".264583" x="12.534043" y="127.85564">Computer A</tspan></text><path d="m12.662203 160.290085h42.333328v46.491093h-42.333328z" fill="#aef" stroke="#000" stroke-linecap="round" stroke-width=".365"/><g transform="translate(.581139 22.295379)"><rect fill="#fea" height="9.071428" rx="1.889881" ry="2.456845" stroke="#000" stroke-linecap="round" stroke-width=".365" width="32.505951" x="16.994753" y="170.1227"/><text font-family="sans-serif" font-size="6.35" letter-spacing="0" stroke-width=".264583" word-spacing="0" x="23.62351" y="176.2366"><tspan font-size="4.233333" stroke-width=".264583" x="23.62351" y="176.2366">Version 1</tspan></text></g><g transform="translate(.581139 8.688236)"><rect fill="#fea" height="9.071428" rx="1.889881" ry="2.456845" stroke="#000" stroke-linecap="round" stroke-width=".365" width="32.505951" x="16.994753" y="170.1227"/><text font-family="sans-serif" font-size="6.35" letter-spacing="0" stroke-width=".264583" word-spacing="0" x="23.62351" y="176.2366"><tspan font-size="4.233333" stroke-width=".264583" x="23.62351" y="176.2366">Version 2</tspan></text></g><g transform="translate(.581139 -4.540931)"><rect fill="#fea" height="9.071428" rx="1.889881" ry="2.456845" stroke="#000" stroke-linecap="round" stroke-width=".365" width="32.505951" x="16.994753" y="170.1227"/><text font-family="sans-serif" font-size="6.35" letter-spacing="0" stroke-width=".264583" word-spacing="0" x="23.62351" y="176.2366"><tspan font-size="4.233333" stroke-width=".264583" x="23.62351" y="176.2366">Version n</tspan></text></g><rect fill="#aaffba" height="9.071428" rx="1.889881" ry="2.456845" stroke="#000" stroke-linecap="round" stroke-width=".365" width="32.505951" x="17.575891" y="135.16949"/><text font-family="sans-serif" font-size="6.35" letter-spacing="0" stroke-width=".264583" word-spacing="0" x="29.079803" y="141.2834"><tspan font-size="4.233333" stroke-width=".264583" x="29.079803" y="141.2834">Files</tspan></text><path d="m33.828867 160.21041v-13.75833" fill="none" marker-end="url(#g)" stroke="#000" stroke-width=".665"/></g><g transform="translate(145.52083)"><path d="m6.236607 119.80476h55.184521v92.471878h-55.184521z" fill="#eee" stroke="#000" stroke-linecap="round" stroke-width=".365"/><text font-family="sans-serif" font-size="6.35" letter-spacing="0" stroke-width=".264583" word-spacing="0" x="12.534043" y="127.85564"><tspan font-weight="bold" stroke-width=".264583" x="12.534043" y="127.85564">Computer B</tspan></text><path d="m12.662203 160.290085h42.333328v46.491093h-42.333328z" fill="#aef" stroke="#000" stroke-linecap="round" stroke-width=".365"/><g transform="translate(.581139 22.295379)"><rect fill="#fea" height="9.071428" rx="1.889881" ry="2.456845" stroke="#000" stroke-linecap="round" stroke-width=".365" width="32.505951" x="16.994753" y="170.1227"/><text font-family="sans-serif" font-size="6.35" letter-spacing="0" stroke-width=".264583" word-spacing="0" x="23.62351" y="176.2366"><tspan font-size="4.233333" stroke-width=".264583" x="23.62351" y="176.2366">Version 1</tspan></text></g><g transform="translate(.581139 8.688236)"><rect fill="#fea" height="9.071428" rx="1.889881" ry="2.456845" stroke="#000" stroke-linecap="round" stroke-width=".365" width="32.505951" x="16.994753" y="170.1227"/><text font-family="sans-serif" font-size="6.35" letter-spacing="0" stroke-width=".264583" word-spacing="0" x="23.62351" y="176.2366"><tspan font-size="4.233333" stroke-width=".264583" x="23.62351" y="176.2366">Version 2</tspan></text></g><g transform="translate(.581139 -4.540931)"><rect fill="#fea" height="9.071428" rx="1.889881" ry="2.456845" stroke="#000" stroke-linecap="round" stroke-width=".365" width="32.505951" x="16.994753" y="170.1227"/><text font-family="sans-serif" font-size="6.35" letter-spacing="0" stroke-width=".264583" word-spacing="0" x="23.62351" y="176.2366"><tspan font-size="4.233333" stroke-width=".264583" x="23.62351" y="176.2366">Version n</tspan></text></g><rect fill="#aaffba" height="9.071428" rx="1.889881" ry="2.456845" stroke="#000" stroke-linecap="round" stroke-width=".365" width="32.505951" x="17.575891" y="135.16949"/><text font-family="sans-serif" font-size="6.35" letter-spacing="0" stroke-width=".264583" word-spacing="0" x="29.079803" y="141.2834"><tspan font-size="4.233333" stroke-width=".264583" x="29.079803" y="141.2834">Files</tspan></text><path d="m33.828867 160.21041v-13.75833" fill="none" marker-end="url(#g)" stroke="#000" stroke-width=".665"/></g><g fill="none" stroke="#000" stroke-width=".765"><path d="m59.266666 131.9c3.704167-2.64583 16.66875-11.64167 16.66875-11.64167" marker-end="url(#e)" marker-start="url(#f)"/><path d="m133.83835 120.27515c3.70417 2.64583 16.66875 11.64167 16.66875 11.64167" marker-end="url(#c)" marker-start="url(#d)"/><path d="m59.965496 186.68556c18.567608-.15499 89.956954-.52916 89.956954-.52916" marker-end="url(#a)" marker-start="url(#b)"/></g></g></svg>