<svg height="489.71625pt" stroke-linejoin="round" viewBox="0 0 599.164758 489.71625" width="599.164758pt" xmlns="http://www.w3.org/2000/svg" xmlns:xlink="http://www.w3.org/1999/xlink"><defs stroke-linejoin="round"><clipPath id="a" stroke-linejoin="round"><path d="m30.103125 22.318125h253.636364v201.6h-253.636364z"/></clipPath><clipPath id="b" stroke-linejoin="round"><path d="m334.466761 22.318125h253.636364v201.6h-253.636364z"/></clipPath><clipPath id="c" stroke-linejoin="round"><path d="m30.103125 264.238125h253.636364v201.6h-253.636364z"/></clipPath><clipPath id="d" stroke-linejoin="round"><path d="m334.466761 264.238125h253.636364v201.6h-253.636364z"/></clipPath><path id="e" d="m0 0v3.5" stroke="#000" stroke-linejoin="round" stroke-width=".8"/><path id="f" d="m12.40625 8.296875h16.109375v55.625l-17.53125-3.515625v8.984375l17.4375 3.515625h9.859375v-64.609375h16.109375v-8.296875h-41.984375z" stroke-linejoin="round"/><path id="g" d="m10.6875 12.40625h10.3125v-12.40625h-10.3125z" stroke-linejoin="round"/><path id="h" d="m31.78125 66.40625q-7.609375 0-11.453125-7.5-3.828125-7.484375-3.828125-22.53125 0-14.984375 3.828125-22.484375 3.84375-7.5 11.453125-7.5 7.671875 0 11.5 7.5 3.84375 7.5 3.84375 22.484375 0 15.046875-3.84375 22.53125-3.828125 7.5-11.5 7.5zm0 7.8125q12.265625 0 18.734375-9.703125 6.46875-9.6875 6.46875-28.140625 0-18.40625-6.46875-28.109375-6.46875-9.6875-18.734375-9.6875-12.25 0-18.71875 9.6875-6.46875 9.703125-6.46875 28.109375 0 18.453125 6.46875 28.140625 6.46875 9.703125 18.71875 9.703125z" stroke-linejoin="round"/><path id="i" d="m19.1875 8.296875h34.421875v-8.296875h-46.28125v8.296875q5.609375 5.8125 15.296875 15.59375 9.703125 9.796875 12.1875 12.640625 4.734375 5.3125 6.609375 9 1.890625 3.6875 1.890625 7.25 0 5.8125-4.078125 9.46875-4.078125 3.671875-10.625 3.671875-4.640625 0-9.796875-1.609375-5.140625-1.609375-11-4.890625v9.96875q5.953125 2.390625 11.125 3.609375 5.1875 1.21875 9.484375 1.21875 11.328125 0 18.0625-5.671875 6.734375-5.65625 6.734375-15.125 0-4.5-1.6875-8.53125-1.671875-4.015625-6.125-9.484375-1.21875-1.421875-7.765625-8.1875-6.53125-6.765625-18.453125-18.921875z" stroke-linejoin="round"/><path id="j" d="m37.796875 64.3125-24.90625-38.921875h24.90625zm-2.59375 8.59375h12.40625v-47.515625h10.40625v-8.203125h-10.40625v-17.1875h-9.8125v17.1875h-32.90625v9.515625z" stroke-linejoin="round"/><path id="k" d="m33.015625 40.375q-6.640625 0-10.53125-4.546875-3.875-4.53125-3.875-12.4375 0-7.859375 3.875-12.4375 3.890625-4.5625 10.53125-4.5625 6.640625 0 10.515625 4.5625 3.875 4.578125 3.875 12.4375 0 7.90625-3.875 12.4375-3.875 4.546875-10.515625 4.546875zm19.578125 30.921875v-8.984375q-3.71875 1.75-7.5 2.671875-3.78125.9375-7.5.9375-9.765625 0-14.921875-6.59375-5.140625-6.59375-5.875-19.921875 2.875 4.25 7.21875 6.515625 4.359375 2.265625 9.578125 2.265625 10.984375 0 17.359375-6.671875 6.375-6.65625 6.375-18.125 0-11.234375-6.640625-18.03125-6.640625-6.78125-17.671875-6.78125-12.65625 0-19.34375 9.6875-6.6875 9.703125-6.6875 28.109375 0 17.28125 8.203125 27.5625 8.203125 10.28125 22.015625 10.28125 3.71875 0 7.5-.734375 3.78125-.734375 7.890625-2.1875z" stroke-linejoin="round"/><path id="l" d="m31.78125 34.625q-7.03125 0-11.0625-3.765625-4.015625-3.765625-4.015625-10.34375 0-6.59375 4.015625-10.359375 4.03125-3.765625 11.0625-3.765625 7.03125 0 11.078125 3.78125 4.0625 3.796875 4.0625 10.34375 0 6.578125-4.03125 10.34375-4.015625 3.765625-11.109375 3.765625zm-9.859375 4.1875q-6.34375 1.5625-9.890625 5.90625-3.53125 4.359375-3.53125 10.609375 0 8.734375 6.21875 13.8125 6.234375 5.078125 17.0625 5.078125 10.890625 0 17.09375-5.078125 6.203125-5.078125 6.203125-13.8125 0-6.25-3.546875-10.609375-3.53125-4.34375-9.828125-5.90625 7.125-1.65625 11.09375-6.5 3.984375-4.828125 3.984375-11.796875 0-10.609375-6.46875-16.28125-6.46875-5.65625-18.53125-5.65625-12.046875 0-18.53125 5.65625-6.46875 5.671875-6.46875 16.28125 0 6.96875 4 11.796875 4.015625 4.84375 11.140625 6.5zm-3.609375 15.578125q0-5.65625 3.53125-8.828125 3.546875-3.171875 9.9375-3.171875 6.359375 0 9.9375 3.171875 3.59375 3.171875 3.59375 8.828125 0 5.671875-3.59375 8.84375-3.578125 3.171875-9.9375 3.171875-6.390625 0-9.9375-3.171875-3.53125-3.171875-3.53125-8.84375z" stroke-linejoin="round"/><path id="m" d="m0 0h-3.5" stroke="#000" stroke-linejoin="round" stroke-width=".8"/><path id="n" d="m47.796875 75.984375-1.40625-7.484375h-8.59375q-4.890625 0-7.109375-1.921875-2.21875-1.921875-3.296875-7.0625l-.96875-4.828125h14.796875l-1.328125-6.984375h-14.796875l-9.265625-47.703125h-9.046875l9.328125 47.703125h-8.59375l1.28125 6.984375h8.59375l.71875 3.8125q1.859375 9.671875 6.515625 13.578125 4.671875 3.90625 14.6875 3.90625z" stroke-linejoin="round"/><path id="o" d="m31 75.875q-6.53125-11.21875-9.71875-22.21875-3.171875-10.984375-3.171875-22.265625 0-11.265625 3.203125-22.328125 3.203125-11.0625 9.6875-22.25h-7.8125q-7.3125 11.484375-10.953125 22.5625-3.640625 11.078125-3.640625 22.015625 0 10.890625 3.609375 21.921875 3.625 11.046875 10.984375 22.5625z" stroke-linejoin="round"/><path id="p" d="m60.015625 54.6875-25.109375-26.8125 15.390625-27.875h-10.3125l-11.5625 21.6875-20.125-21.6875h-10.890625l26.90625 28.8125-14.296875 25.875h10.296875l10.5-19.78125 18.3125 19.78125z" stroke-linejoin="round"/><path id="q" d="m8.015625 75.875h7.8125q7.3125-11.515625 10.953125-22.5625 3.640625-11.03125 3.640625-21.921875 0-10.9375-3.640625-22.015625-3.640625-11.078125-10.953125-22.5625h-7.8125q6.484375 11.1875 9.6875 22.25 3.203125 11.0625 3.203125 22.328125 0 11.28125-3.203125 22.265625-3.203125 11-9.6875 22.21875z" stroke-linejoin="round"/><path id="r" d="m10.59375 45.40625h62.59375v-8.203125h-62.59375zm0-19.921875h62.59375v-8.296875h-62.59375z" stroke-linejoin="round"/><path id="s" d="m10.796875 72.90625h38.71875v-8.3125h-29.6875v-17.859375q2.140625.734375 4.28125 1.09375 2.15625.359375 4.3125.359375 12.203125 0 19.328125-6.6875 7.140625-6.6875 7.140625-18.109375 0-11.765625-7.328125-18.296875-7.328125-6.515625-20.65625-6.515625-4.59375 0-9.359375.78125-4.75.78125-9.828125 2.34375v9.921875q4.390625-2.390625 9.078125-3.5625 4.6875-1.171875 9.90625-1.171875 8.453125 0 13.375 4.4375 4.9375 4.4375 4.9375 12.0625 0 7.609375-4.9375 12.046875-4.921875 4.453125-13.375 4.453125-3.953125 0-7.890625-.875-3.921875-.875-8.015625-2.734375z" stroke-linejoin="round"/><path id="t" d="m40.578125 39.3125q7.078125-1.515625 11.046875-6.3125 3.984375-4.78125 3.984375-11.8125 0-10.78125-7.421875-16.703125-7.421875-5.90625-21.09375-5.90625-4.578125 0-9.4375.90625-4.859375.90625-10.03125 2.71875v9.515625q4.09375-2.390625 8.96875-3.609375 4.890625-1.21875 10.21875-1.21875 9.265625 0 14.125 3.65625 4.859375 3.65625 4.859375 10.640625 0 6.453125-4.515625 10.078125-4.515625 3.640625-12.5625 3.640625h-8.5v8.109375h8.890625q7.265625 0 11.125 2.90625 3.859375 2.90625 3.859375 8.375 0 5.609375-3.984375 8.609375-3.96875 3.015625-11.390625 3.015625-4.0625 0-8.703125-.890625-4.640625-.875-10.203125-2.71875v8.78125q5.625 1.5625 10.53125 2.34375 4.90625.78125 9.25.78125 11.234375 0 17.765625-5.109375 6.546875-5.09375 6.546875-13.78125 0-6.0625-3.46875-10.234375-3.46875-4.171875-9.859375-5.78125z" stroke-linejoin="round"/><path id="u" d="m8.203125 72.90625h46.875v-4.203125l-26.46875-68.703125h-10.296875l24.90625 64.59375h-35.015625z" stroke-linejoin="round"/></defs><g stroke-linejoin="round"><path d="m0 489.71625h599.164758v-489.71625h-599.164758z" fill="#fff"/><g><g stroke-linejoin="round"><path d="m30.103125 223.918125h253.636364v-201.6h-253.636364z" fill="#fff"/><path clip-path="url(#a)" d="m41.632051 223.918125h4.61157v-184.133397h-4.61157z" fill="#1f77b4"/><path clip-path="url(#a)" d="m46.243621 223.918125h4.61157v-183.676036h-4.61157z" fill="#1f77b4"/><path clip-path="url(#a)" d="m50.855191 223.918125h4.61157v-185.414007h-4.61157z" fill="#1f77b4"/><path clip-path="url(#a)" d="m55.466761 223.918125h4.611571v-178.187708h-4.611571z" fill="#1f77b4"/><path clip-path="url(#a)" d="m60.078332 223.918125h4.61157v-183.584564h-4.61157z" fill="#1f77b4"/><path clip-path="url(#a)" d="m64.689902 223.918125h4.61157v-185.13959h-4.61157z" fill="#1f77b4"/><path clip-path="url(#a)" d="m69.301472 223.918125h4.61157v-186.511672h-4.61157z" fill="#1f77b4"/><path clip-path="url(#a)" d="m73.913042 223.918125h4.611571v-184.407813h-4.611571z" fill="#1f77b4"/><path clip-path="url(#a)" d="m78.524613 223.918125h4.61157v-180.291567h-4.61157z" fill="#1f77b4"/><path clip-path="url(#a)" d="m83.136183 223.918125h4.61157v-181.846594h-4.61157z" fill="#1f77b4"/><path clip-path="url(#a)" d="m87.747753 223.918125h4.61157v-182.761315h-4.61157z" fill="#1f77b4"/><path clip-path="url(#a)" d="m92.359323 223.918125h4.611571v-176.449738h-4.611571z" fill="#1f77b4"/><path clip-path="url(#a)" d="m96.970894 223.918125h4.61157v-181.206289h-4.61157z" fill="#1f77b4"/><path clip-path="url(#a)" d="m101.582464 223.918125h4.61157v-181.023344h-4.61157z" fill="#1f77b4"/><path clip-path="url(#a)" d="m106.194034 223.918125h4.61157v-184.773702h-4.61157z" fill="#1f77b4"/><path clip-path="url(#a)" d="m110.805604 223.918125h4.611571v-188.432587h-4.611571z" fill="#1f77b4"/><path clip-path="url(#a)" d="m115.417175 223.918125h4.61157v-184.224869h-4.61157z" fill="#1f77b4"/><path clip-path="url(#a)" d="m120.028745 223.918125h4.61157v-180.931872h-4.61157z" fill="#1f77b4"/><path clip-path="url(#a)" d="m124.640315 223.918125h4.61157v-181.938066h-4.61157z" fill="#1f77b4"/><path clip-path="url(#a)" d="m129.251885 223.918125h4.611571v-185.962839h-4.611571z" fill="#1f77b4"/><path clip-path="url(#a)" d="m133.863456 223.918125h4.61157v-179.55979h-4.61157z" fill="#1f77b4"/><path clip-path="url(#a)" d="m138.475026 223.918125h4.61157v-187.426394h-4.61157z" fill="#1f77b4"/><path clip-path="url(#a)" d="m143.086596 223.918125h4.61157v-180.931872h-4.61157z" fill="#1f77b4"/><path clip-path="url(#a)" d="m147.698166 223.918125h4.611571v-184.316341h-4.611571z" fill="#1f77b4"/><path clip-path="url(#a)" d="m152.309737 223.918125h4.61157v-190.444974h-4.61157z" fill="#1f77b4"/><path clip-path="url(#a)" d="m156.921307 223.918125h4.61157v-177.364459h-4.61157z" fill="#1f77b4"/><path clip-path="url(#a)" d="m161.532877 223.918125h4.61157v-185.962839h-4.61157z" fill="#1f77b4"/><path clip-path="url(#a)" d="m166.144447 223.918125h4.611571v-180.017151h-4.611571z" fill="#1f77b4"/><path clip-path="url(#a)" d="m170.756018 223.918125h4.61157v-188.158171h-4.61157z" fill="#1f77b4"/><path clip-path="url(#a)" d="m175.367588 223.918125h4.61157v-178.919485h-4.61157z" fill="#1f77b4"/><path clip-path="url(#a)" d="m179.979158 223.918125h4.61157v-184.407813h-4.61157z" fill="#1f77b4"/><path clip-path="url(#a)" d="m184.590728 223.918125h4.611571v-191.085279h-4.611571z" fill="#1f77b4"/><path clip-path="url(#a)" d="m189.202299 223.918125h4.61157v-183.40162h-4.61157z" fill="#1f77b4"/><path clip-path="url(#a)" d="m193.813869 223.918125h4.61157v-185.688423h-4.61157z" fill="#1f77b4"/><path clip-path="url(#a)" d="m198.425439 223.918125h4.61157v-181.846594h-4.61157z" fill="#1f77b4"/><path clip-path="url(#a)" d="m203.037009 223.918125h4.611571v-177.181515h-4.611571z" fill="#1f77b4"/><path clip-path="url(#a)" d="m207.64858 223.918125h4.61157v-187.060505h-4.61157z" fill="#1f77b4"/><path clip-path="url(#a)" d="m212.26015 223.918125h4.61157v-181.572177h-4.61157z" fill="#1f77b4"/><path clip-path="url(#a)" d="m216.87172 223.918125h4.61157v-175.992377h-4.61157z" fill="#1f77b4"/><path clip-path="url(#a)" d="m221.48329 223.918125h4.611571v-178.736541h-4.611571z" fill="#1f77b4"/><path clip-path="url(#a)" d="m226.094861 223.918125h4.61157v-175.809433h-4.61157z" fill="#1f77b4"/><path clip-path="url(#a)" d="m230.706431 223.918125h4.61157v-178.828013h-4.61157z" fill="#1f77b4"/><path clip-path="url(#a)" d="m235.318001 223.918125h4.61157v-184.499285h-4.61157z" fill="#1f77b4"/><path clip-path="url(#a)" d="m239.929571 223.918125h4.611571v-183.218676h-4.611571z" fill="#1f77b4"/><path clip-path="url(#a)" d="m244.541142 223.918125h4.61157v-184.956646h-4.61157z" fill="#1f77b4"/><path clip-path="url(#a)" d="m249.152712 223.918125h4.61157v-182.852787h-4.61157z" fill="#1f77b4"/><path clip-path="url(#a)" d="m253.764282 223.918125h4.61157v-180.38304h-4.61157z" fill="#1f77b4"/><path clip-path="url(#a)" d="m258.375852 223.918125h4.611571v-181.114817h-4.611571z" fill="#1f77b4"/><path clip-path="url(#a)" d="m262.987423 223.918125h4.61157v-192h-4.61157z" fill="#1f77b4"/><path clip-path="url(#a)" d="m267.598993 223.918125h4.61157v-182.578371h-4.61157z" fill="#1f77b4"/><g><g><use stroke="#000" stroke-width=".8" x="41.629973" xlink:href="#e" y="223.918125"/><g transform="matrix(.1 0 0 -.1 33.678411 238.516562)"><use xlink:href="#f"/><use x="63.623047" xlink:href="#g"/><use x="95.410156" xlink:href="#h"/></g></g><g><use stroke="#000" stroke-width=".8" x="87.746268" xlink:href="#e" y="223.918125"/><g transform="matrix(.1 0 0 -.1 79.794705 238.516562)"><use xlink:href="#f"/><use x="63.623047" xlink:href="#g"/><use x="95.410156" xlink:href="#i"/></g></g><g><use stroke="#000" stroke-width=".8" x="133.862562" xlink:href="#e" y="223.918125"/><g transform="matrix(.1 0 0 -.1 125.910999 238.516562)"><use xlink:href="#f"/><use x="63.623047" xlink:href="#g"/><use x="95.410156" xlink:href="#j"/></g></g><g><use stroke="#000" stroke-width=".8" x="179.978856" xlink:href="#e" y="223.918125"/><g transform="matrix(.1 0 0 -.1 172.027293 238.516562)"><use xlink:href="#f"/><use x="63.623047" xlink:href="#g"/><use x="95.410156" xlink:href="#k"/></g></g><g><use stroke="#000" stroke-width=".8" x="226.09515" xlink:href="#e" y="223.918125"/><g transform="matrix(.1 0 0 -.1 218.143588 238.516562)"><use xlink:href="#f"/><use x="63.623047" xlink:href="#g"/><use x="95.410156" xlink:href="#l"/></g></g><g><use stroke="#000" stroke-width=".8" x="272.211444" xlink:href="#e" y="223.918125"/><g transform="matrix(.1 0 0 -.1 264.259882 238.516562)"><use xlink:href="#i"/><use x="63.623047" xlink:href="#g"/><use x="95.410156" xlink:href="#h"/></g></g></g><g><g><use stroke="#000" stroke-width=".8" x="30.103125" xlink:href="#m" y="223.918125"/><g transform="matrix(.1 0 0 -.1 7.2 227.717344)"><use xlink:href="#h"/><use x="63.623047" xlink:href="#g"/><use x="95.410156" xlink:href="#h"/></g></g><g><use stroke="#000" stroke-width=".8" x="30.103125" xlink:href="#m" y="187.329743"/><g transform="matrix(.1 0 0 -.1 7.2 191.128961)"><use xlink:href="#h"/><use x="63.623047" xlink:href="#g"/><use x="95.410156" xlink:href="#i"/></g></g><g><use stroke="#000" stroke-width=".8" x="30.103125" xlink:href="#m" y="150.74136"/><g transform="matrix(.1 0 0 -.1 7.2 154.540579)"><use xlink:href="#h"/><use x="63.623047" xlink:href="#g"/><use x="95.410156" xlink:href="#j"/></g></g><g><use stroke="#000" stroke-width=".8" x="30.103125" xlink:href="#m" y="114.152978"/><g transform="matrix(.1 0 0 -.1 7.2 117.952197)"><use xlink:href="#h"/><use x="63.623047" xlink:href="#g"/><use x="95.410156" xlink:href="#k"/></g></g><g><use stroke="#000" stroke-width=".8" x="30.103125" xlink:href="#m" y="77.564596"/><g transform="matrix(.1 0 0 -.1 7.2 81.363814)"><use xlink:href="#h"/><use x="63.623047" xlink:href="#g"/><use x="95.410156" xlink:href="#l"/></g></g><g><use stroke="#000" stroke-width=".8" x="30.103125" xlink:href="#m" y="40.976213"/><g transform="matrix(.1 0 0 -.1 7.2 44.775432)"><use xlink:href="#f"/><use x="63.623047" xlink:href="#g"/><use x="95.410156" xlink:href="#h"/></g></g></g></g><path d="m30.103125 223.918125v-201.6" fill="none" stroke="#000" stroke-linecap="square" stroke-linejoin="miter" stroke-width=".8"/><path d="m283.739489 223.918125v-201.6" fill="none" stroke="#000" stroke-linecap="square" stroke-linejoin="miter" stroke-width=".8"/><path d="m30.103125 223.918125h253.636364" fill="none" stroke="#000" stroke-linecap="square" stroke-linejoin="miter" stroke-width=".8"/><path d="m30.103125 22.318125h253.636364" fill="none" stroke="#000" stroke-linecap="square" stroke-linejoin="miter" stroke-width=".8"/><g stroke-linejoin="round" transform="matrix(.12 0 0 -.12 124.461307 16.318125)"><use transform="translate(0 .015625)" xlink:href="#n"/><use transform="translate(35.205078 .015625)" xlink:href="#o"/><use transform="translate(74.21875 .015625)" xlink:href="#p"/><use transform="translate(133.398438 .015625)" xlink:href="#q"/><use transform="translate(191.894531 .015625)" xlink:href="#r"/><use transform="translate(295.166016 .015625)" xlink:href="#p"/><path d="m46 62.703125v-27.203125h27.1875v-8.296875h-27.1875v-27.203125h-8.203125v27.203125h-27.203125v8.296875h27.203125v27.203125z" transform="translate(373.828125 .015625)"/><use transform="translate(477.099609 .015625)" xlink:href="#f"/></g></g><g><g stroke-linejoin="round"><path d="m334.466761 223.918125h253.636364v-201.6h-253.636364z" fill="#fff"/><path clip-path="url(#b)" d="m345.995687 223.918125h4.61157v-184.133397h-4.61157z" fill="#1f77b4"/><path clip-path="url(#b)" d="m350.607257 223.918125h4.61157v-183.676036h-4.61157z" fill="#1f77b4"/><path clip-path="url(#b)" d="m355.218827 223.918125h4.611571v-185.414007h-4.611571z" fill="#1f77b4"/><path clip-path="url(#b)" d="m359.830398 223.918125h4.61157v-178.187708h-4.61157z" fill="#1f77b4"/><path clip-path="url(#b)" d="m364.441968 223.918125h4.61157v-183.584564h-4.61157z" fill="#1f77b4"/><path clip-path="url(#b)" d="m369.053538 223.918125h4.61157v-185.13959h-4.61157z" fill="#1f77b4"/><path clip-path="url(#b)" d="m373.665108 223.918125h4.611571v-186.511672h-4.611571z" fill="#1f77b4"/><path clip-path="url(#b)" d="m378.276679 223.918125h4.61157v-184.407813h-4.61157z" fill="#1f77b4"/><path clip-path="url(#b)" d="m382.888249 223.918125h4.61157v-180.291567h-4.61157z" fill="#1f77b4"/><path clip-path="url(#b)" d="m387.499819 223.918125h4.61157v-181.846594h-4.61157z" fill="#1f77b4"/><path clip-path="url(#b)" d="m392.111389 223.918125h4.611571v-182.761315h-4.611571z" fill="#1f77b4"/><path clip-path="url(#b)" d="m396.72296 223.918125h4.61157v-176.449738h-4.61157z" fill="#1f77b4"/><path clip-path="url(#b)" d="m401.33453 223.918125h4.61157v-181.206289h-4.61157z" fill="#1f77b4"/><path clip-path="url(#b)" d="m405.9461 223.918125h4.61157v-181.023344h-4.61157z" fill="#1f77b4"/><path clip-path="url(#b)" d="m410.55767 223.918125h4.611571v-184.773702h-4.611571z" fill="#1f77b4"/><path clip-path="url(#b)" d="m415.169241 223.918125h4.61157v-188.432587h-4.61157z" fill="#1f77b4"/><path clip-path="url(#b)" d="m419.780811 223.918125h4.61157v-184.224869h-4.61157z" fill="#1f77b4"/><path clip-path="url(#b)" d="m424.392381 223.918125h4.61157v-180.931872h-4.61157z" fill="#1f77b4"/><path clip-path="url(#b)" d="m429.003951 223.918125h4.611571v-181.938066h-4.611571z" fill="#1f77b4"/><path clip-path="url(#b)" d="m433.615522 223.918125h4.61157v-185.962839h-4.61157z" fill="#1f77b4"/><path clip-path="url(#b)" d="m438.227092 223.918125h4.61157v-179.55979h-4.61157z" fill="#1f77b4"/><path clip-path="url(#b)" d="m442.838662 223.918125h4.61157v-187.426394h-4.61157z" fill="#1f77b4"/><path clip-path="url(#b)" d="m447.450232 223.918125h4.611571v-180.931872h-4.611571z" fill="#1f77b4"/><path clip-path="url(#b)" d="m452.061803 223.918125h4.61157v-184.316341h-4.61157z" fill="#1f77b4"/><path clip-path="url(#b)" d="m456.673373 223.918125h4.61157v-190.444974h-4.61157z" fill="#1f77b4"/><path clip-path="url(#b)" d="m461.284943 223.918125h4.61157v-177.364459h-4.61157z" fill="#1f77b4"/><path clip-path="url(#b)" d="m465.896513 223.918125h4.611571v-185.962839h-4.611571z" fill="#1f77b4"/><path clip-path="url(#b)" d="m470.508084 223.918125h4.61157v-180.017151h-4.61157z" fill="#1f77b4"/><path clip-path="url(#b)" d="m475.119654 223.918125h4.61157v-188.158171h-4.61157z" fill="#1f77b4"/><path clip-path="url(#b)" d="m479.731224 223.918125h4.61157v-178.919485h-4.61157z" fill="#1f77b4"/><path clip-path="url(#b)" d="m484.342794 223.918125h4.611571v-184.407813h-4.611571z" fill="#1f77b4"/><path clip-path="url(#b)" d="m488.954365 223.918125h4.61157v-191.085279h-4.61157z" fill="#1f77b4"/><path clip-path="url(#b)" d="m493.565935 223.918125h4.61157v-183.40162h-4.61157z" fill="#1f77b4"/><path clip-path="url(#b)" d="m498.177505 223.918125h4.61157v-185.688423h-4.61157z" fill="#1f77b4"/><path clip-path="url(#b)" d="m502.789075 223.918125h4.611571v-181.846594h-4.611571z" fill="#1f77b4"/><path clip-path="url(#b)" d="m507.400646 223.918125h4.61157v-177.181515h-4.61157z" fill="#1f77b4"/><path clip-path="url(#b)" d="m512.012216 223.918125h4.61157v-187.060505h-4.61157z" fill="#1f77b4"/><path clip-path="url(#b)" d="m516.623786 223.918125h4.61157v-181.572177h-4.61157z" fill="#1f77b4"/><path clip-path="url(#b)" d="m521.235356 223.918125h4.611571v-175.992377h-4.611571z" fill="#1f77b4"/><path clip-path="url(#b)" d="m525.846927 223.918125h4.61157v-178.736541h-4.61157z" fill="#1f77b4"/><path clip-path="url(#b)" d="m530.458497 223.918125h4.61157v-175.809433h-4.61157z" fill="#1f77b4"/><path clip-path="url(#b)" d="m535.070067 223.918125h4.61157v-178.828013h-4.61157z" fill="#1f77b4"/><path clip-path="url(#b)" d="m539.681637 223.918125h4.611571v-184.499285h-4.611571z" fill="#1f77b4"/><path clip-path="url(#b)" d="m544.293208 223.918125h4.61157v-183.218676h-4.61157z" fill="#1f77b4"/><path clip-path="url(#b)" d="m548.904778 223.918125h4.61157v-184.956646h-4.61157z" fill="#1f77b4"/><path clip-path="url(#b)" d="m553.516348 223.918125h4.61157v-182.852787h-4.61157z" fill="#1f77b4"/><path clip-path="url(#b)" d="m558.127918 223.918125h4.611571v-180.38304h-4.611571z" fill="#1f77b4"/><path clip-path="url(#b)" d="m562.739489 223.918125h4.61157v-181.114817h-4.61157z" fill="#1f77b4"/><path clip-path="url(#b)" d="m567.351059 223.918125h4.61157v-192h-4.61157z" fill="#1f77b4"/><path clip-path="url(#b)" d="m571.962629 223.918125h4.61157v-182.578371h-4.61157z" fill="#1f77b4"/><g><g><use stroke="#000" stroke-width=".8" x="345.99361" xlink:href="#e" y="223.918125"/><g transform="matrix(.1 0 0 -.1 338.042047 238.516562)"><use xlink:href="#h"/><use x="63.623047" xlink:href="#g"/><use x="95.410156" xlink:href="#h"/></g></g><g><use stroke="#000" stroke-width=".8" x="403.638977" xlink:href="#e" y="223.918125"/><g transform="matrix(.1 0 0 -.1 395.687415 238.516562)"><use xlink:href="#h"/><use x="63.623047" xlink:href="#g"/><use x="95.410156" xlink:href="#s"/></g></g><g><use stroke="#000" stroke-width=".8" x="461.284345" xlink:href="#e" y="223.918125"/><g transform="matrix(.1 0 0 -.1 453.332783 238.516562)"><use xlink:href="#f"/><use x="63.623047" xlink:href="#g"/><use x="95.410156" xlink:href="#h"/></g></g><g><use stroke="#000" stroke-width=".8" x="518.929713" xlink:href="#e" y="223.918125"/><g transform="matrix(.1 0 0 -.1 510.97815 238.516562)"><use xlink:href="#f"/><use x="63.623047" xlink:href="#g"/><use x="95.410156" xlink:href="#s"/></g></g><g><use stroke="#000" stroke-width=".8" x="576.575081" xlink:href="#e" y="223.918125"/><g transform="matrix(.1 0 0 -.1 568.623518 238.516562)"><use xlink:href="#i"/><use x="63.623047" xlink:href="#g"/><use x="95.410156" xlink:href="#h"/></g></g></g><g><g><use stroke="#000" stroke-width=".8" x="334.466761" xlink:href="#m" y="223.918125"/><g transform="matrix(.1 0 0 -.1 311.563636 227.717344)"><use xlink:href="#h"/><use x="63.623047" xlink:href="#g"/><use x="95.410156" xlink:href="#h"/></g></g><g><use stroke="#000" stroke-width=".8" x="334.466761" xlink:href="#m" y="187.329743"/><g transform="matrix(.1 0 0 -.1 311.563636 191.128961)"><use xlink:href="#h"/><use x="63.623047" xlink:href="#g"/><use x="95.410156" xlink:href="#f"/></g></g><g><use stroke="#000" stroke-width=".8" x="334.466761" xlink:href="#m" y="150.74136"/><g transform="matrix(.1 0 0 -.1 311.563636 154.540579)"><use xlink:href="#h"/><use x="63.623047" xlink:href="#g"/><use x="95.410156" xlink:href="#i"/></g></g><g><use stroke="#000" stroke-width=".8" x="334.466761" xlink:href="#m" y="114.152978"/><g transform="matrix(.1 0 0 -.1 311.563636 117.952197)"><use xlink:href="#h"/><use x="63.623047" xlink:href="#g"/><use x="95.410156" xlink:href="#t"/></g></g><g><use stroke="#000" stroke-width=".8" x="334.466761" xlink:href="#m" y="77.564596"/><g transform="matrix(.1 0 0 -.1 311.563636 81.363814)"><use xlink:href="#h"/><use x="63.623047" xlink:href="#g"/><use x="95.410156" xlink:href="#j"/></g></g><g><use stroke="#000" stroke-width=".8" x="334.466761" xlink:href="#m" y="40.976213"/><g transform="matrix(.1 0 0 -.1 311.563636 44.775432)"><use xlink:href="#h"/><use x="63.623047" xlink:href="#g"/><use x="95.410156" xlink:href="#s"/></g></g></g></g><path d="m334.466761 223.918125v-201.6" fill="none" stroke="#000" stroke-linecap="square" stroke-linejoin="miter" stroke-width=".8"/><path d="m588.103125 223.918125v-201.6" fill="none" stroke="#000" stroke-linecap="square" stroke-linejoin="miter" stroke-width=".8"/><path d="m334.466761 223.918125h253.636364" fill="none" stroke="#000" stroke-linecap="square" stroke-linejoin="miter" stroke-width=".8"/><path d="m334.466761 22.318125h253.636364" fill="none" stroke="#000" stroke-linecap="square" stroke-linejoin="miter" stroke-width=".8"/><g stroke-linejoin="round" transform="matrix(.12 0 0 -.12 436.204943 16.318125)"><use transform="translate(0 .015625)" xlink:href="#n"/><use transform="translate(35.205078 .015625)" xlink:href="#o"/><use transform="translate(74.21875 .015625)" xlink:href="#p"/><use transform="translate(133.398438 .015625)" xlink:href="#q"/><use transform="translate(191.894531 .015625)" xlink:href="#r"/><use transform="translate(295.166016 .015625)" xlink:href="#i"/><use transform="translate(358.789062 .015625)" xlink:href="#p"/></g></g><g><g stroke-linejoin="round"><path d="m30.103125 465.838125h253.636364v-201.6h-253.636364z" fill="#fff"/><path clip-path="url(#c)" d="m41.632051 465.838125h4.61157v-192h-4.61157z" fill="#1f77b4"/><path clip-path="url(#c)" d="m46.243621 465.838125h4.61157v-78.538705h-4.61157z" fill="#1f77b4"/><path clip-path="url(#c)" d="m50.855191 465.838125h4.61157v-59.761232h-4.61157z" fill="#1f77b4"/><path clip-path="url(#c)" d="m55.466761 465.838125h4.611571v-50.622232h-4.611571z" fill="#1f77b4"/><path clip-path="url(#c)" d="m60.078332 465.838125h4.61157v-46.005484h-4.61157z" fill="#1f77b4"/><path clip-path="url(#c)" d="m64.689902 465.838125h4.61157v-41.14575h-4.61157z" fill="#1f77b4"/><path clip-path="url(#c)" d="m69.301472 465.838125h4.61157v-36.421008h-4.61157z" fill="#1f77b4"/><path clip-path="url(#c)" d="m73.913042 465.838125h4.611571v-35.732546h-4.611571z" fill="#1f77b4"/><path clip-path="url(#c)" d="m78.524613 465.838125h4.61157v-32.452225h-4.61157z" fill="#1f77b4"/><path clip-path="url(#c)" d="m83.136183 465.838125h4.61157v-31.601772h-4.61157z" fill="#1f77b4"/><path clip-path="url(#c)" d="m87.747753 465.838125h4.61157v-29.131407h-4.61157z" fill="#1f77b4"/><path clip-path="url(#c)" d="m92.359323 465.838125h4.611571v-28.537439h-4.611571z" fill="#1f77b4"/><path clip-path="url(#c)" d="m96.970894 465.838125h4.61157v-27.713984h-4.61157z" fill="#1f77b4"/><path clip-path="url(#c)" d="m101.582464 465.838125h4.61157v-24.946636h-4.61157z" fill="#1f77b4"/><path clip-path="url(#c)" d="m106.194034 465.838125h4.61157v-25.284117h-4.61157z" fill="#1f77b4"/><path clip-path="url(#c)" d="m110.805604 465.838125h4.611571v-24.852141h-4.611571z" fill="#1f77b4"/><path clip-path="url(#c)" d="m115.417175 465.838125h4.61157v-23.340224h-4.61157z" fill="#1f77b4"/><path clip-path="url(#c)" d="m120.028745 465.838125h4.61157v-22.705758h-4.61157z" fill="#1f77b4"/><path clip-path="url(#c)" d="m124.640315 465.838125h4.61157v-22.422274h-4.61157z" fill="#1f77b4"/><path clip-path="url(#c)" d="m129.251885 465.838125h4.611571v-22.057794h-4.611571z" fill="#1f77b4"/><path clip-path="url(#c)" d="m133.863456 465.838125h4.61157v-21.828306h-4.61157z" fill="#1f77b4"/><path clip-path="url(#c)" d="m138.475026 465.838125h4.61157v-20.802362h-4.61157z" fill="#1f77b4"/><path clip-path="url(#c)" d="m143.086596 465.838125h4.61157v-20.1139h-4.61157z" fill="#1f77b4"/><path clip-path="url(#c)" d="m147.698166 465.838125h4.611571v-20.032904h-4.611571z" fill="#1f77b4"/><path clip-path="url(#c)" d="m152.309737 465.838125h4.61157v-18.493989h-4.61157z" fill="#1f77b4"/><path clip-path="url(#c)" d="m156.921307 465.838125h4.61157v-18.65598h-4.61157z" fill="#1f77b4"/><path clip-path="url(#c)" d="m161.532877 465.838125h4.61157v-19.263447h-4.61157z" fill="#1f77b4"/><path clip-path="url(#c)" d="m166.144447 465.838125h4.611571v-17.954018h-4.611571z" fill="#1f77b4"/><path clip-path="url(#c)" d="m170.756018 465.838125h4.61157v-18.021514h-4.61157z" fill="#1f77b4"/><path clip-path="url(#c)" d="m175.367588 465.838125h4.61157v-16.860578h-4.61157z" fill="#1f77b4"/><path clip-path="url(#c)" d="m179.979158 465.838125h4.61157v-16.172116h-4.61157z" fill="#1f77b4"/><path clip-path="url(#c)" d="m184.590728 465.838125h4.611571v-16.941574h-4.611571z" fill="#1f77b4"/><path clip-path="url(#c)" d="m189.202299 465.838125h4.61157v-16.766083h-4.61157z" fill="#1f77b4"/><path clip-path="url(#c)" d="m193.813869 465.838125h4.61157v-15.227167h-4.61157z" fill="#1f77b4"/><path clip-path="url(#c)" d="m198.425439 465.838125h4.61157v-15.834634h-4.61157z" fill="#1f77b4"/><path clip-path="url(#c)" d="m203.037009 465.838125h4.611571v-16.793082h-4.611571z" fill="#1f77b4"/><path clip-path="url(#c)" d="m207.64858 465.838125h4.61157v-15.227167h-4.61157z" fill="#1f77b4"/><path clip-path="url(#c)" d="m212.26015 465.838125h4.61157v-15.605147h-4.61157z" fill="#1f77b4"/><path clip-path="url(#c)" d="m216.87172 465.838125h4.61157v-15.078675h-4.61157z" fill="#1f77b4"/><path clip-path="url(#c)" d="m221.48329 465.838125h4.611571v-15.929129h-4.611571z" fill="#1f77b4"/><path clip-path="url(#c)" d="m226.094861 465.838125h4.61157v-15.024678h-4.61157z" fill="#1f77b4"/><path clip-path="url(#c)" d="m230.706431 465.838125h4.61157v-14.822189h-4.61157z" fill="#1f77b4"/><path clip-path="url(#c)" d="m235.318001 465.838125h4.61157v-14.349715h-4.61157z" fill="#1f77b4"/><path clip-path="url(#c)" d="m239.929571 465.838125h4.611571v-14.174225h-4.611571z" fill="#1f77b4"/><path clip-path="url(#c)" d="m244.541142 465.838125h4.61157v-14.26872h-4.61157z" fill="#1f77b4"/><path clip-path="url(#c)" d="m249.152712 465.838125h4.61157v-14.120228h-4.61157z" fill="#1f77b4"/><path clip-path="url(#c)" d="m253.764282 465.838125h4.61157v-14.552204h-4.61157z" fill="#1f77b4"/><path clip-path="url(#c)" d="m258.375852 465.838125h4.611571v-14.498207h-4.611571z" fill="#1f77b4"/><path clip-path="url(#c)" d="m262.987423 465.838125h4.61157v-13.080785h-4.61157z" fill="#1f77b4"/><path clip-path="url(#c)" d="m267.598993 465.838125h4.61157v-14.160726h-4.61157z" fill="#1f77b4"/><g><g><use stroke="#000" stroke-width=".8" x="41.632051" xlink:href="#e" y="465.838125"/><g transform="matrix(.1 0 0 -.1 33.680488 480.436562)"><use xlink:href="#h"/><use x="63.623047" xlink:href="#g"/><use x="95.410156" xlink:href="#h"/></g></g><g><use stroke="#000" stroke-width=".8" x="87.748106" xlink:href="#e" y="465.838125"/><g transform="matrix(.1 0 0 -.1 79.796543 480.436562)"><use xlink:href="#h"/><use x="63.623047" xlink:href="#g"/><use x="95.410156" xlink:href="#i"/></g></g><g><use stroke="#000" stroke-width=".8" x="133.864161" xlink:href="#e" y="465.838125"/><g transform="matrix(.1 0 0 -.1 125.912598 480.436562)"><use xlink:href="#h"/><use x="63.623047" xlink:href="#g"/><use x="95.410156" xlink:href="#j"/></g></g><g><use stroke="#000" stroke-width=".8" x="179.980216" xlink:href="#e" y="465.838125"/><g transform="matrix(.1 0 0 -.1 172.028653 480.436562)"><use xlink:href="#h"/><use x="63.623047" xlink:href="#g"/><use x="95.410156" xlink:href="#k"/></g></g><g><use stroke="#000" stroke-width=".8" x="226.096271" xlink:href="#e" y="465.838125"/><g transform="matrix(.1 0 0 -.1 218.144708 480.436562)"><use xlink:href="#h"/><use x="63.623047" xlink:href="#g"/><use x="95.410156" xlink:href="#l"/></g></g><g><use stroke="#000" stroke-width=".8" x="272.212326" xlink:href="#e" y="465.838125"/><g transform="matrix(.1 0 0 -.1 264.260763 480.436562)"><use xlink:href="#f"/><use x="63.623047" xlink:href="#g"/><use x="95.410156" xlink:href="#h"/></g></g></g><g><g><use stroke="#000" stroke-width=".8" x="30.103125" xlink:href="#m" y="465.838125"/><use transform="matrix(.1 0 0 -.1 16.740625 469.637344)" xlink:href="#h"/></g><g><use stroke="#000" stroke-width=".8" x="30.103125" xlink:href="#m" y="438.839808"/><use transform="matrix(.1 0 0 -.1 16.740625 442.639027)" xlink:href="#f"/></g><g><use stroke="#000" stroke-width=".8" x="30.103125" xlink:href="#m" y="411.841491"/><use transform="matrix(.1 0 0 -.1 16.740625 415.64071)" xlink:href="#i"/></g><g><use stroke="#000" stroke-width=".8" x="30.103125" xlink:href="#m" y="384.843174"/><use transform="matrix(.1 0 0 -.1 16.740625 388.642392)" xlink:href="#t"/></g><g><use stroke="#000" stroke-width=".8" x="30.103125" xlink:href="#m" y="357.844857"/><use transform="matrix(.1 0 0 -.1 16.740625 361.644075)" xlink:href="#j"/></g><g><use stroke="#000" stroke-width=".8" x="30.103125" xlink:href="#m" y="330.846539"/><use transform="matrix(.1 0 0 -.1 16.740625 334.645758)" xlink:href="#s"/></g><g><use stroke="#000" stroke-width=".8" x="30.103125" xlink:href="#m" y="303.848222"/><use transform="matrix(.1 0 0 -.1 16.740625 307.647441)" xlink:href="#k"/></g><g><use stroke="#000" stroke-width=".8" x="30.103125" xlink:href="#m" y="276.849905"/><use transform="matrix(.1 0 0 -.1 16.740625 280.649124)" xlink:href="#u"/></g></g></g><path d="m30.103125 465.838125v-201.6" fill="none" stroke="#000" stroke-linecap="square" stroke-linejoin="miter" stroke-width=".8"/><path d="m283.739489 465.838125v-201.6" fill="none" stroke="#000" stroke-linecap="square" stroke-linejoin="miter" stroke-width=".8"/><path d="m30.103125 465.838125h253.636364" fill="none" stroke="#000" stroke-linecap="square" stroke-linejoin="miter" stroke-width=".8"/><path d="m30.103125 264.238125h253.636364" fill="none" stroke="#000" stroke-linecap="square" stroke-linejoin="miter" stroke-width=".8"/><g stroke-linejoin="round" transform="matrix(.12 0 0 -.12 132.501307 258.238125)"><use transform="translate(0 .765625)" xlink:href="#n"/><use transform="translate(35.205078 .765625)" xlink:href="#o"/><use transform="translate(74.21875 .765625)" xlink:href="#p"/><use transform="translate(133.398438 .765625)" xlink:href="#q"/><use transform="translate(191.894531 .765625)" xlink:href="#r"/><use transform="translate(295.166016 .765625)" xlink:href="#p"/><use transform="matrix(.7 0 0 .7 358.811849 39.046875)" xlink:href="#i"/></g></g><g><g stroke-linejoin="round"><path d="m334.466761 465.838125h253.636364v-201.6h-253.636364z" fill="#fff"/><path clip-path="url(#d)" d="m345.995687 465.838125h4.61157v-192h-4.61157z" fill="#1f77b4"/><path clip-path="url(#d)" d="m350.607257 465.838125h4.61157v-182.175439h-4.61157z" fill="#1f77b4"/><path clip-path="url(#d)" d="m355.218827 465.838125h4.611571v-177.122807h-4.611571z" fill="#1f77b4"/><path clip-path="url(#d)" d="m359.830398 465.838125h4.61157v-175.326316h-4.61157z" fill="#1f77b4"/><path clip-path="url(#d)" d="m364.441968 465.838125h4.61157v-167.747368h-4.61157z" fill="#1f77b4"/><path clip-path="url(#d)" d="m369.053538 465.838125h4.61157v-161.459649h-4.61157z" fill="#1f77b4"/><path clip-path="url(#d)" d="m373.665108 465.838125h4.611571v-156.8h-4.611571z" fill="#1f77b4"/><path clip-path="url(#d)" d="m378.276679 465.838125h4.61157v-149.445614h-4.61157z" fill="#1f77b4"/><path clip-path="url(#d)" d="m382.888249 465.838125h4.61157v-149.052632h-4.61157z" fill="#1f77b4"/><path clip-path="url(#d)" d="m387.499819 465.838125h4.61157v-144.673684h-4.61157z" fill="#1f77b4"/><path clip-path="url(#d)" d="m392.111389 465.838125h4.611571v-144.954386h-4.611571z" fill="#1f77b4"/><path clip-path="url(#d)" d="m396.72296 465.838125h4.61157v-139.17193h-4.61157z" fill="#1f77b4"/><path clip-path="url(#d)" d="m401.33453 465.838125h4.61157v-131.536842h-4.61157z" fill="#1f77b4"/><path clip-path="url(#d)" d="m405.9461 465.838125h4.61157v-131.873684h-4.61157z" fill="#1f77b4"/><path clip-path="url(#d)" d="m410.55767 465.838125h4.611571v-129.740351h-4.611571z" fill="#1f77b4"/><path clip-path="url(#d)" d="m415.169241 465.838125h4.61157v-128.392982h-4.61157z" fill="#1f77b4"/><path clip-path="url(#d)" d="m419.780811 465.838125h4.61157v-122.273684h-4.61157z" fill="#1f77b4"/><path clip-path="url(#d)" d="m424.392381 465.838125h4.61157v-120.589474h-4.61157z" fill="#1f77b4"/><path clip-path="url(#d)" d="m429.003951 465.838125h4.611571v-122.329825h-4.611571z" fill="#1f77b4"/><path clip-path="url(#d)" d="m433.615522 465.838125h4.61157v-111.214035h-4.61157z" fill="#1f77b4"/><path clip-path="url(#d)" d="m438.227092 465.838125h4.61157v-115.031579h-4.61157z" fill="#1f77b4"/><path clip-path="url(#d)" d="m442.838662 465.838125h4.61157v-113.010526h-4.61157z" fill="#1f77b4"/><path clip-path="url(#d)" d="m447.450232 465.838125h4.611571v-108.294737h-4.611571z" fill="#1f77b4"/><path clip-path="url(#d)" d="m452.061803 465.838125h4.61157v-104.982456h-4.61157z" fill="#1f77b4"/><path clip-path="url(#d)" d="m456.673373 465.838125h4.61157v-106.891228h-4.61157z" fill="#1f77b4"/><path clip-path="url(#d)" d="m461.284943 465.838125h4.61157v-107.677193h-4.61157z" fill="#1f77b4"/><path clip-path="url(#d)" d="m465.896513 465.838125h4.611571v-100.603509h-4.611571z" fill="#1f77b4"/><path clip-path="url(#d)" d="m470.508084 465.838125h4.61157v-100.378947h-4.61157z" fill="#1f77b4"/><path clip-path="url(#d)" d="m475.119654 465.838125h4.61157v-97.740351h-4.61157z" fill="#1f77b4"/><path clip-path="url(#d)" d="m479.731224 465.838125h4.61157v-93.305263h-4.61157z" fill="#1f77b4"/><path clip-path="url(#d)" d="m484.342794 465.838125h4.611571v-93.417544h-4.611571z" fill="#1f77b4"/><path clip-path="url(#d)" d="m488.954365 465.838125h4.61157v-96.168421h-4.61157z" fill="#1f77b4"/><path clip-path="url(#d)" d="m493.565935 465.838125h4.61157v-89.263158h-4.61157z" fill="#1f77b4"/><path clip-path="url(#d)" d="m498.177505 465.838125h4.61157v-87.691228h-4.61157z" fill="#1f77b4"/><path clip-path="url(#d)" d="m502.789075 465.838125h4.611571v-84.322807h-4.611571z" fill="#1f77b4"/><path clip-path="url(#d)" d="m507.400646 465.838125h4.61157v-85.894737h-4.61157z" fill="#1f77b4"/><path clip-path="url(#d)" d="m512.012216 465.838125h4.61157v-80.729825h-4.61157z" fill="#1f77b4"/><path clip-path="url(#d)" d="m516.623786 465.838125h4.61157v-82.807018h-4.61157z" fill="#1f77b4"/><path clip-path="url(#d)" d="m521.235356 465.838125h4.611571v-86.287719h-4.611571z" fill="#1f77b4"/><path clip-path="url(#d)" d="m525.846927 465.838125h4.61157v-80h-4.61157z" fill="#1f77b4"/><path clip-path="url(#d)" d="m530.458497 465.838125h4.61157v-79.214035h-4.61157z" fill="#1f77b4"/><path clip-path="url(#d)" d="m535.070067 465.838125h4.61157v-80.280702h-4.61157z" fill="#1f77b4"/><path clip-path="url(#d)" d="m539.681637 465.838125h4.611571v-79.719298h-4.611571z" fill="#1f77b4"/><path clip-path="url(#d)" d="m544.293208 465.838125h4.61157v-75.508772h-4.61157z" fill="#1f77b4"/><path clip-path="url(#d)" d="m548.904778 465.838125h4.61157v-75.115789h-4.61157z" fill="#1f77b4"/><path clip-path="url(#d)" d="m553.516348 465.838125h4.61157v-75.901754h-4.61157z" fill="#1f77b4"/><path clip-path="url(#d)" d="m558.127918 465.838125h4.611571v-73.880702h-4.611571z" fill="#1f77b4"/><path clip-path="url(#d)" d="m562.739489 465.838125h4.61157v-76.687719h-4.61157z" fill="#1f77b4"/><path clip-path="url(#d)" d="m567.351059 465.838125h4.61157v-72.533333h-4.61157z" fill="#1f77b4"/><path clip-path="url(#d)" d="m571.962629 465.838125h4.61157v-72.814035h-4.61157z" fill="#1f77b4"/><g><g><use stroke="#000" stroke-width=".8" x="345.994478" xlink:href="#e" y="465.838125"/><g transform="matrix(.1 0 0 -.1 334.861666 480.436562)"><use xlink:href="#f"/><use x="63.623047" xlink:href="#g"/><use x="95.410156" xlink:href="#h"/><use x="159.033203" xlink:href="#h"/></g></g><g><use stroke="#000" stroke-width=".8" x="379.542688" xlink:href="#e" y="465.838125"/><g transform="matrix(.1 0 0 -.1 368.409875 480.436562)"><use xlink:href="#f"/><use x="63.623047" xlink:href="#g"/><use x="95.410156" xlink:href="#i"/><use x="159.033203" xlink:href="#s"/></g></g><g><use stroke="#000" stroke-width=".8" x="413.090897" xlink:href="#e" y="465.838125"/><g transform="matrix(.1 0 0 -.1 401.958085 480.436562)"><use xlink:href="#f"/><use x="63.623047" xlink:href="#g"/><use x="95.410156" xlink:href="#s"/><use x="159.033203" xlink:href="#h"/></g></g><g><use stroke="#000" stroke-width=".8" x="446.639107" xlink:href="#e" y="465.838125"/><g transform="matrix(.1 0 0 -.1 435.506294 480.436562)"><use xlink:href="#f"/><use x="63.623047" xlink:href="#g"/><use x="95.410156" xlink:href="#u"/><use x="159.033203" xlink:href="#s"/></g></g><g><use stroke="#000" stroke-width=".8" x="480.187316" xlink:href="#e" y="465.838125"/><g transform="matrix(.1 0 0 -.1 469.054504 480.436562)"><use xlink:href="#i"/><use x="63.623047" xlink:href="#g"/><use x="95.410156" xlink:href="#h"/><use x="159.033203" xlink:href="#h"/></g></g><g><use stroke="#000" stroke-width=".8" x="513.735526" xlink:href="#e" y="465.838125"/><g transform="matrix(.1 0 0 -.1 502.602713 480.436562)"><use xlink:href="#i"/><use x="63.623047" xlink:href="#g"/><use x="95.410156" xlink:href="#i"/><use x="159.033203" xlink:href="#s"/></g></g><g><use stroke="#000" stroke-width=".8" x="547.283736" xlink:href="#e" y="465.838125"/><g transform="matrix(.1 0 0 -.1 536.150923 480.436562)"><use xlink:href="#i"/><use x="63.623047" xlink:href="#g"/><use x="95.410156" xlink:href="#s"/><use x="159.033203" xlink:href="#h"/></g></g><g><use stroke="#000" stroke-width=".8" x="580.831945" xlink:href="#e" y="465.838125"/><g transform="matrix(.1 0 0 -.1 569.699133 480.436562)"><use xlink:href="#i"/><use x="63.623047" xlink:href="#g"/><use x="95.410156" xlink:href="#u"/><use x="159.033203" xlink:href="#s"/></g></g></g><g><g><use stroke="#000" stroke-width=".8" x="334.466761" xlink:href="#m" y="465.838125"/><g transform="matrix(.1 0 0 -.1 311.563636 469.637344)"><use xlink:href="#h"/><use x="63.623047" xlink:href="#g"/><use x="95.410156" xlink:href="#h"/></g></g><g><use stroke="#000" stroke-width=".8" x="334.466761" xlink:href="#m" y="427.252583"/><g transform="matrix(.1 0 0 -.1 311.563636 431.051801)"><use xlink:href="#h"/><use x="63.623047" xlink:href="#g"/><use x="95.410156" xlink:href="#i"/></g></g><g><use stroke="#000" stroke-width=".8" x="334.466761" xlink:href="#m" y="388.66704"/><g transform="matrix(.1 0 0 -.1 311.563636 392.466259)"><use xlink:href="#h"/><use x="63.623047" xlink:href="#g"/><use x="95.410156" xlink:href="#j"/></g></g><g><use stroke="#000" stroke-width=".8" x="334.466761" xlink:href="#m" y="350.081498"/><g transform="matrix(.1 0 0 -.1 311.563636 353.880717)"><use xlink:href="#h"/><use x="63.623047" xlink:href="#g"/><use x="95.410156" xlink:href="#k"/></g></g><g><use stroke="#000" stroke-width=".8" x="334.466761" xlink:href="#m" y="311.495956"/><g transform="matrix(.1 0 0 -.1 311.563636 315.295175)"><use xlink:href="#h"/><use x="63.623047" xlink:href="#g"/><use x="95.410156" xlink:href="#l"/></g></g><g><use stroke="#000" stroke-width=".8" x="334.466761" xlink:href="#m" y="272.910414"/><g transform="matrix(.1 0 0 -.1 311.563636 276.709632)"><use xlink:href="#f"/><use x="63.623047" xlink:href="#g"/><use x="95.410156" xlink:href="#h"/></g></g></g></g><path d="m334.466761 465.838125v-201.6" fill="none" stroke="#000" stroke-linecap="square" stroke-linejoin="miter" stroke-width=".8"/><path d="m588.103125 465.838125v-201.6" fill="none" stroke="#000" stroke-linecap="square" stroke-linejoin="miter" stroke-width=".8"/><path d="m334.466761 465.838125h253.636364" fill="none" stroke="#000" stroke-linecap="square" stroke-linejoin="miter" stroke-width=".8"/><path d="m334.466761 264.238125h253.636364" fill="none" stroke="#000" stroke-linecap="square" stroke-linejoin="miter" stroke-width=".8"/><g stroke-linejoin="round" transform="matrix(.12 0 0 -.12 436.924943 258.238125)"><use transform="translate(0 .4375)" xlink:href="#n"/><use transform="translate(35.205078 .4375)" xlink:href="#o"/><use transform="translate(74.21875 .4375)" xlink:href="#p"/><use transform="translate(133.398438 .4375)" xlink:href="#q"/><use transform="translate(191.894531 .4375)" xlink:href="#r"/><path d="m48.09375 32.234375q.15625.78125.21875 1.609375.078125.828125.078125 1.65625 0 5.953125-3.5 9.421875-3.484375 3.46875-9.484375 3.46875-6.6875 0-11.828125-4.234375-5.125-4.21875-7.75-11.984375zm7.8125-7.03125h-41.796875q-.296875-1.859375-.390625-2.9375-.09375-1.078125-.09375-1.859375 0-6.78125 4.171875-10.5 4.171875-3.703125 11.796875-3.703125 5.859375 0 11.078125 1.3125 5.234375 1.328125 9.71875 3.859375l-1.703125-8.890625q-4.84375-1.953125-10-2.921875-5.140625-.984375-10.46875-.984375-11.375 0-17.5 5.4375-6.125 5.453125-6.125 15.46875 0 8.546875 3.046875 15.890625 3.046875 7.34375 8.96875 13.109375 3.796875 3.609375 9.046875 5.5625 5.25 1.953125 11.15625 1.953125 9.28125 0 14.765625-5.5625 5.5-5.5625 5.5-14.9375 0-2.25-.296875-4.8125-.28125-2.5625-.875-5.484375z" transform="translate(295.166016 .4375)"/><use transform="matrix(.7 0 0 .7 361.339349 38.71875)" xlink:href="#p"/></g></g></g></svg>