<?xml version="1.0" encoding="UTF-8" standalone="no"?>
<svg
   xmlns:dc="http://purl.org/dc/elements/1.1/"
   xmlns:cc="http://creativecommons.org/ns#"
   xmlns:rdf="http://www.w3.org/1999/02/22-rdf-syntax-ns#"
   xmlns:svg="http://www.w3.org/2000/svg"
   xmlns="http://www.w3.org/2000/svg"
   xmlns:sodipodi="http://sodipodi.sourceforge.net/DTD/sodipodi-0.dtd"
   xmlns:inkscape="http://www.inkscape.org/namespaces/inkscape"
   width="118.45083mm"
   height="81.980858mm"
   viewBox="-2.32658 -4.44599 5.5473229 3.8393476"
   onload="init(evt)"
   preserveAspectRatio="xMidYMid meet"
   version="1.1"
   id="svg153"
   sodipodi:docname="ellipse-normal-geometry.svg"
   inkscape:version="0.92.5 (2060ec1f9f, 2020-04-08)"
   inkscape:export-filename="/home/tomasi/bitmap.png"
   inkscape:export-xdpi="149.95695"
   inkscape:export-ydpi="149.95695">
  <metadata
     id="metadata159">
    <rdf:RDF>
      <cc:Work
         rdf:about="">
        <dc:format>image/svg+xml</dc:format>
        <dc:type
           rdf:resource="http://purl.org/dc/dcmitype/StillImage" />
        <dc:title />
      </cc:Work>
    </rdf:RDF>
  </metadata>
  <defs
     id="defs157">
    <marker
       inkscape:stockid="Arrow1Mstart"
       orient="auto"
       refY="0.0"
       refX="0.0"
       id="Arrow1Mstart"
       style="overflow:visible"
       inkscape:isstock="true">
      <path
         id="path1518"
         d="M 0.0,0.0 L 5.0,-5.0 L -12.5,0.0 L 5.0,5.0 L 0.0,0.0 z "
         style="fill-rule:evenodd;stroke:#000000;stroke-width:1pt;stroke-opacity:1;fill:#000000;fill-opacity:1"
         transform="scale(0.4) translate(10,0)" />
    </marker>
    <marker
       inkscape:isstock="true"
       style="overflow:visible"
       id="marker1802"
       refX="0"
       refY="0"
       orient="auto"
       inkscape:stockid="Arrow1Mend">
      <path
         transform="matrix(-0.4,0,0,-0.4,-4,0)"
         style="fill:#000000;fill-opacity:1;fill-rule:evenodd;stroke:#000000;stroke-width:1.00000003pt;stroke-opacity:1"
         d="M 0,0 5,-5 -12.5,0 5,5 Z"
         id="path1800"
         inkscape:connector-curvature="0" />
    </marker>
    <marker
       inkscape:stockid="Arrow1Mend"
       orient="auto"
       refY="0"
       refX="0"
       id="Arrow1Mend"
       style="overflow:visible"
       inkscape:isstock="true"
       inkscape:collect="always">
      <path
         id="path1521"
         d="M 0,0 5,-5 -12.5,0 5,5 Z"
         style="fill:#000000;fill-opacity:1;fill-rule:evenodd;stroke:#000000;stroke-width:1.00000003pt;stroke-opacity:1"
         transform="matrix(-0.4,0,0,-0.4,-4,0)"
         inkscape:connector-curvature="0" />
    </marker>
  </defs>
  <sodipodi:namedview
     pagecolor="#ffffff"
     bordercolor="#666666"
     borderopacity="1"
     objecttolerance="10"
     gridtolerance="10"
     guidetolerance="10"
     inkscape:pageopacity="0"
     inkscape:pageshadow="2"
     inkscape:window-width="1920"
     inkscape:window-height="1013"
     id="namedview155"
     showgrid="false"
     inkscape:zoom="0.90509668"
     inkscape:cx="110.20911"
     inkscape:cy="305.74759"
     inkscape:window-x="0"
     inkscape:window-y="41"
     inkscape:window-maximized="1"
     inkscape:current-layer="svg153"
     fit-margin-top="0"
     fit-margin-left="0"
     fit-margin-right="0"
     fit-margin-bottom="0"
     units="mm" />
  <script
     id="script2"> function init(evt){
  sh=0.01; doc = evt.getTarget().getOwnerDocument();
  rootEle = doc.getRootElement(); baseEle = doc.getElementById('root');
  b = baseEle.getBBox(); vb = rootEle.getAttribute('viewBox').split(' ');
  vxmin = parseFloat(vb[0]); vymin = parseFloat(vb[1]);
  vwidth = parseFloat(vb[2]); vheight = parseFloat(vb[3]);
  if (vxmin &lt; b.x) {b.x = vxmin; b.x -= b.width*sh; b.width += b.width*sh;}
  if (vymin &lt; b.y) {b.y = vymin; b.y -= b.height*sh; b.height += b.height*sh;}     
  if (vxmin + vwidth &gt; b.x + b.width) {b.width = vxmin + vwidth - b.x; b.width += b.width*sh;} 
  if (vymin + vheight &gt; b.y + b.height) {b.height = vymin + vheight - b.y; b.height += b.height*sh; }
  ar = parseFloat( rootEle.getAttribute('height'))/parseFloat( rootEle.getAttribute('width'));
  if ( b.height/b.width &lt; ar) { b.y -= (b.width*ar - b.height)/2.0; b.height = b.width*ar;}
  else { b.x -= (b.height/ar - b.width)/2.0; b.width = b.height/ar;}
  baseEle.setAttribute('transform', 'scale(1, -1) translate(0,' + (-b.y - b.y - b.height) + ')');
  rootEle.setAttribute('viewBox', ''+b.x+' '+b.y+' '+b.width+' '+b.height) }  
</script>
  <ellipse
     style="fill:#e2e2e2;fill-opacity:1;stroke:#000000;stroke-width:0.01687979;stroke-linecap:round;stroke-linejoin:miter;stroke-miterlimit:4;stroke-dasharray:none;stroke-dashoffset:0;stroke-opacity:1"
     id="path1286"
     cx="0.44183284"
     cy="-2.223932"
     rx="1.9973598"
     ry="0.99873334" />
  <path
     style="fill:none;stroke:#000000;stroke-width:0.01239104px;stroke-linecap:butt;stroke-linejoin:miter;stroke-opacity:1"
     d="M 0.78046711,-0.8625565 1.6714964,-4.4444944"
     id="path1117"
     inkscape:connector-curvature="0" />
  <path
     style="fill:none;stroke:#999999;stroke-width:0.01239104px;stroke-linecap:butt;stroke-linejoin:miter;stroke-opacity:1"
     d="M 2.451781,-2.8436221 0.05394909,-3.4431141"
     id="path1119"
     inkscape:connector-curvature="0" />
  <path
     id="path1199"
     d="m 2.9765299,-2.4591381 1.667e-4,-7.226e-4 2.224e-4,-8.337e-4 2.223e-4,-8.893e-4 2.223e-4,-0.001 3.335e-4,-0.00106 3.335e-4,-0.00117 3.335e-4,-0.00122 3.891e-4,-0.00122 4.447e-4,-0.00128 5.002e-4,-0.00133 5.558e-4,-0.00139 5.558e-4,-0.00133 6.114e-4,-0.00139 6.67e-4,-0.00139 7.226e-4,-0.00139 7.782e-4,-0.00139 8.337e-4,-0.00133 8.337e-4,-0.00133 9.449e-4,-0.00128 10e-4,-0.00122 10e-4,-0.00122 0.00111,-0.00111 0.00117,-0.00106 0.00122,-10e-4 0.00128,-8.893e-4 0.00139,-7.781e-4 6.67e-4,-3.891e-4 7.226e-4,-3.335e-4 7.782e-4,-2.779e-4 7.225e-4,-2.779e-4 7.782e-4,-2.779e-4 7.781e-4,-2.224e-4 8.338e-4,-1.667e-4 8.337e-4,-1.668e-4 8.337e-4,-1.111e-4 8.894e-4,-1.112e-4 8.893e-4,-5.56e-5 h 8.893e-4 c 0.00139,0 0.008,0 0.013784,0.00356 -0.00773,0.00139 -0.013284,0.00834 -0.013284,0.014952 0,0.00439 0.00306,0.00973 0.010505,0.00973 0.00611,0 0.014952,-0.00495 0.014952,-0.016063 0,-0.014451 -0.016341,-0.018231 -0.025735,-0.018231 -0.016063,0 -0.02579,0.014674 -0.02907,0.02101 -0.00695,-0.018231 -0.021899,-0.02101 -0.029848,-0.02101 -0.028847,0 -0.044688,0.035684 -0.044688,0.042632 0,0.00278 0.00278,0.00278 0.00339,0.00278 0.00217,0 0.00306,-6.114e-4 0.00356,-0.00306 0.00939,-0.029348 0.027736,-0.036295 0.037129,-0.036295 0.00528,0 0.014896,0.00245 0.014896,0.018509 0,0.00856 -0.00467,0.02718 -0.014896,0.065921 -0.00445,0.017175 -0.014118,0.028792 -0.026346,0.028792 -0.00167,0 -0.008,0 -0.013784,-0.00361 0.00695,-0.00133 0.013006,-0.00711 0.013006,-0.014952 0,-0.00745 -0.00606,-0.00962 -0.010227,-0.00962 -0.00834,0 -0.015285,0.00717 -0.015285,0.016063 0,0.012673 0.013896,0.018231 0.026012,0.018231 0.018342,0 0.028236,-0.019398 0.029125,-0.02101 0.00328,0.010227 0.013284,0.02101 0.029848,0.02101 0.028569,0 0.04441,-0.035684 0.04441,-0.042632 0,-0.00278 -0.0025,-0.00278 -0.00339,-0.00278 -0.00245,0 -0.00306,0.00111 -0.00356,0.003 -0.00912,0.029625 -0.027958,0.036295 -0.036851,0.036295 -0.010838,0 -0.015285,-0.00884 -0.015285,-0.018287 0,-0.00611 0.00167,-0.012173 0.00478,-0.024345 z"
     inkscape:connector-curvature="0"
     style="font-style:normal;font-variant:normal;font-weight:normal;font-stretch:normal;letter-spacing:normal;word-spacing:normal;text-anchor:start;fill:#000000;fill-opacity:1;fill-rule:evenodd;stroke:#000000;stroke-width:0;stroke-linecap:butt;stroke-linejoin:miter;stroke-miterlimit:10.43299961;stroke-dasharray:none;stroke-dashoffset:0;stroke-opacity:1" />
  <path
     id="path1201"
     d="m 0.68192119,-3.9321527 5.56e-5,-1.667e-4 5.56e-5,-2.224e-4 5.56e-5,-3.335e-4 1.112e-4,-2.779e-4 5.55e-5,-3.335e-4 5.56e-5,-2.779e-4 5.56e-5,-2.223e-4 1.112e-4,-2.779e-4 5.56e-5,-2.223e-4 5.55e-5,-2.224e-4 v -2.223e-4 l 5.56e-5,-2.223e-4 5.56e-5,-2.224e-4 5.56e-5,-1.667e-4 V -3.93571 l 5.56e-5,-1.667e-4 v -1.668e-4 l 5.55e-5,-1.667e-4 v -1.667e-4 l 5.56e-5,-2.78e-4 v -3.335e-4 -2.779e-4 -2.779e-4 -2.779e-4 -1.667e-4 -1.668e-4 -1.667e-4 -1.668e-4 c 0,-0.00506 -0.00378,-0.0075 -0.00795,-0.0075 -0.00278,0 -0.00723,0.00167 -0.00973,0.00584 -5.558e-4,0.00139 -0.00278,0.00989 -0.00384,0.014952 -0.002,0.00717 -0.00389,0.014674 -0.00556,0.022122 l -0.012506,0.049857 c -0.00106,0.00417 -0.012951,0.023511 -0.031293,0.023511 -0.014062,0 -0.017175,-0.012117 -0.017175,-0.0224 0,-0.012728 0.00478,-0.029959 0.014174,-0.054248 0.00439,-0.011394 0.00556,-0.014451 0.00556,-0.02001 0,-0.012395 -0.00884,-0.022622 -0.022733,-0.022622 -0.026346,0 -0.036573,0.040075 -0.036573,0.042632 0,0.00278 0.00278,0.00278 0.00339,0.00278 0.00278,0 0.003,-6.114e-4 0.00439,-0.00506 0.0075,-0.026068 0.018509,-0.034294 0.027958,-0.034294 0.00222,0 0.00695,0 0.00695,0.00884 0,0.00695 -0.00278,0.014062 -0.00472,0.019398 -0.011061,0.029348 -0.016119,0.045133 -0.016119,0.058195 0,0.024567 0.017508,0.032905 0.033794,0.032905 0.010839,0 0.020232,-0.00472 0.027958,-0.01245 -0.00356,0.01434 -0.00684,0.027958 -0.017953,0.042687 -0.00723,0.00934 -0.017731,0.017453 -0.030459,0.017453 -0.00384,0 -0.016341,-8.893e-4 -0.021066,-0.011672 0.00445,0 0.00811,0 0.011895,-0.00339 0.00278,-0.00239 0.00556,-0.00606 0.00556,-0.011283 0,-0.00862 -0.00745,-0.00973 -0.010227,-0.00973 -0.00634,0 -0.015563,0.00445 -0.015563,0.018009 0,0.013896 0.012284,0.024123 0.029403,0.024123 0.028514,0 0.057028,-0.02529 0.064865,-0.056527 z"
     inkscape:connector-curvature="0"
     style="font-style:normal;font-variant:normal;font-weight:normal;font-stretch:normal;letter-spacing:normal;word-spacing:normal;text-anchor:start;fill:#000000;fill-opacity:1;fill-rule:evenodd;stroke:#000000;stroke-width:0;stroke-linecap:butt;stroke-linejoin:miter;stroke-miterlimit:10.43299961;stroke-dasharray:none;stroke-dashoffset:0;stroke-opacity:1" />
  <g
     id="g1493"
     transform="translate(-0.17797366,-0.1326279)">
    <path
       style="font-style:normal;font-variant:normal;font-weight:normal;font-stretch:normal;letter-spacing:normal;word-spacing:normal;text-anchor:start;fill:#000000;fill-opacity:1;fill-rule:evenodd;stroke:#000000;stroke-width:0;stroke-linecap:butt;stroke-linejoin:miter;stroke-miterlimit:10.43299961;stroke-dasharray:none;stroke-dashoffset:0;stroke-opacity:1"
       inkscape:connector-curvature="0"
       d="m -1.4012537,-3.4641127 5.56e-5,-1.667e-4 5.55e-5,-2.224e-4 1.112e-4,-3.335e-4 5.56e-5,-2.779e-4 1.111e-4,-3.335e-4 5.56e-5,-2.779e-4 5.56e-5,-2.223e-4 5.56e-5,-2.779e-4 5.56e-5,-2.223e-4 5.56e-5,-2.224e-4 5.55e-5,-2.223e-4 5.56e-5,-2.223e-4 5.56e-5,-2.224e-4 v -1.667e-4 l 5.56e-5,-1.668e-4 v -1.667e-4 l 5.56e-5,-1.668e-4 v -1.667e-4 l 5.56e-5,-1.667e-4 v -2.78e-4 l 5.55e-5,-3.335e-4 v -2.779e-4 -2.779e-4 -2.779e-4 -1.667e-4 -1.668e-4 -1.667e-4 -1.668e-4 c 0,-0.00506 -0.00384,-0.0075 -0.008,-0.0075 -0.00278,0 -0.00717,0.00167 -0.00973,0.00584 -5.003e-4,0.00139 -0.00278,0.00989 -0.00378,0.014952 -0.002,0.00717 -0.00395,0.014674 -0.00556,0.022122 l -0.012506,0.049857 c -0.00106,0.00417 -0.012951,0.023511 -0.031293,0.023511 -0.014062,0 -0.017175,-0.012117 -0.017175,-0.0224 0,-0.012728 0.00478,-0.029959 0.014173,-0.054248 0.00439,-0.011394 0.00556,-0.014451 0.00556,-0.02001 0,-0.012395 -0.00889,-0.022622 -0.022789,-0.022622 -0.02629,0 -0.036573,0.040075 -0.036573,0.042632 0,0.00278 0.00278,0.00278 0.00339,0.00278 0.00278,0 0.00306,-6.114e-4 0.00445,-0.00506 0.00745,-0.026068 0.018509,-0.034294 0.027958,-0.034294 0.00217,0 0.00695,0 0.00695,0.00884 0,0.00695 -0.00278,0.014062 -0.00478,0.019398 -0.011005,0.029348 -0.016063,0.045133 -0.016063,0.058195 0,0.024567 0.017453,0.032905 0.033794,0.032905 0.010839,0 0.020232,-0.00472 0.027958,-0.01245 -0.00356,0.01434 -0.00684,0.027958 -0.017953,0.042687 -0.00723,0.00934 -0.017731,0.017453 -0.030515,0.017453 -0.00384,0 -0.016341,-8.893e-4 -0.02101,-0.011672 0.00445,0 0.00806,0 0.011895,-0.00339 0.00278,-0.00239 0.00556,-0.00606 0.00556,-0.011283 0,-0.00862 -0.00745,-0.00973 -0.010227,-0.00973 -0.00634,0 -0.015563,0.00445 -0.015563,0.018009 0,0.013896 0.012228,0.024123 0.029348,0.024123 0.028569,0 0.057083,-0.02529 0.064865,-0.056527 z"
       id="path1203" />
    <path
       style="font-style:normal;font-variant:normal;font-weight:normal;font-stretch:normal;letter-spacing:normal;word-spacing:normal;text-anchor:start;fill:#000000;fill-opacity:1;fill-rule:evenodd;stroke:#000000;stroke-width:0;stroke-linecap:butt;stroke-linejoin:miter;stroke-miterlimit:10.43299961;stroke-dasharray:none;stroke-dashoffset:0;stroke-opacity:1"
       inkscape:connector-curvature="0"
       d="m -1.1227859,-3.4492166 h 7.226e-4 8.337e-4 7.782e-4 l 4.446e-4,-5.56e-5 h 3.891e-4 l 3.891e-4,-5.56e-5 3.89e-4,-5.55e-5 3.891e-4,-5.56e-5 3.891e-4,-5.56e-5 3.891e-4,-5.56e-5 3.891e-4,-1.112e-4 3.334e-4,-1.111e-4 3.335e-4,-1.112e-4 3.335e-4,-1.112e-4 3.335e-4,-1.667e-4 3.335e-4,-1.667e-4 2.779e-4,-2.224e-4 2.779e-4,-1.667e-4 2.78e-4,-2.779e-4 2.223e-4,-2.224e-4 2.223e-4,-2.779e-4 1.112e-4,-1.667e-4 1.112e-4,-1.668e-4 5.55e-5,-1.111e-4 1.112e-4,-1.668e-4 5.56e-5,-1.667e-4 1.111e-4,-2.224e-4 5.56e-5,-1.667e-4 5.56e-5,-2.223e-4 5.56e-5,-1.668e-4 5.56e-5,-2.223e-4 5.56e-5,-2.223e-4 v -2.224e-4 l 5.55e-5,-2.223e-4 v -2.223e-4 -2.224e-4 -2.779e-4 c 0,-0.00556 -0.00528,-0.00556 -0.00912,-0.00556 H -1.288426 c -0.00389,0 -0.00912,0 -0.00912,0.00556 0,0.00545 0.00522,0.00545 0.00939,0.00545 z"
       id="path1205" />
    <path
       style="font-style:normal;font-variant:normal;font-weight:normal;font-stretch:normal;letter-spacing:normal;word-spacing:normal;text-anchor:start;fill:#000000;fill-opacity:1;fill-rule:evenodd;stroke:#000000;stroke-width:0;stroke-linecap:butt;stroke-linejoin:miter;stroke-miterlimit:10.43299961;stroke-dasharray:none;stroke-dashoffset:0;stroke-opacity:1"
       inkscape:connector-curvature="0"
       d="m -1.1225636,-3.3954128 h 3.891e-4 3.335e-4 l 7.782e-4,-5.56e-5 h 7.781e-4 3.891e-4 l 3.891e-4,-5.56e-5 3.89e-4,-5.56e-5 h 3.891e-4 l 3.335e-4,-5.56e-5 3.891e-4,-1.111e-4 3.891e-4,-5.56e-5 3.335e-4,-1.112e-4 3.89e-4,-1.111e-4 3.335e-4,-1.112e-4 3.335e-4,-1.112e-4 3.335e-4,-1.667e-4 2.779e-4,-1.668e-4 2.779e-4,-2.223e-4 2.779e-4,-2.223e-4 2.78e-4,-2.224e-4 2.223e-4,-2.779e-4 1.112e-4,-1.111e-4 1.111e-4,-1.668e-4 1.112e-4,-1.111e-4 1.112e-4,-1.668e-4 5.55e-5,-1.667e-4 1.112e-4,-1.668e-4 5.56e-5,-1.667e-4 1.111e-4,-1.668e-4 5.56e-5,-2.223e-4 5.56e-5,-1.668e-4 5.56e-5,-2.223e-4 5.56e-5,-2.223e-4 5.56e-5,-2.223e-4 v -2.224e-4 l 5.55e-5,-2.223e-4 v -2.223e-4 -2.779e-4 -2.224e-4 c 0,-0.00556 -0.00528,-0.00556 -0.00934,-0.00556 h -0.1653576 c -0.00417,0 -0.00939,0 -0.00939,0.00556 0,0.00556 0.00522,0.00556 0.00912,0.00556 z"
       id="path1207" />
    <path
       style="font-style:normal;font-variant:normal;font-weight:normal;font-stretch:normal;letter-spacing:normal;word-spacing:normal;text-anchor:start;fill:#000000;fill-opacity:1;fill-rule:evenodd;stroke:#000000;stroke-width:0;stroke-linecap:butt;stroke-linejoin:miter;stroke-miterlimit:10.43299961;stroke-dasharray:none;stroke-dashoffset:0;stroke-opacity:1"
       inkscape:connector-curvature="0"
       d="m -0.83848193,-3.4222591 h 8.8932e-4 8.3374e-4 l 8.8931e-4,-5.56e-5 h 4.4466e-4 l 4.4466e-4,-5.56e-5 h 3.8908e-4 l 4.4466e-4,-5.56e-5 3.8908e-4,-5.56e-5 3.8907e-4,-5.55e-5 3.8908e-4,-1.112e-4 3.8908e-4,-1.112e-4 3.8907e-4,-1.111e-4 3.335e-4,-1.112e-4 3.3349e-4,-1.112e-4 3.335e-4,-1.667e-4 2.7791e-4,-1.668e-4 3.3349e-4,-2.223e-4 2.7791e-4,-1.667e-4 2.2233e-4,-2.78e-4 2.2233e-4,-2.223e-4 2.2233e-4,-2.779e-4 1.1117e-4,-1.667e-4 1.1116e-4,-1.668e-4 5.559e-5,-1.667e-4 1.1116e-4,-1.668e-4 5.558e-5,-1.667e-4 5.559e-5,-1.668e-4 1.1116e-4,-2.223e-4 5.558e-5,-1.668e-4 5.558e-5,-2.223e-4 v -2.223e-4 l 5.559e-5,-2.223e-4 5.558e-5,-2.224e-4 v -2.223e-4 -2.223e-4 l 5.558e-5,-2.779e-4 v -2.224e-4 c 0,-0.00556 -0.005058,-0.00556 -0.009727,-0.00556 h -0.14985015 c -0.004669,0 -0.009616,0 -0.009616,0.00556 0,0.00556 0.004947,0.00556 0.009616,0.00556 z"
       id="path1209" />
    <path
       style="font-style:normal;font-variant:normal;font-weight:normal;font-stretch:normal;letter-spacing:normal;word-spacing:normal;text-anchor:start;fill:#000000;fill-opacity:1;fill-rule:evenodd;stroke:#000000;stroke-width:0;stroke-linecap:butt;stroke-linejoin:miter;stroke-miterlimit:10.43299961;stroke-dasharray:none;stroke-dashoffset:0;stroke-opacity:1"
       inkscape:connector-curvature="0"
       d="m -0.70725188,-3.5905071 v -2.223e-4 -2.223e-4 -2.779e-4 -2.224e-4 -1.667e-4 -2.223e-4 -2.224e-4 -1.667e-4 l -5.558e-5,-2.223e-4 v -1.668e-4 -1.667e-4 -1.668e-4 -1.667e-4 l -5.559e-5,-1.668e-4 v -1.667e-4 l -5.558e-5,-1.112e-4 v -1.667e-4 -1.112e-4 l -5.558e-5,-1.668e-4 v -1.111e-4 l -1.1117e-4,-2.223e-4 -5.558e-5,-2.224e-4 -1.1116e-4,-1.667e-4 -1.1117e-4,-1.668e-4 -1.1116e-4,-1.667e-4 -1.1117e-4,-1.668e-4 -1.6674e-4,-1.111e-4 -1.6675e-4,-1.112e-4 -2.2233e-4,-1.112e-4 -1.6675e-4,-5.55e-5 -2.2233e-4,-5.56e-5 -2.7791e-4,-1.112e-4 h -1.1117e-4 -1.6674e-4 l -1.1117e-4,-5.56e-5 h -1.6674e-4 l -1.6675e-4,-5.56e-5 h -1.1117e-4 -1.6674e-4 -1.6675e-4 -2.2233e-4 l -1.6675e-4,-5.55e-5 h -1.6674e-4 -2.2233e-4 -2.2233e-4 -1.6675e-4 -2.2233e-4 -2.2233e-4 -2.2233e-4 -2.7791e-4 -2.2233e-4 -2.7791e-4 c -0.0123949,0.012228 -0.0299589,0.012395 -0.0379628,0.012395 v 0.00695 c 0.004724,0 0.0175085,0 0.0280691,-0.00539 v 0.09877 c 0,0.00645 0,0.00895 -0.0193427,0.00895 h -0.007337 v 0.00695 c 0.003502,-1.667e-4 0.027291,-7.781e-4 0.0345167,-7.781e-4 0.006003,0 0.0304036,6.114e-4 0.0346278,7.781e-4 v -0.00695 h -0.007337 c -0.0193983,0 -0.0193983,-0.0025 -0.0193983,-0.00895 z"
       id="path1211" />
    <polyline
       transform="matrix(0.00555824,0,0,-0.00555824,-4.9254558,-1.112866)"
       style="font-style:normal;font-variant:normal;font-weight:normal;font-stretch:normal;letter-spacing:normal;word-spacing:normal;text-anchor:start;fill:#000000;fill-opacity:1;fill-rule:nonzero;stroke:#000000;stroke-width:0;stroke-linecap:butt;stroke-linejoin:miter;stroke-miterlimit:10.43299961;stroke-dasharray:none;stroke-dashoffset:0;stroke-opacity:1"
       points="747,415 766.92,415 766.92,417.04 747,417.04 "
       id="polyline1213" />
    <path
       style="font-style:normal;font-variant:normal;font-weight:normal;font-stretch:normal;letter-spacing:normal;word-spacing:normal;text-anchor:start;fill:#000000;fill-opacity:1;fill-rule:evenodd;stroke:#000000;stroke-width:0;stroke-linecap:butt;stroke-linejoin:miter;stroke-miterlimit:10.43299961;stroke-dasharray:none;stroke-dashoffset:0;stroke-opacity:1"
       inkscape:connector-curvature="0"
       d="m -0.6696226,-3.294364 v -0.00695 h -0.021566 v -0.086431 c 0,-0.004 0,-0.00539 -0.00428,-0.00539 -0.002334,0 -0.003113,0 -0.005002,0.00272 l -0.0640865,0.089099 v 0.00695 h 0.056972 l 0.001278,-0.00695 h -0.0511358 l 0.0511358,-0.070868 v 0.070868 l -0.001278,0.00695 v 0.015896 c 0,0.00661 0,0.00895 -0.0157298,0.00895 h -0.005225 v 0.00695 c 0.009671,-3.335e-4 0.0220662,-7.782e-4 0.029014,-7.782e-4 0.007226,0 0.019565,4.447e-4 0.0292919,7.782e-4 v -0.00695 h -0.005225 c -0.0157298,0 -0.0157298,-0.00233 -0.0157298,-0.00895 v -0.015896 z"
       id="path1215" />
    <path
       style="font-style:normal;font-variant:normal;font-weight:normal;font-stretch:normal;letter-spacing:normal;word-spacing:normal;text-anchor:start;fill:#000000;fill-opacity:1;fill-rule:evenodd;stroke:#000000;stroke-width:0;stroke-linecap:butt;stroke-linejoin:miter;stroke-miterlimit:10.43299961;stroke-dasharray:none;stroke-dashoffset:0;stroke-opacity:1"
       inkscape:connector-curvature="0"
       d="m -0.53622484,-3.4422688 1.6675e-4,-7.226e-4 2.2233e-4,-8.337e-4 2.2233e-4,-8.893e-4 2.2233e-4,-10e-4 3.3349e-4,-0.00106 3.335e-4,-0.00117 3.3349e-4,-0.00122 3.8908e-4,-0.00122 4.4466e-4,-0.00128 5.0024e-4,-0.00133 5.5582e-4,-0.00139 5.5583e-4,-0.00133 6.114e-4,-0.00139 6.6699e-4,-0.00139 7.2257e-4,-0.00139 7.7816e-4,-0.00139 7.7815e-4,-0.00133 8.8932e-4,-0.00133 9.449e-4,-0.00128 0.001,-0.00122 0.001,-0.00122 0.001112,-0.00111 0.001167,-0.00106 0.001223,-0.001 0.001278,-8.893e-4 0.00139,-7.781e-4 6.6699e-4,-3.891e-4 7.2257e-4,-3.335e-4 7.7816e-4,-2.779e-4 7.2257e-4,-2.779e-4 7.7815e-4,-2.779e-4 7.7816e-4,-2.224e-4 8.3373e-4,-1.667e-4 8.3374e-4,-1.668e-4 8.3373e-4,-1.111e-4 8.8932e-4,-1.112e-4 8.3374e-4,-5.56e-5 h 9.449e-4 c 0.00139,0 0.007948,0 0.0137844,0.00356 -0.007726,0.00139 -0.0132842,0.00834 -0.0132842,0.014952 0,0.00439 0.003057,0.00973 0.0105051,0.00973 0.006114,0 0.0149517,-0.00495 0.0149517,-0.016063 0,-0.014451 -0.0163412,-0.018231 -0.0257347,-0.018231 -0.0160633,0 -0.0257902,0.014674 -0.0290696,0.02101 -0.006948,-0.018231 -0.0218995,-0.02101 -0.0299033,-0.02101 -0.0287917,0 -0.0446327,0.035684 -0.0446327,0.042632 0,0.00278 0.002779,0.00278 0.003391,0.00278 0.002168,0 0.003057,-6.114e-4 0.003557,-0.00306 0.009393,-0.029348 0.0277356,-0.036295 0.037129,-0.036295 0.00528,0 0.0148961,0.00245 0.0148961,0.018509 0,0.00856 -0.004669,0.02718 -0.0148961,0.065921 -0.004447,0.017175 -0.0141179,0.028792 -0.0263461,0.028792 -0.001667,0 -0.008004,0 -0.0137844,-0.00361 0.006948,-0.00133 0.0130063,-0.00711 0.0130063,-0.014952 0,-0.00745 -0.006058,-0.00962 -0.0102272,-0.00962 -0.008337,0 -0.0152852,0.00717 -0.0152852,0.016063 0,0.012673 0.0138956,0.018231 0.0260126,0.018231 0.0183422,0 0.0282359,-0.019398 0.0291252,-0.02101 0.003279,0.010227 0.0132842,0.02101 0.0298477,0.02101 0.0285694,0 0.0444103,-0.035684 0.0444103,-0.042632 0,-0.00278 -0.002557,-0.00278 -0.003391,-0.00278 -0.002446,0 -0.003057,0.00111 -0.003557,0.003 -0.009116,0.029625 -0.0279579,0.036295 -0.0368511,0.036295 -0.0108386,0 -0.0152852,-0.00884 -0.0152852,-0.018287 0,-0.00611 0.001667,-0.012173 0.00478,-0.024345 z"
       id="path1217" />
    <path
       style="font-style:normal;font-variant:normal;font-weight:normal;font-stretch:normal;letter-spacing:normal;word-spacing:normal;text-anchor:start;fill:#000000;fill-opacity:1;fill-rule:evenodd;stroke:#000000;stroke-width:0;stroke-linecap:butt;stroke-linejoin:miter;stroke-miterlimit:10.43299961;stroke-dasharray:none;stroke-dashoffset:0;stroke-opacity:1"
       inkscape:connector-curvature="0"
       d="m -0.2953863,-3.4222591 h 0.0773151 c 0.00378,0 0.009116,0 0.009116,-0.00556 0,-0.00556 -0.005336,-0.00556 -0.009116,-0.00556 h -0.0773151 v -0.077593 c 0,-0.00378 0,-0.00912 -0.005558,-0.00912 -0.005447,0 -0.005447,0.00534 -0.005447,0.00912 v 0.077593 h -0.077593 c -0.003891,0 -0.009116,0 -0.009116,0.00556 0,0.00556 0.005225,0.00556 0.009116,0.00556 h 0.077593 v 0.077482 c 0,0.00389 0,0.00917 0.005447,0.00917 0.005558,0 0.005558,-0.00528 0.005558,-0.00917 z"
       id="path1219" />
    <path
       style="font-style:normal;font-variant:normal;font-weight:normal;font-stretch:normal;letter-spacing:normal;word-spacing:normal;text-anchor:start;fill:#000000;fill-opacity:1;fill-rule:evenodd;stroke:#000000;stroke-width:0;stroke-linecap:butt;stroke-linejoin:miter;stroke-miterlimit:10.43299961;stroke-dasharray:none;stroke-dashoffset:0;stroke-opacity:1"
       inkscape:connector-curvature="0"
       d="m -0.01330562,-3.465669 -0.03796278,-0.07537 c -9.449e-4,-0.00189 -0.0015563,-0.00306 -0.0031126,-0.00306 -7.7815e-4,0 -0.0011672,0 -0.0031682,0.0015 l -0.02062107,0.013784 c -0.0027235,0.00178 -0.0027235,0.00272 -0.0027235,0.00333 0,0.00111 9.449e-4,0.00267 0.0027235,0.00267 7.7816e-4,0 0.0011116,0 0.0036129,-0.00172 0.0021677,-0.00156 0.0077259,-0.0055 0.01006041,-0.00706 l 0.04252054,0.083763 c 0.0012784,0.00283 0.0017231,0.00328 0.004391,0.00328 0.0017231,0 0.0038352,0 0.0058361,-0.00372 l 0.09732478,-0.1812542 c 0.0016119,-0.0025 0.0016119,-0.00289 0.0016119,-0.00389 0,-0.00306 -0.0025568,-0.00478 -0.0046133,-0.00478 -0.0029459,0 -0.0039464,0.00172 -0.005058,0.00406 z"
       id="path1221" />
    <polyline
       transform="matrix(0.00555824,0,0,-0.00555824,-4.9254558,-1.112866)"
       style="font-style:normal;font-variant:normal;font-weight:normal;font-stretch:normal;letter-spacing:normal;word-spacing:normal;text-anchor:start;fill:#000000;fill-opacity:1;fill-rule:nonzero;stroke:#000000;stroke-width:0;stroke-linecap:butt;stroke-linejoin:miter;stroke-miterlimit:10.43299961;stroke-dasharray:none;stroke-dashoffset:0;stroke-opacity:1"
       points="901,453 920.92,453 920.92,454.8 901,454.8 "
       id="polyline1223" />
    <path
       style="font-style:normal;font-variant:normal;font-weight:normal;font-stretch:normal;letter-spacing:normal;word-spacing:normal;text-anchor:start;fill:#000000;fill-opacity:1;fill-rule:evenodd;stroke:#000000;stroke-width:0;stroke-linecap:butt;stroke-linejoin:miter;stroke-miterlimit:10.43299961;stroke-dasharray:none;stroke-dashoffset:0;stroke-opacity:1"
       inkscape:connector-curvature="0"
       d="m 0.1129776,-3.5760556 9.449e-4,2.779e-4 8.8931e-4,1.667e-4 8.3374e-4,2.224e-4 8.3374e-4,1.667e-4 8.3373e-4,1.667e-4 7.7816e-4,1.668e-4 7.7815e-4,1.667e-4 7.7815e-4,1.668e-4 7.2257e-4,1.112e-4 7.2258e-4,1.111e-4 6.6698e-4,1.112e-4 6.6699e-4,1.111e-4 6.6699e-4,5.56e-5 6.1141e-4,1.112e-4 6.114e-4,5.56e-5 5.5583e-4,5.56e-5 5.5582e-4,5.55e-5 5.5583e-4,5.56e-5 5.5582e-4,5.56e-5 h 5.0024e-4 l 5.0024e-4,5.56e-5 h 4.4466e-4 l 4.4466e-4,5.56e-5 h 4.4466e-4 4.4466e-4 3.8908e-4 l 3.8907e-4,5.56e-5 h 3.8908e-4 3.335e-4 3.3349e-4 2.7791e-4 3.335e-4 c 0.0255123,0 0.0406307,-0.017453 0.0406307,-0.020454 0,-0.00206 -0.001278,-0.00267 -0.002223,-0.00267 -4.4465e-4,0 -8.3373e-4,0 -0.001612,6.114e-4 -0.004669,0.00172 -0.0148961,0.00567 -0.0292363,0.00567 -0.005391,0 -0.0157298,-4.447e-4 -0.028347,-0.00534 -0.00189,-9.449e-4 -0.002223,-9.449e-4 -0.002501,-9.449e-4 -0.002501,0 -0.002501,0.00217 -0.002501,0.00522 v 0.057139 c 0,0.00328 0,0.00567 0.003113,0.00567 0.001723,0 0.00189,-3.89e-4 0.003891,-0.00272 0.008337,-0.010672 0.0201764,-0.012228 0.0269575,-0.012228 0.0115611,0 0.0168415,0.00928 0.0177864,0.010838 0.003502,0.00645 0.004613,0.013729 0.004613,0.025012 0,0.00584 0,0.017175 -0.005836,0.025735 -0.00478,0.007 -0.0131174,0.011617 -0.0225665,0.011617 -0.0126172,0 -0.0256235,-0.00695 -0.0304592,-0.019732 0.007337,5.559e-4 0.0110053,-0.00422 0.0110053,-0.00945 0,-0.00834 -0.007115,-0.00989 -0.009616,-0.00989 -3.8907e-4,0 -0.0097269,0 -0.0097269,0.010394 0,0.017453 0.01584099,0.034906 0.03913001,0.034906 0.0247898,0 0.0464669,-0.018398 0.0464669,-0.042798 0,-0.021899 -0.0166747,-0.04202 -0.0406307,-0.04202 -0.008504,0 -0.0185645,0.00206 -0.0271242,0.00945 z"
       id="path1225" />
    <polyline
       transform="matrix(0.00555824,0,0,-0.00555824,-4.9254558,-1.112866)"
       style="font-style:normal;font-variant:normal;font-weight:normal;font-stretch:normal;letter-spacing:normal;word-spacing:normal;text-anchor:start;fill:#000000;fill-opacity:1;fill-rule:nonzero;stroke:#000000;stroke-width:0;stroke-linecap:butt;stroke-linejoin:miter;stroke-miterlimit:10.43299961;stroke-dasharray:none;stroke-dashoffset:0;stroke-opacity:1"
       points="868,415 920.68,415 920.68,417.04 868,417.04 "
       id="polyline1227" />
    <path
       style="font-style:normal;font-variant:normal;font-weight:normal;font-stretch:normal;letter-spacing:normal;word-spacing:normal;text-anchor:start;fill:#000000;fill-opacity:1;fill-rule:evenodd;stroke:#000000;stroke-width:0;stroke-linecap:butt;stroke-linejoin:miter;stroke-miterlimit:10.43299961;stroke-dasharray:none;stroke-dashoffset:0;stroke-opacity:1"
       inkscape:connector-curvature="0"
       d="m 0.09002206,-3.2978657 h -0.0065587 c -5.5582e-4,0.00428 -0.0025012,0.01573 -0.005058,0.017675 -0.0014451,0.00111 -0.01639681,0.00111 -0.01912034,0.00111 H 0.0236011 c 0.02034315,-0.017953 0.02712421,-0.023345 0.03874093,-0.03246 0.01434026,-0.011506 0.02768003,-0.023456 0.02768003,-0.041909 0,-0.0234 -0.02045432,-0.03774 -0.04529965,-0.03774 -0.02395602,0 -0.04029724,0.016841 -0.04029724,0.034628 0,0.00989 0.00833736,0.010894 0.01033832,0.010894 0.0046133,0 0.01022717,-0.00333 0.01022717,-0.010283 0,-0.00345 -0.0013896,-0.010227 -0.01144998,-0.010227 0.0060029,-0.013729 0.01917593,-0.018009 0.02829144,-0.018009 0.01939826,0 0.02945868,0.015063 0.02945868,0.030737 0,0.016897 -0.0120058,0.030237 -0.01823103,0.037185 l -0.04663364,0.046133 c -0.00200096,0.00172 -0.00200096,0.00217 -0.00200096,0.00756 h 0.07981632 z"
       id="path1229" />
  </g>
  <g
     id="g1506"
     transform="translate(-0.49383765,-0.77655809)">
    <path
       style="font-style:normal;font-variant:normal;font-weight:normal;font-stretch:normal;letter-spacing:normal;word-spacing:normal;text-anchor:start;fill:#000000;fill-opacity:1;fill-rule:evenodd;stroke:#000000;stroke-width:0;stroke-linecap:butt;stroke-linejoin:miter;stroke-miterlimit:10.43299961;stroke-dasharray:none;stroke-dashoffset:0;stroke-opacity:1"
       inkscape:connector-curvature="0"
       d="m 0.63834244,-3.4641127 v -1.667e-4 -2.224e-4 l 5.5582e-4,-3.335e-4 v -2.779e-4 -3.335e-4 -2.779e-4 -2.223e-4 -2.779e-4 -2.223e-4 -2.224e-4 -2.223e-4 l 5.5583e-4,-2.223e-4 v -2.224e-4 -1.667e-4 -1.668e-4 -1.667e-4 -1.668e-4 -1.667e-4 -1.667e-4 -2.78e-4 -3.335e-4 -2.779e-4 -2.779e-4 -2.779e-4 -1.667e-4 -1.668e-4 -1.667e-4 -1.668e-4 c 0,-0.00506 -0.003891,-0.0075 -0.007948,-0.0075 -0.002779,0 -0.007226,0.00167 -0.009727,0.00584 -5.0024e-4,0.00139 -0.002779,0.00989 -0.003835,0.014952 -0.002001,0.00717 -0.003891,0.014674 -0.005558,0.022122 l -0.012506,0.049857 c -0.001,0.00417 -0.0129507,0.023511 -0.0312373,0.023511 -0.0140623,0 -0.0172305,-0.012117 -0.0172305,-0.0224 0,-0.012728 0.00478,-0.029959 0.0141735,-0.054248 0.004447,-0.011394 0.005558,-0.014451 0.005558,-0.02001 0,-0.012395 -0.008838,-0.022622 -0.0227332,-0.022622 -0.0263461,0 -0.0365732,0.040075 -0.0365732,0.042632 0,0.00278 0.002779,0.00278 0.003391,0.00278 0.002779,0 0.003057,-6.114e-4 0.004447,-0.00506 0.007448,-0.026068 0.0184534,-0.034294 0.0279579,-0.034294 0.002168,0 0.006948,0 0.006948,0.00884 0,0.00695 -0.002779,0.014062 -0.00478,0.019398 -0.0110609,0.029348 -0.0160633,0.045133 -0.0160633,0.058195 0,0.024567 0.0174529,0.032905 0.0337385,0.032905 0.0108941,0 0.0202876,-0.00472 0.027958,-0.01245 -0.003502,0.01434 -0.006837,0.027958 -0.0179531,0.042687 -0.007226,0.00934 -0.0177308,0.017453 -0.0304591,0.017453 -0.003835,0 -0.0163412,-8.893e-4 -0.0210657,-0.011672 0.004447,0 0.008115,0 0.0119502,-0.00339 0.002779,-0.00239 0.005558,-0.00606 0.005558,-0.011283 0,-0.00862 -0.007504,-0.00973 -0.0102827,-0.00973 -0.006336,0 -0.0155631,0.00445 -0.0155631,0.018009 0,0.013896 0.0122837,0.024123 0.0294031,0.024123 0.0285694,0 0.0570275,-0.02529 0.0648647,-0.056527 z"
       id="path1231" />
    <path
       style="font-style:normal;font-variant:normal;font-weight:normal;font-stretch:normal;letter-spacing:normal;word-spacing:normal;text-anchor:start;fill:#000000;fill-opacity:1;fill-rule:evenodd;stroke:#000000;stroke-width:0;stroke-linecap:butt;stroke-linejoin:miter;stroke-miterlimit:10.43299961;stroke-dasharray:none;stroke-dashoffset:0;stroke-opacity:1"
       inkscape:connector-curvature="0"
       d="m 0.91625444,-3.4492166 h 5.5582e-4 0.001112 5.5583e-4 l 5.5582e-4,-5.56e-5 h 5.5582e-4 v -5.56e-5 l 5.5583e-4,-5.55e-5 5.5582e-4,-5.56e-5 v -5.56e-5 l 5.5583e-4,-5.56e-5 5.5582e-4,-1.112e-4 v -1.111e-4 l 5.5582e-4,-1.112e-4 5.5583e-4,-1.112e-4 v -1.667e-4 l 5.5582e-4,-1.667e-4 v -2.224e-4 l 5.5583e-4,-1.667e-4 v -2.779e-4 l 5.5582e-4,-2.224e-4 v -2.779e-4 -1.667e-4 l 5.5582e-4,-1.668e-4 v -1.111e-4 -1.668e-4 -1.667e-4 -2.224e-4 -1.667e-4 -2.223e-4 -1.668e-4 l 5.5583e-4,-2.223e-4 v -2.223e-4 -2.224e-4 -2.223e-4 -2.223e-4 -2.224e-4 -2.779e-4 c 0,-0.00556 -0.005558,-0.00556 -0.009449,-0.00556 H 0.75061889 c -0.003891,0 -0.009449,0 -0.009449,0.00556 0,0.00545 0.005558,0.00545 0.009449,0.00545 z"
       id="path1233" />
    <path
       style="font-style:normal;font-variant:normal;font-weight:normal;font-stretch:normal;letter-spacing:normal;word-spacing:normal;text-anchor:start;fill:#000000;fill-opacity:1;fill-rule:evenodd;stroke:#000000;stroke-width:0;stroke-linecap:butt;stroke-linejoin:miter;stroke-miterlimit:10.43299961;stroke-dasharray:none;stroke-dashoffset:0;stroke-opacity:1"
       inkscape:connector-curvature="0"
       d="m 0.91625444,-3.3954128 h 5.5582e-4 5.5583e-4 l 5.5582e-4,-5.56e-5 h 5.5583e-4 5.5582e-4 l 5.5582e-4,-5.56e-5 5.5583e-4,-5.56e-5 v 0 l 5.5582e-4,-5.56e-5 5.5583e-4,-1.111e-4 v -5.56e-5 l 5.5582e-4,-1.112e-4 5.5582e-4,-1.111e-4 v -1.112e-4 l 5.5583e-4,-1.112e-4 v -1.667e-4 l 5.5582e-4,-1.668e-4 v -2.223e-4 l 5.5583e-4,-2.223e-4 v -2.224e-4 l 5.5582e-4,-2.779e-4 v -1.111e-4 -1.668e-4 -1.111e-4 l 5.5582e-4,-1.668e-4 v -1.667e-4 -1.668e-4 -1.667e-4 -1.668e-4 -2.223e-4 -1.668e-4 -2.223e-4 l 5.5583e-4,-2.223e-4 v -2.223e-4 -2.224e-4 -2.223e-4 -2.223e-4 -2.779e-4 -2.224e-4 c 0,-0.00556 -0.005558,-0.00556 -0.009449,-0.00556 H 0.75061889 c -0.003891,0 -0.009449,0 -0.009449,0.00556 0,0.00556 0.005558,0.00556 0.009449,0.00556 z"
       id="path1235" />
    <path
       style="font-style:normal;font-variant:normal;font-weight:normal;font-stretch:normal;letter-spacing:normal;word-spacing:normal;text-anchor:start;fill:#000000;fill-opacity:1;fill-rule:evenodd;stroke:#000000;stroke-width:0;stroke-linecap:butt;stroke-linejoin:miter;stroke-miterlimit:10.43299961;stroke-dasharray:none;stroke-dashoffset:0;stroke-opacity:1"
       inkscape:connector-curvature="0"
       d="m 1.0991205,-3.404306 v 0.024067 c 0,0.010005 0,0.013006 -0.020566,0.013006 h -0.00611 v 0.00862 c 0.011672,-8.893e-4 0.026124,-8.893e-4 0.037796,-8.893e-4 0.011116,0 0.026124,0 0.03724,8.893e-4 v -0.00862 h -0.00556 c -0.020566,0 -0.021121,-0.003 -0.021121,-0.013006 v -0.024067 h 0.027791 v -0.00856 h -0.027791 v -0.1260609 c 0,-0.00556 0,-0.00717 -0.00445,-0.00717 -0.00222,0 -0.00333,0 -0.00556,0.00339 l -0.085041,0.1298405 h 0.00778 l 0.067811,-0.1032721 v 0.1032721 h -0.067811 -0.00778 v 0.00856 z"
       id="path1237" />
    <path
       style="font-style:normal;font-variant:normal;font-weight:normal;font-stretch:normal;letter-spacing:normal;word-spacing:normal;text-anchor:start;fill:#000000;fill-opacity:1;fill-rule:evenodd;stroke:#000000;stroke-width:0;stroke-linecap:butt;stroke-linejoin:miter;stroke-miterlimit:10.43299961;stroke-dasharray:none;stroke-dashoffset:0;stroke-opacity:1"
       inkscape:connector-curvature="0"
       d="m 1.249193,-3.4422688 v -7.226e-4 l 5.558e-4,-8.337e-4 v -8.893e-4 l 5.559e-4,-10e-4 v -0.00106 l 5.558e-4,-0.00117 v -0.00122 l 5.558e-4,-0.00122 5.558e-4,-0.00128 5.559e-4,-0.00133 5.558e-4,-0.00139 5.558e-4,-0.00133 5.558e-4,-0.00139 5.559e-4,-0.00139 5.558e-4,-0.00139 0.00111,-0.00139 5.559e-4,-0.00133 0.00111,-0.00133 0.00111,-0.00128 5.559e-4,-0.00122 0.00111,-0.00122 0.00111,-0.00111 0.00111,-0.00106 0.00111,-0.001 0.00167,-8.893e-4 0.00111,-7.781e-4 5.558e-4,-3.891e-4 0.00111,-3.335e-4 5.558e-4,-2.779e-4 5.558e-4,-2.779e-4 0.00111,-2.779e-4 5.558e-4,-2.224e-4 0.00111,-1.667e-4 5.558e-4,-1.668e-4 0.00111,-1.111e-4 5.558e-4,-1.112e-4 0.00111,-5.56e-5 h 5.558e-4 c 0.00167,0 0.00834,0 0.013896,0.00356 -0.00778,0.00139 -0.01334,0.00834 -0.01334,0.014952 0,0.00439 0.00334,0.00973 0.010561,0.00973 0.00611,0 0.015007,-0.00495 0.015007,-0.016063 0,-0.014451 -0.016119,-0.018231 -0.025568,-0.018231 -0.016119,0 -0.025568,0.014674 -0.028903,0.02101 -0.00723,-0.018231 -0.022233,-0.02101 -0.030015,-0.02101 -0.028903,0 -0.044466,0.035684 -0.044466,0.042632 0,0.00278 0.00278,0.00278 0.00333,0.00278 0.00222,0 0.00278,-6.114e-4 0.00333,-0.00306 0.00945,-0.029348 0.027791,-0.036295 0.03724,-0.036295 0.005,0 0.015007,0.00245 0.015007,0.018509 0,0.00856 -0.005,0.02718 -0.015007,0.065921 -0.00445,0.017175 -0.013896,0.028792 -0.026679,0.028792 -0.00111,0 -0.00778,0 -0.01334,-0.00361 0.00667,-0.00133 0.012784,-0.00711 0.012784,-0.014952 0,-0.00745 -0.00611,-0.00962 -0.010005,-0.00962 -0.00834,0 -0.015563,0.00717 -0.015563,0.016063 0,0.012673 0.013896,0.018231 0.026124,0.018231 0.018342,0 0.028347,-0.019398 0.028903,-0.02101 0.00333,0.010227 0.01334,0.02101 0.030015,0.02101 0.028903,0 0.044466,-0.035684 0.044466,-0.042632 0,-0.00278 -0.00278,-0.00278 -0.00334,-0.00278 -0.00278,0 -0.00333,0.00111 -0.00389,0.003 -0.00889,0.029625 -0.027791,0.036295 -0.036684,0.036295 -0.010561,0 -0.015007,-0.00884 -0.015007,-0.018287 0,-0.00611 0.00167,-0.012173 0.00445,-0.024345 z"
       id="path1239" />
    <path
       style="font-style:normal;font-variant:normal;font-weight:normal;font-stretch:normal;letter-spacing:normal;word-spacing:normal;text-anchor:start;fill:#000000;fill-opacity:1;fill-rule:evenodd;stroke:#000000;stroke-width:0;stroke-linecap:butt;stroke-linejoin:miter;stroke-miterlimit:10.43299961;stroke-dasharray:none;stroke-dashoffset:0;stroke-opacity:1"
       inkscape:connector-curvature="0"
       d="m 1.5593428,-3.4222591 h 0.00111 5.558e-4 l 0.00111,-5.56e-5 h 5.559e-4 v -5.56e-5 h 5.558e-4 l 5.558e-4,-5.56e-5 5.558e-4,-5.56e-5 v -5.55e-5 l 5.558e-4,-1.112e-4 5.559e-4,-1.112e-4 v -1.111e-4 l 5.558e-4,-1.112e-4 5.558e-4,-1.112e-4 v -1.667e-4 l 5.558e-4,-1.668e-4 v -2.223e-4 l 5.559e-4,-1.667e-4 v -2.78e-4 l 5.558e-4,-2.223e-4 v -2.779e-4 -1.667e-4 -1.668e-4 -1.667e-4 l 5.558e-4,-1.668e-4 v -1.667e-4 -1.668e-4 -2.223e-4 -1.668e-4 -2.223e-4 -2.223e-4 -2.223e-4 -2.224e-4 -2.223e-4 -2.223e-4 -2.779e-4 -2.224e-4 c 0,-0.00556 -0.005,-0.00556 -0.00945,-0.00556 H 1.4092703 c -0.00445,0 -0.00945,0 -0.00945,0.00556 0,0.00556 0.005,0.00556 0.00945,0.00556 z"
       id="path1241" />
    <path
       style="font-style:normal;font-variant:normal;font-weight:normal;font-stretch:normal;letter-spacing:normal;word-spacing:normal;text-anchor:start;fill:#000000;fill-opacity:1;fill-rule:evenodd;stroke:#000000;stroke-width:0;stroke-linecap:butt;stroke-linejoin:miter;stroke-miterlimit:10.43299961;stroke-dasharray:none;stroke-dashoffset:0;stroke-opacity:1"
       inkscape:connector-curvature="0"
       d="m 1.8066845,-3.5306448 v -0.00295 -0.00295 l 5.558e-4,-0.00289 v -0.00283 -0.00283 l 5.558e-4,-0.00272 v -0.00272 l 5.559e-4,-0.00267 5.558e-4,-0.00261 5.558e-4,-0.00256 5.558e-4,-0.00256 0.00111,-0.00245 5.558e-4,-0.00122 5.558e-4,-0.00117 5.559e-4,-0.00122 5.558e-4,-0.00117 5.558e-4,-0.00117 5.558e-4,-0.00111 5.558e-4,-0.00111 5.559e-4,-0.00111 c 0.00667,-0.010561 0.017231,-0.017675 0.029459,-0.017675 0.00556,0 0.01334,0.00156 0.017231,0.00678 -0.00445,3.335e-4 -0.00889,0.00367 -0.00889,0.00928 0,0.00489 0.00333,0.00912 0.00945,0.00912 0.00556,0 0.00889,-0.00389 0.00889,-0.00945 0,-0.011283 -0.00778,-0.021344 -0.027235,-0.021344 -0.027791,0 -0.056138,0.025623 -0.056138,0.067199 0,0.050191 0.023345,0.065309 0.045022,0.065309 0.023345,0 0.04391,-0.018064 0.04391,-0.04341 0,-0.024567 -0.019454,-0.042798 -0.042243,-0.042798 l -0.00111,0.00545 c 0.00945,0 0.015007,0.0035 0.02001,0.010616 0.00445,0.00734 0.005,0.015508 0.005,0.026735 0,0.011005 0,0.019176 -0.00556,0.026735 -0.00445,0.00678 -0.010561,0.01045 -0.02001,0.01045 v 0 c -0.010005,0 -0.01723,-0.00556 -0.021677,-0.014174 -0.00278,-0.00572 -0.00445,-0.015452 -0.00445,-0.027124 0,-0.018731 0.011672,-0.033238 0.02668,-0.033238 l 0.00111,-0.00545 c -0.015563,0 -0.0239,0.010227 -0.028347,0.019009 z"
       id="path1243" />
    <polyline
       transform="matrix(0.00555824,0,0,-0.00555824,-4.9254558,-1.112866)"
       style="font-style:normal;font-variant:normal;font-weight:normal;font-stretch:normal;letter-spacing:normal;word-spacing:normal;text-anchor:start;fill:#000000;fill-opacity:1;fill-rule:nonzero;stroke:#000000;stroke-width:0;stroke-linecap:butt;stroke-linejoin:miter;stroke-miterlimit:10.43299961;stroke-dasharray:none;stroke-dashoffset:0;stroke-opacity:1"
       points="1190,415 1242.7,415 1242.7,417.04 1190,417.04 "
       id="polyline1245" />
    <path
       style="font-style:normal;font-variant:normal;font-weight:normal;font-stretch:normal;letter-spacing:normal;word-spacing:normal;text-anchor:start;fill:#000000;fill-opacity:1;fill-rule:evenodd;stroke:#000000;stroke-width:0;stroke-linecap:butt;stroke-linejoin:miter;stroke-miterlimit:10.43299961;stroke-dasharray:none;stroke-dashoffset:0;stroke-opacity:1"
       inkscape:connector-curvature="0"
       d="m 1.7722234,-3.228888 -0.037796,-0.07537 c -0.00111,-0.00189 -0.00167,-0.003 -0.00333,-0.003 -5.558e-4,0 -0.00111,0 -0.00333,0.00145 l -0.020566,0.01384 c -0.00278,0.00172 -0.00278,0.00267 -0.00278,0.00328 0,0.00111 0.00111,0.00267 0.00278,0.00267 0.00111,0 0.00111,0 0.00389,-0.00172 0.00222,-0.00156 0.00778,-0.00545 0.010005,-0.007 l 0.042243,0.083707 c 0.00167,0.00283 0.00222,0.00328 0.00445,0.00328 0.00167,0 0.00389,0 0.00611,-0.00372 l 0.097269,-0.1812542 c 0.00167,-0.0025 0.00167,-0.00289 0.00167,-0.00389 0,-0.00306 -0.00278,-0.00478 -0.005,-0.00478 -0.00278,0 -0.00389,0.00172 -0.005,0.00406 z"
       id="path1247" />
    <polyline
       transform="matrix(0.00555824,0,0,-0.00555824,-4.9254558,-1.112866)"
       style="font-style:normal;font-variant:normal;font-weight:normal;font-stretch:normal;letter-spacing:normal;word-spacing:normal;text-anchor:start;fill:#000000;fill-opacity:1;fill-rule:nonzero;stroke:#000000;stroke-width:0;stroke-linecap:butt;stroke-linejoin:miter;stroke-miterlimit:10.43299961;stroke-dasharray:none;stroke-dashoffset:0;stroke-opacity:1"
       points="1222,410 1241.9,410 1241.9,411.8 1222,411.8 "
       id="polyline1249" />
    <path
       style="font-style:normal;font-variant:normal;font-weight:normal;font-stretch:normal;letter-spacing:normal;word-spacing:normal;text-anchor:start;fill:#000000;fill-opacity:1;fill-rule:evenodd;stroke:#000000;stroke-width:0;stroke-linecap:butt;stroke-linejoin:miter;stroke-miterlimit:10.43299961;stroke-dasharray:none;stroke-dashoffset:0;stroke-opacity:1"
       inkscape:connector-curvature="0"
       d="m 1.8983954,-3.3399416 0.00111,2.779e-4 5.558e-4,1.668e-4 0.00111,2.223e-4 0.00111,1.667e-4 5.558e-4,1.668e-4 5.559e-4,1.667e-4 0.00111,1.668e-4 5.558e-4,1.667e-4 5.559e-4,1.112e-4 0.00111,1.112e-4 5.558e-4,1.111e-4 5.559e-4,1.112e-4 5.558e-4,5.56e-5 5.558e-4,1.111e-4 0.00111,5.56e-5 5.558e-4,5.56e-5 5.558e-4,5.56e-5 5.558e-4,5.56e-5 5.558e-4,5.55e-5 h 5.559e-4 v 5.56e-5 h 5.558e-4 l 5.558e-4,5.56e-5 h 5.558e-4 5.559e-4 v 0 l 5.558e-4,5.56e-5 h 5.558e-4 v 0 h 5.558e-4 v 0 h 5.559e-4 c 0.025568,0 0.040575,-0.017453 0.040575,-0.020399 0,-0.00211 -0.00111,-0.00272 -0.00222,-0.00272 -5.558e-4,0 -5.558e-4,0 -0.00167,6.114e-4 -0.00445,0.00172 -0.015007,0.00567 -0.028903,0.00567 -0.00556,0 -0.016119,-4.446e-4 -0.028347,-0.00534 -0.00222,-9.449e-4 -0.00222,-9.449e-4 -0.00278,-9.449e-4 -0.00222,0 -0.00222,0.00217 -0.00222,0.00522 v 0.057139 c 0,0.00328 0,0.00567 0.00278,0.00567 0.00167,0 0.00222,-3.891e-4 0.00389,-0.00272 0.00834,-0.010672 0.02001,-0.012228 0.027235,-0.012228 0.011116,0 0.016675,0.00928 0.017786,0.010839 0.00333,0.00645 0.00445,0.013729 0.00445,0.025012 0,0.00584 0,0.017175 -0.00556,0.025735 -0.005,0.007 -0.01334,0.011617 -0.022789,0.011617 -0.012784,0 -0.025568,-0.00695 -0.03057,-0.019732 0.00723,5.558e-4 0.011116,-0.00422 0.011116,-0.00945 0,-0.00834 -0.00723,-0.00989 -0.010005,-0.00989 0,0 -0.00945,0 -0.00945,0.010394 0,0.017453 0.016119,0.034906 0.039463,0.034906 0.024456,0 0.046133,-0.018398 0.046133,-0.042798 0,-0.0219 -0.016675,-0.04202 -0.040575,-0.04202 -0.00834,0 -0.018898,0.00206 -0.027235,0.00945 z"
       id="path1251" />
  </g>
  <path
     style="fill:none;stroke:#000000;stroke-width:0.01239104px;stroke-linecap:butt;stroke-linejoin:miter;stroke-opacity:1;marker-end:url(#marker1802)"
     d="M 0.43885952,-0.60664071 V -3.9060019"
     id="path1508"
     inkscape:connector-curvature="0"
     sodipodi:nodetypes="cc" />
  <path
     style="fill:none;stroke:#000000;stroke-width:0.01239104;stroke-linecap:butt;stroke-linejoin:miter;stroke-miterlimit:4;stroke-dasharray:none;stroke-opacity:1;marker-end:url(#Arrow1Mend)"
     d="M -2.32658,-2.2631664 H 2.9920994"
     id="path1510"
     inkscape:connector-curvature="0" />
  <g
     id="g2315"
     transform="translate(0.26011553,0.04107087)">
    <path
       style="font-style:normal;font-variant:normal;font-weight:normal;font-stretch:normal;letter-spacing:normal;word-spacing:normal;text-anchor:start;fill:#000000;fill-opacity:1;fill-rule:evenodd;stroke:#000000;stroke-width:0;stroke-linecap:butt;stroke-linejoin:miter;stroke-miterlimit:10.43299961;stroke-dasharray:none;stroke-dashoffset:0;stroke-opacity:1"
       inkscape:connector-curvature="0"
       d="m 1.3442114,-0.95529539 0.00114,-0.00693 0.01836,-0.073493 c 0.00233,-0.00937 0.00292,-0.010236 0.014514,-0.010236 h 0.025942 c 0.022422,0 0.036719,0.00731 0.036719,0.025942 0,0.010561 -0.00542,0.03374 -0.015923,0.043489 -0.013539,0.012077 -0.029679,0.014298 -0.041648,0.014298 h -0.037965 l -0.00114,0.00693 h 0.045872 c 0.038344,0 0.075821,-0.028 0.075821,-0.05822 0,-0.020851 -0.017764,-0.040781 -0.053129,-0.040781 h -0.087411 c -0.00514,0 -0.00812,0 -0.00812,0.00515 0,0.0032 0.00244,0.0032 0.00785,0.0032 0.00347,0 0.00839,2.708e-4 0.01159,5.416e-4 0.00433,5.957e-4 0.00596,0.00135 0.00596,0.00428 0,0.00114 -2.708e-4,0.00195 -0.00114,0.0052 l -0.036123,0.14487322 c -0.00271,0.010561 -0.0032,0.012673 -0.024534,0.012673 -0.00455,0 -0.00753,0 -0.00753,0.00514 0,0.00325 0.0032,0.00325 0.00395,0.00325 0.00764,0 0.026754,-8.665e-4 0.034282,-8.665e-4 0.00569,0 0.01159,3.249e-4 0.017276,3.249e-4 0.00601,0 0.011915,5.416e-4 0.017601,5.416e-4 0.00184,0 0.00531,0 0.00531,-0.00542 0,-0.00298 -0.00233,-0.00298 -0.00753,-0.00298 -0.00997,0 -0.017493,0 -0.017493,-0.00482 0,-0.00162 4.874e-4,-0.00298 7.582e-4,-0.00455 z"
       id="path1870" />
    <path
       style="font-style:normal;font-variant:normal;font-weight:normal;font-stretch:normal;letter-spacing:normal;word-spacing:normal;text-anchor:start;fill:#000000;fill-opacity:1;fill-rule:evenodd;stroke:#000000;stroke-width:0;stroke-linecap:butt;stroke-linejoin:miter;stroke-miterlimit:10.43299961;stroke-dasharray:none;stroke-dashoffset:0;stroke-opacity:1"
       inkscape:connector-curvature="0"
       d="m 1.7338254,-0.95827409 h 7.583e-4 8.123e-4 l 7.582e-4,-5.41e-5 h 4.333e-4 3.791e-4 l 3.791e-4,-5.42e-5 3.791e-4,-5.41e-5 3.791e-4,-5.42e-5 3.791e-4,-5.42e-5 3.792e-4,-5.41e-5 3.791e-4,-1.083e-4 3.249e-4,-1.084e-4 3.25e-4,-1.083e-4 3.249e-4,-1.624e-4 3.25e-4,-1.084e-4 3.249e-4,-1.624e-4 2.708e-4,-2.167e-4 2.708e-4,-2.166e-4 2.708e-4,-2.166e-4 2.166e-4,-2.167e-4 2.166e-4,-2.708e-4 1.084e-4,-1.624e-4 1.083e-4,-1.625e-4 5.41e-5,-1.625e-4 1.084e-4,-1.625e-4 5.41e-5,-1.624e-4 1.083e-4,-1.625e-4 5.42e-5,-1.625e-4 5.41e-5,-2.166e-4 5.42e-5,-1.625e-4 5.42e-5,-2.166e-4 5.41e-5,-2.167e-4 v -2.166e-4 l 5.42e-5,-2.166e-4 v -2.166e-4 -2.708e-4 -2.167e-4 c 0,-0.00542 -0.00515,-0.00542 -0.00888,-0.00542 h -0.161608 c -0.00385,0 -0.00888,0 -0.00888,0.00542 0,0.00531 0.00504,0.00531 0.0091,0.00531 z"
       id="path1872" />
    <path
       style="font-style:normal;font-variant:normal;font-weight:normal;font-stretch:normal;letter-spacing:normal;word-spacing:normal;text-anchor:start;fill:#000000;fill-opacity:1;fill-rule:evenodd;stroke:#000000;stroke-width:0;stroke-linecap:butt;stroke-linejoin:miter;stroke-miterlimit:10.43299961;stroke-dasharray:none;stroke-dashoffset:0;stroke-opacity:1"
       inkscape:connector-curvature="0"
       d="m 1.7340962,-0.90590309 h 3.791e-4 3.25e-4 7.582e-4 7.582e-4 l 3.791e-4,-5.41e-5 h 3.791e-4 l 3.791e-4,-5.42e-5 3.791e-4,-5.42e-5 3.792e-4,-5.41e-5 3.249e-4,-5.42e-5 3.791e-4,-5.41e-5 3.25e-4,-1.084e-4 3.791e-4,-1.083e-4 3.249e-4,-1.083e-4 3.25e-4,-1.625e-4 3.249e-4,-1.083e-4 2.708e-4,-2.166e-4 2.708e-4,-1.625e-4 2.708e-4,-2.166e-4 2.708e-4,-2.167e-4 2.166e-4,-2.707e-4 1.083e-4,-1.084e-4 1.083e-4,-1.624e-4 1.084e-4,-1.625e-4 1.083e-4,-1.083e-4 5.41e-5,-1.625e-4 1.084e-4,-1.625e-4 5.41e-5,-1.624e-4 1.083e-4,-2.167e-4 5.42e-5,-1.625e-4 5.41e-5,-2.166e-4 5.42e-5,-1.625e-4 5.42e-5,-2.166e-4 5.41e-5,-2.166e-4 v -2.167e-4 l 5.42e-5,-2.166e-4 v -2.708e-4 -2.166e-4 -2.708e-4 c 0,-0.00542 -0.00515,-0.00542 -0.00915,-0.00542 H 1.5727076 c -0.00406,0 -0.0091,0 -0.0091,0.00542 0,0.00542 0.00504,0.00542 0.00888,0.00542 z"
       id="path1874" />
    <path
       style="font-style:normal;font-variant:normal;font-weight:normal;font-stretch:normal;letter-spacing:normal;word-spacing:normal;text-anchor:start;fill:#000000;fill-opacity:1;fill-rule:evenodd;stroke:#000000;stroke-width:0;stroke-linecap:butt;stroke-linejoin:miter;stroke-miterlimit:10.43299961;stroke-dasharray:none;stroke-dashoffset:0;stroke-opacity:1"
       inkscape:connector-curvature="0"
       d="m 1.9720132,-0.69728569 5.42e-5,5.42e-5 v 0 h 5.41e-5 l 5.42e-5,5.41e-5 v 0 l 5.41e-5,5.42e-5 h 5.42e-5 l 5.42e-5,5.41e-5 v 5.42e-5 h 5.41e-5 l 1.083e-4,1.083e-4 1.083e-4,1.083e-4 1.084e-4,1.083e-4 1.083e-4,1.084e-4 1.083e-4,1.083e-4 1.625e-4,1.083e-4 1.083e-4,1.625e-4 1.625e-4,1.083e-4 1.083e-4,1.083e-4 2.708e-4,2.708e-4 1.083e-4,1.625e-4 1.625e-4,1.083e-4 1.083e-4,1.624e-4 1.624e-4,1.084e-4 1.084e-4,1.083e-4 1.083e-4,1.083e-4 1.083e-4,1.083e-4 1.083e-4,1.083e-4 1.083e-4,1.083e-4 5.42e-5,5.42e-5 v 0 l 5.41e-5,5.42e-5 5.42e-5,5.41e-5 h 5.42e-5 v 5.42e-5 h 5.41e-5 l 5.42e-5,5.41e-5 v 0 h 5.41e-5 v 5.42e-5 0 h 5.42e-5 v 0 h 0.00601 c 7.582e-4,0 0.00292,-2.708e-4 0.00292,-0.00271 0,-0.00108 -5.416e-4,-0.00162 -0.00108,-0.00244 -0.00975,-0.00975 -0.024263,-0.024534 -0.041052,-0.054267 -0.029083,-0.051775 -0.039915,-0.118444 -0.039915,-0.1832172 0,-0.11979801 0.034011,-0.19020361 0.081237,-0.23791701 8.124e-4,-8.665e-4 8.124e-4,-0.00162 8.124e-4,-0.00222 0,-0.00271 -0.0019,-0.00271 -0.00514,-0.00271 -0.00347,0 -0.00406,0 -0.0065,0.00222 -0.025563,0.022042 -0.054483,0.059628 -0.073114,0.1164943 -0.01159,0.035636 -0.017764,0.079125 -0.017764,0.12391391 0,0.063961 0.01159,0.1362079 0.053996,0.1988148 0.00726,0.010507 0.017222,0.021609 0.017222,0.02188 0.00271,0.0032 0.00644,0.00758 0.00867,0.00948 z"
       id="path1876" />
    <path
       style="font-style:normal;font-variant:normal;font-weight:normal;font-stretch:normal;letter-spacing:normal;word-spacing:normal;text-anchor:start;fill:#000000;fill-opacity:1;fill-rule:evenodd;stroke:#000000;stroke-width:0;stroke-linecap:butt;stroke-linejoin:miter;stroke-miterlimit:10.43299961;stroke-dasharray:none;stroke-dashoffset:0;stroke-opacity:1"
       inkscape:connector-curvature="0"
       d="m 2.2104176,-1.0102659 h -0.00639 c -5.416e-4,0.00412 -0.00249,0.015273 -0.00493,0.017168 -0.00141,0.00108 -0.015977,0.00108 -0.01863,0.00108 h -0.034769 c 0.019822,-0.017493 0.026429,-0.022747 0.037748,-0.031628 0.013973,-0.011211 0.026971,-0.022855 0.026971,-0.040781 0,-0.022855 -0.01993,-0.036828 -0.044139,-0.036828 -0.023342,0 -0.039265,0.01641 -0.039265,0.03374 0,0.00964 0.00812,0.010615 0.010073,0.010615 0.0045,0 0.00997,-0.00325 0.00997,-0.010019 0,-0.00336 -0.00135,-0.00997 -0.011157,-0.00997 0.00585,-0.013377 0.018685,-0.017547 0.027566,-0.017547 0.018901,0 0.028704,0.014677 0.028704,0.030004 0,0.01641 -0.011698,0.029408 -0.017764,0.036178 l -0.045439,0.044951 c -0.00195,0.00168 -0.00195,0.00211 -0.00195,0.00737 h 0.077771 z"
       id="path1878" />
    <polyline
       transform="matrix(0.00541582,0,0,-0.00541582,-1.2045277,1.2896162)"
       style="font-style:normal;font-variant:normal;font-weight:normal;font-stretch:normal;letter-spacing:normal;word-spacing:normal;text-anchor:start;fill:#000000;fill-opacity:1;fill-rule:nonzero;stroke:#000000;stroke-width:0;stroke-linecap:butt;stroke-linejoin:miter;stroke-miterlimit:10.43299961;stroke-dasharray:none;stroke-dashoffset:0;stroke-opacity:1"
       points="597,410 649.68,410 649.68,412.04 597,412.04 "
       id="polyline1880" />
    <path
       style="font-style:normal;font-variant:normal;font-weight:normal;font-stretch:normal;letter-spacing:normal;word-spacing:normal;text-anchor:start;fill:#000000;fill-opacity:1;fill-rule:evenodd;stroke:#000000;stroke-width:0;stroke-linecap:butt;stroke-linejoin:miter;stroke-miterlimit:10.43299961;stroke-dasharray:none;stroke-dashoffset:0;stroke-opacity:1"
       inkscape:connector-curvature="0"
       d="m 2.1103874,-0.74359099 -0.03699,-0.073438 c -9.207e-4,-0.00184 -0.00152,-0.00298 -0.00303,-0.00298 -7.582e-4,0 -0.00114,0 -0.00309,0.00146 l -0.020093,0.013431 c -0.00265,0.00173 -0.00265,0.00265 -0.00265,0.00325 0,0.00108 9.207e-4,0.0026 0.00265,0.0026 7.582e-4,0 0.00108,0 0.00352,-0.00168 0.00211,-0.00152 0.00753,-0.00536 0.00986,-0.00688 l 0.041377,0.081616 c 0.00125,0.00276 0.00168,0.0032 0.00428,0.0032 0.00168,0 0.00374,0 0.00569,-0.00363 l 0.094885,-0.1766099 c 0.00152,-0.00249 0.00152,-0.00282 0.00152,-0.00385 0,-0.00292 -0.00249,-0.0046 -0.0045,-0.0046 -0.00287,0 -0.00384,0.00168 -0.00493,0.00395 z"
       id="path1882" />
    <polyline
       transform="matrix(0.00541582,0,0,-0.00541582,-1.2045277,1.2896162)"
       style="font-style:normal;font-variant:normal;font-weight:normal;font-stretch:normal;letter-spacing:normal;word-spacing:normal;text-anchor:start;fill:#000000;fill-opacity:1;fill-rule:nonzero;stroke:#000000;stroke-width:0;stroke-linecap:butt;stroke-linejoin:miter;stroke-miterlimit:10.43299961;stroke-dasharray:none;stroke-dashoffset:0;stroke-opacity:1"
       points="629,405 648.92,405 648.92,406.8 629,406.8 "
       id="polyline1884" />
    <path
       style="font-style:normal;font-variant:normal;font-weight:normal;font-stretch:normal;letter-spacing:normal;word-spacing:normal;text-anchor:start;fill:#000000;fill-opacity:1;fill-rule:evenodd;stroke:#000000;stroke-width:0;stroke-linecap:butt;stroke-linejoin:miter;stroke-miterlimit:10.43299961;stroke-dasharray:none;stroke-dashoffset:0;stroke-opacity:1"
       inkscape:connector-curvature="0"
       d="m 2.2328391,-0.85179899 8.665e-4,2.166e-4 8.666e-4,2.166e-4 8.665e-4,2.167e-4 8.124e-4,1.624e-4 7.582e-4,1.625e-4 8.124e-4,1.625e-4 7.582e-4,1.624e-4 7.04e-4,1.084e-4 7.041e-4,1.624e-4 7.04e-4,1.084e-4 6.499e-4,1.083e-4 6.499e-4,5.41e-5 6.499e-4,1.083e-4 5.958e-4,5.42e-5 5.957e-4,1.083e-4 5.957e-4,5.42e-5 5.416e-4,5.41e-5 5.416e-4,5.42e-5 h 4.874e-4 l 4.875e-4,5.42e-5 4.874e-4,5.41e-5 h 4.874e-4 4.333e-4 l 4.332e-4,5.42e-5 h 3.792e-4 3.791e-4 3.791e-4 3.791e-4 3.249e-4 3.25e-4 3.249e-4 2.708e-4 c 0.024913,0 0.039644,-0.017006 0.039644,-0.019876 0,-0.002 -0.0013,-0.0026 -0.00222,-0.0026 -4.333e-4,0 -7.582e-4,0 -0.00152,5.958e-4 -0.0046,0.00168 -0.014569,0.00547 -0.028541,0.00547 -0.00525,0 -0.015327,-3.791e-4 -0.027566,-0.00514 -0.0019,-9.207e-4 -0.00222,-9.207e-4 -0.00244,-9.207e-4 -0.00249,0 -0.00249,0.00211 -0.00249,0.00509 v 0.055675 c 0,0.0032 0,0.00547 0.00303,0.00547 0.00173,0 0.0019,-3.25e-4 0.00385,-0.0026 0.00812,-0.010398 0.019605,-0.011915 0.026213,-0.011915 0.011265,0 0.01641,0.00904 0.017331,0.010561 0.00341,0.00623 0.00449,0.013377 0.00449,0.024371 0,0.00569 0,0.016735 -0.00563,0.025021 -0.00466,0.00688 -0.012781,0.011373 -0.022042,0.011373 -0.01224,0 -0.024967,-0.00677 -0.029679,-0.019226 0.0072,4.874e-4 0.010723,-0.00417 0.010723,-0.00921 0,-0.00812 -0.00693,-0.00964 -0.00937,-0.00964 -3.249e-4,0 -0.00948,0 -0.00948,0.010128 0,0.017006 0.015489,0.034011 0.038181,0.034011 0.0241,0 0.045276,-0.017926 0.045276,-0.041702 0,-0.021338 -0.016247,-0.040944 -0.039644,-0.040944 -0.00829,0 -0.018089,0.002 -0.026375,0.00921 z"
       id="path1886" />
    <path
       style="font-style:normal;font-variant:normal;font-weight:normal;font-stretch:normal;letter-spacing:normal;word-spacing:normal;text-anchor:start;fill:#000000;fill-opacity:1;fill-rule:evenodd;stroke:#000000;stroke-width:0;stroke-linecap:butt;stroke-linejoin:miter;stroke-miterlimit:10.43299961;stroke-dasharray:none;stroke-dashoffset:0;stroke-opacity:1"
       inkscape:connector-curvature="0"
       d="m 2.3986715,-0.87026699 v -0.00162 l -1.083e-4,-0.00162 -5.42e-5,-0.00157 -1.624e-4,-0.00152 -1.625e-4,-0.00146 -2.166e-4,-0.00146 -2.167e-4,-0.00135 -2.708e-4,-0.00135 -3.249e-4,-0.00125 -3.791e-4,-0.00125 -3.791e-4,-0.00119 -3.791e-4,-0.00114 -4.875e-4,-0.00108 -4.874e-4,-0.00108 -4.874e-4,-9.748e-4 -5.416e-4,-9.207e-4 -5.957e-4,-9.207e-4 -5.958e-4,-8.124e-4 -6.499e-4,-7.582e-4 -6.499e-4,-7.582e-4 -7.04e-4,-6.499e-4 -7.041e-4,-5.957e-4 -7.582e-4,-5.958e-4 -8.124e-4,-4.874e-4 -8.124e-4,-4.333e-4 -8.123e-4,-3.791e-4 -8.666e-4,-3.249e-4 -8.665e-4,-2.708e-4 -9.207e-4,-2.166e-4 -9.207e-4,-1.625e-4 -9.748e-4,-1.083e-4 H 2.381395 c -0.00888,0 -0.014298,0.00677 -0.014298,0.014298 0,0.00726 0.00542,0.014298 0.014298,0.014298 0.00325,0 0.00677,-0.00108 0.00948,-0.00347 7.583e-4,-5.958e-4 0.00108,-8.666e-4 0.00135,-8.666e-4 2.708e-4,0 5.416e-4,2.708e-4 5.416e-4,0.00406 0,0.019984 -0.00942,0.036123 -0.018414,0.045006 -0.00292,0.00298 -0.00292,0.00357 -0.00292,0.00433 0,0.00195 0.00135,0.00298 0.00271,0.00298 0.00292,0 0.024534,-0.020743 0.024534,-0.052317 z"
       id="path1888" />
    <path
       style="font-style:normal;font-variant:normal;font-weight:normal;font-stretch:normal;letter-spacing:normal;word-spacing:normal;text-anchor:start;fill:#000000;fill-opacity:1;fill-rule:evenodd;stroke:#000000;stroke-width:0;stroke-linecap:butt;stroke-linejoin:miter;stroke-miterlimit:10.43299961;stroke-dasharray:none;stroke-dashoffset:0;stroke-opacity:1"
       inkscape:connector-curvature="0"
       d="m 2.6796984,-1.0102659 h -0.00644 c -5.416e-4,0.00412 -0.00249,0.015273 -0.00493,0.017168 -0.00141,0.00108 -0.015977,0.00108 -0.01863,0.00108 h -0.03477 c 0.019822,-0.017493 0.026429,-0.022747 0.037748,-0.031628 0.013973,-0.011211 0.027025,-0.022855 0.027025,-0.040781 0,-0.022855 -0.019984,-0.036828 -0.044193,-0.036828 -0.023342,0 -0.039265,0.01641 -0.039265,0.03374 0,0.00964 0.00812,0.010615 0.010073,0.010615 0.00449,0 0.00997,-0.00325 0.00997,-0.010019 0,-0.00336 -0.00135,-0.00997 -0.011157,-0.00997 0.00585,-0.013377 0.018685,-0.017547 0.027566,-0.017547 0.018901,0 0.028704,0.014677 0.028704,0.030004 0,0.01641 -0.011698,0.029408 -0.017764,0.036178 l -0.045439,0.044951 c -0.00195,0.00168 -0.00195,0.00211 -0.00195,0.00737 h 0.077771 z"
       id="path1890" />
    <polyline
       transform="matrix(0.00541582,0,0,-0.00541582,-1.2045277,1.2896162)"
       style="font-style:normal;font-variant:normal;font-weight:normal;font-stretch:normal;letter-spacing:normal;word-spacing:normal;text-anchor:start;fill:#000000;fill-opacity:1;fill-rule:nonzero;stroke:#000000;stroke-width:0;stroke-linecap:butt;stroke-linejoin:miter;stroke-miterlimit:10.43299961;stroke-dasharray:none;stroke-dashoffset:0;stroke-opacity:1"
       points="683,410 735.68,410 735.68,412.04 683,412.04 "
       id="polyline1892" />
    <path
       style="font-style:normal;font-variant:normal;font-weight:normal;font-stretch:normal;letter-spacing:normal;word-spacing:normal;text-anchor:start;fill:#000000;fill-opacity:1;fill-rule:evenodd;stroke:#000000;stroke-width:0;stroke-linecap:butt;stroke-linejoin:miter;stroke-miterlimit:10.43299961;stroke-dasharray:none;stroke-dashoffset:0;stroke-opacity:1"
       inkscape:connector-curvature="0"
       d="m 2.5796141,-0.74359099 -0.03699,-0.073438 c -9.206e-4,-0.00184 -0.00152,-0.00298 -0.00303,-0.00298 -7.582e-4,0 -0.00114,0 -0.00303,0.00146 l -0.020147,0.013431 c -0.00265,0.00173 -0.00265,0.00265 -0.00265,0.00325 0,0.00108 9.206e-4,0.0026 0.00265,0.0026 7.582e-4,0 0.00108,0 0.00352,-0.00168 0.00211,-0.00152 0.00753,-0.00536 0.00986,-0.00688 l 0.041377,0.081616 c 0.00125,0.00276 0.00168,0.0032 0.00428,0.0032 0.00173,0 0.00374,0 0.00569,-0.00363 l 0.094885,-0.1766099 c 0.00152,-0.00249 0.00152,-0.00282 0.00152,-0.00385 0,-0.00292 -0.00249,-0.0046 -0.0045,-0.0046 -0.00287,0 -0.00379,0.00168 -0.00493,0.00395 z"
       id="path1894" />
    <polyline
       transform="matrix(0.00541582,0,0,-0.00541582,-1.2045277,1.2896162)"
       style="font-style:normal;font-variant:normal;font-weight:normal;font-stretch:normal;letter-spacing:normal;word-spacing:normal;text-anchor:start;fill:#000000;fill-opacity:1;fill-rule:nonzero;stroke:#000000;stroke-width:0;stroke-linecap:butt;stroke-linejoin:miter;stroke-miterlimit:10.43299961;stroke-dasharray:none;stroke-dashoffset:0;stroke-opacity:1"
       points="716,405 735.92,405 735.92,406.8 716,406.8 "
       id="polyline1896" />
    <path
       style="font-style:normal;font-variant:normal;font-weight:normal;font-stretch:normal;letter-spacing:normal;word-spacing:normal;text-anchor:start;fill:#000000;fill-opacity:1;fill-rule:evenodd;stroke:#000000;stroke-width:0;stroke-linecap:butt;stroke-linejoin:miter;stroke-miterlimit:10.43299961;stroke-dasharray:none;stroke-dashoffset:0;stroke-opacity:1"
       inkscape:connector-curvature="0"
       d="m 2.7027156,-0.85179899 8.666e-4,2.166e-4 8.665e-4,2.166e-4 8.124e-4,2.167e-4 8.124e-4,1.624e-4 8.123e-4,1.625e-4 7.582e-4,1.625e-4 7.582e-4,1.624e-4 7.583e-4,1.084e-4 7.04e-4,1.624e-4 7.041e-4,1.084e-4 6.499e-4,1.083e-4 6.499e-4,5.41e-5 6.499e-4,1.083e-4 5.957e-4,5.42e-5 5.957e-4,1.083e-4 5.416e-4,5.42e-5 5.958e-4,5.41e-5 4.874e-4,5.42e-5 h 5.416e-4 l 4.874e-4,5.42e-5 4.874e-4,5.41e-5 h 4.333e-4 4.874e-4 l 3.791e-4,5.42e-5 h 4.333e-4 3.791e-4 3.791e-4 3.791e-4 3.25e-4 3.249e-4 3.25e-4 2.707e-4 c 0.024859,0 0.03959,-0.017006 0.03959,-0.019876 0,-0.002 -0.00125,-0.0026 -0.00217,-0.0026 -4.332e-4,0 -7.582e-4,0 -0.00152,5.958e-4 -0.0046,0.00168 -0.014569,0.00547 -0.028541,0.00547 -0.00525,0 -0.015327,-3.791e-4 -0.027567,-0.00514 -0.0019,-9.207e-4 -0.00222,-9.207e-4 -0.00249,-9.207e-4 -0.00244,0 -0.00244,0.00211 -0.00244,0.00509 v 0.055675 c 0,0.0032 0,0.00547 0.00303,0.00547 0.00168,0 0.0019,-3.25e-4 0.00384,-0.0026 0.00812,-0.010398 0.019605,-0.011915 0.026213,-0.011915 0.011265,0 0.01641,0.00904 0.017331,0.010561 0.00341,0.00623 0.00449,0.013377 0.00449,0.024371 0,0.00569 0,0.016735 -0.00569,0.025021 -0.00466,0.00688 -0.012781,0.011373 -0.021988,0.011373 -0.01224,0 -0.024967,-0.00677 -0.029679,-0.019226 0.00715,4.874e-4 0.010723,-0.00417 0.010723,-0.00921 0,-0.00812 -0.00693,-0.00964 -0.00937,-0.00964 -3.792e-4,0 -0.00948,0 -0.00948,0.010128 0,0.017006 0.015489,0.034011 0.038127,0.034011 0.024154,0 0.045276,-0.017926 0.045276,-0.041702 0,-0.021338 -0.016247,-0.040944 -0.039589,-0.040944 -0.00829,0 -0.018089,0.002 -0.026375,0.00921 z"
       id="path1898" />
    <path
       style="font-style:normal;font-variant:normal;font-weight:normal;font-stretch:normal;letter-spacing:normal;word-spacing:normal;text-anchor:start;fill:#000000;fill-opacity:1;fill-rule:evenodd;stroke:#000000;stroke-width:0;stroke-linecap:butt;stroke-linejoin:miter;stroke-miterlimit:10.43299961;stroke-dasharray:none;stroke-dashoffset:0;stroke-opacity:1"
       inkscape:connector-curvature="0"
       d="m 2.92536,-0.93715239 -2.166e-4,-0.014568 -6.499e-4,-0.014677 -0.00114,-0.014677 -0.00163,-0.014677 -0.00217,-0.014623 -0.00271,-0.014569 -0.0033,-0.01446 -0.00385,-0.014298 -0.00449,-0.014081 -0.00249,-0.00693 -0.00265,-0.00688 -0.00282,-0.00688 -0.00303,-0.00672 -0.00314,-0.00666 -0.00336,-0.00661 -0.00352,-0.0065 -0.00374,-0.00644 -0.0039,-0.00628 -0.00406,-0.00623 -0.00428,-0.00607 -0.00449,-0.00601 -0.00466,-0.0059 -0.00487,-0.00574 c -0.00379,-0.00428 -0.01381,-0.014785 -0.020255,-0.020472 -0.00195,-0.00168 -0.00244,-0.00168 -0.00601,-0.00168 -0.00271,0 -0.00504,0 -0.00504,0.00271 0,0.00108 0.00108,0.00222 0.00157,0.00271 0.00915,0.00948 0.023775,0.024263 0.040456,0.053996 0.029191,0.051775 0.039969,0.118444 0.039969,0.18321722 0,0.1170901 -0.032441,0.1885789 -0.080912,0.237917 -5.958e-4,5.957e-4 -0.00108,0.00135 -0.00108,0.00222 0,0.00271 0.00233,0.00271 0.00504,0.00271 0.00357,0 0.00406,0 0.00655,-0.00222 0.025617,-0.022042 0.054483,-0.059574 0.073114,-0.1164943 0.011861,-0.03699 0.017764,-0.08075 0.017764,-0.1241306 z"
       id="path1900" />
  </g>
  <path
     id="path1902"
     d="m 2.5390333,-2.0339864 0.028596,-0.027729 c 0.042027,-0.037261 0.058274,-0.051775 0.058274,-0.0788 0,-0.030762 -0.024263,-0.052371 -0.057191,-0.052371 -0.030545,0 -0.05053,0.024859 -0.05053,0.048905 0,0.015056 0.013539,0.015056 0.014298,0.015056 0.00466,0 0.014081,-0.0032 0.014081,-0.014298 0,-0.00699 -0.00482,-0.014027 -0.014298,-0.014027 -0.00211,0 -0.00271,0 -0.00347,2.708e-4 0.00617,-0.017547 0.020688,-0.027512 0.03634,-0.027512 0.024588,0 0.036232,0.02188 0.036232,0.043976 0,0.021609 -0.01354,0.042893 -0.028325,0.059682 l -0.051775,0.057679 c -0.00309,0.00298 -0.00309,0.00352 -0.00309,0.010019 h 0.1001385 l 0.00758,-0.046955 h -0.00677 c -0.00135,0.00812 -0.00319,0.01993 -0.0059,0.023992 -0.00195,0.00211 -0.019714,0.00211 -0.025617,0.00211 z"
     inkscape:connector-curvature="0"
     style="font-style:normal;font-variant:normal;font-weight:normal;font-stretch:normal;letter-spacing:normal;word-spacing:normal;text-anchor:start;fill:#000000;fill-opacity:1;fill-rule:evenodd;stroke:#000000;stroke-width:0;stroke-linecap:butt;stroke-linejoin:miter;stroke-miterlimit:10.43299961;stroke-dasharray:none;stroke-dashoffset:0;stroke-opacity:1" />
  <g
     id="g2019"
     transform="translate(-2.5053231,-0.180544)">
    <path
       style="font-style:normal;font-variant:normal;font-weight:normal;font-stretch:normal;letter-spacing:normal;word-spacing:normal;text-anchor:start;fill:#000000;fill-opacity:1;fill-rule:evenodd;stroke:#000000;stroke-width:0;stroke-linecap:butt;stroke-linejoin:miter;stroke-miterlimit:10.43299961;stroke-dasharray:none;stroke-dashoffset:0;stroke-opacity:1"
       inkscape:connector-curvature="0"
       d="m 0.67104866,-1.8740672 8.6653e-4,-5.42e-5 h 8.6654e-4 8.6653e-4 l 4.3326e-4,-5.42e-5 h 3.7911e-4 l 4.3327e-4,-5.41e-5 3.791e-4,-5.42e-5 4.3327e-4,-5.41e-5 3.7911e-4,-5.42e-5 3.791e-4,-5.41e-5 3.7911e-4,-1.084e-4 3.2495e-4,-1.083e-4 3.7911e-4,-1.083e-4 3.2495e-4,-1.083e-4 2.7079e-4,-1.625e-4 3.2495e-4,-1.625e-4 2.7079e-4,-2.166e-4 2.7079e-4,-2.166e-4 2.7079e-4,-2.167e-4 2.1663e-4,-2.708e-4 2.1664e-4,-2.707e-4 1.0831e-4,-1.084e-4 5.416e-5,-1.624e-4 1.0832e-4,-1.625e-4 5.415e-5,-1.625e-4 1.0832e-4,-1.625e-4 5.416e-5,-2.166e-4 5.416e-5,-1.625e-4 5.416e-5,-1.624e-4 5.415e-5,-2.167e-4 5.416e-5,-2.166e-4 5.416e-5,-2.166e-4 v -2.167e-4 l 5.416e-5,-2.166e-4 v -2.166e-4 -2.708e-4 -2.167e-4 c 0,-0.00542 -0.004874,-0.00542 -0.009478,-0.00542 H 0.52509231 c -0.004549,0 -0.009369,0 -0.009369,0.00542 0,0.00542 0.00482,0.00542 0.009369,0.00542 z"
       id="path1904" />
    <path
       style="font-style:normal;font-variant:normal;font-weight:normal;font-stretch:normal;letter-spacing:normal;word-spacing:normal;text-anchor:start;fill:#000000;fill-opacity:1;fill-rule:evenodd;stroke:#000000;stroke-width:0;stroke-linecap:butt;stroke-linejoin:miter;stroke-miterlimit:10.43299961;stroke-dasharray:none;stroke-dashoffset:0;stroke-opacity:1"
       inkscape:connector-curvature="0"
       d="m 0.73744662,-1.832907 0.0285955,-0.027729 c 0.0420809,-0.037261 0.0583284,-0.051775 0.0583284,-0.0788 0,-0.030762 -0.024317,-0.052371 -0.0571911,-0.052371 -0.0305452,0 -0.0505296,0.024859 -0.0505296,0.048905 0,0.015056 0.0135395,0.015056 0.0142978,0.015056 0.004658,0 0.014027,-0.0032 0.014027,-0.014298 0,-0.00699 -0.00482,-0.014027 -0.0142978,-0.014027 -0.002112,0 -0.002708,0 -0.003466,2.708e-4 0.006174,-0.017547 0.0207426,-0.027512 0.0363943,-0.027512 0.0245337,0 0.0362318,0.02188 0.0362318,0.043976 0,0.021609 -0.0135395,0.042893 -0.0283789,0.059682 l -0.0517752,0.057679 c -0.003033,0.00298 -0.003033,0.00352 -0.003033,0.010019 h 0.10008435 l 0.007636,-0.046955 h -0.00677 c -0.001354,0.00812 -0.003195,0.01993 -0.005903,0.023992 -0.00195,0.00211 -0.0197677,0.00211 -0.025671,0.00211 z"
       id="path1906" />
  </g>
  <path
     id="path1908"
     d="m 0.59121547,-3.1510115 v -3.25e-4 -2.707e-4 -2.708e-4 -2.708e-4 -2.708e-4 -2.708e-4 -2.166e-4 -2.708e-4 -2.167e-4 -2.166e-4 -2.166e-4 -2.167e-4 -2.166e-4 -2.166e-4 -1.625e-4 -2.166e-4 -3.25e-4 -3.249e-4 l -5.415e-4,-2.708e-4 v -2.708e-4 -2.708e-4 -2.166e-4 -2.167e-4 l -5.416e-4,-2.166e-4 v -1.625e-4 -1.625e-4 -1.083e-4 l -5.416e-4,-1.083e-4 v -1.083e-4 l -5.416e-4,-5.42e-5 v -5.41e-5 0 -5.42e-5 l -5.416e-4,-5.41e-5 v 0 -5.42e-5 h -5.415e-4 v -5.42e-5 0 h -5.416e-4 v -5.41e-5 0 h -5.416e-4 v 0 l -5.416e-4,-5.42e-5 v 0 0 h -5.416e-4 v 0 h -5.416e-4 -5.415e-4 c -0.016247,0.017276 -0.040077,0.017276 -0.048742,0.017276 v 0.00839 c 0.00542,0 0.021122,0 0.035203,-0.00704 v 0.1397823 c 0,0.00975 -5.416e-4,0.012944 -0.024913,0.012944 h -0.00867 v 0.00839 c 0.00921,-8.665e-4 0.033036,-8.665e-4 0.043327,-8.665e-4 0.010832,0 0.034661,0 0.043868,8.665e-4 v -0.00839 h -0.00867 c -0.024371,0 -0.024913,-0.00298 -0.024913,-0.012944 z"
     inkscape:connector-curvature="0"
     style="font-style:normal;font-variant:normal;font-weight:normal;font-stretch:normal;letter-spacing:normal;word-spacing:normal;text-anchor:start;fill:#000000;fill-opacity:1;fill-rule:evenodd;stroke:#000000;stroke-width:0;stroke-linecap:butt;stroke-linejoin:miter;stroke-miterlimit:10.43299961;stroke-dasharray:none;stroke-dashoffset:0;stroke-opacity:1" />
  <g
     id="g2023"
     transform="translate(-1.5470027,0.853073)">
    <path
       style="font-style:normal;font-variant:normal;font-weight:normal;font-stretch:normal;letter-spacing:normal;word-spacing:normal;text-anchor:start;fill:#000000;fill-opacity:1;fill-rule:evenodd;stroke:#000000;stroke-width:0;stroke-linecap:butt;stroke-linejoin:miter;stroke-miterlimit:10.43299961;stroke-dasharray:none;stroke-dashoffset:0;stroke-opacity:1"
       inkscape:connector-curvature="0"
       d="m 1.6898727,-1.8740672 0.00108,-5.42e-5 h 0.00108 5.416e-4 l 5.416e-4,-5.42e-5 h 5.416e-4 v -5.41e-5 l 5.416e-4,-5.42e-5 5.416e-4,-5.41e-5 5.415e-4,-5.42e-5 v -5.41e-5 l 5.416e-4,-1.084e-4 5.416e-4,-1.083e-4 v -1.083e-4 l 5.416e-4,-1.083e-4 v -1.625e-4 l 5.416e-4,-1.625e-4 5.416e-4,-2.166e-4 v -2.166e-4 l 5.415e-4,-2.167e-4 v -2.708e-4 -2.707e-4 l 5.416e-4,-1.084e-4 v -1.624e-4 -1.625e-4 -1.625e-4 -1.625e-4 -2.166e-4 -1.625e-4 -1.624e-4 l 5.416e-4,-2.167e-4 v -2.166e-4 -2.166e-4 -2.167e-4 -2.166e-4 -2.166e-4 -2.708e-4 -2.167e-4 c 0,-0.00542 -0.00487,-0.00542 -0.00975,-0.00542 H 1.5441872 c -0.00487,0 -0.00975,0 -0.00975,0.00542 0,0.00542 0.00487,0.00542 0.00975,0.00542 z"
       id="path1910" />
    <path
       style="font-style:normal;font-variant:normal;font-weight:normal;font-stretch:normal;letter-spacing:normal;word-spacing:normal;text-anchor:start;fill:#000000;fill-opacity:1;fill-rule:evenodd;stroke:#000000;stroke-width:0;stroke-linecap:butt;stroke-linejoin:miter;stroke-miterlimit:10.43299961;stroke-dasharray:none;stroke-dashoffset:0;stroke-opacity:1"
       inkscape:connector-curvature="0"
       d="m 1.8014386,-1.9847666 v -3.25e-4 -2.707e-4 -2.708e-4 -2.708e-4 -2.708e-4 -2.708e-4 -2.166e-4 -2.708e-4 -2.167e-4 -2.166e-4 -2.166e-4 -2.167e-4 -2.166e-4 -2.166e-4 -1.625e-4 -2.166e-4 -3.25e-4 -3.249e-4 -2.708e-4 l -5.416e-4,-2.708e-4 v -2.708e-4 -2.166e-4 -2.167e-4 -2.166e-4 l -5.415e-4,-1.625e-4 v -1.625e-4 -1.083e-4 l -5.416e-4,-1.083e-4 v -1.083e-4 -5.42e-5 l -5.416e-4,-5.41e-5 v 0 -5.42e-5 -5.41e-5 h -5.416e-4 v -5.42e-5 0 l -5.416e-4,-5.42e-5 v 0 0 l -5.416e-4,-5.41e-5 v 0 H 1.797106 v 0 -5.42e-5 h -5.416e-4 v 0 h -5.416e-4 v 0 h -5.416e-4 v 0 c -0.016789,0.017276 -0.040619,0.017276 -0.049284,0.017276 v 0.00839 c 0.00542,0 0.021122,0 0.035203,-0.00704 v 0.1397823 c 0,0.00975 -5.416e-4,0.012944 -0.024913,0.012944 h -0.00867 v 0.00839 c 0.00975,-8.665e-4 0.033036,-8.665e-4 0.043868,-8.665e-4 0.010832,0 0.03412,0 0.043327,8.665e-4 v -0.00839 h -0.00867 c -0.02383,0 -0.024913,-0.00298 -0.024913,-0.012944 z"
       id="path1912" />
  </g>
  <path
     style="fill:none;stroke:#000000;stroke-width:0.01239104px;stroke-linecap:butt;stroke-linejoin:miter;stroke-opacity:1;marker-start:url(#Arrow1Mstart)"
     d="M -1.1576495,-0.75439785 2.1750355,-3.8963203"
     id="path2266"
     inkscape:connector-curvature="0"
     sodipodi:nodetypes="cc" />
  <path
     id="path1870-3"
     d="m 1.1458909,-3.3652324 0.00114,-0.00693 0.01836,-0.073493 c 0.00233,-0.00937 0.00292,-0.010236 0.014514,-0.010236 h 0.025942 c 0.022422,0 0.036719,0.00731 0.036719,0.025942 0,0.010561 -0.00542,0.03374 -0.015923,0.043489 -0.013539,0.012077 -0.029679,0.014298 -0.041648,0.014298 h -0.037965 l -0.00114,0.00693 h 0.045872 c 0.038344,0 0.075821,-0.028 0.075821,-0.05822 0,-0.020851 -0.017764,-0.040781 -0.053129,-0.040781 h -0.087411 c -0.00514,0 -0.00812,0 -0.00812,0.00515 0,0.0032 0.00244,0.0032 0.00785,0.0032 0.00347,0 0.00839,2.708e-4 0.01159,5.416e-4 0.00433,5.957e-4 0.00596,0.00135 0.00596,0.00428 0,0.00114 -2.708e-4,0.00195 -0.00114,0.0052 l -0.036123,0.1448732 c -0.00271,0.010561 -0.0032,0.012673 -0.024534,0.012673 -0.00455,0 -0.00753,0 -0.00753,0.00514 0,0.00325 0.0032,0.00325 0.00395,0.00325 0.00764,0 0.026754,-8.665e-4 0.034282,-8.665e-4 0.00569,0 0.01159,3.249e-4 0.017276,3.249e-4 0.00601,0 0.011915,5.416e-4 0.017601,5.416e-4 0.00184,0 0.00531,0 0.00531,-0.00542 0,-0.00298 -0.00233,-0.00298 -0.00753,-0.00298 -0.00997,0 -0.017493,0 -0.017493,-0.00482 0,-0.00162 4.874e-4,-0.00298 7.582e-4,-0.00455 z"
     inkscape:connector-curvature="0"
     style="font-style:normal;font-variant:normal;font-weight:normal;font-stretch:normal;letter-spacing:normal;word-spacing:normal;text-anchor:start;fill:#000000;fill-opacity:1;fill-rule:evenodd;stroke:#000000;stroke-width:0;stroke-linecap:butt;stroke-linejoin:miter;stroke-miterlimit:10.43299961;stroke-dasharray:none;stroke-dashoffset:0;stroke-opacity:1" />
  <g
     id="g2441"
     transform="matrix(0.0124971,0,0,0.0124971,-2.7048819,-4.4150608)">
    <g
       word-spacing="normal"
       letter-spacing="normal"
       font-size-adjust="none"
       font-stretch="normal"
       font-weight="normal"
       font-variant="normal"
       font-style="normal"
       stroke-miterlimit="10.433"
       xml:space="preserve"
       transform="matrix(0.4426413,0,0,-0.4426413,-77.462228,335.76613)"
       id="content"
       style="font-style:normal;font-variant:normal;font-weight:normal;font-stretch:normal;letter-spacing:normal;word-spacing:normal;text-anchor:start;fill:none;fill-opacity:1;fill-rule:evenodd;stroke:#000000;stroke-linecap:butt;stroke-linejoin:miter;stroke-miterlimit:10.43299961;stroke-dasharray:none;stroke-dashoffset:0;stroke-opacity:1"><path
         id="path2420"
         d="m 470.19,428.61 -0.03,-0.11 -0.04,-0.12 -0.05,-0.12 -0.05,-0.12 -0.05,-0.12 -0.06,-0.13 -0.06,-0.13 -0.07,-0.12 -0.07,-0.13 -0.07,-0.13 -0.08,-0.13 -0.09,-0.12 -0.09,-0.13 -0.09,-0.12 -0.1,-0.12 -0.1,-0.12 -0.1,-0.12 -0.11,-0.11 -0.12,-0.1 -0.12,-0.1 -0.12,-0.1 -0.12,-0.09 -0.13,-0.08 -0.14,-0.08 -0.14,-0.07 -0.14,-0.06 -0.14,-0.05 -0.15,-0.05 -0.15,-0.04 -0.16,-0.02 -0.16,-0.02 h -0.16 c -0.11,0 -1.16,0 -1.89,0.48 1.43,0.45 1.53,1.72 1.53,1.92 0,0.77 -0.6,1.3 -1.39,1.3 -0.97,0 -1.99,-0.84 -1.99,-2.14 0,-1.73 1.95,-2.53 3.66,-2.53 1.61,0 3.03,1 3.9,2.47 0.83,-1.85 2.75,-2.47 4.14,-2.47 4.02,0 6.15,4.34 6.15,5.33 0,0.45 -0.46,0.45 -0.57,0.45 -0.48,0 -0.51,-0.17 -0.65,-0.59 -0.74,-2.41 -2.83,-4.22 -4.78,-4.22 -1.4,0 -2.13,0.93 -2.13,2.26 0,0.91 0.84,4.08 1.81,7.96 0.71,2.67 2.27,3.54 3.42,3.54 0.07,0 1.15,0 1.88,-0.48 -1.11,-0.31 -1.53,-1.3 -1.53,-1.92 0,-0.77 0.59,-1.29 1.39,-1.29 0.81,0 1.95,0.66 1.95,2.13 0,1.95 -2.23,2.53 -3.62,2.53 -1.74,0 -3.14,-1.14 -3.91,-2.47 -0.62,1.44 -2.22,2.47 -4.17,2.47 -3.91,0 -6.14,-4.28 -6.14,-5.33 0,-0.45 0.5,-0.45 0.59,-0.45 0.46,0 0.49,0.14 0.67,0.59 0.86,2.72 3.07,4.22 4.77,4.22 1.16,0 2.09,-0.62 2.09,-2.29 0,-0.71 -0.42,-2.44 -0.73,-3.63 z"
         inkscape:connector-curvature="0"
         style="fill:#000000;stroke-width:0" /><path
         id="path2422"
         d="m 498.75,444.73 h -1.05 c -0.08,-0.48 -0.32,-2.01 -0.72,-2.26 -0.2,-0.16 -2.29,-0.16 -2.67,-0.16 h -4.87 c 1.64,1.22 3.48,2.61 4.98,3.61 2.24,1.55 4.33,3 4.33,5.64 0,3.19 -3.02,4.96 -6.58,4.96 -3.36,0 -5.83,-1.96 -5.83,-4.4 0,-1.29 1.1,-1.51 1.46,-1.51 0.67,0 1.47,0.45 1.47,1.47 0,0.89 -0.66,1.39 -1.43,1.47 0.69,1.12 2.14,1.87 3.82,1.87 2.4,0 4.42,-1.45 4.42,-3.89 0,-2.09 -1.44,-3.69 -3.36,-5.31 l -6.08,-5.16 c -0.25,-0.22 -0.26,-0.22 -0.3,-0.39 v -0.75 h 11.58 z"
         inkscape:connector-curvature="0"
         style="fill:#000000;stroke-width:0" /><polyline
         id="polyline2424"
         points="462,417 504.12,417 504.12,419.04 462,419.04 "
         style="fill:#000000;fill-rule:nonzero;stroke-width:0" /><path
         id="path2426"
         d="m 491.12,393.8 v 1.25 h -3.88 v 15.54 c 0,0.72 0,0.97 -0.76,0.97 -0.43,0 -0.57,0 -0.91,-0.48 l -11.53,-16.03 v -1.25 h 10.25 l 0.23,1.25 h -9.2 l 9.2,12.75 v -12.75 l -0.23,-1.25 v -2.86 c 0,-1.19 0,-1.61 -2.83,-1.61 h -0.94 v -1.25 c 1.74,0.06 3.97,0.14 5.22,0.14 1.3,0 3.52,-0.08 5.27,-0.14 v 1.25 h -0.94 c -2.83,0 -2.83,0.42 -2.83,1.61 v 2.86 z"
         inkscape:connector-curvature="0"
         style="fill:#000000;stroke-width:0" /><path
         id="path2428"
         d="m 540.93,416.69 h 13.91 c 0.69,0 1.64,0 1.64,1 0,1 -0.95,1 -1.64,1 h -13.91 v 13.95 c 0,0.69 0,1.65 -1,1.65 -0.98,0 -0.98,-0.96 -0.98,-1.65 V 418.69 H 525 c -0.71,0 -1.65,0 -1.65,-1 0,-1 0.94,-1 1.65,-1 h 13.95 v -13.94 c 0,-0.7 0,-1.65 0.98,-1.65 1,0 1,0.95 1,1.65 z"
         inkscape:connector-curvature="0"
         style="fill:#000000;stroke-width:0" /><path
         id="path2430"
         d="m 594.7,424.22 v 0.03 l 0.01,0.04 0.02,0.06 0.01,0.05 0.02,0.06 0.01,0.05 0.01,0.04 0.01,0.05 0.01,0.04 0.01,0.04 0.01,0.04 0.01,0.04 0.01,0.04 v 0.03 l 0.01,0.03 v 0.03 l 0.01,0.03 v 0.03 l 0.01,0.03 v 0.05 l 0.01,0.05 v 0.06 0.05 0.05 0.03 0.03 0.03 0.03 c 0,0.91 -0.68,1.35 -1.43,1.35 -0.5,0 -1.3,-0.3 -1.75,-1.05 -0.1,-0.25 -0.5,-1.78 -0.69,-2.69 -0.36,-1.29 -0.71,-2.64 -1,-3.98 l -2.25,-8.97 c -0.19,-0.75 -2.33,-4.23 -5.63,-4.23 -2.53,0 -3.09,2.18 -3.09,4.03 0,2.29 0.86,5.39 2.55,9.76 0.79,2.05 1,2.6 1,3.6 0,2.23 -1.6,4.07 -4.1,4.07 -4.73,0 -6.58,-7.21 -6.58,-7.67 0,-0.5 0.5,-0.5 0.61,-0.5 0.5,0 0.55,0.11 0.8,0.91 1.34,4.69 3.33,6.17 5.03,6.17 0.39,0 1.25,0 1.25,-1.59 0,-1.25 -0.5,-2.53 -0.86,-3.49 -1.98,-5.28 -2.89,-8.12 -2.89,-10.47 0,-4.42 3.14,-5.92 6.08,-5.92 1.95,0 3.64,0.85 5.03,2.24 -0.64,-2.58 -1.23,-5.04 -3.23,-7.68 -1.3,-1.68 -3.19,-3.14 -5.49,-3.14 -0.69,0 -2.94,0.16 -3.78,2.1 0.8,0 1.45,0 2.14,0.61 0.5,0.43 1,1.09 1,2.03 0,1.54 -1.34,1.75 -1.84,1.75 -1.14,0 -2.8,-0.8 -2.8,-3.24 0,-2.5 2.2,-4.34 5.28,-4.34 5.14,0 10.27,4.55 11.67,10.17 z"
         inkscape:connector-curvature="0"
         style="fill:#000000;stroke-width:0" /><path
         id="path2432"
         d="m 614.35,429.7 h -1.18 c -0.1,-0.76 -0.45,-2.82 -0.91,-3.17 -0.26,-0.2 -2.95,-0.2 -3.44,-0.2 h -6.42 c 3.66,3.23 4.88,4.2 6.97,5.84 2.58,2.06 4.98,4.22 4.98,7.53 0,4.22 -3.68,6.8 -8.15,6.8 -4.31,0 -7.25,-3.03 -7.25,-6.23 0,-1.79 1.5,-1.96 1.86,-1.96 0.83,0 1.84,0.6 1.84,1.85 0,0.62 -0.25,1.84 -2.06,1.84 1.08,2.47 3.45,3.23 5.09,3.23 3.49,0 5.3,-2.7 5.3,-5.53 0,-3.03 -2.16,-5.43 -3.28,-6.68 l -8.39,-8.3 c -0.36,-0.31 -0.36,-0.39 -0.36,-1.36 h 14.36 z"
         inkscape:connector-curvature="0"
         style="fill:#000000;stroke-width:0" /><path
         id="path2434"
         d="m 667.11,421.54 h 0.14 0.15 0.14 l 0.07,0.01 h 0.08 l 0.07,0.01 0.07,0.01 0.07,0.01 0.07,0.01 0.07,0.01 0.06,0.02 0.07,0.02 0.06,0.02 0.06,0.02 0.06,0.03 0.06,0.03 0.05,0.04 0.05,0.03 0.05,0.05 0.04,0.04 0.04,0.05 0.02,0.03 0.02,0.02 0.01,0.03 0.02,0.03 0.01,0.03 0.02,0.04 0.01,0.03 0.01,0.03 0.01,0.04 0.01,0.04 v 0.04 l 0.01,0.04 v 0.04 l 0.01,0.04 v 0.04 0.05 c 0,1 -0.95,1 -1.64,1 h -29.84 c -0.71,0 -1.64,0 -1.64,-1 0,-0.98 0.93,-0.98 1.68,-0.98 z"
         inkscape:connector-curvature="0"
         style="fill:#000000;stroke-width:0" /><path
         id="path2436"
         d="m 667.16,411.86 h 0.07 0.06 0.14 l 0.14,0.01 h 0.07 l 0.07,0.01 0.07,0.01 h 0.07 l 0.06,0.01 0.07,0.02 0.07,0.01 0.06,0.02 0.07,0.02 0.06,0.02 0.06,0.02 0.06,0.03 0.05,0.03 0.05,0.04 0.05,0.04 0.05,0.04 0.04,0.04 0.02,0.03 0.02,0.02 0.02,0.03 0.02,0.03 0.01,0.03 0.02,0.03 0.01,0.03 0.02,0.03 0.01,0.04 0.01,0.03 0.01,0.04 0.01,0.04 v 0.04 l 0.01,0.04 v 0.04 l 0.01,0.04 v 0.05 0.04 c 0,1 -0.95,1 -1.69,1 h -29.75 c -0.75,0 -1.68,0 -1.68,-1 0,-1 0.93,-1 1.64,-1 z"
         inkscape:connector-curvature="0"
         style="fill:#000000;stroke-width:0" /><path
         id="path2438"
         d="m 700.08,437.13 v 0.05 0.06 0.05 0.05 0.05 0.05 0.04 0.05 l -0.01,0.04 v 0.04 0.04 0.04 0.04 0.03 l -0.01,0.04 v 0.03 l -0.01,0.07 -0.01,0.06 -0.01,0.05 -0.01,0.05 -0.02,0.05 -0.02,0.04 -0.02,0.04 -0.02,0.03 -0.03,0.03 -0.03,0.03 -0.04,0.03 -0.04,0.02 -0.04,0.02 -0.03,0.01 h -0.02 l -0.03,0.01 -0.03,0.01 h -0.02 l -0.03,0.01 -0.03,0.01 h -0.04 -0.03 l -0.03,0.01 h -0.04 -0.04 l -0.04,0.01 h -0.04 -0.04 -0.04 -0.05 -0.04 l -0.05,0.01 h -0.05 -0.05 -0.05 c -3.1,-3.19 -7.47,-3.19 -9.06,-3.19 v -1.55 c 1,0 3.93,0 6.51,1.3 v -25.81 c 0,-1.8 -0.14,-2.39 -4.62,-2.39 h -1.6 v -1.55 c 1.75,0.15 6.08,0.15 8.06,0.15 2,0 6.33,0 8.08,-0.15 v 1.55 h -1.59 c -4.49,0 -4.64,0.54 -4.64,2.39 z"
         inkscape:connector-curvature="0"
         style="fill:#000000;stroke-width:0" /></g>  </g>
</svg>
