<svg height="102.065mm" viewBox="0 0 102.065 102.065" width="102.065mm" xmlns="http://www.w3.org/2000/svg"><g stroke="#000" stroke-linecap="round"><path d="m1.0325 1.0325h100v100h-100z" fill="#fff" stroke-width="2.065"/><g stroke-width=".265"><g transform="translate(-8.605892 -114.16095)"><path d="m22.846204 129.00214-.787895-.50039-.847211.39166.232421-.90396-.634292-.68471.931539-.0583.455197-.81483.343302.86793.915619.18112-.719366.5947z"/><path d="m47.846206 129.00214-.787895-.50039-.847211.39166.232421-.90396-.634292-.68471.931539-.0583.455197-.81483.343302.86793.915619.18112-.719366.5947z"/><path d="m72.846206 129.00214-.787895-.50039-.847211.39166.232421-.90396-.634292-.68471.931539-.0583.455197-.81483.343302.86793.915619.18112-.719366.5947z"/><path d="m97.846206 129.00214-.787895-.50039-.847211.39166.232421-.90396-.634292-.68471.931539-.0583.455197-.81483.343302.86793.915619.18112-.719366.5947z"/></g><g transform="translate(-8.605892 -89.160949)"><path d="m22.846204 129.00214-.787895-.50039-.847211.39166.232421-.90396-.634292-.68471.931539-.0583.455197-.81483.343302.86793.915619.18112-.719366.5947z"/><path d="m47.846206 129.00214-.787895-.50039-.847211.39166.232421-.90396-.634292-.68471.931539-.0583.455197-.81483.343302.86793.915619.18112-.719366.5947z"/><path d="m72.846206 129.00214-.787895-.50039-.847211.39166.232421-.90396-.634292-.68471.931539-.0583.455197-.81483.343302.86793.915619.18112-.719366.5947z"/><path d="m97.846206 129.00214-.787895-.50039-.847211.39166.232421-.90396-.634292-.68471.931539-.0583.455197-.81483.343302.86793.915619.18112-.719366.5947z"/></g><g transform="translate(-8.605892 -64.160949)"><path d="m22.846204 129.00214-.787895-.50039-.847211.39166.232421-.90396-.634292-.68471.931539-.0583.455197-.81483.343302.86793.915619.18112-.719366.5947z"/><path d="m47.846206 129.00214-.787895-.50039-.847211.39166.232421-.90396-.634292-.68471.931539-.0583.455197-.81483.343302.86793.915619.18112-.719366.5947z"/><path d="m72.846206 129.00214-.787895-.50039-.847211.39166.232421-.90396-.634292-.68471.931539-.0583.455197-.81483.343302.86793.915619.18112-.719366.5947z"/><path d="m97.846206 129.00214-.787895-.50039-.847211.39166.232421-.90396-.634292-.68471.931539-.0583.455197-.81483.343302.86793.915619.18112-.719366.5947z"/></g><g transform="translate(-8.605892 -39.160949)"><path d="m22.846204 129.00214-.787895-.50039-.847211.39166.232421-.90396-.634292-.68471.931539-.0583.455197-.81483.343302.86793.915619.18112-.719366.5947z"/><path d="m47.846206 129.00214-.787895-.50039-.847211.39166.232421-.90396-.634292-.68471.931539-.0583.455197-.81483.343302.86793.915619.18112-.719366.5947z"/><path d="m72.846206 129.00214-.787895-.50039-.847211.39166.232421-.90396-.634292-.68471.931539-.0583.455197-.81483.343302.86793.915619.18112-.719366.5947z"/><path d="m97.846206 129.00214-.787895-.50039-.847211.39166.232421-.90396-.634292-.68471.931539-.0583.455197-.81483.343302.86793.915619.18112-.719366.5947z"/></g></g></g></svg>