<svg height="102.72842mm" viewBox="0 0 77.7715 102.72842" width="77.7715mm" xmlns="http://www.w3.org/2000/svg" xmlns:xlink="http://www.w3.org/1999/xlink"><marker id="a" orient="auto" overflow="visible" refX="0.0" refY="0.0"><path d="m0 0 5-5-17.5 5 17.5 5z" fill-rule="evenodd" stroke="#000" stroke-width="1pt" transform="matrix(-.4 0 0 -.4 -4 0)"/></marker><marker id="b" orient="auto" overflow="visible" refX="0.0" refY="0.0"><path d="m0 0 5-5-17.5 5 17.5 5z" fill-rule="evenodd" stroke="#000" stroke-width="1pt" transform="matrix(-.4 0 0 -.4 -4 0)"/></marker><marker id="c" orient="auto" overflow="visible" refX="0.0" refY="0.0"><path d="m0 0 5-5-17.5 5 17.5 5z" fill-rule="evenodd" stroke="#000" stroke-width="1pt" transform="matrix(-.4 0 0 -.4 -4 0)"/></marker><marker id="d" orient="auto" overflow="visible" refX="0.0" refY="0.0"><path d="m0 0 5-5-17.5 5 17.5 5z" fill-rule="evenodd" stroke="#000" stroke-width="1pt" transform="matrix(-.4 0 0 -.4 -4 0)"/></marker><marker id="e" orient="auto" overflow="visible" refX="0.0" refY="0.0"><path d="m0 0 5-5-17.5 5 17.5 5z" fill-rule="evenodd" stroke="#000" stroke-width="1pt" transform="matrix(-.4 0 0 -.4 -4 0)"/></marker><marker id="f" orient="auto" overflow="visible" refX="0.0" refY="0.0"><path d="m0 0 5-5-17.5 5 17.5 5z" fill-rule="evenodd" stroke="#000" stroke-width="1pt" transform="matrix(-.4 0 0 -.4 -4 0)"/></marker><g transform="translate(-31.31151 -95.058905)"><g stroke-width=".705556"><path d="m50.51394 101.89324v72.96458l46.772168 22.71791-.267272-102.364225z" fill="#ececec" stroke="#000"/><path d="m73.499119 116.62647-41.694046 12.26099" fill="none" marker-end="url(#b)" stroke="#000"/><path d="m73.499119 116.62647 23.519717-6.949" fill="none" stroke="#808080" stroke-dasharray="2.116667 2.116667"/><path d="m97.018836 109.67747 12.027134-3.50791" fill="none" stroke="#000"/><path d="m73.499119 127.63315-41.694046 12.26099" fill="none" marker-end="url(#c)" stroke="#000"/><path d="m73.499119 127.63315 23.519717-6.949" fill="none" stroke="#808080" stroke-dasharray="2.116667 2.116667"/><path d="m97.018836 120.68415 12.027134-3.50791" fill="none" stroke="#000"/><path d="m73.499119 138.63981-41.694046 12.26099" fill="none" marker-end="url(#d)" stroke="#000"/><path d="m73.499119 138.63981 23.519717-6.949" fill="none" stroke="#808080" stroke-dasharray="2.116667 2.116667"/><path d="m97.018836 131.69081 12.027134-3.50791" fill="none" stroke="#000"/><path d="m73.499119 149.64648-41.694046 12.26099" fill="none" marker-end="url(#e)" stroke="#000"/><path d="m73.499119 149.64648 23.519717-6.949" fill="none" stroke="#808080" stroke-dasharray="2.116667 2.116667"/><path d="m97.018836 142.69748 12.027134-3.50791" fill="none" stroke="#000"/><path d="m73.499119 160.65316-41.694046 12.26099" fill="none" marker-end="url(#f)" stroke="#000"/><path d="m73.499119 160.65316 23.519717-6.949" fill="none" stroke="#808080" stroke-dasharray="2.116667 2.116667"/><path d="m97.018836 153.70416 12.027134-3.50791" fill="none" stroke="#000"/><path d="m73.499119 171.65983-41.694046 12.26099" fill="none" marker-end="url(#a)" stroke="#000"/><path d="m73.499119 171.65983 23.519717-6.949" fill="none" stroke="#808080" stroke-dasharray="2.116667 2.116667"/><path d="m97.018836 164.71083 12.027134-3.50791" fill="none" stroke="#000"/></g><text font-family="sans-serif" font-size="6.35" letter-spacing="0" stroke-width=".264583" word-spacing="0" x="55.124008" y="112.17571"><tspan font-size="9.877778" font-style="italic" stroke-width=".264583" x="55.124008" y="112.17571">A</tspan></text></g></svg>