<svg height="180.04425mm" viewBox="0 0 175.49086 180.04425" width="175.49086mm" xmlns="http://www.w3.org/2000/svg" xmlns:xlink="http://www.w3.org/1999/xlink"><marker id="a" orient="auto" overflow="visible" refX="0" refY="0"><path d="m0 0 5-5-17.5 5 17.5 5z" fill-rule="evenodd" stroke="#000" stroke-width="1pt" transform="matrix(.4 0 0 .4 4 0)"/></marker><marker id="b" orient="auto" overflow="visible" refX="0" refY="0"><path d="m0 0 5-5-17.5 5 17.5 5z" fill-rule="evenodd" stroke="#000" stroke-width="1pt" transform="matrix(-.4 0 0 -.4 -4 0)"/></marker><g transform="translate(-8.22429 -122.28498)"><circle cx="137.39435" cy="184.55209" fill="#ffb380" r="21.544643" stroke="#000" stroke-linecap="round" stroke-width="1.965"/><path d="m172.92411 132.20238-43.08929 30.87593-102.998511 21.28478" fill="none" marker-end="url(#b)" stroke="#000" stroke-width=".565"/><path d="m27.883046 197.42139c.200304-.2003.02527-.69444-.749591-2.11595-.763718-1.40109-1.241249-2.18656-3.449101-5.67321-.424978-.67113-.953005-1.63206-1.173394-2.13541-.604694-1.38106-.567642-1.89682.321741-4.47875.397726-1.15462.83338-2.60975.968126-3.23362.426113-1.97291.627113-4.88094.422824-6.11739-.07712-.46679-.327348-.6985-.532638-.49321-.0595.0595-.132897 1.09636-.163105 2.30414-.07126 2.84915-.277134 3.95134-1.321869 7.07689-.819867 2.45281-.854277 2.60216-.803975 3.48933.0452.79705.131532 1.08752.616594 2.07439.31022.63116 1.247469 2.22046 2.082782 3.53178s1.943577 3.16455 2.462809 4.11829c.868292 1.5949 1.093893 1.87763 1.318797 1.65272zm-8.345741-3.44335c.258534-.48307-1.173167-2.17687-2.101632-2.48635-.07208-.024.0059-.36934.18711-.82831.827611-2.09638.686561-4.7553-.34724-6.5458l-.295438-.51169.585486-.58652c.322017-.32258.758626-.88967.970243-1.26019.481705-.84343 1.062777-2.58567 1.254909-3.76261.127441-.78067.121759-.92238-.04358-1.08773-.251169-.25117-.503164-.0494-.701075.56133-.215851.66609-.88829 1.95991-1.341723 2.58157l-.399303.54743-.145921-.6479c-.08026-.35635-.209298-.71128-.286759-.78874-.252221-.25222-.554462.0772-.644292.70231-.167819 1.1678-1.060591 2.01539-3.4881 3.31155-2.9039826 1.55058-3.7625026 2.46611-4.3735846 4.66406-.201144.72347-.200231.73752.07669 1.18559.628497 1.01693 2.4121966 1.77207 5.9157046 2.50446 1.006696.21044 2.031277.45157 2.276852.53584.825462.28325 1.555877.8005 1.951514 1.38199.559069.82168.739925.92251.950145.52971zm-6.391451-3.54572c-1.690342-.4269-2.950296-.9806-3.4837086-1.53094l-.388064-.40037.210354-.40678c.329502-.63719 1.4971026-1.72533 2.4338906-2.26825.894018-.51812 2.614619-1.30727 2.688723-1.23317.02371.0237-.01845.28869-.09362.58888-.227007.90631-.158898 3.69675.115325 4.7251.172435.64663.195983.88466.08751.88466-.08162 0-.788303-.16161-1.57041-.35913zm3.285222-3.83923c-.108786-.28485-.179818-.75849-.158516-1.05695.03159-.44234.08552-.54749.296278-.57758.514025-.0734 1.021048 1.6692.606341 2.0839-.284923.28493-.517257.14462-.744103-.44937z" stroke-width=".122023"/><g stroke="#000"><path d="m183.14447 129.69782-3.2157-.25957-1.95882 2.56342-.74684-3.13853-3.04326-1.0708 2.75413-1.68015.078-3.22521 2.44898 2.10014 3.09146-.92248-1.24058 2.97809z" fill="#ff0" stroke-linecap="round" stroke-width=".565"/><circle cx="137.39435" cy="279.80209" fill="#ffb380" r="21.544643" stroke-linecap="round" stroke-width="1.965"/><path d="m172.92411 227.45238-43.08929 30.87593-102.998511 21.28478" fill="none" marker-start="url(#a)" stroke-width=".565"/></g><path d="m27.883046 292.67139c.200304-.2003.02527-.69444-.749591-2.11595-.763718-1.40109-1.241249-2.18656-3.449101-5.67321-.424978-.67113-.953005-1.63206-1.173394-2.13541-.604694-1.38106-.567642-1.89682.321741-4.47875.397726-1.15462.83338-2.60975.968126-3.23362.426113-1.97291.627113-4.88094.422824-6.11739-.07712-.46679-.327348-.6985-.532638-.49321-.0595.0595-.132897 1.09636-.163105 2.30414-.07126 2.84915-.277134 3.95134-1.321869 7.07689-.819867 2.45281-.854277 2.60216-.803975 3.48933.0452.79705.131532 1.08752.616594 2.07439.31022.63116 1.247469 2.22046 2.082782 3.53178s1.943577 3.16455 2.462809 4.11829c.868292 1.5949 1.093893 1.87763 1.318797 1.65272zm-8.345741-3.44335c.258534-.48307-1.173167-2.17687-2.101632-2.48635-.07208-.024.0059-.36934.18711-.82831.827611-2.09638.686561-4.7553-.34724-6.5458l-.295438-.51169.585486-.58652c.322017-.32258.758626-.88967.970243-1.26019.481705-.84343 1.062777-2.58567 1.254909-3.76261.127441-.78067.121759-.92238-.04358-1.08773-.251169-.25117-.503164-.0494-.701075.56133-.215851.66609-.88829 1.95991-1.341723 2.58157l-.399303.54743-.145921-.6479c-.08026-.35635-.209298-.71128-.286759-.78874-.252221-.25222-.554462.0772-.644292.70231-.167819 1.1678-1.060591 2.01539-3.4881 3.31155-2.9039826 1.55058-3.7625026 2.46611-4.3735846 4.66406-.201144.72347-.200231.73752.07669 1.18559.628497 1.01693 2.4121966 1.77207 5.9157046 2.50446 1.006696.21044 2.031277.45157 2.276852.53584.825462.28325 1.555877.8005 1.951514 1.38199.559069.82168.739925.92251.950145.52971zm-6.391451-3.54572c-1.690342-.4269-2.950296-.9806-3.4837086-1.53094l-.388064-.40037.210354-.40678c.329502-.63719 1.4971026-1.72533 2.4338906-2.26825.894018-.51812 2.614619-1.30727 2.688723-1.23317.02371.0237-.01845.28869-.09362.58888-.227007.90631-.158898 3.69675.115325 4.7251.172435.64663.195983.88466.08751.88466-.08162 0-.788303-.16161-1.57041-.35913zm3.285222-3.83923c-.108786-.28485-.179818-.75849-.158516-1.05695.03159-.44234.08552-.54749.296278-.57758.514025-.0734 1.021048 1.6692.606341 2.0839-.284923.28493-.517257.14462-.744103-.44937z" stroke-width=".122023"/><path d="m183.14447 224.94783-3.2157-.25957-1.95882 2.56342-.74684-3.13853-3.04326-1.07081 2.75413-1.68014.078-3.22521 2.44898 2.10014 3.09146-.92249-1.24058 2.9781z" fill="#ff0" stroke="#000" stroke-linecap="round" stroke-width=".565"/><text font-family="sans-serif" font-size="5.644444" letter-spacing="0" stroke-width=".264583" word-spacing="0" x="19.185598" y="136.39769"><tspan stroke-width=".264583" x="19.185598" y="136.39769">Forward ray-tracing</tspan></text><text font-family="sans-serif" font-size="5.644444" letter-spacing="0" stroke-width=".264583" word-spacing="0" x="19.185598" y="233.53757"><tspan stroke-width=".264583" x="19.185598" y="233.53757">Backward ray-tracing</tspan></text></g></svg>