<svg height="32.628mm" viewBox="0 0 160.05 32.628" width="160.05mm" xmlns="http://www.w3.org/2000/svg" xmlns:xlink="http://www.w3.org/1999/xlink"><marker id="a" orient="auto" overflow="visible"><path d="m0 0 5-5-17.5 5 17.5 5z" fill-rule="evenodd" stroke="#000" stroke-width="1pt" transform="matrix(-.8 0 0 -.8 -10 0)"/></marker><marker id="b" orient="auto" overflow="visible"><path d="m0 0 5-5-17.5 5 17.5 5z" fill-rule="evenodd" stroke="#000" stroke-width="1pt" transform="matrix(-.8 0 0 -.8 -10 0)"/></marker><marker id="c" orient="auto" overflow="visible"><path d="m0 0 5-5-17.5 5 17.5 5z" fill-rule="evenodd" stroke="#000" stroke-width="1pt" transform="matrix(-.8 0 0 -.8 -10 0)"/></marker><g transform="translate(-4.9454 -138.65)"><path d="m5.3454 160.85h31.671v10.023h-31.671z" fill="#fca" stroke="#000" stroke-linecap="round" stroke-width=".8"/><text font-family="sans-serif" font-size="6.35" letter-spacing="0" stroke-width=".26458" word-spacing="0" x="9.710492" y="168.2319"><tspan stroke-width=".26458" x="9.710492" y="168.2319">c0ba6c</tspan></text><path d="m47.872 160.85h31.671v10.023h-31.671z" fill="#fca" stroke="#000" stroke-linecap="round" stroke-width=".8"/><text font-family="sans-serif" font-size="6.35" letter-spacing="0" stroke-width=".26458" word-spacing="0" x="51.802818" y="168.2319"><tspan stroke-width=".26458" x="51.802818" y="168.2319">eade34</tspan></text><path d="m90.398 160.85h31.671v10.023h-31.671z" fill="#fca" stroke="#000" stroke-linecap="round" stroke-width=".8"/><g stroke-width=".26458"><text font-family="sans-serif" font-size="6.35" letter-spacing="0" word-spacing="0" x="95.177246" y="168.2319"><tspan stroke-width=".26458" x="95.177246" y="168.2319">a03f75</tspan></text><path d="m47.708 165.86h-9.9558" fill="none" marker-end="url(#b)" stroke="#000"/><path d="m90.404 165.86h-9.9558" fill="none" marker-end="url(#a)" stroke="#000"/><path d="m105.91 145.12v13.759" fill="none" marker-end="url(#c)" stroke="#000"/><text font-family="sans-serif" font-size="6.35" letter-spacing="0" word-spacing="0" x="96.774605" y="143.2771"><tspan stroke-width=".26458" x="96.774605" y="143.2771">HEAD</tspan></text></g><path d="m132.92 160.85h31.671v10.023h-31.671z" fill="#cfa" stroke="#000" stroke-linecap="round" stroke-width=".8"/><text font-family="sans-serif" font-size="6.35" letter-spacing="0" stroke-width=".26458" word-spacing="0" x="137.37654" y="168.17609"><tspan stroke-width=".26458" x="137.37654" y="168.17609">c829ca</tspan></text><path d="m132.7 165.86h-9.9558" fill="none" stroke="#000" stroke-width=".26458"/><path d="m122.23 165.86 4.6889-1.333-1.3272 1.333 1.333 1.3389z" fill="none"/><path d="m122.23 165.86 4.6889-1.333-1.3272 1.333 1.333 1.3389z"/><path d="m5.4799 139.14h31.671v10.023h-31.671z" fill="#ccc" stroke="#000" stroke-linecap="round" stroke-width=".8"/><text font-family="sans-serif" font-size="6.35" letter-spacing="0" stroke-width=".26458" word-spacing="0" x="13.426208" y="146.45953"><tspan stroke-width=".26458" x="13.426208" y="146.45953">Start</tspan></text><path d="m6.1637 148.74v-8.9256l30.229.0124" fill="none" stroke="#f9f9f9" stroke-width=".565"/><path d="m6.4419 148.45h30.022v-8.9132" fill="none" stroke="#808080" stroke-width=".565"/></g></svg>