<svg height="52.728397mm" viewBox="0 0 173.69618 52.728397" width="173.69618mm" xmlns="http://www.w3.org/2000/svg" xmlns:xlink="http://www.w3.org/1999/xlink"><marker id="a" orient="auto" overflow="visible" refX="0" refY="0"><path d="m0 0 5-5-17.5 5 17.5 5z" fill-rule="evenodd" stroke="#000" stroke-width="1pt" transform="matrix(-.8 0 0 -.8 -10 0)"/></marker><marker id="b" orient="auto" overflow="visible" refX="0" refY="0"><path d="m0 0 5-5-17.5 5 17.5 5z" fill-rule="evenodd" stroke="#000" stroke-width="1pt" transform="matrix(-.8 0 0 -.8 -10 0)"/></marker><marker id="c" orient="auto" overflow="visible" refX="0" refY="0"><path d="m0 0 5-5-17.5 5 17.5 5z" fill-rule="evenodd" stroke="#000" stroke-width="1pt" transform="matrix(-.8 0 0 -.8 -10 0)"/></marker><marker id="d" orient="auto" overflow="visible" refX="0" refY="0"><path d="m0 0 5-5-17.5 5 17.5 5z" fill-rule="evenodd" stroke="#000" stroke-width="1pt" transform="matrix(-.8 0 0 -.8 -10 0)"/></marker><marker id="e" orient="auto" overflow="visible" refX="0" refY="0"><path d="m0 0 5-5-17.5 5 17.5 5z" fill-rule="evenodd" stroke="#000" stroke-width="1pt" transform="matrix(-.8 0 0 -.8 -10 0)"/></marker><g transform="translate(1.173947 -150.91472)"><g stroke="#000" stroke-linecap="round"><path d="m83.522629 178.84477h88.867111v17.960495h-88.867111z" fill="#e6e6e6" stroke-width=".265"/><path d="m5.34539 160.8533h31.671438v10.022607h-31.671438z" fill="#fca" stroke-width=".8"/><path d="m-1.041447 156.88435h131.89751v17.960495h-131.89751z" fill="#e6e6e6" stroke-width=".265"/><path d="m-1.041447 156.88435h131.89751v17.960495h-131.89751z" fill="#e6e6e6" stroke-width=".265"/><path d="m5.34539 160.8533h31.671438v10.022607h-31.671438z" fill="#fca" stroke-width=".8"/></g><text font-family="sans-serif" font-size="6.35" letter-spacing="0" stroke-width=".264583" word-spacing="0" x="9.710492" y="168.2319"><tspan stroke-width=".264583" x="9.710492" y="168.2319">c0ba6c</tspan></text><path d="m47.871799 160.8533h31.671438v10.022607h-31.671438z" fill="#fca" stroke="#000" stroke-linecap="round" stroke-width=".8"/><text font-family="sans-serif" font-size="6.35" letter-spacing="0" stroke-width=".264583" word-spacing="0" x="51.802818" y="168.2319"><tspan stroke-width=".264583" x="51.802818" y="168.2319">eade34</tspan></text><path d="m90.398216 160.8533h31.671438v10.022607h-31.671438z" fill="#fca" stroke="#000" stroke-linecap="round" stroke-width=".8"/><text font-family="sans-serif" font-size="6.35" letter-spacing="0" stroke-width=".264583" word-spacing="0" x="95.177246" y="168.2319"><tspan stroke-width=".264583" x="95.177246" y="168.2319">a03f75</tspan></text><path d="m47.70761 165.86461h-9.955789" fill="none" marker-end="url(#d)" stroke="#000" stroke-width=".264583"/><path d="m90.403917 165.86461h-9.955789" fill="none" marker-end="url(#c)" stroke="#000" stroke-width=".264583"/><g stroke-width=".264583" transform="translate(43.217483 22.263552)"><path d="m105.90893 145.12468v13.75918" fill="none" marker-end="url(#e)" stroke="#000"/><text font-family="sans-serif" font-size="6.35" letter-spacing="0" word-spacing="0" x="96.774605" y="143.2771"><tspan stroke-width=".264583" x="96.774605" y="143.2771">HEAD</tspan></text></g><path d="m106.23394 182.21183v-9.95579" fill="none" marker-end="url(#b)" stroke="#000" stroke-width=".264583"/><path d="m90.398224 182.81372h31.671438v10.022607h-31.671438z" fill="#fca" stroke="#000" stroke-linecap="round" stroke-width=".8"/><text font-family="sans-serif" font-size="6.35" letter-spacing="0" stroke-width=".264583" word-spacing="0" x="95.955498" y="190.19232"><tspan stroke-width=".264583" x="95.955498" y="190.19232">6ff180</tspan></text><path d="m133.66882 182.81372h31.671438v10.022607h-31.671438z" fill="#cfa" stroke="#000" stroke-linecap="round" stroke-width=".8"/><text font-family="sans-serif" font-size="6.35" letter-spacing="0" stroke-width=".264583" word-spacing="0" x="137.70992" y="190.19232"><tspan stroke-width=".264583" x="137.70992" y="190.19232">4d39bc</tspan></text><path d="m133.13413 187.82502h-9.95579" fill="none" marker-end="url(#a)" stroke="#000" stroke-width=".264583"/><text font-family="sans-serif" font-size="6.35" letter-spacing="0" stroke-width=".264583" word-spacing="0" x="-.854358" y="155.37337"><tspan stroke-width=".264583" x="-.854358" y="155.37337">master</tspan></text><text font-family="sans-serif" font-size="6.35" letter-spacing="0" stroke-width=".264583" word-spacing="0" x="83.148453" y="202.14554"><tspan stroke-width=".264583" x="83.148453" y="202.14554">new_branch</tspan></text></g></svg>