<svg height="32.627983mm" viewBox="0 0 160.05067 32.627983" width="160.05067mm" xmlns="http://www.w3.org/2000/svg" xmlns:xlink="http://www.w3.org/1999/xlink"><marker id="a" orient="auto" overflow="visible" refX="0" refY="0"><path d="m0 0 5-5-17.5 5 17.5 5z" fill-rule="evenodd" stroke="#000" stroke-width="1pt" transform="matrix(-.8 0 0 -.8 -10 0)"/></marker><marker id="b" orient="auto" overflow="visible" refX="0" refY="0"><path d="m0 0 5-5-17.5 5 17.5 5z" fill-rule="evenodd" stroke="#000" stroke-width="1pt" transform="matrix(-.8 0 0 -.8 -10 0)"/></marker><marker id="c" orient="auto" overflow="visible" refX="0" refY="0"><path d="m0 0 5-5-17.5 5 17.5 5z" fill-rule="evenodd" stroke="#000" stroke-width="1pt" transform="matrix(-.8 0 0 -.8 -10 0)"/></marker><g transform="translate(-4.94539 -138.64792)"><path d="m5.34539 160.8533h31.671438v10.022607h-31.671438z" fill="#fca" stroke="#000" stroke-linecap="round" stroke-width=".8"/><text font-family="sans-serif" font-size="6.35" letter-spacing="0" stroke-width=".264583" word-spacing="0" x="9.710492" y="168.2319"><tspan stroke-width=".264583" x="9.710492" y="168.2319">c0ba6c</tspan></text><path d="m47.871799 160.8533h31.671438v10.022607h-31.671438z" fill="#fca" stroke="#000" stroke-linecap="round" stroke-width=".8"/><text font-family="sans-serif" font-size="6.35" letter-spacing="0" stroke-width=".264583" word-spacing="0" x="51.802818" y="168.2319"><tspan stroke-width=".264583" x="51.802818" y="168.2319">eade34</tspan></text><path d="m90.398216 160.8533h31.671438v10.022607h-31.671438z" fill="#fca" stroke="#000" stroke-linecap="round" stroke-width=".8"/><g stroke-width=".264583"><text font-family="sans-serif" font-size="6.35" letter-spacing="0" word-spacing="0" x="95.177246" y="168.2319"><tspan stroke-width=".264583" x="95.177246" y="168.2319">a03f75</tspan></text><path d="m47.70761 165.86461h-9.955789" fill="none" marker-end="url(#b)" stroke="#000"/><path d="m90.403917 165.86461h-9.955789" fill="none" marker-end="url(#a)" stroke="#000"/><path d="m105.90893 145.12468v13.75918" fill="none" marker-end="url(#c)" stroke="#000"/><text font-family="sans-serif" font-size="6.35" letter-spacing="0" word-spacing="0" x="96.774605" y="143.2771"><tspan stroke-width=".264583" x="96.774605" y="143.2771">HEAD</tspan></text></g><path d="m132.92462 160.8533h31.671438v10.022607h-31.671438z" fill="#cfa" stroke="#000" stroke-linecap="round" stroke-width=".8"/><text font-family="sans-serif" font-size="6.35" letter-spacing="0" stroke-width=".264583" word-spacing="0" x="137.37654" y="168.17609"><tspan stroke-width=".264583" x="137.37654" y="168.17609">c829ca</tspan></text><path d="m132.69932 165.86461h-9.95579" fill="none" stroke="#000" stroke-width=".264583"/><path d="m122.2266 165.86202 4.68891-1.333-1.32716 1.333 1.33301 1.33886z" fill="none"/><path d="m122.2266 165.86202 4.68891-1.333-1.32716 1.333 1.33301 1.33886z"/><path d="m5.47993 139.13675h31.671438v10.022607h-31.671438z" fill="#ccc" stroke="#000" stroke-linecap="round" stroke-width=".8"/><text font-family="sans-serif" font-size="6.35" letter-spacing="0" stroke-width=".264583" word-spacing="0" x="13.426208" y="146.45953"><tspan stroke-width=".264583" x="13.426208" y="146.45953">Start</tspan></text><path d="m6.1636571 148.74025v-8.92555l30.2286449.0124" fill="none" stroke="#f9f9f9" stroke-width=".565"/><path d="m6.4419398 148.45145h30.0219392v-8.91315" fill="none" stroke="#808080" stroke-width=".565"/></g></svg>