<svg height="66.682846mm" viewBox="0 0 255.90966 66.682846" width="255.90965mm" xmlns="http://www.w3.org/2000/svg" xmlns:xlink="http://www.w3.org/1999/xlink"><marker id="a" orient="auto" overflow="visible" refX="0" refY="0"><path d="m0 0 5-5-17.5 5 17.5 5z" fill-rule="evenodd" stroke="#000" stroke-width="1pt" transform="matrix(-.4 0 0 -.4 -4 0)"/></marker><marker id="b" orient="auto" overflow="visible" refX="0" refY="0"><path d="m0 0 5-5-17.5 5 17.5 5z" fill-rule="evenodd" stroke="#000" stroke-width="1pt" transform="matrix(-.4 0 0 -.4 -4 0)"/></marker><g transform="translate(.734539 -148.73269)"><g fill="#1b1817" transform="matrix(.35277777 0 0 -.35277777 89.326928 327.97707)"><path d="m350.609 493.555c-33.347 0-60.388-27.036-60.388-60.388 0-26.681 17.303-49.317 41.297-57.302 3.018-.559 4.126 1.31 4.126 2.905 0 1.44-.056 6.197-.082 11.243-16.8-3.653-20.345 7.125-20.345 7.125-2.747 6.98-6.705 8.836-6.705 8.836-5.479 3.748.413 3.671.413 3.671 6.064-.425 9.257-6.224 9.257-6.224 5.386-9.231 14.127-6.562 17.573-5.019.542 3.903 2.107 6.568 3.834 8.075-13.413 1.527-27.513 6.705-27.513 29.844 0 6.593 2.359 11.98 6.222 16.209-.627 1.522-2.694 7.663.585 15.981 0 0 5.071 1.623 16.611-6.19 4.817 1.338 9.983 2.009 15.115 2.032 5.132-.023 10.302-.694 15.128-2.032 11.526 7.813 16.59 6.19 16.59 6.19 3.287-8.318 1.219-14.459.592-15.981 3.872-4.229 6.215-9.616 6.215-16.209 0-23.194-14.127-28.301-27.574-29.796 2.166-1.874 4.096-5.549 4.096-11.183 0-8.08-.07-14.583-.07-16.572 0-1.607 1.087-3.49 4.148-2.897 23.981 7.994 41.262 30.622 41.262 57.294 0 33.352-27.037 60.388-60.387 60.388" fill-rule="evenodd"/><path d="m313.093 406.851c-.133-.301-.605-.39-1.035-.184-.438.197-.684.606-.542.907.13.308.603.394 1.04.189.439-.198.689-.611.537-.912z"/><path d="m315.539 404.123c-.288-.267-.851-.143-1.233.279-.395.421-.469.984-.177 1.255.297.266.843.141 1.239-.279.395-.426.472-.985.171-1.255z"/><path d="m317.92 400.645c-.37-.257-.975-.016-1.349.521-.37.537-.37 1.181.008 1.439.375.258.971.025 1.35-.507.369-.546.369-1.19-.009-1.453z"/><path d="m321.182 397.285c-.331-.365-1.036-.267-1.552.231-.528.487-.675 1.178-.343 1.543.335.366 1.044.263 1.564-.231.524-.486.684-1.182.331-1.543z"/><path d="m325.682 395.334c-.146-.473-.825-.688-1.509-.487-.683.207-1.13.761-.992 1.239.142.476.824.7 1.513.485.682-.206 1.13-.756.988-1.237z"/><path d="m330.624 394.972c.017-.498-.563-.911-1.281-.92-.722-.016-1.306.387-1.314.877 0 .503.567.912 1.289.924.718.014 1.306-.386 1.306-.881z"/><path d="m335.223 395.755c.086-.486-.413-.985-1.126-1.118-.701-.128-1.35.172-1.439.654-.087.498.421.997 1.121 1.126.714.124 1.353-.168 1.444-.662z"/></g><text font-family="sans-serif" font-size="6.35" letter-spacing="0" stroke-width=".264583" word-spacing="0" x="176.6393" y="208.89842"><tspan stroke-width=".264583" x="176.6393" y="208.89842">VCS database (GitHub)</tspan></text><g transform="matrix(.13477132 0 0 .13477132 9.453628 142.6662)"><path d="m302.96 103.085c-7.787-4.003-16.446-6.01-25.2-5.84h-232.48c-28.32 0-45.28 16.96-45.28 45.36v127.36c0 24 10.8 35.2 19.84 40.64 7.926 4.548 16.944 6.844 26.08 6.64h232c34.72 0 47.04-24 47.04-47.04v-125.92c-.08-24.4-12-35.84-22-41.2zm-127.68 190.8h-26c-4.418 0-8-3.582-8-8s3.582-8 8-8h26c4.418 0 8 3.582 8 8s-3.582 8-8 8zm118.72-30.88c0 4.418-3.582 8-8 8h-247.04c-4.418 0-8-3.582-8-8v-129.76c0-4.418 3.582-8 8-8h247.04c4.418 0 8 3.582 8 8z"/><path d="m457.28 97.245h-92c-9.499 0-17.2 7.701-17.2 17.2v18h126.4v-18c0-9.499-7.701-17.2-17.2-17.2z"/><path d="m458.48 186.445h-110.32v148.64c0 9.468 7.652 17.156 17.12 17.2h92c9.499 0 17.2-7.701 17.2-17.2v-148.64zm-47.2 68.56h.08c6.186 0 11.2 5.014 11.2 11.2s-5.014 11.2-11.2 11.2-11.2-5.014-11.2-11.2c0-6.154 4.966-11.156 11.12-11.2zm27.76 53.44h-55.52c-4.418 0-8-3.582-8-8s3.582-8 8-8h55.52c4.418 0 8 3.582 8 8s-3.582 8-8 8z"/><path d="m474.48 148.445h-8-8-94.32-8-8v22h8 8 94.32 8 8z"/><path d="m218.16 361.245h-15.04v-30.24c0-4.418-3.582-8-8-8h-65.28c-4.418 0-8 3.582-8 8v30.24h-15.04c-4.418 0-8 3.582-8 8s3.582 8 8 8h111.36c4.418 0 8-3.582 8-8s-3.582-8-8-8z"/></g><text font-family="sans-serif" font-size="6.35" letter-spacing="0" stroke-width=".264583" word-spacing="0" x="16.564728" y="208.65657"><tspan stroke-width=".264583" x="16.564728" y="208.65657">Local computer</tspan></text><path d="m-.534539 148.93269h83.92263v66.282845h-83.92263z" fill="none" stroke="#000" stroke-linecap="round" stroke-width=".4"/><path d="m171.05249 148.93269h83.92263v66.282845h-83.92263z" fill="none" stroke="#000" stroke-linecap="round" stroke-width=".4"/><g fill="none" stroke="#000" stroke-width="1.265" transform="translate(0 6.900676)"><path d="m86.060786 169.24516h80.715404" marker-end="url(#b)"/><path d="m167.93275 190.62672h-79.379051" marker-end="url(#a)"/></g><text font-family="sans-serif" font-size="6.35" letter-spacing="0" stroke-width=".264583" word-spacing="0" x="114.91379" y="169.12949"><tspan stroke-width=".264583" x="114.91379" y="169.12949">git push</tspan></text><text font-family="sans-serif" font-size="6.35" letter-spacing="0" stroke-width=".264583" word-spacing="0" x="116.8439" y="192.90033"><tspan stroke-width=".264583" x="116.8439" y="192.90033">git pull</tspan></text></g></svg>