<svg height="58.20089mm" viewBox="0 0 240.67746 58.20089" width="240.67746mm" xmlns="http://www.w3.org/2000/svg" xmlns:xlink="http://www.w3.org/1999/xlink"><marker id="a" orient="auto" overflow="visible" refX="0" refY="0"><path d="m0 0 5-5-17.5 5 17.5 5z" fill-rule="evenodd" stroke="#000" stroke-width="1pt" transform="matrix(-.4 0 0 -.4 -4 0)"/></marker><g transform="translate(6.210014 -101.83453)"><g transform="translate(-15.653838 -9.808496)"><g fill="none" stroke-linecap="round" stroke-linejoin="round" transform="matrix(.12319145 0 0 .12319145 58.755095 109.79515)"><path d="m45.5 430.5h6" stroke="#000"/><path d="m618.5 430.5h-6" stroke="#000"/><path d="m45.5 331.5h6" stroke="#000"/><path d="m618.5 331.5h-6" stroke="#000"/><path d="m45.5 232.5h6" stroke="#000"/><path d="m618.5 232.5h-6" stroke="#000"/><path d="m45.5 133.5h6" stroke="#000"/><path d="m618.5 133.5h-6" stroke="#000"/><path d="m45.5 34.5h6" stroke="#000"/><path d="m618.5 34.5h-6" stroke="#000"/><path d="m71.5 449.5v-6" stroke="#000"/><path d="m71.5 15.5v6" stroke="#000"/><path d="m201.5 449.5v-6" stroke="#000"/><path d="m201.5 15.5v6" stroke="#000"/><path d="m332.5 449.5v-6" stroke="#000"/><path d="m332.5 15.5v6" stroke="#000"/><path d="m462.5 449.5v-6" stroke="#000"/><path d="m462.5 15.5v6" stroke="#000"/><path d="m592.5 449.5v-6" stroke="#000"/><path d="m592.5 15.5v6" stroke="#000"/><path d="m45.5 15.5v434h573v-434z" stroke="#000"/><path d="m71.6 124.8 5.2 35.5 5.3 38.5 5.3 39.7 5.2 39.6 5.3 37.7 5.3 34.3 5.2 29.5 5.3 23.5 5.3 16.6 5.2 9 5.3 1 5.2-7.1 5.3-14.7 5.3-21.9 5.2-28.2 5.3-33.2 5.3-37 5.2-39.3 5.3-39.8 5.3-38.9 5.2-36.4 5.3-32.3 5.3-27 5.2-20.5 5.3-13.2 5.3-5.4 5.2 2.6 5.3 10.6 5.3 18 5.2 24.9 5.3 30.6 5.3 35.1 5.2 38.2 5.3 39.7 5.3 39.6 5.2 38 5.3 34.7 5.2 30.1 5.3 24.1 5.3 17.4 5.2 9.7 5.3 1.8 5.3-6.2 5.2-14 5.3-21.2 5.3-27.6 5.2-32.7 5.3-36.7 5.3-39.1 5.2-39.9 5.3-39.1 5.3-36.7 5.2-32.7 5.3-27.6 5.3-21.2 5.2-14 5.3-6.2 5.3 1.8 5.2 9.7 5.3 17.4 5.3 24.1 5.2 30.1 5.3 34.7 5.2 38 5.3 39.6 5.3 39.7 5.2 38.2 5.3 35.1 5.3 30.6 5.2 24.9 5.3 18 5.3 10.6 5.2 2.6 5.3-5.4 5.3-13.2 5.2-20.5 5.3-27 5.3-32.3 5.2-36.4 5.3-38.9 5.3-39.8 5.2-39.3 5.3-37 5.3-33.2 5.2-28.2 5.3-21.9 5.3-14.7 5.2-7.1 5.3 1 5.2 9 5.3 16.6 5.3 23.5 5.2 29.5 5.3 34.3 5.3 37.7 5.2 39.6 5.3 39.7 5.3 38.5 5.2 35.5" stroke="#00f" stroke-width="6.68066"/><path d="m45.5 15.5v434h573v-434z" stroke="#000"/></g><text font-family="sans-serif" font-size="4.23333" letter-spacing="0" stroke-width=".264583" word-spacing="0" x="94.593475" y="169.78397"><tspan stroke-width=".264583" x="94.593475" y="169.78397">Time</tspan></text><text font-family="sans-serif" font-size="4.23333" letter-spacing="0" stroke-width=".264583" transform="rotate(-90)" word-spacing="0" x="-149.18793" y="61.761276"><tspan stroke-width=".264583" x="-149.18793" y="61.761276">Amplitude</tspan></text></g><text font-family="sans-serif" font-size="4.23333" letter-spacing="0" stroke-width=".264583" word-spacing="0" x="189.56892" y="132.10286"><tspan stroke-width=".264583" x="189.56892" y="132.10286">Amplitude and phase</tspan></text><g transform="translate(0 -.186728)"><path d="m2.755172 125.30229a16.475204 6.6231494 0 0 1 22.315946 2.63769 16.475204 6.6231494 0 0 1 -6.486785 8.97993 16.475204 6.6231494 0 0 1 -22.3592576-2.57774 16.475204 6.6231494 0 0 1 6.3374948-8.99714" fill="#efa" stroke="#000" stroke-linecap="round" stroke-width=".711"/><text font-family="sans-serif" font-size="4.23333" letter-spacing="0" stroke-width=".264583" word-spacing="0" x="-.503304" y="131.92223"><tspan stroke-width=".264583" x="-.503304" y="131.92223">C program</tspan></text></g><g transform="translate(48.760735 31.971298)"><path d="m96.488881 93.55299a19.330008 6.1579685 0 0 1 26.182829 2.452437 19.330008 6.1579685 0 0 1 -7.61081 8.349213 19.330008 6.1579685 0 0 1 -26.233643-2.39669 19.330008 6.1579685 0 0 1 7.435648-8.365216" fill="#efa" stroke="#000" stroke-linecap="round" stroke-width=".711"/><text font-family="sans-serif" font-size="4.23333" letter-spacing="0" stroke-width=".264583" word-spacing="0" x="90.543083" y="99.764206"><tspan stroke-width=".264583" x="90.543083" y="99.764206">Scheme script</tspan></text></g><g fill="none" marker-end="url(#a)" stroke="#000" stroke-width=".665"><path d="m30.007198 130.93497h9.019591"/><path d="m121.91057 130.93497h9.01959"/><path d="m176.71809 130.93497h9.01959"/></g></g></svg>