<svg height="297mm" viewBox="0 0 210 297" width="210mm" xmlns="http://www.w3.org/2000/svg"><g stroke="#000" stroke-linecap="round" stroke-width=".235"><path d="m22.719921 72.903549h8v8h-8z" fill="#ffd5d5"/><path d="m30.719921 72.903549h8v8h-8z" fill="#ffd5d5"/><path d="m38.719921 72.903549h8v8h-8z" fill="#d5ffd5"/><path d="m46.719925 72.903549h8v8h-8z" fill="#ffd5d5"/><path d="m54.719921 72.903549h8v8h-8z" fill="#d5ffd5"/><path d="m62.719925 72.903549h8v8h-8z" fill="#ffd5d5"/><path d="m70.719925 72.903549h8v8h-8z" fill="#ffd5d5"/><path d="m78.719925 72.903549h8v8h-8z" fill="#fff6d5"/><path d="m86.719925 72.903549h8v8h-8z" fill="#ffd5d5"/><path d="m94.719925 72.903549h8v8h-8z" fill="#d5ffd5"/><path d="m102.71992 72.903549h8v8h-8z" fill="#fff6d5"/><path d="m110.71993 72.903549h8v8h-8z" fill="#ffd5d5"/><path d="m118.71992 72.903549h8v8h-8z" fill="#ffd5d5"/><path d="m126.71993 72.903549h8v8h-8z" fill="#ffd5d5"/><path d="m134.71991 72.903549h8v8h-8z" fill="#d5ffd5"/></g><text font-family="sans-serif" font-size="6.35" letter-spacing="0" stroke-width=".264583" word-spacing="0" x="24.871971" y="79.270844"><tspan stroke-width=".264583" x="24.871971" y="79.270844">a</tspan></text><text font-family="sans-serif" font-size="6.35" letter-spacing="0" stroke-width=".264583" word-spacing="0" x="32.862106" y="79.270844"><tspan stroke-width=".264583" x="32.862106" y="79.270844">a</tspan></text><text font-family="sans-serif" font-size="6.35" letter-spacing="0" stroke-width=".264583" word-spacing="0" x="40.976265" y="79.270844"><tspan stroke-width=".264583" x="40.976265" y="79.270844">c</tspan></text><text font-family="sans-serif" font-size="6.35" letter-spacing="0" stroke-width=".264583" word-spacing="0" x="48.842384" y="79.270844"><tspan stroke-width=".264583" x="48.842384" y="79.270844">a</tspan></text><text font-family="sans-serif" font-size="6.35" letter-spacing="0" stroke-width=".264583" word-spacing="0" x="56.832523" y="79.270844"><tspan stroke-width=".264583" x="56.832523" y="79.270844">c</tspan></text><text font-family="sans-serif" font-size="6.35" letter-spacing="0" stroke-width=".264583" word-spacing="0" x="64.946678" y="79.270844"><tspan stroke-width=".264583" x="64.946678" y="79.270844">a</tspan></text><text font-family="sans-serif" font-size="6.35" letter-spacing="0" stroke-width=".264583" word-spacing="0" x="72.81279" y="79.270844"><tspan stroke-width=".264583" x="72.81279" y="79.270844">a</tspan></text><text font-family="sans-serif" font-size="6.35" letter-spacing="0" stroke-width=".264583" word-spacing="0" x="80.52076" y="79.270844"><tspan stroke-width=".264583" x="80.52076" y="79.270844">b</tspan></text><text font-family="sans-serif" font-size="6.35" letter-spacing="0" stroke-width=".264583" word-spacing="0" x="88.917084" y="79.270844"><tspan stroke-width=".264583" x="88.917084" y="79.270844">a</tspan></text><text font-family="sans-serif" font-size="6.35" letter-spacing="0" stroke-width=".264583" word-spacing="0" x="96.783203" y="79.270844"><tspan stroke-width=".264583" x="96.783203" y="79.270844">c</tspan></text><text font-family="sans-serif" font-size="6.35" letter-spacing="0" stroke-width=".264583" word-spacing="0" x="104.49119" y="79.270844"><tspan stroke-width=".264583" x="104.49119" y="79.270844">b</tspan></text><text font-family="sans-serif" font-size="6.35" letter-spacing="0" stroke-width=".264583" word-spacing="0" x="112.76347" y="79.270844"><tspan stroke-width=".264583" x="112.76347" y="79.270844">a</tspan></text><text font-family="sans-serif" font-size="6.35" letter-spacing="0" stroke-width=".264583" word-spacing="0" x="120.75361" y="79.270844"><tspan stroke-width=".264583" x="120.75361" y="79.270844">a</tspan></text><text font-family="sans-serif" font-size="6.35" letter-spacing="0" stroke-width=".264583" word-spacing="0" x="128.74376" y="79.270844"><tspan stroke-width=".264583" x="128.74376" y="79.270844">a</tspan></text><text font-family="sans-serif" font-size="6.35" letter-spacing="0" stroke-width=".264583" word-spacing="0" x="136.85789" y="79.270844"><tspan stroke-width=".264583" x="136.85789" y="79.270844">c</tspan></text><path d="m22.719921 92.146957h8v8h-8z" fill="#ffd5d5" stroke="#000" stroke-linecap="round" stroke-width=".235"/><text font-family="sans-serif" font-size="6.35" letter-spacing="0" stroke-width=".264583" word-spacing="0" x="24.871971" y="98.514252"><tspan stroke-width=".264583" x="24.871971" y="98.514252">a</tspan></text><path d="m22.719921 122.08115h8v8h-8z" fill="#d5ffd5" stroke="#000" stroke-linecap="round" stroke-width=".235"/><text font-family="sans-serif" font-size="6.35" letter-spacing="0" stroke-width=".264583" word-spacing="0" x="24.976265" y="128.44843"><tspan stroke-width=".264583" x="24.976265" y="128.44843">c</tspan></text><path d="m22.719921 107.11406h8v8h-8z" fill="#fff6d5" stroke="#000" stroke-linecap="round" stroke-width=".235"/><text font-family="sans-serif" font-size="6.35" letter-spacing="0" stroke-width=".264583" word-spacing="0" x="24.520756" y="113.48135"><tspan stroke-width=".264583" x="24.520756" y="113.48135">b</tspan></text><text font-family="sans-serif" font-size="6.35" letter-spacing="0" stroke-width=".264583" word-spacing="0" x="36.215023" y="98.514252"><tspan stroke-width=".264583" x="36.215023" y="98.514252">× 9</tspan></text><text font-family="sans-serif" font-size="6.35" letter-spacing="0" stroke-width=".264583" word-spacing="0" x="36.215023" y="113.48135"><tspan stroke-width=".264583" x="36.215023" y="113.48135">× 2</tspan></text><text font-family="sans-serif" font-size="6.35" letter-spacing="0" stroke-width=".264583" word-spacing="0" x="36.215023" y="128.44843"><tspan stroke-width=".264583" x="36.215023" y="128.44843">× 4</tspan></text></svg>