<svg height="127.48335mm" viewBox="0 0 188.16539 127.48336" width="188.16539mm" xmlns="http://www.w3.org/2000/svg" xmlns:xlink="http://www.w3.org/1999/xlink"><marker id="a" orient="auto" overflow="visible" refX="0" refY="0"><path d="m0 0 5-5-17.5 5 17.5 5z" fill-rule="evenodd" stroke="#000" stroke-width="1pt" transform="matrix(-.4 0 0 -.4 -4 0)"/></marker><marker id="b" orient="auto" overflow="visible" refX="0" refY="0"><path d="m0 0 5-5-17.5 5 17.5 5z" fill-rule="evenodd" stroke="#000" stroke-width="1pt" transform="matrix(-.4 0 0 -.4 -4 0)"/></marker><marker id="c" orient="auto" overflow="visible" refX="0" refY="0"><path d="m0 0 5-5-17.5 5 17.5 5z" fill-rule="evenodd" stroke="#000" stroke-width="1pt" transform="matrix(-.4 0 0 -.4 -4 0)"/></marker><marker id="d" orient="auto" overflow="visible" refX="0" refY="0"><path d="m0 0 5-5-17.5 5 17.5 5z" fill-rule="evenodd" stroke="#000" stroke-width="1pt" transform="matrix(-.4 0 0 -.4 -4 0)"/></marker><marker id="e" orient="auto" overflow="visible" refX="0" refY="0"><path d="m0 0 5-5-17.5 5 17.5 5z" fill-rule="evenodd" stroke="#000" stroke-width="1pt" transform="matrix(-.4 0 0 -.4 -4 0)"/></marker><marker id="f" orient="auto" overflow="visible" refX="0" refY="0"><path d="m0 0 5-5-17.5 5 17.5 5z" fill-rule="evenodd" stroke="#000" stroke-width="1pt" transform="matrix(-.4 0 0 -.4 -4 0)"/></marker><g transform="translate(-7.818584 -90.904373)"><path d="m7.936084 91.021873h67.997917v41.142708h-67.997917z" fill="#e6e6e6" stroke="#000" stroke-linecap="round" stroke-width=".235"/><g fill="none" stroke="#000" transform="translate(-4.760693 -.141742)"><g stroke-width=".265"><path d="m15.632784 94.744938h61.610119" marker-end="url(#a)"/><path d="m15.632783 101.54095h61.610121" marker-end="url(#b)"/><path d="m15.632783 108.33697h61.610121" marker-end="url(#c)"/><path d="m15.632783 115.13297h61.610121" marker-end="url(#d)"/><path d="m15.632783 121.92899h61.610121" marker-end="url(#e)"/><path d="m15.632783 128.725h61.610121" marker-end="url(#f)"/></g><path d="m77.242902 94.744936-61.610119 6.796014" stroke-dasharray=".27 .135" stroke-width=".135"/><path d="m77.242902 101.54095-61.610119 6.79602" stroke-dasharray=".27 .135" stroke-width=".135"/><path d="m77.242902 108.33697-61.610119 6.796" stroke-dasharray=".27 .135" stroke-width=".135"/><path d="m77.242902 115.13297-61.610119 6.79602" stroke-dasharray=".27 .135" stroke-width=".135"/><path d="m77.242902 121.92899-61.610119 6.79601" stroke-dasharray=".27 .135" stroke-width=".135"/></g><text font-family="sans-serif" font-size="6.35" letter-spacing="0" stroke-width=".264583" word-spacing="0" x="42.144371" y="141.42499"><tspan font-size="4.938889" stroke-width=".264583" text-anchor="middle" x="42.144371" y="141.42499">From left to right,</tspan><tspan font-size="4.938889" stroke-width=".264583" text-anchor="middle" x="42.144371" y="149.36249">from top to bottom.</tspan></text><path d="m85.062126 91.021873h67.997917v41.142708h-67.997917z" fill="#e6e6e6" stroke="#000" stroke-linecap="round" stroke-width=".235"/><g fill="none" stroke="#000" transform="matrix(-1 0 0 -1 165.75587 223.3282)"><g stroke-width=".265"><path d="m15.632784 94.744938h61.610119" marker-end="url(#a)"/><path d="m15.632783 101.54095h61.610121" marker-end="url(#b)"/><path d="m15.632783 108.33697h61.610121" marker-end="url(#c)"/><path d="m15.632783 115.13297h61.610121" marker-end="url(#d)"/><path d="m15.632783 121.92899h61.610121" marker-end="url(#e)"/><path d="m15.632783 128.725h61.610121" marker-end="url(#f)"/></g><path d="m77.242902 94.744936-61.610119 6.796014" stroke-dasharray=".27 .135" stroke-width=".135"/><path d="m77.242902 101.54095-61.610119 6.79602" stroke-dasharray=".27 .135" stroke-width=".135"/><path d="m77.242902 108.33697-61.610119 6.796" stroke-dasharray=".27 .135" stroke-width=".135"/><path d="m77.242902 115.13297-61.610119 6.79602" stroke-dasharray=".27 .135" stroke-width=".135"/><path d="m77.242902 121.92899-61.610119 6.79601" stroke-dasharray=".27 .135" stroke-width=".135"/></g><text font-family="sans-serif" font-size="6.35" letter-spacing="0" stroke-width=".264583" word-spacing="0" x="119.27042" y="141.42499"><tspan font-size="4.938889" stroke-width=".264583" text-anchor="middle" x="119.27042" y="141.42499">From right to left,</tspan><tspan font-size="4.938889" stroke-width=".264583" text-anchor="middle" x="119.27042" y="149.36249">from bottom to top.</tspan></text><path d="m7.936084 159.01979h67.997917v41.142708h-67.997917z" fill="#e6e6e6" stroke="#000" stroke-linecap="round" stroke-width=".235"/><g fill="none" stroke="#000" transform="matrix(1 0 0 -1 -4.760693 291.32611)"><g stroke-width=".265"><path d="m15.632784 94.744938h61.610119" marker-end="url(#a)"/><path d="m15.632783 101.54095h61.610121" marker-end="url(#b)"/><path d="m15.632783 108.33697h61.610121" marker-end="url(#c)"/><path d="m15.632783 115.13297h61.610121" marker-end="url(#d)"/><path d="m15.632783 121.92899h61.610121" marker-end="url(#e)"/><path d="m15.632783 128.725h61.610121" marker-end="url(#f)"/></g><path d="m77.242902 94.744936-61.610119 6.796014" stroke-dasharray=".27 .135" stroke-width=".135"/><path d="m77.242902 101.54095-61.610119 6.79602" stroke-dasharray=".27 .135" stroke-width=".135"/><path d="m77.242902 108.33697-61.610119 6.796" stroke-dasharray=".27 .135" stroke-width=".135"/><path d="m77.242902 115.13297-61.610119 6.79602" stroke-dasharray=".27 .135" stroke-width=".135"/><path d="m77.242902 121.92899-61.610119 6.79601" stroke-dasharray=".27 .135" stroke-width=".135"/></g><text font-family="sans-serif" font-size="6.35" letter-spacing="0" stroke-width=".264583" word-spacing="0" x="42.144371" y="209.4229"><tspan font-size="4.938889" stroke-width=".264583" text-anchor="middle" x="42.144371" y="209.4229">From left to right,</tspan><tspan font-size="4.938889" stroke-width=".264583" text-anchor="middle" x="42.144371" y="217.3604">from bottom to top.</tspan></text><path d="m85.062126 159.01979h67.997917v41.142708h-67.997917z" fill="#e6e6e6" stroke="#000" stroke-linecap="round" stroke-width=".235"/><g fill="none" stroke="#000" transform="matrix(-1 0 0 1 165.75587 67.856182)"><g stroke-width=".265"><path d="m15.632784 94.744938h61.610119" marker-end="url(#a)"/><path d="m15.632783 101.54095h61.610121" marker-end="url(#b)"/><path d="m15.632783 108.33697h61.610121" marker-end="url(#c)"/><path d="m15.632783 115.13297h61.610121" marker-end="url(#d)"/><path d="m15.632783 121.92899h61.610121" marker-end="url(#e)"/><path d="m15.632783 128.725h61.610121" marker-end="url(#f)"/></g><path d="m77.242902 94.744936-61.610119 6.796014" stroke-dasharray=".27 .135" stroke-width=".135"/><path d="m77.242902 101.54095-61.610119 6.79602" stroke-dasharray=".27 .135" stroke-width=".135"/><path d="m77.242902 108.33697-61.610119 6.796" stroke-dasharray=".27 .135" stroke-width=".135"/><path d="m77.242902 115.13297-61.610119 6.79602" stroke-dasharray=".27 .135" stroke-width=".135"/><path d="m77.242902 121.92899-61.610119 6.79601" stroke-dasharray=".27 .135" stroke-width=".135"/></g><text font-family="sans-serif" font-size="6.35" letter-spacing="0" stroke-width=".264583" word-spacing="0" x="119.27042" y="209.4229"><tspan font-size="4.938889" stroke-width=".264583" text-anchor="middle" x="119.27042" y="209.4229">From right to left,</tspan><tspan font-size="4.938889" stroke-width=".264583" text-anchor="middle" x="119.27042" y="217.3604">from top to bottom.</tspan></text><g fill="#f00"><circle cx="10.954585" cy="196.54572" r="1.058333"/><circle cx="10.966988" cy="94.607414" r="1.058333"/><circle cx="149.96732" cy="128.57123" r="1.058333"/><circle cx="149.96732" cy="162.60606" r="1.058333"/></g><g transform="translate(105.6349 24.143229)"><circle cx="64.356163" cy="85.566887" fill="#f00" r="1.058333"/><text font-family="sans-serif" font-size="6.35" letter-spacing="0" stroke-width=".264583" word-spacing="0" x="78.985764" y="86.92942"><tspan font-size="4.938889" stroke-width=".264583" text-anchor="middle" x="78.985764" y="86.92942">First pixel</tspan></text></g></g></svg>