<svg height="488.27625pt" stroke-linejoin="round" viewBox="0 0 615.34375 488.27625" width="615.34375pt" xmlns="http://www.w3.org/2000/svg" xmlns:xlink="http://www.w3.org/1999/xlink"><defs stroke-linejoin="round"><clipPath id="a" stroke-linejoin="round"><path d="m50.14375 7.2h558v443.52h-558z"/></clipPath><path id="b" d="m0 0v3.5" stroke="#000" stroke-linejoin="round" stroke-width=".8"/><path id="c" d="m31.78125 66.40625q-7.609375 0-11.453125-7.5-3.828125-7.484375-3.828125-22.53125 0-14.984375 3.828125-22.484375 3.84375-7.5 11.453125-7.5 7.671875 0 11.5 7.5 3.84375 7.5 3.84375 22.484375 0 15.046875-3.84375 22.53125-3.828125 7.5-11.5 7.5zm0 7.8125q12.265625 0 18.734375-9.703125 6.46875-9.6875 6.46875-28.140625 0-18.40625-6.46875-28.109375-6.46875-9.6875-18.734375-9.6875-12.25 0-18.71875 9.6875-6.46875 9.703125-6.46875 28.109375 0 18.453125 6.46875 28.140625 6.46875 9.703125 18.71875 9.703125z" stroke-linejoin="round"/><path id="d" d="m19.1875 8.296875h34.421875v-8.296875h-46.28125v8.296875q5.609375 5.8125 15.296875 15.59375 9.703125 9.796875 12.1875 12.640625 4.734375 5.3125 6.609375 9 1.890625 3.6875 1.890625 7.25 0 5.8125-4.078125 9.46875-4.078125 3.671875-10.625 3.671875-4.640625 0-9.796875-1.609375-5.140625-1.609375-11-4.890625v9.96875q5.953125 2.390625 11.125 3.609375 5.1875 1.21875 9.484375 1.21875 11.328125 0 18.0625-5.671875 6.734375-5.65625 6.734375-15.125 0-4.5-1.6875-8.53125-1.671875-4.015625-6.125-9.484375-1.21875-1.421875-7.765625-8.1875-6.53125-6.765625-18.453125-18.921875z" stroke-linejoin="round"/><path id="e" d="m37.796875 64.3125-24.90625-38.921875h24.90625zm-2.59375 8.59375h12.40625v-47.515625h10.40625v-8.203125h-10.40625v-17.1875h-9.8125v17.1875h-32.90625v9.515625z" stroke-linejoin="round"/><path id="f" d="m30.609375 48.390625q-7.21875 0-11.421875-5.640625-4.203125-5.640625-4.203125-15.453125 0-9.8125 4.171875-15.453125 4.1875-5.640625 11.453125-5.640625 7.1875 0 11.375 5.65625 4.203125 5.671875 4.203125 15.4375 0 9.71875-4.203125 15.40625-4.1875 5.6875-11.375 5.6875zm0 7.609375q11.71875 0 18.40625-7.625 6.703125-7.609375 6.703125-21.078125 0-13.421875-6.703125-21.078125-6.6875-7.640625-18.40625-7.640625-11.765625 0-18.4375 7.640625-6.65625 7.65625-6.65625 21.078125 0 13.46875 6.65625 21.078125 6.671875 7.625 18.4375 7.625z" stroke-linejoin="round"/><path id="g" d="m37.109375 75.984375v-7.484375h-8.59375q-4.828125 0-6.71875-1.953125-1.875-1.953125-1.875-7.03125v-4.828125h14.796875v-6.984375h-14.796875v-47.703125h-9.03125v47.703125h-8.59375v6.984375h8.59375v3.8125q0 9.125 4.25 13.296875 4.25 4.1875 13.46875 4.1875z" stroke-linejoin="round"/><path id="h" d="m18.3125 70.21875v-15.53125h18.5v-6.984375h-18.5v-29.6875q0-6.6875 1.828125-8.59375 1.828125-1.90625 7.453125-1.90625h9.21875v-7.515625h-9.21875q-10.40625 0-14.359375 3.875-3.953125 3.890625-3.953125 14.140625v29.6875h-6.59375v6.984375h6.59375v15.53125z" stroke-linejoin="round"/><path id="i" d="m54.890625 33.015625v-33.015625h-8.984375v32.71875q0 7.765625-3.03125 11.609375-3.03125 3.859375-9.078125 3.859375-7.28125 0-11.484375-4.640625-4.203125-4.625-4.203125-12.640625v-30.90625h-9.03125v75.984375h9.03125v-29.796875q3.234375 4.9375 7.59375 7.375 4.375 2.4375 10.09375 2.4375 9.421875 0 14.25-5.828125 4.84375-5.828125 4.84375-17.15625z" stroke-linejoin="round"/><path id="j" d="m56.203125 29.59375v-4.390625h-41.3125q.59375-9.28125 5.59375-14.140625 5-4.859375 13.9375-4.859375 5.171875 0 10.03125 1.265625 4.859375 1.265625 9.65625 3.8125v-8.5q-4.84375-2.046875-9.921875-3.125-5.078125-1.078125-10.296875-1.078125-13.09375 0-20.734375 7.609375-7.640625 7.625-7.640625 20.625 0 13.421875 7.25 21.296875 7.25 7.890625 19.5625 7.890625 11.03125 0 17.453125-7.109375 6.421875-7.09375 6.421875-19.296875zm-8.984375 2.640625q-.09375 7.359375-4.125 11.75-4.03125 4.40625-10.671875 4.40625-7.515625 0-12.03125-4.25-4.515625-4.25-5.203125-11.96875z" stroke-linejoin="round"/><path id="k" d="m44.28125 53.078125v-8.5q-3.796875 1.953125-7.90625 2.921875-4.09375.984375-8.5.984375-6.6875 0-10.03125-2.046875-3.34375-2.046875-3.34375-6.15625 0-3.125 2.390625-4.90625 2.390625-1.78125 9.625-3.390625l3.078125-.6875q9.5625-2.046875 13.59375-5.78125 4.03125-3.734375 4.03125-10.421875 0-7.625-6.03125-12.078125-6.03125-4.4375-16.578125-4.4375-4.390625 0-9.15625.859375-4.765625.859375-10.03125 2.5625v9.28125q4.984375-2.59375 9.8125-3.890625 4.828125-1.28125 9.578125-1.28125 6.34375 0 9.75 2.171875 3.421875 2.171875 3.421875 6.125 0 3.65625-2.46875 5.609375-2.453125 1.953125-10.8125 3.765625l-3.125.734375q-8.34375 1.75-12.0625 5.390625-3.703125 3.640625-3.703125 9.984375 0 7.71875 5.46875 11.90625 5.46875 4.203125 15.53125 4.203125 4.96875 0 9.359375-.734375 4.40625-.71875 8.109375-2.1875z" stroke-linejoin="round"/><path id="l" d="m9.421875 54.6875h8.984375v-54.6875h-8.984375zm0 21.296875h8.984375v-11.390625h-8.984375z" stroke-linejoin="round"/><path id="m" d="m52 44.1875q3.375 6.0625 8.0625 8.9375 4.6875 2.875 11.03125 2.875 8.546875 0 13.1875-5.984375 4.640625-5.96875 4.640625-17v-33.015625h-9.03125v32.71875q0 7.859375-2.796875 11.65625-2.78125 3.8125-8.484375 3.8125-6.984375 0-11.046875-4.640625-4.046875-4.625-4.046875-12.640625v-30.90625h-9.03125v32.71875q0 7.90625-2.78125 11.6875-2.78125 3.78125-8.59375 3.78125-6.890625 0-10.953125-4.65625-4.046875-4.65625-4.046875-12.625v-30.90625h-9.03125v54.6875h9.03125v-8.5q3.078125 5.03125 7.375 7.421875 4.296875 2.390625 10.203125 2.390625 5.96875 0 10.140625-3.03125 4.171875-3.015625 6.171875-8.78125z" stroke-linejoin="round"/><path id="n" d="m34.28125 27.484375q-10.890625 0-15.09375-2.484375-4.203125-2.484375-4.203125-8.5 0-4.78125 3.15625-7.59375 3.15625-2.796875 8.5625-2.796875 7.484375 0 12 5.296875 4.515625 5.296875 4.515625 14.078125v2zm17.921875 3.71875v-31.203125h-8.984375v8.296875q-3.078125-4.96875-7.671875-7.34375-4.59375-2.375-11.234375-2.375-8.390625 0-13.359375 4.71875-4.953125 4.71875-4.953125 12.625 0 9.21875 6.171875 13.90625 6.1875 4.6875 18.4375 4.6875h12.609375v.890625q0 6.203125-4.078125 9.59375-4.078125 3.390625-11.453125 3.390625-4.6875 0-9.140625-1.125-4.4375-1.125-8.53125-3.375v8.3125q4.921875 1.90625 9.5625 2.84375 4.640625.953125 9.03125.953125 11.875 0 17.734375-6.15625 5.859375-6.140625 5.859375-18.640625z" stroke-linejoin="round"/><path id="o" d="m0 0h-3.5" stroke="#000" stroke-linejoin="round" stroke-width=".8"/><path id="p" d="m10.6875 12.40625h10.3125v-12.40625h-10.3125z" stroke-linejoin="round"/><path id="q" d="m10.796875 72.90625h38.71875v-8.3125h-29.6875v-17.859375q2.140625.734375 4.28125 1.09375 2.15625.359375 4.3125.359375 12.203125 0 19.328125-6.6875 7.140625-6.6875 7.140625-18.109375 0-11.765625-7.328125-18.296875-7.328125-6.515625-20.65625-6.515625-4.59375 0-9.359375.78125-4.75.78125-9.828125 2.34375v9.921875q4.390625-2.390625 9.078125-3.5625 4.6875-1.171875 9.90625-1.171875 8.453125 0 13.375 4.4375 4.9375 4.4375 4.9375 12.0625 0 7.609375-4.9375 12.046875-4.921875 4.453125-13.375 4.453125-3.953125 0-7.890625-.875-3.921875-.875-8.015625-2.734375z" stroke-linejoin="round"/><path id="r" d="m45.40625 46.390625v29.59375h8.984375v-75.984375h-8.984375v8.203125q-2.828125-4.875-7.15625-7.25-4.3125-2.375-10.375-2.375-9.90625 0-16.140625 7.90625-6.21875 7.921875-6.21875 20.8125 0 12.890625 6.21875 20.796875 6.234375 7.90625 16.140625 7.90625 6.0625 0 10.375-2.375 4.328125-2.359375 7.15625-7.234375zm-30.609375-19.09375q0-9.90625 4.078125-15.546875 4.078125-5.640625 11.203125-5.640625 7.125 0 11.21875 5.640625 4.109375 5.640625 4.109375 15.546875 0 9.90625-4.109375 15.546875-4.09375 5.640625-11.21875 5.640625-7.125 0-11.203125-5.640625-4.078125-5.640625-4.078125-15.546875z" stroke-linejoin="round"/><path id="s" d="m2.984375 54.6875h9.515625l17.09375-45.890625 17.09375 45.890625h9.515625l-20.515625-54.6875h-12.203125z" stroke-linejoin="round"/><path id="t" d="m9.421875 75.984375h8.984375v-75.984375h-8.984375z" stroke-linejoin="round"/><path id="u" d="m8.5 21.578125v33.109375h8.984375v-32.765625q0-7.765625 3.015625-11.65625 3.03125-3.875 9.09375-3.875 7.265625 0 11.484375 4.640625 4.234375 4.640625 4.234375 12.65625v31h8.984375v-54.6875h-8.984375v8.40625q-3.265625-4.984375-7.59375-7.40625-4.3125-2.421875-10.03125-2.421875-9.421875 0-14.3125 5.859375-4.875 5.859375-4.875 17.140625z" stroke-linejoin="round"/><path id="v" d="m41.109375 46.296875q-1.515625.875-3.296875 1.28125-1.78125.421875-3.921875.421875-7.625 0-11.703125-4.953125-4.078125-4.953125-4.078125-14.234375v-28.8125h-9.03125v54.6875h9.03125v-8.5q2.84375 4.984375 7.375 7.390625 4.546875 2.421875 11.046875 2.421875.921875 0 2.046875-.125 1.125-.109375 2.484375-.359375z" stroke-linejoin="round"/><path id="w" d="m54.890625 33.015625v-33.015625h-8.984375v32.71875q0 7.765625-3.03125 11.609375-3.03125 3.859375-9.078125 3.859375-7.28125 0-11.484375-4.640625-4.203125-4.625-4.203125-12.640625v-30.90625h-9.03125v54.6875h9.03125v-8.5q3.234375 4.9375 7.59375 7.375 4.375 2.4375 10.09375 2.4375 9.421875 0 14.25-5.828125 4.84375-5.828125 4.84375-17.15625z" stroke-linejoin="round"/><path id="x" d="m45.40625 27.984375q0 9.765625-4.03125 15.125-4.015625 5.375-11.296875 5.375-7.21875 0-11.25-5.375-4.03125-5.359375-4.03125-15.125 0-9.71875 4.03125-15.09375 4.03125-5.375 11.25-5.375 7.28125 0 11.296875 5.375 4.03125 5.375 4.03125 15.09375zm8.984375-21.203125q0-13.953125-6.203125-20.765625-6.1875-6.8125-18.984375-6.8125-4.734375 0-8.9375.703125-4.203125.703125-8.15625 2.171875v8.734375q3.953125-2.140625 7.8125-3.15625 3.859375-1.03125 7.859375-1.03125 8.84375 0 13.234375 4.609375 4.390625 4.609375 4.390625 13.9375v4.453125q-2.78125-4.84375-7.125-7.234375-4.34375-2.390625-10.40625-2.390625-10.046875 0-16.203125 7.65625-6.15625 7.671875-6.15625 20.328125 0 12.6875 6.15625 20.34375 6.15625 7.671875 16.203125 7.671875 6.0625 0 10.40625-2.390625 4.34375-2.390625 7.125-7.21875v8.296875h8.984375z" stroke-linejoin="round"/><path id="y" d="m49.609375 33.6875q0 7.1875-3.125 10.984375-3.125 3.8125-8.984375 3.8125-4 0-7.640625-2.046875-3.640625-2.046875-6.46875-5.953125-2.78125-3.859375-4.453125-9.328125-1.65625-5.46875-1.65625-10.84375 0-6.828125 3.125-10.515625 3.125-3.6875 8.890625-3.6875 4.25 0 7.890625 2 3.640625 2 6.21875 5.8125 2.78125 4 4.484375 9.421875 1.71875 5.421875 1.71875 10.34375zm-27.828125 12.703125q3.609375 4.734375 8.515625 7.171875 4.90625 2.4375 10.921875 2.4375 8.390625 0 13.03125-5.5 4.640625-5.484375 4.640625-15.390625 0-8.109375-2.890625-15.453125-2.875-7.34375-8.296875-13.15625-3.609375-3.859375-8.15625-5.890625-4.53125-2.03125-9.5625-2.03125-5.8125 0-9.765625 2.421875-3.953125 2.421875-5.90625 7.203125l-5.625-29h-8.984375l14.703125 75.484375h8.984375z" stroke-linejoin="round"/><path id="z" d="m31 75.875q-6.53125-11.21875-9.71875-22.21875-3.171875-10.984375-3.171875-22.265625 0-11.265625 3.203125-22.328125 3.203125-11.0625 9.6875-22.25h-7.8125q-7.3125 11.484375-10.953125 22.5625-3.640625 11.078125-3.640625 22.015625 0 10.890625 3.609375 21.921875 3.625 11.046875 10.984375 22.5625z" stroke-linejoin="round"/><path id="A" d="m60.015625 54.6875-25.109375-26.8125 15.390625-27.875h-10.3125l-11.5625 21.6875-20.125-21.6875h-10.890625l26.90625 28.8125-14.296875 25.875h10.296875l10.5-19.78125 18.3125 19.78125z" stroke-linejoin="round"/><path id="B" d="m8.015625 75.875h7.8125q7.3125-11.515625 10.953125-22.5625 3.640625-11.03125 3.640625-21.921875 0-10.9375-3.640625-22.015625-3.640625-11.078125-10.953125-22.5625h-7.8125q6.484375 11.1875 9.6875 22.25 3.203125 11.0625 3.203125 22.328125 0 11.28125-3.203125 22.265625-3.203125 11-9.6875 22.21875z" stroke-linejoin="round"/><path id="C" d="m18.109375 8.203125v-29h-9.03125v75.484375h9.03125v-8.296875q2.84375 4.875 7.15625 7.234375 4.328125 2.375 10.328125 2.375 9.96875 0 16.1875-7.90625 6.234375-7.90625 6.234375-20.796875 0-12.890625-6.234375-20.8125-6.21875-7.90625-16.1875-7.90625-6 0-10.328125 2.375-4.3125 2.375-7.15625 7.25zm30.578125 19.09375q0 9.90625-4.078125 15.546875-4.078125 5.640625-11.203125 5.640625-7.140625 0-11.21875-5.640625-4.078125-5.640625-4.078125-15.546875 0-9.90625 4.078125-15.546875 4.078125-5.640625 11.21875-5.640625 7.125 0 11.203125 5.640625 4.078125 5.640625 4.078125 15.546875z" stroke-linejoin="round"/></defs><g stroke-linejoin="round"><path d="m0 488.27625h615.34375v-488.27625h-615.34375z" fill="#fff"/><g><path d="m50.14375 450.72h558v-443.52h-558z" fill="#fff" stroke-linejoin="round"/><g stroke-linejoin="round"><g><use stroke="#000" stroke-width=".8" x="75.507386" xlink:href="#b" y="450.72"/><use transform="matrix(.1 0 0 -.1 72.326136 465.318438)" xlink:href="#c"/></g><g><use stroke="#000" stroke-width=".8" x="177.986725" xlink:href="#b" y="450.72"/><g transform="matrix(.1 0 0 -.1 171.624225 465.318438)"><use xlink:href="#d"/><use x="63.623047" xlink:href="#c"/></g></g><g><use stroke="#000" stroke-width=".8" x="280.466064" xlink:href="#b" y="450.72"/><g transform="matrix(.1 0 0 -.1 274.103564 465.318438)"><use xlink:href="#e"/><use x="63.623047" xlink:href="#c"/></g></g><g><use stroke="#000" stroke-width=".8" x="382.945403" xlink:href="#b" y="450.72"/><g transform="matrix(.1 0 0 -.1 376.582903 465.318438)"><path d="m33.015625 40.375q-6.640625 0-10.53125-4.546875-3.875-4.53125-3.875-12.4375 0-7.859375 3.875-12.4375 3.890625-4.5625 10.53125-4.5625 6.640625 0 10.515625 4.5625 3.875 4.578125 3.875 12.4375 0 7.90625-3.875 12.4375-3.875 4.546875-10.515625 4.546875zm19.578125 30.921875v-8.984375q-3.71875 1.75-7.5 2.671875-3.78125.9375-7.5.9375-9.765625 0-14.921875-6.59375-5.140625-6.59375-5.875-19.921875 2.875 4.25 7.21875 6.515625 4.359375 2.265625 9.578125 2.265625 10.984375 0 17.359375-6.671875 6.375-6.65625 6.375-18.125 0-11.234375-6.640625-18.03125-6.640625-6.78125-17.671875-6.78125-12.65625 0-19.34375 9.6875-6.6875 9.703125-6.6875 28.109375 0 17.28125 8.203125 27.5625 8.203125 10.28125 22.015625 10.28125 3.71875 0 7.5-.734375 3.78125-.734375 7.890625-2.1875z"/><use x="63.623047" xlink:href="#c"/></g></g><g><use stroke="#000" stroke-width=".8" x="485.424742" xlink:href="#b" y="450.72"/><g transform="matrix(.1 0 0 -.1 479.062242 465.318438)"><path d="m31.78125 34.625q-7.03125 0-11.0625-3.765625-4.015625-3.765625-4.015625-10.34375 0-6.59375 4.015625-10.359375 4.03125-3.765625 11.0625-3.765625 7.03125 0 11.078125 3.78125 4.0625 3.796875 4.0625 10.34375 0 6.578125-4.03125 10.34375-4.015625 3.765625-11.109375 3.765625zm-9.859375 4.1875q-6.34375 1.5625-9.890625 5.90625-3.53125 4.359375-3.53125 10.609375 0 8.734375 6.21875 13.8125 6.234375 5.078125 17.0625 5.078125 10.890625 0 17.09375-5.078125 6.203125-5.078125 6.203125-13.8125 0-6.25-3.546875-10.609375-3.53125-4.34375-9.828125-5.90625 7.125-1.65625 11.09375-6.5 3.984375-4.828125 3.984375-11.796875 0-10.609375-6.46875-16.28125-6.46875-5.65625-18.53125-5.65625-12.046875 0-18.53125 5.65625-6.46875 5.671875-6.46875 16.28125 0 6.96875 4 11.796875 4.015625 4.84375 11.140625 6.5zm-3.609375 15.578125q0-5.65625 3.53125-8.828125 3.546875-3.171875 9.9375-3.171875 6.359375 0 9.9375 3.171875 3.59375 3.171875 3.59375 8.828125 0 5.671875-3.59375 8.84375-3.578125 3.171875-9.9375 3.171875-6.390625 0-9.9375-3.171875-3.53125-3.171875-3.53125-8.84375z"/><use x="63.623047" xlink:href="#c"/></g></g><g><use stroke="#000" stroke-width=".8" x="587.904081" xlink:href="#b" y="450.72"/><g transform="matrix(.1 0 0 -.1 578.360331 465.318438)"><path d="m12.40625 8.296875h16.109375v55.625l-17.53125-3.515625v8.984375l17.4375 3.515625h9.859375v-64.609375h16.109375v-8.296875h-41.984375z"/><use x="63.623047" xlink:href="#c"/><use x="127.246094" xlink:href="#c"/></g></g><g transform="matrix(.1 0 0 -.1 285.160156 478.996563)"><path d="m51.125 44h-14.203125l-4.109375-16.3125h14.3125zm-7.328125 27.78125-5.078125-20.265625h14.265625l5.125 20.265625h7.8125l-5.03125-20.265625h15.234375v-7.515625h-17.140625l-4-16.3125h15.53125v-7.46875h-17.4375l-5.078125-20.21875h-7.8125l5.03125 20.21875h-14.3125l-5.03125-20.21875h-7.859375l5.078125 20.21875h-15.375v7.46875h17.1875l4.09375 16.3125h-15.71875v7.515625h17.625l4.984375 20.265625z"/><use x="115.576172" xlink:href="#f"/><use x="176.757812" xlink:href="#g"/><use x="243.75" xlink:href="#h"/><use x="282.958984" xlink:href="#i"/><use x="346.337891" xlink:href="#j"/><use x="439.648438" xlink:href="#j"/><use x="501.171875" xlink:href="#k"/><use x="553.271484" xlink:href="#h"/><use x="592.480469" xlink:href="#l"/><use x="620.263672" xlink:href="#m"/><use x="717.675781" xlink:href="#n"/><use x="778.955078" xlink:href="#h"/><use x="818.164062" xlink:href="#j"/></g></g><g stroke-linejoin="round"><g><use stroke="#000" stroke-width=".8" x="50.14375" xlink:href="#o" y="399.608966"/><g transform="matrix(.1 0 0 -.1 20.878125 403.408185)"><use xlink:href="#d"/><use x="63.623047" xlink:href="#p"/><path d="m40.578125 39.3125q7.078125-1.515625 11.046875-6.3125 3.984375-4.78125 3.984375-11.8125 0-10.78125-7.421875-16.703125-7.421875-5.90625-21.09375-5.90625-4.578125 0-9.4375.90625-4.859375.90625-10.03125 2.71875v9.515625q4.09375-2.390625 8.96875-3.609375 4.890625-1.21875 10.21875-1.21875 9.265625 0 14.125 3.65625 4.859375 3.65625 4.859375 10.640625 0 6.453125-4.515625 10.078125-4.515625 3.640625-12.5625 3.640625h-8.5v8.109375h8.890625q7.265625 0 11.125 2.90625 3.859375 2.90625 3.859375 8.375 0 5.609375-3.984375 8.609375-3.96875 3.015625-11.390625 3.015625-4.0625 0-8.703125-.890625-4.640625-.875-10.203125-2.71875v8.78125q5.625 1.5625 10.53125 2.34375 4.90625.78125 9.25.78125 11.234375 0 17.765625-5.109375 6.546875-5.09375 6.546875-13.78125 0-6.0625-3.46875-10.234375-3.46875-4.171875-9.859375-5.78125z" transform="translate(95.410156)"/><use x="159.033203" xlink:href="#q"/></g></g><g><use stroke="#000" stroke-width=".8" x="50.14375" xlink:href="#o" y="303.044019"/><g transform="matrix(.1 0 0 -.1 20.878125 306.843237)"><use xlink:href="#d"/><use x="63.623047" xlink:href="#p"/><use x="95.410156" xlink:href="#e"/><use x="159.033203" xlink:href="#c"/></g></g><g><use stroke="#000" stroke-width=".8" x="50.14375" xlink:href="#o" y="206.479071"/><g transform="matrix(.1 0 0 -.1 20.878125 210.27829)"><use xlink:href="#d"/><use x="63.623047" xlink:href="#p"/><use x="95.410156" xlink:href="#e"/><use x="159.033203" xlink:href="#q"/></g></g><g><use stroke="#000" stroke-width=".8" x="50.14375" xlink:href="#o" y="109.914123"/><g transform="matrix(.1 0 0 -.1 20.878125 113.713342)"><use xlink:href="#d"/><use x="63.623047" xlink:href="#p"/><use x="95.410156" xlink:href="#q"/><use x="159.033203" xlink:href="#c"/></g></g><g><use stroke="#000" stroke-width=".8" x="50.14375" xlink:href="#o" y="13.349176"/><g transform="matrix(.1 0 0 -.1 20.878125 17.148394)"><use xlink:href="#d"/><use x="63.623047" xlink:href="#p"/><use x="95.410156" xlink:href="#q"/><use x="159.033203" xlink:href="#q"/></g></g><g transform="matrix(0 -.1 -.1 0 14.798438 308.590469)"><path d="m9.8125 72.90625h46.09375v-8.3125h-36.234375v-21.578125h34.71875v-8.296875h-34.71875v-26.421875h37.109375v-8.296875h-46.96875z"/><use x="63.183594" xlink:href="#k"/><use x="115.283203" xlink:href="#h"/><use x="154.492188" xlink:href="#l"/><use x="182.275391" xlink:href="#m"/><use x="279.6875" xlink:href="#n"/><use x="340.966797" xlink:href="#h"/><use x="380.175781" xlink:href="#j"/><use x="441.699219" xlink:href="#r"/><use x="536.962891" xlink:href="#s"/><use x="596.142578" xlink:href="#n"/><use x="657.421875" xlink:href="#t"/><use x="685.205078" xlink:href="#u"/><use x="748.583984" xlink:href="#j"/><use x="841.894531" xlink:href="#g"/><use x="877.099609" xlink:href="#f"/><use x="938.28125" xlink:href="#v"/><use x="1011.181641" xlink:href="#h"/><use x="1050.390625" xlink:href="#i"/><use x="1113.769531" xlink:href="#j"/><use x="1207.080078" xlink:href="#l"/><use x="1234.863281" xlink:href="#w"/><use x="1298.242188" xlink:href="#h"/><use x="1337.451172" xlink:href="#j"/><use x="1398.974609" xlink:href="#x"/><use x="1462.451172" xlink:href="#v"/><use x="1503.564453" xlink:href="#n"/><use x="1564.84375" xlink:href="#t"/></g></g><g fill="none" stroke-linecap="square"><path clip-path="url(#a)" d="m75.507386 143.646981 5.123967 190.500987 5.123967-155.344213 5.123967 31.097131 5.123967.400822 5.123967-115.486736 5.123967 152.782183 5.123967-14.259778 5.123967-66.335002 5.123967 51.913997 5.123967-69.416373 5.123967 207.75577 5.123967-75.207789 5.123967-127.481099 5.123967-24.94492 5.123966 196.029572 5.123967-150.341268 5.123967-147.950265 5.123967 207.618867 5.123967-73.116124 5.123967 12.913137 5.123967-80.418243 5.123967 107.665217 5.123967-8.458274 5.123967-93.720276 5.123967 136.743974 5.123967-103.192488 5.123967 114.58514 5.123967-117.2211 5.123967 22.156779 5.123967 130.791473 5.123967-14.886927 5.123967-87.642672 5.123966 106.915107 5.123967-171.18296 5.123967 170.894974 5.123967-34.963171 5.123967-7.635812 5.123967-5.893479 5.123967 43.269523 5.123967-31.306414 5.123967 79.389144 5.123967 44.223259 5.123967-182.848641 5.123967 105.129502 5.123967 133.201364 5.123967-251.424046 5.123967-101.876078 5.123967 84.901342 5.123967 35.364304 5.123966 143.826804 5.123967-259.320701 5.123967 131.571801 5.123967 28.166907 5.123967-18.169498 5.123967 29.255133 5.123967-48.72288 5.123967 136.787641 5.123967-96.628881 5.123967 33.670332 5.123967-21.305817 5.123967-107.350019 5.123967 104.947699 5.123967-4.35235 5.123967-25.790847 5.123967 73.39444 5.123967-88.883483 5.123966-78.734338 5.123967 116.587019 5.123967-53.142885 5.123967 35.917737 5.123967 63.041741 5.123967-71.054598 5.123967 44.427235 5.123967-45.542694 5.123967 77.657923 5.123967-26.172872 5.123967 130.907502 5.123967-181.902676 5.123967-42.030657 5.123967 20.173083 5.123967 84.270588 5.123967-8.12755 5.123967 59.70449 5.123967-1.518766 5.123966-223.058095 5.123967 162.264495 5.123967 69.431857 5.123967 20.667239 5.123967-280.497312 5.123967 197.186803 5.123967-41.285503 5.123967 56.643451 5.123967 9.41004 5.123967-49.261352 5.123967 176.165413 5.123967-176.847512 5.123967 118.055013 5.123967-190.048976 5.123967 96.040512" stroke="#808080" stroke-linejoin="round" stroke-width="1.5"/><path clip-path="url(#a)" d="m75.507386 240.829914 5.123967-.511281 5.123967 41.054621 5.123967-79.311358 5.123967-.084692 5.123967-53.741453 5.123967 75.186511 5.123967-4.049125 5.123967-7.070491 5.123967-1.208597 5.123967 67.526971 5.123967-26.634143 5.123967 51.29226 5.123967-98.538081 5.123967 57.839052 5.123966-54.371853 5.123967-78.07533 5.123967 94.225521 5.123967 28.741306 5.123967-20.376963 5.123967-74.298154 5.123967 173.918344 5.123967-73.19281 5.123967-86.56892 5.123967 71.721864 5.123967 61.079499 5.123967-43.430116 5.123967 26.688029 5.123967-39.113791 5.123967-5.930393 5.123967-2.297994 5.123967 39.637796 5.123967-50.349173 5.123966-26.189531 5.123967 80.766029 5.123967-12.748337 5.123967-22.049492 5.123967 6.133659 5.123967-2.024863 5.123967 50.990975 5.123967-92.845171 5.123967 71.234636 5.123967-79.060062 5.123967 17.576114 5.123967 10.809793 5.123967-13.651666 5.123967.00875 5.123967 57.050591 5.123967 16.571292 5.123967-25.46305 5.123966-18.643721 5.123967-103.616857 5.123967 122.097922 5.123967-70.407571 5.123967 23.749675 5.123967 36.720503 5.123967-18.326187 5.123967 21.880426 5.123967-74.201109 5.123967 19.91416 5.123967-12.385457 5.123967 45.203153 5.123967-14.531165 5.123967-5.510477 5.123967-72.596666 5.123967 83.137073 5.123967 11.821561 5.123966-39.119059 5.123967 46.2095 5.123967 19.369476 5.123967-36.911789 5.123967 16.917558 5.123967-47.131563 5.123967 47.038311 5.123967 9.232171 5.123967-66.957101 5.123967 42.648388 5.123967 27.71841 5.123967-26.914399 5.123967 41.150312 5.123967 27.228564 5.123967-81.800694 5.123967 116.418175 5.123967-85.067165 5.123967-6.174609 5.123966-40.58011 5.123967 70.589309 5.123967-62.521121 5.123967 50.365913 5.123967-27.446652 5.123967 6.266879 5.123967 29.821816 5.123967-5.944012 5.123967-4.403638 5.123967 24.005808 5.123967-50.039961 5.123967-12.787782 5.123967 15.652208 5.123967 1.635727 5.123967-45.286446" stroke="#000" stroke-linejoin="round" stroke-width="3"/><path clip-path="url(#a)" d="m75.507386 234.828292h5.123967 5.123967 5.123967 5.123967 5.123967 5.123967 5.123967 5.123967 5.123967 5.123967 5.123967 5.123967 5.123967 5.123967 5.123966 5.123967 5.123967 5.123967 5.123967 5.123967 5.123967 5.123967 5.123967 5.123967 5.123967 5.123967 5.123967 5.123967 5.123967 5.123967 5.123967 5.123967 5.123966 5.123967 5.123967 5.123967 5.123967 5.123967 5.123967 5.123967 5.123967 5.123967 5.123967 5.123967 5.123967 5.123967 5.123967 5.123967 5.123967 5.123966 5.123967 5.123967 5.123967 5.123967 5.123967 5.123967 5.123967 5.123967 5.123967 5.123967 5.123967 5.123967 5.123967 5.123967 5.123967 5.123967 5.123966 5.123967 5.123967 5.123967 5.123967 5.123967 5.123967 5.123967 5.123967 5.123967 5.123967 5.123967 5.123967 5.123967 5.123967 5.123967 5.123967 5.123967 5.123966 5.123967 5.123967 5.123967 5.123967 5.123967 5.123967 5.123967 5.123967 5.123967 5.123967 5.123967 5.123967 5.123967 5.123967" stroke="#f00" stroke-linejoin="round" stroke-width="3"/><path d="m50.14375 450.72v-443.52" stroke="#000" stroke-linejoin="miter" stroke-width=".8"/><path d="m608.14375 450.72v-443.52" stroke="#000" stroke-linejoin="miter" stroke-width=".8"/><path d="m50.14375 450.72h558" stroke="#000" stroke-linejoin="miter" stroke-width=".8"/><path d="m50.14375 7.2h558" stroke="#000" stroke-linejoin="miter" stroke-width=".8"/></g><g stroke-linejoin="round"><path d="m400.74375 59.278125h200.4q2 0 2-2v-43.078125q0-2-2-2h-200.4q-2 0-2 2v43.078125q0 2 2 2z" fill="#fff" opacity=".8" stroke="#ccc" stroke-linejoin="miter"/><g stroke-linejoin="round"><path d="m402.74375 20.3h20" fill="none" stroke="#808080" stroke-linecap="square" stroke-width="1.5"/><g transform="matrix(.1 0 0 -.1 430.74375 23.8)"><use transform="translate(0 .015625)" xlink:href="#y"/><use transform="translate(63.476562 .015625)" xlink:href="#z"/><use transform="translate(102.490234 .015625)" xlink:href="#A"/><use transform="translate(161.669922 .015625)" xlink:href="#B"/><path d="m10.59375 45.40625h62.59375v-8.203125h-62.59375zm0-19.921875h62.59375v-8.296875h-62.59375z" transform="translate(220.166016 .015625)"/><path d="m18.3125 75.984375h8.984375l-8.59375-44.296875 30.8125 23h11.671875l-34.375-26.171875 25.09375-28.515625h-10.890625l-23.34375 26.703125-5.171875-26.703125h-8.984375z" transform="translate(323.4375 .015625)"/><use transform="translate(413.134766 .015625)" xlink:href="#z"/><use transform="translate(452.148438 .015625)" xlink:href="#C"/><use transform="translate(515.625 .015625)" xlink:href="#t"/><use transform="translate(543.408203 .015625)" xlink:href="#n"/><use transform="translate(604.6875 .015625)" xlink:href="#l"/><use transform="translate(632.470703 .015625)" xlink:href="#w"/><use transform="translate(727.636719 .015625)" xlink:href="#m"/><use transform="translate(825.048828 .015625)" xlink:href="#j"/><use transform="translate(886.572266 .015625)" xlink:href="#h"/><use transform="translate(925.78125 .015625)" xlink:href="#i"/><use transform="translate(989.160156 .015625)" xlink:href="#f"/><use transform="translate(1050.341797 .015625)" xlink:href="#r"/><use transform="translate(1113.818359 .015625)" xlink:href="#B"/></g><path d="m402.74375 35h20" fill="none" stroke="#000" stroke-linecap="square" stroke-width="3"/><g transform="matrix(.1 0 0 -.1 430.74375 38.5)"><use transform="translate(0 .015625)" xlink:href="#y"/><use transform="translate(63.476562 .015625)" xlink:href="#z"/><use transform="translate(102.490234 .015625)" xlink:href="#A"/><use transform="translate(161.669922 .015625)" xlink:href="#B"/><path d="m25.734375 17.71875q8.0625 0 12.890625 11.71875-6.203125 12.796875-12.890625 12.796875-4.890625 0-7.375-3.515625-2.640625-3.75-2.640625-8.734375 0-5.46875 2.640625-8.84375 2.734375-3.421875 7.375-3.421875zm34.953125-.09375v-6.4375h-3.75q-3.5625 0-6.203125 1.453125-2.640625 1.328125-5.171875 4.40625-1.515625 1.75-3.90625 5.859375-3.28125-5.859375-6.15625-8.453125-3.5625-3.125-9.234375-3.125-6.59375 0-10.9375 4.9375-4.578125 5.171875-4.578125 13.71875 0 8.203125 4.578125 13.765625 4.0625 4.9375 11.046875 4.9375 3.5625 0 6.1875-1.46875 3.078125-1.609375 5.1875-4.390625 1.953125-2.5 3.90625-5.859375 3.265625 5.859375 6.140625 8.4375 3.578125 3.125 9.234375 3.125h3.65625v-6.390625h-3.125q-7.21875 0-12.890625-11.71875 6.203125-12.796875 12.890625-12.796875z" transform="translate(220.166016 .015625)"/><use transform="translate(311.083984 .015625)" xlink:href="#k"/><use transform="translate(363.183594 .015625)" xlink:href="#l"/><use transform="translate(390.966797 .015625)" xlink:href="#w"/><use transform="translate(454.345703 .015625)" xlink:href="#A"/><use transform="translate(545.3125 .015625)" xlink:href="#z"/><use transform="translate(584.326172 .015625)" xlink:href="#l"/><use transform="translate(612.109375 .015625)" xlink:href="#m"/><use transform="translate(709.521484 .015625)" xlink:href="#C"/><use transform="translate(772.998047 .015625)" xlink:href="#f"/><use transform="translate(834.179688 .015625)" xlink:href="#v"/><use transform="translate(875.292969 .015625)" xlink:href="#h"/><use transform="translate(914.501953 .015625)" xlink:href="#n"/><use transform="translate(975.78125 .015625)" xlink:href="#w"/><path d="m48.78125 52.59375v-8.40625q-3.8125 2.109375-7.640625 3.15625-3.828125 1.046875-7.734375 1.046875-8.75 0-13.59375-5.546875-4.828125-5.53125-4.828125-15.546875 0-10.015625 4.828125-15.5625 4.84375-5.53125 13.59375-5.53125 3.90625 0 7.734375 1.046875 3.828125 1.046875 7.640625 3.15625v-8.3125q-3.765625-1.75-7.796875-2.625-4.015625-.890625-8.5625-.890625-12.359375 0-19.640625 7.765625-7.265625 7.765625-7.265625 20.953125 0 13.375 7.34375 21.03125 7.359375 7.671875 20.15625 7.671875 4.140625 0 8.09375-.859375 3.953125-.84375 7.671875-2.546875z" transform="translate(1039.160156 .015625)"/><use transform="translate(1094.140625 .015625)" xlink:href="#j"/><use transform="translate(1187.451172 .015625)" xlink:href="#k"/><use transform="translate(1239.550781 .015625)" xlink:href="#n"/><use transform="translate(1300.830078 .015625)" xlink:href="#m"/><use transform="translate(1398.242188 .015625)" xlink:href="#C"/><use transform="translate(1461.71875 .015625)" xlink:href="#t"/><use transform="translate(1489.501953 .015625)" xlink:href="#l"/><use transform="translate(1517.285156 .015625)" xlink:href="#w"/><use transform="translate(1580.664062 .015625)" xlink:href="#x"/><use transform="translate(1644.140625 .015625)" xlink:href="#B"/></g><path d="m402.74375 49.698438h20" fill="none" stroke="#f00" stroke-linecap="square" stroke-width="3"/><g transform="matrix(.1 0 0 -.1 430.74375 53.198438)"><path d="m-.296875 72.90625h61.671875v-8.3125h-25.875v-64.59375h-9.90625v64.59375h-25.890625z"/><use x="46.333984" xlink:href="#v"/><use x="87.447266" xlink:href="#u"/><use x="150.826172" xlink:href="#j"/><use x="244.136719" xlink:href="#s"/><use x="303.316406" xlink:href="#n"/><use x="364.595703" xlink:href="#t"/><use x="392.378906" xlink:href="#u"/><use x="455.757812" xlink:href="#j"/></g></g></g></g></g></svg>