<svg height="488.27625pt" stroke-linejoin="round" viewBox="0 0 615.34375 488.27625" width="615.34375pt" xmlns="http://www.w3.org/2000/svg" xmlns:xlink="http://www.w3.org/1999/xlink"><defs stroke-linejoin="round"><clipPath id="a" stroke-linejoin="round"><path d="m50.14375 7.2h558v443.52h-558z"/></clipPath><path id="b" d="m0 0v3.5" stroke="#000" stroke-linejoin="round" stroke-width=".8"/><path id="c" d="m31.78125 66.40625q-7.609375 0-11.453125-7.5-3.828125-7.484375-3.828125-22.53125 0-14.984375 3.828125-22.484375 3.84375-7.5 11.453125-7.5 7.671875 0 11.5 7.5 3.84375 7.5 3.84375 22.484375 0 15.046875-3.84375 22.53125-3.828125 7.5-11.5 7.5zm0 7.8125q12.265625 0 18.734375-9.703125 6.46875-9.6875 6.46875-28.140625 0-18.40625-6.46875-28.109375-6.46875-9.6875-18.734375-9.6875-12.25 0-18.71875 9.6875-6.46875 9.703125-6.46875 28.109375 0 18.453125 6.46875 28.140625 6.46875 9.703125 18.71875 9.703125z" stroke-linejoin="round"/><path id="d" d="m19.1875 8.296875h34.421875v-8.296875h-46.28125v8.296875q5.609375 5.8125 15.296875 15.59375 9.703125 9.796875 12.1875 12.640625 4.734375 5.3125 6.609375 9 1.890625 3.6875 1.890625 7.25 0 5.8125-4.078125 9.46875-4.078125 3.671875-10.625 3.671875-4.640625 0-9.796875-1.609375-5.140625-1.609375-11-4.890625v9.96875q5.953125 2.390625 11.125 3.609375 5.1875 1.21875 9.484375 1.21875 11.328125 0 18.0625-5.671875 6.734375-5.65625 6.734375-15.125 0-4.5-1.6875-8.53125-1.671875-4.015625-6.125-9.484375-1.21875-1.421875-7.765625-8.1875-6.53125-6.765625-18.453125-18.921875z" stroke-linejoin="round"/><path id="e" d="m40.578125 39.3125q7.078125-1.515625 11.046875-6.3125 3.984375-4.78125 3.984375-11.8125 0-10.78125-7.421875-16.703125-7.421875-5.90625-21.09375-5.90625-4.578125 0-9.4375.90625-4.859375.90625-10.03125 2.71875v9.515625q4.09375-2.390625 8.96875-3.609375 4.890625-1.21875 10.21875-1.21875 9.265625 0 14.125 3.65625 4.859375 3.65625 4.859375 10.640625 0 6.453125-4.515625 10.078125-4.515625 3.640625-12.5625 3.640625h-8.5v8.109375h8.890625q7.265625 0 11.125 2.90625 3.859375 2.90625 3.859375 8.375 0 5.609375-3.984375 8.609375-3.96875 3.015625-11.390625 3.015625-4.0625 0-8.703125-.890625-4.640625-.875-10.203125-2.71875v8.78125q5.625 1.5625 10.53125 2.34375 4.90625.78125 9.25.78125 11.234375 0 17.765625-5.109375 6.546875-5.09375 6.546875-13.78125 0-6.0625-3.46875-10.234375-3.46875-4.171875-9.859375-5.78125z" stroke-linejoin="round"/><path id="f" d="m37.796875 64.3125-24.90625-38.921875h24.90625zm-2.59375 8.59375h12.40625v-47.515625h10.40625v-8.203125h-10.40625v-17.1875h-9.8125v17.1875h-32.90625v9.515625z" stroke-linejoin="round"/><path id="g" d="m10.796875 72.90625h38.71875v-8.3125h-29.6875v-17.859375q2.140625.734375 4.28125 1.09375 2.15625.359375 4.3125.359375 12.203125 0 19.328125-6.6875 7.140625-6.6875 7.140625-18.109375 0-11.765625-7.328125-18.296875-7.328125-6.515625-20.65625-6.515625-4.59375 0-9.359375.78125-4.75.78125-9.828125 2.34375v9.921875q4.390625-2.390625 9.078125-3.5625 4.6875-1.171875 9.90625-1.171875 8.453125 0 13.375 4.4375 4.9375 4.4375 4.9375 12.0625 0 7.609375-4.9375 12.046875-4.921875 4.453125-13.375 4.453125-3.953125 0-7.890625-.875-3.921875-.875-8.015625-2.734375z" stroke-linejoin="round"/><path id="h" d="m33.015625 40.375q-6.640625 0-10.53125-4.546875-3.875-4.53125-3.875-12.4375 0-7.859375 3.875-12.4375 3.890625-4.5625 10.53125-4.5625 6.640625 0 10.515625 4.5625 3.875 4.578125 3.875 12.4375 0 7.90625-3.875 12.4375-3.875 4.546875-10.515625 4.546875zm19.578125 30.921875v-8.984375q-3.71875 1.75-7.5 2.671875-3.78125.9375-7.5.9375-9.765625 0-14.921875-6.59375-5.140625-6.59375-5.875-19.921875 2.875 4.25 7.21875 6.515625 4.359375 2.265625 9.578125 2.265625 10.984375 0 17.359375-6.671875 6.375-6.65625 6.375-18.125 0-11.234375-6.640625-18.03125-6.640625-6.78125-17.671875-6.78125-12.65625 0-19.34375 9.6875-6.6875 9.703125-6.6875 28.109375 0 17.28125 8.203125 27.5625 8.203125 10.28125 22.015625 10.28125 3.71875 0 7.5-.734375 3.78125-.734375 7.890625-2.1875z" stroke-linejoin="round"/><path id="i" d="m8.5 21.578125v33.109375h8.984375v-32.765625q0-7.765625 3.015625-11.65625 3.03125-3.875 9.09375-3.875 7.265625 0 11.484375 4.640625 4.234375 4.640625 4.234375 12.65625v31h8.984375v-54.6875h-8.984375v8.40625q-3.265625-4.984375-7.59375-7.40625-4.3125-2.421875-10.03125-2.421875-9.421875 0-14.3125 5.859375-4.875 5.859375-4.875 17.140625z" stroke-linejoin="round"/><path id="j" d="m52 44.1875q3.375 6.0625 8.0625 8.9375 4.6875 2.875 11.03125 2.875 8.546875 0 13.1875-5.984375 4.640625-5.96875 4.640625-17v-33.015625h-9.03125v32.71875q0 7.859375-2.796875 11.65625-2.78125 3.8125-8.484375 3.8125-6.984375 0-11.046875-4.640625-4.046875-4.625-4.046875-12.640625v-30.90625h-9.03125v32.71875q0 7.90625-2.78125 11.6875-2.78125 3.78125-8.59375 3.78125-6.890625 0-10.953125-4.65625-4.046875-4.65625-4.046875-12.625v-30.90625h-9.03125v54.6875h9.03125v-8.5q3.078125 5.03125 7.375 7.421875 4.296875 2.390625 10.203125 2.390625 5.96875 0 10.140625-3.03125 4.171875-3.015625 6.171875-8.78125z" stroke-linejoin="round"/><path id="k" d="m56.203125 29.59375v-4.390625h-41.3125q.59375-9.28125 5.59375-14.140625 5-4.859375 13.9375-4.859375 5.171875 0 10.03125 1.265625 4.859375 1.265625 9.65625 3.8125v-8.5q-4.84375-2.046875-9.921875-3.125-5.078125-1.078125-10.296875-1.078125-13.09375 0-20.734375 7.609375-7.640625 7.625-7.640625 20.625 0 13.421875 7.25 21.296875 7.25 7.890625 19.5625 7.890625 11.03125 0 17.453125-7.109375 6.421875-7.09375 6.421875-19.296875zm-8.984375 2.640625q-.09375 7.359375-4.125 11.75-4.03125 4.40625-10.671875 4.40625-7.515625 0-12.03125-4.25-4.515625-4.25-5.203125-11.96875z" stroke-linejoin="round"/><path id="l" d="m41.109375 46.296875q-1.515625.875-3.296875 1.28125-1.78125.421875-3.921875.421875-7.625 0-11.703125-4.953125-4.078125-4.953125-4.078125-14.234375v-28.8125h-9.03125v54.6875h9.03125v-8.5q2.84375 4.984375 7.375 7.390625 4.546875 2.421875 11.046875 2.421875.921875 0 2.046875-.125 1.125-.109375 2.484375-.359375z" stroke-linejoin="round"/><path id="m" d="m30.609375 48.390625q-7.21875 0-11.421875-5.640625-4.203125-5.640625-4.203125-15.453125 0-9.8125 4.171875-15.453125 4.1875-5.640625 11.453125-5.640625 7.1875 0 11.375 5.65625 4.203125 5.671875 4.203125 15.4375 0 9.71875-4.203125 15.40625-4.1875 5.6875-11.375 5.6875zm0 7.609375q11.71875 0 18.40625-7.625 6.703125-7.609375 6.703125-21.078125 0-13.421875-6.703125-21.078125-6.6875-7.640625-18.40625-7.640625-11.765625 0-18.4375 7.640625-6.65625 7.65625-6.65625 21.078125 0 13.46875 6.65625 21.078125 6.671875 7.625 18.4375 7.625z" stroke-linejoin="round"/><path id="n" d="m37.109375 75.984375v-7.484375h-8.59375q-4.828125 0-6.71875-1.953125-1.875-1.953125-1.875-7.03125v-4.828125h14.796875v-6.984375h-14.796875v-47.703125h-9.03125v47.703125h-8.59375v6.984375h8.59375v3.8125q0 9.125 4.25 13.296875 4.25 4.1875 13.46875 4.1875z" stroke-linejoin="round"/><path id="o" d="m44.28125 53.078125v-8.5q-3.796875 1.953125-7.90625 2.921875-4.09375.984375-8.5.984375-6.6875 0-10.03125-2.046875-3.34375-2.046875-3.34375-6.15625 0-3.125 2.390625-4.90625 2.390625-1.78125 9.625-3.390625l3.078125-.6875q9.5625-2.046875 13.59375-5.78125 4.03125-3.734375 4.03125-10.421875 0-7.625-6.03125-12.078125-6.03125-4.4375-16.578125-4.4375-4.390625 0-9.15625.859375-4.765625.859375-10.03125 2.5625v9.28125q4.984375-2.59375 9.8125-3.890625 4.828125-1.28125 9.578125-1.28125 6.34375 0 9.75 2.171875 3.421875 2.171875 3.421875 6.125 0 3.65625-2.46875 5.609375-2.453125 1.953125-10.8125 3.765625l-3.125.734375q-8.34375 1.75-12.0625 5.390625-3.703125 3.640625-3.703125 9.984375 0 7.71875 5.46875 11.90625 5.46875 4.203125 15.53125 4.203125 4.96875 0 9.359375-.734375 4.40625-.71875 8.109375-2.1875z" stroke-linejoin="round"/><path id="p" d="m18.3125 70.21875v-15.53125h18.5v-6.984375h-18.5v-29.6875q0-6.6875 1.828125-8.59375 1.828125-1.90625 7.453125-1.90625h9.21875v-7.515625h-9.21875q-10.40625 0-14.359375 3.875-3.953125 3.890625-3.953125 14.140625v29.6875h-6.59375v6.984375h6.59375v15.53125z" stroke-linejoin="round"/><path id="q" d="m9.421875 54.6875h8.984375v-54.6875h-8.984375zm0 21.296875h8.984375v-11.390625h-8.984375z" stroke-linejoin="round"/><path id="r" d="m34.28125 27.484375q-10.890625 0-15.09375-2.484375-4.203125-2.484375-4.203125-8.5 0-4.78125 3.15625-7.59375 3.15625-2.796875 8.5625-2.796875 7.484375 0 12 5.296875 4.515625 5.296875 4.515625 14.078125v2zm17.921875 3.71875v-31.203125h-8.984375v8.296875q-3.078125-4.96875-7.671875-7.34375-4.59375-2.375-11.234375-2.375-8.390625 0-13.359375 4.71875-4.953125 4.71875-4.953125 12.625 0 9.21875 6.171875 13.90625 6.1875 4.6875 18.4375 4.6875h12.609375v.890625q0 6.203125-4.078125 9.59375-4.078125 3.390625-11.453125 3.390625-4.6875 0-9.140625-1.125-4.4375-1.125-8.53125-3.375v8.3125q4.921875 1.90625 9.5625 2.84375 4.640625.953125 9.03125.953125 11.875 0 17.734375-6.15625 5.859375-6.140625 5.859375-18.640625z" stroke-linejoin="round"/><path id="s" d="m0 0h-3.5" stroke="#000" stroke-linejoin="round" stroke-width=".8"/><path id="t" d="m10.6875 12.40625h10.3125v-12.40625h-10.3125z" stroke-linejoin="round"/><path id="u" d="m9.421875 75.984375h8.984375v-75.984375h-8.984375z" stroke-linejoin="round"/><path id="v" d="m54.890625 33.015625v-33.015625h-8.984375v32.71875q0 7.765625-3.03125 11.609375-3.03125 3.859375-9.078125 3.859375-7.28125 0-11.484375-4.640625-4.203125-4.625-4.203125-12.640625v-30.90625h-9.03125v54.6875h9.03125v-8.5q3.234375 4.9375 7.59375 7.375 4.375 2.4375 10.09375 2.4375 9.421875 0 14.25-5.828125 4.84375-5.828125 4.84375-17.15625z" stroke-linejoin="round"/><path id="w" d="m49.609375 33.6875q0 7.1875-3.125 10.984375-3.125 3.8125-8.984375 3.8125-4 0-7.640625-2.046875-3.640625-2.046875-6.46875-5.953125-2.78125-3.859375-4.453125-9.328125-1.65625-5.46875-1.65625-10.84375 0-6.828125 3.125-10.515625 3.125-3.6875 8.890625-3.6875 4.25 0 7.890625 2 3.640625 2 6.21875 5.8125 2.78125 4 4.484375 9.421875 1.71875 5.421875 1.71875 10.34375zm-27.828125 12.703125q3.609375 4.734375 8.515625 7.171875 4.90625 2.4375 10.921875 2.4375 8.390625 0 13.03125-5.5 4.640625-5.484375 4.640625-15.390625 0-8.109375-2.890625-15.453125-2.875-7.34375-8.296875-13.15625-3.609375-3.859375-8.15625-5.890625-4.53125-2.03125-9.5625-2.03125-5.8125 0-9.765625 2.421875-3.953125 2.421875-5.90625 7.203125l-5.625-29h-8.984375l14.703125 75.484375h8.984375z" stroke-linejoin="round"/><path id="x" d="m31 75.875q-6.53125-11.21875-9.71875-22.21875-3.171875-10.984375-3.171875-22.265625 0-11.265625 3.203125-22.328125 3.203125-11.0625 9.6875-22.25h-7.8125q-7.3125 11.484375-10.953125 22.5625-3.640625 11.078125-3.640625 22.015625 0 10.890625 3.609375 21.921875 3.625 11.046875 10.984375 22.5625z" stroke-linejoin="round"/><path id="y" d="m60.015625 54.6875-25.109375-26.8125 15.390625-27.875h-10.3125l-11.5625 21.6875-20.125-21.6875h-10.890625l26.90625 28.8125-14.296875 25.875h10.296875l10.5-19.78125 18.3125 19.78125z" stroke-linejoin="round"/><path id="z" d="m8.015625 75.875h7.8125q7.3125-11.515625 10.953125-22.5625 3.640625-11.03125 3.640625-21.921875 0-10.9375-3.640625-22.015625-3.640625-11.078125-10.953125-22.5625h-7.8125q6.484375 11.1875 9.6875 22.25 3.203125 11.0625 3.203125 22.328125 0 11.28125-3.203125 22.265625-3.203125 11-9.6875 22.21875z" stroke-linejoin="round"/><path id="A" d="m25.734375 17.71875q8.0625 0 12.890625 11.71875-6.203125 12.796875-12.890625 12.796875-4.890625 0-7.375-3.515625-2.640625-3.75-2.640625-8.734375 0-5.46875 2.640625-8.84375 2.734375-3.421875 7.375-3.421875zm34.953125-.09375v-6.4375h-3.75q-3.5625 0-6.203125 1.453125-2.640625 1.328125-5.171875 4.40625-1.515625 1.75-3.90625 5.859375-3.28125-5.859375-6.15625-8.453125-3.5625-3.125-9.234375-3.125-6.59375 0-10.9375 4.9375-4.578125 5.171875-4.578125 13.71875 0 8.203125 4.578125 13.765625 4.0625 4.9375 11.046875 4.9375 3.5625 0 6.1875-1.46875 3.078125-1.609375 5.1875-4.390625 1.953125-2.5 3.90625-5.859375 3.265625 5.859375 6.140625 8.4375 3.578125 3.125 9.234375 3.125h3.65625v-6.390625h-3.125q-7.21875 0-12.890625-11.71875 6.203125-12.796875 12.890625-12.796875z" stroke-linejoin="round"/></defs><g stroke-linejoin="round"><path d="m0 488.27625h615.34375v-488.27625h-615.34375z" fill="#fff"/><g><g stroke-linejoin="round"><path d="m50.14375 450.72h558v-443.52h-558z" fill="#fff"/><path clip-path="url(#a)" d="m50.14375 430.56h.801551v-8.064h-.801551z" fill="#1f77b4"/><path clip-path="url(#a)" d="m50.14375 422.496v-8.064z" fill="#1f77b4"/><path clip-path="url(#a)" d="m50.14375 414.432h1.603103v-8.064h-1.603103z" fill="#1f77b4"/><path clip-path="url(#a)" d="m50.14375 406.368h.801551v-8.064h-.801551z" fill="#1f77b4"/><path clip-path="url(#a)" d="m50.14375 398.304h3.206206v-8.064h-3.206206z" fill="#1f77b4"/><path clip-path="url(#a)" d="m50.14375 390.24h6.412411v-8.064h-6.412411z" fill="#1f77b4"/><path clip-path="url(#a)" d="m50.14375 382.176h4.809308v-8.064h-4.809308z" fill="#1f77b4"/><path clip-path="url(#a)" d="m50.14375 374.112h3.206206v-8.064h-3.206206z" fill="#1f77b4"/><path clip-path="url(#a)" d="m50.14375 366.048h10.420168v-8.064h-10.420168z" fill="#1f77b4"/><path clip-path="url(#a)" d="m50.14375 357.984h19.237233v-8.064h-19.237233z" fill="#1f77b4"/><path clip-path="url(#a)" d="m50.14375 349.92h28.85585v-8.064h-28.85585z" fill="#1f77b4"/><path clip-path="url(#a)" d="m50.14375 341.856h33.665158v-8.064h-33.665158z" fill="#1f77b4"/><path clip-path="url(#a)" d="m50.14375 333.792h52.902392v-8.064h-52.902392z" fill="#1f77b4"/><path clip-path="url(#a)" d="m50.14375 325.728h63.32256v-8.064h-63.32256z" fill="#1f77b4"/><path clip-path="url(#a)" d="m50.14375 317.664h81.758242v-8.064h-81.758242z" fill="#1f77b4"/><path clip-path="url(#a)" d="m50.14375 309.6h141.073045v-8.064h-141.073045z" fill="#1f77b4"/><path clip-path="url(#a)" d="m50.14375 301.536h141.874596v-8.064h-141.874596z" fill="#1f77b4"/><path clip-path="url(#a)" d="m50.14375 293.472h189.967679v-8.064h-189.967679z" fill="#1f77b4"/><path clip-path="url(#a)" d="m50.14375 285.408h227.640595v-8.064h-227.640595z" fill="#1f77b4"/><path clip-path="url(#a)" d="m50.14375 277.344h265.31351v-8.064h-265.31351z" fill="#1f77b4"/><path clip-path="url(#a)" d="m50.14375 269.28h339.857789v-8.064h-339.857789z" fill="#1f77b4"/><path clip-path="url(#a)" d="m50.14375 261.216h338.254686v-8.064h-338.254686z" fill="#1f77b4"/><path clip-path="url(#a)" d="m50.14375 253.152h387.950873v-8.064h-387.950873z" fill="#1f77b4"/><path clip-path="url(#a)" d="m50.14375 245.088h427.226891v-8.064h-427.226891z" fill="#1f77b4"/><path clip-path="url(#a)" d="m50.14375 237.024h454.479638v-8.064h-454.479638z" fill="#1f77b4"/><path clip-path="url(#a)" d="m50.14375 228.96h466.502909v-8.064h-466.502909z" fill="#1f77b4"/><path clip-path="url(#a)" d="m50.14375 220.896h457.685844v-8.064h-457.685844z" fill="#1f77b4"/><path clip-path="url(#a)" d="m50.14375 212.832h472.113769v-8.064h-472.113769z" fill="#1f77b4"/><path clip-path="url(#a)" d="m50.14375 204.768h497.763413v-8.064h-497.763413z" fill="#1f77b4"/><path clip-path="url(#a)" d="m50.14375 196.704h456.884292v-8.064h-456.884292z" fill="#1f77b4"/><path clip-path="url(#a)" d="m50.14375 188.64h411.195863v-8.064h-411.195863z" fill="#1f77b4"/><path clip-path="url(#a)" d="m50.14375 180.576h376.729153v-8.064h-376.729153z" fill="#1f77b4"/><path clip-path="url(#a)" d="m50.14375 172.512h339.857789v-8.064h-339.857789z" fill="#1f77b4"/><path clip-path="url(#a)" d="m50.14375 164.448h274.932127v-8.064h-274.932127z" fill="#1f77b4"/><path clip-path="url(#a)" d="m50.14375 156.384h247.679379v-8.064h-247.679379z" fill="#1f77b4"/><path clip-path="url(#a)" d="m50.14375 148.32h193.975436v-8.064h-193.975436z" fill="#1f77b4"/><path clip-path="url(#a)" d="m50.14375 140.256h138.66839v-8.064h-138.66839z" fill="#1f77b4"/><path clip-path="url(#a)" d="m50.14375 132.192h141.073045v-8.064h-141.073045z" fill="#1f77b4"/><path clip-path="url(#a)" d="m50.14375 124.128h96.987718v-8.064h-96.987718z" fill="#1f77b4"/><path clip-path="url(#a)" d="m50.14375 116.064h60.116354v-8.064h-60.116354z" fill="#1f77b4"/><path clip-path="url(#a)" d="m50.14375 108h56.108597v-8.064h-56.108597z" fill="#1f77b4"/><path clip-path="url(#a)" d="m50.14375 99.936h32.062056v-8.064h-32.062056z" fill="#1f77b4"/><path clip-path="url(#a)" d="m50.14375 91.872h20.840336v-8.064h-20.840336z" fill="#1f77b4"/><path clip-path="url(#a)" d="m50.14375 83.808h20.840336v-8.064h-20.840336z" fill="#1f77b4"/><path clip-path="url(#a)" d="m50.14375 75.744h14.427925v-8.064h-14.427925z" fill="#1f77b4"/><path clip-path="url(#a)" d="m50.14375 67.68h4.007757v-8.064h-4.007757z" fill="#1f77b4"/><path clip-path="url(#a)" d="m50.14375 59.616h3.206206v-8.064h-3.206206z" fill="#1f77b4"/><path clip-path="url(#a)" d="m50.14375 51.552h1.603103v-8.064h-1.603103z" fill="#1f77b4"/><path clip-path="url(#a)" d="m50.14375 43.488h2.404654v-8.064h-2.404654z" fill="#1f77b4"/><path clip-path="url(#a)" d="m50.14375 35.424h3.206206v-8.064h-3.206206z" fill="#1f77b4"/><path clip-path="url(#a)" d="m50.14375 393.448734h.801551v-7.028481h-.801551z" fill="#ff7f0e"/><path clip-path="url(#a)" d="m50.14375 386.420253h.801551v-7.02848h-.801551z" fill="#ff7f0e"/><path clip-path="url(#a)" d="m50.14375 379.391773h2.404654v-7.028481h-2.404654z" fill="#ff7f0e"/><path clip-path="url(#a)" d="m50.14375 372.363292h1.603103v-7.02848h-1.603103z" fill="#ff7f0e"/><path clip-path="url(#a)" d="m50.14375 365.334812h.801551v-7.02848h-.801551z" fill="#ff7f0e"/><path clip-path="url(#a)" d="m50.14375 358.306332h5.61086v-7.028481h-5.61086z" fill="#ff7f0e"/><path clip-path="url(#a)" d="m50.14375 351.277851h6.412411v-7.02848h-6.412411z" fill="#ff7f0e"/><path clip-path="url(#a)" d="m50.14375 344.249371h13.626374v-7.028481h-13.626374z" fill="#ff7f0e"/><path clip-path="url(#a)" d="m50.14375 337.22089h17.634131v-7.02848h-17.634131z" fill="#ff7f0e"/><path clip-path="url(#a)" d="m50.14375 330.19241h21.641888v-7.02848h-21.641888z" fill="#ff7f0e"/><path clip-path="url(#a)" d="m50.14375 323.16393h37.672915v-7.028481h-37.672915z" fill="#ff7f0e"/><path clip-path="url(#a)" d="m50.14375 316.135449h50.497738v-7.02848h-50.497738z" fill="#ff7f0e"/><path clip-path="url(#a)" d="m50.14375 309.106969h68.93342v-7.028481h-68.93342z" fill="#ff7f0e"/><path clip-path="url(#a)" d="m50.14375 302.078488h77.750485v-7.02848h-77.750485z" fill="#ff7f0e"/><path clip-path="url(#a)" d="m50.14375 295.050008h121.835811v-7.02848h-121.835811z" fill="#ff7f0e"/><path clip-path="url(#a)" d="m50.14375 288.021528h161.111829v-7.028481h-161.111829z" fill="#ff7f0e"/><path clip-path="url(#a)" d="m50.14375 280.993047h210.808016v-7.02848h-210.808016z" fill="#ff7f0e"/><path clip-path="url(#a)" d="m50.14375 273.964567h241.266968v-7.028481h-241.266968z" fill="#ff7f0e"/><path clip-path="url(#a)" d="m50.14375 266.936086h311.803491v-7.02848h-311.803491z" fill="#ff7f0e"/><path clip-path="url(#a)" d="m50.14375 259.907606h332.643827v-7.02848h-332.643827z" fill="#ff7f0e"/><path clip-path="url(#a)" d="m50.14375 252.879126h373.522948v-7.028481h-373.522948z" fill="#ff7f0e"/><path clip-path="url(#a)" d="m50.14375 245.850645h441.654816v-7.02848h-441.654816z" fill="#ff7f0e"/><path clip-path="url(#a)" d="m50.14375 238.822165h468.106012v-7.028481h-468.106012z" fill="#ff7f0e"/><path clip-path="url(#a)" d="m50.14375 231.793684h474.518423v-7.02848h-474.518423z" fill="#ff7f0e"/><path clip-path="url(#a)" d="m50.14375 224.765204h490.549451v-7.028481h-490.549451z" fill="#ff7f0e"/><path clip-path="url(#a)" d="m50.14375 217.736723h531.428571v-7.02848h-531.428571z" fill="#ff7f0e"/><path clip-path="url(#a)" d="m50.14375 210.708243h479.327731v-7.02848h-479.327731z" fill="#ff7f0e"/><path clip-path="url(#a)" d="m50.14375 203.679763h452.876535v-7.028481h-452.876535z" fill="#ff7f0e"/><path clip-path="url(#a)" d="m50.14375 196.651282h431.234648v-7.02848h-431.234648z" fill="#ff7f0e"/><path clip-path="url(#a)" d="m50.14375 189.622802h385.546218v-7.028481h-385.546218z" fill="#ff7f0e"/><path clip-path="url(#a)" d="m50.14375 182.594321h370.316742v-7.02848h-370.316742z" fill="#ff7f0e"/><path clip-path="url(#a)" d="m50.14375 175.565841h326.231416v-7.02848h-326.231416z" fill="#ff7f0e"/><path clip-path="url(#a)" d="m50.14375 168.537361h257.297996v-7.028481h-257.297996z" fill="#ff7f0e"/><path clip-path="url(#a)" d="m50.14375 161.50888h216.418875v-7.02848h-216.418875z" fill="#ff7f0e"/><path clip-path="url(#a)" d="m50.14375 154.4804h170.730446v-7.028481h-170.730446z" fill="#ff7f0e"/><path clip-path="url(#a)" d="m50.14375 147.451919h135.462185v-7.02848h-135.462185z" fill="#ff7f0e"/><path clip-path="url(#a)" d="m50.14375 140.423439h95.384615v-7.02848h-95.384615z" fill="#ff7f0e"/><path clip-path="url(#a)" d="m50.14375 133.394959h67.330317v-7.028481h-67.330317z" fill="#ff7f0e"/><path clip-path="url(#a)" d="m50.14375 126.366478h55.307046v-7.02848h-55.307046z" fill="#ff7f0e"/><path clip-path="url(#a)" d="m50.14375 119.337998h37.672915v-7.028481h-37.672915z" fill="#ff7f0e"/><path clip-path="url(#a)" d="m50.14375 112.309517h31.260504v-7.02848h-31.260504z" fill="#ff7f0e"/><path clip-path="url(#a)" d="m50.14375 105.281037h16.031028v-7.028481h-16.031028z" fill="#ff7f0e"/><path clip-path="url(#a)" d="m50.14375 98.252556h4.809308v-7.02848h-4.809308z" fill="#ff7f0e"/><path clip-path="url(#a)" d="m50.14375 91.224076h5.61086v-7.02848h-5.61086z" fill="#ff7f0e"/><path clip-path="url(#a)" d="m50.14375 84.195596h4.007757v-7.028481h-4.007757z" fill="#ff7f0e"/><path clip-path="url(#a)" d="m50.14375 77.167115h3.206206v-7.02848h-3.206206z" fill="#ff7f0e"/><path clip-path="url(#a)" d="m50.14375 70.138635h1.603103v-7.028481h-1.603103z" fill="#ff7f0e"/><path clip-path="url(#a)" d="m50.14375 63.110154h.801551v-7.02848h-.801551z" fill="#ff7f0e"/><path clip-path="url(#a)" d="m50.14375 56.081674h.801551v-7.02848h-.801551z" fill="#ff7f0e"/><path clip-path="url(#a)" d="m50.14375 49.053194h.801551v-7.028481h-.801551z" fill="#ff7f0e"/><path clip-path="url(#a)" d="m50.14375 304.261483h.801551v-3.574315h-.801551z" fill="#2ca02c"/><path clip-path="url(#a)" d="m50.14375 300.687168v-3.574315z" fill="#2ca02c"/><path clip-path="url(#a)" d="m50.14375 297.112853h.801551v-3.574315h-.801551z" fill="#2ca02c"/><path clip-path="url(#a)" d="m50.14375 293.538538h3.206206v-3.574316h-3.206206z" fill="#2ca02c"/><path clip-path="url(#a)" d="m50.14375 289.964222h4.809308v-3.574315h-4.809308z" fill="#2ca02c"/><path clip-path="url(#a)" d="m50.14375 286.389907h6.412411v-3.574315h-6.412411z" fill="#2ca02c"/><path clip-path="url(#a)" d="m50.14375 282.815592h9.618617v-3.574316h-9.618617z" fill="#2ca02c"/><path clip-path="url(#a)" d="m50.14375 279.241276h20.840336v-3.574315h-20.840336z" fill="#2ca02c"/><path clip-path="url(#a)" d="m50.14375 275.666961h26.451196v-3.574315h-26.451196z" fill="#2ca02c"/><path clip-path="url(#a)" d="m50.14375 272.092646h45.688429v-3.574315h-45.688429z" fill="#2ca02c"/><path clip-path="url(#a)" d="m50.14375 268.518331h61.719457v-3.574316h-61.719457z" fill="#2ca02c"/><path clip-path="url(#a)" d="m50.14375 264.944015h70.536522v-3.574315h-70.536522z" fill="#2ca02c"/><path clip-path="url(#a)" d="m50.14375 261.3697h90.575307v-3.574315h-90.575307z" fill="#2ca02c"/><path clip-path="url(#a)" d="m50.14375 257.795385h117.828054v-3.574315h-117.828054z" fill="#2ca02c"/><path clip-path="url(#a)" d="m50.14375 254.22107h165.921138v-3.574316h-165.921138z" fill="#2ca02c"/><path clip-path="url(#a)" d="m50.14375 250.646754h181.952165v-3.574315h-181.952165z" fill="#2ca02c"/><path clip-path="url(#a)" d="m50.14375 247.072439h223.632838v-3.574315h-223.632838z" fill="#2ca02c"/><path clip-path="url(#a)" d="m50.14375 243.498124h267.718164v-3.574316h-267.718164z" fill="#2ca02c"/><path clip-path="url(#a)" d="m50.14375 239.923808h323.826761v-3.574315h-323.826761z" fill="#2ca02c"/><path clip-path="url(#a)" d="m50.14375 236.349493h393.561732v-3.574315h-393.561732z" fill="#2ca02c"/><path clip-path="url(#a)" d="m50.14375 232.775178h432.83775v-3.574315h-432.83775z" fill="#2ca02c"/><path clip-path="url(#a)" d="m50.14375 229.200863h420.012928v-3.574316h-420.012928z" fill="#2ca02c"/><path clip-path="url(#a)" d="m50.14375 225.626547h448.868778v-3.574315h-448.868778z" fill="#2ca02c"/><path clip-path="url(#a)" d="m50.14375 222.052232h478.52618v-3.574315h-478.52618z" fill="#2ca02c"/><path clip-path="url(#a)" d="m50.14375 218.477917h485.740142v-3.574315h-485.740142z" fill="#2ca02c"/><path clip-path="url(#a)" d="m50.14375 214.903602h454.479638v-3.574316h-454.479638z" fill="#2ca02c"/><path clip-path="url(#a)" d="m50.14375 211.329286h451.273432v-3.574315h-451.273432z" fill="#2ca02c"/><path clip-path="url(#a)" d="m50.14375 207.754971h459.288946v-3.574315h-459.288946z" fill="#2ca02c"/><path clip-path="url(#a)" d="m50.14375 204.180656h420.81448v-3.574316h-420.81448z" fill="#2ca02c"/><path clip-path="url(#a)" d="m50.14375 200.60634h349.476406v-3.574315h-349.476406z" fill="#2ca02c"/><path clip-path="url(#a)" d="m50.14375 197.032025h331.040724v-3.574315h-331.040724z" fill="#2ca02c"/><path clip-path="url(#a)" d="m50.14375 193.45771h262.107304v-3.574315h-262.107304z" fill="#2ca02c"/><path clip-path="url(#a)" d="m50.14375 189.883395h229.243697v-3.574316h-229.243697z" fill="#2ca02c"/><path clip-path="url(#a)" d="m50.14375 186.309079h209.204913v-3.574315h-209.204913z" fill="#2ca02c"/><path clip-path="url(#a)" d="m50.14375 182.734764h145.882353v-3.574315h-145.882353z" fill="#2ca02c"/><path clip-path="url(#a)" d="m50.14375 179.160449h109.010989v-3.574315h-109.010989z" fill="#2ca02c"/><path clip-path="url(#a)" d="m50.14375 175.586134h94.583064v-3.574316h-94.583064z" fill="#2ca02c"/><path clip-path="url(#a)" d="m50.14375 172.011818h76.147382v-3.574315h-76.147382z" fill="#2ca02c"/><path clip-path="url(#a)" d="m50.14375 168.437503h43.283775v-3.574315h-43.283775z" fill="#2ca02c"/><path clip-path="url(#a)" d="m50.14375 164.863188h28.85585v-3.574315h-28.85585z" fill="#2ca02c"/><path clip-path="url(#a)" d="m50.14375 161.288873h20.840336v-3.574316h-20.840336z" fill="#2ca02c"/><path clip-path="url(#a)" d="m50.14375 157.714557h13.626374v-3.574315h-13.626374z" fill="#2ca02c"/><path clip-path="url(#a)" d="m50.14375 154.140242h7.213963v-3.574315h-7.213963z" fill="#2ca02c"/><path clip-path="url(#a)" d="m50.14375 150.565927h14.427925v-3.574316h-14.427925z" fill="#2ca02c"/><path clip-path="url(#a)" d="m50.14375 146.991611h4.809308v-3.574315h-4.809308z" fill="#2ca02c"/><path clip-path="url(#a)" d="m50.14375 143.417296h3.206206v-3.574315h-3.206206z" fill="#2ca02c"/><path clip-path="url(#a)" d="m50.14375 139.842981h2.404654v-3.574315h-2.404654z" fill="#2ca02c"/><path clip-path="url(#a)" d="m50.14375 136.268666h.801551v-3.574316h-.801551z" fill="#2ca02c"/><path clip-path="url(#a)" d="m50.14375 132.69435v-3.574315z" fill="#2ca02c"/><path clip-path="url(#a)" d="m50.14375 129.120035h1.603103v-3.574315h-1.603103z" fill="#2ca02c"/><g><g><use stroke="#000" stroke-width=".8" x="50.14375" xlink:href="#b" y="450.72"/><use transform="matrix(.1 0 0 -.1 46.9625 465.318438)" xlink:href="#c"/></g><g><use stroke="#000" stroke-width=".8" x="130.298889" xlink:href="#b" y="450.72"/><g transform="matrix(.1 0 0 -.1 120.755139 465.318438)"><path d="m12.40625 8.296875h16.109375v55.625l-17.53125-3.515625v8.984375l17.4375 3.515625h9.859375v-64.609375h16.109375v-8.296875h-41.984375z"/><use x="63.623047" xlink:href="#c"/><use x="127.246094" xlink:href="#c"/></g></g><g><use stroke="#000" stroke-width=".8" x="210.454028" xlink:href="#b" y="450.72"/><g transform="matrix(.1 0 0 -.1 200.910278 465.318438)"><use xlink:href="#d"/><use x="63.623047" xlink:href="#c"/><use x="127.246094" xlink:href="#c"/></g></g><g><use stroke="#000" stroke-width=".8" x="290.609167" xlink:href="#b" y="450.72"/><g transform="matrix(.1 0 0 -.1 281.065417 465.318438)"><use xlink:href="#e"/><use x="63.623047" xlink:href="#c"/><use x="127.246094" xlink:href="#c"/></g></g><g><use stroke="#000" stroke-width=".8" x="370.764306" xlink:href="#b" y="450.72"/><g transform="matrix(.1 0 0 -.1 361.220556 465.318438)"><use xlink:href="#f"/><use x="63.623047" xlink:href="#c"/><use x="127.246094" xlink:href="#c"/></g></g><g><use stroke="#000" stroke-width=".8" x="450.919445" xlink:href="#b" y="450.72"/><g transform="matrix(.1 0 0 -.1 441.375695 465.318438)"><use xlink:href="#g"/><use x="63.623047" xlink:href="#c"/><use x="127.246094" xlink:href="#c"/></g></g><g><use stroke="#000" stroke-width=".8" x="531.074584" xlink:href="#b" y="450.72"/><g transform="matrix(.1 0 0 -.1 521.530834 465.318438)"><use xlink:href="#h"/><use x="63.623047" xlink:href="#c"/><use x="127.246094" xlink:href="#c"/></g></g><g transform="matrix(.1 0 0 -.1 276.453906 478.996563)"><path d="m9.8125 72.90625h13.28125l32.328125-60.984375v60.984375h9.5625v-72.90625h-13.28125l-32.3125 60.984375v-60.984375h-9.578125z"/><use x="74.804688" xlink:href="#i"/><use x="138.183594" xlink:href="#j"/><path d="m48.6875 27.296875q0 9.90625-4.078125 15.546875-4.078125 5.640625-11.203125 5.640625-7.140625 0-11.21875-5.640625-4.078125-5.640625-4.078125-15.546875 0-9.90625 4.078125-15.546875 4.078125-5.640625 11.21875-5.640625 7.125 0 11.203125 5.640625 4.078125 5.640625 4.078125 15.546875zm-30.578125 19.09375q2.84375 4.875 7.15625 7.234375 4.328125 2.375 10.328125 2.375 9.96875 0 16.1875-7.90625 6.234375-7.90625 6.234375-20.796875 0-12.890625-6.234375-20.8125-6.21875-7.90625-16.1875-7.90625-6 0-10.328125 2.375-4.3125 2.375-7.15625 7.25v-8.203125h-9.03125v75.984375h9.03125z" transform="translate(235.595703)"/><use x="299.072266" xlink:href="#k"/><use x="360.595703" xlink:href="#l"/><use x="433.496094" xlink:href="#m"/><use x="494.677734" xlink:href="#n"/><use x="561.669922" xlink:href="#k"/><use x="623.193359" xlink:href="#o"/><use x="675.292969" xlink:href="#p"/><use x="714.501953" xlink:href="#q"/><use x="742.285156" xlink:href="#j"/><use x="839.697266" xlink:href="#r"/><use x="900.976562" xlink:href="#p"/><use x="940.185547" xlink:href="#k"/><use x="1001.708984" xlink:href="#o"/></g></g><g><g><use stroke="#000" stroke-width=".8" x="50.14375" xlink:href="#s" y="447.668079"/><g transform="matrix(.1 0 0 -.1 20.878125 451.467298)"><use xlink:href="#d"/><use x="63.623047" xlink:href="#t"/><use x="95.410156" xlink:href="#d"/><use x="159.033203" xlink:href="#g"/></g></g><g><use stroke="#000" stroke-width=".8" x="50.14375" xlink:href="#s" y="385.327421"/><g transform="matrix(.1 0 0 -.1 20.878125 389.12664)"><use xlink:href="#d"/><use x="63.623047" xlink:href="#t"/><use x="95.410156" xlink:href="#e"/><use x="159.033203" xlink:href="#c"/></g></g><g><use stroke="#000" stroke-width=".8" x="50.14375" xlink:href="#s" y="322.986762"/><g transform="matrix(.1 0 0 -.1 20.878125 326.785981)"><use xlink:href="#d"/><use x="63.623047" xlink:href="#t"/><use x="95.410156" xlink:href="#e"/><use x="159.033203" xlink:href="#g"/></g></g><g><use stroke="#000" stroke-width=".8" x="50.14375" xlink:href="#s" y="260.646104"/><g transform="matrix(.1 0 0 -.1 20.878125 264.445323)"><use xlink:href="#d"/><use x="63.623047" xlink:href="#t"/><use x="95.410156" xlink:href="#f"/><use x="159.033203" xlink:href="#c"/></g></g><g><use stroke="#000" stroke-width=".8" x="50.14375" xlink:href="#s" y="198.305446"/><g transform="matrix(.1 0 0 -.1 20.878125 202.104664)"><use xlink:href="#d"/><use x="63.623047" xlink:href="#t"/><use x="95.410156" xlink:href="#f"/><use x="159.033203" xlink:href="#g"/></g></g><g><use stroke="#000" stroke-width=".8" x="50.14375" xlink:href="#s" y="135.964787"/><g transform="matrix(.1 0 0 -.1 20.878125 139.764006)"><use xlink:href="#d"/><use x="63.623047" xlink:href="#t"/><use x="95.410156" xlink:href="#g"/><use x="159.033203" xlink:href="#c"/></g></g><g><use stroke="#000" stroke-width=".8" x="50.14375" xlink:href="#s" y="73.624129"/><g transform="matrix(.1 0 0 -.1 20.878125 77.423347)"><use xlink:href="#d"/><use x="63.623047" xlink:href="#t"/><use x="95.410156" xlink:href="#g"/><use x="159.033203" xlink:href="#g"/></g></g><g><use stroke="#000" stroke-width=".8" x="50.14375" xlink:href="#s" y="11.28347"/><g transform="matrix(.1 0 0 -.1 20.878125 15.082689)"><use xlink:href="#d"/><use x="63.623047" xlink:href="#t"/><use x="95.410156" xlink:href="#h"/><use x="159.033203" xlink:href="#c"/></g></g><g transform="matrix(0 -.1 -.1 0 14.798438 308.590469)"><path d="m9.8125 72.90625h46.09375v-8.3125h-36.234375v-21.578125h34.71875v-8.296875h-34.71875v-26.421875h37.109375v-8.296875h-46.96875z"/><use x="63.183594" xlink:href="#o"/><use x="115.283203" xlink:href="#p"/><use x="154.492188" xlink:href="#q"/><use x="182.275391" xlink:href="#j"/><use x="279.6875" xlink:href="#r"/><use x="340.966797" xlink:href="#p"/><use x="380.175781" xlink:href="#k"/><path d="m45.40625 46.390625v29.59375h8.984375v-75.984375h-8.984375v8.203125q-2.828125-4.875-7.15625-7.25-4.3125-2.375-10.375-2.375-9.90625 0-16.140625 7.90625-6.21875 7.921875-6.21875 20.8125 0 12.890625 6.21875 20.796875 6.234375 7.90625 16.140625 7.90625 6.0625 0 10.375-2.375 4.328125-2.359375 7.15625-7.234375zm-30.609375-19.09375q0-9.90625 4.078125-15.546875 4.078125-5.640625 11.203125-5.640625 7.125 0 11.21875 5.640625 4.109375 5.640625 4.109375 15.546875 0 9.90625-4.109375 15.546875-4.09375 5.640625-11.21875 5.640625-7.125 0-11.203125-5.640625-4.078125-5.640625-4.078125-15.546875z" transform="translate(441.699219)"/><path d="m2.984375 54.6875h9.515625l17.09375-45.890625 17.09375 45.890625h9.515625l-20.515625-54.6875h-12.203125z" transform="translate(536.962891)"/><use x="596.142578" xlink:href="#r"/><use x="657.421875" xlink:href="#u"/><use x="685.205078" xlink:href="#i"/><use x="748.583984" xlink:href="#k"/><use x="841.894531" xlink:href="#n"/><use x="877.099609" xlink:href="#m"/><use x="938.28125" xlink:href="#l"/><use x="1011.181641" xlink:href="#p"/><path d="m54.890625 33.015625v-33.015625h-8.984375v32.71875q0 7.765625-3.03125 11.609375-3.03125 3.859375-9.078125 3.859375-7.28125 0-11.484375-4.640625-4.203125-4.625-4.203125-12.640625v-30.90625h-9.03125v75.984375h9.03125v-29.796875q3.234375 4.9375 7.59375 7.375 4.375 2.4375 10.09375 2.4375 9.421875 0 14.25-5.828125 4.84375-5.828125 4.84375-17.15625z" transform="translate(1050.390625)"/><use x="1113.769531" xlink:href="#k"/><use x="1207.080078" xlink:href="#q"/><use x="1234.863281" xlink:href="#v"/><use x="1298.242188" xlink:href="#p"/><use x="1337.451172" xlink:href="#k"/><path d="m45.40625 27.984375q0 9.765625-4.03125 15.125-4.015625 5.375-11.296875 5.375-7.21875 0-11.25-5.375-4.03125-5.359375-4.03125-15.125 0-9.71875 4.03125-15.09375 4.03125-5.375 11.25-5.375 7.28125 0 11.296875 5.375 4.03125 5.375 4.03125 15.09375zm8.984375-21.203125q0-13.953125-6.203125-20.765625-6.1875-6.8125-18.984375-6.8125-4.734375 0-8.9375.703125-4.203125.703125-8.15625 2.171875v8.734375q3.953125-2.140625 7.8125-3.15625 3.859375-1.03125 7.859375-1.03125 8.84375 0 13.234375 4.609375 4.390625 4.609375 4.390625 13.9375v4.453125q-2.78125-4.84375-7.125-7.234375-4.34375-2.390625-10.40625-2.390625-10.046875 0-16.203125 7.65625-6.15625 7.671875-6.15625 20.328125 0 12.6875 6.15625 20.34375 6.15625 7.671875 16.203125 7.671875 6.0625 0 10.40625-2.390625 4.34375-2.390625 7.125-7.21875v8.296875h8.984375z" transform="translate(1398.974609)"/><use x="1462.451172" xlink:href="#l"/><use x="1503.564453" xlink:href="#r"/><use x="1564.84375" xlink:href="#u"/></g></g></g><path d="m50.14375 450.72v-443.52" fill="none" stroke="#000" stroke-linecap="square" stroke-linejoin="miter" stroke-width=".8"/><path d="m608.14375 450.72v-443.52" fill="none" stroke="#000" stroke-linecap="square" stroke-linejoin="miter" stroke-width=".8"/><path d="m50.14375 450.72h558" fill="none" stroke="#000" stroke-linecap="square" stroke-linejoin="miter" stroke-width=".8"/><path d="m50.14375 7.2h558" fill="none" stroke="#000" stroke-linecap="square" stroke-linejoin="miter" stroke-width=".8"/><g stroke-linejoin="round"><path d="m517.74375 60.5h83.4q2 0 2-2v-44.3q0-2-2-2h-83.4q-2 0-2 2v44.3q0 2 2 2z" fill="#fff" opacity=".8" stroke="#ccc" stroke-linejoin="miter"/><g stroke-linejoin="round"><path d="m519.74375 23.8h20v-7h-20z" fill="#1f77b4"/><g transform="matrix(.1 0 0 -.1 547.74375 23.8)"><use transform="translate(0 .015625)" xlink:href="#w"/><use transform="translate(63.476562 .015625)" xlink:href="#x"/><use transform="translate(102.490234 .015625)" xlink:href="#y"/><use transform="translate(161.669922 .015625)" xlink:href="#z"/><path d="m10.59375 45.40625h62.59375v-8.203125h-62.59375zm0-19.921875h62.59375v-8.296875h-62.59375z" transform="translate(220.166016 .015625)"/><path d="m18.3125 75.984375h8.984375l-8.59375-44.296875 30.8125 23h11.671875l-34.375-26.171875 25.09375-28.515625h-10.890625l-23.34375 26.703125-5.171875-26.703125h-8.984375z" transform="translate(323.4375 .015625)"/></g><path d="m519.74375 39.7h20v-7h-20z" fill="#ff7f0e"/><g transform="matrix(.1 0 0 -.1 547.74375 39.7)"><use transform="translate(0 .890625)" xlink:href="#w"/><use transform="translate(63.476562 .890625)" xlink:href="#x"/><use transform="translate(102.490234 .890625)" xlink:href="#y"/><use transform="translate(161.669922 .890625)" xlink:href="#z"/><use transform="translate(220.166016 .890625)" xlink:href="#A"/><path d="m54.5 81.109375h9.21875v-4.6875h-5.609375l-29-78.421875h-3.234375l-15.578125 43.109375-6.09375-2.1875-1.21875 3.90625 13.8125 4.78125 12.5-34.625z" transform="translate(311.083984 .890625)"/><use transform="translate(387.304688 1.0625)" xlink:href="#y"/><path d="m374.804688 75.5v6.25h84.179687v-6.25z"/></g><path d="m519.74375 54.4h20v-7h-20z" fill="#2ca02c"/><g transform="matrix(.1 0 0 -.1 547.74375 54.4)"><use transform="translate(0 .015625)" xlink:href="#w"/><use transform="translate(63.476562 .015625)" xlink:href="#x"/><use transform="translate(102.490234 .015625)" xlink:href="#y"/><use transform="translate(161.669922 .015625)" xlink:href="#z"/><use transform="translate(220.166016 .015625)" xlink:href="#A"/><use transform="translate(311.083984 .015625)" xlink:href="#o"/><use transform="translate(363.183594 .015625)" xlink:href="#q"/><use transform="translate(390.966797 .015625)" xlink:href="#v"/><use transform="translate(454.345703 .015625)" xlink:href="#y"/></g></g></g></g></g></svg>