<svg height="213.35213pt" viewBox="0 0 273.5138 213.35213" width="273.51379pt" xmlns="http://www.w3.org/2000/svg" xmlns:xlink="http://www.w3.org/1999/xlink"><symbol id="a" overflow="visible"><path d="m.421875-.796875.921875-3.34375h-.640625c-.0625 0-.105469-.00391-.125-.015625-.011719-.00781-.011719-.039062 0-.09375 0-.039062.007813-.070312.03125-.09375.019531-.019531.066406-.046875.140625-.078125.34375-.132813.625-.285156.84375-.453125.21875-.175781.441406-.410156.671875-.703125.039063-.039063.078125-.070313.109375-.09375.03125-.019531.0625-.03125.09375-.03125.019531 0 .035156.011719.046875.03125.019531.023437.023437.046875.015625.078125l-.296875 1.109375h.8125l-.0625.34375h-.84375l-.953125 3.453125c-.023438.105469-.027344.183594-.015625.234375.019531.054687.066406.078125.140625.078125.070312 0 .171875-.066406.296875-.203125.132813-.132813.316406-.351563.546875-.65625l.140625.140625c-.304687.429688-.570313.734375-.796875.921875-.230469.1875-.453125.28125-.671875.28125-.230469 0-.375-.0742188-.4375-.21875-.0625-.132813-.054687-.363281.03125-.6875zm0 0"/></symbol><symbol id="b" overflow="visible"><path d="m.703125-.6875c0 .546875-.25.5625-.578125.5625v.125h1.8125v-.125c-.28125 0-.546875-.015625-.546875-.421875v-2.296875c0-.03125.375-.484375.921875-.484375.4375 0 .5625.328125.5625.859375v1.765625c0 .53125-.1875.5625-.546875.578125v.125h1.828125v-.125c-.34375 0-.59375-.03125-.59375-.640625v-2.0625c.1875-.265625.453125-.5.90625-.5.59375 0 .59375.484375.59375.90625v1.71875c0 .515625-.125.53125-.53125.578125v.125h1.78125v-.125l-.21875-.015625c-.359375-.0625-.34375-.296875-.34375-.484375v-1.671875c0-.59375-.109375-1.453125-.96875-1.453125-.640625 0-1.140625.5-1.3125.6875-.078125-.34375-.328125-.6875-.859375-.6875-.4375 0-.78125.265625-1.265625.625v-.609375l-.046875-.015625c-.375.140625-.765625.265625-1.140625.375v.140625c.0625-.015625.140625-.03125.265625-.03125s.28125 0 .28125.515625zm0 0"/></symbol><symbol id="c" overflow="visible"><path d="m2.34375-1c0 .25-.03125.34375-.28125.46875-.078125.03125-.328125.140625-.5.140625-.3125 0-.546875-.25-.546875-.640625v-.015625c0-.265625.09375-.734375 1.328125-1.140625zm1.25.46875c-.078125.0625-.1875.15625-.359375.15625-.234375 0-.234375-.25-.234375-.484375v-1.578125c0-.5 0-1.3125-1.21875-1.3125-.9375 0-1.328125.578125-1.328125.90625 0 .140625.09375.359375.359375.359375.203125 0 .359375-.171875.359375-.34375 0-.078125-.046875-.203125-.046875-.328125 0-.25.3125-.390625.578125-.390625.25 0 .640625.09375.640625.671875v.5c-1.328125.515625-2.046875.796875-2.046875 1.609375 0 .546875.421875.84375.875.84375.4375 0 .875-.328125 1.171875-.59375.046875.59375.390625.59375.53125.59375.125 0 .375 0 .71875-.40625zm0 0"/></symbol><symbol id="d" overflow="visible"><path d="m2.453125-.59375c.03125.046875.140625.140625.140625.265625 0 .171875-.078125.203125-.328125.203125v.125h1.640625v-.125c-.140625 0-.359375-.015625-.671875-.484375l-1.046875-1.59375.671875-.984375c.078125-.09375.3125-.34375.671875-.359375v-.109375h-1.296875v.109375c.140625.015625.328125.015625.328125.1875 0 .09375-.046875.171875-.546875.890625-.15625-.234375-.484375-.734375-.484375-.890625 0-.171875.203125-.1875.34375-.1875v-.109375h-1.671875v.109375c.265625 0 .359375 0 .6875.5l.765625 1.171875-.921875 1.34375c-.265625.375-.375.390625-.59375.40625v.125h1.171875v-.125c-.125 0-.296875 0-.3125-.140625 0-.09375.109375-.265625.15625-.34375l.640625-1zm0 0"/></symbol><symbol id="e" overflow="visible"><path d="m.125 0h1.9375v-.125c-.5625-.03125-.609375-.171875-.609375-.703125v-2.890625l-.03125-.03125c-.421875.15625-.828125.3125-1.265625.453125v.125c.109375-.015625.21875-.03125.328125-.03125.140625 0 .28125 0 .28125.484375v1.890625c0 .625-.125.6875-.640625.703125zm.515625-5.140625c0 .15625.109375.40625.40625.40625.234375 0 .421875-.171875.421875-.40625s-.1875-.421875-.421875-.421875c-.296875 0-.40625.265625-.40625.421875zm0 0"/></symbol><symbol id="f" overflow="visible"><path d="m.65625-.734375c0 .484375-.125.59375-.515625.609375v.125h1.734375v-.125c-.421875-.015625-.546875-.15625-.546875-.421875v-2.28125c.3125-.3125.5625-.46875.8125-.46875.484375 0 .625.296875.625.796875v1.6875c0 .625-.203125.671875-.515625.6875v.125h1.703125v-.125c-.40625-.03125-.5-.15625-.5-.53125v-1.875c0-1-.578125-1.21875-.953125-1.21875-.484375 0-.796875.296875-1.1875.671875v-.65625l-.0625-.015625c-.375.140625-.75.265625-1.125.375v.140625c.03125-.015625.125-.03125.234375-.03125.140625 0 .296875 0 .296875.515625zm0 0"/></symbol><symbol id="g" overflow="visible"><path d="m2.5625-2.5625-.03125-1.109375h-.09375c-.015625.03125-.0625.09375-.140625.09375-.125 0-.390625-.171875-.734375-.171875-.796875 0-1.140625.546875-1.140625 1 0 .59375.4375.90625.953125 1.1875l.46875.265625c.25.15625.421875.34375.421875.609375 0 .453125-.390625.59375-.65625.59375-.796875 0-.953125-.71875-1.0625-1.140625h-.125v1.265625h.109375c.046875-.078125.078125-.09375.171875-.09375.234375-.015625.578125.140625.953125.140625.515625 0 1.171875-.34375 1.171875-1.046875 0-.484375-.28125-.71875-.671875-.953125l-.890625-.53125c-.296875-.171875-.34375-.40625-.34375-.578125 0-.203125.171875-.53125.609375-.53125.359375 0 .734375.171875.90625 1zm0 0"/></symbol><symbol id="h" overflow="visible"><path d="m.609375 1.0625c0 .359375-.03125.53125-.5625.5625v.140625h1.96875v-.140625c-.59375 0-.71875-.09375-.71875-.609375v-1.28125c.265625.25.5.34375.8125.34375 1.140625 0 1.71875-1.140625 1.71875-2.078125 0-1.078125-.625-1.75-1.34375-1.75-.625 0-1 .40625-1.171875.625l-.015625-.015625v-.59375l-.046875-.015625c-.390625.15625-.78125.296875-1.171875.421875v.125h.21875c.296875 0 .3125.140625.3125.453125zm.6875-3.78125c.046875-.3125.5-.53125.796875-.53125.984375 0 1.03125 1.3125 1.03125 1.5 0 1.421875-.734375 1.578125-1 1.578125-.453125 0-.828125-.359375-.828125-.546875zm0 0"/></symbol><symbol id="i" overflow="visible"><path d="m.171875 0h1.921875v-.125c-.46875-.015625-.609375-.09375-.609375-.5625v-4.859375l-.03125-.015625c-.4375.140625-.859375.25-1.296875.359375v.125c.09375 0 .171875-.015625.28125-.015625.3125 0 .359375.140625.359375.5v3.890625c0 .4375-.140625.546875-.625.578125zm0 0"/></symbol><symbol id="j" overflow="visible"><path d="m2.078125-3.65625h-.828125v-.953125c0-.0625 0-.109375-.046875-.109375-.3125.4375-.4375.609375-.734375.9375-.1875.171875-.359375.21875-.359375.328125 0 .015625.015625.046875.03125.046875h.421875v2.453125c0 .8125.34375 1.03125.75 1.03125.375 0 .765625-.265625.953125-.609375l-.09375-.09375c-.09375.109375-.25.28125-.5.28125-.421875 0-.421875-.484375-.421875-.734375v-2.328125h.828125zm0 0"/></symbol><symbol id="k" overflow="visible"><path d="m5.015625-2.421875v-2.421875h-.234375c-.109375.78125-.296875.984375-1.15625.984375h-1.515625v-2.3125c0-.3125.0625-.359375.328125-.359375h1.421875c1.171875 0 1.4375.171875 1.59375 1.09375h.265625l-.03125-1.5h-5.5625v.203125c.65625.0625.90625.125.90625.9375v4.546875c0 .859375-.125 1.015625-.90625 1.046875v.203125h2.9375v-.203125c-.75-.03125-.953125-.15625-.953125-.9375v-2.296875l1.515625.03125c.78125 0 1.03125.109375 1.15625.984375zm0 0"/></symbol><symbol id="l" overflow="visible"><path d="m3-1.28125c0 .3125-.03125.4375-.34375.59375-.109375.046875-.421875.1875-.65625.1875-.390625 0-.6875-.328125-.6875-.8125v-.03125c0-.359375.109375-.9375 1.6875-1.46875zm1.625.59375c-.109375.09375-.25.203125-.46875.203125-.296875 0-.296875-.3125-.296875-.609375v-2.046875c0-.625 0-1.671875-1.5625-1.671875-1.21875 0-1.703125.734375-1.703125 1.15625 0 .171875.125.46875.4375.46875.28125 0 .46875-.234375.46875-.453125 0-.09375-.046875-.25-.046875-.40625 0-.328125.40625-.515625.75-.515625.3125 0 .796875.109375.796875.859375v.640625c-1.703125.671875-2.609375 1.03125-2.609375 2.078125 0 .703125.546875 1.09375 1.109375 1.09375.578125 0 1.125-.421875 1.515625-.765625.046875.75.484375.765625.6875.765625.15625 0 .484375-.015625.921875-.53125zm0 0"/></symbol><symbol id="m" overflow="visible"><path d="m.796875-.875c0 .578125-.171875.609375-.75.71875v.15625h2.515625v-.15625c-.53125-.015625-.890625-.0625-.890625-.78125v-2.359375c0-.328125.46875-.859375.71875-.859375s.359375.359375.71875.359375c.25 0 .390625-.1875.390625-.453125 0-.34375-.203125-.5625-.5625-.5625-.390625 0-.75.203125-1.234375.953125h-.03125v-.9375l-.046875-.015625c-.515625.203125-1.03125.390625-1.546875.5625v.171875c.09375-.03125.203125-.046875.34375-.046875.171875 0 .375.015625.375.625zm0 0"/></symbol><symbol id="n" overflow="visible"><path d="m7.40625-6.9375h-2.46875v.203125c.71875.0625 1.015625.140625 1.015625 1.34375v3.5h-.03125l-4-5.046875h-1.796875v.203125c.421875 0 .59375.0625 1.015625.578125v4.625c0 1.125-.21875 1.28125-1.015625 1.328125v.203125h2.453125v-.203125c-.75-.03125-.96875-.25-.96875-1.328125v-4.09375h.015625l4.609375 5.734375h.171875v-5.5c0-1.21875.328125-1.265625 1-1.34375zm0 0"/></symbol><symbol id="o" overflow="visible"><path d="m4.265625-1.71875c-.234375.390625-.6875 1.09375-1.609375 1.09375-.703125 0-1.546875-.421875-1.671875-2.28125h3.25c-.109375-1.359375-.859375-1.90625-1.84375-1.90625-.828125 0-2.125.640625-2.125 2.578125 0 1.484375.796875 2.34375 1.953125 2.34375 1.515625 0 2.109375-1.421875 2.21875-1.75zm-3.25-1.515625c.171875-.921875.578125-1.203125 1.15625-1.203125.828125 0 .921875.703125 1 1.203125zm0 0"/></symbol><symbol id="p" overflow="visible"><path d="m3.09375-7.078125c-1.625.96875-2.59375 2.53125-2.59375 4.328125 0 1.453125.34375 2.203125.859375 2.953125.40625.59375 1.09375 1.328125 1.703125 1.65625l.125-.171875c-1.78125-1.140625-1.78125-3.4375-1.78125-4.5 0-2.65625 1-3.484375 1.78125-4.09375zm0 0"/></symbol><symbol id="q" overflow="visible"><path d="m.390625 1.859375c1.625-.96875 2.59375-2.546875 2.59375-4.34375 0-1.4375-.34375-2.1875-.859375-2.953125-.390625-.578125-1.09375-1.3125-1.703125-1.640625l-.125.171875c1.78125 1.140625 1.78125 3.4375 1.78125 4.5 0 2.65625-1 3.46875-1.78125 4.09375zm0 0"/></symbol><symbol id="r" overflow="visible"><path d="m1.609375-3.375c.03125-.59375.703125-.78125 1.046875-.78125.9375 0 1.328125 1.078125 1.328125 2.046875 0 .703125-.171875 1.875-1.375 1.875-.265625 0-1-.125-1-.5zm-.890625 2.8125c0 .390625 1.109375.671875 1.625.671875 1.9375 0 2.5625-1.65625 2.5625-2.59375 0-1.125-.609375-2.328125-1.875-2.328125-.796875 0-1.34375.609375-1.40625.84375h-.015625v-3.15625l-.0625-.03125c-.5.1875-1.015625.328125-1.515625.46875v.171875c.0625-.015625.171875-.015625.234375-.015625.453125 0 .453125.21875.453125.53125zm0 0"/></symbol><symbol id="s" overflow="visible"><path d="m4.171875-1.640625c-.359375.546875-.75.984375-1.5.984375-.875 0-1.609375-.78125-1.609375-2 0-1.53125.96875-1.859375 1.359375-1.859375.546875 0 .609375.1875.6875.5l.0625.234375c.0625.234375.234375.5.515625.484375.3125-.015625.484375-.21875.484375-.46875 0-.1875-.140625-.5-.453125-.71875-.265625-.171875-.734375-.328125-1.109375-.328125-1.140625 0-2.34375.859375-2.34375 2.578125 0 1.65625 1.109375 2.34375 1.953125 2.34375s1.53125-.453125 2.09375-1.640625zm0 0"/></symbol><symbol id="t" overflow="visible"><path d="m3.5625-1.0625c-.09375.375-.5.625-.9375.625-.6875 0-1.4375-.59375-1.4375-2.140625 0-1.4375.703125-1.9375 1.296875-1.9375.484375 0 1 .328125 1.078125 1.046875zm1.578125.453125c-.703125.046875-.703125-.15625-.703125-.578125v-5.9375l-.046875-.03125c-.5.1875-1.015625.328125-1.546875.46875v.171875c.09375-.015625.1875-.015625.25-.015625.46875 0 .46875.21875.46875.53125v1.640625c-.34375-.3125-.65625-.453125-1.109375-.453125-1.171875 0-2.171875 1.203125-2.171875 2.578125 0 2.125 1.5 2.34375 1.90625 2.34375.78125 0 1.15625-.390625 1.34375-.671875h.03125v.640625l.03125.03125c.5625-.203125 1.046875-.375 1.546875-.546875zm0 0"/></symbol><path d="m67.492186 110.29094h47.382814v94.26172h-47.382814zm0 0" fill="#d7d7d7"/><path d="m20.589896.29100701h94.285194v94.28128999h-94.285194zm0 0" fill="none" stroke="#000" stroke-width=".582014"/><path d="m127.95323 79.314477-125.23053-62.84378" fill="none" stroke="#000" stroke-width="2.328055"/><path d="m1.570312 19.822187 3.171875-6.32031-4.742187 1.57031z"/><use height="100%" transform="translate(-93.871094 -134.7989)" width="100%" x="117.31087" xlink:href="#a" y="155.41479"/><use height="100%" transform="translate(-93.871094 -134.7989)" width="100%" x="120.22203" xlink:href="#b" y="158.90688"/><use height="100%" transform="translate(-93.871094 -134.7989)" width="100%" x="126.56132" xlink:href="#c" y="158.90688"/><use height="100%" transform="translate(-93.871094 -134.7989)" width="100%" x="130.17912" xlink:href="#d" y="158.90688"/><use height="100%" transform="translate(-93.871094 -134.7989)" width="100%" x="210.48683" xlink:href="#a" y="203.48802"/><use height="100%" transform="translate(-93.871094 -134.7989)" width="100%" x="213.3969" xlink:href="#b" y="206.979"/><use height="100%" transform="translate(-93.871094 -134.7989)" width="100%" x="219.73619" xlink:href="#e" y="206.979"/><use height="100%" transform="translate(-93.871094 -134.7989)" width="100%" x="222.00139" xlink:href="#f" y="206.979"/><path d="m162.01965.29100701h94.2891v94.28128999h-94.2891zm0 0" fill="none" stroke="#000" stroke-width=".582014"/><path d="m269.38298 79.314477-125.23053-62.84378" fill="none" stroke="#000" stroke-width="2.328055"/><path d="m143 19.822187 3.17188-6.32031-4.74219 1.57031z"/><use height="100%" transform="translate(-93.871094 -134.7989)" width="100%" x="258.74014" xlink:href="#a" y="155.41479"/><use height="100%" transform="translate(-93.871094 -134.7989)" width="100%" x="261.65021" xlink:href="#b" y="158.90688"/><use height="100%" transform="translate(-93.871094 -134.7989)" width="100%" x="267.9895" xlink:href="#c" y="158.90688"/><use height="100%" transform="translate(-93.871094 -134.7989)" width="100%" x="271.6073" xlink:href="#d" y="158.90688"/><use height="100%" transform="translate(-93.871094 -134.7989)" width="100%" x="351.91611" xlink:href="#a" y="203.48802"/><use height="100%" transform="translate(-93.871094 -134.7989)" width="100%" x="354.82727" xlink:href="#b" y="206.979"/><use height="100%" transform="translate(-93.871094 -134.7989)" width="100%" x="361.16656" xlink:href="#e" y="206.979"/><use height="100%" transform="translate(-93.871094 -134.7989)" width="100%" x="363.43176" xlink:href="#f" y="206.979"/><path d="m208.83607.72459701v93.64456999" style="fill:none;stroke:#000;stroke-width:1.164028;stroke-linecap:round;stroke-linejoin:round;stroke-dasharray:0 3.492083"/><g transform="translate(-93.871094 -134.7989)"><use height="100%" width="100%" x="306.32361" xlink:href="#a" y="180.27666"/><use height="100%" width="100%" x="309.23477" xlink:href="#g" y="183.76874"/><use height="100%" width="100%" x="312.40442" xlink:href="#h" y="183.76874"/><use height="100%" width="100%" x="316.47852" xlink:href="#i" y="183.76874"/><use height="100%" width="100%" x="318.74371" xlink:href="#e" y="183.76874"/><use height="100%" width="100%" x="321.00888" xlink:href="#j" y="183.76874"/><use height="100%" width="100%" x="274.02844" xlink:href="#k" y="221.55679"/><use height="100%" width="100%" x="279.69608" xlink:href="#l" y="221.55679"/><use height="100%" width="100%" x="284.34753" xlink:href="#m" y="221.55679"/><use height="100%" width="100%" x="318.41629" xlink:href="#n" y="221.55679"/><use height="100%" width="100%" x="325.98013" xlink:href="#o" y="221.55679"/><use height="100%" width="100%" x="330.63156" xlink:href="#l" y="221.55679"/><use height="100%" width="100%" x="335.28302" xlink:href="#m" y="221.55679"/></g><path d="m20.589896 110.32231h94.285194v94.28129h-94.285194zm0 0" fill="none" stroke="#000" stroke-width=".582014"/><path d="m127.95323 189.34578-125.23053-62.83988" fill="none" stroke="#000" stroke-width="2.328055"/><path d="m1.570312 129.85344 3.171875-6.32031-4.742187 1.57031z"/><use height="100%" transform="translate(-93.871094 -134.7989)" width="100%" x="117.31087" xlink:href="#a" y="265.44501"/><use height="100%" transform="translate(-93.871094 -134.7989)" width="100%" x="120.22203" xlink:href="#b" y="268.93707"/><use height="100%" transform="translate(-93.871094 -134.7989)" width="100%" x="126.56132" xlink:href="#c" y="268.93707"/><use height="100%" transform="translate(-93.871094 -134.7989)" width="100%" x="130.17912" xlink:href="#d" y="268.93707"/><use height="100%" transform="translate(-93.871094 -134.7989)" width="100%" x="144.05383" xlink:href="#a" y="297.89059"/><use height="100%" transform="translate(-93.871094 -134.7989)" width="100%" x="146.9639" xlink:href="#b" y="301.38269"/><use height="100%" transform="translate(-93.871094 -134.7989)" width="100%" x="153.30319" xlink:href="#e" y="301.38269"/><use height="100%" transform="translate(-93.871094 -134.7989)" width="100%" x="155.56839" xlink:href="#f" y="301.38269"/><path d="m67.406326 110.7559v93.64067" style="fill:none;stroke:#000;stroke-width:1.164028;stroke-linecap:round;stroke-linejoin:round;stroke-dasharray:0 3.492083"/><path d="m208.92188 110.29094h47.38281v94.26172h-47.38281zm0 0" fill="#d7d7d7"/><path d="m162.01965 110.31839h94.2891v94.28521h-94.2891zm0 0" fill="none" stroke="#000" stroke-width=".582014"/><path d="m269.38298 189.34578-125.23053-62.84378" fill="none" stroke="#000" stroke-width="2.328055"/><path d="m143 129.84954 3.17188-6.32032-4.74219 1.57422z"/><use height="100%" transform="translate(-93.871094 -134.7989)" width="100%" x="258.74014" xlink:href="#a" y="265.44501"/><use height="100%" transform="translate(-93.871094 -134.7989)" width="100%" x="261.65021" xlink:href="#b" y="268.93707"/><use height="100%" transform="translate(-93.871094 -134.7989)" width="100%" x="267.9895" xlink:href="#c" y="268.93707"/><use height="100%" transform="translate(-93.871094 -134.7989)" width="100%" x="271.6073" xlink:href="#d" y="268.93707"/><use height="100%" transform="translate(-93.871094 -134.7989)" width="100%" x="285.73788" xlink:href="#a" y="297.89059"/><use height="100%" transform="translate(-93.871094 -134.7989)" width="100%" x="288.64795" xlink:href="#b" y="301.38269"/><use height="100%" transform="translate(-93.871094 -134.7989)" width="100%" x="294.98724" xlink:href="#e" y="301.38269"/><use height="100%" transform="translate(-93.871094 -134.7989)" width="100%" x="297.25244" xlink:href="#f" y="301.38269"/><path d="m208.83607 110.7559v93.64067m-46.45704-61.51956h46.37501" style="fill:none;stroke:#000;stroke-width:1.164028;stroke-linecap:round;stroke-linejoin:round;stroke-dasharray:0 3.492083"/><use height="100%" transform="translate(-93.871094 -134.7989)" width="100%" x="260.04694" xlink:href="#a" y="285.39709"/><use height="100%" transform="translate(-93.871094 -134.7989)" width="100%" x="262.9581" xlink:href="#g" y="288.88916"/><use height="100%" transform="translate(-93.871094 -134.7989)" width="100%" x="266.12775" xlink:href="#h" y="288.88916"/><use height="100%" transform="translate(-93.871094 -134.7989)" width="100%" x="270.20184" xlink:href="#i" y="288.88916"/><use height="100%" transform="translate(-93.871094 -134.7989)" width="100%" x="272.46704" xlink:href="#e" y="288.88916"/><use height="100%" transform="translate(-93.871094 -134.7989)" width="100%" x="274.73224" xlink:href="#j" y="288.88916"/><path d="m22.832036 25.622967c0 1.28516-1.04297 2.32422-2.33204 2.32422-1.28515 0-2.32812-1.03906-2.32812-2.32422 0-1.28906 1.04297-2.32812 2.32812-2.32812 1.28907 0 2.33204 1.03906 2.33204 2.32812"/><path d="m117.14453 72.896407c0 1.28516-1.04296 2.33203-2.32421 2.33203-1.28907 0-2.32813-1.04687-2.32813-2.33203 0-1.28515 1.03906-2.32812 2.32813-2.32812 1.28125 0 2.32421 1.04297 2.32421 2.32812"/><path d="m22.773436 135.58782c0 1.28515-1.04297 2.32812-2.33203 2.32812-1.28125 0-2.32422-1.04297-2.32422-2.32812 0-1.28516 1.04297-2.32422 2.32422-2.32422 1.28906 0 2.33203 1.03906 2.33203 2.32422"/><path d="m70.007816 159.10344c0 1.28516-1.04297 2.32813-2.32813 2.32813s-2.32812-1.04297-2.32812-2.32813c0-1.28515 1.04296-2.32812 2.32812-2.32812s2.32813 1.04297 2.32813 2.32812"/><path d="m117.04688 182.8261c0 1.28906-1.03906 2.32812-2.32813 2.32812-1.28125 0-2.32812-1.03906-2.32812-2.32812 0-1.28516 1.04687-2.32813 2.32812-2.32813 1.28907 0 2.32813 1.04297 2.32813 2.32813"/><path d="m164.29688 135.65422c0 1.28125-1.03906 2.32422-2.32813 2.32422-1.28515 0-2.32812-1.04297-2.32812-2.32422 0-1.28906 1.04297-2.33203 2.32812-2.33203 1.28907 0 2.32813 1.04297 2.32813 2.33203"/><path d="m179.37891 143.12297c0 1.28125-1.04297 2.32422-2.32813 2.32422-1.28515 0-2.33203-1.04297-2.33203-2.32422 0-1.28906 1.04688-2.33203 2.33203-2.33203 1.28516 0 2.32813 1.04297 2.32813 2.33203"/><path d="m211.36328 159.04094c0 1.28516-1.04296 2.32813-2.32421 2.32813-1.28907 0-2.33204-1.04297-2.33204-2.32813 0-1.28515 1.04297-2.32812 2.33204-2.32812 1.28125 0 2.32421 1.04297 2.32421 2.32812"/><path d="m164.22657 25.669847c0 1.28906-1.04297 2.32812-2.33204 2.32812-1.28125 0-2.32812-1.03906-2.32812-2.32812 0-1.28516 1.04687-2.32422 2.32812-2.32422 1.28907 0 2.33204 1.03906 2.33204 2.32422"/><path d="m211.44141 49.025317c0 1.28515-1.04297 2.32812-2.32813 2.32812-1.28906 0-2.33203-1.04297-2.33203-2.32812 0-1.28906 1.04297-2.32813 2.33203-2.32813 1.28516 0 2.32813 1.03907 2.32813 2.32813"/><path d="m258.51172 72.740157c0 1.28906-1.04297 2.33203-2.32812 2.33203-1.28907 0-2.32813-1.04297-2.32813-2.33203 0-1.28125 1.03906-2.32812 2.32813-2.32812 1.28515 0 2.32812 1.04687 2.32812 2.32812"/><use height="100%" transform="translate(-93.871094 -134.7989)" width="100%" x="93.869995" xlink:href="#p" y="236.94061"/><use height="100%" transform="translate(-93.871094 -134.7989)" width="100%" x="97.358582" xlink:href="#l" y="236.94061"/><use height="100%" transform="translate(-93.871094 -134.7989)" width="100%" x="102.01003" xlink:href="#q" y="236.94061"/><use height="100%" transform="translate(-93.871094 -134.7989)" width="100%" x="235.29927" xlink:href="#p" y="236.94061"/><use height="100%" transform="translate(-93.871094 -134.7989)" width="100%" x="238.78787" xlink:href="#r" y="236.94061"/><use height="100%" transform="translate(-93.871094 -134.7989)" width="100%" x="244.02599" xlink:href="#q" y="236.94061"/><use height="100%" transform="translate(-93.871094 -134.7989)" width="100%" x="93.869995" xlink:href="#p" y="346.29166"/><use height="100%" transform="translate(-93.871094 -134.7989)" width="100%" x="97.358582" xlink:href="#s" y="346.29166"/><use height="100%" transform="translate(-93.871094 -134.7989)" width="100%" x="102.01003" xlink:href="#q" y="346.29166"/><use height="100%" transform="translate(-93.871094 -134.7989)" width="100%" x="235.29927" xlink:href="#p" y="346.29166"/><use height="100%" transform="translate(-93.871094 -134.7989)" width="100%" x="238.78787" xlink:href="#t" y="346.29166"/><use height="100%" transform="translate(-93.871094 -134.7989)" width="100%" x="244.02599" xlink:href="#q" y="346.29166"/></svg>