<svg height="178.96446pt" viewBox="0 0 404.9593 178.96447" width="404.95929pt" xmlns="http://www.w3.org/2000/svg" xmlns:xlink="http://www.w3.org/1999/xlink"><marker id="a" orient="auto" overflow="visible" refX="0" refY="0"><path d="m0 0 5-5-17.5 5 17.5 5z" fill-rule="evenodd" stroke="#000" stroke-width="1pt" transform="matrix(-.4 0 0 -.4 -4 0)"/></marker><marker id="b" orient="auto" overflow="visible" refX="0" refY="0"><path d="m0 0 5-5-17.5 5 17.5 5z" fill-rule="evenodd" stroke="#000" stroke-width="1pt" transform="matrix(-.4 0 0 -.4 -4 0)"/></marker><marker id="c" orient="auto" overflow="visible" refX="0" refY="0"><path d="m0 0 5-5-17.5 5 17.5 5z" fill-rule="evenodd" stroke="#000" stroke-width="1pt" transform="matrix(-.4 0 0 -.4 -4 0)"/></marker><marker id="d" orient="auto" overflow="visible" refX="0" refY="0"><path d="m0 0 5-5-17.5 5 17.5 5z" fill-rule="evenodd" stroke="#000" stroke-width="1pt" transform="matrix(-.4 0 0 -.4 -4 0)"/></marker><marker id="e" orient="auto" overflow="visible" refX="0" refY="0"><path d="m0 0 5-5-17.5 5 17.5 5z" fill-rule="evenodd" stroke="#000" stroke-width="1pt" transform="matrix(-.4 0 0 -.4 -4 0)"/></marker><marker id="f" orient="auto" overflow="visible" refX="0" refY="0"><path d="m0 0 5-5-17.5 5 17.5 5z" fill-rule="evenodd" stroke="#000" stroke-width="1pt" transform="matrix(-.4 0 0 -.4 -4 0)"/></marker><symbol id="g" overflow="visible"><path d="m.25 1.75c-.136719 0-.24609375-.039062-.328125-.109375-.082031-.0625-.125-.15625-.125-.28125 0-.085937.03125-.15625.09375-.21875s.1328125-.09375.21875-.09375c.113281 0 .203125.03125.265625.09375.132812.132813.253906.171875.359375.109375.113281-.054688.300781-.234375.5625-.546875l.328125-.4375c.039062-.054687.066406-.117187.078125-.1875.019531-.0625.023437-.1171875.015625-.171875-.117188-.6875-.234375-1.273438-.359375-1.765625-.09375-.34375-.214844-.71875-.359375-1.125-.074219-.207031-.179688-.34375-.3125-.40625-.125-.0625-.320312-.0625-.578125 0v-.140625l.59375-.109375.609375-.109375c.050781 0 .085938.023438.109375.0625.019531.03125.050781.109375.09375.234375.207031.605469.363281 1.136719.46875 1.59375.09375.367187.171875.789063.234375 1.265625.070312-.09375.132812-.1875.1875-.28125.1875-.3125.367188-.648438.546875-1.015625.1875-.40625.285156-.6875.296875-.84375.019531-.164063-.042969-.289063-.1875-.375l-.046875-.03125c-.125-.070313-.1875-.164063-.1875-.28125 0-.09375.03125-.171875.09375-.234375.070313-.0625.148437-.09375.234375-.09375.3125 0 .460938.183594.453125.546875-.011719.355469-.179687.839844-.5 1.453125-.15625.3125-.320313.605469-.484375.875-.136719.230469-.292969.464844-.46875.703125-.429688.625-.804688 1.097656-1.125 1.421875-.324219.332031-.585938.5-.78125.5zm0 0"/></symbol><symbol id="h" overflow="visible"><path d="m.90625-.703125.765625-1.109375-.265625-1.125c-.054688-.195312-.105469-.328125-.15625-.390625-.054688-.0625-.125-.09375-.21875-.09375-.0625 0-.132812.00781-.203125.015625-.074219.011719-.164063.03125-.265625.0625l-.03125-.125c.289062-.09375.519531-.160156.6875-.203125.164062-.050781.296875-.078125.390625-.078125.101563 0 .1875.046875.25.140625.0625.085937.117187.242187.171875.46875l.140625.609375.359375-.515625c.15625-.226563.3125-.398437.46875-.515625.15625-.125.296875-.1875.421875-.1875.144531 0 .25.042969.3125.125.0625.085938.078125.1875.046875.3125-.011719.054688-.042969.101562-.09375.140625-.054688.03125-.109375.046875-.171875.046875h-.015625c-.085938 0-.164062-.019531-.234375-.0625-.074219-.050781-.148437-.078125-.21875-.078125-.042969 0-.09375.027344-.15625.078125-.054687.054688-.121094.136719-.203125.25l-.453125.671875.359375 1.578125c.019531.105469.050781.183594.09375.234375.039062.054687.09375.078125.15625.078125s.132812-.039062.21875-.125c.09375-.09375.207031-.238281.34375-.4375l.140625.0625c-.21875.34375-.414063.59375-.578125.75-.15625.1445312-.320312.21875-.484375.21875-.117187 0-.210937-.0429688-.28125-.125-.074219-.09375-.140625-.253906-.203125-.484375l-.265625-1.046875-.65625.953125c-.167969.242187-.324219.417969-.46875.53125-.148437.1132812-.289063.171875-.421875.171875-.15625 0-.2695312-.0429688-.34375-.125-.082031-.09375-.101562-.207031-.0625-.34375.011719-.050781.046875-.09375.109375-.125.0546875-.039062.109375-.0625.171875-.0625.070312 0 .15625.027344.25.078125.09375.054687.175781.078125.25.078125.03125 0 .082031-.023438.15625-.078125.0625-.0625.125-.132813.1875-.21875zm0 0"/></symbol><g fill="none" stroke="#000"><path d="m9.71106.23609979h76.49612v76.49612421h-76.49612zm0 0" stroke-width=".4722"/><path d="m22.46105 19.3611h6.37501v6.375h-6.37501zm0 0" stroke-width=".4722"/><path d="m41.58216 12.98609c0 3.52345-2.85157 6.37501-6.3711 6.37501-3.52344 0-6.375-2.85156-6.375-6.37501 0-3.5195202 2.85156-6.3749902 6.375-6.3749902 3.51953 0 6.3711 2.85547 6.3711 6.3749902zm0 0" stroke-width=".4722"/><path d="m73.45718 22.21658-6.37501 9.89453h12.75zm0 0" stroke-width=".4722"/><path d="m40.67591 52.32986-18.03516 18.027354-6.9961-6.99218 18.03126-18.031264zm0 0" stroke-width=".4722"/><path d="m92.58218 38.48611h17.26173" stroke-width=".4722"/></g><path d="m109.28515 35.81416v5.3789l2.6875-2.6914z"/><path d="m118.07829.23609979h76.50003v76.49612421h-76.50003zm0 0" fill="none" stroke="#000" stroke-width=".4722"/><path d="m130.8322 19.3611h6.37501v6.375h-6.37501zm0 0" fill="none" stroke="#000" stroke-width=".4722"/><path d="m149.9533 12.98609c0 3.52345-2.85546 6.37501-6.375 6.37501-3.51953 0-6.37109-2.85156-6.37109-6.37501 0-3.5195202 2.85156-6.3749902 6.37109-6.3749902 3.51954 0 6.375 2.85547 6.375 6.3749902zm0 0" fill="none" stroke="#000" stroke-width=".4722"/><path d="m181.82441 22.21658-6.3711 9.89453h12.75001zm0 0" fill="none" stroke="#000" stroke-width=".4722"/><path d="m149.04315 52.32986-18.03126 18.027354-6.99609-6.99218 18.03125-18.031264zm0 0" fill="none" stroke="#000" stroke-width=".4722"/><path d="m200.95332 38.48611h17.25783" fill="none" stroke="#000" stroke-width=".4722"/><path d="m217.65234 35.81416v5.3789l2.69141-2.6914z"/><path d="m9.71106 102.23224h76.49612v76.49612h-76.49612zm0 0" fill="none" stroke="#000" stroke-width=".4722"/><path d="m22.46105 121.35334h6.37501v6.375h-6.37501zm0 0" fill="none" stroke="#000" stroke-width=".4722"/><path d="m41.58216 114.98224c0 3.51953-2.85157 6.3711-6.3711 6.3711-3.52344 0-6.375-2.85157-6.375-6.3711s2.85156-6.3711 6.375-6.3711c3.51953 0 6.3711 2.85157 6.3711 6.3711zm0 0" fill="none" stroke="#000" stroke-width=".4722"/><path d="m73.45718 124.21271-6.37501 9.89453h12.75zm0 0" fill="none" stroke="#000" stroke-width=".4722"/><path d="m40.67591 154.3221-18.03516 18.03516-6.9961-7 18.03126-18.03126zm0 0" fill="none" stroke="#000" stroke-width=".4722"/><path d="m92.58218 140.48225h17.26173" fill="none" stroke="#000" stroke-width=".4722"/><path d="m109.28515 137.80635v5.38281l2.6875-2.69141z"/><path d="m118.07829 102.23224h76.50003v76.49612h-76.50003zm0 0" fill="none" stroke="#000" stroke-width=".4722"/><path d="m130.8322 121.35334h6.37501v6.375h-6.37501zm0 0" fill="none" stroke="#000" stroke-width=".4722"/><path d="m149.9533 114.98224c0 3.51953-2.85546 6.3711-6.375 6.3711-3.51953 0-6.37109-2.85157-6.37109-6.3711s2.85156-6.3711 6.37109-6.3711c3.51954 0 6.375 2.85157 6.375 6.3711zm0 0" fill="none" stroke="#000" stroke-width=".4722"/><path d="m181.82441 124.21271-6.3711 9.89453h12.75001zm0 0" fill="none" stroke="#000" stroke-width=".4722"/><path d="m149.04315 154.3221-18.03126 18.03516-6.99609-7 18.03125-18.03126zm0 0" fill="none" stroke="#000" stroke-width=".4722"/><path d="m2.67199 58.322054v25.50001h25.50391" fill="none" stroke="#000" stroke-width=".4722"/><path d="m27.61718 81.150104v5.375l2.6875-2.6875z"/><path d="m0 58.880564h5.3789l-2.6914-2.6875z"/><use fill="#211e1e" height="100%" transform="translate(-252.87891 -133.85381)" width="100%" x="253.75569" xlink:href="#g" y="186.8084"/><use fill="#211e1e" height="100%" transform="translate(-252.87891 -133.85381)" width="100%" x="285.1528" xlink:href="#h" y="219.18292"/><path d="m175.45331.23609979v76.49612421m-108.37114 25.500016v76.49612m0-31.87111h-57.37111m165.74225-44.62501v76.49612m0-31.87111h-57.37502m31.87111-44.62501v44.62501" style="fill:none;stroke:#000;stroke-width:.9444;stroke-linecap:round;stroke-linejoin:round;stroke-dasharray:0 2.833199"/><g transform="translate(30.98643)"><path d="m280.06415 5.442193h52.74868v19.323772h-52.74868z" fill="#ccc" stroke="#000" stroke-linecap="round" stroke-width=".751181"/><text font-family="sans-serif" font-size="12" letter-spacing="0" stroke-width=".75" word-spacing="0" x="289.75684" y="19.151627"><tspan stroke-width=".75" x="289.75684" y="19.151627">x: 0.7</tspan></text></g><path d="m380.06489 55.353763-6.3711 9.894531h12.75001zm0 0" fill="none" stroke="#000" stroke-width=".4722"/><path d="m329.72151 24.89654-26.37435 26.37433" fill="none" marker-end="url(#f)" stroke="#000" stroke-width=".75"/><path d="m346.95967 24.89654 26.37435 26.37433" fill="none" marker-end="url(#e)" stroke="#000" stroke-width=".75"/><g transform="translate(-35.07998)"><path d="m309.39667 53.150547h52.74868v19.323772h-52.74868z" fill="#ccc" stroke="#000" stroke-linecap="round" stroke-width=".751181"/><text font-family="sans-serif" font-size="12" letter-spacing="0" stroke-width=".75" word-spacing="0" x="319.34424" y="66.859985"><tspan stroke-width=".75" x="319.34424" y="66.859985">y: 0.4</tspan></text></g><path d="m267.07049 105.00121-18.03516 18.03516-6.9961-7 18.03126-18.031255zm0 0" fill="none" stroke="#000" stroke-width=".4722"/><path d="m291.85736 72.683703-26.37435 26.374338" fill="none" marker-end="url(#d)" stroke="#000" stroke-width=".75"/><path d="m309.09552 72.683703 26.37435 26.374338" fill="none" marker-end="url(#c)" stroke="#000" stroke-width=".75"/><text font-family="sans-serif" font-size="10" letter-spacing="0" stroke-width=".75" word-spacing="0" x="365.17993" y="39.625797"><tspan font-size="10" stroke-width=".75" x="365.17993" y="39.625797">R</tspan></text><text font-family="sans-serif" font-size="10" letter-spacing="0" stroke-width=".75" word-spacing="0" x="327.05466" y="86.107307"><tspan font-size="10" stroke-width=".75" x="327.05466" y="86.107307">R</tspan></text><g transform="translate(-18.1064)"><g fill="none" stroke="#000" stroke-width=".4722" transform="translate(-29.822776 36.713759)"><path d="m336.43943 124.69899h6.37501v6.375h-6.37501zm0 0"/><path d="m355.56053 118.32789c0 3.51953-2.85546 6.3711-6.375 6.3711-3.51953 0-6.37109-2.85157-6.37109-6.3711s2.85156-6.3711 6.37109-6.3711c3.51954 0 6.375 2.85157 6.375 6.3711zm0 0"/></g><text font-family="sans-serif" font-size="12" letter-spacing="0" stroke-width=".75" word-spacing="0" x="376.23758" y="161.99088"><tspan stroke-width=".75" x="376.23758" y="161.99088">(empty)</tspan></text><g transform="translate(-8.095093)"><path d="m342.15463 100.8589h52.74868v19.323772h-52.74868z" fill="#ccc" stroke="#000" stroke-linecap="round" stroke-width=".751181"/><text font-family="sans-serif" font-size="12" letter-spacing="0" stroke-width=".75" word-spacing="0" x="351.81509" y="114.56834"><tspan stroke-width=".75" x="351.81509" y="114.56834">x: 0.3</tspan></text></g><g fill="none" stroke="#000" stroke-width=".75"><path d="m351.48376 120.20973-26.37435 26.37434" marker-end="url(#b)"/><path d="m368.72192 120.20973 26.37435 26.37434" marker-end="url(#a)"/></g></g><text font-family="sans-serif" font-size="10" letter-spacing="0" stroke-width=".75" word-spacing="0" x="369.35806" y="134.15561"><tspan font-size="10" stroke-width=".75" x="369.35806" y="134.15561">R</tspan></text><text font-family="sans-serif" font-size="10" letter-spacing="0" stroke-width=".75" word-spacing="0" x="308.25317" y="134.15561"><tspan font-size="10" stroke-width=".75" x="308.25317" y="134.15561">L</tspan></text><text font-family="sans-serif" font-size="10" letter-spacing="0" stroke-width=".75" word-spacing="0" x="265.94977" y="84.018257"><tspan font-size="10" stroke-width=".75" x="265.94977" y="84.018257">L</tspan></text><text font-family="sans-serif" font-size="10" letter-spacing="0" stroke-width=".75" word-spacing="0" x="265.94977" y="84.018257"><tspan font-size="10" stroke-width=".75" x="265.94977" y="84.018257">L</tspan></text><text font-family="sans-serif" font-size="10" letter-spacing="0" stroke-width=".75" word-spacing="0" x="305.11957" y="40.148067"><tspan font-size="10" stroke-width=".75" x="305.11957" y="40.148067">L</tspan></text></svg>