<svg height="120.25906mm" viewBox="0 0 156.58488 120.25906" width="156.58488mm" xmlns="http://www.w3.org/2000/svg" xmlns:xlink="http://www.w3.org/1999/xlink"><marker id="a" orient="auto" overflow="visible" refX="0" refY="0"><path d="m0 0 5-5-17.5 5 17.5 5z" fill-rule="evenodd" stroke="#000" stroke-width="1pt" transform="matrix(-.4 0 0 -.4 -4 0)"/></marker><marker id="b" orient="auto" overflow="visible" refX="0" refY="0"><path d="m0 0 5-5-17.5 5 17.5 5z" fill-rule="evenodd" stroke="#000" stroke-width="1pt" transform="matrix(-.4 0 0 -.4 -4 0)"/></marker><marker id="c" orient="auto" overflow="visible" refX="0" refY="0"><path d="m0 0 5-5-17.5 5 17.5 5z" fill-rule="evenodd" stroke="#000" stroke-width="1pt" transform="matrix(-.4 0 0 -.4 -4 0)"/></marker><marker id="d" orient="auto" overflow="visible" refX="0" refY="0"><path d="m0 0 5-5-17.5 5 17.5 5z" fill-rule="evenodd" stroke="#000" stroke-width="1pt" transform="matrix(-.4 0 0 -.4 -4 0)"/></marker><marker id="e" orient="auto" overflow="visible" refX="0" refY="0"><path d="m0 0 5-5-17.5 5 17.5 5z" fill-rule="evenodd" stroke="#000" stroke-width="1pt" transform="matrix(-.4 0 0 -.4 -4 0)"/></marker><g transform="translate(-13.687601 -56.749874)"><g fill="#fff"><path d="m14.88638 78.921127h8v8h-8z" stroke="#000" stroke-linecap="round" stroke-width=".235"/><path d="m22.886379 78.921127h8v8h-8z" stroke="#000" stroke-linecap="round" stroke-width=".235"/><path d="m30.886379 78.921127h8v8h-8z" stroke="#000" stroke-linecap="round" stroke-width=".235"/><path d="m38.886379 78.921127h8v8h-8z" stroke="#000" stroke-linecap="round" stroke-width=".235"/><path d="m46.886379 78.921127h8v8h-8z" stroke="#000" stroke-linecap="round" stroke-width=".235"/><path d="m54.886379 78.921127h8v8h-8z" stroke="#000" stroke-linecap="round" stroke-width=".235"/><path d="m62.886379 78.921127h8v8h-8z" stroke="#000" stroke-linecap="round" stroke-width=".235"/><path d="m70.886383 78.921127h8v8h-8z" stroke="#000" stroke-linecap="round" stroke-width=".235"/><path d="m78.886383 78.921127h8v8h-8z" stroke="#000" stroke-linecap="round" stroke-width=".235"/><path d="m86.886383 78.921127h8v8h-8z" stroke="#000" stroke-linecap="round" stroke-width=".235"/><path d="m94.886383 78.921127h8v8h-8z" stroke="#000" stroke-linecap="round" stroke-width=".235"/><path d="m102.88638 78.921127h8v8h-8z" stroke="#000" stroke-linecap="round" stroke-width=".235"/><path d="m110.88638 78.921127h8v8h-8z" stroke="#000" stroke-linecap="round" stroke-width=".235"/><path d="m118.88638 78.921127h8v8h-8z" stroke="#000" stroke-linecap="round" stroke-width=".235"/><path d="m126.88638 78.921127h8v8h-8z" stroke="#000" stroke-linecap="round" stroke-width=".235"/></g><text font-family="sans-serif" font-size="6.35" letter-spacing="0" stroke-width=".264583" word-spacing="0" x="17.038431" y="85.288422"><tspan stroke-width=".264583" x="17.038431" y="85.288422">a</tspan></text><text font-family="sans-serif" font-size="6.35" letter-spacing="0" stroke-width=".264583" word-spacing="0" x="25.028566" y="85.288422"><tspan stroke-width=".264583" x="25.028566" y="85.288422">a</tspan></text><text font-family="sans-serif" font-size="6.35" letter-spacing="0" stroke-width=".264583" word-spacing="0" x="33.142727" y="85.288422"><tspan stroke-width=".264583" x="33.142727" y="85.288422">c</tspan></text><text font-family="sans-serif" font-size="6.35" letter-spacing="0" stroke-width=".264583" word-spacing="0" x="41.008842" y="85.288422"><tspan stroke-width=".264583" x="41.008842" y="85.288422">a</tspan></text><text font-family="sans-serif" font-size="6.35" letter-spacing="0" stroke-width=".264583" word-spacing="0" x="48.998978" y="85.288422"><tspan stroke-width=".264583" x="48.998978" y="85.288422">a</tspan></text><text font-family="sans-serif" font-size="6.35" letter-spacing="0" stroke-width=".264583" word-spacing="0" x="57.113136" y="85.288422"><tspan stroke-width=".264583" x="57.113136" y="85.288422">c</tspan></text><text font-family="sans-serif" font-size="6.35" letter-spacing="0" stroke-width=".264583" word-spacing="0" x="64.979248" y="85.288422"><tspan stroke-width=".264583" x="64.979248" y="85.288422">a</tspan></text><text font-family="sans-serif" font-size="6.35" letter-spacing="0" stroke-width=".264583" word-spacing="0" x="72.687225" y="85.288422"><tspan stroke-width=".264583" x="72.687225" y="85.288422">b</tspan></text><text font-family="sans-serif" font-size="6.35" letter-spacing="0" stroke-width=".264583" word-spacing="0" x="81.083549" y="85.288422"><tspan stroke-width=".264583" x="81.083549" y="85.288422">c</tspan></text><text font-family="sans-serif" font-size="6.35" letter-spacing="0" stroke-width=".264583" word-spacing="0" x="88.949661" y="85.288422"><tspan stroke-width=".264583" x="88.949661" y="85.288422">a</tspan></text><text font-family="sans-serif" font-size="6.35" letter-spacing="0" stroke-width=".264583" word-spacing="0" x="96.657646" y="85.288422"><tspan stroke-width=".264583" x="96.657646" y="85.288422">b</tspan></text><text font-family="sans-serif" font-size="6.35" letter-spacing="0" stroke-width=".264583" word-spacing="0" x="104.92993" y="85.288422"><tspan stroke-width=".264583" x="104.92993" y="85.288422">a</tspan></text><text font-family="sans-serif" font-size="6.35" letter-spacing="0" stroke-width=".264583" word-spacing="0" x="112.92007" y="85.288422"><tspan stroke-width=".264583" x="112.92007" y="85.288422">a</tspan></text><text font-family="sans-serif" font-size="6.35" letter-spacing="0" stroke-width=".264583" word-spacing="0" x="120.9102" y="85.288422"><tspan stroke-width=".264583" x="120.9102" y="85.288422">a</tspan></text><text font-family="sans-serif" font-size="6.35" letter-spacing="0" stroke-width=".264583" word-spacing="0" x="129.02437" y="85.288422"><tspan stroke-width=".264583" x="129.02437" y="85.288422">c</tspan></text><path d="m14.88638 78.921127h8v8h-8z" fill="#dbe3de" stroke="#000" stroke-linecap="round" stroke-width=".235"/><path d="m22.886379 78.921127h8v8h-8z" fill="#fff" stroke="#000" stroke-linecap="round" stroke-width=".235"/><path d="m30.886379 78.921127h8v8h-8z" fill="#fff" stroke="#000" stroke-linecap="round" stroke-width=".235"/><path d="m38.886379 78.921127h8v8h-8z" fill="#fff" stroke="#000" stroke-linecap="round" stroke-width=".235"/><path d="m46.886379 78.921127h8v8h-8z" fill="#fff" stroke="#000" stroke-linecap="round" stroke-width=".235"/><path d="m54.886379 78.921127h8v8h-8z" fill="#fff" stroke="#000" stroke-linecap="round" stroke-width=".235"/><path d="m62.886379 78.921127h8v8h-8z" fill="#fff" stroke="#000" stroke-linecap="round" stroke-width=".235"/><path d="m70.886383 78.921127h8v8h-8z" fill="#fff" stroke="#000" stroke-linecap="round" stroke-width=".235"/><path d="m78.886383 78.921127h8v8h-8z" fill="#fff" stroke="#000" stroke-linecap="round" stroke-width=".235"/><path d="m86.886383 78.921127h8v8h-8z" fill="#fff" stroke="#000" stroke-linecap="round" stroke-width=".235"/><path d="m94.886383 78.921127h8v8h-8z" fill="#fff" stroke="#000" stroke-linecap="round" stroke-width=".235"/><path d="m102.88638 78.921127h8v8h-8z" fill="#fff" stroke="#000" stroke-linecap="round" stroke-width=".235"/><path d="m110.88638 78.921127h8v8h-8z" fill="#fff" stroke="#000" stroke-linecap="round" stroke-width=".235"/><path d="m118.88638 78.921127h8v8h-8z" fill="#fff" stroke="#000" stroke-linecap="round" stroke-width=".235"/><path d="m126.88638 78.921127h8v8h-8z" fill="#fff" stroke="#000" stroke-linecap="round" stroke-width=".235"/><text font-family="sans-serif" font-size="6.35" letter-spacing="0" stroke-width=".264583" word-spacing="0" x="17.038431" y="85.288422"><tspan stroke-width=".264583" x="17.038431" y="85.288422">a</tspan></text><text font-family="sans-serif" font-size="6.35" letter-spacing="0" stroke-width=".264583" word-spacing="0" x="25.028566" y="85.288422"><tspan stroke-width=".264583" x="25.028566" y="85.288422">a</tspan></text><text font-family="sans-serif" font-size="6.35" letter-spacing="0" stroke-width=".264583" word-spacing="0" x="33.142727" y="85.288422"><tspan stroke-width=".264583" x="33.142727" y="85.288422">c</tspan></text><text font-family="sans-serif" font-size="6.35" letter-spacing="0" stroke-width=".264583" word-spacing="0" x="41.008842" y="85.288422"><tspan stroke-width=".264583" x="41.008842" y="85.288422">a</tspan></text><text font-family="sans-serif" font-size="6.35" letter-spacing="0" stroke-width=".264583" word-spacing="0" x="48.998978" y="85.288422"><tspan stroke-width=".264583" x="48.998978" y="85.288422">c</tspan></text><text font-family="sans-serif" font-size="6.35" letter-spacing="0" stroke-width=".264583" word-spacing="0" x="57.113136" y="85.288422"><tspan stroke-width=".264583" x="57.113136" y="85.288422">a</tspan></text><text font-family="sans-serif" font-size="6.35" letter-spacing="0" stroke-width=".264583" word-spacing="0" x="64.979248" y="85.288422"><tspan stroke-width=".264583" x="64.979248" y="85.288422">a</tspan></text><text font-family="sans-serif" font-size="6.35" letter-spacing="0" stroke-width=".264583" word-spacing="0" x="72.687225" y="85.288422"><tspan stroke-width=".264583" x="72.687225" y="85.288422">b</tspan></text><text font-family="sans-serif" font-size="6.35" letter-spacing="0" stroke-width=".264583" word-spacing="0" x="81.083549" y="85.288422"><tspan stroke-width=".264583" x="81.083549" y="85.288422">a</tspan></text><text font-family="sans-serif" font-size="6.35" letter-spacing="0" stroke-width=".264583" word-spacing="0" x="88.949661" y="85.288422"><tspan stroke-width=".264583" x="88.949661" y="85.288422">c</tspan></text><text font-family="sans-serif" font-size="6.35" letter-spacing="0" stroke-width=".264583" word-spacing="0" x="96.657646" y="85.288422"><tspan stroke-width=".264583" x="96.657646" y="85.288422">b</tspan></text><text font-family="sans-serif" font-size="6.35" letter-spacing="0" stroke-width=".264583" word-spacing="0" x="104.92993" y="85.288422"><tspan stroke-width=".264583" x="104.92993" y="85.288422">a</tspan></text><text font-family="sans-serif" font-size="6.35" letter-spacing="0" stroke-width=".264583" word-spacing="0" x="112.92007" y="85.288422"><tspan stroke-width=".264583" x="112.92007" y="85.288422">a</tspan></text><text font-family="sans-serif" font-size="6.35" letter-spacing="0" stroke-width=".264583" word-spacing="0" x="120.9102" y="85.288422"><tspan stroke-width=".264583" x="120.9102" y="85.288422">a</tspan></text><text font-family="sans-serif" font-size="6.35" letter-spacing="0" stroke-width=".264583" word-spacing="0" x="129.02437" y="85.288422"><tspan stroke-width=".264583" x="129.02437" y="85.288422">c</tspan></text><path d="m14.88638 93.453911h8v8h-8z" fill="#ddafe9" stroke="#000" stroke-linecap="round" stroke-width=".235"/><path d="m22.886379 93.453911h8v8h-8z" fill="#d5fff6" stroke="#000" stroke-linecap="round" stroke-width=".235"/><path d="m30.886379 93.453911h8v8h-8z" fill="#dbe3de" stroke="#000" stroke-linecap="round" stroke-width=".235"/><path d="m38.886379 93.453911h8v8h-8z" fill="#fff" stroke="#000" stroke-linecap="round" stroke-width=".235"/><path d="m46.886379 93.453911h8v8h-8z" fill="#fff" stroke="#000" stroke-linecap="round" stroke-width=".235"/><path d="m54.886379 93.453911h8v8h-8z" fill="#fff" stroke="#000" stroke-linecap="round" stroke-width=".235"/><path d="m62.886379 93.453911h8v8h-8z" fill="#fff" stroke="#000" stroke-linecap="round" stroke-width=".235"/><path d="m70.886383 93.453911h8v8h-8z" fill="#fff" stroke="#000" stroke-linecap="round" stroke-width=".235"/><path d="m78.886383 93.453911h8v8h-8z" fill="#fff" stroke="#000" stroke-linecap="round" stroke-width=".235"/><path d="m86.886383 93.453911h8v8h-8z" fill="#fff" stroke="#000" stroke-linecap="round" stroke-width=".235"/><path d="m94.886383 93.453911h8v8h-8z" fill="#fff" stroke="#000" stroke-linecap="round" stroke-width=".235"/><path d="m102.88638 93.453911h8v8h-8z" fill="#fff" stroke="#000" stroke-linecap="round" stroke-width=".235"/><path d="m110.88638 93.453911h8v8h-8z" fill="#fff" stroke="#000" stroke-linecap="round" stroke-width=".235"/><path d="m118.88638 93.453911h8v8h-8z" fill="#fff" stroke="#000" stroke-linecap="round" stroke-width=".235"/><path d="m126.88638 93.453911h8v8h-8z" fill="#fff" stroke="#000" stroke-linecap="round" stroke-width=".235"/><text font-family="sans-serif" font-size="6.35" letter-spacing="0" stroke-width=".264583" word-spacing="0" x="17.038431" y="99.821205"><tspan stroke-width=".264583" x="17.038431" y="99.821205">a</tspan></text><text font-family="sans-serif" font-size="6.35" letter-spacing="0" stroke-width=".264583" word-spacing="0" x="25.028566" y="99.821205"><tspan stroke-width=".264583" x="25.028566" y="99.821205">a</tspan></text><text font-family="sans-serif" font-size="6.35" letter-spacing="0" stroke-width=".264583" word-spacing="0" x="33.142727" y="99.821205"><tspan stroke-width=".264583" x="33.142727" y="99.821205">c</tspan></text><text font-family="sans-serif" font-size="6.35" letter-spacing="0" stroke-width=".264583" word-spacing="0" x="41.008842" y="99.821205"><tspan stroke-width=".264583" x="41.008842" y="99.821205">a</tspan></text><text font-family="sans-serif" font-size="6.35" letter-spacing="0" stroke-width=".264583" word-spacing="0" x="48.998978" y="99.821205"><tspan stroke-width=".264583" x="48.998978" y="99.821205">c</tspan></text><text font-family="sans-serif" font-size="6.35" letter-spacing="0" stroke-width=".264583" word-spacing="0" x="57.113136" y="99.821205"><tspan stroke-width=".264583" x="57.113136" y="99.821205">a</tspan></text><text font-family="sans-serif" font-size="6.35" letter-spacing="0" stroke-width=".264583" word-spacing="0" x="64.979248" y="99.821205"><tspan stroke-width=".264583" x="64.979248" y="99.821205">a</tspan></text><text font-family="sans-serif" font-size="6.35" letter-spacing="0" stroke-width=".264583" word-spacing="0" x="72.687225" y="99.821205"><tspan stroke-width=".264583" x="72.687225" y="99.821205">b</tspan></text><text font-family="sans-serif" font-size="6.35" letter-spacing="0" stroke-width=".264583" word-spacing="0" x="81.083549" y="99.821205"><tspan stroke-width=".264583" x="81.083549" y="99.821205">a</tspan></text><text font-family="sans-serif" font-size="6.35" letter-spacing="0" stroke-width=".264583" word-spacing="0" x="88.949661" y="99.821205"><tspan stroke-width=".264583" x="88.949661" y="99.821205">c</tspan></text><text font-family="sans-serif" font-size="6.35" letter-spacing="0" stroke-width=".264583" word-spacing="0" x="96.657646" y="99.821205"><tspan stroke-width=".264583" x="96.657646" y="99.821205">b</tspan></text><text font-family="sans-serif" font-size="6.35" letter-spacing="0" stroke-width=".264583" word-spacing="0" x="104.92993" y="99.821205"><tspan stroke-width=".264583" x="104.92993" y="99.821205">a</tspan></text><text font-family="sans-serif" font-size="6.35" letter-spacing="0" stroke-width=".264583" word-spacing="0" x="112.92007" y="99.821205"><tspan stroke-width=".264583" x="112.92007" y="99.821205">a</tspan></text><text font-family="sans-serif" font-size="6.35" letter-spacing="0" stroke-width=".264583" word-spacing="0" x="120.9102" y="99.821205"><tspan stroke-width=".264583" x="120.9102" y="99.821205">a</tspan></text><text font-family="sans-serif" font-size="6.35" letter-spacing="0" stroke-width=".264583" word-spacing="0" x="129.02437" y="99.821205"><tspan stroke-width=".264583" x="129.02437" y="99.821205">c</tspan></text><path d="m14.88638 107.98668h8v8h-8z" fill="#ddafe9" stroke="#000" stroke-linecap="round" stroke-width=".235"/><path d="m22.886379 107.98668h8v8h-8z" fill="#ddafe9" stroke="#000" stroke-linecap="round" stroke-width=".235"/><path d="m30.886379 107.98668h8v8h-8z" fill="#ddafe9" stroke="#000" stroke-linecap="round" stroke-width=".235"/><path d="m38.886379 107.98668h8v8h-8z" fill="#d5fff6" stroke="#000" stroke-linecap="round" stroke-width=".235"/><path d="m46.886379 107.98668h8v8h-8z" fill="#d5fff6" stroke="#000" stroke-linecap="round" stroke-width=".235"/><path d="m54.886379 107.98668h8v8h-8z" fill="#d5fff6" stroke="#000" stroke-linecap="round" stroke-width=".235"/><path d="m62.886379 107.98668h8v8h-8z" fill="#dbe3de" stroke="#000" stroke-linecap="round" stroke-width=".235"/><path d="m70.886383 107.98668h8v8h-8z" fill="#fff" stroke="#000" stroke-linecap="round" stroke-width=".235"/><path d="m78.886383 107.98668h8v8h-8z" fill="#fff" stroke="#000" stroke-linecap="round" stroke-width=".235"/><path d="m86.886383 107.98668h8v8h-8z" fill="#fff" stroke="#000" stroke-linecap="round" stroke-width=".235"/><path d="m94.886383 107.98668h8v8h-8z" fill="#fff" stroke="#000" stroke-linecap="round" stroke-width=".235"/><path d="m102.88638 107.98668h8v8h-8z" fill="#fff" stroke="#000" stroke-linecap="round" stroke-width=".235"/><path d="m110.88638 107.98668h8v8h-8z" fill="#fff" stroke="#000" stroke-linecap="round" stroke-width=".235"/><path d="m118.88638 107.98668h8v8h-8z" fill="#fff" stroke="#000" stroke-linecap="round" stroke-width=".235"/><path d="m126.88638 107.98668h8v8h-8z" fill="#fff" stroke="#000" stroke-linecap="round" stroke-width=".235"/><text font-family="sans-serif" font-size="6.35" letter-spacing="0" stroke-width=".264583" word-spacing="0" x="17.038431" y="114.35397"><tspan stroke-width=".264583" x="17.038431" y="114.35397">a</tspan></text><text font-family="sans-serif" font-size="6.35" letter-spacing="0" stroke-width=".264583" word-spacing="0" x="25.028566" y="114.35397"><tspan stroke-width=".264583" x="25.028566" y="114.35397">a</tspan></text><text font-family="sans-serif" font-size="6.35" letter-spacing="0" stroke-width=".264583" word-spacing="0" x="33.142727" y="114.35397"><tspan stroke-width=".264583" x="33.142727" y="114.35397">c</tspan></text><text font-family="sans-serif" font-size="6.35" letter-spacing="0" stroke-width=".264583" word-spacing="0" x="41.008842" y="114.35397"><tspan stroke-width=".264583" x="41.008842" y="114.35397">a</tspan></text><text font-family="sans-serif" font-size="6.35" letter-spacing="0" stroke-width=".264583" word-spacing="0" x="48.998978" y="114.35397"><tspan stroke-width=".264583" x="48.998978" y="114.35397">c</tspan></text><text font-family="sans-serif" font-size="6.35" letter-spacing="0" stroke-width=".264583" word-spacing="0" x="57.113136" y="114.35397"><tspan stroke-width=".264583" x="57.113136" y="114.35397">a</tspan></text><text font-family="sans-serif" font-size="6.35" letter-spacing="0" stroke-width=".264583" word-spacing="0" x="64.979248" y="114.35397"><tspan stroke-width=".264583" x="64.979248" y="114.35397">a</tspan></text><text font-family="sans-serif" font-size="6.35" letter-spacing="0" stroke-width=".264583" word-spacing="0" x="72.687225" y="114.35397"><tspan stroke-width=".264583" x="72.687225" y="114.35397">b</tspan></text><text font-family="sans-serif" font-size="6.35" letter-spacing="0" stroke-width=".264583" word-spacing="0" x="81.083549" y="114.35397"><tspan stroke-width=".264583" x="81.083549" y="114.35397">a</tspan></text><text font-family="sans-serif" font-size="6.35" letter-spacing="0" stroke-width=".264583" word-spacing="0" x="88.949661" y="114.35397"><tspan stroke-width=".264583" x="88.949661" y="114.35397">c</tspan></text><text font-family="sans-serif" font-size="6.35" letter-spacing="0" stroke-width=".264583" word-spacing="0" x="96.657646" y="114.35397"><tspan stroke-width=".264583" x="96.657646" y="114.35397">b</tspan></text><text font-family="sans-serif" font-size="6.35" letter-spacing="0" stroke-width=".264583" word-spacing="0" x="104.92993" y="114.35397"><tspan stroke-width=".264583" x="104.92993" y="114.35397">a</tspan></text><text font-family="sans-serif" font-size="6.35" letter-spacing="0" stroke-width=".264583" word-spacing="0" x="112.92007" y="114.35397"><tspan stroke-width=".264583" x="112.92007" y="114.35397">a</tspan></text><text font-family="sans-serif" font-size="6.35" letter-spacing="0" stroke-width=".264583" word-spacing="0" x="120.9102" y="114.35397"><tspan stroke-width=".264583" x="120.9102" y="114.35397">a</tspan></text><text font-family="sans-serif" font-size="6.35" letter-spacing="0" stroke-width=".264583" word-spacing="0" x="129.02437" y="114.35397"><tspan stroke-width=".264583" x="129.02437" y="114.35397">c</tspan></text><path d="m14.88638 122.51947h8v8h-8z" fill="#fff" stroke="#000" stroke-linecap="round" stroke-width=".235"/><path d="m22.886379 122.51947h8v8h-8z" fill="#ddafe9" stroke="#000" stroke-linecap="round" stroke-width=".235"/><path d="m30.886379 122.51947h8v8h-8z" fill="#ddafe9" stroke="#000" stroke-linecap="round" stroke-width=".235"/><path d="m38.886379 122.51947h8v8h-8z" fill="#ddafe9" stroke="#000" stroke-linecap="round" stroke-width=".235"/><path d="m46.886379 122.51947h8v8h-8z" fill="#ddafe9" stroke="#000" stroke-linecap="round" stroke-width=".235"/><path d="m54.886379 122.51947h8v8h-8z" fill="#ddafe9" stroke="#000" stroke-linecap="round" stroke-width=".235"/><path d="m62.886379 122.51947h8v8h-8z" fill="#ddafe9" stroke="#000" stroke-linecap="round" stroke-width=".235"/><path d="m70.886383 122.51947h8v8h-8z" fill="#dbe3de" stroke="#000" stroke-linecap="round" stroke-width=".235"/><path d="m78.886383 122.51947h8v8h-8z" fill="#fff" stroke="#000" stroke-linecap="round" stroke-width=".235"/><path d="m86.886383 122.51947h8v8h-8z" fill="#fff" stroke="#000" stroke-linecap="round" stroke-width=".235"/><path d="m94.886383 122.51947h8v8h-8z" fill="#fff" stroke="#000" stroke-linecap="round" stroke-width=".235"/><path d="m102.88638 122.51947h8v8h-8z" fill="#fff" stroke="#000" stroke-linecap="round" stroke-width=".235"/><path d="m110.88638 122.51947h8v8h-8z" fill="#fff" stroke="#000" stroke-linecap="round" stroke-width=".235"/><path d="m118.88638 122.51947h8v8h-8z" fill="#fff" stroke="#000" stroke-linecap="round" stroke-width=".235"/><path d="m126.88638 122.51947h8v8h-8z" fill="#fff" stroke="#000" stroke-linecap="round" stroke-width=".235"/><text font-family="sans-serif" font-size="6.35" letter-spacing="0" stroke-width=".264583" word-spacing="0" x="17.038431" y="128.88676"><tspan stroke-width=".264583" x="17.038431" y="128.88676">a</tspan></text><text font-family="sans-serif" font-size="6.35" letter-spacing="0" stroke-width=".264583" word-spacing="0" x="25.028566" y="128.88676"><tspan stroke-width=".264583" x="25.028566" y="128.88676">a</tspan></text><text font-family="sans-serif" font-size="6.35" letter-spacing="0" stroke-width=".264583" word-spacing="0" x="33.142727" y="128.88676"><tspan stroke-width=".264583" x="33.142727" y="128.88676">c</tspan></text><text font-family="sans-serif" font-size="6.35" letter-spacing="0" stroke-width=".264583" word-spacing="0" x="41.008842" y="128.88676"><tspan stroke-width=".264583" x="41.008842" y="128.88676">a</tspan></text><text font-family="sans-serif" font-size="6.35" letter-spacing="0" stroke-width=".264583" word-spacing="0" x="48.998978" y="128.88676"><tspan stroke-width=".264583" x="48.998978" y="128.88676">c</tspan></text><text font-family="sans-serif" font-size="6.35" letter-spacing="0" stroke-width=".264583" word-spacing="0" x="57.113136" y="128.88676"><tspan stroke-width=".264583" x="57.113136" y="128.88676">a</tspan></text><text font-family="sans-serif" font-size="6.35" letter-spacing="0" stroke-width=".264583" word-spacing="0" x="64.979248" y="128.88676"><tspan stroke-width=".264583" x="64.979248" y="128.88676">a</tspan></text><text font-family="sans-serif" font-size="6.35" letter-spacing="0" stroke-width=".264583" word-spacing="0" x="72.687225" y="128.88676"><tspan stroke-width=".264583" x="72.687225" y="128.88676">b</tspan></text><text font-family="sans-serif" font-size="6.35" letter-spacing="0" stroke-width=".264583" word-spacing="0" x="81.083549" y="128.88676"><tspan stroke-width=".264583" x="81.083549" y="128.88676">a</tspan></text><text font-family="sans-serif" font-size="6.35" letter-spacing="0" stroke-width=".264583" word-spacing="0" x="88.949661" y="128.88676"><tspan stroke-width=".264583" x="88.949661" y="128.88676">c</tspan></text><text font-family="sans-serif" font-size="6.35" letter-spacing="0" stroke-width=".264583" word-spacing="0" x="96.657646" y="128.88676"><tspan stroke-width=".264583" x="96.657646" y="128.88676">b</tspan></text><text font-family="sans-serif" font-size="6.35" letter-spacing="0" stroke-width=".264583" word-spacing="0" x="104.92993" y="128.88676"><tspan stroke-width=".264583" x="104.92993" y="128.88676">a</tspan></text><text font-family="sans-serif" font-size="6.35" letter-spacing="0" stroke-width=".264583" word-spacing="0" x="112.92007" y="128.88676"><tspan stroke-width=".264583" x="112.92007" y="128.88676">a</tspan></text><text font-family="sans-serif" font-size="6.35" letter-spacing="0" stroke-width=".264583" word-spacing="0" x="120.9102" y="128.88676"><tspan stroke-width=".264583" x="120.9102" y="128.88676">a</tspan></text><text font-family="sans-serif" font-size="6.35" letter-spacing="0" stroke-width=".264583" word-spacing="0" x="129.02437" y="128.88676"><tspan stroke-width=".264583" x="129.02437" y="128.88676">c</tspan></text><path d="m14.88638 137.05225h8v8h-8z" fill="#fff" stroke="#000" stroke-linecap="round" stroke-width=".235"/><path d="m22.886379 137.05225h8v8h-8z" fill="#fff" stroke="#000" stroke-linecap="round" stroke-width=".235"/><path d="m30.886379 137.05225h8v8h-8z" fill="#ddafe9" stroke="#000" stroke-linecap="round" stroke-width=".235"/><path d="m38.886379 137.05225h8v8h-8z" fill="#ddafe9" stroke="#000" stroke-linecap="round" stroke-width=".235"/><path d="m46.886379 137.05225h8v8h-8z" fill="#ddafe9" stroke="#000" stroke-linecap="round" stroke-width=".235"/><path d="m54.886379 137.05225h8v8h-8z" fill="#ddafe9" stroke="#000" stroke-linecap="round" stroke-width=".235"/><path d="m62.886379 137.05225h8v8h-8z" fill="#ddafe9" stroke="#000" stroke-linecap="round" stroke-width=".235"/><path d="m70.886383 137.05225h8v8h-8z" fill="#ddafe9" stroke="#000" stroke-linecap="round" stroke-width=".235"/><path d="m78.886383 137.05225h8v8h-8z" fill="#d5fff6" stroke="#000" stroke-linecap="round" stroke-width=".235"/><path d="m86.886383 137.05225h8v8h-8z" fill="#d5fff6" stroke="#000" stroke-linecap="round" stroke-width=".235"/><path d="m94.886383 137.05225h8v8h-8z" fill="#dbe3de" stroke="#000" stroke-linecap="round" stroke-width=".235"/><path d="m102.88638 137.05225h8v8h-8z" fill="#fff" stroke="#000" stroke-linecap="round" stroke-width=".235"/><path d="m110.88638 137.05225h8v8h-8z" fill="#fff" stroke="#000" stroke-linecap="round" stroke-width=".235"/><path d="m118.88638 137.05225h8v8h-8z" fill="#fff" stroke="#000" stroke-linecap="round" stroke-width=".235"/><path d="m126.88638 137.05225h8v8h-8z" fill="#fff" stroke="#000" stroke-linecap="round" stroke-width=".235"/><text font-family="sans-serif" font-size="6.35" letter-spacing="0" stroke-width=".264583" word-spacing="0" x="17.038431" y="143.41954"><tspan stroke-width=".264583" x="17.038431" y="143.41954">a</tspan></text><text font-family="sans-serif" font-size="6.35" letter-spacing="0" stroke-width=".264583" word-spacing="0" x="25.028566" y="143.41954"><tspan stroke-width=".264583" x="25.028566" y="143.41954">a</tspan></text><text font-family="sans-serif" font-size="6.35" letter-spacing="0" stroke-width=".264583" word-spacing="0" x="33.142727" y="143.41954"><tspan stroke-width=".264583" x="33.142727" y="143.41954">c</tspan></text><text font-family="sans-serif" font-size="6.35" letter-spacing="0" stroke-width=".264583" word-spacing="0" x="41.008842" y="143.41954"><tspan stroke-width=".264583" x="41.008842" y="143.41954">a</tspan></text><text font-family="sans-serif" font-size="6.35" letter-spacing="0" stroke-width=".264583" word-spacing="0" x="48.998978" y="143.41954"><tspan stroke-width=".264583" x="48.998978" y="143.41954">c</tspan></text><text font-family="sans-serif" font-size="6.35" letter-spacing="0" stroke-width=".264583" word-spacing="0" x="57.113136" y="143.41954"><tspan stroke-width=".264583" x="57.113136" y="143.41954">a</tspan></text><text font-family="sans-serif" font-size="6.35" letter-spacing="0" stroke-width=".264583" word-spacing="0" x="64.979248" y="143.41954"><tspan stroke-width=".264583" x="64.979248" y="143.41954">a</tspan></text><text font-family="sans-serif" font-size="6.35" letter-spacing="0" stroke-width=".264583" word-spacing="0" x="72.687225" y="143.41954"><tspan stroke-width=".264583" x="72.687225" y="143.41954">b</tspan></text><text font-family="sans-serif" font-size="6.35" letter-spacing="0" stroke-width=".264583" word-spacing="0" x="81.083549" y="143.41954"><tspan stroke-width=".264583" x="81.083549" y="143.41954">a</tspan></text><text font-family="sans-serif" font-size="6.35" letter-spacing="0" stroke-width=".264583" word-spacing="0" x="88.949661" y="143.41954"><tspan stroke-width=".264583" x="88.949661" y="143.41954">c</tspan></text><text font-family="sans-serif" font-size="6.35" letter-spacing="0" stroke-width=".264583" word-spacing="0" x="96.657646" y="143.41954"><tspan stroke-width=".264583" x="96.657646" y="143.41954">b</tspan></text><text font-family="sans-serif" font-size="6.35" letter-spacing="0" stroke-width=".264583" word-spacing="0" x="104.92993" y="143.41954"><tspan stroke-width=".264583" x="104.92993" y="143.41954">a</tspan></text><text font-family="sans-serif" font-size="6.35" letter-spacing="0" stroke-width=".264583" word-spacing="0" x="112.92007" y="143.41954"><tspan stroke-width=".264583" x="112.92007" y="143.41954">a</tspan></text><text font-family="sans-serif" font-size="6.35" letter-spacing="0" stroke-width=".264583" word-spacing="0" x="120.9102" y="143.41954"><tspan stroke-width=".264583" x="120.9102" y="143.41954">a</tspan></text><text font-family="sans-serif" font-size="6.35" letter-spacing="0" stroke-width=".264583" word-spacing="0" x="129.02437" y="143.41954"><tspan stroke-width=".264583" x="129.02437" y="143.41954">c</tspan></text><path d="m22.886379 87.656118v5.011304" fill="none" marker-end="url(#e)" stroke="#000" stroke-width=".465"/><path d="m14.868293 73.05652v5.011304" fill="none" marker-end="url(#d)" stroke="#000" stroke-width=".465"/><path d="m38.85297 101.95504v5.0113" fill="none" marker-end="url(#c)" stroke="#000" stroke-width=".465"/><path d="m71.157336 116.53932v5.0113" fill="none" marker-end="url(#b)" stroke="#000" stroke-width=".465"/><path d="m78.923772 131.03695v5.0113" fill="none" marker-end="url(#a)" stroke="#000" stroke-width=".465"/><path d="m22.886379 115.98668h24.07716v2.325073h-24.07716z" fill="#de8787" stroke="#000" stroke-linecap="round" stroke-width=".265"/><path d="m38.886379 145.05225h16.077164v2.325073h-16.077164z" fill="#de8787" stroke="#000" stroke-linecap="round" stroke-width=".265"/><text font-family="sans-serif" font-size="6.35" letter-spacing="0" stroke-width=".264583" word-spacing="0" x="142.18738" y="85.288422"><tspan stroke-width=".264583" x="142.18738" y="85.288422">(0, 0, 'a')</tspan></text><text font-family="sans-serif" font-size="6.35" letter-spacing="0" stroke-width=".264583" word-spacing="0" x="142.18738" y="99.821205"><tspan stroke-width=".264583" x="142.18738" y="99.821205">(1, 1, 'c')</tspan></text><text font-family="sans-serif" font-size="6.35" letter-spacing="0" stroke-width=".264583" word-spacing="0" x="142.18738" y="114.35397"><tspan stroke-width=".264583" x="142.18738" y="114.35397">(2, 3, 'a')</tspan></text><text font-family="sans-serif" font-size="6.35" letter-spacing="0" stroke-width=".264583" word-spacing="0" x="142.18738" y="128.88676"><tspan stroke-width=".264583" x="142.18738" y="128.88676">(0, 0, 'b')</tspan></text><text font-family="sans-serif" font-size="6.35" letter-spacing="0" stroke-width=".264583" word-spacing="0" x="142.18738" y="143.41954"><tspan stroke-width=".264583" x="142.18738" y="143.41954">(5, 2, 'b')</tspan></text><path d="m14.88638 154.99272h8v8h-8z" fill="#d5fff6" stroke="#000" stroke-linecap="round" stroke-width=".235"/><path d="m95.076012 154.99272h8v8h-8z" fill="#dbe3de" stroke="#000" stroke-linecap="round" stroke-width=".235"/><path d="m14.88638 168.89143h8v8h-8z" fill="#ddafe9" stroke="#000" stroke-linecap="round" stroke-width=".235"/><path d="m86.983849 171.7289h16.077164v2.325073h-16.077164z" fill="#de8787" stroke="#000" stroke-linecap="round" stroke-width=".265"/><text font-family="sans-serif" font-size="6.35" letter-spacing="0" stroke-width=".264583" word-spacing="0" x="29.666916" y="161.36002"><tspan stroke-width=".264583" x="29.666916" y="161.36002">Longest match</tspan></text><text font-family="sans-serif" font-size="6.35" letter-spacing="0" stroke-width=".264583" word-spacing="0" x="29.800552" y="174.8851"><tspan stroke-width=".264583" x="29.800552" y="174.8851">Window size (6)</tspan></text><text font-family="sans-serif" font-size="6.35" letter-spacing="0" stroke-width=".264583" word-spacing="0" x="107.23771" y="161.36002"><tspan stroke-width=".264583" x="107.23771" y="161.36002">Next character</tspan></text><text font-family="sans-serif" font-size="6.35" letter-spacing="0" stroke-width=".264583" word-spacing="0" x="107.44234" y="175.25873"><tspan stroke-width=".264583" x="107.44234" y="175.25873">Stride</tspan></text><g transform="translate(68.32941 17.953869)"><g stroke="#000" stroke-linecap="round" stroke-width=".235"><path d="m-53.493942 38.827389h8v8h-8z" fill="#ffd5d5"/><path d="m-45.493942 38.827389h8v8h-8z" fill="#ffd5d5"/><path d="m-37.493942 38.827389h8v8h-8z" fill="#d5ffd5"/><path d="m-29.49394 38.827389h8v8h-8z" fill="#ffd5d5"/><path d="m-21.493944 38.827389h8v8h-8z" fill="#d5ffd5"/><path d="m-13.49394 38.827389h8v8h-8z" fill="#ffd5d5"/><path d="m-5.49394 38.827389h8v8h-8z" fill="#ffd5d5"/><path d="m2.506064 38.827389h8v8h-8z" fill="#fff6d5"/><path d="m10.506063 38.827389h8v8h-8z" fill="#ffd5d5"/><path d="m18.506063 38.827389h8v8h-8z" fill="#d5ffd5"/><path d="m26.506056 38.827389h8v8h-8z" fill="#fff6d5"/><path d="m34.506065 38.827389h8v8h-8z" fill="#ffd5d5"/><path d="m42.50605 38.827389h8v8h-8z" fill="#ffd5d5"/><path d="m50.506065 38.827389h8v8h-8z" fill="#ffd5d5"/><path d="m58.50605 38.827389h8v8h-8z" fill="#d5ffd5"/></g><text font-family="sans-serif" font-size="6.35" letter-spacing="0" stroke-width=".264583" word-spacing="0" x="-51.341892" y="45.194683"><tspan stroke-width=".264583" x="-51.341892" y="45.194683">a</tspan></text><text font-family="sans-serif" font-size="6.35" letter-spacing="0" stroke-width=".264583" word-spacing="0" x="-43.351757" y="45.194683"><tspan stroke-width=".264583" x="-43.351757" y="45.194683">a</tspan></text><text font-family="sans-serif" font-size="6.35" letter-spacing="0" stroke-width=".264583" word-spacing="0" x="-35.237598" y="45.194683"><tspan stroke-width=".264583" x="-35.237598" y="45.194683">c</tspan></text><text font-family="sans-serif" font-size="6.35" letter-spacing="0" stroke-width=".264583" word-spacing="0" x="-27.371481" y="45.194683"><tspan stroke-width=".264583" x="-27.371481" y="45.194683">a</tspan></text><text font-family="sans-serif" font-size="6.35" letter-spacing="0" stroke-width=".264583" word-spacing="0" x="-19.381342" y="45.194683"><tspan stroke-width=".264583" x="-19.381342" y="45.194683">c</tspan></text><text font-family="sans-serif" font-size="6.35" letter-spacing="0" stroke-width=".264583" word-spacing="0" x="-11.267183" y="45.194683"><tspan stroke-width=".264583" x="-11.267183" y="45.194683">a</tspan></text><text font-family="sans-serif" font-size="6.35" letter-spacing="0" stroke-width=".264583" word-spacing="0" x="-3.401071" y="45.194683"><tspan stroke-width=".264583" x="-3.401071" y="45.194683">a</tspan></text><text font-family="sans-serif" font-size="6.35" letter-spacing="0" stroke-width=".264583" word-spacing="0" x="4.306899" y="45.194683"><tspan stroke-width=".264583" x="4.306899" y="45.194683">b</tspan></text><text font-family="sans-serif" font-size="6.35" letter-spacing="0" stroke-width=".264583" word-spacing="0" x="12.703222" y="45.194683"><tspan stroke-width=".264583" x="12.703222" y="45.194683">a</tspan></text><text font-family="sans-serif" font-size="6.35" letter-spacing="0" stroke-width=".264583" word-spacing="0" x="20.569342" y="45.194683"><tspan stroke-width=".264583" x="20.569342" y="45.194683">c</tspan></text><text font-family="sans-serif" font-size="6.35" letter-spacing="0" stroke-width=".264583" word-spacing="0" x="28.277327" y="45.194683"><tspan stroke-width=".264583" x="28.277327" y="45.194683">b</tspan></text><text font-family="sans-serif" font-size="6.35" letter-spacing="0" stroke-width=".264583" word-spacing="0" x="36.549606" y="45.194683"><tspan stroke-width=".264583" x="36.549606" y="45.194683">a</tspan></text><text font-family="sans-serif" font-size="6.35" letter-spacing="0" stroke-width=".264583" word-spacing="0" x="44.539742" y="45.194683"><tspan stroke-width=".264583" x="44.539742" y="45.194683">a</tspan></text><text font-family="sans-serif" font-size="6.35" letter-spacing="0" stroke-width=".264583" word-spacing="0" x="52.529892" y="45.194683"><tspan stroke-width=".264583" x="52.529892" y="45.194683">a</tspan></text><text font-family="sans-serif" font-size="6.35" letter-spacing="0" stroke-width=".264583" word-spacing="0" x="60.644035" y="45.194683"><tspan stroke-width=".264583" x="60.644035" y="45.194683">c</tspan></text></g><path d="m14.88638 101.45391h8.008964v2.325073h-8.008964z" fill="#de8787" stroke="#000" stroke-linecap="round" stroke-width=".265"/></g></svg>