<svg height="118.091mm" viewBox="0 0 191.73504 118.09098" width="191.73505mm" xmlns="http://www.w3.org/2000/svg" xmlns:xlink="http://www.w3.org/1999/xlink"><marker id="a" orient="auto" overflow="visible" refX="0" refY="0"><path d="m0 0 5-5-17.5 5 17.5 5z" fill-rule="evenodd" stroke="#000" stroke-width="1pt" transform="matrix(-.4 0 0 -.4 -4 0)"/></marker><marker id="b" orient="auto" overflow="visible" refX="0" refY="0"><path d="m0 0 5-5-17.5 5 17.5 5z" fill-rule="evenodd" stroke="#000" stroke-width="1pt" transform="matrix(-.4 0 0 -.4 -4 0)"/></marker><marker id="c" orient="auto" overflow="visible" refX="0" refY="0"><path d="m0 0 5-5-17.5 5 17.5 5z" fill-rule="evenodd" stroke="#000" stroke-width="1pt" transform="matrix(-.4 0 0 -.4 -4 0)"/></marker><marker id="d" orient="auto" overflow="visible" refX="0" refY="0"><path d="m0 0 5-5-17.5 5 17.5 5z" fill-rule="evenodd" stroke="#000" stroke-width="1pt" transform="matrix(-.4 0 0 -.4 -4 0)"/></marker><marker id="e" orient="auto" overflow="visible" refX="0" refY="0"><path d="m0 0 5-5-17.5 5 17.5 5z" fill-rule="evenodd" stroke="#000" stroke-width="1pt" transform="matrix(-.4 0 0 -.4 -4 0)"/></marker><marker id="f" orient="auto" overflow="visible" refX="0" refY="0"><path d="m0 0 5-5-17.5 5 17.5 5z" fill-rule="evenodd" stroke="#000" stroke-width="1pt" transform="matrix(-.4 0 0 -.4 -4 0)"/></marker><marker id="g" orient="auto" overflow="visible" refX="0" refY="0"><path d="m0 0 5-5-17.5 5 17.5 5z" fill-rule="evenodd" stroke="#000" stroke-width="1pt" transform="matrix(-.4 0 0 -.4 -4 0)"/></marker><g transform="translate(-13.687601 -56.749874)"><g stroke="#000"><path d="m14.835467 56.867374h8v8h-8z" fill="#ffd5d5" stroke-linecap="round" stroke-width=".235"/><path d="m22.835466 56.867374h8v8h-8z" fill="#ffd5d5" stroke-linecap="round" stroke-width=".235"/><path d="m30.835466 56.867374h8v8h-8z" fill="#d5ffd5" stroke-linecap="round" stroke-width=".235"/><path d="m38.835468 56.867374h8v8h-8z" fill="#ffd5d5" stroke-linecap="round" stroke-width=".235"/><path d="m46.835468 56.867374h8v8h-8z" fill="#d5ffd5" stroke-linecap="round" stroke-width=".235"/><path d="m54.835468 56.867374h8v8h-8z" fill="#ffd5d5" stroke-linecap="round" stroke-width=".235"/><path d="m62.835468 56.867374h8v8h-8z" fill="#ffd5d5" stroke-linecap="round" stroke-width=".235"/><path d="m70.835472 56.867374h8v8h-8z" fill="#fff6d5" stroke-linecap="round" stroke-width=".235"/><path d="m78.835472 56.867374h8v8h-8z" fill="#ffd5d5" stroke-linecap="round" stroke-width=".235"/><path d="m86.835472 56.867374h8v8h-8z" fill="#d5ffd5" stroke-linecap="round" stroke-width=".235"/><path d="m94.835464 56.867374h8v8h-8z" fill="#fff6d5" stroke-linecap="round" stroke-width=".235"/><path d="m102.83547 56.867374h8v8h-8z" fill="#ffd5d5" stroke-linecap="round" stroke-width=".235"/><path d="m110.83546 56.867374h8v8h-8z" fill="#ffd5d5" stroke-linecap="round" stroke-width=".235"/><path d="m118.83547 56.867374h8v8h-8z" fill="#ffd5d5" stroke-linecap="round" stroke-width=".235"/><path d="m126.83546 56.867374h8v8h-8z" fill="#d5ffd5" stroke-linecap="round" stroke-width=".235"/></g><text font-family="sans-serif" font-size="6.35" letter-spacing="0" stroke-width=".264583" word-spacing="0" x="16.987518" y="63.234669"><tspan stroke-width=".264583" x="16.987518" y="63.234669">a</tspan></text><text font-family="sans-serif" font-size="6.35" letter-spacing="0" stroke-width=".264583" word-spacing="0" x="24.977654" y="63.234669"><tspan stroke-width=".264583" x="24.977654" y="63.234669">a</tspan></text><text font-family="sans-serif" font-size="6.35" letter-spacing="0" stroke-width=".264583" word-spacing="0" x="33.091812" y="63.234669"><tspan stroke-width=".264583" x="33.091812" y="63.234669">c</tspan></text><text font-family="sans-serif" font-size="6.35" letter-spacing="0" stroke-width=".264583" word-spacing="0" x="40.957928" y="63.234669"><tspan stroke-width=".264583" x="40.957928" y="63.234669">a</tspan></text><text font-family="sans-serif" font-size="6.35" letter-spacing="0" stroke-width=".264583" word-spacing="0" x="48.948067" y="63.234669"><tspan stroke-width=".264583" x="48.948067" y="63.234669">c</tspan></text><text font-family="sans-serif" font-size="6.35" letter-spacing="0" stroke-width=".264583" word-spacing="0" x="57.062225" y="63.234669"><tspan stroke-width=".264583" x="57.062225" y="63.234669">a</tspan></text><text font-family="sans-serif" font-size="6.35" letter-spacing="0" stroke-width=".264583" word-spacing="0" x="64.928337" y="63.234669"><tspan stroke-width=".264583" x="64.928337" y="63.234669">a</tspan></text><text font-family="sans-serif" font-size="6.35" letter-spacing="0" stroke-width=".264583" word-spacing="0" x="72.636307" y="63.234669"><tspan stroke-width=".264583" x="72.636307" y="63.234669">b</tspan></text><text font-family="sans-serif" font-size="6.35" letter-spacing="0" stroke-width=".264583" word-spacing="0" x="81.032631" y="63.234669"><tspan stroke-width=".264583" x="81.032631" y="63.234669">a</tspan></text><text font-family="sans-serif" font-size="6.35" letter-spacing="0" stroke-width=".264583" word-spacing="0" x="88.89875" y="63.234669"><tspan stroke-width=".264583" x="88.89875" y="63.234669">c</tspan></text><text font-family="sans-serif" font-size="6.35" letter-spacing="0" stroke-width=".264583" word-spacing="0" x="96.606735" y="63.234669"><tspan stroke-width=".264583" x="96.606735" y="63.234669">b</tspan></text><text font-family="sans-serif" font-size="6.35" letter-spacing="0" stroke-width=".264583" word-spacing="0" x="104.87901" y="63.234669"><tspan stroke-width=".264583" x="104.87901" y="63.234669">a</tspan></text><text font-family="sans-serif" font-size="6.35" letter-spacing="0" stroke-width=".264583" word-spacing="0" x="112.86915" y="63.234669"><tspan stroke-width=".264583" x="112.86915" y="63.234669">a</tspan></text><text font-family="sans-serif" font-size="6.35" letter-spacing="0" stroke-width=".264583" word-spacing="0" x="120.85929" y="63.234669"><tspan stroke-width=".264583" x="120.85929" y="63.234669">a</tspan></text><text font-family="sans-serif" font-size="6.35" letter-spacing="0" stroke-width=".264583" word-spacing="0" x="128.97345" y="63.234669"><tspan stroke-width=".264583" x="128.97345" y="63.234669">c</tspan></text><path d="m14.88638 78.921127h8v8h-8z" fill="#fff" stroke="#000" stroke-linecap="round" stroke-width=".235"/><path d="m22.886379 78.921127h8v8h-8z" fill="#fff" stroke="#000" stroke-linecap="round" stroke-width=".235"/><path d="m30.886379 78.921127h8v8h-8z" fill="#fff" stroke="#000" stroke-linecap="round" stroke-width=".235"/><path d="m38.886379 78.921127h8v8h-8z" fill="#fff" stroke="#000" stroke-linecap="round" stroke-width=".235"/><path d="m46.886379 78.921127h8v8h-8z" fill="#fff" stroke="#000" stroke-linecap="round" stroke-width=".235"/><path d="m54.886379 78.921127h8v8h-8z" fill="#fff" stroke="#000" stroke-linecap="round" stroke-width=".235"/><path d="m62.886379 78.921127h8v8h-8z" fill="#fff" stroke="#000" stroke-linecap="round" stroke-width=".235"/><path d="m70.886383 78.921127h8v8h-8z" fill="#fff" stroke="#000" stroke-linecap="round" stroke-width=".235"/><path d="m78.886383 78.921127h8v8h-8z" fill="#fff" stroke="#000" stroke-linecap="round" stroke-width=".235"/><path d="m86.886383 78.921127h8v8h-8z" fill="#fff" stroke="#000" stroke-linecap="round" stroke-width=".235"/><path d="m94.886383 78.921127h8v8h-8z" fill="#fff" stroke="#000" stroke-linecap="round" stroke-width=".235"/><path d="m102.88638 78.921127h8v8h-8z" fill="#fff" stroke="#000" stroke-linecap="round" stroke-width=".235"/><path d="m110.88638 78.921127h8v8h-8z" fill="#fff" stroke="#000" stroke-linecap="round" stroke-width=".235"/><path d="m118.88638 78.921127h8v8h-8z" fill="#fff" stroke="#000" stroke-linecap="round" stroke-width=".235"/><path d="m126.88638 78.921127h8v8h-8z" fill="#fff" stroke="#000" stroke-linecap="round" stroke-width=".235"/><text font-family="sans-serif" font-size="6.35" letter-spacing="0" stroke-width=".264583" word-spacing="0" x="17.038431" y="85.288422"><tspan stroke-width=".264583" x="17.038431" y="85.288422">a</tspan></text><text font-family="sans-serif" font-size="6.35" letter-spacing="0" stroke-width=".264583" word-spacing="0" x="25.028566" y="85.288422"><tspan stroke-width=".264583" x="25.028566" y="85.288422">a</tspan></text><text font-family="sans-serif" font-size="6.35" letter-spacing="0" stroke-width=".264583" word-spacing="0" x="33.142727" y="85.288422"><tspan stroke-width=".264583" x="33.142727" y="85.288422">c</tspan></text><text font-family="sans-serif" font-size="6.35" letter-spacing="0" stroke-width=".264583" word-spacing="0" x="41.008842" y="85.288422"><tspan stroke-width=".264583" x="41.008842" y="85.288422">a</tspan></text><text font-family="sans-serif" font-size="6.35" letter-spacing="0" stroke-width=".264583" word-spacing="0" x="48.998978" y="85.288422"><tspan stroke-width=".264583" x="48.998978" y="85.288422">a</tspan></text><text font-family="sans-serif" font-size="6.35" letter-spacing="0" stroke-width=".264583" word-spacing="0" x="57.113136" y="85.288422"><tspan stroke-width=".264583" x="57.113136" y="85.288422">c</tspan></text><text font-family="sans-serif" font-size="6.35" letter-spacing="0" stroke-width=".264583" word-spacing="0" x="64.979248" y="85.288422"><tspan stroke-width=".264583" x="64.979248" y="85.288422">a</tspan></text><text font-family="sans-serif" font-size="6.35" letter-spacing="0" stroke-width=".264583" word-spacing="0" x="72.687225" y="85.288422"><tspan stroke-width=".264583" x="72.687225" y="85.288422">b</tspan></text><text font-family="sans-serif" font-size="6.35" letter-spacing="0" stroke-width=".264583" word-spacing="0" x="81.083549" y="85.288422"><tspan stroke-width=".264583" x="81.083549" y="85.288422">c</tspan></text><text font-family="sans-serif" font-size="6.35" letter-spacing="0" stroke-width=".264583" word-spacing="0" x="88.949661" y="85.288422"><tspan stroke-width=".264583" x="88.949661" y="85.288422">a</tspan></text><text font-family="sans-serif" font-size="6.35" letter-spacing="0" stroke-width=".264583" word-spacing="0" x="96.657646" y="85.288422"><tspan stroke-width=".264583" x="96.657646" y="85.288422">b</tspan></text><text font-family="sans-serif" font-size="6.35" letter-spacing="0" stroke-width=".264583" word-spacing="0" x="104.92993" y="85.288422"><tspan stroke-width=".264583" x="104.92993" y="85.288422">a</tspan></text><text font-family="sans-serif" font-size="6.35" letter-spacing="0" stroke-width=".264583" word-spacing="0" x="112.92007" y="85.288422"><tspan stroke-width=".264583" x="112.92007" y="85.288422">a</tspan></text><text font-family="sans-serif" font-size="6.35" letter-spacing="0" stroke-width=".264583" word-spacing="0" x="120.9102" y="85.288422"><tspan stroke-width=".264583" x="120.9102" y="85.288422">a</tspan></text><text font-family="sans-serif" font-size="6.35" letter-spacing="0" stroke-width=".264583" word-spacing="0" x="129.02437" y="85.288422"><tspan stroke-width=".264583" x="129.02437" y="85.288422">c</tspan></text><path d="m14.88638 78.921127h8v8h-8z" fill="#dbe3de" stroke="#000" stroke-linecap="round" stroke-width=".235"/><path d="m22.886379 78.921127h8v8h-8z" fill="#fff" stroke="#000" stroke-linecap="round" stroke-width=".235"/><path d="m30.886379 78.921127h8v8h-8z" fill="#fff" stroke="#000" stroke-linecap="round" stroke-width=".235"/><path d="m38.886379 78.921127h8v8h-8z" fill="#fff" stroke="#000" stroke-linecap="round" stroke-width=".235"/><path d="m46.886379 78.921127h8v8h-8z" fill="#fff" stroke="#000" stroke-linecap="round" stroke-width=".235"/><path d="m54.886379 78.921127h8v8h-8z" fill="#fff" stroke="#000" stroke-linecap="round" stroke-width=".235"/><path d="m62.886379 78.921127h8v8h-8z" fill="#fff" stroke="#000" stroke-linecap="round" stroke-width=".235"/><path d="m70.886383 78.921127h8v8h-8z" fill="#fff" stroke="#000" stroke-linecap="round" stroke-width=".235"/><path d="m78.886383 78.921127h8v8h-8z" fill="#fff" stroke="#000" stroke-linecap="round" stroke-width=".235"/><path d="m86.886383 78.921127h8v8h-8z" fill="#fff" stroke="#000" stroke-linecap="round" stroke-width=".235"/><path d="m94.886383 78.921127h8v8h-8z" fill="#fff" stroke="#000" stroke-linecap="round" stroke-width=".235"/><path d="m102.88638 78.921127h8v8h-8z" fill="#fff" stroke="#000" stroke-linecap="round" stroke-width=".235"/><path d="m110.88638 78.921127h8v8h-8z" fill="#fff" stroke="#000" stroke-linecap="round" stroke-width=".235"/><path d="m118.88638 78.921127h8v8h-8z" fill="#fff" stroke="#000" stroke-linecap="round" stroke-width=".235"/><path d="m126.88638 78.921127h8v8h-8z" fill="#fff" stroke="#000" stroke-linecap="round" stroke-width=".235"/><text font-family="sans-serif" font-size="6.35" letter-spacing="0" stroke-width=".264583" word-spacing="0" x="17.038431" y="85.288422"><tspan stroke-width=".264583" x="17.038431" y="85.288422">a</tspan></text><text font-family="sans-serif" font-size="6.35" letter-spacing="0" stroke-width=".264583" word-spacing="0" x="25.028566" y="85.288422"><tspan stroke-width=".264583" x="25.028566" y="85.288422">a</tspan></text><text font-family="sans-serif" font-size="6.35" letter-spacing="0" stroke-width=".264583" word-spacing="0" x="33.142727" y="85.288422"><tspan stroke-width=".264583" x="33.142727" y="85.288422">c</tspan></text><text font-family="sans-serif" font-size="6.35" letter-spacing="0" stroke-width=".264583" word-spacing="0" x="41.008842" y="85.288422"><tspan stroke-width=".264583" x="41.008842" y="85.288422">a</tspan></text><text font-family="sans-serif" font-size="6.35" letter-spacing="0" stroke-width=".264583" word-spacing="0" x="48.998978" y="85.288422"><tspan stroke-width=".264583" x="48.998978" y="85.288422">c</tspan></text><text font-family="sans-serif" font-size="6.35" letter-spacing="0" stroke-width=".264583" word-spacing="0" x="57.113136" y="85.288422"><tspan stroke-width=".264583" x="57.113136" y="85.288422">a</tspan></text><text font-family="sans-serif" font-size="6.35" letter-spacing="0" stroke-width=".264583" word-spacing="0" x="64.979248" y="85.288422"><tspan stroke-width=".264583" x="64.979248" y="85.288422">a</tspan></text><text font-family="sans-serif" font-size="6.35" letter-spacing="0" stroke-width=".264583" word-spacing="0" x="72.687225" y="85.288422"><tspan stroke-width=".264583" x="72.687225" y="85.288422">b</tspan></text><text font-family="sans-serif" font-size="6.35" letter-spacing="0" stroke-width=".264583" word-spacing="0" x="81.083549" y="85.288422"><tspan stroke-width=".264583" x="81.083549" y="85.288422">a</tspan></text><text font-family="sans-serif" font-size="6.35" letter-spacing="0" stroke-width=".264583" word-spacing="0" x="88.949661" y="85.288422"><tspan stroke-width=".264583" x="88.949661" y="85.288422">c</tspan></text><text font-family="sans-serif" font-size="6.35" letter-spacing="0" stroke-width=".264583" word-spacing="0" x="96.657646" y="85.288422"><tspan stroke-width=".264583" x="96.657646" y="85.288422">b</tspan></text><text font-family="sans-serif" font-size="6.35" letter-spacing="0" stroke-width=".264583" word-spacing="0" x="104.92993" y="85.288422"><tspan stroke-width=".264583" x="104.92993" y="85.288422">a</tspan></text><text font-family="sans-serif" font-size="6.35" letter-spacing="0" stroke-width=".264583" word-spacing="0" x="112.92007" y="85.288422"><tspan stroke-width=".264583" x="112.92007" y="85.288422">a</tspan></text><text font-family="sans-serif" font-size="6.35" letter-spacing="0" stroke-width=".264583" word-spacing="0" x="120.9102" y="85.288422"><tspan stroke-width=".264583" x="120.9102" y="85.288422">a</tspan></text><text font-family="sans-serif" font-size="6.35" letter-spacing="0" stroke-width=".264583" word-spacing="0" x="129.02437" y="85.288422"><tspan stroke-width=".264583" x="129.02437" y="85.288422">c</tspan></text><path d="m14.88638 93.453911h8v8h-8z" fill="#fff" stroke="#000" stroke-linecap="round" stroke-width=".235"/><path d="m22.886379 93.453911h8v8h-8z" fill="#d5fff6" stroke="#000" stroke-linecap="round" stroke-width=".235"/><path d="m30.886379 93.453911h8v8h-8z" fill="#dbe3de" stroke="#000" stroke-linecap="round" stroke-width=".235"/><path d="m38.886379 93.453911h8v8h-8z" fill="#fff" stroke="#000" stroke-linecap="round" stroke-width=".235"/><path d="m46.886379 93.453911h8v8h-8z" fill="#fff" stroke="#000" stroke-linecap="round" stroke-width=".235"/><path d="m54.886379 93.453911h8v8h-8z" fill="#fff" stroke="#000" stroke-linecap="round" stroke-width=".235"/><path d="m62.886379 93.453911h8v8h-8z" fill="#fff" stroke="#000" stroke-linecap="round" stroke-width=".235"/><path d="m70.886383 93.453911h8v8h-8z" fill="#fff" stroke="#000" stroke-linecap="round" stroke-width=".235"/><path d="m78.886383 93.453911h8v8h-8z" fill="#fff" stroke="#000" stroke-linecap="round" stroke-width=".235"/><path d="m86.886383 93.453911h8v8h-8z" fill="#fff" stroke="#000" stroke-linecap="round" stroke-width=".235"/><path d="m94.886383 93.453911h8v8h-8z" fill="#fff" stroke="#000" stroke-linecap="round" stroke-width=".235"/><path d="m102.88638 93.453911h8v8h-8z" fill="#fff" stroke="#000" stroke-linecap="round" stroke-width=".235"/><path d="m110.88638 93.453911h8v8h-8z" fill="#fff" stroke="#000" stroke-linecap="round" stroke-width=".235"/><path d="m118.88638 93.453911h8v8h-8z" fill="#fff" stroke="#000" stroke-linecap="round" stroke-width=".235"/><path d="m126.88638 93.453911h8v8h-8z" fill="#fff" stroke="#000" stroke-linecap="round" stroke-width=".235"/><text font-family="sans-serif" font-size="6.35" letter-spacing="0" stroke-width=".264583" word-spacing="0" x="17.038431" y="99.821205"><tspan stroke-width=".264583" x="17.038431" y="99.821205">a</tspan></text><text font-family="sans-serif" font-size="6.35" letter-spacing="0" stroke-width=".264583" word-spacing="0" x="25.028566" y="99.821205"><tspan stroke-width=".264583" x="25.028566" y="99.821205">a</tspan></text><text font-family="sans-serif" font-size="6.35" letter-spacing="0" stroke-width=".264583" word-spacing="0" x="33.142727" y="99.821205"><tspan stroke-width=".264583" x="33.142727" y="99.821205">c</tspan></text><text font-family="sans-serif" font-size="6.35" letter-spacing="0" stroke-width=".264583" word-spacing="0" x="41.008842" y="99.821205"><tspan stroke-width=".264583" x="41.008842" y="99.821205">a</tspan></text><text font-family="sans-serif" font-size="6.35" letter-spacing="0" stroke-width=".264583" word-spacing="0" x="48.998978" y="99.821205"><tspan stroke-width=".264583" x="48.998978" y="99.821205">c</tspan></text><text font-family="sans-serif" font-size="6.35" letter-spacing="0" stroke-width=".264583" word-spacing="0" x="57.113136" y="99.821205"><tspan stroke-width=".264583" x="57.113136" y="99.821205">a</tspan></text><text font-family="sans-serif" font-size="6.35" letter-spacing="0" stroke-width=".264583" word-spacing="0" x="64.979248" y="99.821205"><tspan stroke-width=".264583" x="64.979248" y="99.821205">a</tspan></text><text font-family="sans-serif" font-size="6.35" letter-spacing="0" stroke-width=".264583" word-spacing="0" x="72.687225" y="99.821205"><tspan stroke-width=".264583" x="72.687225" y="99.821205">b</tspan></text><text font-family="sans-serif" font-size="6.35" letter-spacing="0" stroke-width=".264583" word-spacing="0" x="81.083549" y="99.821205"><tspan stroke-width=".264583" x="81.083549" y="99.821205">a</tspan></text><text font-family="sans-serif" font-size="6.35" letter-spacing="0" stroke-width=".264583" word-spacing="0" x="88.949661" y="99.821205"><tspan stroke-width=".264583" x="88.949661" y="99.821205">c</tspan></text><text font-family="sans-serif" font-size="6.35" letter-spacing="0" stroke-width=".264583" word-spacing="0" x="96.657646" y="99.821205"><tspan stroke-width=".264583" x="96.657646" y="99.821205">b</tspan></text><text font-family="sans-serif" font-size="6.35" letter-spacing="0" stroke-width=".264583" word-spacing="0" x="104.92993" y="99.821205"><tspan stroke-width=".264583" x="104.92993" y="99.821205">a</tspan></text><text font-family="sans-serif" font-size="6.35" letter-spacing="0" stroke-width=".264583" word-spacing="0" x="112.92007" y="99.821205"><tspan stroke-width=".264583" x="112.92007" y="99.821205">a</tspan></text><text font-family="sans-serif" font-size="6.35" letter-spacing="0" stroke-width=".264583" word-spacing="0" x="120.9102" y="99.821205"><tspan stroke-width=".264583" x="120.9102" y="99.821205">a</tspan></text><text font-family="sans-serif" font-size="6.35" letter-spacing="0" stroke-width=".264583" word-spacing="0" x="129.02437" y="99.821205"><tspan stroke-width=".264583" x="129.02437" y="99.821205">c</tspan></text><path d="m14.88638 107.98668h8v8h-8z" fill="#fff" stroke="#000" stroke-linecap="round" stroke-width=".235"/><path d="m22.886379 107.98668h8v8h-8z" fill="#fff" stroke="#000" stroke-linecap="round" stroke-width=".235"/><path d="m30.886379 107.98668h8v8h-8z" fill="#fff" stroke="#000" stroke-linecap="round" stroke-width=".235"/><path d="m38.886379 107.98668h8v8h-8z" fill="#d5fff6" stroke="#000" stroke-linecap="round" stroke-width=".235"/><path d="m46.886379 107.98668h8v8h-8z" fill="#d5fff6" stroke="#000" stroke-linecap="round" stroke-width=".235"/><path d="m54.886379 107.98668h8v8h-8z" fill="#dbe3de" stroke="#000" stroke-linecap="round" stroke-width=".235"/><path d="m62.886379 107.98668h8v8h-8z" fill="#fff" stroke="#000" stroke-linecap="round" stroke-width=".235"/><path d="m70.886383 107.98668h8v8h-8z" fill="#fff" stroke="#000" stroke-linecap="round" stroke-width=".235"/><path d="m78.886383 107.98668h8v8h-8z" fill="#fff" stroke="#000" stroke-linecap="round" stroke-width=".235"/><path d="m86.886383 107.98668h8v8h-8z" fill="#fff" stroke="#000" stroke-linecap="round" stroke-width=".235"/><path d="m94.886383 107.98668h8v8h-8z" fill="#fff" stroke="#000" stroke-linecap="round" stroke-width=".235"/><path d="m102.88638 107.98668h8v8h-8z" fill="#fff" stroke="#000" stroke-linecap="round" stroke-width=".235"/><path d="m110.88638 107.98668h8v8h-8z" fill="#fff" stroke="#000" stroke-linecap="round" stroke-width=".235"/><path d="m118.88638 107.98668h8v8h-8z" fill="#fff" stroke="#000" stroke-linecap="round" stroke-width=".235"/><path d="m126.88638 107.98668h8v8h-8z" fill="#fff" stroke="#000" stroke-linecap="round" stroke-width=".235"/><text font-family="sans-serif" font-size="6.35" letter-spacing="0" stroke-width=".264583" word-spacing="0" x="17.038431" y="114.35397"><tspan stroke-width=".264583" x="17.038431" y="114.35397">a</tspan></text><text font-family="sans-serif" font-size="6.35" letter-spacing="0" stroke-width=".264583" word-spacing="0" x="25.028566" y="114.35397"><tspan stroke-width=".264583" x="25.028566" y="114.35397">a</tspan></text><text font-family="sans-serif" font-size="6.35" letter-spacing="0" stroke-width=".264583" word-spacing="0" x="33.142727" y="114.35397"><tspan stroke-width=".264583" x="33.142727" y="114.35397">c</tspan></text><text font-family="sans-serif" font-size="6.35" letter-spacing="0" stroke-width=".264583" word-spacing="0" x="41.008842" y="114.35397"><tspan stroke-width=".264583" x="41.008842" y="114.35397">a</tspan></text><text font-family="sans-serif" font-size="6.35" letter-spacing="0" stroke-width=".264583" word-spacing="0" x="48.998978" y="114.35397"><tspan stroke-width=".264583" x="48.998978" y="114.35397">c</tspan></text><text font-family="sans-serif" font-size="6.35" letter-spacing="0" stroke-width=".264583" word-spacing="0" x="57.113136" y="114.35397"><tspan stroke-width=".264583" x="57.113136" y="114.35397">a</tspan></text><text font-family="sans-serif" font-size="6.35" letter-spacing="0" stroke-width=".264583" word-spacing="0" x="64.979248" y="114.35397"><tspan stroke-width=".264583" x="64.979248" y="114.35397">a</tspan></text><text font-family="sans-serif" font-size="6.35" letter-spacing="0" stroke-width=".264583" word-spacing="0" x="72.687225" y="114.35397"><tspan stroke-width=".264583" x="72.687225" y="114.35397">b</tspan></text><text font-family="sans-serif" font-size="6.35" letter-spacing="0" stroke-width=".264583" word-spacing="0" x="81.083549" y="114.35397"><tspan stroke-width=".264583" x="81.083549" y="114.35397">a</tspan></text><text font-family="sans-serif" font-size="6.35" letter-spacing="0" stroke-width=".264583" word-spacing="0" x="88.949661" y="114.35397"><tspan stroke-width=".264583" x="88.949661" y="114.35397">c</tspan></text><text font-family="sans-serif" font-size="6.35" letter-spacing="0" stroke-width=".264583" word-spacing="0" x="96.657646" y="114.35397"><tspan stroke-width=".264583" x="96.657646" y="114.35397">b</tspan></text><text font-family="sans-serif" font-size="6.35" letter-spacing="0" stroke-width=".264583" word-spacing="0" x="104.92993" y="114.35397"><tspan stroke-width=".264583" x="104.92993" y="114.35397">a</tspan></text><text font-family="sans-serif" font-size="6.35" letter-spacing="0" stroke-width=".264583" word-spacing="0" x="112.92007" y="114.35397"><tspan stroke-width=".264583" x="112.92007" y="114.35397">a</tspan></text><text font-family="sans-serif" font-size="6.35" letter-spacing="0" stroke-width=".264583" word-spacing="0" x="120.9102" y="114.35397"><tspan stroke-width=".264583" x="120.9102" y="114.35397">a</tspan></text><text font-family="sans-serif" font-size="6.35" letter-spacing="0" stroke-width=".264583" word-spacing="0" x="129.02437" y="114.35397"><tspan stroke-width=".264583" x="129.02437" y="114.35397">c</tspan></text><path d="m14.88638 122.51947h8v8h-8z" fill="#fff" stroke="#000" stroke-linecap="round" stroke-width=".235"/><path d="m22.886379 122.51947h8v8h-8z" fill="#fff" stroke="#000" stroke-linecap="round" stroke-width=".235"/><path d="m30.886379 122.51947h8v8h-8z" fill="#fff" stroke="#000" stroke-linecap="round" stroke-width=".235"/><path d="m38.886379 122.51947h8v8h-8z" fill="#fff" stroke="#000" stroke-linecap="round" stroke-width=".235"/><path d="m46.886379 122.51947h8v8h-8z" fill="#fff" stroke="#000" stroke-linecap="round" stroke-width=".235"/><path d="m54.886379 122.51947h8v8h-8z" fill="#fff" stroke="#000" stroke-linecap="round" stroke-width=".235"/><path d="m62.886379 122.51947h8v8h-8z" fill="#d5fff6" stroke="#000" stroke-linecap="round" stroke-width=".235"/><path d="m70.886383 122.51947h8v8h-8z" fill="#dbe3de" stroke="#000" stroke-linecap="round" stroke-width=".235"/><path d="m78.886383 122.51947h8v8h-8z" fill="#fff" stroke="#000" stroke-linecap="round" stroke-width=".235"/><path d="m86.886383 122.51947h8v8h-8z" fill="#fff" stroke="#000" stroke-linecap="round" stroke-width=".235"/><path d="m94.886383 122.51947h8v8h-8z" fill="#fff" stroke="#000" stroke-linecap="round" stroke-width=".235"/><path d="m102.88638 122.51947h8v8h-8z" fill="#fff" stroke="#000" stroke-linecap="round" stroke-width=".235"/><path d="m110.88638 122.51947h8v8h-8z" fill="#fff" stroke="#000" stroke-linecap="round" stroke-width=".235"/><path d="m118.88638 122.51947h8v8h-8z" fill="#fff" stroke="#000" stroke-linecap="round" stroke-width=".235"/><path d="m126.88638 122.51947h8v8h-8z" fill="#fff" stroke="#000" stroke-linecap="round" stroke-width=".235"/><text font-family="sans-serif" font-size="6.35" letter-spacing="0" stroke-width=".264583" word-spacing="0" x="17.038431" y="128.88676"><tspan stroke-width=".264583" x="17.038431" y="128.88676">a</tspan></text><text font-family="sans-serif" font-size="6.35" letter-spacing="0" stroke-width=".264583" word-spacing="0" x="25.028566" y="128.88676"><tspan stroke-width=".264583" x="25.028566" y="128.88676">a</tspan></text><text font-family="sans-serif" font-size="6.35" letter-spacing="0" stroke-width=".264583" word-spacing="0" x="33.142727" y="128.88676"><tspan stroke-width=".264583" x="33.142727" y="128.88676">c</tspan></text><text font-family="sans-serif" font-size="6.35" letter-spacing="0" stroke-width=".264583" word-spacing="0" x="41.008842" y="128.88676"><tspan stroke-width=".264583" x="41.008842" y="128.88676">a</tspan></text><text font-family="sans-serif" font-size="6.35" letter-spacing="0" stroke-width=".264583" word-spacing="0" x="48.998978" y="128.88676"><tspan stroke-width=".264583" x="48.998978" y="128.88676">c</tspan></text><text font-family="sans-serif" font-size="6.35" letter-spacing="0" stroke-width=".264583" word-spacing="0" x="57.113136" y="128.88676"><tspan stroke-width=".264583" x="57.113136" y="128.88676">a</tspan></text><text font-family="sans-serif" font-size="6.35" letter-spacing="0" stroke-width=".264583" word-spacing="0" x="64.979248" y="128.88676"><tspan stroke-width=".264583" x="64.979248" y="128.88676">a</tspan></text><text font-family="sans-serif" font-size="6.35" letter-spacing="0" stroke-width=".264583" word-spacing="0" x="72.687225" y="128.88676"><tspan stroke-width=".264583" x="72.687225" y="128.88676">b</tspan></text><text font-family="sans-serif" font-size="6.35" letter-spacing="0" stroke-width=".264583" word-spacing="0" x="81.083549" y="128.88676"><tspan stroke-width=".264583" x="81.083549" y="128.88676">a</tspan></text><text font-family="sans-serif" font-size="6.35" letter-spacing="0" stroke-width=".264583" word-spacing="0" x="88.949661" y="128.88676"><tspan stroke-width=".264583" x="88.949661" y="128.88676">c</tspan></text><text font-family="sans-serif" font-size="6.35" letter-spacing="0" stroke-width=".264583" word-spacing="0" x="96.657646" y="128.88676"><tspan stroke-width=".264583" x="96.657646" y="128.88676">b</tspan></text><text font-family="sans-serif" font-size="6.35" letter-spacing="0" stroke-width=".264583" word-spacing="0" x="104.92993" y="128.88676"><tspan stroke-width=".264583" x="104.92993" y="128.88676">a</tspan></text><text font-family="sans-serif" font-size="6.35" letter-spacing="0" stroke-width=".264583" word-spacing="0" x="112.92007" y="128.88676"><tspan stroke-width=".264583" x="112.92007" y="128.88676">a</tspan></text><text font-family="sans-serif" font-size="6.35" letter-spacing="0" stroke-width=".264583" word-spacing="0" x="120.9102" y="128.88676"><tspan stroke-width=".264583" x="120.9102" y="128.88676">a</tspan></text><text font-family="sans-serif" font-size="6.35" letter-spacing="0" stroke-width=".264583" word-spacing="0" x="129.02437" y="128.88676"><tspan stroke-width=".264583" x="129.02437" y="128.88676">c</tspan></text><path d="m14.88638 137.05225h8v8h-8z" fill="#fff" stroke="#000" stroke-linecap="round" stroke-width=".235"/><path d="m22.886379 137.05225h8v8h-8z" fill="#fff" stroke="#000" stroke-linecap="round" stroke-width=".235"/><path d="m30.886379 137.05225h8v8h-8z" fill="#fff" stroke="#000" stroke-linecap="round" stroke-width=".235"/><path d="m38.886379 137.05225h8v8h-8z" fill="#fff" stroke="#000" stroke-linecap="round" stroke-width=".235"/><path d="m46.886379 137.05225h8v8h-8z" fill="#fff" stroke="#000" stroke-linecap="round" stroke-width=".235"/><path d="m54.886379 137.05225h8v8h-8z" fill="#fff" stroke="#000" stroke-linecap="round" stroke-width=".235"/><path d="m62.886379 137.05225h8v8h-8z" fill="#fff" stroke="#000" stroke-linecap="round" stroke-width=".235"/><path d="m70.886383 137.05225h8v8h-8z" fill="#fff" stroke="#000" stroke-linecap="round" stroke-width=".235"/><path d="m78.886383 137.05225h8v8h-8z" fill="#d5fff6" stroke="#000" stroke-linecap="round" stroke-width=".235"/><path d="m86.886383 137.05225h8v8h-8z" fill="#d5fff6" stroke="#000" stroke-linecap="round" stroke-width=".235"/><path d="m94.886383 137.05225h8v8h-8z" fill="#dbe3de" stroke="#000" stroke-linecap="round" stroke-width=".235"/><path d="m102.88638 137.05225h8v8h-8z" fill="#fff" stroke="#000" stroke-linecap="round" stroke-width=".235"/><path d="m110.88638 137.05225h8v8h-8z" fill="#fff" stroke="#000" stroke-linecap="round" stroke-width=".235"/><path d="m118.88638 137.05225h8v8h-8z" fill="#fff" stroke="#000" stroke-linecap="round" stroke-width=".235"/><path d="m126.88638 137.05225h8v8h-8z" fill="#fff" stroke="#000" stroke-linecap="round" stroke-width=".235"/><text font-family="sans-serif" font-size="6.35" letter-spacing="0" stroke-width=".264583" word-spacing="0" x="17.038431" y="143.41954"><tspan stroke-width=".264583" x="17.038431" y="143.41954">a</tspan></text><text font-family="sans-serif" font-size="6.35" letter-spacing="0" stroke-width=".264583" word-spacing="0" x="25.028566" y="143.41954"><tspan stroke-width=".264583" x="25.028566" y="143.41954">a</tspan></text><text font-family="sans-serif" font-size="6.35" letter-spacing="0" stroke-width=".264583" word-spacing="0" x="33.142727" y="143.41954"><tspan stroke-width=".264583" x="33.142727" y="143.41954">c</tspan></text><text font-family="sans-serif" font-size="6.35" letter-spacing="0" stroke-width=".264583" word-spacing="0" x="41.008842" y="143.41954"><tspan stroke-width=".264583" x="41.008842" y="143.41954">a</tspan></text><text font-family="sans-serif" font-size="6.35" letter-spacing="0" stroke-width=".264583" word-spacing="0" x="48.998978" y="143.41954"><tspan stroke-width=".264583" x="48.998978" y="143.41954">c</tspan></text><text font-family="sans-serif" font-size="6.35" letter-spacing="0" stroke-width=".264583" word-spacing="0" x="57.113136" y="143.41954"><tspan stroke-width=".264583" x="57.113136" y="143.41954">a</tspan></text><text font-family="sans-serif" font-size="6.35" letter-spacing="0" stroke-width=".264583" word-spacing="0" x="64.979248" y="143.41954"><tspan stroke-width=".264583" x="64.979248" y="143.41954">a</tspan></text><text font-family="sans-serif" font-size="6.35" letter-spacing="0" stroke-width=".264583" word-spacing="0" x="72.687225" y="143.41954"><tspan stroke-width=".264583" x="72.687225" y="143.41954">b</tspan></text><text font-family="sans-serif" font-size="6.35" letter-spacing="0" stroke-width=".264583" word-spacing="0" x="81.083549" y="143.41954"><tspan stroke-width=".264583" x="81.083549" y="143.41954">a</tspan></text><text font-family="sans-serif" font-size="6.35" letter-spacing="0" stroke-width=".264583" word-spacing="0" x="88.949661" y="143.41954"><tspan stroke-width=".264583" x="88.949661" y="143.41954">c</tspan></text><text font-family="sans-serif" font-size="6.35" letter-spacing="0" stroke-width=".264583" word-spacing="0" x="96.657646" y="143.41954"><tspan stroke-width=".264583" x="96.657646" y="143.41954">b</tspan></text><text font-family="sans-serif" font-size="6.35" letter-spacing="0" stroke-width=".264583" word-spacing="0" x="104.92993" y="143.41954"><tspan stroke-width=".264583" x="104.92993" y="143.41954">a</tspan></text><text font-family="sans-serif" font-size="6.35" letter-spacing="0" stroke-width=".264583" word-spacing="0" x="112.92007" y="143.41954"><tspan stroke-width=".264583" x="112.92007" y="143.41954">a</tspan></text><text font-family="sans-serif" font-size="6.35" letter-spacing="0" stroke-width=".264583" word-spacing="0" x="120.9102" y="143.41954"><tspan stroke-width=".264583" x="120.9102" y="143.41954">a</tspan></text><text font-family="sans-serif" font-size="6.35" letter-spacing="0" stroke-width=".264583" word-spacing="0" x="129.02437" y="143.41954"><tspan stroke-width=".264583" x="129.02437" y="143.41954">c</tspan></text><path d="m22.886379 87.656118v5.011304" fill="none" marker-end="url(#g)" stroke="#000" stroke-width=".465"/><path d="m14.868293 73.05652v5.011304" fill="none" marker-end="url(#f)" stroke="#000" stroke-width=".465"/><path d="m38.85297 101.95504v5.0113" fill="none" marker-end="url(#e)" stroke="#000" stroke-width=".465"/><path d="m63.192019 116.53932v5.0113" fill="none" marker-end="url(#d)" stroke="#000" stroke-width=".465"/><path d="m78.545796 131.03695v5.0113" fill="none" marker-end="url(#c)" stroke="#000" stroke-width=".465"/><text font-family="sans-serif" font-size="6.35" letter-spacing="0" stroke-width=".264583" word-spacing="0" x="142.18738" y="85.288422"><tspan stroke-width=".264583" x="142.18738" y="85.288422">(0, 'a')</tspan></text><text font-family="sans-serif" font-size="6.35" letter-spacing="0" stroke-width=".264583" word-spacing="0" x="142.18738" y="99.821205"><tspan stroke-width=".264583" x="142.18738" y="99.821205">(1, 'c')</tspan></text><text font-family="sans-serif" font-size="6.35" letter-spacing="0" stroke-width=".264583" word-spacing="0" x="142.18738" y="114.35397"><tspan stroke-width=".264583" x="142.18738" y="114.35397">(2, 'a')</tspan></text><text font-family="sans-serif" font-size="6.35" letter-spacing="0" stroke-width=".264583" word-spacing="0" x="142.18738" y="128.88676"><tspan stroke-width=".264583" x="142.18738" y="128.88676">(1, 'b')</tspan></text><text font-family="sans-serif" font-size="6.35" letter-spacing="0" stroke-width=".264583" word-spacing="0" x="142.18738" y="143.41954"><tspan stroke-width=".264583" x="142.18738" y="143.41954">(2, 'b')</tspan></text><text font-family="sans-serif" font-size="6.35" letter-spacing="0" stroke-width=".264583" word-spacing="0" x="180.92993" y="85.288422"><tspan stroke-width=".264583" x="180.92993" y="85.288422">1→"a"</tspan></text><text font-family="sans-serif" font-size="6.35" letter-spacing="0" stroke-width=".264583" word-spacing="0" x="179.985" y="99.821205"><tspan stroke-width=".264583" x="179.985" y="99.821205">2→"ac"</tspan></text><text font-family="sans-serif" font-size="6.35" letter-spacing="0" stroke-width=".264583" word-spacing="0" x="179.22905" y="114.35397"><tspan stroke-width=".264583" x="179.22905" y="114.35397">3→"aca"</tspan></text><text font-family="sans-serif" font-size="6.35" letter-spacing="0" stroke-width=".264583" word-spacing="0" x="179.60703" y="128.88676"><tspan stroke-width=".264583" x="179.60703" y="128.88676">4→"ab"</tspan></text><text font-family="sans-serif" font-size="6.35" letter-spacing="0" stroke-width=".264583" word-spacing="0" x="179.41803" y="143.41954"><tspan stroke-width=".264583" x="179.41803" y="143.41954">5→"acb"</tspan></text><path d="m14.88638 151.9823h8v8h-8z" fill="#fff" stroke="#000" stroke-linecap="round" stroke-width=".235"/><path d="m22.886379 151.9823h8v8h-8z" fill="#fff" stroke="#000" stroke-linecap="round" stroke-width=".235"/><path d="m30.886379 151.9823h8v8h-8z" fill="#fff" stroke="#000" stroke-linecap="round" stroke-width=".235"/><path d="m38.886379 151.9823h8v8h-8z" fill="#fff" stroke="#000" stroke-linecap="round" stroke-width=".235"/><path d="m46.886379 151.9823h8v8h-8z" fill="#fff" stroke="#000" stroke-linecap="round" stroke-width=".235"/><path d="m54.886379 151.9823h8v8h-8z" fill="#fff" stroke="#000" stroke-linecap="round" stroke-width=".235"/><path d="m62.886379 151.9823h8v8h-8z" fill="#fff" stroke="#000" stroke-linecap="round" stroke-width=".235"/><path d="m70.886383 151.9823h8v8h-8z" fill="#fff" stroke="#000" stroke-linecap="round" stroke-width=".235"/><path d="m78.886383 151.9823h8v8h-8z" fill="#fff" stroke="#000" stroke-linecap="round" stroke-width=".235"/><path d="m86.886383 151.9823h8v8h-8z" fill="#fff" stroke="#000" stroke-linecap="round" stroke-width=".235"/><path d="m94.886383 151.9823h8v8h-8z" fill="#fff" stroke="#000" stroke-linecap="round" stroke-width=".235"/><path d="m102.88638 151.9823h8v8h-8z" fill="#d5fff6" stroke="#000" stroke-linecap="round" stroke-width=".235"/><path d="m110.88638 151.9823h8v8h-8z" fill="#dbe3de" stroke="#000" stroke-linecap="round" stroke-width=".235"/><path d="m118.88638 151.9823h8v8h-8z" fill="#fff" stroke="#000" stroke-linecap="round" stroke-width=".235"/><path d="m126.88638 151.9823h8v8h-8z" fill="#fff" stroke="#000" stroke-linecap="round" stroke-width=".235"/><text font-family="sans-serif" font-size="6.35" letter-spacing="0" stroke-width=".264583" word-spacing="0" x="17.038431" y="158.34959"><tspan stroke-width=".264583" x="17.038431" y="158.34959">a</tspan></text><text font-family="sans-serif" font-size="6.35" letter-spacing="0" stroke-width=".264583" word-spacing="0" x="25.028566" y="158.34959"><tspan stroke-width=".264583" x="25.028566" y="158.34959">a</tspan></text><text font-family="sans-serif" font-size="6.35" letter-spacing="0" stroke-width=".264583" word-spacing="0" x="33.142727" y="158.34959"><tspan stroke-width=".264583" x="33.142727" y="158.34959">c</tspan></text><text font-family="sans-serif" font-size="6.35" letter-spacing="0" stroke-width=".264583" word-spacing="0" x="41.008842" y="158.34959"><tspan stroke-width=".264583" x="41.008842" y="158.34959">a</tspan></text><text font-family="sans-serif" font-size="6.35" letter-spacing="0" stroke-width=".264583" word-spacing="0" x="48.998978" y="158.34959"><tspan stroke-width=".264583" x="48.998978" y="158.34959">c</tspan></text><text font-family="sans-serif" font-size="6.35" letter-spacing="0" stroke-width=".264583" word-spacing="0" x="57.113136" y="158.34959"><tspan stroke-width=".264583" x="57.113136" y="158.34959">a</tspan></text><text font-family="sans-serif" font-size="6.35" letter-spacing="0" stroke-width=".264583" word-spacing="0" x="64.979248" y="158.34959"><tspan stroke-width=".264583" x="64.979248" y="158.34959">a</tspan></text><text font-family="sans-serif" font-size="6.35" letter-spacing="0" stroke-width=".264583" word-spacing="0" x="72.687225" y="158.34959"><tspan stroke-width=".264583" x="72.687225" y="158.34959">b</tspan></text><text font-family="sans-serif" font-size="6.35" letter-spacing="0" stroke-width=".264583" word-spacing="0" x="81.083549" y="158.34959"><tspan stroke-width=".264583" x="81.083549" y="158.34959">a</tspan></text><text font-family="sans-serif" font-size="6.35" letter-spacing="0" stroke-width=".264583" word-spacing="0" x="88.949661" y="158.34959"><tspan stroke-width=".264583" x="88.949661" y="158.34959">c</tspan></text><text font-family="sans-serif" font-size="6.35" letter-spacing="0" stroke-width=".264583" word-spacing="0" x="96.657646" y="158.34959"><tspan stroke-width=".264583" x="96.657646" y="158.34959">b</tspan></text><text font-family="sans-serif" font-size="6.35" letter-spacing="0" stroke-width=".264583" word-spacing="0" x="104.92993" y="158.34959"><tspan stroke-width=".264583" x="104.92993" y="158.34959">a</tspan></text><text font-family="sans-serif" font-size="6.35" letter-spacing="0" stroke-width=".264583" word-spacing="0" x="112.92007" y="158.34959"><tspan stroke-width=".264583" x="112.92007" y="158.34959">a</tspan></text><text font-family="sans-serif" font-size="6.35" letter-spacing="0" stroke-width=".264583" word-spacing="0" x="120.9102" y="158.34959"><tspan stroke-width=".264583" x="120.9102" y="158.34959">a</tspan></text><text font-family="sans-serif" font-size="6.35" letter-spacing="0" stroke-width=".264583" word-spacing="0" x="129.02437" y="158.34959"><tspan stroke-width=".264583" x="129.02437" y="158.34959">c</tspan></text><path d="m102.73627 145.96701v5.0113" fill="none" marker-end="url(#b)" stroke="#000" stroke-width=".465"/><text font-family="sans-serif" font-size="6.35" letter-spacing="0" stroke-width=".264583" word-spacing="0" x="142.18738" y="158.34959"><tspan stroke-width=".264583" x="142.18738" y="158.34959">(1, 'a')</tspan></text><text font-family="sans-serif" font-size="6.35" letter-spacing="0" stroke-width=".264583" word-spacing="0" x="179.41803" y="158.34959"><tspan stroke-width=".264583" x="179.41803" y="158.34959">6→"aa"</tspan></text><path d="m14.88638 166.72337h8v8h-8z" fill="#fff" stroke="#000" stroke-linecap="round" stroke-width=".235"/><path d="m22.886379 166.72337h8v8h-8z" fill="#fff" stroke="#000" stroke-linecap="round" stroke-width=".235"/><path d="m30.886379 166.72337h8v8h-8z" fill="#fff" stroke="#000" stroke-linecap="round" stroke-width=".235"/><path d="m38.886379 166.72337h8v8h-8z" fill="#fff" stroke="#000" stroke-linecap="round" stroke-width=".235"/><path d="m46.886379 166.72337h8v8h-8z" fill="#fff" stroke="#000" stroke-linecap="round" stroke-width=".235"/><path d="m54.886379 166.72337h8v8h-8z" fill="#fff" stroke="#000" stroke-linecap="round" stroke-width=".235"/><path d="m62.886379 166.72337h8v8h-8z" fill="#fff" stroke="#000" stroke-linecap="round" stroke-width=".235"/><path d="m70.886383 166.72337h8v8h-8z" fill="#fff" stroke="#000" stroke-linecap="round" stroke-width=".235"/><path d="m78.886383 166.72337h8v8h-8z" fill="#fff" stroke="#000" stroke-linecap="round" stroke-width=".235"/><path d="m86.886383 166.72337h8v8h-8z" fill="#fff" stroke="#000" stroke-linecap="round" stroke-width=".235"/><path d="m94.886383 166.72337h8v8h-8z" fill="#fff" stroke="#000" stroke-linecap="round" stroke-width=".235"/><path d="m102.88638 166.72337h8v8h-8z" fill="#fff" stroke="#000" stroke-linecap="round" stroke-width=".235"/><path d="m110.88638 166.72337h8v8h-8z" fill="#fff" stroke="#000" stroke-linecap="round" stroke-width=".235"/><path d="m118.88638 166.72337h8v8h-8z" fill="#d5fff6" stroke="#000" stroke-linecap="round" stroke-width=".235"/><path d="m126.88638 166.72337h8v8h-8z" fill="#d5fff6" stroke="#000" stroke-linecap="round" stroke-width=".235"/><text font-family="sans-serif" font-size="6.35" letter-spacing="0" stroke-width=".264583" word-spacing="0" x="17.038431" y="173.09067"><tspan stroke-width=".264583" x="17.038431" y="173.09067">a</tspan></text><text font-family="sans-serif" font-size="6.35" letter-spacing="0" stroke-width=".264583" word-spacing="0" x="25.028566" y="173.09067"><tspan stroke-width=".264583" x="25.028566" y="173.09067">a</tspan></text><text font-family="sans-serif" font-size="6.35" letter-spacing="0" stroke-width=".264583" word-spacing="0" x="33.142727" y="173.09067"><tspan stroke-width=".264583" x="33.142727" y="173.09067">c</tspan></text><text font-family="sans-serif" font-size="6.35" letter-spacing="0" stroke-width=".264583" word-spacing="0" x="41.008842" y="173.09067"><tspan stroke-width=".264583" x="41.008842" y="173.09067">a</tspan></text><text font-family="sans-serif" font-size="6.35" letter-spacing="0" stroke-width=".264583" word-spacing="0" x="48.998978" y="173.09067"><tspan stroke-width=".264583" x="48.998978" y="173.09067">c</tspan></text><text font-family="sans-serif" font-size="6.35" letter-spacing="0" stroke-width=".264583" word-spacing="0" x="57.113136" y="173.09067"><tspan stroke-width=".264583" x="57.113136" y="173.09067">a</tspan></text><text font-family="sans-serif" font-size="6.35" letter-spacing="0" stroke-width=".264583" word-spacing="0" x="64.979248" y="173.09067"><tspan stroke-width=".264583" x="64.979248" y="173.09067">a</tspan></text><text font-family="sans-serif" font-size="6.35" letter-spacing="0" stroke-width=".264583" word-spacing="0" x="72.687225" y="173.09067"><tspan stroke-width=".264583" x="72.687225" y="173.09067">b</tspan></text><text font-family="sans-serif" font-size="6.35" letter-spacing="0" stroke-width=".264583" word-spacing="0" x="81.083549" y="173.09067"><tspan stroke-width=".264583" x="81.083549" y="173.09067">a</tspan></text><text font-family="sans-serif" font-size="6.35" letter-spacing="0" stroke-width=".264583" word-spacing="0" x="88.949661" y="173.09067"><tspan stroke-width=".264583" x="88.949661" y="173.09067">c</tspan></text><text font-family="sans-serif" font-size="6.35" letter-spacing="0" stroke-width=".264583" word-spacing="0" x="96.657646" y="173.09067"><tspan stroke-width=".264583" x="96.657646" y="173.09067">b</tspan></text><text font-family="sans-serif" font-size="6.35" letter-spacing="0" stroke-width=".264583" word-spacing="0" x="104.92993" y="173.09067"><tspan stroke-width=".264583" x="104.92993" y="173.09067">a</tspan></text><text font-family="sans-serif" font-size="6.35" letter-spacing="0" stroke-width=".264583" word-spacing="0" x="112.92007" y="173.09067"><tspan stroke-width=".264583" x="112.92007" y="173.09067">a</tspan></text><text font-family="sans-serif" font-size="6.35" letter-spacing="0" stroke-width=".264583" word-spacing="0" x="120.9102" y="173.09067"><tspan stroke-width=".264583" x="120.9102" y="173.09067">a</tspan></text><text font-family="sans-serif" font-size="6.35" letter-spacing="0" stroke-width=".264583" word-spacing="0" x="129.02437" y="173.09067"><tspan stroke-width=".264583" x="129.02437" y="173.09067">c</tspan></text><path d="m118.98925 160.70808v5.0113" fill="none" marker-end="url(#a)" stroke="#000" stroke-width=".465"/><text font-family="sans-serif" font-size="6.35" letter-spacing="0" stroke-width=".264583" word-spacing="0" x="142.18738" y="173.09067"><tspan stroke-width=".264583" x="142.18738" y="173.09067">(2, '')</tspan></text></g></svg>