<svg height="53.181671mm" viewBox="0 0 190.95399 53.181671" width="190.95399mm" xmlns="http://www.w3.org/2000/svg" xmlns:xlink="http://www.w3.org/1999/xlink"><marker id="a" orient="auto" overflow="visible" refX="0" refY="0"><path d="m0 0 5-5-17.5 5 17.5 5z" fill-rule="evenodd" stroke="#000" stroke-width="1pt" transform="matrix(-.4 0 0 -.4 -4 0)"/></marker><marker id="b" orient="auto" overflow="visible" refX="0" refY="0"><path d="m0 0 5-5-17.5 5 17.5 5z" fill-rule="evenodd" stroke="#000" stroke-width="1pt" transform="matrix(-.4 0 0 -.4 -4 0)"/></marker><marker id="c" orient="auto" overflow="visible" refX="0" refY="0"><path d="m0 0 5-5-17.5 5 17.5 5z" fill-rule="evenodd" stroke="#000" stroke-width="1pt" transform="matrix(-.4 0 0 -.4 -4 0)"/></marker><marker id="d" orient="auto" overflow="visible" refX="0" refY="0"><path d="m0 0 5-5-17.5 5 17.5 5z" fill-rule="evenodd" stroke="#000" stroke-width="1pt" transform="matrix(-.4 0 0 -.4 -4 0)"/></marker><g transform="translate(-9.495113 -124.97788)"><g transform="translate(0 -.377971)"><path d="m9.627613 143.63121h49.325893v16.630953h-49.325893z" fill="#ececec" stroke="#000" stroke-linecap="round" stroke-width=".265"/><text font-family="sans-serif" font-size="6.35" letter-spacing="0" stroke-width=".264583" word-spacing="0" x="14.363094" y="154.31398"><tspan stroke-width=".264583" x="14.363094" y="154.31398">First commit</tspan></text></g><path d="m80.309163 125.11038h49.325893v16.630953h-49.325893z" fill="#ececec" stroke="#000" stroke-linecap="round" stroke-width=".265"/><text font-family="sans-serif" font-size="6.35" letter-spacing="0" stroke-width=".264583" transform="translate(14.363094 2.645833)" word-spacing="0" x="78.282639" y="132.44348"><tspan stroke-width=".264583" x="78.282639" y="132.44348">__add__</tspan></text><g transform="translate(12.095234 13.607143)"><path d="m68.213928 147.78896h49.325893v16.630953h-49.325893z" fill="#ececec" stroke="#000" stroke-linecap="round" stroke-width=".265"/><text font-family="sans-serif" font-size="6.35" letter-spacing="0" stroke-width=".264583" word-spacing="0" x="80.445076" y="157.7679"><tspan stroke-width=".264583" x="80.445076" y="157.7679">is_close</tspan></text></g><g transform="translate(21.355655 4.724705)"><path d="m129.63506 138.52853h49.325893v16.630953h-49.325893z" fill="#ececec" stroke="#000" stroke-linecap="round" stroke-width=".265"/><text font-family="sans-serif" font-size="6.35" letter-spacing="0" stroke-width=".264583" word-spacing="0" x="144.24435" y="148.49817"><tspan stroke-width=".264583" x="144.24435" y="148.49817">Merge</tspan></text></g><g fill="none" stroke="#000" stroke-width=".665"><path d="m150.43452 151.47916-20.22172-18.52083" marker-end="url(#d)"/><path d="m150.43452 151.47916-20.22172 18.52083" marker-end="url(#c)"/><path d="m80.319937 132.3184-20.22172 18.52083" marker-end="url(#b)"/><path d="m80.319937 170.63992-20.22172-18.52083" marker-end="url(#a)"/></g></g></svg>