<svg height="70.603798mm" viewBox="0 0 96.74959 70.603798" width="96.749588mm" xmlns="http://www.w3.org/2000/svg"><g transform="translate(-33.473981 -105.27999)"><path d="m82.15761 105.27999v70.6038" fill="none" stroke="#000" stroke-dasharray="5.96056 5.96056" stroke-width=".745067"/><g stroke-width=".264583"><text fill="#00f" font-family="serif" font-size="9.525" font-style="italic" x="42.870148" y="125.3965">w</text><text font-family="serif" font-size="9.525" font-style="italic" x="59.664612" y="161.03143">v</text><path d="m47.695174 117.98817.396875.39688h-3.40651v.26458h3.40651l-.396875.39688 1.852083-.52917z" fill="#00f"/><path d="m63.061821 153.63129.396875.39688h-3.40651v.26458h3.40651l-.396875.39688 1.852083-.52917z"/></g><g fill="#00f" transform="matrix(.26458333 0 0 .26458333 14.232719 97.17607)"><path d="m74.65625 57.25-1.84375.75 34.9375 86.84375 1.84375-.75z"/><path d="m73.143445 69.129362-.420564-13.963074 9.366315 10.364192c-3.422551-.88085-7.031096.58388-8.945751 3.598882z" fill-rule="evenodd" stroke-linejoin="round" stroke-width=".625"/></g><g transform="matrix(-.16995586 .20277906 -.20277906 -.16995586 97.776858 163.23986)"><path d="m74.65625 57.25-1.84375.75 34.9375 86.84375 1.84375-.75z"/><path d="m73.143445 69.129362-.420564-13.963074 9.366315 10.364192c-3.422551-.88085-7.031096.58388-8.945751 3.598882z" fill-rule="evenodd"/></g><text fill="#00f" font-family="serif" font-size="9.525" font-style="italic" stroke-width=".264583" x="112.3349" y="125.3965">w</text><text font-family="serif" font-size="9.525" font-style="italic" stroke-width=".264583" x="98.39608" y="161.03143">v</text><path d="m117.15993 117.98817.39687.39688h-3.40651v.26458h3.40651l-.39687.39688 1.85208-.52917z" fill="#00f" stroke-width=".264583"/><path d="m101.79329 153.63129.39687.39688h-3.406508v.26458h3.406508l-.39687.39688 1.85208-.52917z" stroke-width=".264583"/><g fill="#00f" transform="matrix(-.26458333 0 0 .26458333 149.46483 97.17607)"><path d="m74.65625 57.25-1.84375.75 34.9375 86.84375 1.84375-.75z"/><path d="m73.143445 69.129362-.420564-13.963074 9.366315 10.364192c-3.422551-.88085-7.031096.58388-8.945751 3.598882z" fill-rule="evenodd" stroke-linejoin="round" stroke-width=".625"/></g><g transform="matrix(.16995586 .20277906 .20277906 -.16995586 65.920699 163.23986)"><path d="m74.65625 57.25-1.84375.75 34.9375 86.84375 1.84375-.75z"/><path d="m73.143445 69.129362-.420564-13.963074 9.366315 10.364192c-3.422551-.88085-7.031096.58388-8.945751 3.598882z" fill-rule="evenodd"/></g><path d="m67.283577 115.07997-11.75986 21.38156 19.243406-4.00904" fill="none" stroke="#d35f5f" stroke-width=".565"/><path d="m58.550521 130.95814a6.2808361 6.2808361 0 0 1 3.120294 4.21418l-6.147099 1.28921z" fill="none" stroke="#d35f5f" stroke-linecap="round" stroke-width=".565"/><text fill="#d35f5f" font-family="serif" font-size="9.525" font-style="italic" stroke-width=".264583" x="63.350491" y="130.82523">θ</text><path d="m97.800561 115.07997 11.759859 21.38156-19.243409-4.00904" fill="none" stroke="#d35f5f" stroke-width=".565"/><path d="m-106.53361 130.95814a6.2808361 6.2808361 0 0 1 3.12029 4.21418l-6.1471 1.28921z" fill="none" stroke="#d35f5f" stroke-linecap="round" stroke-width=".565" transform="scale(-1 1)"/><text fill="#d35f5f" font-family="serif" font-size="9.525" font-style="italic" stroke-width=".264583" x="96.005333" y="130.82523">θ</text><path d="m55.948946 136.53242a.61421132.61421132 0 0 1 -.475077.72719.61421132.61421132 0 0 1 -.727195-.47507.61421132.61421132 0 0 1 .475064-.7272.61421132.61421132 0 0 1 .727203.47506" fill="#668000" stroke="#668000" stroke-linecap="round" stroke-width=".565"/><path d="m110.28301 136.53242a.61421132.61421132 0 0 1 -.47507.72719.61421132.61421132 0 0 1 -.7272-.47507.61421132.61421132 0 0 1 .47507-.7272.61421132.61421132 0 0 1 .7272.47506" fill="#668000" stroke="#668000" stroke-linecap="round" stroke-width=".565"/><text fill="#668000" font-family="serif" font-size="9.525" font-style="italic" stroke-width=".264583" x="52.050335" y="146.66833"><tspan fill="#668000" font-style="normal">P</tspan></text><text fill="#668000" font-family="serif" font-size="9.525" font-style="italic" stroke-width=".264583" x="106.38441" y="146.66833"><tspan fill="#668000" font-style="normal">P</tspan></text></g></svg>