<svg height="55.17202mm" viewBox="0 0 110.00591 55.17202" width="110.00591mm" xmlns="http://www.w3.org/2000/svg" xmlns:xlink="http://www.w3.org/1999/xlink"><marker id="a" orient="auto" overflow="visible" refX="0" refY="0"><path d="m0 0 5-5-17.5 5 17.5 5z" fill-rule="evenodd" stroke="#000" stroke-width="1pt" transform="matrix(-.4 0 0 -.4 -4 0)"/></marker><marker id="b" orient="auto" overflow="visible" refX="0" refY="0"><path d="m0 0 5-5-17.5 5 17.5 5z" fill-rule="evenodd" stroke="#000" stroke-width="1pt" transform="matrix(-.4 0 0 -.4 -4 0)"/></marker><g stroke="#000" transform="translate(-64.441819 -132.21799)"><path d="m85.895089 165.55878 30.994041-30.89955" fill="none" marker-end="url(#b)" stroke-width=".965"/><path d="m87.12351 135.98214 28.15923 28.06473" fill="none" stroke-width=".264583"/><path d="m107.54607 161.02327a21.639137 21.639137 0 0 1 -16.737319 25.61949 21.639137 21.639137 0 0 1 -25.619639-16.7371 21.639137 21.639137 0 0 1 16.736874-25.61978 21.639137 21.639137 0 0 1 25.619934 16.73665" fill="#808080" stroke-linecap="round" stroke-width=".565"/><path d="m153.83631 165.55878 13.98511-30.89955" fill="none" marker-end="url(#a)" stroke-width=".965"/><path d="m150.34003 132.29687 24.0015 32.31696" fill="none" stroke-width=".264583"/><path d="m166.60897 161.02327a12.567709 21.639137 0 0 1 -9.72081 25.61949 12.567709 21.639137 0 0 1 -14.87953-16.7371 12.567709 21.639137 0 0 1 9.72055-25.61978 12.567709 21.639137 0 0 1 14.8797 16.73665" fill="#ccc" stroke-linecap="round" stroke-width=".565"/></g></svg>