<svg height="58.273903mm" viewBox="0 0 165.55536 58.273903" width="165.55536mm" xmlns="http://www.w3.org/2000/svg"><g stroke-width=".264583" transform="translate(-10.368672 -125.94036)"><g stroke="#000"><path d="m108.49339 158.88847 43.23084 17.63979 23.92062-21.64883-36.88319-8.08491z" fill="#c8b7b7"/><path d="m10.757598 164.36749 39.288619 9.9558 31.67144-14.9671-38.954534-10.15624z" fill="#c8b7b7"/><path d="m47.440341 140.98141-22.317006-5.87993-.200452 28.33057 22.584276 5.94675z" fill="#8a0"/><path d="m25.123335 135.10148 18.64205-9.02035 22.517457 6.21402-18.842501 8.68626z" fill="#efa"/><path d="m47.440341 140.98141.06682 28.39739 18.909318-8.88671-.133635-28.19694-18.842501 8.68626.06682 28.39739" fill="#d4ff2a"/><path d="m123.39366 130.29063 1.93771 28.93193 22.11655 7.88445.33409-33.67596z" fill="#8a0"/><path d="m123.39366 130.29063 19.5775-3.54132 21.78246 2.20497-16.97161 4.47677z" fill="#efa"/><path d="m147.78201 133.43105 16.97161-4.47677-2.07133 27.32831-15.23437 10.82442z" fill="#d4ff2a"/></g><text font-family="sans-serif" font-size="5.644444" letter-spacing="0" word-spacing="0" x="15.501766" y="183.04018"><tspan stroke-width=".264583" x="15.501766" y="183.04018">Orthogonal projection</tspan></text><text font-family="sans-serif" font-size="5.644444" letter-spacing="0" word-spacing="0" x="110.65825" y="183.04018"><tspan stroke-width=".264583" x="110.65825" y="183.04018">Perspective projection</tspan></text></g></svg>