<svg height="69.356956mm" viewBox="0 0 207.99095 69.356957" width="207.99095mm" xmlns="http://www.w3.org/2000/svg"><g transform="matrix(1.162696 0 0 1.162696 -20.17122221258 -134.807343)"><text font-family="sans-serif" font-size="6.35" letter-spacing="0" stroke-width=".264583" word-spacing="0" x="115.56622" y="130.05676"><tspan stroke-width=".264583" x="115.56622" y="130.05676">Image</tspan></text><path d="m116.11795 133.99426h8v8h-8z" fill="#d1c2c2" stroke="#000" stroke-linecap="round" stroke-width=".235"/><path d="m140.11795 133.99426h8v8h-8z" fill="#fac" stroke="#000" stroke-linecap="round" stroke-width=".235"/><text font-family="sans-serif" font-size="6.35" letter-spacing="0" stroke-width=".264583" word-spacing="0" x="118.27" y="140.36156"><tspan stroke-width=".264583" x="118.27" y="140.36156">1</tspan></text><text font-family="sans-serif" font-size="6.35" letter-spacing="0" stroke-width=".264583" word-spacing="0" x="142.24042" y="140.36156"><tspan stroke-width=".264583" x="142.24042" y="140.36156">4</tspan></text><path d="m156.11795 133.99426h8v8h-8z" fill="#d1c2c2" stroke="#000" stroke-linecap="round" stroke-width=".235"/><path d="m164.11795 133.99426h8v8h-8z" fill="#fd5" fill-opacity=".905882" stroke="#000" stroke-linecap="round" stroke-width=".235"/><path d="m188.11795 133.99426h8v8h-8z" fill="#d7f4e3" stroke="#000" stroke-linecap="round" stroke-width=".235"/><g font-family="sans-serif" font-size="6.35" letter-spacing="0" stroke-width=".264583" word-spacing="0"><text x="158.27" y="140.36156"><tspan stroke-width=".264583" x="158.27" y="140.36156">1</tspan></text><text x="166.26013" y="140.36156"><tspan stroke-width=".264583" x="166.26013" y="140.36156">2</tspan></text><text x="190.23056" y="140.36156"><tspan stroke-width=".264583" x="190.23056" y="140.36156">5</tspan></text></g><path d="m116.11795 141.99426h8v8h-8z" fill="#d1c2c2" stroke="#000" stroke-linecap="round" stroke-width=".235"/><path d="m140.11795 141.99426h8v8h-8z" fill="#fac" stroke="#000" stroke-linecap="round" stroke-width=".235"/><text font-family="sans-serif" font-size="6.35" letter-spacing="0" stroke-width=".264583" word-spacing="0" x="118.27" y="148.36156"><tspan stroke-width=".264583" x="118.27" y="148.36156">1</tspan></text><text font-family="sans-serif" font-size="6.35" letter-spacing="0" stroke-width=".264583" word-spacing="0" x="142.24042" y="148.36156"><tspan stroke-width=".264583" x="142.24042" y="148.36156">4</tspan></text><path d="m156.11795 141.99426h8v8h-8z" fill="#d1c2c2" stroke="#000" stroke-linecap="round" stroke-width=".235"/><text font-family="sans-serif" font-size="6.35" letter-spacing="0" stroke-width=".264583" word-spacing="0" x="158.27" y="148.36156"><tspan stroke-width=".264583" x="158.27" y="148.36156">1</tspan></text><path d="m116.11795 149.99426h8v8h-8z" fill="#d1c2c2" stroke="#000" stroke-linecap="round" stroke-width=".235"/><path d="m132.11795 149.99426h8v8h-8z" fill="#aade87" stroke="#000" stroke-linecap="round" stroke-width=".235"/><text font-family="sans-serif" font-size="6.35" letter-spacing="0" stroke-width=".264583" word-spacing="0" x="118.27" y="156.36156"><tspan stroke-width=".264583" x="118.27" y="156.36156">1</tspan></text><text font-family="sans-serif" font-size="6.35" letter-spacing="0" stroke-width=".264583" word-spacing="0" x="134.3743" y="156.36156"><tspan stroke-width=".264583" x="134.3743" y="156.36156">3</tspan></text><path d="m172.11795 149.99426h8v8h-8z" fill="#aade87" stroke="#000" stroke-linecap="round" stroke-width=".235"/><path d="m188.11795 149.99426h8v8h-8z" fill="#d7f4e3" stroke="#000" stroke-linecap="round" stroke-width=".235"/><text font-family="sans-serif" font-size="6.35" letter-spacing="0" stroke-width=".264583" word-spacing="0" x="174.3743" y="156.36156"><tspan stroke-width=".264583" x="174.3743" y="156.36156">3</tspan></text><text font-family="sans-serif" font-size="6.35" letter-spacing="0" stroke-width=".264583" word-spacing="0" x="190.23056" y="156.36156"><tspan stroke-width=".264583" x="190.23056" y="156.36156">5</tspan></text><path d="m116.11795 157.99426h8v8h-8z" fill="#d1c2c2" stroke="#000" stroke-linecap="round" stroke-width=".235"/><path d="m132.11795 157.99426h8v8h-8z" fill="#aade87" stroke="#000" stroke-linecap="round" stroke-width=".235"/><text font-family="sans-serif" font-size="6.35" letter-spacing="0" stroke-width=".264583" word-spacing="0" x="118.27" y="164.36156"><tspan stroke-width=".264583" x="118.27" y="164.36156">1</tspan></text><text font-family="sans-serif" font-size="6.35" letter-spacing="0" stroke-width=".264583" word-spacing="0" x="134.3743" y="164.36156"><tspan stroke-width=".264583" x="134.3743" y="164.36156">3</tspan></text><path d="m188.11795 157.99426h8v8h-8z" fill="#d7f4e3" stroke="#000" stroke-linecap="round" stroke-width=".235"/><text font-family="sans-serif" font-size="6.35" letter-spacing="0" stroke-width=".264583" word-spacing="0" x="190.23056" y="164.36156"><tspan stroke-width=".264583" x="190.23056" y="164.36156">5</tspan></text><path d="m124.11795 133.99426h8v8h-8z" fill="#d1c2c2" stroke="#000" stroke-linecap="round" stroke-width=".235"/><text font-family="sans-serif" font-size="6.35" letter-spacing="0" stroke-width=".264583" word-spacing="0" x="126.27" y="140.36156"><tspan stroke-width=".264583" x="126.27" y="140.36156">1</tspan></text><path d="m124.11795 141.99426h8v8h-8z" fill="#d1c2c2" stroke="#000" stroke-linecap="round" stroke-width=".235"/><text font-family="sans-serif" font-size="6.35" letter-spacing="0" stroke-width=".264583" word-spacing="0" x="126.27" y="148.36156"><tspan stroke-width=".264583" x="126.27" y="148.36156">1</tspan></text><path d="m124.11795 149.99426h8v8h-8z" fill="#d1c2c2" stroke="#000" stroke-linecap="round" stroke-width=".235"/><text font-family="sans-serif" font-size="6.35" letter-spacing="0" stroke-width=".264583" word-spacing="0" x="126.27" y="156.36156"><tspan stroke-width=".264583" x="126.27" y="156.36156">1</tspan></text><path d="m124.11795 157.99426h8v8h-8z" fill="#d1c2c2" stroke="#000" stroke-linecap="round" stroke-width=".235"/><text font-family="sans-serif" font-size="6.35" letter-spacing="0" stroke-width=".264583" word-spacing="0" x="126.27" y="164.36156"><tspan stroke-width=".264583" x="126.27" y="164.36156">1</tspan></text><path d="m132.11795 133.99426h8v8h-8z" fill="#d1c2c2" stroke="#000" stroke-linecap="round" stroke-width=".235"/><text font-family="sans-serif" font-size="6.35" letter-spacing="0" stroke-width=".264583" word-spacing="0" x="134.27" y="140.36156"><tspan stroke-width=".264583" x="134.27" y="140.36156">1</tspan></text><path d="m132.11795 141.99426h8v8h-8z" fill="#d1c2c2" stroke="#000" stroke-linecap="round" stroke-width=".235"/><text font-family="sans-serif" font-size="6.35" letter-spacing="0" stroke-width=".264583" word-spacing="0" x="134.27" y="148.36156"><tspan stroke-width=".264583" x="134.27" y="148.36156">1</tspan></text><path d="m140.11795 149.99426h8v8h-8z" fill="#aade87" stroke="#000" stroke-linecap="round" stroke-width=".235"/><text font-family="sans-serif" font-size="6.35" letter-spacing="0" stroke-width=".264583" word-spacing="0" x="142.3743" y="156.36156"><tspan stroke-width=".264583" x="142.3743" y="156.36156">3</tspan></text><path d="m140.11795 157.99426h8v8h-8z" fill="#aade87" stroke="#000" stroke-linecap="round" stroke-width=".235"/><text font-family="sans-serif" font-size="6.35" letter-spacing="0" stroke-width=".264583" word-spacing="0" x="142.3743" y="164.36156"><tspan stroke-width=".264583" x="142.3743" y="164.36156">3</tspan></text><path d="m148.11795 133.99426h8v8h-8z" fill="#fac" stroke="#000" stroke-linecap="round" stroke-width=".235"/><text font-family="sans-serif" font-size="6.35" letter-spacing="0" stroke-width=".264583" word-spacing="0" x="150.24042" y="140.36156"><tspan stroke-width=".264583" x="150.24042" y="140.36156">4</tspan></text><path d="m148.11795 141.99426h8v8h-8z" fill="#fac" stroke="#000" stroke-linecap="round" stroke-width=".235"/><text font-family="sans-serif" font-size="6.35" letter-spacing="0" stroke-width=".264583" word-spacing="0" x="150.24042" y="148.36156"><tspan stroke-width=".264583" x="150.24042" y="148.36156">4</tspan></text><path d="m148.11795 149.99426h8v8h-8z" fill="#aade87" stroke="#000" stroke-linecap="round" stroke-width=".235"/><text font-family="sans-serif" font-size="6.35" letter-spacing="0" stroke-width=".264583" word-spacing="0" x="150.3743" y="156.36156"><tspan stroke-width=".264583" x="150.3743" y="156.36156">3</tspan></text><path d="m148.11795 157.99426h8v8h-8z" fill="#aade87" stroke="#000" stroke-linecap="round" stroke-width=".235"/><text font-family="sans-serif" font-size="6.35" letter-spacing="0" stroke-width=".264583" word-spacing="0" x="150.3743" y="164.36156"><tspan stroke-width=".264583" x="150.3743" y="164.36156">3</tspan></text><path d="m156.11795 149.99426h8v8h-8z" fill="#aade87" stroke="#000" stroke-linecap="round" stroke-width=".235"/><text font-family="sans-serif" font-size="6.35" letter-spacing="0" stroke-width=".264583" word-spacing="0" x="158.3743" y="156.36156"><tspan stroke-width=".264583" x="158.3743" y="156.36156">3</tspan></text><path d="m156.11795 157.99426h8v8h-8z" fill="#aade87" stroke="#000" stroke-linecap="round" stroke-width=".235"/><text font-family="sans-serif" font-size="6.35" letter-spacing="0" stroke-width=".264583" word-spacing="0" x="158.3743" y="164.36156"><tspan stroke-width=".264583" x="158.3743" y="164.36156">3</tspan></text><path d="m164.11795 149.99426h8v8h-8z" fill="#aade87" stroke="#000" stroke-linecap="round" stroke-width=".235"/><text font-family="sans-serif" font-size="6.35" letter-spacing="0" stroke-width=".264583" word-spacing="0" x="166.3743" y="156.36156"><tspan stroke-width=".264583" x="166.3743" y="156.36156">3</tspan></text><path d="m164.11795 157.99426h8v8h-8z" fill="#d7f4e3" stroke="#000" stroke-linecap="round" stroke-width=".235"/><text font-family="sans-serif" font-size="6.35" letter-spacing="0" stroke-width=".264583" word-spacing="0" x="166.23056" y="164.36156"><tspan stroke-width=".264583" x="166.23056" y="164.36156">5</tspan></text><path d="m172.11795 157.99426h8v8h-8z" fill="#d7f4e3" stroke="#000" stroke-linecap="round" stroke-width=".235"/><text font-family="sans-serif" font-size="6.35" letter-spacing="0" stroke-width=".264583" word-spacing="0" x="174.23056" y="164.36156"><tspan stroke-width=".264583" x="174.23056" y="164.36156">5</tspan></text><path d="m180.11795 149.99426h8v8h-8z" fill="#d7f4e3" stroke="#000" stroke-linecap="round" stroke-width=".235"/><text font-family="sans-serif" font-size="6.35" letter-spacing="0" stroke-width=".264583" word-spacing="0" x="182.23056" y="156.36156"><tspan stroke-width=".264583" x="182.23056" y="156.36156">5</tspan></text><path d="m180.11795 157.99426h8v8h-8z" fill="#d7f4e3" stroke="#000" stroke-linecap="round" stroke-width=".235"/><text font-family="sans-serif" font-size="6.35" letter-spacing="0" stroke-width=".264583" word-spacing="0" x="182.23056" y="164.36156"><tspan stroke-width=".264583" x="182.23056" y="164.36156">5</tspan></text><path d="m172.11795 133.99426h8v8h-8z" fill="#fd5" fill-opacity=".905882" stroke="#000" stroke-linecap="round" stroke-width=".235"/><text font-family="sans-serif" font-size="6.35" letter-spacing="0" stroke-width=".264583" word-spacing="0" x="174.26015" y="140.36156"><tspan stroke-width=".264583" x="174.26015" y="140.36156">2</tspan></text><path d="m180.11795 133.99426h8v8h-8z" fill="#fd5" fill-opacity=".905882" stroke="#000" stroke-linecap="round" stroke-width=".235"/><text font-family="sans-serif" font-size="6.35" letter-spacing="0" stroke-width=".264583" word-spacing="0" x="182.26015" y="140.36156"><tspan stroke-width=".264583" x="182.26015" y="140.36156">2</tspan></text><path d="m164.11795 141.99426h8v8h-8z" fill="#fd5" fill-opacity=".905882" stroke="#000" stroke-linecap="round" stroke-width=".235"/><path d="m188.11795 141.99426h8v8h-8z" fill="#d7f4e3" stroke="#000" stroke-linecap="round" stroke-width=".235"/><text font-family="sans-serif" font-size="6.35" letter-spacing="0" stroke-width=".264583" word-spacing="0" x="166.26013" y="148.36156"><tspan stroke-width=".264583" x="166.26013" y="148.36156">2</tspan></text><text font-family="sans-serif" font-size="6.35" letter-spacing="0" stroke-width=".264583" word-spacing="0" x="190.23056" y="148.36156"><tspan stroke-width=".264583" x="190.23056" y="148.36156">5</tspan></text><path d="m172.11795 141.99426h8v8h-8z" fill="#fd5" fill-opacity=".905882" stroke="#000" stroke-linecap="round" stroke-width=".235"/><text font-family="sans-serif" font-size="6.35" letter-spacing="0" stroke-width=".264583" word-spacing="0" x="174.26015" y="148.36156"><tspan stroke-width=".264583" x="174.26015" y="148.36156">2</tspan></text><path d="m180.11795 141.99426h8v8h-8z" fill="#fd5" fill-opacity=".905882" stroke="#000" stroke-linecap="round" stroke-width=".235"/><text font-family="sans-serif" font-size="6.35" letter-spacing="0" stroke-width=".264583" word-spacing="0" x="182.26015" y="148.36156"><tspan stroke-width=".264583" x="182.26015" y="148.36156">2</tspan></text></g><g transform="matrix(1.162696 0 0 1.162696 -9.623908 -127.55644867721)"><text font-family="sans-serif" font-size="6.35" letter-spacing="0" stroke-width=".264583" word-spacing="0" x="7.654018" y="114.53199"><tspan stroke-width=".264583" x="7.654018" y="114.53199">Palette</tspan></text><path d="m8.394735 119.22545h8v8h-8z" fill="#d5c8c8" stroke="#000" stroke-linecap="round" stroke-width=".235"/><text font-family="sans-serif" font-size="6.35" letter-spacing="0" stroke-width=".264583" word-spacing="0" x="10.546785" y="125.59274"><tspan stroke-width=".264583" x="10.546785" y="125.59274">1</tspan></text><text font-family="sans-serif" font-size="6.35" letter-spacing="0" stroke-width=".264583" word-spacing="0" x="19.767584" y="125.59274"><tspan stroke-width=".264583" x="19.767584" y="125.59274">sRGB(0, 34, 207)</tspan></text><g transform="translate(0 2.504095)"><path d="m8.394735 127.22545h8v8h-8z" fill="#fd5" fill-opacity=".905882" stroke="#000" stroke-linecap="round" stroke-width=".235"/><g font-family="sans-serif" font-size="6.35" letter-spacing="0" stroke-width=".264583" word-spacing="0"><text x="10.536924" y="133.59274"><tspan stroke-width=".264583" x="10.536924" y="133.59274">2</tspan></text><text x="19.767584" y="133.59274"><tspan stroke-width=".264583" x="19.767584" y="133.59274">sRGB(34, 255, 170)</tspan></text></g></g><g transform="translate(0 5.008185)"><path d="m8.394735 135.22545h8v8h-8z" fill="#aade87" stroke="#000" stroke-linecap="round" stroke-width=".235"/><g font-family="sans-serif" font-size="6.35" letter-spacing="0" stroke-width=".264583" word-spacing="0"><text x="10.651083" y="141.59274"><tspan stroke-width=".264583" x="10.651083" y="141.59274">3</tspan></text><text x="19.767584" y="141.59274"><tspan stroke-width=".264583" x="19.767584" y="141.59274">sRGB(68, 145, 179)</tspan></text></g></g><g transform="translate(0 7.512278)"><path d="m8.394735 143.22545h8v8h-8z" fill="#fac" stroke="#000" stroke-linecap="round" stroke-width=".235"/><g font-family="sans-serif" font-size="6.35" letter-spacing="0" stroke-width=".264583" word-spacing="0"><text x="10.517195" y="149.59274"><tspan stroke-width=".264583" x="10.517195" y="149.59274">4</tspan></text><text x="19.767584" y="149.59274"><tspan stroke-width=".264583" x="19.767584" y="149.59274">sRGB(238, 255, 213)</tspan></text></g></g><g transform="translate(0 10.016369)"><path d="m8.394735 151.22545h8v8h-8z" fill="#d7f4e3" stroke="#000" stroke-linecap="round" stroke-width=".235"/><g font-family="sans-serif" font-size="6.35" letter-spacing="0" stroke-width=".264583" word-spacing="0"><text x="10.507345" y="157.59274"><tspan stroke-width=".264583" x="10.507345" y="157.59274">5</tspan></text><text x="19.767584" y="157.59274"><tspan stroke-width=".264583" x="19.767584" y="157.59274">sRGB(103, 145, 230)</tspan></text></g></g></g></svg>