<?xml version="1.0" encoding="UTF-8" standalone="no"?>
<!-- Created with Inkscape (http://www.inkscape.org/) -->

<svg
   width="103.23566mm"
   height="54.383049mm"
   viewBox="0 0 103.23566 54.383049"
   version="1.1"
   id="svg1"
   inkscape:version="1.3.2 (091e20ef0f, 2023-11-25, custom)"
   sodipodi:docname="parallelogram.svg"
   xmlns:inkscape="http://www.inkscape.org/namespaces/inkscape"
   xmlns:sodipodi="http://sodipodi.sourceforge.net/DTD/sodipodi-0.dtd"
   xmlns="http://www.w3.org/2000/svg"
   xmlns:svg="http://www.w3.org/2000/svg">
  <sodipodi:namedview
     id="namedview1"
     pagecolor="#ffffff"
     bordercolor="#000000"
     borderopacity="0.25"
     inkscape:showpageshadow="2"
     inkscape:pageopacity="0.0"
     inkscape:pagecheckerboard="0"
     inkscape:deskcolor="#d1d1d1"
     inkscape:document-units="mm"
     inkscape:zoom="3.9458701"
     inkscape:cx="266.101"
     inkscape:cy="67.03211"
     inkscape:window-width="1902"
     inkscape:window-height="989"
     inkscape:window-x="0"
     inkscape:window-y="46"
     inkscape:window-maximized="1"
     inkscape:current-layer="layer1" />
  <defs
     id="defs1">
    <marker
       style="overflow:visible"
       id="marker3"
       refX="0"
       refY="0"
       orient="auto-start-reverse"
       inkscape:stockid="Triangle arrow"
       markerWidth="1"
       markerHeight="1"
       viewBox="0 0 1 1"
       inkscape:isstock="true"
       inkscape:collect="always"
       preserveAspectRatio="xMidYMid">
      <path
         transform="scale(0.5)"
         style="fill:context-stroke;fill-rule:evenodd;stroke:context-stroke;stroke-width:1pt"
         d="M 5.77,0 -2.88,5 V -5 Z"
         id="path3" />
    </marker>
    <marker
       style="overflow:visible"
       id="Triangle"
       refX="0"
       refY="0"
       orient="auto-start-reverse"
       inkscape:stockid="Triangle arrow"
       markerWidth="1"
       markerHeight="1"
       viewBox="0 0 1 1"
       inkscape:isstock="true"
       inkscape:collect="always"
       preserveAspectRatio="xMidYMid">
      <path
         transform="scale(0.5)"
         style="fill:context-stroke;fill-rule:evenodd;stroke:context-stroke;stroke-width:1pt"
         d="M 5.77,0 -2.88,5 V -5 Z"
         id="path135" />
    </marker>
  </defs>
  <g
     inkscape:label="Layer 1"
     inkscape:groupmode="layer"
     id="layer1"
     transform="translate(-62.560701,-98.769403)">
    <g
       id="g20"
       transform="matrix(1.66695,0,0,1.66695,-41.724858,-102.14503)">
      <path
         style="fill:#afe9af;stroke:#1a1a1a;stroke-width:0.1;stroke-linecap:square;stroke-dasharray:none;paint-order:markers fill stroke"
         d="m 67.589653,150.86976 25.54728,-3.21855 8.448707,-25.74844 -25.748438,4.1573 z"
         id="path1" />
      <path
         style="fill:none;stroke:#1a1a1a;stroke-width:0.3;stroke-linecap:square;stroke-dasharray:none;marker-start:url(#Triangle);marker-end:url(#marker3);paint-order:markers fill stroke"
         d="m 75.45905,127.04526 -7.894394,23.80172 24.554417,-3.05523"
         id="path2"
         sodipodi:nodetypes="ccc" />
      <g
         inkscape:label=""
         transform="translate(89.327579,148.99762)"
         id="g5">
        <g
           fill="#000000"
           fill-opacity="1"
           id="g3"
           transform="matrix(0.352778,0,0,0.352778,-0.839518,-0.699779)">
          <g
             id="use2"
             transform="translate(1.421,12.218)">
            <path
               d="M 7.671875,-8.5625 C 7.5,-8.40625 6.96875,-7.90625 6.96875,-7.703125 c 0,0.140625 0.125,0.265625 0.28125,0.265625 0.125,0 0.1875,-0.078125 0.28125,-0.21875 0.34375,-0.4375 0.734375,-0.703125 1.0625,-0.890625 0.140625,-0.09375 0.234375,-0.125 0.234375,-0.28125 0,-0.140625 -0.109375,-0.203125 -0.1875,-0.28125 C 8.234375,-9.375 8.140625,-9.765625 8.09375,-9.9375 8.046875,-10.0625 8,-10.234375 7.796875,-10.234375 c -0.078125,0 -0.25,0.0625 -0.25,0.28125 0,0.125 0.078125,0.46875 0.359375,0.859375 H 3.078125 c -0.234375,0 -0.484375,0 -0.484375,0.265625 0,0.265625 0.265625,0.265625 0.484375,0.265625 z m 0,0"
               id="path4" />
          </g>
        </g>
        <g
           fill="#000000"
           fill-opacity="1"
           id="g4"
           transform="matrix(0.352778,0,0,0.352778,-0.839518,-0.699779)">
          <g
             id="use3"
             transform="translate(1.98911,12.218)">
            <path
               d="m 6.5625,-5.359375 c 0,-0.90625 -0.46875,-0.96875 -0.578125,-0.96875 -0.34375,0 -0.65625,0.34375 -0.65625,0.640625 0,0.171875 0.09375,0.265625 0.15625,0.328125 C 5.625,-5.234375 6,-4.84375 6,-4.109375 6,-3.5 5.140625,-0.140625 3.40625,-0.140625 c -0.875,0 -1.046875,-0.734375 -1.046875,-1.265625 0,-0.71875 0.34375,-1.71875 0.71875,-2.75 C 3.3125,-4.75 3.375,-4.890625 3.375,-5.171875 c 0,-0.609375 -0.4375,-1.15625 -1.140625,-1.15625 -1.3125,0 -1.84375,2.078125 -1.84375,2.203125 0,0.046875 0.046875,0.125 0.15625,0.125 C 0.671875,-4 0.6875,-4.0625 0.75,-4.265625 1.09375,-5.5 1.65625,-6.03125 2.1875,-6.03125 c 0.140625,0 0.375,0 0.375,0.46875 0,0.375 -0.15625,0.78125 -0.375,1.328125 -0.6875,1.84375 -0.6875,2.28125 -0.6875,2.625 0,0.3125 0.046875,0.90625 0.5,1.3125 0.515625,0.4375 1.234375,0.4375 1.359375,0.4375 2.375,0 3.203125,-4.6875 3.203125,-5.5 z m 0,0"
               id="path5" />
          </g>
        </g>
      </g>
      <g
         inkscape:label=""
         transform="translate(67.232752,131.69159)"
         id="g10">
        <g
           fill="#000000"
           fill-opacity="1"
           id="g7"
           transform="matrix(0.352778,0,0,0.352778,-0.840424,-0.699779)">
          <g
             id="g6"
             transform="translate(3.7620001,12.218)">
            <path
               d="M 7.671875,-8.5625 C 7.5,-8.40625 6.96875,-7.90625 6.96875,-7.703125 c 0,0.140625 0.125,0.265625 0.28125,0.265625 0.125,0 0.1875,-0.078125 0.28125,-0.21875 0.34375,-0.4375 0.734375,-0.703125 1.0625,-0.890625 0.140625,-0.09375 0.234375,-0.125 0.234375,-0.28125 0,-0.140625 -0.109375,-0.203125 -0.1875,-0.28125 C 8.234375,-9.375 8.140625,-9.765625 8.09375,-9.9375 8.046875,-10.0625 8,-10.234375 7.796875,-10.234375 c -0.078125,0 -0.25,0.0625 -0.25,0.28125 0,0.125 0.078125,0.46875 0.359375,0.859375 H 3.078125 c -0.234375,0 -0.484375,0 -0.484375,0.265625 0,0.265625 0.265625,0.265625 0.484375,0.265625 z m 0,0"
               id="path6" />
          </g>
        </g>
        <g
           fill="#000000"
           fill-opacity="1"
           id="g9"
           transform="matrix(0.352778,0,0,0.352778,-0.840424,-0.699779)">
          <g
             id="g8"
             transform="translate(1.991679,12.218)">
            <path
               d="m 4.9375,-0.875 c 0.3125,0.859375 1.203125,1.015625 1.75,1.015625 1.09375,0 1.734375,-0.9375 2.140625,-1.9375 C 9.15625,-2.625 9.6875,-4.515625 9.6875,-5.359375 c 0,-0.875 -0.453125,-0.96875 -0.578125,-0.96875 -0.34375,0 -0.65625,0.34375 -0.65625,0.640625 0,0.171875 0.09375,0.265625 0.171875,0.328125 0.125,0.125 0.5,0.515625 0.5,1.25 0,0.5 -0.40625,1.84375 -0.703125,2.515625 -0.40625,0.875 -0.9375,1.453125 -1.6875,1.453125 C 5.9375,-0.140625 5.6875,-0.75 5.6875,-1.40625 c 0,-0.421875 0.125,-0.921875 0.171875,-1.15625 L 6.46875,-4.984375 c 0.078125,-0.28125 0.203125,-0.78125 0.203125,-0.84375 C 6.671875,-6.03125 6.5,-6.1875 6.28125,-6.1875 c -0.421875,0 -0.515625,0.359375 -0.59375,0.703125 -0.15625,0.5625 -0.75,2.984375 -0.8125,3.296875 -0.0625,0.25 -0.0625,0.40625 -0.0625,0.71875 0,0.34375 -0.453125,0.890625 -0.46875,0.921875 -0.15625,0.15625 -0.390625,0.40625 -0.828125,0.40625 C 2.375,-0.140625 2.375,-1.21875 2.375,-1.46875 c 0,-0.453125 0.109375,-1.078125 0.75,-2.796875 0.171875,-0.4375 0.25,-0.625 0.25,-0.90625 0,-0.609375 -0.4375,-1.15625 -1.140625,-1.15625 -1.3125,0 -1.84375,2.078125 -1.84375,2.203125 0,0.046875 0.046875,0.125 0.15625,0.125 0.125,0 0.140625,-0.0625 0.203125,-0.265625 0.359375,-1.25 0.90625,-1.765625 1.4375,-1.765625 0.15625,0 0.375,0 0.375,0.46875 0,0.0625 0,0.375 -0.234375,1 C 1.65625,-2.765625 1.5,-2.1875 1.5,-1.640625 c 0,1.515625 1.234375,1.78125 1.96875,1.78125 0.25,0 0.890625,0 1.46875,-1.015625 z m 0,0"
               id="path7" />
          </g>
        </g>
      </g>
      <g
         inkscape:label=""
         transform="translate(62.5607,149.69633)"
         id="g11">
        <g
           fill="#000000"
           fill-opacity="1"
           id="g2"
           transform="matrix(0.352778,0,0,0.352778,-0.940109,-0.704894)">
          <g
             id="use1"
             transform="translate(1.993,11.795)">
            <path
               d="m 4.25,-4.5625 h 2.40625 c 1.984375,0 3.953125,-1.46875 3.953125,-3.09375 0,-1.125 -0.9375,-2.140625 -2.75,-2.140625 h -4.4375 c -0.265625,0 -0.390625,0 -0.390625,0.265625 0,0.15625 0.125,0.15625 0.34375,0.15625 0.875,0 0.875,0.109375 0.875,0.265625 0,0.03125 0,0.109375 -0.0625,0.328125 L 2.25,-1.0625 c -0.125,0.5 -0.15625,0.640625 -1.15625,0.640625 -0.28125,0 -0.421875,0 -0.421875,0.265625 C 0.671875,0 0.796875,0 0.890625,0 1.15625,0 1.453125,-0.03125 1.71875,-0.03125 h 1.6875 C 3.671875,-0.03125 3.96875,0 4.25,0 c 0.109375,0 0.265625,0 0.265625,-0.265625 0,-0.15625 -0.125,-0.15625 -0.34375,-0.15625 -0.859375,0 -0.875,-0.09375 -0.875,-0.234375 0,-0.078125 0.015625,-0.171875 0.03125,-0.25 z m 1.03125,-4.265625 c 0.125,-0.53125 0.1875,-0.546875 0.75,-0.546875 H 7.4375 c 1.078125,0 1.96875,0.34375 1.96875,1.421875 0,0.359375 -0.1875,1.578125 -0.84375,2.25 -0.25,0.25 -0.9375,0.796875 -2.234375,0.796875 h -2.03125 z m 0,0"
               id="path10" />
          </g>
        </g>
      </g>
      <g
         inkscape:label=""
         transform="translate(102.32326,120.52817)"
         id="g19">
        <g
           fill="#000000"
           fill-opacity="1"
           id="g12"
           transform="matrix(0.352778,0,0,0.352778,-0.940109,-0.700132)">
          <g
             id="use5"
             transform="translate(1.993,12.219)">
            <path
               d="m 4.25,-4.5625 h 2.40625 c 1.984375,0 3.953125,-1.46875 3.953125,-3.09375 0,-1.125 -0.9375,-2.140625 -2.75,-2.140625 h -4.4375 c -0.265625,0 -0.390625,0 -0.390625,0.265625 0,0.15625 0.125,0.15625 0.34375,0.15625 0.875,0 0.875,0.109375 0.875,0.265625 0,0.03125 0,0.109375 -0.0625,0.328125 L 2.25,-1.0625 c -0.125,0.5 -0.15625,0.640625 -1.15625,0.640625 -0.28125,0 -0.421875,0 -0.421875,0.265625 C 0.671875,0 0.796875,0 0.890625,0 1.15625,0 1.453125,-0.03125 1.71875,-0.03125 h 1.6875 C 3.671875,-0.03125 3.96875,0 4.25,0 c 0.109375,0 0.265625,0 0.265625,-0.265625 0,-0.15625 -0.125,-0.15625 -0.34375,-0.15625 -0.859375,0 -0.875,-0.09375 -0.875,-0.234375 0,-0.078125 0.015625,-0.171875 0.03125,-0.25 z m 1.03125,-4.265625 c 0.125,-0.53125 0.1875,-0.546875 0.75,-0.546875 H 7.4375 c 1.078125,0 1.96875,0.34375 1.96875,1.421875 0,0.359375 -0.1875,1.578125 -0.84375,2.25 -0.25,0.25 -0.9375,0.796875 -2.234375,0.796875 h -2.03125 z m 0,0"
               id="path12" />
          </g>
        </g>
        <g
           fill="#000000"
           fill-opacity="1"
           id="g13"
           transform="matrix(0.352778,0,0,0.352778,-0.940109,-0.700132)">
          <g
             id="use6"
             transform="translate(16.186001,12.219)">
            <path
               d="M 5.71875,-3.3125 H 9.6875 c 0.203125,0 0.453125,0 0.453125,-0.265625 0,-0.265625 -0.25,-0.265625 -0.453125,-0.265625 H 5.71875 v -3.953125 c 0,-0.203125 0,-0.46875 -0.25,-0.46875 -0.28125,0 -0.28125,0.25 -0.28125,0.46875 V -3.84375 H 1.234375 c -0.203125,0 -0.453125,0 -0.453125,0.265625 0,0.265625 0.234375,0.265625 0.453125,0.265625 H 5.1875 v 3.953125 c 0,0.203125 0,0.46875 0.265625,0.46875 0.265625,0 0.265625,-0.25 0.265625,-0.46875 z m 0,0"
               id="path13" />
          </g>
        </g>
        <g
           fill="#000000"
           fill-opacity="1"
           id="g14"
           transform="matrix(0.352778,0,0,0.352778,-0.940109,-0.700132)">
          <g
             id="use7"
             transform="translate(29.726999,12.219)">
            <path
               d="M 7.671875,-8.5625 C 7.5,-8.40625 6.96875,-7.90625 6.96875,-7.703125 c 0,0.140625 0.125,0.265625 0.28125,0.265625 0.125,0 0.1875,-0.078125 0.28125,-0.21875 0.34375,-0.4375 0.734375,-0.703125 1.0625,-0.890625 0.140625,-0.09375 0.234375,-0.125 0.234375,-0.28125 0,-0.140625 -0.109375,-0.203125 -0.1875,-0.28125 C 8.234375,-9.375 8.140625,-9.765625 8.09375,-9.9375 8.046875,-10.0625 8,-10.234375 7.796875,-10.234375 c -0.078125,0 -0.25,0.0625 -0.25,0.28125 0,0.125 0.078125,0.46875 0.359375,0.859375 H 3.078125 c -0.234375,0 -0.484375,0 -0.484375,0.265625 0,0.265625 0.265625,0.265625 0.484375,0.265625 z m 0,0"
               id="path14" />
          </g>
        </g>
        <g
           fill="#000000"
           fill-opacity="1"
           id="g15"
           transform="matrix(0.352778,0,0,0.352778,-0.940109,-0.700132)">
          <g
             id="use8"
             transform="translate(30.295111,12.219)">
            <path
               d="m 6.5625,-5.359375 c 0,-0.90625 -0.46875,-0.96875 -0.578125,-0.96875 -0.34375,0 -0.65625,0.34375 -0.65625,0.640625 0,0.171875 0.09375,0.265625 0.15625,0.328125 C 5.625,-5.234375 6,-4.84375 6,-4.109375 6,-3.5 5.140625,-0.140625 3.40625,-0.140625 c -0.875,0 -1.046875,-0.734375 -1.046875,-1.265625 0,-0.71875 0.34375,-1.71875 0.71875,-2.75 C 3.3125,-4.75 3.375,-4.890625 3.375,-5.171875 c 0,-0.609375 -0.4375,-1.15625 -1.140625,-1.15625 -1.3125,0 -1.84375,2.078125 -1.84375,2.203125 0,0.046875 0.046875,0.125 0.15625,0.125 C 0.671875,-4 0.6875,-4.0625 0.75,-4.265625 1.09375,-5.5 1.65625,-6.03125 2.1875,-6.03125 c 0.140625,0 0.375,0 0.375,0.46875 0,0.375 -0.15625,0.78125 -0.375,1.328125 -0.6875,1.84375 -0.6875,2.28125 -0.6875,2.625 0,0.3125 0.046875,0.90625 0.5,1.3125 0.515625,0.4375 1.234375,0.4375 1.359375,0.4375 2.375,0 3.203125,-4.6875 3.203125,-5.5 z m 0,0"
               id="path15" />
          </g>
        </g>
        <g
           fill="#000000"
           fill-opacity="1"
           id="g16"
           transform="matrix(0.352778,0,0,0.352778,-0.940109,-0.700132)">
          <g
             id="use9"
             transform="translate(40.792999,12.219)">
            <path
               d="M 5.71875,-3.3125 H 9.6875 c 0.203125,0 0.453125,0 0.453125,-0.265625 0,-0.265625 -0.25,-0.265625 -0.453125,-0.265625 H 5.71875 v -3.953125 c 0,-0.203125 0,-0.46875 -0.25,-0.46875 -0.28125,0 -0.28125,0.25 -0.28125,0.46875 V -3.84375 H 1.234375 c -0.203125,0 -0.453125,0 -0.453125,0.265625 0,0.265625 0.234375,0.265625 0.453125,0.265625 H 5.1875 v 3.953125 c 0,0.203125 0,0.46875 0.265625,0.46875 0.265625,0 0.265625,-0.25 0.265625,-0.46875 z m 0,0"
               id="path16" />
          </g>
        </g>
        <g
           fill="#000000"
           fill-opacity="1"
           id="g17"
           transform="matrix(0.352778,0,0,0.352778,-0.940109,-0.700132)">
          <g
             id="use10"
             transform="translate(56.675999,12.219)">
            <path
               d="M 7.671875,-8.5625 C 7.5,-8.40625 6.96875,-7.90625 6.96875,-7.703125 c 0,0.140625 0.125,0.265625 0.28125,0.265625 0.125,0 0.1875,-0.078125 0.28125,-0.21875 0.34375,-0.4375 0.734375,-0.703125 1.0625,-0.890625 0.140625,-0.09375 0.234375,-0.125 0.234375,-0.28125 0,-0.140625 -0.109375,-0.203125 -0.1875,-0.28125 C 8.234375,-9.375 8.140625,-9.765625 8.09375,-9.9375 8.046875,-10.0625 8,-10.234375 7.796875,-10.234375 c -0.078125,0 -0.25,0.0625 -0.25,0.28125 0,0.125 0.078125,0.46875 0.359375,0.859375 H 3.078125 c -0.234375,0 -0.484375,0 -0.484375,0.265625 0,0.265625 0.265625,0.265625 0.484375,0.265625 z m 0,0"
               id="path17" />
          </g>
        </g>
        <g
           fill="#000000"
           fill-opacity="1"
           id="g18"
           transform="matrix(0.352778,0,0,0.352778,-0.940109,-0.700132)">
          <g
             id="use11"
             transform="translate(54.905678,12.219)">
            <path
               d="m 4.9375,-0.875 c 0.3125,0.859375 1.203125,1.015625 1.75,1.015625 1.09375,0 1.734375,-0.9375 2.140625,-1.9375 C 9.15625,-2.625 9.6875,-4.515625 9.6875,-5.359375 c 0,-0.875 -0.453125,-0.96875 -0.578125,-0.96875 -0.34375,0 -0.65625,0.34375 -0.65625,0.640625 0,0.171875 0.09375,0.265625 0.171875,0.328125 0.125,0.125 0.5,0.515625 0.5,1.25 0,0.5 -0.40625,1.84375 -0.703125,2.515625 -0.40625,0.875 -0.9375,1.453125 -1.6875,1.453125 C 5.9375,-0.140625 5.6875,-0.75 5.6875,-1.40625 c 0,-0.421875 0.125,-0.921875 0.171875,-1.15625 L 6.46875,-4.984375 c 0.078125,-0.28125 0.203125,-0.78125 0.203125,-0.84375 C 6.671875,-6.03125 6.5,-6.1875 6.28125,-6.1875 c -0.421875,0 -0.515625,0.359375 -0.59375,0.703125 -0.15625,0.5625 -0.75,2.984375 -0.8125,3.296875 -0.0625,0.25 -0.0625,0.40625 -0.0625,0.71875 0,0.34375 -0.453125,0.890625 -0.46875,0.921875 -0.15625,0.15625 -0.390625,0.40625 -0.828125,0.40625 C 2.375,-0.140625 2.375,-1.21875 2.375,-1.46875 c 0,-0.453125 0.109375,-1.078125 0.75,-2.796875 0.171875,-0.4375 0.25,-0.625 0.25,-0.90625 0,-0.609375 -0.4375,-1.15625 -1.140625,-1.15625 -1.3125,0 -1.84375,2.078125 -1.84375,2.203125 0,0.046875 0.046875,0.125 0.15625,0.125 0.125,0 0.140625,-0.0625 0.203125,-0.265625 0.359375,-1.25 0.90625,-1.765625 1.4375,-1.765625 0.15625,0 0.375,0 0.375,0.46875 0,0.0625 0,0.375 -0.234375,1 C 1.65625,-2.765625 1.5,-2.1875 1.5,-1.640625 c 0,1.515625 1.234375,1.78125 1.96875,1.78125 0.25,0 0.890625,0 1.46875,-1.015625 z m 0,0"
               id="path18" />
          </g>
        </g>
      </g>
    </g>
  </g>
</svg>
