<svg height="32.876392mm" viewBox="0 0 204.43866 32.876392" width="204.43866mm" xmlns="http://www.w3.org/2000/svg" xmlns:xlink="http://www.w3.org/1999/xlink"><marker id="a" orient="auto" overflow="visible" refX="0" refY="0"><path d="m0 0 5-5-17.5 5 17.5 5z" fill-rule="evenodd" stroke="#000" stroke-width="1pt" transform="matrix(-.4 0 0 -.4 -4 0)"/></marker><marker id="b" orient="auto" overflow="visible" refX="0" refY="0"><path d="m0 0 5-5-17.5 5 17.5 5z" fill-rule="evenodd" stroke="#000" stroke-width="1pt" transform="matrix(.4 0 0 .4 4 0)"/></marker><marker id="c" orient="auto" overflow="visible" refX="0" refY="0"><path d="m0 0 5-5-17.5 5 17.5 5z" fill-rule="evenodd" stroke="#000" stroke-width="1pt" transform="matrix(-.4 0 0 -.4 -4 0)"/></marker><marker id="d" orient="auto" overflow="visible" refX="0" refY="0"><path d="m0 0 5-5-17.5 5 17.5 5z" fill-rule="evenodd" stroke="#000" stroke-width="1pt" transform="matrix(.4 0 0 .4 4 0)"/></marker><marker id="e" orient="auto" overflow="visible" refX="0" refY="0"><path d="m0 0 5-5-17.5 5 17.5 5z" fill-rule="evenodd" stroke="#000" stroke-width="1pt" transform="matrix(-.4 0 0 -.4 -4 0)"/></marker><marker id="f" orient="auto" overflow="visible" refX="0" refY="0"><path d="m0 0 5-5-17.5 5 17.5 5z" fill-rule="evenodd" stroke="#000" stroke-width="1pt" transform="matrix(-.4 0 0 -.4 -4 0)"/></marker><g transform="translate(49.574288 -164.37591)"><g stroke-width=".264583" transform="translate(.755952 -.94494)"><path d="m24.28497 165.84226v14.36309h12.851191" fill="none" marker-end="url(#c)" marker-start="url(#b)" stroke="#000"/><path d="m24.28497 180.20535-6.425595 5.57515" fill="none" marker-end="url(#a)" stroke="#000"/><g font-family="sans-serif" font-size="4.233333" letter-spacing="0" word-spacing="0"><text x="17.764879" y="181.90623"><tspan stroke-width=".264583" x="17.764879" y="181.90623">x</tspan></text><text x="38.175594" y="181.05579"><tspan stroke-width=".264583" x="38.175594" y="181.05579">y</tspan></text><text x="26.72587" y="168.22823"><tspan stroke-width=".264583" x="26.72587" y="168.22823">z</tspan></text></g></g><g transform="translate(37.136161 3.590774)"><path d="m81.642856 168.2991-4.630208 10.86682-12.945684-6.14211" fill="none" marker-end="url(#e)" marker-start="url(#d)" stroke="#000" stroke-width=".264583"/><path d="m77.012648 179.16592 7.465028-2.26786" fill="none" marker-end="url(#f)" stroke="#000" stroke-width=".265"/><g font-family="sans-serif" font-size="4.233333" letter-spacing="0" stroke-width=".264583" word-spacing="0"><text x="60.121101" y="173.14192"><tspan stroke-width=".264583" x="60.121101" y="173.14192">z</tspan></text><text x="85.917976" y="177.77214"><tspan stroke-width=".264583" x="85.917976" y="177.77214">x</tspan></text><text x="81.760239" y="166.24385"><tspan stroke-width=".264583" x="81.760239" y="166.24385">y</tspan></text></g></g><g stroke="#000" stroke-linecap="round" stroke-width=".315796"><path d="m22.703968 187.4102h9.684203v9.684204h-9.684203z" fill="#808080"/><path d="m32.388172 187.4102h9.684203v9.684204h-9.684203z" fill="#f2f2f2"/><path d="m42.072376 187.4102h9.684203v9.684204h-9.684203z" fill="#f2f2f2"/><path d="m51.75658 187.4102h9.684203v9.684204h-9.684203z" fill="#f2f2f2"/><path d="m61.440784 187.4102h9.684203v9.684204h-9.684203z" fill="#f2f2f2"/><path d="m71.124985 187.4102h9.684203v9.684204h-9.684203z" fill="#f2f2f2"/><path d="m80.809189 187.4102h9.684203v9.684204h-9.684203z" fill="#f2f2f2"/><path d="m90.493393 187.4102h9.684203v9.684204h-9.684203z" fill="#f2f2f2"/><path d="m100.1776 187.4102h9.684203v9.684204h-9.684203z" fill="#f2f2f2"/><path d="m109.8618 187.4102h9.684203v9.684204h-9.684203z" fill="#808080"/><path d="m119.54601 187.4102h9.684203v9.684204h-9.684203z" fill="#f2f2f2"/><path d="m129.23021 187.4102h9.684203v9.684204h-9.684203z" fill="#f2f2f2"/><path d="m138.91441 187.4102h9.684203v9.684204h-9.684203z" fill="#f2f2f2"/></g><text font-family="sans-serif" font-size="4.233333" letter-spacing="0" stroke-width=".264583" word-spacing="0" x="151.11887" y="193.74164"><tspan stroke-width=".264583" x="151.11887" y="193.74164">…</tspan></text><path d="m13.019772 187.4102h9.684203v9.684204h-9.684203z" fill="#f2f2f2" stroke="#000" stroke-linecap="round" stroke-width=".315796"/><path d="m3.335568 187.4102h9.684203v9.684204h-9.684203z" fill="#f2f2f2" stroke="#000" stroke-linecap="round" stroke-width=".315796"/><text font-family="sans-serif" font-size="4.233333" letter-spacing="0" stroke-width=".264583" word-spacing="0" x="-2.670197" y="193.74164"><tspan stroke-width=".264583" x="-2.670197" y="193.74164">…</tspan></text><text font-family="sans-serif" font-size="5.644444" letter-spacing="0" stroke-width=".264583" word-spacing="0" x="-49.618385" y="176.88086"><tspan stroke-width=".264583" x="-49.618385" y="176.88086">Attitude</tspan></text><text font-family="sans-serif" font-size="5.644444" letter-spacing="0" stroke-width=".264583" word-spacing="0" x="-49.618385" y="194.41748"><tspan stroke-width=".264583" x="-49.618385" y="194.41748">Measurements</tspan></text></g></svg>