<svg height="86.132805mm" viewBox="0 0 125.48914 86.132805" width="125.48914mm" xmlns="http://www.w3.org/2000/svg" xmlns:xlink="http://www.w3.org/1999/xlink"><marker id="a" orient="auto" overflow="visible" refX="0" refY="0"><path d="m0 0 5-5-17.5 5 17.5 5z" fill-rule="evenodd" stroke="#000" stroke-width="1pt" transform="matrix(-.4 0 0 -.4 -4 0)"/></marker><marker id="b" orient="auto" overflow="visible" refX="0" refY="0"><path d="m0 0 5-5-17.5 5 17.5 5z" fill-rule="evenodd" stroke="#000" stroke-width="1pt" transform="matrix(.4 0 0 .4 4 0)"/></marker><marker id="c" orient="auto" overflow="visible" refX="0" refY="0"><path d="m0 0 5-5-17.5 5 17.5 5z" fill-rule="evenodd" stroke="#000" stroke-width="1pt" transform="matrix(-.4 0 0 -.4 -4 0)"/></marker><marker id="d" orient="auto" overflow="visible" refX="0" refY="0"><path d="m0 0 5-5-17.5 5 17.5 5z" fill-rule="evenodd" stroke="#000" stroke-width="1pt" transform="matrix(.4 0 0 .4 4 0)"/></marker><marker id="e" orient="auto" overflow="visible" refX="0" refY="0"><path d="m0 0 5-5-17.5 5 17.5 5z" fill-rule="evenodd" stroke="#000" stroke-width="1pt" transform="matrix(.4 0 0 .4 4 0)"/></marker><marker id="f" orient="auto" overflow="visible" refX="0" refY="0"><path d="m0 0 5-5-17.5 5 17.5 5z" fill-rule="evenodd" stroke="#000" stroke-width="1pt" transform="matrix(-.4 0 0 -.4 -4 0)"/></marker><marker id="g" orient="auto" overflow="visible" refX="0" refY="0"><path d="m0 0 5-5-17.5 5 17.5 5z" fill-rule="evenodd" stroke="#000" stroke-width="1pt" transform="matrix(-.8 0 0 -.8 -10 0)"/></marker><g transform="translate(-32.114513 -98.196935)"><g stroke="#000"><path d="m41.577381 115.57143h99.596718v59.342262h-99.596718z" fill="#e6e6e6" stroke-linecap="round" stroke-width=".665"/><path d="m156.29315 174.91369h-114.715769v-75.406252" fill="none" marker-end="url(#f)" marker-start="url(#e)" stroke-width=".665"/><path d="m41.79438 166.04134h8.726225v8.726225h-8.726225z" fill="none" stroke-linecap="round" stroke-width=".273775"/><path d="m50.520607 166.04134h8.726225v8.726225h-8.726225z" fill="none" stroke-linecap="round" stroke-width=".273775"/><path d="m59.246834 166.04134h8.726225v8.726225h-8.726225z" fill="none" stroke-linecap="round" stroke-width=".273775"/><path d="m67.973061 166.04134h8.726225v8.726225h-8.726225z" fill="none" stroke-linecap="round" stroke-width=".273775"/><path d="m41.79438 157.31511h8.726225v8.726225h-8.726225z" fill="none" stroke-linecap="round" stroke-width=".273775"/><path d="m50.520607 157.31511h8.726225v8.726225h-8.726225z" fill="none" stroke-linecap="round" stroke-width=".273775"/><path d="m59.246834 157.31511h8.726225v8.726225h-8.726225z" fill="none" stroke-linecap="round" stroke-width=".273775"/><path d="m41.79438 148.58888h8.726225v8.726225h-8.726225z" fill="none" stroke-linecap="round" stroke-width=".273775"/><path d="m50.520607 148.58888h8.726225v8.726225h-8.726225z" fill="none" stroke-linecap="round" stroke-width=".273775"/><path d="m41.79438 139.86266h8.726225v8.726225h-8.726225z" fill="none" stroke-linecap="round" stroke-width=".273775"/><path d="m45.836723 170.58151h90.604367l-90.871636-8.68626h90.470736l-90.470736-8.81989h90.203466" fill="none" marker-end="url(#g)" stroke-dasharray="1.058333 .529167" stroke-width=".264583"/><path d="m43.431298 178.5996h95.949762" fill="none" marker-end="url(#c)" marker-start="url(#d)" stroke-width=".264583"/><path d="m38.219541 116.59307v57.06204" fill="none" marker-end="url(#a)" marker-start="url(#b)" stroke-width=".264583"/></g><text font-family="sans-serif" font-size="6.35" letter-spacing="0" stroke-width=".264583" word-spacing="0" x="88.809441" y="184.32974"><tspan stroke-width=".264583" x="88.809441" y="184.32974">w</tspan></text><text font-family="sans-serif" font-size="6.35" letter-spacing="0" stroke-width=".264583" word-spacing="0" x="31.537804" y="147.53635"><tspan stroke-width=".264583" x="31.537804" y="147.53635">h</tspan></text></g></svg>