<svg height="132.7747mm" viewBox="0 0 163.28107 132.7747" width="163.28107mm" xmlns="http://www.w3.org/2000/svg" xmlns:xlink="http://www.w3.org/1999/xlink"><marker id="a" orient="auto" overflow="visible" refX="0" refY="0"><path d="m0 0 5-5-17.5 5 17.5 5z" fill="#3771c8" fill-rule="evenodd" stroke="#3771c8" stroke-width="1pt" transform="matrix(-.4 0 0 -.4 -4 0)"/></marker><marker id="b" orient="auto" overflow="visible" refX="0" refY="0"><path d="m0 0 5-5-17.5 5 17.5 5z" fill="#3771c8" fill-rule="evenodd" stroke="#3771c8" stroke-width="1pt" transform="matrix(-.4 0 0 -.4 -4 0)"/></marker><marker id="c" orient="auto" overflow="visible" refX="0" refY="0"><path d="m0 0 5-5-17.5 5 17.5 5z" fill="#3771c8" fill-rule="evenodd" stroke="#3771c8" stroke-width="1pt" transform="matrix(-.4 0 0 -.4 -4 0)"/></marker><marker id="d" orient="auto" overflow="visible" refX="0" refY="0"><path d="m0 0 5-5-17.5 5 17.5 5z" fill="#3771c8" fill-rule="evenodd" stroke="#3771c8" stroke-width="1pt" transform="matrix(-.4 0 0 -.4 -4 0)"/></marker><marker id="e" orient="auto" overflow="visible" refX="0" refY="0"><path d="m0 0 5-5-17.5 5 17.5 5z" fill="#3771c8" fill-rule="evenodd" stroke="#3771c8" stroke-width="1pt" transform="matrix(-.4 0 0 -.4 -4 0)"/></marker><marker id="f" orient="auto" overflow="visible" refX="0" refY="0"><path d="m0 0 5-5-17.5 5 17.5 5z" fill="#3771c8" fill-rule="evenodd" stroke="#3771c8" stroke-width="1pt" transform="matrix(-.4 0 0 -.4 -4 0)"/></marker><g transform="translate(-9.640714 -29.921502)"><path d="m12.473214 52.827377h157.61607v94.872025h-157.61607z" fill="#ccc"/><g stroke="#000"><path d="m56.874006 103.66619 74.433784-21.135519 39.33045 1.654085s1.28651 30.692454.36757 30.692454c-.91893 0-114.131804-11.21102-114.131804-11.21102z" fill="#b3b3b3" stroke-width=".264583"/><path d="m15.292695 53.424405v93.677965" fill="none" stroke-width=".264583"/><path d="m40.64224 53.424405v93.677965" fill="none" stroke-width=".264583"/><path d="m56.874006 103.66619s-1.102723 44.47648-.367575 43.18997c.73515-1.28651 113.582859.84324 113.582859.84324l-.73756-33.18977z" fill="#666" stroke-width=".264583"/><path d="m65.991785 53.424404v93.677976" fill="none" stroke-width=".264583"/><path d="m91.341328 53.424406v93.677964" fill="none" stroke-width=".264583"/><path d="m116.69087 53.424405v93.677965" fill="none" stroke-width=".264583"/><path d="m142.04043 53.424406v93.677964" fill="none" stroke-width=".264583"/><path d="m167.38998 53.424405v93.677965" fill="none" stroke-width=".264583"/><path d="m13.743308 55.473215h156.879222" fill="none" stroke-width=".250281"/><path d="m13.743308 144.6756h156.879222" fill="none" stroke-width=".250281"/><path d="m13.743308 77.773807h156.879222" fill="none" stroke-width=".250281"/><path d="m13.743308 100.07441h156.879222" fill="none" stroke-width=".250281"/><path d="m13.743308 122.375h156.879222" fill="none" stroke-width=".250281"/><path d="m28.340057 67.642846-.715949-.586278-.723603.576804.336343-.862077-.772179-.509945.92382.05348.24637-.891967.23461.895133.924444-.04132-.778824.499738z" stroke-linecap="round" stroke-width=".010662"/><path d="m54.008991 67.642846-.715949-.586278-.723603.576804.336343-.862077-.772179-.509945.92382.05348.24637-.891967.23461.895133.924444-.04132-.778824.499738z" stroke-linecap="round" stroke-width=".010662"/><path d="m79.371612 67.642846-.715949-.586278-.723603.576804.336343-.862077-.772179-.509945.92382.05348.246371-.891967.234609.895133.924444-.04132-.778824.499738z" stroke-linecap="round" stroke-width=".010662"/><path d="m104.73424 67.642846-.71595-.586278-.7236.576804.33634-.862077-.77218-.509945.92382.05348.24637-.891967.23461.895133.92444-.04132-.77882.499738z" stroke-linecap="round" stroke-width=".010662"/><path d="m130.09686 67.642846-.71595-.586278-.7236.576804.33634-.862077-.77218-.509945.92382.05348.24637-.891967.23461.895133.92445-.04132-.77883.499738z" stroke-linecap="round" stroke-width=".010662"/><path d="m155.64328 67.642846-.71595-.586278-.7236.576804.33634-.862077-.77218-.509945.92382.05348.24637-.891967.23461.895133.92445-.04132-.77883.499738z" stroke-linecap="round" stroke-width=".010662"/><path d="m28.585107 89.145944-.715949-.586278-.723603.576804.336343-.862077-.772179-.509946.92382.05348.246371-.891968.234609.895133.924444-.04132-.778823.499738z" stroke-linecap="round" stroke-width=".010662"/><path d="m54.008991 89.145944-.715949-.586278-.723603.576804.336343-.862077-.772179-.509946.92382.05348.24637-.891968.23461.895133.924444-.04132-.778824.499738z" stroke-linecap="round" stroke-width=".010662"/><path d="m79.371612 89.145944-.715949-.586278-.723603.576804.336343-.862077-.772179-.509946.92382.05348.246371-.891968.234609.895133.924444-.04132-.778824.499738z" stroke-linecap="round" stroke-width=".010662"/><path d="m104.73424 89.145944-.71595-.586278-.7236.576804.33634-.862077-.77218-.509946.92382.05348.24637-.891968.23461.895133.92444-.04132-.77882.499738z" stroke-linecap="round" stroke-width=".010662"/><path d="m130.09686 89.145944-.71595-.586278-.7236.576804.33634-.862077-.77218-.509946.92382.05348.24637-.891968.23461.895133.92445-.04132-.77883.499738z" stroke-linecap="round" stroke-width=".010662"/><path d="m155.64328 89.145944-.71595-.586278-.7236.576804.33634-.862077-.77218-.509946.92382.05348.24637-.891968.23461.895133.92445-.04132-.77883.499738z" stroke-linecap="round" stroke-width=".010662"/><path d="m28.830156 112.67069-.715949-.58627-.723603.5768.336343-.86208-.772179-.50994.92382.0535.24637-.89197.23461.89514.924444-.0413-.778824.49973z" stroke-linecap="round" stroke-width=".010662"/><path d="m54.008991 112.67069-.715949-.58627-.723603.5768.336343-.86208-.772179-.50994.92382.0535.24637-.89197.23461.89514.924444-.0413-.778824.49973z" stroke-linecap="round" stroke-width=".010662"/><path d="m79.371612 112.67069-.715949-.58627-.723603.5768.336343-.86208-.772179-.50994.92382.0535.246371-.89197.234609.89514.924444-.0413-.778824.49973z" stroke-linecap="round" stroke-width=".010662"/><path d="m104.73424 112.67069-.71595-.58627-.7236.5768.33634-.86208-.77218-.50994.92382.0535.24637-.89197.23461.89514.92444-.0413-.77882.49973z" stroke-linecap="round" stroke-width=".010662"/><path d="m130.09686 112.67069-.71595-.58627-.7236.5768.33634-.86208-.77218-.50994.92382.0535.24637-.89197.23461.89514.92445-.0413-.77883.49973z" stroke-linecap="round" stroke-width=".010662"/><path d="m155.64328 112.67069-.71595-.58627-.7236.5768.33634-.86208-.77218-.50994.92382.0535.24637-.89197.23461.89514.92445-.0413-.77883.49973z" stroke-linecap="round" stroke-width=".010662"/><path d="m28.095006 134.90894-.715948-.58628-.723604.5768.336343-.86207-.772178-.50995.92382.0535.24637-.89196.234609.89513.924444-.0413-.778823.49974z" stroke-linecap="round" stroke-width=".010662"/><path d="m54.008991 134.90894-.715949-.58628-.723603.5768.336343-.86207-.772179-.50995.92382.0535.24637-.89196.23461.89513.924444-.0413-.778824.49974z" stroke-linecap="round" stroke-width=".010662"/><path d="m79.371612 134.90894-.715949-.58628-.723603.5768.336343-.86207-.772179-.50995.92382.0535.246371-.89196.234609.89513.924444-.0413-.778824.49974z" stroke-linecap="round" stroke-width=".010662"/><path d="m104.73424 134.90894-.71595-.58628-.7236.5768.33634-.86207-.77218-.50995.92382.0535.24637-.89196.23461.89513.92444-.0413-.77882.49974z" stroke-linecap="round" stroke-width=".010662"/><path d="m130.09686 134.90894-.71595-.58628-.7236.5768.33634-.86207-.77218-.50995.92382.0535.24637-.89196.23461.89513.92445-.0413-.77883.49974z" stroke-linecap="round" stroke-width=".010662"/><path d="m155.64328 134.90894-.71595-.58628-.7236.5768.33634-.86207-.77218-.50995.92382.0535.24637-.89196.23461.89513.92445-.0413-.77883.49974z" stroke-linecap="round" stroke-width=".010662"/><path d="m12.473214 52.827377h157.61607v94.872025h-157.61607z" fill="none" stroke-linecap="round" stroke-width="5.665"/></g><text font-family="sans-serif" font-size="6.35" letter-spacing="0" stroke-width=".264583" word-spacing="0" x="108.15062" y="160.27263"><tspan stroke-width=".264583" x="108.15062" y="160.27263">Completely filled</tspan></text><text font-family="sans-serif" font-size="6.35" letter-spacing="0" stroke-width=".264583" word-spacing="0" x="80.766342" y="35.848736"><tspan stroke-width=".264583" x="80.766342" y="35.848736">Partially filled</tspan></text><path d="m105.5776 157.88339-72.779708-20.58416" fill="#3771c8" marker-end="url(#b)" stroke="#3771c8" stroke-width=".665"/><path d="m111.45878 153.4725c-.91893-.36757-5.43803-14.88782-5.43803-14.88782" fill="#3771c8" marker-end="url(#c)" stroke="#3771c8" stroke-width=".665"/><path d="m149.87029 154.39144 4.14965-15.26487" fill="#3771c8" marker-end="url(#a)" stroke="#3771c8" stroke-width=".665"/><path d="m88.564998 39.842763-8.347877 67.255547" fill="#3771c8" marker-end="url(#d)" stroke="#3771c8" stroke-width=".665"/><path d="m103.49103 40.723456-.0774 41.157781" fill="#3771c8" marker-end="url(#f)" stroke="#3771c8" stroke-width=".665"/><text font-family="sans-serif" font-size="6.35" letter-spacing="0" stroke-width=".264583" word-spacing="0" x="133.0675" y="95.573357"><tspan font-size="4.233333" stroke-width=".264583" x="133.0675" y="95.573357">S<tspan baseline-shift="sub" font-size="64.999998%">A</tspan></tspan></text><text font-family="sans-serif" font-size="6.35" letter-spacing="0" stroke-width=".264583" word-spacing="0" x="118.24371" y="82.718102"><tspan font-size="4.233333" stroke-width=".264583" x="118.24371" y="82.718102">S<tspan baseline-shift="sub" font-size="64.999998%">B</tspan></tspan></text><path d="m116.0756 77.086952h26.706198v23.717173h-26.706198z" fill="none" stroke="#c87137" stroke-linecap="round" stroke-width=".665"/><path d="m118.57829 39.56558 8.19294 43.7308" fill="#3771c8" marker-end="url(#e)" stroke="#3771c8" stroke-width=".665"/></g></svg>