<svg height="57.630615mm" viewBox="0 0 147.53871 57.630615" width="147.53871mm" xmlns="http://www.w3.org/2000/svg" xmlns:xlink="http://www.w3.org/1999/xlink"><marker id="a" orient="auto" overflow="visible" refX="0" refY="0"><path d="m0 0 5-5-17.5 5 17.5 5z" fill-rule="evenodd" stroke="#000" stroke-width="1pt" transform="matrix(-.4 0 0 -.4 -4 0)"/></marker><marker id="b" orient="auto" overflow="visible" refX="0" refY="0"><path d="m0 0 5-5-17.5 5 17.5 5z" fill-rule="evenodd" stroke="#000" stroke-width="1pt" transform="matrix(-.4 0 0 -.4 -4 0)"/></marker><marker id="c" orient="auto" overflow="visible" refX="0" refY="0"><path d="m0 0 5-5-17.5 5 17.5 5z" fill-rule="evenodd" stroke="#000" stroke-width="1pt" transform="matrix(-.4 0 0 -.4 -4 0)"/></marker><marker id="d" orient="auto" overflow="visible" refX="0" refY="0"><path d="m0 0 5-5-17.5 5 17.5 5z" fill-rule="evenodd" stroke="#000" stroke-width="1pt" transform="matrix(-.4 0 0 -.4 -4 0)"/></marker><marker id="e" orient="auto" overflow="visible" refX="0" refY="0"><path d="m0 0 5-5-17.5 5 17.5 5z" fill-rule="evenodd" stroke="#000" stroke-width="1pt" transform="matrix(-.4 0 0 -.4 -4 0)"/></marker><marker id="f" orient="auto" overflow="visible" refX="0" refY="0"><path d="m0 0 5-5-17.5 5 17.5 5z" fill-rule="evenodd" stroke="#000" stroke-width="1pt" transform="matrix(-.4 0 0 -.4 -4 0)"/></marker><marker id="g" orient="auto" overflow="visible" refX="0" refY="0"><path d="m0 0 5-5-17.5 5 17.5 5z" fill-rule="evenodd" stroke="#000" stroke-width="1pt" transform="matrix(-.4 0 0 -.4 -4 0)"/></marker><marker id="h" orient="auto" overflow="visible" refX="0" refY="0"><path d="m0 0 5-5-17.5 5 17.5 5z" fill-rule="evenodd" stroke="#000" stroke-width="1pt" transform="matrix(-.4 0 0 -.4 -4 0)"/></marker><marker id="i" orient="auto" overflow="visible" refX="0" refY="0"><path d="m0 0 5-5-17.5 5 17.5 5z" fill-rule="evenodd" stroke="#000" stroke-width="1pt" transform="matrix(-.4 0 0 -.4 -4 0)"/></marker><marker id="j" orient="auto" overflow="visible" refX="0" refY="0"><path d="m0 0 5-5-17.5 5 17.5 5z" fill-rule="evenodd" stroke="#000" stroke-width="1pt" transform="matrix(-.4 0 0 -.4 -4 0)"/></marker><marker id="k" orient="auto" overflow="visible" refX="0" refY="0"><path d="m0 0 5-5-17.5 5 17.5 5z" fill-rule="evenodd" stroke="#000" stroke-width="1pt" transform="matrix(-.4 0 0 -.4 -4 0)"/></marker><marker id="l" orient="auto" overflow="visible" refX="0" refY="0"><path d="m0 0 5-5-17.5 5 17.5 5z" fill-rule="evenodd" stroke="#000" stroke-width="1pt" transform="matrix(-.4 0 0 -.4 -4 0)"/></marker><marker id="m" orient="auto" overflow="visible" refX="0" refY="0"><path d="m0 0 5-5-17.5 5 17.5 5z" fill-rule="evenodd" stroke="#000" stroke-width="1pt" transform="matrix(-.4 0 0 -.4 -4 0)"/></marker><marker id="n" orient="auto" overflow="visible" refX="0" refY="0"><path d="m0 0 5-5-17.5 5 17.5 5z" fill-rule="evenodd" stroke="#000" stroke-width="1pt" transform="matrix(-.4 0 0 -.4 -4 0)"/></marker><marker id="o" orient="auto" overflow="visible" refX="0" refY="0"><path d="m0 0 5-5-17.5 5 17.5 5z" fill-rule="evenodd" stroke="#000" stroke-width="1pt" transform="matrix(-.4 0 0 -.4 -4 0)"/></marker><marker id="p" orient="auto" overflow="visible" refX="0" refY="0"><path d="m0 0 5-5-17.5 5 17.5 5z" fill-rule="evenodd" stroke="#000" stroke-width="1pt" transform="matrix(-.4 0 0 -.4 -4 0)"/></marker><marker id="q" orient="auto" overflow="visible" refX="0" refY="0"><path d="m0 0 5-5-17.5 5 17.5 5z" fill-rule="evenodd" stroke="#000" stroke-width="1pt" transform="matrix(-.4 0 0 -.4 -4 0)"/></marker><marker id="r" orient="auto" overflow="visible" refX="0" refY="0"><path d="m0 0 5-5-17.5 5 17.5 5z" fill-rule="evenodd" stroke="#000" stroke-width="1pt" transform="matrix(-.4 0 0 -.4 -4 0)"/></marker><marker id="s" orient="auto" overflow="visible" refX="0" refY="0"><path d="m0 0 5-5-17.5 5 17.5 5z" fill-rule="evenodd" stroke="#000" stroke-width="1pt" transform="matrix(-.4 0 0 -.4 -4 0)"/></marker><g transform="translate(-13.776781 -94.601181)"><g fill="none" stroke="#000" stroke-width=".265"><g transform="translate(-8.920257)"><path d="m69.532148 122.92524 10 2.71689v10l-10-2.71689zm-10-2.71689 10 2.71689v10l-10-2.71689zm-10-2.71689 10 2.71689v10l-10-2.71689zm-9.999999-2.71689 10 2.71689v10l-10-2.71689zm29.999999-1.8494 10 2.71689v10l-10-2.71689zm-10-2.71689 10 2.71689v10l-10-2.71689zm-10-2.71689 10 2.71689v10l-10-2.71689zm-9.999999-2.71689 10 2.71689v10l-10-2.71689zm29.999999-1.8494 10 2.71687v10l-10-2.7169zm-10-2.71687 10 2.71687v10l-10-2.71689zm-10-2.716875 10 2.716875v10l-10-2.71689zm-10-2.716872 10 2.716872v9.999995l-10-2.71689z" stroke-linecap="round"/><path d="m22.717909 104.29867 21.782467-3.4745" marker-end="url(#m)"/><path d="m32.874151 107.23864 21.782467-3.4745" marker-end="url(#r)"/><path d="m42.896758 110.31224 21.782467-3.4745" marker-end="url(#q)"/><path d="m52.919365 113.2522 21.782467-3.4745" marker-end="url(#o)"/><path d="m22.717909 113.78674 21.782467-3.4745" marker-end="url(#s)"/><path d="m32.874151 116.72671 21.782467-3.4745" marker-end="url(#r)"/><path d="m42.896758 119.80031 21.782467-3.4745" marker-end="url(#q)"/><path d="m52.919365 122.74027 21.782467-3.4745" marker-end="url(#n)"/><path d="m22.717909 123.80935 21.782467-3.4745" marker-end="url(#s)"/><path d="m32.874151 126.74931 21.782467-3.4745" marker-end="url(#r)"/><path d="m42.896758 129.82291 21.782467-3.4745" marker-end="url(#q)"/><path d="m52.919365 132.76287 21.782467-3.4745" marker-end="url(#p)"/></g><path d="m151.18299 122.92524 10 2.71689v10l-10-2.71689zm-10-2.71689 10 2.71689v10l-10-2.71689zm-10-2.71689 10 2.71689v10l-10-2.71689zm-10-2.71689 10 2.71689v10l-10-2.71689zm30-1.8494 10 2.71689v10l-10-2.71689zm-10-2.71689 10 2.71689v10l-10-2.71689zm-10-2.71689 10 2.71689v10l-10-2.71689zm-10-2.71689 10 2.71689v10l-10-2.71689zm30-1.8494 10 2.71687v10l-10-2.7169zm-10-2.71687 10 2.71687v10l-10-2.71689zm-10-2.716875 10 2.716875v10l-10-2.71689zm-10-2.716872 10 2.716872v9.999995l-10-2.71689z" stroke-linecap="round"/><path d="m88.733484 139.17734 37.952276-37.41773" marker-end="url(#l)"/><path d="m88.733484 139.17734 47.841246-34.74503" marker-end="url(#k)"/><path d="m88.733484 139.17734 57.596586-32.3396" marker-end="url(#j)"/><path d="m88.733484 139.17734 67.351926-29.80054" marker-end="url(#i)"/><path d="m88.733484 139.17734 37.551376-28.06329" marker-end="url(#h)"/><path d="m88.733484 139.17734 47.039446-25.12333" marker-end="url(#g)"/><path d="m88.733484 139.17734 57.596596-22.58427" marker-end="url(#f)"/><path d="m88.733484 139.17734 67.485566-19.64431" marker-end="url(#e)"/><path d="m88.733484 139.17734 37.150476-17.90706" marker-end="url(#d)"/><path d="m88.733484 139.17734 47.306716-15.368" marker-end="url(#c)"/><path d="m88.733484 139.17734 57.329326-12.6953" marker-end="url(#b)"/><path d="m88.733484 139.17734 66.951026-10.0226" marker-end="url(#a)"/></g><text font-family="sans-serif" font-size="6.35" letter-spacing="0" stroke-width=".264583" word-spacing="0" x="15.367998" y="151.20447"><tspan font-size="4.938889" stroke-width=".264583" x="15.367998" y="151.20447">Orthogonal projection</tspan></text><text font-family="sans-serif" font-size="6.35" letter-spacing="0" stroke-width=".264583" word-spacing="0" x="97.525902" y="151.20447"><tspan font-size="4.938889" stroke-width=".264583" x="97.525902" y="151.20447">Perspective projection</tspan></text></g></svg>