<svg height="100.53703mm" viewBox="0 0 163.28107 100.53702" width="163.28107mm" xmlns="http://www.w3.org/2000/svg"><g transform="translate(-9.640714 -49.994877)"><path d="m12.473214 52.827377h157.61607v94.872025h-157.61607z" fill="#ccc"/><g stroke="#000"><path d="m56.874006 103.66619 74.433784-21.135519 39.33045 1.654085s1.28651 30.692454.36757 30.692454c-.91893 0-114.131804-11.21102-114.131804-11.21102z" fill="#b3b3b3" stroke-width=".264583"/><path d="m15.292695 53.424405v93.677965" fill="none" stroke-width=".264583"/><path d="m40.64224 53.424405v93.677965" fill="none" stroke-width=".264583"/><path d="m56.874006 103.66619s-1.102723 44.47648-.367575 43.18997c.73515-1.28651 113.582859.84324 113.582859.84324l-.73756-33.18977z" fill="#666" stroke-width=".264583"/><path d="m65.991785 53.424404v93.677976" fill="none" stroke-width=".264583"/><path d="m91.341328 53.424406v93.677964" fill="none" stroke-width=".264583"/><path d="m116.69087 53.424405v93.677965" fill="none" stroke-width=".264583"/><path d="m142.04043 53.424406v93.677964" fill="none" stroke-width=".264583"/><path d="m167.38998 53.424405v93.677965" fill="none" stroke-width=".264583"/><path d="m13.743308 55.473215h156.879222" fill="none" stroke-width=".250281"/><path d="m13.743308 144.6756h156.879222" fill="none" stroke-width=".250281"/><path d="m13.743308 77.773807h156.879222" fill="none" stroke-width=".250281"/><path d="m13.743308 100.07441h156.879222" fill="none" stroke-width=".250281"/><path d="m13.743308 122.375h156.879222" fill="none" stroke-width=".250281"/><path d="m12.473214 52.827377h157.61607v94.872025h-157.61607z" fill="none" stroke-linecap="round" stroke-width="5.665"/></g></g></svg>