<svg height="119.09962mm" viewBox="0 0 163.28107 119.09962" width="163.28107mm" xmlns="http://www.w3.org/2000/svg" xmlns:xlink="http://www.w3.org/1999/xlink"><marker id="a" orient="auto" overflow="visible" refX="0" refY="0"><path d="m0 0 5-5-17.5 5 17.5 5z" fill="#3771c8" fill-rule="evenodd" stroke="#3771c8" stroke-width="1pt" transform="matrix(-.4 0 0 -.4 -4 0)"/></marker><g transform="translate(-9.640714 -49.994877)"><g stroke="#000"><path d="m12.473214 52.827377h157.61607v94.872025h-157.61607z" fill="#ccc" stroke-linecap="round" stroke-width="5.665"/><path d="m15.292695 53.424405v93.677965" fill="none" stroke-width=".264583"/><path d="m40.64224 53.424405v93.677965" fill="none" stroke-width=".264583"/><path d="m65.991785 53.424404v93.677976" fill="none" stroke-width=".264583"/><path d="m91.341328 53.424406v93.677964" fill="none" stroke-width=".264583"/><path d="m116.69087 53.424405v93.677965" fill="none" stroke-width=".264583"/><path d="m142.04043 53.424406v93.677964" fill="none" stroke-width=".264583"/><path d="m167.38998 53.424405v93.677965" fill="none" stroke-width=".264583"/><path d="m13.743308 55.473215h156.879222" fill="none" stroke-width=".250281"/><path d="m13.743308 144.6756h156.879222" fill="none" stroke-width=".250281"/><path d="m13.743308 77.773807h156.879222" fill="none" stroke-width=".250281"/><path d="m13.743308 100.07441h156.879222" fill="none" stroke-width=".250281"/><path d="m13.743308 122.375h156.879222" fill="none" stroke-width=".250281"/><path d="m28.340057 67.642846-.715949-.586278-.723603.576804.336343-.862077-.772179-.509945.92382.05348.24637-.891967.23461.895133.924444-.04132-.778824.499738z" stroke-linecap="round" stroke-width=".010662"/><path d="m54.008991 67.642846-.715949-.586278-.723603.576804.336343-.862077-.772179-.509945.92382.05348.24637-.891967.23461.895133.924444-.04132-.778824.499738z" stroke-linecap="round" stroke-width=".010662"/><path d="m79.371612 67.642846-.715949-.586278-.723603.576804.336343-.862077-.772179-.509945.92382.05348.246371-.891967.234609.895133.924444-.04132-.778824.499738z" stroke-linecap="round" stroke-width=".010662"/><path d="m104.73424 67.642846-.71595-.586278-.7236.576804.33634-.862077-.77218-.509945.92382.05348.24637-.891967.23461.895133.92444-.04132-.77882.499738z" stroke-linecap="round" stroke-width=".010662"/><path d="m130.09686 67.642846-.71595-.586278-.7236.576804.33634-.862077-.77218-.509945.92382.05348.24637-.891967.23461.895133.92445-.04132-.77883.499738z" stroke-linecap="round" stroke-width=".010662"/><path d="m155.64328 67.642846-.71595-.586278-.7236.576804.33634-.862077-.77218-.509945.92382.05348.24637-.891967.23461.895133.92445-.04132-.77883.499738z" stroke-linecap="round" stroke-width=".010662"/><path d="m28.585107 89.145944-.715949-.586278-.723603.576804.336343-.862077-.772179-.509946.92382.05348.246371-.891968.234609.895133.924444-.04132-.778823.499738z" stroke-linecap="round" stroke-width=".010662"/><path d="m54.008991 89.145944-.715949-.586278-.723603.576804.336343-.862077-.772179-.509946.92382.05348.24637-.891968.23461.895133.924444-.04132-.778824.499738z" stroke-linecap="round" stroke-width=".010662"/><path d="m79.371612 89.145944-.715949-.586278-.723603.576804.336343-.862077-.772179-.509946.92382.05348.246371-.891968.234609.895133.924444-.04132-.778824.499738z" stroke-linecap="round" stroke-width=".010662"/><path d="m104.73424 89.145944-.71595-.586278-.7236.576804.33634-.862077-.77218-.509946.92382.05348.24637-.891968.23461.895133.92444-.04132-.77882.499738z" stroke-linecap="round" stroke-width=".010662"/><path d="m130.09686 89.145944-.71595-.586278-.7236.576804.33634-.862077-.77218-.509946.92382.05348.24637-.891968.23461.895133.92445-.04132-.77883.499738z" stroke-linecap="round" stroke-width=".010662"/><path d="m155.64328 89.145944-.71595-.586278-.7236.576804.33634-.862077-.77218-.509946.92382.05348.24637-.891968.23461.895133.92445-.04132-.77883.499738z" stroke-linecap="round" stroke-width=".010662"/><path d="m28.830156 112.67069-.715949-.58627-.723603.5768.336343-.86208-.772179-.50994.92382.0535.24637-.89197.23461.89514.924444-.0413-.778824.49973z" stroke-linecap="round" stroke-width=".010662"/><path d="m54.008991 112.67069-.715949-.58627-.723603.5768.336343-.86208-.772179-.50994.92382.0535.24637-.89197.23461.89514.924444-.0413-.778824.49973z" stroke-linecap="round" stroke-width=".010662"/><path d="m79.371612 112.67069-.715949-.58627-.723603.5768.336343-.86208-.772179-.50994.92382.0535.246371-.89197.234609.89514.924444-.0413-.778824.49973z" stroke-linecap="round" stroke-width=".010662"/><path d="m130.09686 112.67069-.71595-.58627-.7236.5768.33634-.86208-.77218-.50994.92382.0535.24637-.89197.23461.89514.92445-.0413-.77883.49973z" stroke-linecap="round" stroke-width=".010662"/><path d="m155.64328 112.67069-.71595-.58627-.7236.5768.33634-.86208-.77218-.50994.92382.0535.24637-.89197.23461.89514.92445-.0413-.77883.49973z" stroke-linecap="round" stroke-width=".010662"/><path d="m28.095006 134.90894-.715948-.58628-.723604.5768.336343-.86207-.772178-.50995.92382.0535.24637-.89196.234609.89513.924444-.0413-.778823.49974z" stroke-linecap="round" stroke-width=".010662"/><path d="m54.008991 134.90894-.715949-.58628-.723603.5768.336343-.86207-.772179-.50995.92382.0535.24637-.89196.23461.89513.924444-.0413-.778824.49974z" stroke-linecap="round" stroke-width=".010662"/><path d="m79.371612 134.90894-.715949-.58628-.723603.5768.336343-.86207-.772179-.50995.92382.0535.246371-.89196.234609.89513.924444-.0413-.778824.49974z" stroke-linecap="round" stroke-width=".010662"/><path d="m104.73424 134.90894-.71595-.58628-.7236.5768.33634-.86207-.77218-.50995.92382.0535.24637-.89196.23461.89513.92444-.0413-.77882.49974z" stroke-linecap="round" stroke-width=".010662"/><path d="m130.09686 134.90894-.71595-.58628-.7236.5768.33634-.86207-.77218-.50995.92382.0535.24637-.89196.23461.89513.92445-.0413-.77883.49974z" stroke-linecap="round" stroke-width=".010662"/><path d="m155.64328 134.90894-.71595-.58628-.7236.5768.33634-.86207-.77218-.50995.92382.0535.24637-.89196.23461.89513.92445-.0413-.77883.49974z" stroke-linecap="round" stroke-width=".010662"/><path d="m98.569259 106.98354-.715949-.58627-.723603.5768.336343-.86208-.772179-.50994.92382.0535.246371-.89196.234609.89513.924444-.0413-.778824.49973z" stroke-linecap="round" stroke-width=".010662"/><path d="m105.1856 104.22675-.71595-.58628-.7236.5768.33634-.86207-.77218-.50995.92382.0535.24637-.89196.23461.89513.92445-.0413-.77883.49974z" stroke-linecap="round" stroke-width=".010662"/><path d="m108.49377 110.84307-.71595-.58628-.72361.57681.33635-.86208-.77218-.50994.92382.0535.24637-.89197.23461.89514.92444-.0413-.77882.49974z" stroke-linecap="round" stroke-width=".010662"/><path d="m113.63981 114.33503-.71595-.58628-.7236.57681.33634-.86208-.77218-.50995.92382.0535.24637-.89197.23461.89513.92444-.0413-.77882.49974z" stroke-linecap="round" stroke-width=".010662"/><path d="m109.04513 120.58379-.71595-.58627-.7236.5768.33634-.86208-.77218-.50994.92382.0535.24637-.89196.23461.89513.92444-.0413-.77882.49974z" stroke-linecap="round" stroke-width=".010662"/><path d="m114.92631 106.98354-.71594-.58627-.72361.5768.33635-.86208-.77218-.50994.92382.0535.24637-.89196.23461.89513.92444-.0413-.77882.49973z" stroke-linecap="round" stroke-width=".010662"/><path d="m95.628669 111.02686-.715949-.58627-.723603.5768.336343-.86208-.772179-.50994.92382.0535.246371-.89197.234609.89514.924444-.0413-.778823.49973z" stroke-linecap="round" stroke-width=".010662"/></g><text font-family="sans-serif" font-size="6.35" letter-spacing="0" stroke-width=".264583" word-spacing="0" x="25.1849" y="167.77365"><tspan stroke-width=".264583" x="25.1849" y="167.77365">Monte Carlo sampling within this pixel</tspan></text><path d="m86.018433 161.3411c-.91893-.36757 10.735238-43.00725 10.735238-43.00725" fill="#3771c8" marker-end="url(#a)" stroke="#3771c8" stroke-width=".665"/></g></svg>