<svg height="100.53pt" viewBox="0 0 113.39 100.53" width="113.39pt" xmlns="http://www.w3.org/2000/svg" xmlns:xlink="http://www.w3.org/1999/xlink"><clipPath id="a"><path d="m0 .0351562h100v99.9921878h-100zm0 0"/></clipPath><symbol id="b" overflow="visible"><path d="m8.625-5.203125c0-1.96875-1.28125-3.171875-2.9375-3.171875-2.546875 0-5.109375 2.734375-5.109375 5.484375 0 1.875 1.234375 3.140625 2.953125 3.140625 2.5 0 5.09375-2.609375 5.09375-5.453125zm-5.015625 5.171875c-.984375 0-2.015625-.703125-2.015625-2.5625 0-1.078125.390625-2.859375 1.359375-4.046875.875-1.046875 1.875-1.46875 2.671875-1.46875 1.046875 0 2.0625.765625 2.0625 2.46875 0 1.0625-.453125 2.71875-1.25 3.84375-.875 1.21875-1.953125 1.765625-2.828125 1.765625zm0 0"/></symbol><symbol id="c" overflow="visible"><path d="m2.015625-1.3125c-.40625.6875-.8125.9375-1.390625.96875-.125.015625-.21875.015625-.21875.21875 0 .078125.0625.125.140625.125.21875 0 .75-.03125.96875-.03125.34375 0 .71875.03125 1.046875.03125.078125 0 .21875 0 .21875-.21875 0-.109375-.09375-.125-.171875-.125-.265625-.03125-.5-.125-.5-.40625 0-.171875.078125-.296875.234375-.5625l.90625-1.5h3.03125c.015625.109375.015625.203125.015625.3125.046875.3125.1875 1.546875.1875 1.78125 0 .34375-.609375.375-.796875.375-.140625 0-.265625 0-.265625.21875 0 .125.109375.125.171875.125.203125 0 .453125-.03125.65625-.03125h.671875c.71875 0 1.25.03125 1.265625.03125.078125 0 .203125 0 .203125-.21875 0-.125-.109375-.125-.28125-.125-.65625 0-.671875-.109375-.703125-.46875l-.71875-7.421875c-.03125-.234375-.078125-.25-.203125-.25s-.1875.015625-.296875.203125zm1.4375-1.84375 2.390625-3.984375.40625 3.984375zm0 0"/></symbol><symbol id="d" overflow="visible"><path d="m4.359375-7.3125c.09375-.4375.140625-.46875.609375-.46875h1.546875c1.34375 0 1.34375 1.140625 1.34375 1.25 0 .96875-.96875 2.1875-2.53125 2.1875h-1.71875zm2 3.0625c1.296875-.234375 2.46875-1.140625 2.46875-2.234375 0-.921875-.8125-1.640625-2.15625-1.640625h-3.8125c-.234375 0-.34375 0-.34375.234375 0 .109375.109375.109375.296875.109375.71875 0 .71875.09375.71875.234375 0 .015625 0 .09375-.046875.265625l-1.609375 6.40625c-.109375.40625-.125.53125-.953125.53125-.234375 0-.34375 0-.34375.21875 0 .125.0625.125.296875.125h4.078125c1.828125 0 3.234375-1.375 3.234375-2.578125 0-.984375-.859375-1.578125-1.828125-1.671875zm-1.6875 3.90625h-1.609375c-.15625 0-.1875 0-.25-.015625-.140625-.015625-.15625-.03125-.15625-.125s.03125-.15625.0625-.265625l.828125-3.359375h2.234375c1.40625 0 1.40625 1.3125 1.40625 1.40625 0 1.140625-1.046875 2.359375-2.515625 2.359375zm0 0"/></symbol><symbol id="e" overflow="visible"><path d="m4.625-4.859375c-.375.0625-.5625.328125-.5625.59375 0 .28125.234375.375.390625.375.34375 0 .609375-.28125.609375-.640625 0-.375-.359375-.71875-.953125-.71875-.484375 0-1.03125.21875-1.53125.953125-.078125-.640625-.5625-.953125-1.03125-.953125s-.703125.359375-.84375.625c-.203125.421875-.375 1.140625-.375 1.203125 0 .046875.046875.109375.125.109375.09375 0 .109375-.015625.171875-.296875.1875-.703125.40625-1.390625.890625-1.390625.28125 0 .359375.203125.359375.546875 0 .25-.109375.71875-.203125 1.09375l-.328125 1.28125c-.046875.21875-.171875.765625-.234375.96875-.09375.3125-.21875.875-.21875.9375 0 .15625.125.296875.3125.296875.125 0 .359375-.09375.421875-.328125.046875-.09375.484375-1.890625.546875-2.15625s.140625-.515625.1875-.78125c.046875-.171875.109375-.359375.140625-.515625.03125-.09375.359375-.6875.65625-.953125.140625-.125.453125-.390625.9375-.390625.1875 0 .375.03125.53125.140625zm0 0"/></symbol><symbol id="f" overflow="visible"><path d="m5.5-3.015625c0-1.140625-.65625-2.234375-1.90625-2.234375-1.5625 0-3.125 1.703125-3.125 3.390625 0 1.03125.65625 1.984375 1.859375 1.984375.734375 0 1.625-.296875 2.46875-1 .15625.65625.53125 1 1.046875 1 .640625 0 .953125-.671875.953125-.828125 0-.109375-.078125-.109375-.109375-.109375-.09375 0-.109375.046875-.140625.140625-.109375.296875-.390625.546875-.671875.546875-.375 0-.375-.75-.375-1.484375 1.21875-1.453125 1.5-2.9375 1.5-2.953125 0-.109375-.09375-.109375-.125-.109375-.109375 0-.125.03125-.171875.25-.15625.515625-.453125 1.453125-1.203125 2.421875zm-.75 1.84375c-1.046875.953125-1.984375 1.046875-2.390625 1.046875-.84375 0-1.09375-.75-1.09375-1.296875 0-.515625.265625-1.734375.640625-2.390625.484375-.828125 1.15625-1.1875 1.6875-1.1875 1.15625 0 1.15625 1.5 1.15625 2.5 0 .296875-.015625.609375-.015625.90625 0 .234375.015625.296875.015625.421875zm0 0"/></symbol><g fill="none" stroke="#f00" stroke-linejoin="round" stroke-miterlimit="10" transform="matrix(.0994649 0 0 -.0994649 0 100.027296)"><path d="m994.540414 502.257349c0 5.06617-.078546 10.132341-.235636 15.15924-.157091 5.066171-.392727 10.093069-.706908 15.15924-.314181 5.026898-.706907 10.093069-1.178179 15.119968-.471272 5.026898-.981816 10.053796-1.610178 15.080695-.628363 4.987625-1.33527 10.014524-2.120723 15.002149-.74618 4.987626-1.610179 9.975252-2.552722 14.923605-.903271 4.987625-1.92436 9.935978-2.984721 14.884331-1.099634 4.909081-2.238541 9.857434-3.495265 14.727241-1.217452 4.909081-2.552722 9.818161-3.927264 14.648696-1.374543 4.869808-2.827631 9.700343-4.359264 14.530878s-3.141811 9.621798-4.830535 14.373788c-1.688724 4.751989-3.41672 9.503979-5.262534 14.216696-1.806542 4.712718-3.691629 9.386162-5.694533 14.059607-1.963632 4.634172-4.00581 9.268343-6.126533 13.863243-2.08145 4.594899-4.280718 9.150526-6.519258 13.666879-2.277814 4.555627-4.5949 9.032708-6.990531 13.470517-2.395631 4.477081-4.830535 8.875617-7.383257 13.234881" stroke-width="19.9849"/><path d="m502.257832 502.257349h492.282582" stroke-linecap="round" stroke-width="4.99621"/><path d="m502.257832 502.257349 426.304541 246.121654" stroke-linecap="round" stroke-width="4.99621"/></g><g clip-path="url(#a)"><path d="m928.562373 748.379003c-2.277813 4.005809-4.634172 7.972346-7.069076 11.899611-2.395631 3.927264-4.869807 7.815256-7.422529 11.663975-2.513449 3.848719-5.105444 7.697438-7.736711 11.467611-2.631267 3.770174-5.301807 7.540348-8.050892 11.231976-2.749085 3.730901-5.537442 7.383257-8.365073 11.035613-2.82763 3.613083-5.733805 7.186894-8.679254 10.760704-2.945448 3.534538-5.930169 7.069076-8.954162 10.525069-3.063266 3.455992-6.165805 6.872712-9.268344 10.250159-3.141812 3.377448-6.322896 6.715622-9.582525 10.014524-3.220357 3.298902-6.479986 6.519259-9.818161 9.739616-3.338174 3.181084-6.676349 6.322895-10.093069 9.425434s-6.872713 6.165805-10.367978 9.150526c-3.495265 3.023994-7.029803 5.969442-10.603613 8.875617-3.573811 2.906176-7.186894 5.773079-10.878523 8.561437-3.652355 2.82763-7.343984 5.576715-11.074885 8.286527-3.730901 2.67054-7.501075 5.34108-11.310521 7.933074-3.848719 2.591995-7.658166 5.144716-11.546157 7.618893-3.887992 2.474177-7.815256 4.90908-11.742521 7.304712-3.966536 2.356358-7.972346 4.673444-11.978156 6.951257-4.005809 2.277814-8.050891 4.477082-12.135246 6.637077-4.084355 2.120723-8.16871 4.241446-12.33161 6.24435-4.123628 2.042178-8.286528 4.045083-12.488701 5.930169-4.202173 1.92436-8.404345 3.809447-12.645791 5.576716-4.241445 1.806541-8.522163 3.57381-12.802882 5.223261-4.31999 1.688724-8.600708 3.298902-12.959972 4.869808-4.359263 1.570906-8.718527 3.063266-13.07779 4.477081-4.398536 1.453088-8.797072 2.827631-13.195608 4.123628-4.437809 1.33527-8.875617 2.591994-13.313426 3.770174-4.477081 1.178179-8.91489 2.317086-13.431244 3.377447-4.477081 1.060361-8.993435 2.042177-13.470516 2.984721-4.516354.942543-9.071981 1.806541-13.588335 2.631267-4.555627.785453-9.111253 1.531633-13.66688 2.238541-4.555626.667634-9.111253 1.295997-13.706152 1.845814-4.555627.549817-9.150526 1.021089-13.745425 1.453088-4.5949.431999-9.189799.785452-13.784698 1.060361-4.594899.314181-9.189799.549817-13.82397.706908-4.5949.15709-9.189799.235635-13.823971.274908-4.594899.039273-9.229071.039273-13.82397-.078545-4.594899-.078546-9.229071-.235636-13.823971-.471272-4.594899-.235636-9.189798-.510544-13.784697-.863998-4.634172-.353454-9.189799-.785453-13.784698-1.256725-4.594899-.471271-9.150526-1.021088-13.745425-1.649451-4.555627-.589089-9.111253-1.256724-13.66688-2.002905-4.555626-.74618-9.111253-1.531633-13.627607-2.395631-4.516354-.903271-9.032708-1.806541-13.549062-2.788357-4.477081-1.021089-8.993435-2.08145-13.470516-3.181084-4.477082-1.138907-8.91489-2.317086-13.352699-3.534538-4.437809-1.256725-8.875617-2.552722-13.274153-3.927265-4.398536-1.374542-8.7578-2.788357-13.156336-4.280718-4.359263-1.49236-8.679254-3.063266-12.999245-4.673444-4.31999-1.610179-8.639981-3.298902-12.881427-5.026899-4.280718-1.727996-8.522163-3.534537-12.763609-5.380352-4.202173-1.845814-8.404345-3.770173-12.567245-5.733806-4.162901-1.963632-8.325801-4.005809-12.410156-6.087259-4.123627-2.08145-8.207982-4.241446-12.253064-6.440714-4.045083-2.199268-8.050892-4.477081-12.056702-6.794167-3.966537-2.317086-7.933074-4.673445-11.860338-7.108348-3.927264-2.395632-7.815256-4.909081-11.663975-7.42253-3.848719-2.552722-7.658165-5.144716-11.428339-7.775983s-7.540348-5.34108-11.231976-8.090165-7.343984-5.537442-10.99634-8.404345c-3.613083-2.827631-7.186894-5.733806-10.721432-8.679255-3.534538-2.98472-7.069075-5.969441-10.525068-9.032707-3.455993-3.023994-6.872713-6.126533-10.210887-9.268344-3.377448-3.141812-6.715622-6.362168-9.975252-9.582525-3.298902-3.259629-6.519258-6.519259-9.739615-9.857434-3.181084-3.338174-6.322896-6.715621-9.425434-10.132341-3.063267-3.41672-6.126533-6.872713-9.111254-10.367978-2.98472-3.495265-5.930169-7.069076-8.836344-10.642886-2.906176-3.573811-5.733806-7.226167-8.561436-10.878523-2.788358-3.652355-5.537443-7.383257-8.207983-11.114158-2.709812-3.730901-5.341079-7.540347-7.933074-11.349793-2.591994-3.809447-5.105443-7.658166-7.57962-11.546158-2.474176-3.887991-4.90908-7.815256-7.265439-11.781792-2.356358-3.966537-4.673444-7.933074-6.911985-11.978157-2.277813-4.005809-4.477081-8.050891-6.597804-12.135246-2.159995-4.084355-4.241446-8.207983-6.24435-12.33161-2.042178-4.1629-4.00581-8.325801-5.930169-12.527973-1.885087-4.202173-3.730902-8.404346-5.537443-12.685064-1.767269-4.241446-3.495265-8.522164-5.183989-12.802882-1.649451-4.280718-3.259629-8.639981-4.830535-12.959972-1.531633-4.359263-3.023994-8.718527-4.437809-13.07779-1.413815-4.398536-2.788357-8.797072-4.084355-13.234881-1.295997-4.437809-2.552721-8.875617-3.730901-13.313426-1.178179-4.477081-2.277813-8.91489-3.338174-13.431244-1.060362-4.477081-2.042178-8.993435-2.945449-13.509789-.942543-4.516354-1.806541-9.032708-2.591994-13.588335-.785453-4.516353-1.531633-9.07198-2.199268-13.627607-.667635-4.594899-1.256725-9.150526-1.806542-13.745425-.549817-4.555626-1.021088-9.150526-1.453088-13.745425-.392726-4.594899-.74618-9.189798-1.021088-13.784698-.274909-4.594899-.510545-9.189798-.667635-13.82397-.157091-4.594899-.235636-9.189798-.235636-13.82397-.039273-4.5949 0-9.229071.117818-13.823971.078545-4.594899.274908-9.229071.510544-13.82397s.510545-9.189799.903271-13.784698c.353454-4.594899.785453-9.189798 1.256725-13.784697.510544-4.5949 1.060361-9.150526 1.688723-13.706153.628363-4.594899 1.295998-9.150526 2.08145-13.706152.746181-4.555627 1.531633-9.071981 2.434904-13.588335.863998-4.555626 1.806542-9.07198 2.827631-13.549062.981816-4.516354 2.042177-8.993435 3.181084-13.470516 1.138906-4.477082 2.317086-8.91489 3.57381-13.352699 1.256725-4.437809 2.591995-8.836345 3.966537-13.234881 1.374543-4.398536 2.82763-8.797072 4.319991-13.156335 1.49236-4.359264 3.063266-8.679254 4.712717-12.999245 1.610178-4.319991 3.298902-8.600709 5.026898-12.881427 1.767269-4.280718 3.573811-8.522163 5.419625-12.724336 1.885087-4.202173 3.809446-8.404346 5.773079-12.567246 2.002904-4.1629 4.045082-8.286528 6.126532-12.410155 2.08145-4.084355 4.241445-8.16871 6.479986-12.213792 2.199268-4.045083 4.477081-8.050892 6.794167-12.056702 2.317086-3.966537 4.712717-7.893801 7.147621-11.821065 2.434904-3.927265 4.909081-7.815256 7.461803-11.624703 2.552721-3.848719 5.144716-7.658165 7.815256-11.428339 2.631267-3.770174 5.341079-7.501075 8.090164-11.192703 2.749085-3.730901 5.576715-7.383257 8.443618-10.99634s5.773079-7.186894 8.718527-10.721432 5.969442-7.029803 9.032708-10.485795c3.063266-3.41672 6.165805-6.83344 9.307616-10.210888 3.181084-3.338174 6.362169-6.676349 9.621798-9.935978 3.259629-3.298902 6.519259-6.519259 9.857433-9.700343 3.338175-3.181084 6.715622-6.283623 10.171615-9.386162 3.41672-3.063266 6.872712-6.126532 10.40725-9.111253 3.495266-2.984721 7.069076-5.930169 10.642887-8.797072 3.613083-2.906176 7.226166-5.733806 10.917794-8.522164 3.652356-2.788357 7.383257-5.537442 11.114158-8.207982 3.770174-2.67054 7.540348-5.301807 11.389067-7.893801 3.809446-2.552722 7.658165-5.066171 11.546157-7.540348 3.927264-2.474176 7.854529-4.869808 11.821065-7.226166 3.966537-2.356359 7.933074-4.673445 11.978157-6.911985 4.005809-2.238541 8.090164-4.437809 12.174519-6.558532 4.084355-2.120722 8.207982-4.202173 12.33161-6.205077 4.1629-2.042178 8.3258-3.966537 12.527973-5.890897 4.202173-1.885087 8.443618-3.730901 12.685064-5.49817 4.280718-1.767269 8.561436-3.495265 12.842154-5.144716 4.319991-1.649451 8.639982-3.259629 12.959972-4.791263 4.359264-1.531633 8.718527-3.023993 13.117063-4.437808s8.797072-2.749085 13.234881-4.045082c4.437808-1.295998 8.875617-2.51345 13.313426-3.691629 4.477081-1.178179 8.954162-2.277813 13.431244-3.298902 4.516354-1.060361 8.993435-2.002905 13.509789-2.945448 4.516354-.903271 9.071981-1.727996 13.588334-2.513449 4.555627-.785453 9.111254-1.531633 13.66688-2.199268 4.5949-.628363 9.150526-1.217452 13.745425-1.767269 4.555627-.510545 9.150526-.981816 13.745425-1.374543 4.5949-.392726 9.189799-.74618 13.784698-1.021088 4.594899-.274909 9.229071-.471272 13.823971-.628363 4.594899-.117818 9.229071-.196363 13.82397-.196363 4.594899-.039273 9.229071.039273 13.82397.157091 4.634172.117818 9.229071.274908 13.823971.510544 4.594899.274908 9.189798.58909 13.784697.942543 4.5949.392727 9.189799.824726 13.784698 1.33527 4.594899.510545 9.150526 1.060362 13.706153 1.727997 4.594899.628362 9.150525 1.295997 13.706152 2.08145 4.516354.74618 9.071981 1.570905 13.588334 2.474176 4.516354.903271 9.032708 1.845814 13.549062 2.866903 4.477082 1.021089 8.954163 2.08145 13.431244 3.220357 4.477082 1.138906 8.91489 2.356358 13.352699 3.613083s8.836345 2.591994 13.234881 4.00581c4.398536 1.374542 8.757799 2.82763 13.117062 4.359263 4.359264 1.49236 8.679255 3.063266 12.999245 4.712717 4.319991 1.649451 8.600709 3.338175 12.881427 5.066171 4.241446 1.767269 8.482891 3.573811 12.685064 5.458898 4.241445 1.885086 8.404346 3.809446 12.567246 5.812351 4.1629 2.002904 8.286527 4.045082 12.370882 6.165805 4.123628 2.08145 8.16871 4.241445 12.213792 6.479986 4.045083 2.23854 8.050892 4.516354 12.017429 6.83344 4.00581 2.356358 7.933074 4.751989 11.860338 7.186893 3.887992 2.434904 7.775984 4.948353 11.58543 7.501075 3.848719 2.552722 7.658165 5.144716 11.428339 7.815256s7.461802 5.380352 11.153431 8.129437c3.691628 2.788358 7.343984 5.615988 10.957067 8.482891s7.186894 5.773079 10.721432 8.7578c3.495265 2.945448 6.99053 5.969441 10.446523 9.032707 3.41672 3.063267 6.83344 6.205078 10.171614 9.34689 3.377448 3.181084 6.67635 6.40144 9.935979 9.621797 3.259629 3.259629 6.479986 6.558532 9.66107 9.935979 3.181084 3.338174 6.283623 6.715622 9.386162 10.171614 3.063266 3.41672 6.08726 6.911986 9.071981 10.407251 2.98472 3.534538 5.890896 7.069076 8.797072 10.682159 2.866903 3.613083 5.694533 7.265439 8.443618 10.917794 2.788358 3.691629 5.537443 7.42253 8.207982 11.153431 2.67054 3.770174 5.262534 7.57962 7.854529 11.389067 2.552722 3.848719 5.066171 7.697438 7.501075 11.624702 2.474176 3.887992 4.869807 7.815256 7.226166 11.781793s4.634172 7.972346 6.872713 12.017429c2.23854 4.045082 4.398536 8.090164 6.519258 12.174519 2.120723 4.123628 4.162901 8.247255 6.165805 12.370883 2.002905 4.1629 3.966537 8.3258 5.851624 12.567245 1.885087 4.202173 3.730901 8.443619 5.49817 12.685064 1.767269 4.241446 3.455993 8.522164 5.105444 12.842154 1.649451 4.319991 3.220357 8.639982 4.75199 12.999245 1.531633 4.359264 2.98472 8.718527 4.398536 13.117063 1.413815 4.398536 2.749085 8.797072 4.005809 13.234881 1.295997 4.398536 2.513449 8.875617 3.652356 13.313426 1.178179 4.477081 2.238541 8.954162 3.259629 13.431244 1.060362 4.516354 2.002905 9.032708 2.906176 13.549062s1.727996 9.032708 2.513449 13.588334c.785453 4.555627 1.492361 9.111253 2.120723 13.66688.667635 4.555627 1.256724 9.150526 1.767269 13.706152.510544 4.5949.942543 9.189799 1.33527 13.784698.392726 4.594899.706907 9.189799.981816 13.784698.274908 4.594899.471271 9.229071.589089 13.82397s.196364 9.229071.196364 13.823971" fill="none" stroke="#000" stroke-linejoin="round" stroke-miterlimit="10" stroke-width="19.9849" transform="matrix(.0994649 0 0 -.0994649 0 100.027296)"/></g><path d="m785.531407 502.257349c0 51.604253-13.82397 99.988149-37.937373 141.656423" fill="none" stroke="#000" stroke-linejoin="round" stroke-miterlimit="10" stroke-width="4.99621" transform="matrix(.0994649 0 0 -.0994649 0 100.027296)"/><use x="37.239464" xlink:href="#b" y="54.074506"/><use x="102.528258" xlink:href="#c" y="54.074506"/><use x="95.963747" xlink:href="#d" y="29.606138"/><use fill="#f00" x="62.066105" xlink:href="#e" y="40.348348"/><use x="80.685837" xlink:href="#f" y="43.69017"/></svg>