<svg height="95.600708mm" viewBox="0 0 204.66553 95.600708" width="204.66553mm" xmlns="http://www.w3.org/2000/svg" xmlns:xlink="http://www.w3.org/1999/xlink"><marker id="a" orient="auto" overflow="visible" refX="0" refY="0"><path d="m0 0 5-5-17.5 5 17.5 5z" fill-rule="evenodd" stroke="#000" stroke-width="1pt" transform="matrix(-.8 0 0 -.8 -10 0)"/></marker><marker id="b" orient="auto" overflow="visible" refX="0" refY="0"><path d="m0 0 5-5-17.5 5 17.5 5z" fill-rule="evenodd" stroke="#000" stroke-width="1pt" transform="matrix(-.8 0 0 -.8 -10 0)"/></marker><marker id="c" orient="auto" overflow="visible" refX="0" refY="0"><path d="m0 0 5-5-17.5 5 17.5 5z" fill-rule="evenodd" stroke="#000" stroke-width="1pt" transform="matrix(-.8 0 0 -.8 -10 0)"/></marker><marker id="d" orient="auto" overflow="visible" refX="0" refY="0"><path d="m0 0 5-5-17.5 5 17.5 5z" fill-rule="evenodd" stroke="#000" stroke-width="1pt" transform="matrix(-.8 0 0 -.8 -10 0)"/></marker><marker id="e" orient="auto" overflow="visible" refX="0" refY="0"><path d="m0 0 5-5-17.5 5 17.5 5z" fill-rule="evenodd" stroke="#000" stroke-width="1pt" transform="matrix(-.8 0 0 -.8 -10 0)"/></marker><marker id="f" orient="auto" overflow="visible" refX="0" refY="0"><path d="m0 0 5-5-17.5 5 17.5 5z" fill-rule="evenodd" stroke="#000" stroke-width="1pt" transform="matrix(.8 0 0 .8 10 0)"/></marker><marker id="g" orient="auto" overflow="visible" refX="0" refY="0"><path d="m0 0 5-5-17.5 5 17.5 5z" fill-rule="evenodd" stroke="#000" stroke-width="1pt" transform="matrix(-.8 0 0 -.8 -10 0)"/></marker><g transform="translate(-5.746884 -104.30099)"><g stroke="#000"><path d="m7.0506129 189.04603 17.6397891-17.23888 58.398389.13363-17.23888 17.23889z" fill="#ccc" stroke-width="1.065"/><path d="m44.067442 127.0395-.267271 51.98392 36.749565-47.57397" fill="none" marker-end="url(#g)" marker-start="url(#f)" stroke-width=".565"/><path d="m71.763241 124.50044-28.138568 55.01907 47.649248-42.32377" fill="none" stroke-width=".264583"/><ellipse cx="136.52711" cy="71.380394" fill="none" rx="11.626225" ry="5.679486" stroke-linecap="round" stroke-width=".265" transform="matrix(.86296588 .5052622 -.5052622 .86296588 0 0)"/><path d="m153.67099 156.31271 22.85153 30.33508" fill="none" stroke-width="1.365"/><path d="m107.83426 191.19138 62.94198-.13364" fill="none" stroke-width="1.365"/><path d="m187.61421 130.9221-79.77995 60.26928" fill="none" marker-end="url(#a)" stroke-width=".264583"/><path d="m196.16684 140.00927-67.61919 50.91484" fill="none" marker-end="url(#d)" stroke-width=".264583"/><path d="m204.45219 150.03187-54.65661 41.02587" fill="none" marker-end="url(#c)" stroke-width=".264583"/><path d="m210.33213 160.85629-39.55589 30.20145" fill="none" marker-end="url(#b)" stroke-width=".264583"/><path d="m153.67098 191.08652.13364-85.68866" fill="none" marker-end="url(#e)" stroke-width=".565"/><path d="m153.89031 127.58215a27.528765 28.731476 0 0 1 22.21787 12.08362" fill="none" stroke-linecap="round" stroke-width=".265"/><path d="m43.710331 149.28036a27.528765 28.731476 0 0 1 17.661334 6.8849" fill="none" stroke-linecap="round" stroke-width=".265"/></g><text font-family="sans-serif" font-size="6.35" letter-spacing="0" stroke-width=".264583" word-spacing="0" x="49.81374" y="147.61926"><tspan font-style="italic" stroke-width=".264583" x="49.81374" y="147.61926">θ</tspan></text><text font-family="sans-serif" font-size="6.35" letter-spacing="0" stroke-width=".264583" word-spacing="0" x="167.47203" y="128.6391"><tspan font-style="italic" stroke-width=".264583" x="167.47203" y="128.6391">θ</tspan></text><text font-family="sans-serif" font-size="6.35" letter-spacing="0" stroke-width=".264583" word-spacing="0" x="81.569565" y="135.85762"><tspan font-style="italic" stroke-width=".264583" x="81.569565" y="135.85762"><tspan font-style="normal">d</tspan>Ω</tspan></text><text font-family="sans-serif" font-size="6.35" letter-spacing="0" stroke-width=".264583" word-spacing="0" x="133.82016" y="198.6317"><tspan stroke-width=".264583" x="133.82016" y="198.6317">d<tspan font-style="italic">A</tspan><tspan baseline-shift="sub" font-size="64.999998%">1</tspan></tspan></text><text font-family="sans-serif" font-size="6.35" letter-spacing="0" stroke-width=".264583" word-spacing="0" x="154.77681" y="176.97443"><tspan stroke-width=".264583" x="154.77681" y="176.97443">d<tspan font-style="italic" stroke-width=".264583">A</tspan><tspan baseline-shift="sub" font-size="64.999998%">2</tspan></tspan></text><text font-family="sans-serif" font-size="6.35" letter-spacing="0" stroke-width=".264583" word-spacing="0" x="18.836435" y="185.18771"><tspan stroke-width=".264583" x="18.836435" y="185.18771">d<tspan font-style="italic" stroke-width=".264583">A</tspan><tspan stroke-width=".264583"/></tspan></text><text font-family="sans-serif" font-size="6.35" letter-spacing="0" stroke-width=".264583" word-spacing="0" x="41.06126" y="183.74367"><tspan font-style="italic" font-weight="bold" stroke-width=".264583" x="41.06126" y="183.74367">x</tspan></text><path d="m173.54942 174.27018-2.92931 2.22061 1.84263 2.48047" fill="none" stroke="#000" stroke-width=".264583"/><path d="m166.17888 164.15932-2.92931 2.22061 1.84263 2.48047" fill="none" stroke="#000" stroke-width=".264583"/><path d="m158.61936 154.14295-2.92931 2.22061 1.84263 2.48047" fill="none" stroke="#000" stroke-width=".264583"/></g></svg>