<svg height="96.664047mm" viewBox="0 0 167.83017 96.664047" width="167.83017mm" xmlns="http://www.w3.org/2000/svg"><g stroke-width=".264583" transform="translate(-2.86059 -93.080624)"><path d="m170.51796 165.23612-167.5779952-20.04521 144.0582752 43.96584" fill="none" stroke="#000"/><path d="m43.965836 157.61894c2.806331-9.75534 1.336349-21.11429 1.336349-21.11429s5.88624-3.02711 9.488068-7.48355c1.764912 6.56648 2.004521 16.30344 1.069077 22.31701-5.479025 6.41447-11.893494 6.28083-11.893494 6.28083z" fill="#ececec" stroke="#000"/><path d="m85.258978 170.31424c6.658731-14.49959 2.806331-42.22858 2.806331-42.22858s12.968881-10.51066 16.570711-14.9671c4.57124 9.90735 8.28536 28.59784 3.20723 44.63402-5.47902 6.41447-13.704145 10.4905-22.584272 12.56166z" fill="#ececec" stroke="#000"/><path d="m126.41849 182.74227c6.52509-15.56867 6.34731-42.4838 4.54358-63.0756 7.46104-6.0468 14.03796-7.70433 23.65335-21.782473 6.17486 11.510963 12.69531 37.284103 5.34539 65.614673-5.47902 6.41447-16.24321 14.63318-33.54232 19.2434z" fill="#ececec" stroke="#000"/><path d="m169.98342 112.04948s-165.9743772 32.33962-167.0434552 33.14143l167.7116252-51.983925" fill="none" stroke="#000"/><path d="m89.251808 149.08253c9.488069-3.07361 20.729602-13.24606 20.729602-13.24606" fill="none" stroke="#000"/><path d="m96.562579 120.93284c6.013561 17.10525 6.287551 35.995 2.011239 44.14672" fill="none" stroke="#000"/><path d="m139.78196 113.6531c5.61266 18.97614 6.49785 53.72719-1.11933 64.81888" fill="none" stroke="#000"/><path d="m148.73549 105.63502c6.94901 18.97613 6.64833 47.54056 2.50565 65.7149" fill="none" stroke="#000"/><path d="m132.03115 141.04822c15.7689-2.13815 29.53328-21.64882 29.53328-21.64882" fill="none" stroke="#000"/><path d="m131.22934 163.6325c22.98518-7.88445 31.67144-16.83798 31.67144-16.83798" fill="none" stroke="#000"/><g font-family="sans-serif" font-size="6.35" letter-spacing="0" word-spacing="0"><text x="40.443455" y="163.76338"><tspan stroke-width=".264583" x="40.443455" y="163.76338">d</tspan></text><text x="79.56398" y="177.18155"><tspan stroke-width=".264583" x="79.56398" y="177.18155">2d</tspan></text><text x="121.51935" y="189.65475"><tspan stroke-width=".264583" x="121.51935" y="189.65475">3d</tspan></text><text x="46.882488" y="145.99887"><tspan stroke-width=".264583" x="46.882488" y="145.99887">dA</tspan></text><text x="90.788414" y="138.28816"><tspan stroke-width=".264583" x="90.788414" y="138.28816">dA</tspan></text><text x="100.12442" y="132.20274"><tspan stroke-width=".264583" x="100.12442" y="132.20274">dA</tspan></text><text x="90.108055" y="159.60602"><tspan stroke-width=".264583" x="90.108055" y="159.60602">dA</tspan></text><text x="101.22055" y="153.40721"><tspan stroke-width=".264583" x="101.22055" y="153.40721">dA</tspan></text><text x="132.21458" y="130.87982"><tspan stroke-width=".264583" x="132.21458" y="130.87982">dA</tspan></text><text x="142.7601" y="124.68102"><tspan stroke-width=".264583" x="142.7601" y="124.68102">dA</tspan></text><text x="151.1512" y="113.45514"><tspan stroke-width=".264583" x="151.1512" y="113.45514">dA</tspan></text><text x="133.65088" y="152.50008"><tspan stroke-width=".264583" x="133.65088" y="152.50008">dA</tspan></text><text x="144.91458" y="146.67924"><tspan stroke-width=".264583" x="144.91458" y="146.67924">dA</tspan></text><text x="154.70416" y="140.51822"><tspan stroke-width=".264583" x="154.70416" y="140.51822">dA</tspan></text><text x="131.30745" y="173.8557"><tspan stroke-width=".264583" x="131.30745" y="173.8557">dA</tspan></text><text x="143.28931" y="167.35452"><tspan stroke-width=".264583" x="143.28931" y="167.35452">dA</tspan></text><text x="153.19226" y="161.4581"><tspan stroke-width=".264583" x="153.19226" y="161.4581">dA</tspan></text></g></g></svg>