<svg height="237.786435pt" stroke-linejoin="round" viewBox="0 0 491.654687 237.786435" width="491.654687pt" xmlns="http://www.w3.org/2000/svg" xmlns:xlink="http://www.w3.org/1999/xlink"><defs stroke-linejoin="round"><clipPath id="a" stroke-linejoin="round"><path d="m30.103125 10.999219h202.909091v202.909091h-202.909091z"/></clipPath><clipPath id="b" stroke-linejoin="round"><path d="m273.594034 10.999219h202.909091v202.909091h-202.909091z"/></clipPath><path id="c" d="m0 0v3.5" stroke="#000" stroke-linejoin="round" stroke-width=".8"/><path id="d" d="m31.78125 66.40625q-7.609375 0-11.453125-7.5-3.828125-7.484375-3.828125-22.53125 0-14.984375 3.828125-22.484375 3.84375-7.5 11.453125-7.5 7.671875 0 11.5 7.5 3.84375 7.5 3.84375 22.484375 0 15.046875-3.84375 22.53125-3.828125 7.5-11.5 7.5zm0 7.8125q12.265625 0 18.734375-9.703125 6.46875-9.6875 6.46875-28.140625 0-18.40625-6.46875-28.109375-6.46875-9.6875-18.734375-9.6875-12.25 0-18.71875 9.6875-6.46875 9.703125-6.46875 28.109375 0 18.453125 6.46875 28.140625 6.46875 9.703125 18.71875 9.703125z" stroke-linejoin="round"/><path id="e" d="m10.6875 12.40625h10.3125v-12.40625h-10.3125z" stroke-linejoin="round"/><path id="f" d="m19.1875 8.296875h34.421875v-8.296875h-46.28125v8.296875q5.609375 5.8125 15.296875 15.59375 9.703125 9.796875 12.1875 12.640625 4.734375 5.3125 6.609375 9 1.890625 3.6875 1.890625 7.25 0 5.8125-4.078125 9.46875-4.078125 3.671875-10.625 3.671875-4.640625 0-9.796875-1.609375-5.140625-1.609375-11-4.890625v9.96875q5.953125 2.390625 11.125 3.609375 5.1875 1.21875 9.484375 1.21875 11.328125 0 18.0625-5.671875 6.734375-5.65625 6.734375-15.125 0-4.5-1.6875-8.53125-1.671875-4.015625-6.125-9.484375-1.21875-1.421875-7.765625-8.1875-6.53125-6.765625-18.453125-18.921875z" stroke-linejoin="round"/><path id="g" d="m37.796875 64.3125-24.90625-38.921875h24.90625zm-2.59375 8.59375h12.40625v-47.515625h10.40625v-8.203125h-10.40625v-17.1875h-9.8125v17.1875h-32.90625v9.515625z" stroke-linejoin="round"/><path id="h" d="m33.015625 40.375q-6.640625 0-10.53125-4.546875-3.875-4.53125-3.875-12.4375 0-7.859375 3.875-12.4375 3.890625-4.5625 10.53125-4.5625 6.640625 0 10.515625 4.5625 3.875 4.578125 3.875 12.4375 0 7.90625-3.875 12.4375-3.875 4.546875-10.515625 4.546875zm19.578125 30.921875v-8.984375q-3.71875 1.75-7.5 2.671875-3.78125.9375-7.5.9375-9.765625 0-14.921875-6.59375-5.140625-6.59375-5.875-19.921875 2.875 4.25 7.21875 6.515625 4.359375 2.265625 9.578125 2.265625 10.984375 0 17.359375-6.671875 6.375-6.65625 6.375-18.125 0-11.234375-6.640625-18.03125-6.640625-6.78125-17.671875-6.78125-12.65625 0-19.34375 9.6875-6.6875 9.703125-6.6875 28.109375 0 17.28125 8.203125 27.5625 8.203125 10.28125 22.015625 10.28125 3.71875 0 7.5-.734375 3.78125-.734375 7.890625-2.1875z" stroke-linejoin="round"/><path id="i" d="m31.78125 34.625q-7.03125 0-11.0625-3.765625-4.015625-3.765625-4.015625-10.34375 0-6.59375 4.015625-10.359375 4.03125-3.765625 11.0625-3.765625 7.03125 0 11.078125 3.78125 4.0625 3.796875 4.0625 10.34375 0 6.578125-4.03125 10.34375-4.015625 3.765625-11.109375 3.765625zm-9.859375 4.1875q-6.34375 1.5625-9.890625 5.90625-3.53125 4.359375-3.53125 10.609375 0 8.734375 6.21875 13.8125 6.234375 5.078125 17.0625 5.078125 10.890625 0 17.09375-5.078125 6.203125-5.078125 6.203125-13.8125 0-6.25-3.546875-10.609375-3.53125-4.34375-9.828125-5.90625 7.125-1.65625 11.09375-6.5 3.984375-4.828125 3.984375-11.796875 0-10.609375-6.46875-16.28125-6.46875-5.65625-18.53125-5.65625-12.046875 0-18.53125 5.65625-6.46875 5.671875-6.46875 16.28125 0 6.96875 4 11.796875 4.015625 4.84375 11.140625 6.5zm-3.609375 15.578125q0-5.65625 3.53125-8.828125 3.546875-3.171875 9.9375-3.171875 6.359375 0 9.9375 3.171875 3.59375 3.171875 3.59375 8.828125 0 5.671875-3.59375 8.84375-3.578125 3.171875-9.9375 3.171875-6.390625 0-9.9375-3.171875-3.53125-3.171875-3.53125-8.84375z" stroke-linejoin="round"/><path id="j" d="m12.40625 8.296875h16.109375v55.625l-17.53125-3.515625v8.984375l17.4375 3.515625h9.859375v-64.609375h16.109375v-8.296875h-41.984375z" stroke-linejoin="round"/><path id="k" d="m0 0h-3.5" stroke="#000" stroke-linejoin="round" stroke-width=".8"/><path id="l" d="m0 3c.795609 0 1.55874-.316099 2.12132-.87868.562581-.56258.87868-1.325711.87868-2.12132s-.316099-1.55874-.87868-2.12132c-.56258-.562581-1.325711-.87868-2.12132-.87868s-1.55874.316099-2.12132.87868c-.562581.56258-.87868 1.325711-.87868 2.12132s.316099 1.55874.87868 2.12132c.56258.562581 1.325711.87868 2.12132.87868z" stroke="#000" stroke-linejoin="round"/></defs><g stroke-linejoin="round"><path d="m0 237.786435h491.654687v-237.786435h-491.654687z" fill="#fff"/><g><path d="m30.103125 213.90831h202.909091v-202.909091h-202.909091z" fill="#fff" stroke-linejoin="round"/><g stroke-linejoin="round"><g><use stroke="#000" stroke-width=".8" x="30.103125" xlink:href="#c" y="213.90831"/><g transform="matrix(.1 0 0 -.1 22.151563 228.506747)"><use xlink:href="#d"/><use x="63.623047" xlink:href="#e"/><use x="95.410156" xlink:href="#d"/></g></g><g><use stroke="#000" stroke-width=".8" x="70.684943" xlink:href="#c" y="213.90831"/><g transform="matrix(.1 0 0 -.1 62.733381 228.506747)"><use xlink:href="#d"/><use x="63.623047" xlink:href="#e"/><use x="95.410156" xlink:href="#f"/></g></g><g><use stroke="#000" stroke-width=".8" x="111.266761" xlink:href="#c" y="213.90831"/><g transform="matrix(.1 0 0 -.1 103.315199 228.506747)"><use xlink:href="#d"/><use x="63.623047" xlink:href="#e"/><use x="95.410156" xlink:href="#g"/></g></g><g><use stroke="#000" stroke-width=".8" x="151.84858" xlink:href="#c" y="213.90831"/><g transform="matrix(.1 0 0 -.1 143.897017 228.506747)"><use xlink:href="#d"/><use x="63.623047" xlink:href="#e"/><use x="95.410156" xlink:href="#h"/></g></g><g><use stroke="#000" stroke-width=".8" x="192.430398" xlink:href="#c" y="213.90831"/><g transform="matrix(.1 0 0 -.1 184.478835 228.506747)"><use xlink:href="#d"/><use x="63.623047" xlink:href="#e"/><use x="95.410156" xlink:href="#i"/></g></g><g><use stroke="#000" stroke-width=".8" x="233.012216" xlink:href="#c" y="213.90831"/><g transform="matrix(.1 0 0 -.1 225.060653 228.506747)"><use xlink:href="#j"/><use x="63.623047" xlink:href="#e"/><use x="95.410156" xlink:href="#d"/></g></g></g><g stroke-linejoin="round"><g><use stroke="#000" stroke-width=".8" x="30.103125" xlink:href="#k" y="213.90831"/><g transform="matrix(.1 0 0 -.1 7.2 217.707528)"><use xlink:href="#d"/><use x="63.623047" xlink:href="#e"/><use x="95.410156" xlink:href="#d"/></g></g><g><use stroke="#000" stroke-width=".8" x="30.103125" xlink:href="#k" y="173.326491"/><g transform="matrix(.1 0 0 -.1 7.2 177.12571)"><use xlink:href="#d"/><use x="63.623047" xlink:href="#e"/><use x="95.410156" xlink:href="#f"/></g></g><g><use stroke="#000" stroke-width=".8" x="30.103125" xlink:href="#k" y="132.744673"/><g transform="matrix(.1 0 0 -.1 7.2 136.543892)"><use xlink:href="#d"/><use x="63.623047" xlink:href="#e"/><use x="95.410156" xlink:href="#g"/></g></g><g><use stroke="#000" stroke-width=".8" x="30.103125" xlink:href="#k" y="92.162855"/><g transform="matrix(.1 0 0 -.1 7.2 95.962074)"><use xlink:href="#d"/><use x="63.623047" xlink:href="#e"/><use x="95.410156" xlink:href="#h"/></g></g><g><use stroke="#000" stroke-width=".8" x="30.103125" xlink:href="#k" y="51.581037"/><g transform="matrix(.1 0 0 -.1 7.2 55.380256)"><use xlink:href="#d"/><use x="63.623047" xlink:href="#e"/><use x="95.410156" xlink:href="#i"/></g></g><g><use stroke="#000" stroke-width=".8" x="30.103125" xlink:href="#k" y="10.999219"/><g transform="matrix(.1 0 0 -.1 7.2 14.798438)"><use xlink:href="#j"/><use x="63.623047" xlink:href="#e"/><use x="95.410156" xlink:href="#d"/></g></g></g><g stroke="#000"><g clip-path="url(#a)" stroke-linejoin="round"><use x="63.976305" xlink:href="#l" y="206.354209"/><use x="69.944588" xlink:href="#l" y="113.498333"/><use x="183.427425" xlink:href="#l" y="86.889581"/><use x="177.777694" xlink:href="#l" y="144.427595"/><use x="208.678077" xlink:href="#l" y="139.561503"/><use x="60.669266" xlink:href="#l" y="179.170348"/><use x="85.702088" xlink:href="#l" y="91.76063"/><use x="209.607668" xlink:href="#l" y="145.744853"/><use x="167.755861" xlink:href="#l" y="146.514277"/><use x="111.77505" xlink:href="#l" y="189.555541"/><use x="149.669007" xlink:href="#l" y="181.819834"/><use x="97.017051" xlink:href="#l" y="183.046131"/><use x="116.645078" xlink:href="#l" y="177.268905"/><use x="79.735018" xlink:href="#l" y="88.25087"/><use x="190.325642" xlink:href="#l" y="77.72391"/><use x="229.410187" xlink:href="#l" y="156.436055"/><use x="81.495723" xlink:href="#l" y="23.596259"/><use x="96.795372" xlink:href="#l" y="16.119051"/><use x="43.940386" xlink:href="#l" y="107.941752"/><use x="156.904491" xlink:href="#l" y="61.941215"/><use x="91.963099" xlink:href="#l" y="84.768415"/><use x="191.178706" xlink:href="#l" y="187.015901"/><use x="110.29999" xlink:href="#l" y="72.688952"/><use x="106.612795" xlink:href="#l" y="70.587626"/><use x="198.876221" xlink:href="#l" y="11.034131"/><use x="122.946885" xlink:href="#l" y="118.069791"/><use x="69.76276" xlink:href="#l" y="179.933155"/><use x="100.921845" xlink:href="#l" y="192.271747"/><use x="73.878854" xlink:href="#l" y="164.247394"/><use x="96.898733" xlink:href="#l" y="50.964932"/><use x="46.636377" xlink:href="#l" y="123.959814"/><use x="67.276964" xlink:href="#l" y="205.618435"/><use x="160.205448" xlink:href="#l" y="85.646313"/><use x="212.48541" xlink:href="#l" y="201.194453"/><use x="135.306801" xlink:href="#l" y="89.449925"/><use x="38.066802" xlink:href="#l" y="119.871497"/><use x="72.385458" xlink:href="#l" y="106.042935"/><use x="56.30668" xlink:href="#l" y="45.658106"/><use x="103.904261" xlink:href="#l" y="68.223265"/><use x="175.765842" xlink:href="#l" y="157.47912"/><use x="190.227508" xlink:href="#l" y="156.845863"/><use x="227.61131" xlink:href="#l" y="58.187865"/><use x="39.340487" xlink:href="#l" y="212.945945"/><use x="35.444812" xlink:href="#l" y="84.342855"/><use x="59.167248" xlink:href="#l" y="205.247338"/><use x="153.11217" xlink:href="#l" y="49.495753"/><use x="61.803139" xlink:href="#l" y="63.235779"/><use x="182.275725" xlink:href="#l" y="191.15163"/><use x="142.643794" xlink:href="#l" y="190.002722"/><use x="225.687806" xlink:href="#l" y="136.942404"/><use x="184.531443" xlink:href="#l" y="90.789898"/><use x="46.893118" xlink:href="#l" y="32.889079"/><use x="32.938168" xlink:href="#l" y="114.443286"/><use x="99.0758" xlink:href="#l" y="172.027722"/><use x="183.33551" xlink:href="#l" y="42.257272"/><use x="188.116294" xlink:href="#l" y="41.76168"/><use x="109.40408" xlink:href="#l" y="134.258336"/><use x="87.700717" xlink:href="#l" y="80.247705"/><use x="30.254203" xlink:href="#l" y="66.379074"/><use x="94.182599" xlink:href="#l" y="37.25431"/><use x="98.034763" xlink:href="#l" y="66.075634"/><use x="85.296511" xlink:href="#l" y="155.415154"/><use x="171.691481" xlink:href="#l" y="57.19226"/><use x="62.957241" xlink:href="#l" y="192.829291"/><use x="224.641156" xlink:href="#l" y="210.112449"/><use x="92.481104" xlink:href="#l" y="115.895706"/><use x="39.690665" xlink:href="#l" y="100.558951"/><use x="152.938118" xlink:href="#l" y="14.726286"/><use x="130.715364" xlink:href="#l" y="187.307324"/><use x="211.022554" xlink:href="#l" y="104.133478"/><use x="204.464128" xlink:href="#l" y="142.858522"/><use x="64.210651" xlink:href="#l" y="13.16902"/><use x="56.657077" xlink:href="#l" y="175.094091"/><use x="63.949203" xlink:href="#l" y="125.960538"/><use x="107.22265" xlink:href="#l" y="124.462153"/><use x="97.164028" xlink:href="#l" y="103.203175"/><use x="101.645251" xlink:href="#l" y="63.914025"/><use x="199.452027" xlink:href="#l" y="92.200055"/><use x="212.934467" xlink:href="#l" y="34.959392"/><use x="163.761145" xlink:href="#l" y="36.637666"/><use x="198.393648" xlink:href="#l" y="129.572812"/></g><path d="m30.103125 213.90831v-202.909091" fill="none" stroke-linecap="square" stroke-linejoin="miter" stroke-width=".8"/><path d="m233.012216 213.90831v-202.909091" fill="none" stroke-linecap="square" stroke-linejoin="miter" stroke-width=".8"/><path d="m30.103125 213.90831h202.909091" fill="none" stroke-linecap="square" stroke-linejoin="miter" stroke-width=".8"/><path d="m30.103125 10.999219h202.909091" fill="none" stroke-linecap="square" stroke-linejoin="miter" stroke-width=".8"/></g></g><g><g stroke-linejoin="round"><path d="m273.594034 213.90831h202.909091v-202.909091h-202.909091z" fill="#fff"/><g><g><use stroke="#000" stroke-width=".8" x="273.594034" xlink:href="#c" y="213.90831"/><g transform="matrix(.1 0 0 -.1 265.642472 228.506747)"><use xlink:href="#d"/><use x="63.623047" xlink:href="#e"/><use x="95.410156" xlink:href="#d"/></g></g><g><use stroke="#000" stroke-width=".8" x="314.175852" xlink:href="#c" y="213.90831"/><g transform="matrix(.1 0 0 -.1 306.22429 228.506747)"><use xlink:href="#d"/><use x="63.623047" xlink:href="#e"/><use x="95.410156" xlink:href="#f"/></g></g><g><use stroke="#000" stroke-width=".8" x="354.75767" xlink:href="#c" y="213.90831"/><g transform="matrix(.1 0 0 -.1 346.806108 228.506747)"><use xlink:href="#d"/><use x="63.623047" xlink:href="#e"/><use x="95.410156" xlink:href="#g"/></g></g><g><use stroke="#000" stroke-width=".8" x="395.339489" xlink:href="#c" y="213.90831"/><g transform="matrix(.1 0 0 -.1 387.387926 228.506747)"><use xlink:href="#d"/><use x="63.623047" xlink:href="#e"/><use x="95.410156" xlink:href="#h"/></g></g><g><use stroke="#000" stroke-width=".8" x="435.921307" xlink:href="#c" y="213.90831"/><g transform="matrix(.1 0 0 -.1 427.969744 228.506747)"><use xlink:href="#d"/><use x="63.623047" xlink:href="#e"/><use x="95.410156" xlink:href="#i"/></g></g><g><use stroke="#000" stroke-width=".8" x="476.503125" xlink:href="#c" y="213.90831"/><g transform="matrix(.1 0 0 -.1 468.551562 228.506747)"><use xlink:href="#j"/><use x="63.623047" xlink:href="#e"/><use x="95.410156" xlink:href="#d"/></g></g></g><g><g><use stroke="#000" stroke-width=".8" x="273.594034" xlink:href="#k" y="213.90831"/><g transform="matrix(.1 0 0 -.1 250.690909 217.707528)"><use xlink:href="#d"/><use x="63.623047" xlink:href="#e"/><use x="95.410156" xlink:href="#d"/></g></g><g><use stroke="#000" stroke-width=".8" x="273.594034" xlink:href="#k" y="173.326491"/><g transform="matrix(.1 0 0 -.1 250.690909 177.12571)"><use xlink:href="#d"/><use x="63.623047" xlink:href="#e"/><use x="95.410156" xlink:href="#f"/></g></g><g><use stroke="#000" stroke-width=".8" x="273.594034" xlink:href="#k" y="132.744673"/><g transform="matrix(.1 0 0 -.1 250.690909 136.543892)"><use xlink:href="#d"/><use x="63.623047" xlink:href="#e"/><use x="95.410156" xlink:href="#g"/></g></g><g><use stroke="#000" stroke-width=".8" x="273.594034" xlink:href="#k" y="92.162855"/><g transform="matrix(.1 0 0 -.1 250.690909 95.962074)"><use xlink:href="#d"/><use x="63.623047" xlink:href="#e"/><use x="95.410156" xlink:href="#h"/></g></g><g><use stroke="#000" stroke-width=".8" x="273.594034" xlink:href="#k" y="51.581037"/><g transform="matrix(.1 0 0 -.1 250.690909 55.380256)"><use xlink:href="#d"/><use x="63.623047" xlink:href="#e"/><use x="95.410156" xlink:href="#i"/></g></g><g><use stroke="#000" stroke-width=".8" x="273.594034" xlink:href="#k" y="10.999219"/><g transform="matrix(.1 0 0 -.1 250.690909 14.798437)"><use xlink:href="#j"/><use x="63.623047" xlink:href="#e"/><use x="95.410156" xlink:href="#d"/></g></g></g><g clip-path="url(#b)" stroke="#000"><use x="290.279843" xlink:href="#l" y="212.843965"/><use x="274.386215" xlink:href="#l" y="182.94654"/><use x="279.674281" xlink:href="#l" y="157.750199"/><use x="295.567251" xlink:href="#l" y="139.049898"/><use x="281.864105" xlink:href="#l" y="116.097351"/><use x="275.513356" xlink:href="#l" y="100.465988"/><use x="276.717007" xlink:href="#l" y="56.559137"/><use x="281.261571" xlink:href="#l" y="55.367461"/><use x="294.7501" xlink:href="#l" y="15.989437"/><use x="315.420507" xlink:href="#l" y="211.146745"/><use x="317.514275" xlink:href="#l" y="187.007146"/><use x="304.362746" xlink:href="#l" y="152.504671"/><use x="296.387022" xlink:href="#l" y="138.537782"/><use x="302.663175" xlink:href="#l" y="105.050753"/><use x="315.462066" xlink:href="#l" y="78.826969"/><use x="307.428804" xlink:href="#l" y="71.836494"/><use x="304.529864" xlink:href="#l" y="45.726452"/><use x="298.942992" xlink:href="#l" y="25.278042"/><use x="339.199334" xlink:href="#l" y="203.298515"/><use x="332.37499" xlink:href="#l" y="179.740241"/><use x="335.481661" xlink:href="#l" y="152.982771"/><use x="330.559912" xlink:href="#l" y="137.122162"/><use x="319.898418" xlink:href="#l" y="113.970978"/><use x="339.018385" xlink:href="#l" y="98.129389"/><use x="321.110428" xlink:href="#l" y="65.667012"/><use x="334.636116" xlink:href="#l" y="53.282479"/><use x="328.525451" xlink:href="#l" y="24.19631"/><use x="350.142143" xlink:href="#l" y="198.633703"/><use x="352.344733" xlink:href="#l" y="185.140784"/><use x="341.894957" xlink:href="#l" y="149.049701"/><use x="353.737619" xlink:href="#l" y="131.213813"/><use x="355.12339" xlink:href="#l" y="102.994359"/><use x="363.095793" xlink:href="#l" y="83.630919"/><use x="348.873539" xlink:href="#l" y="56.855551"/><use x="351.563257" xlink:href="#l" y="45.794234"/><use x="349.861535" xlink:href="#l" y="19.339713"/><use x="367.982455" xlink:href="#l" y="205.93026"/><use x="363.894888" xlink:href="#l" y="186.257716"/><use x="366.33779" xlink:href="#l" y="147.5803"/><use x="382.660369" xlink:href="#l" y="136.702798"/><use x="373.796164" xlink:href="#l" y="117.420784"/><use x="379.436758" xlink:href="#l" y="99.638363"/><use x="379.800814" xlink:href="#l" y="59.850377"/><use x="385.834428" xlink:href="#l" y="51.949415"/><use x="375.690421" xlink:href="#l" y="32.189577"/><use x="394.158335" xlink:href="#l" y="208.761494"/><use x="396.199461" xlink:href="#l" y="187.534341"/><use x="394.231648" xlink:href="#l" y="152.5119"/><use x="405.707228" xlink:href="#l" y="131.101227"/><use x="388.175333" xlink:href="#l" y="120.836798"/><use x="404.963738" xlink:href="#l" y="85.703021"/><use x="403.299834" xlink:href="#l" y="64.193517"/><use x="396.505274" xlink:href="#l" y="37.565592"/><use x="387.857843" xlink:href="#l" y="15.457436"/><use x="420.71766" xlink:href="#l" y="198.601733"/><use x="427.119209" xlink:href="#l" y="172.257939"/><use x="419.968572" xlink:href="#l" y="158.752214"/><use x="413.452355" xlink:href="#l" y="130.144234"/><use x="421.1318" xlink:href="#l" y="108.94582"/><use x="410.0051" xlink:href="#l" y="97.353871"/><use x="427.760353" xlink:href="#l" y="59.347529"/><use x="415.440262" xlink:href="#l" y="34.220031"/><use x="425.088185" xlink:href="#l" y="23.934239"/><use x="445.17758" xlink:href="#l" y="211.97073"/><use x="450.292988" xlink:href="#l" y="180.757373"/><use x="443.627459" xlink:href="#l" y="161.514099"/><use x="443.768879" xlink:href="#l" y="128.217403"/><use x="442.727159" xlink:href="#l" y="122.378739"/><use x="440.489592" xlink:href="#l" y="81.803817"/><use x="453.48092" xlink:href="#l" y="60.129996"/><use x="451.987889" xlink:href="#l" y="43.628704"/><use x="449.411905" xlink:href="#l" y="31.559609"/><use x="468.800039" xlink:href="#l" y="194.81905"/><use x="466.480396" xlink:href="#l" y="180.953586"/><use x="462.562716" xlink:href="#l" y="166.86398"/><use x="462.92229" xlink:href="#l" y="132.332063"/><use x="466.592575" xlink:href="#l" y="110.728705"/><use x="460.260894" xlink:href="#l" y="89.018284"/><use x="458.428339" xlink:href="#l" y="62.15024"/><use x="465.002485" xlink:href="#l" y="45.231313"/><use x="455.749751" xlink:href="#l" y="14.86342"/></g><path clip-path="url(#b)" d="m273.594034 213.90831v-202.909091" fill="none" stroke="#1f77b4" stroke-linecap="square" stroke-width="1.5"/><path clip-path="url(#b)" d="m296.139489 213.90831v-202.909091" fill="none" stroke="#1f77b4" stroke-linecap="square" stroke-width="1.5"/><path clip-path="url(#b)" d="m318.684943 213.90831v-202.909091" fill="none" stroke="#1f77b4" stroke-linecap="square" stroke-width="1.5"/><path clip-path="url(#b)" d="m341.230398 213.90831v-202.909091" fill="none" stroke="#1f77b4" stroke-linecap="square" stroke-width="1.5"/><path clip-path="url(#b)" d="m363.775852 213.90831v-202.909091" fill="none" stroke="#1f77b4" stroke-linecap="square" stroke-width="1.5"/><path clip-path="url(#b)" d="m386.321307 213.90831v-202.909091" fill="none" stroke="#1f77b4" stroke-linecap="square" stroke-width="1.5"/><path clip-path="url(#b)" d="m408.866761 213.90831v-202.909091" fill="none" stroke="#1f77b4" stroke-linecap="square" stroke-width="1.5"/><path clip-path="url(#b)" d="m431.412216 213.90831v-202.909091" fill="none" stroke="#1f77b4" stroke-linecap="square" stroke-width="1.5"/><path clip-path="url(#b)" d="m453.95767 213.90831v-202.909091" fill="none" stroke="#1f77b4" stroke-linecap="square" stroke-width="1.5"/><path clip-path="url(#b)" d="m476.503125 213.90831v-202.909091" fill="none" stroke="#1f77b4" stroke-linecap="square" stroke-width="1.5"/><path clip-path="url(#b)" d="m273.594034 213.90831h202.909091" fill="none" stroke="#1f77b4" stroke-linecap="square" stroke-width="1.5"/><path clip-path="url(#b)" d="m273.594034 191.362855h202.909091" fill="none" stroke="#1f77b4" stroke-linecap="square" stroke-width="1.5"/><path clip-path="url(#b)" d="m273.594034 168.817401h202.909091" fill="none" stroke="#1f77b4" stroke-linecap="square" stroke-width="1.5"/><path clip-path="url(#b)" d="m273.594034 146.271946h202.909091" fill="none" stroke="#1f77b4" stroke-linecap="square" stroke-width="1.5"/><path clip-path="url(#b)" d="m273.594034 123.726491h202.909091" fill="none" stroke="#1f77b4" stroke-linecap="square" stroke-width="1.5"/><path clip-path="url(#b)" d="m273.594034 101.181037h202.909091" fill="none" stroke="#1f77b4" stroke-linecap="square" stroke-width="1.5"/><path clip-path="url(#b)" d="m273.594034 78.635582h202.909091" fill="none" stroke="#1f77b4" stroke-linecap="square" stroke-width="1.5"/><path clip-path="url(#b)" d="m273.594034 56.090128h202.909091" fill="none" stroke="#1f77b4" stroke-linecap="square" stroke-width="1.5"/><path clip-path="url(#b)" d="m273.594034 33.544673h202.909091" fill="none" stroke="#1f77b4" stroke-linecap="square" stroke-width="1.5"/><path clip-path="url(#b)" d="m273.594034 10.999219h202.909091" fill="none" stroke="#1f77b4" stroke-linecap="square" stroke-width="1.5"/></g><path d="m273.594034 213.90831v-202.909091" fill="none" stroke="#000" stroke-linecap="square" stroke-linejoin="miter" stroke-width=".8"/><path d="m476.503125 213.90831v-202.909091" fill="none" stroke="#000" stroke-linecap="square" stroke-linejoin="miter" stroke-width=".8"/><path d="m273.594034 213.90831h202.909091" fill="none" stroke="#000" stroke-linecap="square" stroke-linejoin="miter" stroke-width=".8"/><path d="m273.594034 10.999219h202.909091" fill="none" stroke="#000" stroke-linecap="square" stroke-linejoin="miter" stroke-width=".8"/></g></g></svg>