<svg height="23.615637mm" viewBox="0 0 89.221497 23.615637" width="89.221497mm" xmlns="http://www.w3.org/2000/svg" xmlns:xlink="http://www.w3.org/1999/xlink"><marker id="a" orient="auto" overflow="visible" refX="0" refY="0"><path d="m0 0 5-5-17.5 5 17.5 5z" fill="#808080" fill-rule="evenodd" stroke="#808080" stroke-width="1pt" transform="matrix(-.4 0 0 -.4 -4 0)"/></marker><marker id="b" orient="auto" overflow="visible" refX="0" refY="0"><path d="m0 0 5-5-17.5 5 17.5 5z" fill="#808080" fill-rule="evenodd" stroke="#808080" stroke-width="1pt" transform="matrix(.4 0 0 .4 4 0)"/></marker><marker id="c" orient="auto" overflow="visible" refX="0" refY="0"><path d="m0 0 5-5-17.5 5 17.5 5z" fill-rule="evenodd" stroke="#000" stroke-width="1pt" transform="matrix(-.4 0 0 -.4 -4 0)"/></marker><g transform="translate(-48.36737 -143.49305)"><circle cx="51.121277" cy="166.03125" r=".94494" stroke="#000" stroke-linecap="round" stroke-width=".265"/><path d="m492.39 427.92-.01.74-.05.73-.07.71-.11.7-.13.68-.16.66-.19.64-.22.62-.24.6-.27.59-.29.56-.32.54-.34.52-.37.5-.38.47-.42.45-.43.43-.45.41-.48.38-.49.35-.52.33-.53.3-.55.28-.57.25-.59.22-.6.2-.62.16-.63.14-.65.1-.67.08-.67.05-.69.01-.3-1.25c4.09 0 8.58-2.78 8.58-10.2 0-3.59-1.35-11.36-6.28-17.5-2.39-3.03-6.49-5.97-10.66-5.97-4.94 0-8.42 4.03-8.42 10.61 0 2.19.69 9.47 4.53 15.3 3.44 5.17 8.31 7.76 12.25 7.76l.3 1.25c-10.75 0-21.72-11.31-21.72-22.92 0-8.26 5.58-13.29 12.76-13.29 10.55 0 21.67 10.9 21.67 22.81z" fill-rule="evenodd" transform="matrix(.09 0 0 -.09 7.15097 199.79886)"/><g fill="#000" fill-rule="evenodd" stroke="none" stroke-miterlimit="10.433" transform="matrix(.09 0 0 -.09 52.101395 198.29665)"><path d="m487.31 448.92-.07-.06-.07-.07-.08-.07-.08-.07-.08-.08-.09-.08-.09-.09-.1-.08-.09-.09-.1-.09-.2-.19-.19-.2-.19-.2-.09-.11-.09-.1-.09-.1-.08-.1-.08-.11-.08-.1-.07-.1-.07-.1-.05-.1-.06-.1-.04-.1-.04-.09-.03-.09-.03-.09-.01-.09-.01-.09c0-.5.5-1 1-1 .46 0 .71.36.96.66.59.75 1.73 2.14 3.94 3.24.34.2.84.45.84 1.04 0 .5-.34.75-.7 1-1.1.75-1.64 1.64-2.05 2.83-.09.45-.3 1.11-.99 1.11-.7 0-1-.66-1-1.05 0-.25.4-1.84 1.19-2.89h-16.78c-.84 0-1.75 0-1.75-1s.91-1 1.75-1z"/><path d="m481.22 440.23v.01.01.02.01.02.02l-.01.02v.02l-.01.02v.02l-.01.02-.01.03-.01.02-.01.03-.02.02-.01.03-.02.02-.02.02-.02.03-.02.01-.01.01-.01.01-.02.01-.01.01-.02.01-.01.01-.02.01-.01.01-.02.01h-.02l-.02.01-.02.01h-.02l-.02.01-.03.01h-.02-.02l-.03.01h-.03-.02l-.03.01h-.03-.03c-.75 0-5.48-.46-6.33-.55-.4-.05-.7-.3-.7-.95 0-.6.45-.6 1.2-.6 2.39 0 2.49-.34 2.49-.84l-.14-1-3-11.81c-.89 1.84-2.35 3.18-4.58 3.18l.05-1.09c3.23 0 3.93-4.08 3.93-4.37 0-.32-.09-.61-.14-.86l-2.5-9.77c-.25-.89-.25-.98-1-1.84-2.18-2.74-4.23-3.53-5.62-3.53-2.49 0-3.19 2.73-3.19 4.68 0 2.49 1.59 8.61 2.74 10.91 1.54 2.94 3.79 4.78 5.78 4.78l-.05 1.09c-5.83 0-12-7.31-12-14.59 0-4.69 2.73-7.97 6.62-7.97.99 0 3.49.21 6.47 3.74.41-2.1 2.14-3.74 4.53-3.74 1.75 0 2.9 1.14 3.69 2.74.85 1.79 1.5 4.84 1.5 4.93 0 .5-.45.5-.59.5-.5 0-.55-.2-.7-.9-.85-3.24-1.75-6.17-3.79-6.17-1.34 0-1.5 1.29-1.5 2.29 0 1.19.1 1.55.3 2.39z"/></g><path d="m51.026784 166.03125 85.400906-20.60097" fill="none" stroke="#808080" stroke-dasharray=".495 .165" stroke-width=".165"/><path d="m51.026784 166.03125 47.813989-11.52827" fill="none" marker-end="url(#c)" stroke="#000" stroke-width=".265"/><circle cx="136.51143" cy="145.36989" r=".94494" stroke="#000" stroke-linecap="round" stroke-width=".265"/><path d="m470.61 421.95.21 1.28 3.39 13.56c.43 1.74.54 1.89 2.68 1.89h4.79c4.14 0 6.78-1.34 6.78-4.78 0-1.95-1-6.23-2.94-8.03-2.5-2.23-5.48-2.64-7.69-2.64h-7.01l-.21-1.28h8.47c7.08 0 14 5.17 14 10.75 0 3.84-3.28 7.53-9.81 7.53h-16.14c-.95 0-1.5 0-1.5-.95 0-.6.45-.6 1.45-.6.64 0 1.55-.04 2.14-.09.8-.11 1.1-.25 1.1-.8 0-.2-.05-.36-.21-.95l-6.67-26.75c-.5-1.95-.59-2.34-4.53-2.34-.84 0-1.39 0-1.39-.96 0-.59.59-.59.73-.59 1.41 0 4.94.16 6.33.16 1.05 0 2.14-.07 3.19-.07 1.11 0 2.2-.09 3.25-.09.34 0 .98 0 .98 1 0 .55-.43.55-1.39.55-1.84 0-3.23 0-3.23.89 0 .29.09.54.14.84z" fill-rule="evenodd" transform="matrix(.09120258526 0 0 -.09120258526 90.05932757881 189.1654575562)"/><path d="m50.742282 164.23369 85.400908-20.60097" fill="none" marker-end="url(#a)" marker-start="url(#b)" stroke="#808080" stroke-width=".165"/><g fill="#000" fill-rule="evenodd" stroke="none" stroke-miterlimit="10.433" transform="matrix(.11467938097 0 0 -.11467938097 32.80391163142 199.94700407159)"><path d="m465.79 426.12h4.68c.99 0 1.49 0 1.49 1 0 .55-.5.55-1.39.55h-4.39c1.79 7.08 2.04 8.08 2.04 8.37 0 .85-.59 1.35-1.43 1.35-.16 0-1.55-.05-2-1.8l-1.94-7.92h-4.69c-1 0-1.5 0-1.5-.94 0-.61.41-.61 1.41-.61h4.37c-3.58-14.14-3.78-14.98-3.78-15.89 0-2.69 1.89-4.58 4.58-4.58 5.08 0 7.92 7.27 7.92 7.67 0 .5-.39.5-.59.5-.46 0-.5-.15-.75-.7-2.14-5.17-4.78-6.37-6.47-6.37-1.05 0-1.55.65-1.55 2.29 0 1.19.09 1.55.3 2.39z"/><path d="m485.39 409.56.15 1.12 2.37 9.44c.28 1.08.31 1.19 1.78 1.19h4.08c3.23 0 5.25-.99 5.25-3.45 0-1.08-.41-3.83-2.16-5.41-1.25-1.11-3.23-1.77-5.75-1.77h-5.57l-.15-1.12h6.32c5.89 0 10.87 3.76 10.87 7.56 0 2.94-2.86 5.44-7.64 5.44h-12.19c-.7 0-1.11 0-1.11-.77 0-.48.38-.48 1.15-.48.56 0 .7 0 1.32-.08.71-.06.77-.14.77-.48 0-.07 0-.24-.14-.77l-4.6-18.36c-.35-1.36-.39-1.61-3.1-1.61-.63 0-1.05 0-1.05-.76 0-.04 0-.49.56-.49 1.02 0 3.52.14 4.53.14.6 0 1.81 0 2.41-.03.69-.05 1.56-.11 2.23-.11.21 0 .72 0 .72.77 0 .48-.4.48-1.11.48-.03 0-.7 0-1.33.08-.79.06-.79.17-.79.52 0 .03 0 .25.14.76z"/></g></g></svg>