<svg height="90.900429mm" viewBox="0 0 147.72559 90.900429" width="147.72559mm" xmlns="http://www.w3.org/2000/svg" xmlns:xlink="http://www.w3.org/1999/xlink"><marker id="a" orient="auto" overflow="visible" refX="0" refY="0"><path d="m0 0 5-5-17.5 5 17.5 5z" fill-rule="evenodd" stroke="#000" stroke-width="1pt" transform="matrix(-.4 0 0 -.4 -4 0)"/></marker><marker id="b" orient="auto" overflow="visible" refX="0" refY="0"><path d="m0 0 5-5-17.5 5 17.5 5z" fill-rule="evenodd" stroke="#000" stroke-width="1pt" transform="matrix(-.4 0 0 -.4 -4 0)"/></marker><marker id="c" orient="auto" overflow="visible" refX="0" refY="0"><path d="m0 0 5-5-17.5 5 17.5 5z" fill-rule="evenodd" stroke="#000" stroke-width="1pt" transform="matrix(-.4 0 0 -.4 -4 0)"/></marker><marker id="d" orient="auto" overflow="visible" refX="0" refY="0"><path d="m0 0 5-5-17.5 5 17.5 5z" fill-rule="evenodd" stroke="#000" stroke-width="1pt" transform="matrix(-.4 0 0 -.4 -4 0)"/></marker><g transform="translate(-28.303489 -133.19368)"><path d="m42.675926 208.71993 35.381067-16.48097" fill="none" marker-end="url(#b)" stroke="#000" stroke-width=".465"/><path d="m123.04464 206.3322 25.27356-11.8319" fill="none" stroke="#000" stroke-width=".465"/><path d="m148.3182 194.5003 6.18936-2.92932" fill="none" stroke="#999" stroke-width=".465"/><g stroke="#000"><circle cx="30.247894" cy="163.12825" r="1.511906" stroke-linecap="round" stroke-width=".865"/><path d="m30.247893 163.12827 47.8091-22.29408" fill="none" marker-end="url(#d)" stroke-width=".465"/><circle cx="58.019341" cy="157.1488" fill="#fff" fill-opacity=".721992" r="15.308036" stroke-linecap="round" stroke-width=".465"/><circle cx="42.721107" cy="157.3405" r=".924102" stroke-linecap="round" stroke-width=".528702"/><circle cx="68.021889" cy="145.52875" r=".924102" stroke-linecap="round" stroke-width=".528702"/><circle cx="109.43391" cy="163.12825" r="1.511906" stroke-linecap="round" stroke-width=".865"/><circle cx="137.20535" cy="157.1488" fill="#fff" fill-opacity=".721992" r="15.308036" stroke-linecap="round" stroke-width=".465"/><circle cx="109.43391" cy="163.12825" r="1.511906" stroke-linecap="round" stroke-width=".865"/><path d="m109.4339 163.12827 29.28827-29.28664" fill="none" marker-end="url(#c)" stroke-width=".465"/><circle cx="126.91843" cy="145.84792" r=".924102" stroke-linecap="round" stroke-width=".528702"/><circle cx="58.019341" cy="208.55357" fill="#fff" fill-opacity=".721992" r="15.308036" stroke-linecap="round" stroke-width=".465"/><circle cx="42.721107" cy="208.74527" r=".924102" stroke-linecap="round" stroke-width=".528702"/><circle cx="68.021889" cy="196.93352" r=".924102" stroke-linecap="round" stroke-width=".528702"/><circle cx="54.302151" cy="203.37451" r="1.511906" stroke-linecap="round" stroke-width=".865"/><circle cx="138.33928" cy="206.09673" fill="#fff" fill-opacity=".721992" r="15.308036" stroke-linecap="round" stroke-width=".465"/><circle cx="155.16902" cy="191.47647" r="1.511906" stroke-linecap="round" stroke-width=".865"/><circle cx="123.04105" cy="206.28842" r=".924102" stroke-linecap="round" stroke-width=".528702"/><circle cx="148.34183" cy="194.47667" r=".924102" stroke-linecap="round" stroke-width=".528702"/><path d="m154.50756 191.57098 20.68931-9.53738" fill="none" marker-end="url(#a)" stroke-width=".465"/></g><g fill="none" stroke="#f00" stroke-linecap="round" stroke-linejoin="round" stroke-width=".465" transform="translate(.033409 -.334087)"><path d="m40.764931 210.83086 3.741773-3.74178"/><path d="m40.764931 207.08908 3.741773 3.74178"/></g><g fill="none" stroke="#f00" stroke-linecap="round" stroke-linejoin="round" stroke-width=".465" transform="translate(84.322099 -63.208064)"><path d="m40.764931 210.83086 3.741773-3.74178"/><path d="m40.764931 207.08908 3.741773 3.74178"/></g><g fill="none" stroke="#f00" stroke-linecap="round" stroke-linejoin="round" stroke-width=".465" transform="translate(80.442048 -2.67472)"><path d="m40.764931 210.83086 3.741773-3.74178"/><path d="m40.764931 207.08908 3.741773 3.74178"/></g><g fill="none" stroke="#f00" stroke-linecap="round" stroke-linejoin="round" stroke-width=".465" transform="translate(105.88598 -14.682278)"><path d="m40.764931 210.83086 3.741773-3.74178"/><path d="m40.764931 207.08908 3.741773 3.74178"/></g></g></svg>