<svg height="12.830242mm" viewBox="0 0 50.981087 12.830242" width="50.981087mm" xmlns="http://www.w3.org/2000/svg" xmlns:xlink="http://www.w3.org/1999/xlink"><marker id="a" orient="auto" overflow="visible" refX="0" refY="0"><path d="m0 0 5-5-17.5 5 17.5 5z" fill-rule="evenodd" stroke="#000" stroke-width="1pt" transform="matrix(-.4 0 0 -.4 -4 0)"/></marker><g transform="translate(-48.36737 -154.27845)"><circle cx="51.121277" cy="166.03125" r=".94494" stroke="#000" stroke-linecap="round" stroke-width=".265"/><path d="m51.026784 166.03125 47.813989-11.52827" fill="none" marker-end="url(#a)" stroke="#000" stroke-width=".265"/><g fill-rule="evenodd"><path d="m492.39 427.92-.01.74-.05.73-.07.71-.11.7-.13.68-.16.66-.19.64-.22.62-.24.6-.27.59-.29.56-.32.54-.34.52-.37.5-.38.47-.42.45-.43.43-.45.41-.48.38-.49.35-.52.33-.53.3-.55.28-.57.25-.59.22-.6.2-.62.16-.63.14-.65.1-.67.08-.67.05-.69.01-.3-1.25c4.09 0 8.58-2.78 8.58-10.2 0-3.59-1.35-11.36-6.28-17.5-2.39-3.03-6.49-5.97-10.66-5.97-4.94 0-8.42 4.03-8.42 10.61 0 2.19.69 9.47 4.53 15.3 3.44 5.17 8.31 7.76 12.25 7.76l.3 1.25c-10.75 0-21.72-11.31-21.72-22.92 0-8.26 5.58-13.29 12.76-13.29 10.55 0 21.67 10.9 21.67 22.81z" transform="matrix(.09 0 0 -.09 7.15097 199.79886)"/><g fill="#000" stroke="none" stroke-miterlimit="10.433" transform="matrix(.09 0 0 -.09 52.101395 198.29665)"><path d="m487.31 448.92-.07-.06-.07-.07-.08-.07-.08-.07-.08-.08-.09-.08-.09-.09-.1-.08-.09-.09-.1-.09-.2-.19-.19-.2-.19-.2-.09-.11-.09-.1-.09-.1-.08-.1-.08-.11-.08-.1-.07-.1-.07-.1-.05-.1-.06-.1-.04-.1-.04-.09-.03-.09-.03-.09-.01-.09-.01-.09c0-.5.5-1 1-1 .46 0 .71.36.96.66.59.75 1.73 2.14 3.94 3.24.34.2.84.45.84 1.04 0 .5-.34.75-.7 1-1.1.75-1.64 1.64-2.05 2.83-.09.45-.3 1.11-.99 1.11-.7 0-1-.66-1-1.05 0-.25.4-1.84 1.19-2.89h-16.78c-.84 0-1.75 0-1.75-1s.91-1 1.75-1z"/><path d="m481.22 440.23v.01.01.02.01.02.02l-.01.02v.02l-.01.02v.02l-.01.02-.01.03-.01.02-.01.03-.02.02-.01.03-.02.02-.02.02-.02.03-.02.01-.01.01-.01.01-.02.01-.01.01-.02.01-.01.01-.02.01-.01.01-.02.01h-.02l-.02.01-.02.01h-.02l-.02.01-.03.01h-.02-.02l-.03.01h-.03-.02l-.03.01h-.03-.03c-.75 0-5.48-.46-6.33-.55-.4-.05-.7-.3-.7-.95 0-.6.45-.6 1.2-.6 2.39 0 2.49-.34 2.49-.84l-.14-1-3-11.81c-.89 1.84-2.35 3.18-4.58 3.18l.05-1.09c3.23 0 3.93-4.08 3.93-4.37 0-.32-.09-.61-.14-.86l-2.5-9.77c-.25-.89-.25-.98-1-1.84-2.18-2.74-4.23-3.53-5.62-3.53-2.49 0-3.19 2.73-3.19 4.68 0 2.49 1.59 8.61 2.74 10.91 1.54 2.94 3.79 4.78 5.78 4.78l-.05 1.09c-5.83 0-12-7.31-12-14.59 0-4.69 2.73-7.97 6.62-7.97.99 0 3.49.21 6.47 3.74.41-2.1 2.14-3.74 4.53-3.74 1.75 0 2.9 1.14 3.69 2.74.85 1.79 1.5 4.84 1.5 4.93 0 .5-.45.5-.59.5-.5 0-.55-.2-.7-.9-.85-3.24-1.75-6.17-3.79-6.17-1.34 0-1.5 1.29-1.5 2.29 0 1.19.1 1.55.3 2.39z"/></g></g></g></svg>