<svg height="118.81852mm" viewBox="0 0 181.33868 118.81852" width="181.33868mm" xmlns="http://www.w3.org/2000/svg" xmlns:xlink="http://www.w3.org/1999/xlink"><marker id="a" orient="auto" overflow="visible" refX="0" refY="0"><path d="m0 0 5-5-17.5 5 17.5 5z" fill-rule="evenodd" stroke="#000" stroke-width="1pt" transform="matrix(-.4 0 0 -.4 -4 0)"/></marker><marker id="b" orient="auto" overflow="visible" refX="0" refY="0"><path d="m0 0 5-5-17.5 5 17.5 5z" fill-rule="evenodd" stroke="#000" stroke-width="1pt" transform="matrix(-.4 0 0 -.4 -4 0)"/></marker><g transform="translate(-5.43103 -90.245425)"><g stroke="#000"><path d="m5.4806548 189.27678 134.3705352.18899 46.86905 18.89881-132.669647.56696z" fill="#d5d5ff" stroke-width=".264583"/><path d="m50.648809 108.57887 49.514881 91.28125 48.56994-92.03721" fill="none" stroke-width=".565"/><path d="m98.840773 90.247022 1.322917 109.613098" fill="none" stroke-width=".264583"/><path d="m88.794163 178.93719a23.8125 23.8125 0 0 1 22.659027-.0433l-11.2895 20.96622z" fill="none" stroke-linecap="round" stroke-width=".265"/><path d="m50.648809 108.57887 7.8164 14.22821" fill="none" marker-end="url(#a)" stroke-width=".565"/><path d="m136.64918 130.75947 7.61595-14.42866" fill="none" marker-end="url(#b)" stroke-width=".565"/></g><path d="m478.19 431.11v.31l-.01.34-.02.36-.02.37-.03.39-.04.39-.04.41-.06.41-.07.42-.07.43-.09.42-.1.43-.12.42-.12.42-.14.41-.16.41-.17.4-.18.38-.2.37-.22.36-.23.34-.25.32-.28.3-.29.27-.31.25-.16.12-.17.1-.17.1-.18.1-.18.08-.19.08-.19.07-.2.06-.21.05-.21.05-.22.03-.22.02-.23.02h-.23l-.05-1.09c2.44 0 2.73-3.19 2.73-6.03 0-2.44-.39-4.99-1.59-9.92h-10.41c.85 3.2 1.85 7.18 3.83 10.72 1.36 2.43 3.19 5.23 5.44 5.23l.05 1.09c-6.92 0-14.6-14.04-14.6-25.45 0-4.69 1.44-10.22 5.99-10.22v1.1c-1.66 0-2.71 1.45-2.71 6.07 0 2.1.3 4.99 1.6 9.86h10.37c-.54-2.28-1.59-6.51-3.5-10.11-1.73-3.39-3.62-5.82-5.76-5.82v-1.1c7.01 0 14.59 14.3 14.59 25.46z" fill-rule="evenodd" transform="matrix(.3 0 0 -.3 -48.490957 290.63646)"/><path d="m478.19 431.11v.31l-.01.34-.02.36-.02.37-.03.39-.04.39-.04.41-.06.41-.07.42-.07.43-.09.42-.1.43-.12.42-.12.42-.14.41-.16.41-.17.4-.18.38-.2.37-.22.36-.23.34-.25.32-.28.3-.29.27-.31.25-.16.12-.17.1-.17.1-.18.1-.18.08-.19.08-.19.07-.2.06-.21.05-.21.05-.22.03-.22.02-.23.02h-.23l-.05-1.09c2.44 0 2.73-3.19 2.73-6.03 0-2.44-.39-4.99-1.59-9.92h-10.41c.85 3.2 1.85 7.18 3.83 10.72 1.36 2.43 3.19 5.23 5.44 5.23l.05 1.09c-6.92 0-14.6-14.04-14.6-25.45 0-4.69 1.44-10.22 5.99-10.22v1.1c-1.66 0-2.71 1.45-2.71 6.07 0 2.1.3 4.99 1.6 9.86h10.37c-.54-2.28-1.59-6.51-3.5-10.11-1.73-3.39-3.62-5.82-5.76-5.82v-1.1c7.01 0 14.59 14.3 14.59 25.46z" fill-rule="evenodd" transform="matrix(.3 0 0 -.3 -31.920246 290.36919)"/></g></svg>