<svg height="78.365578mm" viewBox="0 0 71.98777 78.365578" width="71.98777mm" xmlns="http://www.w3.org/2000/svg" xmlns:xlink="http://www.w3.org/1999/xlink"><marker id="a" orient="auto" overflow="visible" refX="0" refY="0"><path d="m0 0 5-5-17.5 5 17.5 5z" fill-rule="evenodd" stroke="#000" stroke-width="1pt" transform="matrix(.4 0 0 .4 4 0)"/></marker><marker id="b" orient="auto" overflow="visible" refX="0" refY="0"><path d="m0 0 5-5-17.5 5 17.5 5z" fill-rule="evenodd" stroke="#000" stroke-width="1pt" transform="matrix(-.4 0 0 -.4 -4 0)"/></marker><marker id="c" orient="auto" overflow="visible" refX="0" refY="0"><path d="m0 0 5-5-17.5 5 17.5 5z" fill-rule="evenodd" stroke="#000" stroke-width="1pt" transform="matrix(-.4 0 0 -.4 -4 0)"/></marker><marker id="d" orient="auto" overflow="visible" refX="0" refY="0"><path d="m0 0 5-5-17.5 5 17.5 5z" fill-rule="evenodd" stroke="#000" stroke-width="1pt" transform="matrix(-.4 0 0 -.4 -4 0)"/></marker><g transform="translate(-65.152098 -109.72234)"><path d="m65.347399 187.55313 7.216278-17.90706h34.745033l7.21628 18.30796z" fill="#fea" fill-opacity=".506224" stroke="#000" stroke-width=".264583"/><path d="m117.86586 154.81261-6.28083-34.87867 16.73537-9.99969 8.65523 48.75377z" fill="#fea" fill-opacity=".439834" stroke="#000" stroke-width=".264583"/><circle cx="79.379051" cy="176.7287" r="1.511906" stroke="#000" stroke-linecap="round" stroke-width=".865"/><circle cx="120.27129" cy="122.60662" r="1.511906" stroke="#000" stroke-linecap="round" stroke-width=".865"/><path d="m79.37905 149.73449v26.99422l16.437076-21.9161" fill="none" marker-end="url(#b)" marker-start="url(#a)" stroke="#000" stroke-width=".465"/><path d="m120.13765 122.60663-16.57071 22.04974" fill="none" marker-end="url(#c)" stroke="#000" stroke-width=".465"/><path d="m120.13765 122.60663-26.058776 8.41899" fill="none" marker-end="url(#d)" stroke="#000" stroke-width=".465"/><g fill-rule="evenodd"><g transform="translate(16.704345 61.872896)"><path d="m67.165098 99.876848v-.03417l-.0011-.03748-.0022-.03968-.0022-.04079-.0033-.04299-.0044-.04299-.0044-.0452-.0066-.0452-.0077-.0463-.0077-.0474-.0099-.0463-.01102-.0474-.01323-.0463-.01323-.0463-.01543-.04519-.01764-.0452-.01874-.04409-.01984-.04189-.02205-.04079-.02425-.03968-.02535-.03748-.02756-.03527-.03086-.03307-.03197-.02976-.03417-.02756-.01764-.01323-.01874-.01102-.01874-.01102-.01984-.01102-.01984-.0088-.02094-.0088-.02094-.0077-.02205-.0066-.02315-.0055-.02315-.0055-.02425-.0033-.02425-.0022-.02535-.0022h-.02535l-.0055.120154c.268969 0 .302039.351644.302039.664705 0 .268969-.04409.550063-.176373 1.093513h-1.146423c.0926-.35275.202828-.791474.42109-1.181699.149917-.267866.351643-.576519.599667-.576519l.0055-.120154c-.763915 0-1.609402 1.547672-1.609402 2.805432 0 .51699.158735 1.12658.660296 1.12658v-.12125c-.182987 0-.29763-.15984-.29763-.66912 0-.23149.03197-.55006.175271-1.0869h1.143116c-.05953.25133-.17527.71762-.385815 1.11446-.190703.37369-.399044.64156-.634942.64156v.12125c.772733 0 1.6083-1.57633 1.6083-2.806533z"/><path d="m68.491201 101.04201v-.006l-.0011-.007v-.006l-.0011-.007-.0011-.006-.0022-.007-.0011-.006-.0022-.007-.0022-.007-.0033-.006-.0033-.007-.0033-.006-.0033-.007-.0044-.006-.0033-.006-.0055-.006-.0044-.006-.0055-.006-.0055-.004-.0055-.006-.0066-.004-.0055-.003-.0077-.004-.0066-.003-.0077-.003-.0077-.003-.0088-.002-.0077-.002-.0088-.001-.0099-.001-.0099-.001h-.0099c-.102516 0-.214954.10031-.214954.21165 0 .065.0496.14661.155428.14661.110234 0 .214955-.10913.214955-.21165z"/><path d="m67.707444 102.99314-.0055.0187-.0066.0187-.0033.009-.0022.01-.0033.009-.0022.01-.0022.01-.0022.01-.0022.011-.0011.01-.0022.011v.006l-.0011.006v.007.006.006.007c0 .18078.153224.32519.362666.32519.384714 0 .554473-.52802.554473-.58755 0-.0496-.0496-.0496-.06173-.0496-.05291 0-.05842.022-.07386.065-.08819.30755-.256843.46518-.40676.46518-.07716 0-.0959-.0496-.0959-.13448 0-.0871.02756-.16094.06173-.24582.03748-.10362.08047-.20614.122359-.30645.03417-.0926.174168-.44314.1896-.48944.0099-.0375.02205-.0838.02205-.12235 0-.18079-.153224-.32519-.364871-.32519-.380304 0-.556677.5214-.556677.58754 0 .0496.05401.0496.06614.0496.05291 0 .05622-.0187.06834-.0617.100312-.3307.268969-.46849.410067-.46849.06173 0 .097.0309.097.13449 0 .0871-.02315.14551-.119052.38361z"/></g><g transform="translate(34.755783 30.067822)"><path d="m73.408696 99.876848v-.03417l-.0011-.03748-.0011-.03968-.0033-.04079-.0033-.04299-.0044-.04299-.0044-.0452-.0066-.0452-.0077-.0463-.0077-.0474-.0099-.0463-.01102-.0474-.01323-.0463-.01323-.0463-.01543-.04519-.01764-.0452-.01764-.04409-.02094-.04189-.02205-.04079-.02425-.03968-.02535-.03748-.02756-.03527-.02976-.03307-.03197-.02976-.03417-.02756-.01874-.01323-.01764-.01102-.01984-.01102-.01874-.01102-.02094-.0088-.02094-.0088-.02094-.0077-.02205-.0066-.02315-.0055-.02315-.0055-.02425-.0033-.02425-.0022-.02535-.0022h-.02535l-.0055.120154c.268969 0 .300936.351644.300936.664705 0 .268969-.04189.550063-.17527 1.093513h-1.147526c.0937-.35275.203931-.791474.422193-1.181699.149916-.267866.351643-.576519.599667-.576519l.0055-.120154c-.762813 0-1.609402 1.547672-1.609402 2.805432 0 .51699.158735 1.12658.660295 1.12658v-.12125c-.182986 0-.298731-.15984-.298731-.66912 0-.23149.03307-.55006.176373-1.0869h1.143116c-.05953.25133-.17527.71762-.385815 1.11446-.190703.37369-.399044.64156-.634943.64156v.12125c.772734 0 1.6083-1.57633 1.6083-2.806533z"/><path d="m74.762358 98.825225.0022-.0066.0033-.0055.0022-.0055.0022-.0055.0022-.0044.0022-.0055.0022-.0044.0022-.0044.0011-.0055.0022-.0044.0011-.0033.0011-.0044.0011-.0044.0011-.0033.0011-.0044.0011-.0033.0011-.0033.0011-.0033v-.0033l.0011-.0033v-.0033l.0011-.0033v-.0033-.0022l.0011-.0066v-.0055-.0044-.0055c0-.119052-.108028-.211648-.22708-.211648-.14661 0-.191805.120154-.210545.180782l-.508174 1.663421c-.0033.007-.01874.0573-.01874.0617 0 .0452.119052.0849.149917.0849.02756 0 .03086-.009.05732-.065z"/><path d="m74.733697 101.6505v-.006-.006l-.0011-.007-.0011-.006-.0011-.007-.0011-.007-.0022-.006-.0022-.007-.0022-.006-.0022-.007-.0033-.007-.0033-.006-.0033-.006-.0044-.007-.0044-.006-.0044-.006-.0044-.006-.0055-.004-.0055-.006-.0055-.004-.0066-.004-.0066-.004-.0066-.004-.0077-.003-.0066-.003-.0088-.002-.0077-.002-.0088-.002-.0088-.002-.0088-.001-.0099-.001h-.0099c-.103619 0-.214954.10031-.214954.21165 0 .0661.0496.14661.154326.14661.110233 0 .214954-.10803.214954-.21165z"/><path d="m73.951043 103.60162-.0066.0187-.0055.0187-.0033.01-.0022.009-.0033.01-.0022.01-.0022.009-.0022.011-.0022.01-.0022.011-.0011.011v.006l-.0011.006v.006.006l-.0011.007v.006c0 .18078.153224.32628.363769.32628.384714 0 .554472-.52911.554472-.58754 0-.0507-.0496-.0507-.06173-.0507-.05291 0-.05842.0231-.07386.0661-.08819.30644-.256843.46518-.40676.46518-.07716 0-.0959-.0507-.0959-.13449 0-.0882.02756-.16204.06173-.24692.03748-.10251.08047-.20613.122358-.30645.03417-.0926.174169-.44203.188499-.48943.01102-.0375.02315-.0838.02315-.12126 0-.18188-.153224-.32629-.364872-.32629-.381406 0-.556676.52251-.556676.58755 0 .0496.05291.0496.06504.0496.05401 0 .05732-.0187.06945-.0617.09921-.3307.267866-.46849.410067-.46849.06173 0 .0959.0309.0959.13448 0 .0882-.02205.14661-.119052.38362z"/></g><g transform="translate(64.550962 19.638938)"><path d="m488.23 445.71.89.89-6.63 6.78-6.67-6.78.89-.89 5.78 5.08z" transform="matrix(.10283967 0 0 -.10283967 -39.999587 175.71954)"/><path d="m10.71991 130.98428.01028-.038.0051-.0185.0062-.0175.0062-.0185.0072-.0175.0072-.0165.0082-.0164.0082-.0165.0093-.0165.01028-.0154.01028-.0144.01234-.0144.01234-.0144.01337-.0134.01543-.0123.01543-.0123.01645-.0113.01851-.0113.01851-.0113.02057-.009.0216-.009.02365-.009.02365-.007.02674-.007.02674-.007.0288-.005.03085-.005.03188-.004.03394-.004.03599-.003.01851-.001h.01954c.02571 0 .08639-.005.08639-.10284 0-.005 0-.0566-.06582-.0566-.170714 0-.348626.0165-.517283.0165-.174828 0-.353769-.0165-.524483-.0165-.02982 0-.09153 0-.09153.10284 0 .0566.05142.0566.09153.0566.293093.004.349655.1121.349655.22419 0 .0165-.01028.0936-.01543.10799l-.572817 2.27995-1.1332928-2.67383c-.042164-.0926-.046278-.0977-.1635151-.0977h-.6859416c-.1028397 0-.1501459 0-.1501459.10284 0 .0566.047306.0566.1429471.0566.02571 0 .3486265 0 .3486265.0463l-.6859406 2.75096c-.05142.20568-.1378052.3692-.552249.38359-.032909 0-.088442.005-.088442.10284 0 .036.02571.0566.066846.0566.1645435 0 .3424561-.0165.51317-.0165.173799 0 .357882.0165.5265391.0165.02571 0 .091527 0 .091527-.10284 0-.0514-.044221-.0566-.1007829-.0566-.2972066-.009-.3393709-.12135-.3393709-.22419 0-.036.00514-.0617.021596-.11723l.6756567-2.70674c.021596.0309.021596.0401.047306.0915l1.2752119 3.01835c.035994.0884.050391.0977.096669.0977.056562 0 .056562-.0165.082275-.10799z"/><path d="m11.859373 134.33171-.0031.0113-.0041.0123-.0041.0123-.0051.0123-.0062.0123-.0051.0134-.0072.0134-.0062.0123-.0072.0134-.0082.0134-.0082.0134-.0093.0123-.0082.0134-.01028.0123-.0093.0123-.01131.0123-.01028.0123-.01131.0113-.01234.0103-.01131.0103-.01337.0103-.01234.009-.01337.008-.0144.008-.01337.007-.0144.006-.01543.005-.01543.005-.01543.004-.01645.002-.01645.002h-.01645c-.01131 0-.119294 0-.194367-.0494.147061-.0463.157345-.17688.157345-.19745 0-.0792-.0617-.13369-.142947-.13369-.09976 0-.204651.0864-.204651.22007 0 .17895.201565.26019.376393.26019.165572 0 .311604-.10284.402103-.25402.08433.19026.282809.25402.425756.25402.412387 0 .631436-.44633.631436-.54814 0-.0463-.04731-.0463-.05862-.0463-.04936 0-.05245.0175-.06685.0607-.0761.24784-.291036.43398-.491573.43398-.142947 0-.219049-.0956-.219049-.23241 0-.0936.08741-.41959.18614-.81861.07302-.27458.233446-.36405.35274-.36405.0062 0 .117237 0 .19231.0494-.114152.0319-.157344.13369-.157344.19746 0 .0792.06068.13266.142947.13266.0833 0 .200537-.0679.200537-.21905 0-.20054-.229332-.26018-.372279-.26018-.178941 0-.322917.11723-.402104.25401-.06376-.14809-.228304-.25401-.428841-.25401-.402103 0-.631436.44015-.631436.54813 0 .0463.05142.0463.06068.0463.04731 0 .05039-.0144.06993-.0607.08844-.27972.314689-.43398.489517-.43398.119294 0 .215963.0638.215963.2355 0 .073-.04422.25093-.0761.37331z"/></g><g transform="translate(74.3452 -6.192037)"><path d="m564.09 453.38-6.67-6.78.89-.89 5.78 5.08 5.74-5.08.89.89z" transform="matrix(.10283967 0 0 -.10283967 -39.999587 175.71954)"/><path d="m19.123968 130.98428.01028-.038.0051-.0185.0062-.0175.0062-.0185.0062-.0175.0082-.0165.0072-.0164.0093-.0165.0093-.0165.01028-.0154.01028-.0144.01234-.0144.01234-.0144.01337-.0134.01543-.0123.01543-.0123.01646-.0113.01851-.0113.01851-.0113.02057-.009.0216-.009.02263-.009.02468-.007.02571-.007.02777-.007.02879-.005.03085-.005.03188-.004.03394-.004.03599-.003.01851-.001h.01851c.02571 0 .08741-.005.08741-.10284 0-.005 0-.0566-.06582-.0566-.170714 0-.348626.0165-.517284.0165-.175855 0-.353768-.0165-.524482-.0165-.02982 0-.09153 0-.09153.10284 0 .0566.05142.0566.09153.0566.293093.004.348627.1121.348627.22419 0 .0165-.0093.0936-.0144.10799l-.573845 2.27995-1.132265-2.67383c-.04216-.0926-.04628-.0977-.163515-.0977h-.686969c-.10284 0-.149118 0-.149118.10284 0 .0566.04628.0566.142948.0566.02571 0 .348626 0 .348626.0463l-.685941 2.75096c-.05142.20568-.137805.3692-.553277.38359-.03188 0-.08741.005-.08741.10284 0 .036.02571.0566.06685.0566.164544 0 .342456-.0165.51317-.0165.172771 0 .357882.0165.526539.0165.02571 0 .09153 0 .09153-.10284 0-.0514-.04422-.0566-.100782-.0566-.297207-.009-.339371-.12135-.339371-.22419 0-.036.0051-.0617.02057-.11723l.676685-2.70674c.02057.0309.02057.0401.04628.0915l1.276241 3.01835c.03496.0884.05039.0977.09667.0977.05656 0 .05656-.0165.08227-.10799z"/><path d="m20.966855 130.40324.0021-.006.0031-.005.0021-.005.0021-.005.0021-.004.0021-.005.0021-.004.0021-.004.001-.005.0021-.004.001-.003.001-.004.001-.004.001-.003.001-.004.001-.003.001-.003v-.003l.001-.003.001-.003v-.003-.003l.001-.003v-.002l.001-.006v-.005-.004-.005c0-.11107-.100783-.19745-.21185-.19745-.136777 0-.178941.11209-.196424.16865l-.474091 1.55185c-.0031.006-.01748.0535-.01748.0576 0 .0422.111067.0792.139862.0792.02571 0 .02879-.008.05348-.0607z"/><path d="m20.263431 134.83769-.0031.0113-.0041.0123-.0051.0123-.0041.0123-.0062.0134-.0062.0123-.0062.0134-.0072.0134-.0072.0123-.0072.0134-.0082.0134-.0093.0134-.0093.0123-.0093.0134-.01028.0123-.01028.0113-.01028.0123-.01131.0113-.01234.0103-.01131.0113-.01337.009-.01234.009-.01337.008-.0144.008-.01337.007-.01543.006-.0144.006-.01543.004-.01543.004-.01645.002-.01645.002-.01645.001c-.01131 0-.119294 0-.194367-.0504.147061-.0463.157345-.17688.157345-.19745 0-.0792-.0617-.13369-.142948-.13369-.09975 0-.20465.0874-.20465.22008 0 .17894.201565.26018.376393.26018.165572 0 .311604-.10284.401074-.25299.08536.18923.28281.25299.426785.25299.412387 0 .631436-.44632.631436-.54711 0-.0473-.04731-.0473-.05862-.0473-.04936 0-.05245.0175-.06685.0617-.0761.24682-.291036.43398-.491573.43398-.142948 0-.219049-.0967-.219049-.23344 0-.0936.08638-.41959.18614-.81758.07302-.27561.233446-.36508.35274-.36508.0062 0 .117237 0 .19231.0494-.114152.0329-.157345.1337-.157345.19849 0 .0781.06068.13163.142948.13163.0833 0 .200537-.0679.200537-.21905 0-.20054-.229332-.26018-.37228-.26018-.178941 0-.322916.11723-.402103.25401-.06376-.14809-.228304-.25401-.428841-.25401-.402103 0-.631436.44015-.631436.54813 0 .0463.05142.0463.06068.0463.04731 0 .05039-.0144.0689-.0607.08844-.27972.315718-.43398.490545-.43398.119294 0 .214935.0638.214935.23653 0 .072-.04319.2499-.07507.37228z"/></g><path d="m25.842483 130.85162v-.0164-.0154l.001-.0144v-.0144l.001-.0134.001-.0134.0021-.0123.0031-.0123.0031-.0113.0041-.0113.0041-.0103.0062-.009.0072-.009.0082-.009.0093-.008.01028-.007.01234-.007.0062-.003.0072-.004.0072-.003.0082-.003.0082-.003.0082-.002.0093-.003.01028-.002.0093-.003.01131-.002.01028-.002.01131-.002.01234-.002.01234-.002.01337-.001.01337-.002.0144-.001.0144-.002.01543-.001.01645-.001.01645-.001.01646-.001.01851-.001.01748-.001h.01954l.01954-.001h.02057.02057.0216.02263.170713v-.1594c-.185111.0165-.656117.0165-.86591.0165-.210821 0-.686969 0-.871052-.0165v.1594h.168657c.486432 0 .486432.0669.486432.24579v2.27481c-.671543-.17997-.697253-.96875-.697253-1.30092-.0051-.62115-.229332-.71679-.456608-.71679h-.189225c-.0761 0-.127521 0-.127521.0555 0 .0257.01543.0504.04525.0566.170714.0195.297207.0915.304406.69623 0 .11826.0144.52345.260184.86591.200537.27664.512142.42576.860768.47203v.2859c0 .17585 0 .24578-.486432.24578h-.168657v.15941c.184083-.0165.655089-.0165.86591-.0165.208765 0 .685941 0 .871052.0165v-.15941h-.170713c-.485404 0-.485404-.0658-.485404-.24578v-.2859c.368166-.0463.681827-.20053.880308-.46689.267383-.36405.272525-.76821.272525-.99343 0-.0823.0041-.53888.280752-.57385.03085-.006.06788-.0113.06788-.0566 0-.0555-.04217-.0555-.124436-.0555h-.194419c-.199509 0-.451467.035-.456609.77747-.0041.56356-.17277 1.10758-.726048 1.24024z" transform="translate(71.761868 27.662396)"/><g transform="translate(75.637276 13.497111)"><path d="m32.718344 132.76855h.01645.01645l.01646-.001h.0082l.0072-.001h.0082l.0072-.001.0082-.001.0072-.001.0072-.002.0072-.002.0062-.002.0072-.002.0062-.002.0062-.003.0051-.003.0051-.004.0051-.003.0051-.005.0041-.004.0041-.005.0021-.003.0021-.003.001-.003.0021-.003.001-.003.001-.003.001-.004.001-.003.001-.004.001-.004.001-.004v-.004l.001-.004v-.004-.005-.004c0-.10284-.09256-.10284-.179969-.10284h-2.771529c-.08639 0-.177913 0-.177913.10284s.09153.10284.177913.10284z"/><path d="m35.517639 130.85162v-.0164-.0154-.0144l.001-.0144v-.0134l.0021-.0134.0021-.0123.0021-.0123.0031-.0113.0041-.0113.0051-.0103.0051-.009.0072-.009.0082-.009.0093-.008.01131-.007.01131-.007.0072-.003.0072-.004.0072-.003.0072-.003.0082-.003.0093-.002.0093-.003.0093-.002.01028-.003.01028-.002.01131-.002.01131-.002.01131-.002.01337-.002.01234-.001.0144-.002.01337-.001.01543-.002.01543-.001.01543-.001.01645-.001.01748-.001.01748-.001.01851-.001h.01851l.01954-.001h.02057.0216.0216.0216.170714v-.1594c-.184083.0165-.655089.0165-.86591.0165s-.68594 0-.871052-.0165v.1594h.168657c.48746 0 .48746.0669.48746.24579v2.27481c-.671543-.17997-.697253-.96875-.697253-1.30092-.0051-.62115-.230361-.71679-.456608-.71679h-.190253c-.07507 0-.126493 0-.126493.0555 0 .0257.0144.0504.04525.0566.169686.0195.297207.0915.303377.69623 0 .11826.0144.52345.260185.86591.200537.27664.512141.42576.861796.47203v.2859c0 .17585 0 .24578-.48746.24578h-.168657v.15941c.185112-.0165.656117-.0165.86591-.0165.208765 0 .686969 0 .871052.0165v-.15941h-.170714c-.484375 0-.484375-.0658-.484375-.24578v-.2859c.368166-.0463.680799-.20053.880308-.46689.266355-.36405.271497-.76821.271497-.99343 0-.0823.0051-.53888.280752-.57385.03085-.006.06787-.0113.06787-.0566 0-.0555-.04216-.0555-.123407-.0555h-.194367c-.199509 0-.451466.035-.456608.77747-.0051.56356-.173799 1.10758-.726049 1.24024z"/></g><path d="m52.366891 132.39833.0031-.0134.0041-.0154.0041-.0164.0041-.0185.0062-.0195.0062-.0216.0062-.0226.0072-.0226.0082-.0237.0093-.0247.01028-.0257.01028-.0247.01131-.0257.01234-.0257.01337-.0257.0144-.0257.01543-.0247.01543-.0247.01748-.0237.01851-.0226.01851-.0226.02057-.0206.0216-.0195.02262-.0185.02365-.0164.02571-.0144.01234-.007.01337-.006.0144-.005.01337-.005.0144-.005.0144-.004.01543-.003.01543-.003.01543-.002.01645-.002.01646-.001h.01645c.02571 0 .147061 0 .255042.0658-.142947.0257-.245786.15426-.245786.27664 0 .0812.05656.17997.194367.17997.113123 0 .276638-.0915.276638-.29721 0-.26738-.302348-.33732-.475119-.33732-.298235 0-.478205.2715-.53888.38874-.128549-.33732-.405188-.38874-.553277-.38874-.53271 0-.825803.66024-.825803.78879 0 .0514.05142.0514.06273.0514.04011 0 .05656-.0113.06582-.0566.173799-.54299.51317-.67154.686969-.67154.0977 0 .27561.0453.27561.34246 0 .15837-.08638.50288-.27561 1.21967-.08227.31778-.260185.53271-.48746.53271-.02982 0-.148089 0-.255043-.0668.12855-.0247.240645-.13164.240645-.27664 0-.13781-.112095-.17791-.189225-.17791-.154259 0-.282809.13266-.282809.2972 0 .23448.257099.33732.482318.33732.338343 0 .521397-.35891.537852-.38874.06068.18923.245786.38874.552249.38874.529624 0 .821689-.66023.821689-.78878 0-.0514-.04731-.0514-.06273-.0514-.04525 0-.05656.0206-.06582.0555-.168657.54814-.517284.67154-.681827.67154-.200537 0-.282809-.16351-.282809-.33834 0-.11312.03085-.22522.08844-.45044z" transform="translate(31.671439 45.435819)"/><g transform="translate(68.287364 -9.354433)"><path d="m57.007017 132.39833.0031-.0134.0031-.0154.0041-.0164.0051-.0185.0051-.0195.0062-.0216.0072-.0226.0072-.0226.0082-.0237.0093-.0247.0093-.0257.01131-.0247.01131-.0257.01234-.0257.01337-.0257.01337-.0257.01543-.0247.01645-.0247.01748-.0237.01748-.0226.01954-.0226.02057-.0206.0216-.0195.02262-.0185.02365-.0164.02571-.0144.01234-.007.01337-.006.01337-.005.0144-.005.0144-.005.0144-.004.01543-.003.01543-.003.01543-.002.01543-.002.01645-.001h.01748c.02571 0 .147061 0 .255042.0658-.142947.0257-.245787.15426-.245787.27664 0 .0812.05553.17997.194367.17997.112096 0 .276639-.0915.276639-.29721 0-.26738-.302348-.33732-.476148-.33732-.297206 0-.477176.2715-.537851.38874-.12855-.33732-.405188-.38874-.553277-.38874-.53271 0-.825803.66024-.825803.78879 0 .0514.05142.0514.06273.0514.04011 0 .05656-.0113.06582-.0566.173799-.54299.512141-.67154.68594-.67154.09873 0 .276639.0453.276639.34246 0 .15837-.08638.50288-.276639 1.21967-.08124.31778-.260184.53271-.486431.53271-.03085 0-.14809 0-.256071-.0668.128549-.0247.241673-.13164.241673-.27664 0-.13781-.113124-.17791-.190253-.17791-.15426 0-.282809.13266-.282809.2972 0 .23448.257099.33732.482318.33732.339371 0 .522425-.35891.538879-.38874.06068.18923.245787.38874.552249.38874.528596 0 .820661-.66023.820661-.78878 0-.0514-.04628-.0514-.0617-.0514-.04525 0-.05656.0206-.06685.0555-.167628.54814-.517283.67154-.680798.67154-.200538 0-.282809-.16351-.282809-.33834 0-.11312.03085-.22522.08844-.45044z"/><path d="m59.260234 130.40324.0021-.006.0031-.005.0021-.005.0021-.005.0021-.004.0021-.005.0021-.004.0021-.004.001-.005.001-.004.0021-.003.001-.004.001-.004.001-.003.001-.004.001-.003.001-.003v-.003l.001-.003.001-.003v-.003-.003l.001-.003v-.002l.001-.006v-.005-.004-.005c0-.11107-.100782-.19745-.211849-.19745-.136777 0-.178941.11209-.196424.16865l-.474091 1.55185c-.0031.006-.01748.0535-.01748.0576 0 .0422.111067.0792.139862.0792.02571 0 .0288-.008.05245-.0607z"/></g><g transform="translate(42.763124 51.449384)"><path d="m63.313145 133.66531v.33732l.75073-.0566v-.15941c-.349655 0-.401075-.035-.401075-.28589v-3.1109l-.730161.0566v.1594c.359939 0 .401074.035.401074.28693v1.10552c-.154259-.18305-.370222-.31572-.649946-.31572l.02057.1121c.176884 0 .392847.0771.557391.30646.05142.0874.05142.0987.05142.19026v1.05102c0 .0915 0 .10284-.05142.18922-.15426.24579-.390791.35788-.608811.35788-.229333 0-.414444-.13266-.536823-.32703-.133692-.21082-.149118-.50288-.149118-.71267 0-.18923.0093-.49775.158373-.72708.107982-.1594.302349-.32806.578988-.32806l-.02057-.1121c-.604698 0-1.142549.50083-1.142549 1.16106 0 .65098.502886 1.15901 1.085987 1.15901.326002 0 .562533-.1738.68594-.33732z"/><path d="m66.871398 132.0353h.01028.01028.01028.01028l.01028-.001h.01028l.01028-.001.01028-.001.01028-.002.01028-.002.01028-.002.01028-.002.01028-.003.01028-.003.01028-.004.01028-.004.01028-.005.01028-.005v-.006l.01028-.007.01028-.007.01028-.004v-.004-.004l.01028-.005v-.004-.005l.01028-.005v-.005-.005-.006l.01028-.006v-.006-.006-.006-.007-.007-.007-.008-.007l.01028-.008c0-.12238-.113123-.12238-.205679-.12238h-1.172372c-.771298 0-1.336916.84534-1.336916 1.45415 0 .45147.298235.81038.771297.81038v-.11313c-.246815 0-.452494-.18408-.452494-.55224 0-.15426.0617-.57488.236531-.87723.215963-.35377.524482-.42473.69931-.42473.431927 0 .473062.33732.473062.49672 0 .24065-.102839.66023-.277667.92247-.205679.30235-.473062.43501-.678742.43501v.11313c.606755 0 1.285496-.62013 1.285496-1.40993 0-.0864 0-.33218-.164543-.5574z"/></g><g transform="translate(57.596583 20.312484)"><path d="m70.974701 133.66531v.33732l.750729-.0566v-.15941c-.349654 0-.39079-.035-.39079-.28589v-3.1109l-.740446.0566v.1594c.359939 0 .401075.035.401075.28693v1.10552c-.15426-.18305-.370223-.31572-.64789-.31572l.02057.1121c.174827 0 .390791.0771.555334.30646.05142.0874.05142.0987.05142.19026v1.05102c0 .0915 0 .10284-.05142.18922-.154259.24579-.390791.35788-.606754.35788-.226247 0-.411359-.13266-.534766-.32703-.133692-.21082-.15426-.50288-.15426-.71267 0-.18923.01028-.49775.164544-.72708.102839-.1594.298235-.32806.575902-.32806l-.02057-.1121c-.606754 0-1.14152.50083-1.14152 1.16106 0 .65098.503914 1.15901 1.079816 1.15901.329087 0 .565618-.1738.689026-.33732z"/><path d="m74.532953 132.0353h.01028.01028.01028.01028l.01028-.001h.01028l.01028-.001.01028-.001.01028-.002.01028-.002.01028-.002.01028-.002.01028-.003.01028-.003.01028-.004.01028-.004.01028-.005.01028-.005.01028-.006v-.007l.01028-.007.01028-.004v-.004-.004l.01028-.005v-.004-.005l.01028-.005v-.005-.005-.006l.01028-.006v-.006-.006-.006-.007-.007-.007l.01028-.008v-.007-.008c0-.12238-.113124-.12238-.20568-.12238h-1.162088c-.781581 0-1.3472.84534-1.3472 1.45415 0 .45147.298235.81038.771298.81038v-.11313c-.246815 0-.452495-.18408-.452495-.55224 0-.15426.0617-.57488.236532-.87723.215963-.35377.524482-.42473.699309-.42473.431927 0 .473063.33732.473063.49672 0 .24065-.10284.66023-.277667.92247-.195396.30235-.473063.43501-.678742.43501v.11313c.606754 0 1.285496-.62013 1.285496-1.40993 0-.0864 0-.33218-.164544-.5574z"/><path d="m76.034413 130.40324v-.006-.005-.005l.01028-.005v-.004-.005-.004-.004l.01028-.005v-.004-.003-.004-.004-.003-.004-.003-.003-.003l.01028-.003v-.003-.003-.003-.003-.002-.006-.005-.004-.005c0-.11107-.10284-.19745-.215964-.19745-.133691 0-.174827.11209-.195395.16865l-.473063 1.55185c0 .006-.02057.0535-.02057.0576 0 .0422.113124.0792.143976.0792.02057 0 .03085-.008.05142-.0607z"/></g></g></g></svg>