<svg height="50.168636mm" viewBox="0 0 105.26283 50.168637" width="105.26283mm" xmlns="http://www.w3.org/2000/svg" xmlns:xlink="http://www.w3.org/1999/xlink"><marker id="a" orient="auto" overflow="visible" refX="0" refY="0"><path d="m0 0 5-5-17.5 5 17.5 5z" fill-rule="evenodd" stroke="#000" stroke-width="1pt" transform="matrix(-.4 0 0 -.4 -4 0)"/></marker><marker id="b" orient="auto" overflow="visible" refX="0" refY="0"><path d="m0 0 5-5-17.5 5 17.5 5z" fill-rule="evenodd" stroke="#000" stroke-width="1pt" transform="matrix(-.4 0 0 -.4 -4 0)"/></marker><marker id="c" orient="auto" overflow="visible" refX="0" refY="0"><path d="m0 0 5-5-17.5 5 17.5 5z" fill-rule="evenodd" stroke="#000" stroke-width="1pt" transform="matrix(-.4 0 0 -.4 -4 0)"/></marker><marker id="d" orient="auto" overflow="visible" refX="0" refY="0"><path d="m0 0 5-5-17.5 5 17.5 5z" fill-rule="evenodd" stroke="#000" stroke-width="1pt" transform="matrix(-.4 0 0 -.4 -4 0)"/></marker><g transform="translate(-65.152098 -137.91928)"><g stroke="#000"><path d="m65.347399 187.55313 7.216278-17.90706h34.745033l7.21628 18.30796z" fill="#fea" fill-opacity=".506224" stroke-width=".264583"/><path d="m151.14092 183.00955-6.28083-34.87867 16.73537-9.99969 8.65523 48.75377z" fill="#fea" fill-opacity=".439834" stroke-width=".264583"/><circle cx="89.936195" cy="178.06505" r="1.511906" stroke-linecap="round" stroke-width=".865"/><circle cx="155.68449" cy="162.42979" r="1.511906" stroke-linecap="round" stroke-width=".865"/><path d="m89.936196 178.98143v-26.99422" fill="none" marker-end="url(#c)" stroke-width=".465"/><path d="m155.55087 162.42979-26.05878 8.41899" fill="none" marker-end="url(#d)" stroke-width=".465"/></g><g fill-rule="evenodd" transform="translate(42.763124 51.449384)"><path d="m63.313145 133.66531v.33732l.75073-.0566v-.15941c-.349655 0-.401075-.035-.401075-.28589v-3.1109l-.730161.0566v.1594c.359939 0 .401074.035.401074.28693v1.10552c-.154259-.18305-.370222-.31572-.649946-.31572l.02057.1121c.176884 0 .392847.0771.557391.30646.05142.0874.05142.0987.05142.19026v1.05102c0 .0915 0 .10284-.05142.18922-.15426.24579-.390791.35788-.608811.35788-.229333 0-.414444-.13266-.536823-.32703-.133692-.21082-.149118-.50288-.149118-.71267 0-.18923.0093-.49775.158373-.72708.107982-.1594.302349-.32806.578988-.32806l-.02057-.1121c-.604698 0-1.142549.50083-1.142549 1.16106 0 .65098.502886 1.15901 1.085987 1.15901.326002 0 .562533-.1738.68594-.33732z"/><path d="m66.871398 132.0353h.01028.01028.01028.01028l.01028-.001h.01028l.01028-.001.01028-.001.01028-.002.01028-.002.01028-.002.01028-.002.01028-.003.01028-.003.01028-.004.01028-.004.01028-.005.01028-.005v-.006l.01028-.007.01028-.007.01028-.004v-.004-.004l.01028-.005v-.004-.005l.01028-.005v-.005-.005-.006l.01028-.006v-.006-.006-.006-.007-.007-.007-.008-.007l.01028-.008c0-.12238-.113123-.12238-.205679-.12238h-1.172372c-.771298 0-1.336916.84534-1.336916 1.45415 0 .45147.298235.81038.771297.81038v-.11313c-.246815 0-.452494-.18408-.452494-.55224 0-.15426.0617-.57488.236531-.87723.215963-.35377.524482-.42473.69931-.42473.431927 0 .473062.33732.473062.49672 0 .24065-.102839.66023-.277667.92247-.205679.30235-.473062.43501-.678742.43501v.11313c.606755 0 1.285496-.62013 1.285496-1.40993 0-.0864 0-.33218-.164543-.5574z"/></g><g fill-rule="evenodd" transform="translate(90.871639 48.509419)"><path d="m70.974701 133.66531v.33732l.750729-.0566v-.15941c-.349654 0-.39079-.035-.39079-.28589v-3.1109l-.740446.0566v.1594c.359939 0 .401075.035.401075.28693v1.10552c-.15426-.18305-.370223-.31572-.64789-.31572l.02057.1121c.174827 0 .390791.0771.555334.30646.05142.0874.05142.0987.05142.19026v1.05102c0 .0915 0 .10284-.05142.18922-.154259.24579-.390791.35788-.606754.35788-.226247 0-.411359-.13266-.534766-.32703-.133692-.21082-.15426-.50288-.15426-.71267 0-.18923.01028-.49775.164544-.72708.102839-.1594.298235-.32806.575902-.32806l-.02057-.1121c-.606754 0-1.14152.50083-1.14152 1.16106 0 .65098.503914 1.15901 1.079816 1.15901.329087 0 .565618-.1738.689026-.33732z"/><path d="m74.532953 132.0353h.01028.01028.01028.01028l.01028-.001h.01028l.01028-.001.01028-.001.01028-.002.01028-.002.01028-.002.01028-.002.01028-.003.01028-.003.01028-.004.01028-.004.01028-.005.01028-.005.01028-.006v-.007l.01028-.007.01028-.004v-.004-.004l.01028-.005v-.004-.005l.01028-.005v-.005-.005-.006l.01028-.006v-.006-.006-.006-.007-.007-.007l.01028-.008v-.007-.008c0-.12238-.113124-.12238-.20568-.12238h-1.162088c-.781581 0-1.3472.84534-1.3472 1.45415 0 .45147.298235.81038.771298.81038v-.11313c-.246815 0-.452495-.18408-.452495-.55224 0-.15426.0617-.57488.236532-.87723.215963-.35377.524482-.42473.699309-.42473.431927 0 .473063.33732.473063.49672 0 .24065-.10284.66023-.277667.92247-.195396.30235-.473063.43501-.678742.43501v.11313c.606754 0 1.285496-.62013 1.285496-1.40993 0-.0864 0-.33218-.164544-.5574z"/><path d="m76.034413 130.40324v-.006-.005-.005l.01028-.005v-.004-.005-.004-.004l.01028-.005v-.004-.003-.004-.004-.003-.004-.003-.003-.003l.01028-.003v-.003-.003-.003-.003-.002-.006-.005-.004-.005c0-.11107-.10284-.19745-.215964-.19745-.133691 0-.174827.11209-.195395.16865l-.473063 1.55185c0 .006-.02057.0535-.02057.0576 0 .0422.113124.0792.143976.0792.02057 0 .03085-.008.05142-.0607z"/></g><g fill-rule="evenodd" transform="translate(21.047475 18.307962)"><path d="m92.604563 137.68422-.01249.0107-.01249.0125-.01249.0125-.01606.0125-.01427.0143-.01606.0143-.01606.0161-.01606.0143-.01784.0161-.01784.0178-.0339.0339-.03569.0339-.0339.0375-.01606.0178-.01606.0178-.01606.0178-.01427.0196-.01427.0178-.01427.0178-.01249.0179-.01071.0178-.01071.0178-.0089.0178-.0089.0179-.0071.0161-.0054.0161-.0036.0179-.0036.0143v.0161c0 .0892.08921.17843.178427.17843.08029 0 .124899-.0642.169506-.11777.105271-.13382.310462-.38183.703001-.57632.06067-.0375.149879-.0821.149879-.18734 0-.0892-.06067-.13382-.124899-.17843-.194485-.13382-.29262-.29262-.365775-.50495-.01606-.0803-.05174-.19805-.174858-.19805-.126683 0-.178427.11776-.178427.18735 0 .0446.06959.3283.212328.51565h-2.995755c-.149879 0-.312247 0-.312247.17843 0 .17842.162368.17842.312247.17842z"/><path d="m92.333354 139.66655v-.0214l-.0018-.0232v-.0214l-.0018-.0196v-.0214l-.0018-.0196-.0036-.0196-.0018-.0179-.0054-.0375-.0071-.0339-.0071-.0321-.0089-.0321-.0089-.0285-.01071-.0286-.01071-.0268-.01249-.0232-.01249-.0232-.01249-.0214-.01427-.0214-.01427-.0178-.01427-.0178-.01606-.0161-.01606-.0143-.01606-.0125-.01606-.0125-.01606-.0107-.01606-.009-.01606-.009-.01606-.007-.01784-.005-.01606-.005-.01606-.005-.01606-.002-.01606-.004h-.01427-.01606c-.223034 0-.435362.23017-.435362.42644 0 .11419.04461.16594.142742.26407.187348.17843.301541.41038.301541.72977 0 .37469-.540633 2.40876-1.580862 2.40876-.454988 0-.658394-.31225-.658394-.7708 0-.4996.239091-1.14907.515653-1.88598.06245-.15344.105272-.27477.105272-.44606 0-.39789-.283699-.7262-.729766-.7262-.833253 0-1.174048 1.28646-1.174048 1.36853 0 .0892.08921.0892.10884.0892.08921 0 .09813-.0196.142742-.16237.256934-.89749.638768-1.10089.897486-1.10089.06959 0 .223034 0 .223034.28369 0 .22304-.08921.46391-.153447.62271-.390755 1.03131-.504948 1.44169-.504948 1.82353 0 .95815.781509 1.10089 1.190107 1.10089 1.495216 0 2.000164-2.94226 2.000164-3.40438z"/></g><g fill-rule="evenodd" transform="translate(-8.753077 14.633007)"><path d="m540.43 433.11 5.78 5.07 5.73-5.07.89.89-6.62 6.78-6.68-6.78z" transform="matrix(.1784268 0 0 -.1784268 6.89725 215.44976)"/><path d="m102.48762 142.44822-.002.0125-.004.0143-.004.0125-.002.0143-.007.0286-.005.0285-.007.0285-.007.0285-.007.0285-.005.0285-.004.0143-.004.0125-.002.0125-.004.0125-.002.0125-.004.0125-.002.0107-.002.0107-.002.0107-.002.009-.002.009-.002.007v.007l-.002.007v.005.004c0 .1588.1249.24088.25694.24088.10884 0 .26764-.0696.3283-.24801.0107-.0196.11776-.43537.16951-.6584l.19627-.79935c.0517-.19627.10527-.39076.14987-.59773.0357-.14988.10885-.40681.11777-.4425.13382-.27656.60486-1.08483 1.44704-1.08483.40146 0 .48175.3283.48175.62092 0 .55312-.43715 1.6897-.57989 2.07154-.0785.2034-.0856.31224-.0856.41038 0 .41573.30868.72798.7262.72798.83682 0 1.16512-1.29716 1.16512-1.36853 0-.0892-.0803-.0892-.10705-.0892-.0874 0-.0874.0268-.13204.16059-.17843.60308-.47105 1.10089-.90819 1.10089-.15166 0-.21233-.0892-.21233-.29262 0-.22303.0803-.43715.1588-.63163.16951-.47105.5442-1.44704.5442-1.95556 0-.59594-.38183-.94923-1.02417-.94923-.79935 0-1.23471.5674-1.38459.7708-.0446-.49781-.41038-.7708-.82076-.7708-.40682 0-.57632.34436-.66554.50316-.14274.30511-.26764.8279-.26764.86537 0 .0892.0892.0892.10884.0892.0892 0 .0981-.0125.14988-.20698.15167-.62984.33009-1.05628.64948-1.05628.17664 0 .27656.11419.27656.40681 0 .18735-.0285.28727-.14274.74761z"/></g><g fill-rule="evenodd" transform="translate(16.904797 9.153981)"><path d="m120.35171 137.68422-.0125.0107-.0125.0125-.0143.0125-.0143.0125-.0143.0143-.0161.0143-.016.0161-.0179.0143-.0161.0161-.0178.0178-.0339.0339-.0357.0339-.0339.0375-.016.0178-.0161.0178-.0161.0178-.0143.0196-.0143.0178-.0143.0178-.0125.0179-.0107.0178-.0107.0178-.0107.0178-.007.0179-.007.0161-.005.0161-.005.0179-.002.0143v.0161c0 .0892.0892.17843.17842.17843.0803 0 .1249-.0642.16951-.11777.10527-.13382.30868-.38183.703-.57632.0607-.0375.14988-.0821.14988-.18734 0-.0892-.0607-.13382-.1249-.17843-.19627-.13382-.29262-.29262-.36578-.50495-.016-.0803-.0535-.19805-.17485-.19805-.12669 0-.17843.11776-.17843.18735 0 .0446.0696.3283.21054.51565h-2.994c-.14988 0-.31225 0-.31225.17843 0 .17842.16237.17842.31225.17842z"/><path d="m120.08051 139.66655v-.0214-.0232l-.002-.0214v-.0196l-.002-.0214-.002-.0196-.002-.0196-.004-.0179-.005-.0375-.007-.0339-.007-.0321-.009-.0321-.009-.0285-.0107-.0286-.0107-.0268-.0125-.0232-.0125-.0232-.0125-.0214-.0143-.0214-.0143-.0178-.0143-.0178-.0161-.0161-.0161-.0143-.0143-.0125-.0161-.0125-.0178-.0107-.0161-.009-.0161-.009-.0161-.007-.0178-.005-.0161-.005-.0161-.005-.0161-.002-.0161-.004h-.0143-.0161c-.22303 0-.43358.23017-.43358.42644 0 .11419.0446.16594.14096.26407.18735.17843.30154.41038.30154.72977 0 .37469-.54063 2.40876-1.58086 2.40876-.45499 0-.65839-.31225-.65839-.7708 0-.4996.24087-1.14907.51565-1.88598.0624-.15344.10706-.27477.10706-.44606 0-.39789-.28549-.7262-.73155-.7262-.83326 0-1.17227 1.28646-1.17227 1.36853 0 .0892.0892.0892.10706.0892.0892 0 .0981-.0196.14274-.16237.25693-.89749.63877-1.10089.89749-1.10089.0696 0 .22303 0 .22303.28369 0 .22304-.0892.46391-.15345.62271-.39075 1.03131-.50316 1.44169-.50316 1.82353 0 .95815.77972 1.10089 1.19011 1.10089 1.49343 0 1.99838-2.94226 1.99838-3.40438z"/><path d="m122.35188 136.82599.005-.0107.004-.009.004-.009.004-.009.004-.007.004-.009.004-.007.004-.007.002-.009.004-.007.002-.005.002-.007.002-.007.002-.005.002-.007.002-.005.002-.005.002-.005v-.005l.002-.005v-.005l.002-.005v-.005-.004l.002-.0107v-.009-.007-.009c0-.1927-.17486-.34258-.36756-.34258-.23731 0-.30868.19448-.34079.29262l-.82255 2.69246c-.005.0107-.0303.0928-.0303.0999 0 .0731.1927.13739.24266.13739.0446 0 .05-.0143.0928-.10528z"/></g><g fill-rule="evenodd" transform="translate(-6.748556 24.054257)"><path d="m709.87 433.11 5.78 5.07 5.74-5.07.89.89-6.63 6.78-6.67-6.78z" transform="matrix(.1784268 0 0 -.1784268 6.89725 215.44976)"/><path d="m132.72204 142.44822-.004.0125-.002.0143-.004.0125-.004.0143-.005.0286-.007.0285-.007.0285-.005.0285-.007.0285-.007.0285-.004.0143-.002.0125-.004.0125-.002.0125-.004.0125-.002.0125-.004.0107-.002.0107-.002.0107-.002.009-.002.009v.007l-.002.007v.007l-.002.005v.004c0 .1588.12668.24088.25693.24088.10884 0 .26764-.0696.33009-.24801.0107-.0196.11598-.43537.16951-.6584l.19448-.79935c.0535-.19627.10706-.39076.15167-.59773.0357-.14988.10884-.40681.11597-.4425.13382-.27656.60487-1.08483 1.44704-1.08483.40147 0 .48354.3283.48354.62092 0 .55312-.43893 1.6897-.58167 2.07154-.0767.2034-.0856.31224-.0856.41038 0 .41573.31046.72798.72798.72798.83682 0 1.16512-1.29716 1.16512-1.36853 0-.0892-.0803-.0892-.10884-.0892-.0856 0-.0856.0268-.13025.16059-.17843.60308-.47105 1.10089-.90998 1.10089-.14987 0-.21232-.0892-.21232-.29262 0-.22303.0821-.43715.16058-.63163.16951-.47105.54242-1.44704.54242-1.95556 0-.59594-.38183-.94923-1.02239-.94923-.80113 0-1.23471.5674-1.38637.7708-.0446-.49781-.4086-.7708-.81898-.7708-.40682 0-.57811.34436-.66732.50316-.14096.30511-.26764.8279-.26764.86537 0 .0892.0892.0892.10884.0892.0892 0 .0981-.0125.15166-.20698.14988-.62984.32831-1.05628.64948-1.05628.17486 0 .27656.11419.27656.40681 0 .18735-.0285.28727-.14274.74761z"/><path d="m139.07404 136.82599.004-.0107.005-.009.004-.009.004-.009.004-.007.004-.009.004-.007.004-.007.002-.009.004-.007.002-.005.002-.007.002-.007.002-.005.002-.007.002-.005.002-.005.002-.005v-.005l.002-.005v-.005l.002-.005v-.005-.004l.002-.0107v-.009-.007-.009c0-.1927-.17486-.34258-.36756-.34258-.23731 0-.31046.19448-.34079.29262l-.82255 2.69246c-.005.0107-.0303.0928-.0303.0999 0 .0731.1927.13739.24266.13739.0446 0 .05-.0143.0928-.10528z"/></g><path d="m89.936196 178.98143 17.038434-18.10751" fill="none" marker-end="url(#b)" stroke="#000" stroke-width=".465"/><path d="m155.55087 162.42979-23.98744-8.41899" fill="none" marker-end="url(#a)" stroke="#000" stroke-width=".465"/></g></svg>