<svg height="50.853306mm" viewBox="0 0 154.67764 50.853306" width="154.67764mm" xmlns="http://www.w3.org/2000/svg" xmlns:xlink="http://www.w3.org/1999/xlink"><marker id="a" orient="auto" overflow="visible" refX="0" refY="0"><path d="m0 0 5-5-17.5 5 17.5 5z" fill-rule="evenodd" stroke="#000" stroke-width="1pt" transform="matrix(-.4 0 0 -.4 -4 0)"/></marker><marker id="b" orient="auto" overflow="visible" refX="0" refY="0"><path d="m0 0 5-5-17.5 5 17.5 5z" fill-rule="evenodd" stroke="#000" stroke-width="1pt" transform="matrix(.4 0 0 .4 4 0)"/></marker><marker id="c" orient="auto" overflow="visible" refX="0" refY="0"><path d="m0 0 5-5-17.5 5 17.5 5z" fill-rule="evenodd" stroke="#000" stroke-width="1pt" transform="matrix(-.4 0 0 -.4 -4 0)"/></marker><marker id="d" orient="auto" overflow="visible" refX="0" refY="0"><path d="m0 0 5-5-17.5 5 17.5 5z" fill-rule="evenodd" stroke="#000" stroke-width="1pt" transform="matrix(.4 0 0 .4 4 0)"/></marker><marker id="e" orient="auto" overflow="visible" refX="0" refY="0"><path d="m0 0 5-5-17.5 5 17.5 5z" fill-rule="evenodd" stroke="#000" stroke-width="1pt" transform="matrix(-.4 0 0 -.4 -4 0)"/></marker><marker id="f" orient="auto" overflow="visible" refX="0" refY="0"><path d="m0 0 5-5-17.5 5 17.5 5z" fill-rule="evenodd" stroke="#000" stroke-width="1pt" transform="matrix(.4 0 0 .4 4 0)"/></marker><marker id="g" orient="auto" overflow="visible" refX="0" refY="0"><path d="m0 0 5-5-17.5 5 17.5 5z" fill-rule="evenodd" stroke="#000" stroke-width="1pt" transform="matrix(-.4 0 0 -.4 -4 0)"/></marker><marker id="h" orient="auto" overflow="visible" refX="0" refY="0"><path d="m0 0 5-5-17.5 5 17.5 5z" fill-rule="evenodd" stroke="#000" stroke-width="1pt" transform="matrix(.4 0 0 .4 4 0)"/></marker><marker id="i" orient="auto" overflow="visible" refX="0" refY="0"><path d="m0 0 5-5-17.5 5 17.5 5z" fill-rule="evenodd" stroke="#000" stroke-width="1pt" transform="matrix(.4 0 0 .4 4 0)"/></marker><marker id="j" orient="auto" overflow="visible" refX="0" refY="0"><path d="m0 0 5-5-17.5 5 17.5 5z" fill-rule="evenodd" stroke="#000" stroke-width="1pt" transform="matrix(-.4 0 0 -.4 -4 0)"/></marker><marker id="k" orient="auto" overflow="visible" refX="0" refY="0"><path d="m0 0 5-5-17.5 5 17.5 5z" fill-rule="evenodd" stroke="#000" stroke-width="1pt" transform="matrix(-.4 0 0 -.4 -4 0)"/></marker><marker id="l" orient="auto" overflow="visible" refX="0" refY="0"><path d="m0 0 5-5-17.5 5 17.5 5z" fill-rule="evenodd" stroke="#000" stroke-width="1pt" transform="matrix(.4 0 0 .4 4 0)"/></marker><marker id="m" orient="auto" overflow="visible" refX="0" refY="0"><path d="m0 0 5-5-17.5 5 17.5 5z" fill-rule="evenodd" stroke="#000" stroke-width="1pt" transform="matrix(.4 0 0 .4 4 0)"/></marker><marker id="n" orient="auto" overflow="visible" refX="0" refY="0"><path d="m0 0 5-5-17.5 5 17.5 5z" fill-rule="evenodd" stroke="#000" stroke-width="1pt" transform="matrix(-.4 0 0 -.4 -4 0)"/></marker><marker id="o" orient="auto" overflow="visible" refX="0" refY="0"><path d="m0 0 5-5-17.5 5 17.5 5z" fill-rule="evenodd" stroke="#000" stroke-width="1pt" transform="matrix(-.4 0 0 -.4 -4 0)"/></marker><g stroke="#000" transform="translate(-24.224524 -133.99236)"><ellipse cx="38.286362" cy="154.94624" fill="#e9c6af" rx="9.822156" ry="9.488069" stroke-linecap="round" stroke-width=".465"/><path d="m53.721176 137.97464h30.335091v8.018086h-30.335091z" fill="#ffe680" stroke-linecap="round" stroke-width=".465"/><path d="m64.144684 150.13539h29.266012v7.617181h-29.266012z" fill="#c8b7b7" stroke-linecap="round" stroke-width=".465"/><path d="m37.952274 182.87592h43.698566v1.737252h-43.698566z" stroke-linecap="round" stroke-width=".465"/><circle cx="60.336094" cy="182.27455" r="1.5368" stroke-linecap="round" stroke-width=".465"/><path d="m24.722431 171.51695 35.680483 11.09169-20.17885-16.97161" fill="none" marker-end="url(#g)" marker-start="url(#h)" stroke-width=".264583"/><path d="m47.573975 160.5589 12.828939 22.04974-11.225321-48.10851" fill="none" marker-end="url(#j)" marker-start="url(#i)" stroke-width=".264583"/><path d="m59.302104 147.36751 1.10081 35.24113 5.07812-23.35267" fill="none" marker-end="url(#k)" marker-start="url(#l)" stroke-width=".264583"/><path d="m72.19618 159.05552-11.793266 23.55312 26.292639-23.82039" fill="none" marker-end="url(#n)" marker-start="url(#m)" stroke-width=".264583"/><path d="m60.402914 182.60864 36.749558-12.2944" fill="none" marker-end="url(#o)" stroke-width=".265"/><ellipse cx="123.54534" cy="154.94624" fill="#e9c6af" rx="9.822156" ry="9.488069" stroke-linecap="round" stroke-width=".465"/><path d="m138.98015 137.97464h30.335091v8.018086h-30.335091z" fill="#ffe680" stroke-linecap="round" stroke-width=".465"/><path d="m149.40366 150.13539h29.266012v7.617181h-29.266012z" fill="#c8b7b7" stroke-linecap="round" stroke-width=".465"/><path d="m123.21125 182.87592h43.698566v1.737252h-43.698566z" stroke-linecap="round" stroke-width=".465"/><circle cx="145.59508" cy="182.27455" r="1.5368" stroke-linecap="round" stroke-width=".465"/><path d="m129.62572 164.03341 16.03617 18.57523 1.06908-35.0123" fill="none" marker-end="url(#e)" marker-start="url(#f)" stroke-width=".264583"/><path d="m158.7915 147.22884-13.12961 35.3798 6.68174-23.48631" fill="none" marker-end="url(#c)" marker-start="url(#d)" stroke-width=".264583"/><path d="m166.20824 147.16202-20.54635 35.44662 26.39287-23.82039" fill="none" marker-end="url(#a)" marker-start="url(#b)" stroke-width=".264583"/><g stroke-linecap="round"><circle cx="39.005802" cy="164.41518" r=".633955" stroke-width=".19182"/><circle cx="46.896053" cy="159.54874" r=".633955" stroke-width=".19182"/><circle cx="59.274773" cy="146.03609" r=".633955" stroke-width=".19182"/><circle cx="65.789131" cy="157.76384" r=".633955" stroke-width=".19182"/><circle cx="72.972" cy="157.76384" r=".633955" stroke-width=".19182"/><circle cx="87.905685" cy="157.76384" r=".633955" stroke-width=".19182"/><circle cx="128.69978" cy="162.92848" r=".633955" stroke-width=".19182"/><circle cx="146.67366" cy="145.95686" r=".633955" stroke-width=".19182"/><circle cx="159.20192" cy="145.95686" r=".633955" stroke-width=".19182"/><circle cx="166.98615" cy="145.95686" r=".633955" stroke-width=".19182"/><circle cx="152.52019" cy="157.78354" r=".633955" stroke-width=".19182"/><circle cx="173.13335" cy="157.78354" r=".633955" stroke-width=".19182"/></g></g></svg>