<svg height="43.429459mm" viewBox="0 0 69.358177 43.429459" width="69.358177mm" xmlns="http://www.w3.org/2000/svg" xmlns:xlink="http://www.w3.org/1999/xlink"><marker id="a" orient="auto" overflow="visible" refX="0" refY="0"><path d="m0 0 5-5-17.5 5 17.5 5z" fill-rule="evenodd" stroke="#000" stroke-width="1pt" transform="matrix(.4 0 0 .4 4 0)"/></marker><marker id="b" orient="auto" overflow="visible" refX="0" refY="0"><path d="m0 0 5-5-17.5 5 17.5 5z" fill-rule="evenodd" stroke="#000" stroke-width="1pt" transform="matrix(-.4 0 0 -.4 -4 0)"/></marker><marker id="c" orient="auto" overflow="visible" refX="0" refY="0"><path d="m0 0 5-5-17.5 5 17.5 5z" fill-rule="evenodd" stroke="#000" stroke-width="1pt" transform="matrix(-.4 0 0 -.4 -4 0)"/></marker><g transform="translate(-54.806548 -115.6045)"><path d="m54.806548 149.4003 61.657362.0354-5.14993-33.78163z" fill="#faa"/><path d="m54.806548 149.4003h60.665172" fill="none" marker-end="url(#c)" stroke="#000" stroke-width=".565"/><path d="m116.46391 149.43574-4.96094-32.73038" fill="none" marker-end="url(#b)" stroke="#000" stroke-width=".565"/><g fill="#000" fill-rule="evenodd" stroke="none" stroke-miterlimit="10.433"><g transform="matrix(.225 0 0 -.225 -20.284774 250.305208)"><path d="m480.71 435.84-.07-.06-.07-.07-.08-.07-.08-.07-.08-.08-.09-.08-.09-.09-.1-.08-.09-.09-.1-.1-.19-.19-.2-.19-.19-.21-.09-.1-.09-.1-.09-.1-.08-.11-.08-.1-.08-.1-.07-.1-.06-.1-.06-.1-.06-.1-.04-.1-.04-.09-.03-.09-.02-.1-.02-.08v-.09c0-.5.5-1 1-1 .45 0 .7.36.95.66.59.75 1.73 2.14 3.94 3.23.34.21.84.46.84 1.05 0 .5-.34.75-.7 1-1.1.75-1.64 1.64-2.05 2.83-.09.45-.3 1.11-.98 1.11-.71 0-1-.66-1-1.05 0-.25.39-1.84 1.18-2.89h-16.78c-.84 0-1.75 0-1.75-1s.91-1 1.75-1z"/><path d="m459.91 409.14-.02-.07-.01-.08-.02-.07-.02-.08-.03-.16-.04-.16-.04-.16-.04-.16-.03-.16-.04-.16-.02-.08-.01-.07-.02-.07-.01-.07-.02-.07-.01-.07-.02-.06-.01-.06-.01-.06-.01-.05-.01-.05v-.04l-.01-.04v-.04l-.01-.03v-.02c0-.89.71-1.35 1.44-1.35.61 0 1.5.39 1.84 1.39.11.21 1.8 6.99 2 7.88.39 1.64 1.3 5.12 1.6 6.48.2.64 1.59 2.99 2.78 4.08.41.34 1.84 1.64 4 1.64 1.28 0 2.03-.59 2.08-.59-1.49-.25-2.58-1.46-2.58-2.74 0-.79.55-1.75 1.89-1.75s2.73 1.14 2.73 2.94c0 1.75-1.59 3.23-4.12 3.23-3.25 0-5.44-2.43-6.39-3.82-.39 2.23-2.19 3.82-4.53 3.82-2.28 0-3.24-1.93-3.69-2.82-.89-1.71-1.55-4.69-1.55-4.85 0-.5.5-.5.61-.5.5 0 .55.07.85 1.16.84 3.53 1.84 5.92 3.64 5.92.84 0 1.54-.39 1.54-2.28 0-1.05-.15-1.61-.79-4.19z"/></g><g transform="matrix(.225 0 0 -.225 14.558226 226.851162)"><path d="m482.75 435.84-.07-.06-.07-.07-.08-.07-.08-.07-.08-.08-.09-.08-.09-.09-.1-.08-.09-.09-.1-.1-.19-.19-.2-.19-.19-.21-.09-.1-.09-.1-.09-.1-.08-.11-.08-.1-.08-.1-.07-.1-.06-.1-.06-.1-.06-.1-.04-.1-.04-.09-.03-.09-.03-.1-.01-.08v-.09c0-.5.5-1 1-1 .45 0 .7.36.95.66.59.75 1.73 2.14 3.94 3.23.34.21.84.46.84 1.05 0 .5-.34.75-.7 1-1.1.75-1.64 1.64-2.05 2.83-.09.45-.3 1.11-.98 1.11-.71 0-1-.66-1-1.05 0-.25.39-1.84 1.18-2.89h-16.78c-.84 0-1.75 0-1.75-1s.91-1 1.75-1z"/><path d="m457.75 400.12-.04-.15-.03-.15-.03-.14-.04-.13-.03-.13-.03-.11-.04-.12-.03-.1-.04-.1-.04-.09-.05-.09-.04-.08-.05-.07-.05-.07-.06-.07-.06-.06-.07-.05-.08-.05-.08-.04-.08-.04-.1-.04-.1-.03-.11-.03-.11-.02-.13-.02-.07-.01-.06-.01-.08-.01-.07-.01h-.08l-.08-.01h-.08l-.08-.01h-.09-.09-.09-.1l-.1-.01h-.1c-.59 0-1.14 0-1.14-.93 0-.41.25-.61.64-.61 1.36 0 2.8.15 4.19.15 1.64 0 3.34-.15 4.94-.15.25 0 .89 0 .89 1 0 .54-.5.54-1.19.54-2.5 0-2.5.36-2.5.8 0 .61 2.09 8.72 2.45 9.97.64-1.44 2.04-3.19 4.58-3.19l-.04 1.1c-3.3 0-3.94 4.14-3.94 4.43 0 .1 0 .21.14.8l2.45 9.77c.35 1.34 1.69 2.73 2.58 3.48 1.75 1.55 3.2 1.89 4.05 1.89 1.98 0 3.18-1.73 3.18-4.69 0-2.93-1.64-8.65-2.54-10.56-1.69-3.48-4.08-5.12-5.92-5.12l.04-1.1c5.78 0 12 7.27 12 14.6 0 4.68-2.83 7.96-6.62 7.96-2.49 0-4.88-1.78-6.52-3.73-.5 2.69-2.64 3.73-4.48 3.73-2.3 0-3.25-1.93-3.69-2.82-.91-1.71-1.55-4.69-1.55-4.85 0-.5.5-.5.6-.5.5 0 .54.07.84 1.16.86 3.53 1.84 5.92 3.64 5.92.84 0 1.55-.39 1.55-2.28 0-1.16-.16-1.7-.35-2.55z"/></g><g transform="matrix(.225 0 0 -.225 -39.517605 218.842134)"><path d="m480.71 435.84-.07-.06-.07-.07-.08-.07-.08-.07-.08-.08-.09-.08-.09-.09-.1-.08-.09-.09-.1-.1-.19-.19-.2-.19-.19-.21-.09-.1-.09-.1-.09-.1-.08-.11-.08-.1-.08-.1-.07-.1-.06-.1-.06-.1-.06-.1-.04-.1-.04-.09-.03-.09-.02-.1-.02-.08v-.09c0-.5.5-1 1-1 .45 0 .7.36.95.66.59.75 1.73 2.14 3.94 3.23.34.21.84.46.84 1.05 0 .5-.34.75-.7 1-1.1.75-1.64 1.64-2.05 2.83-.09.45-.3 1.11-.98 1.11-.71 0-1-.66-1-1.05 0-.25.39-1.84 1.18-2.89h-16.78c-.84 0-1.75 0-1.75-1s.91-1 1.75-1z"/><path d="m459.91 409.14-.02-.07-.01-.08-.02-.07-.02-.08-.03-.16-.04-.16-.04-.16-.04-.16-.03-.16-.04-.16-.02-.08-.01-.07-.02-.07-.01-.07-.02-.07-.01-.07-.02-.06-.01-.06-.01-.06-.01-.05-.01-.05v-.04l-.01-.04v-.04l-.01-.03v-.02c0-.89.71-1.35 1.44-1.35.61 0 1.5.39 1.84 1.39.11.21 1.8 6.99 2 7.88.39 1.64 1.3 5.12 1.6 6.48.2.64 1.59 2.99 2.78 4.08.41.34 1.84 1.64 4 1.64 1.28 0 2.03-.59 2.08-.59-1.49-.25-2.58-1.46-2.58-2.74 0-.79.55-1.75 1.89-1.75s2.73 1.14 2.73 2.94c0 1.75-1.59 3.23-4.12 3.23-3.25 0-5.44-2.43-6.39-3.82-.39 2.23-2.19 3.82-4.53 3.82-2.28 0-3.24-1.93-3.69-2.82-.89-1.71-1.55-4.69-1.55-4.85 0-.5.5-.5.61-.5.5 0 .55.07.85 1.16.84 3.53 1.84 5.92 3.64 5.92.84 0 1.54-.39 1.54-2.28 0-1.05-.15-1.61-.79-4.19z"/><path d="m508.17 434.95-.04.08-.03.07-.04.07-.04.07-.03.06-.03.06-.04.06-.03.05-.04.05-.03.05-.04.04-.03.04-.03.04-.04.04-.03.03-.03.03-.04.03-.03.02-.04.03-.03.02-.04.02-.03.01-.04.02-.03.01-.04.01-.04.01-.04.01-.03.01h-.04-.04l-.04.01h-.04c-.66 0-.8-.36-1.1-1.05l-12.4-27.86c-.3-.64-.36-.73-.36-.98 0-.55.45-1 1-1 .34 0 .75.09 1.14 1.04l11.72 26.41 11.7-26.41c.45-1.04.95-1.04 1.14-1.04.56 0 1 .45 1 1 0 .09 0 .18-.3.79z"/><path d="m561.94 435.84-.07-.06-.07-.07-.08-.07-.08-.07-.08-.08-.09-.08-.09-.09-.09-.08-.1-.09-.1-.1-.19-.19-.2-.19-.19-.21-.09-.1-.09-.1-.09-.1-.08-.11-.08-.1-.08-.1-.07-.1-.06-.1-.06-.1-.05-.1-.05-.1-.04-.09-.03-.09-.02-.1-.02-.08v-.09c0-.5.5-1 1-1 .45 0 .7.36.95.66.6.75 1.73 2.14 3.94 3.23.34.21.84.46.84 1.05 0 .5-.34.75-.7 1-1.1.75-1.64 1.64-2.05 2.83-.09.45-.3 1.11-.98 1.11-.7 0-1-.66-1-1.05 0-.25.39-1.84 1.18-2.89h-16.78c-.84 0-1.75 0-1.75-1s.91-1 1.75-1z"/><path d="m536.95 400.12-.04-.15-.04-.15-.03-.14-.03-.13-.04-.13-.03-.11-.03-.12-.04-.1-.04-.1-.04-.09-.04-.09-.05-.08-.05-.07-.05-.07-.06-.07-.06-.06-.07-.05-.07-.05-.08-.04-.09-.04-.09-.04-.1-.03-.11-.03-.12-.02-.12-.02-.07-.01-.07-.01-.07-.01-.07-.01h-.08l-.08-.01h-.08l-.09-.01h-.08-.09-.1-.09l-.1-.01h-.1c-.6 0-1.14 0-1.14-.93 0-.41.25-.61.64-.61 1.36 0 2.79.15 4.19.15 1.64 0 3.34-.15 4.93-.15.25 0 .89 0 .89 1 0 .54-.5.54-1.18.54-2.5 0-2.5.36-2.5.8 0 .61 2.09 8.72 2.45 9.97.64-1.44 2.03-3.19 4.58-3.19l-.05 1.1c-3.3 0-3.94 4.14-3.94 4.43 0 .1 0 .21.14.8l2.46 9.77c.34 1.34 1.68 2.73 2.57 3.48 1.75 1.55 3.21 1.89 4.05 1.89 1.99 0 3.19-1.73 3.19-4.69 0-2.93-1.64-8.65-2.55-10.56-1.69-3.48-4.08-5.12-5.92-5.12l.05-1.1c5.78 0 12 7.27 12 14.6 0 4.68-2.83 7.96-6.63 7.96-2.48 0-4.87-1.78-6.51-3.73-.5 2.69-2.64 3.73-4.49 3.73-2.29 0-3.25-1.93-3.69-2.82-.9-1.71-1.54-4.69-1.54-4.85 0-.5.5-.5.59-.5.5 0 .55.07.85 1.16.85 3.53 1.84 5.92 3.64 5.92.84 0 1.54-.39 1.54-2.28 0-1.16-.15-1.7-.34-2.55z"/></g></g><path d="m104.04128 137.63306c-1.05276 3.58765-2.90247 6.86541-6.527034 7.78495s-7.430842-.58379-9.448834-3.73192-1.794746-7.23444.554194-10.14399 6.296337-3.98928 9.799153-2.68035" fill="none" marker-start="url(#a)" stroke="#000" stroke-linecap="round" stroke-width=".565"/><circle cx="116.41218" cy="149.41225" r="1.336348"/></g></svg>