<svg height="63.241028mm" viewBox="0 0 282.59418 63.241028" width="282.59421mm" xmlns="http://www.w3.org/2000/svg" xmlns:xlink="http://www.w3.org/1999/xlink"><marker id="a" orient="auto" overflow="visible" refX="0" refY="0"><path d="m0 0 5-5-17.5 5 17.5 5z" fill-rule="evenodd" stroke="#000" stroke-width="1pt" transform="matrix(-.4 0 0 -.4 -4 0)"/></marker><marker id="b" orient="auto" overflow="visible" refX="0" refY="0"><path d="m0 0 5-5-17.5 5 17.5 5z" fill-rule="evenodd" stroke="#000" stroke-width="1pt" transform="matrix(-.4 0 0 -.4 -4 0)"/></marker><g transform="translate(-22.584336 -72.786049)"><g stroke="#000" stroke-linecap="round" stroke-width=".235"><path d="m22.719921 72.903549h8v8h-8z" fill="#ffd5d5"/><path d="m30.719921 72.903549h8v8h-8z" fill="#ffd5d5"/><path d="m38.719921 72.903549h8v8h-8z" fill="#d5ffd5"/><path d="m46.719925 72.903549h8v8h-8z" fill="#ffd5d5"/><path d="m54.719921 72.903549h8v8h-8z" fill="#d5ffd5"/><path d="m62.719925 72.903549h8v8h-8z" fill="#ffd5d5"/><path d="m70.719925 72.903549h8v8h-8z" fill="#ffd5d5"/><path d="m78.719925 72.903549h8v8h-8z" fill="#fff6d5"/><path d="m86.719925 72.903549h8v8h-8z" fill="#ffd5d5"/><path d="m94.719925 72.903549h8v8h-8z" fill="#d5ffd5"/><path d="m102.71992 72.903549h8v8h-8z" fill="#fff6d5"/><path d="m110.71993 72.903549h8v8h-8z" fill="#ffd5d5"/><path d="m118.71992 72.903549h8v8h-8z" fill="#ffd5d5"/><path d="m126.71993 72.903549h8v8h-8z" fill="#ffd5d5"/><path d="m134.71991 72.903549h8v8h-8z" fill="#d5ffd5"/></g><text font-family="sans-serif" font-size="6.35" letter-spacing="0" stroke-width=".264583" word-spacing="0" x="24.871971" y="79.270844"><tspan stroke-width=".264583" x="24.871971" y="79.270844">a</tspan></text><text font-family="sans-serif" font-size="6.35" letter-spacing="0" stroke-width=".264583" word-spacing="0" x="32.862106" y="79.270844"><tspan stroke-width=".264583" x="32.862106" y="79.270844">a</tspan></text><text font-family="sans-serif" font-size="6.35" letter-spacing="0" stroke-width=".264583" word-spacing="0" x="40.976265" y="79.270844"><tspan stroke-width=".264583" x="40.976265" y="79.270844">c</tspan></text><text font-family="sans-serif" font-size="6.35" letter-spacing="0" stroke-width=".264583" word-spacing="0" x="48.842384" y="79.270844"><tspan stroke-width=".264583" x="48.842384" y="79.270844">a</tspan></text><text font-family="sans-serif" font-size="6.35" letter-spacing="0" stroke-width=".264583" word-spacing="0" x="56.832523" y="79.270844"><tspan stroke-width=".264583" x="56.832523" y="79.270844">c</tspan></text><text font-family="sans-serif" font-size="6.35" letter-spacing="0" stroke-width=".264583" word-spacing="0" x="64.946678" y="79.270844"><tspan stroke-width=".264583" x="64.946678" y="79.270844">a</tspan></text><text font-family="sans-serif" font-size="6.35" letter-spacing="0" stroke-width=".264583" word-spacing="0" x="72.81279" y="79.270844"><tspan stroke-width=".264583" x="72.81279" y="79.270844">a</tspan></text><text font-family="sans-serif" font-size="6.35" letter-spacing="0" stroke-width=".264583" word-spacing="0" x="80.52076" y="79.270844"><tspan stroke-width=".264583" x="80.52076" y="79.270844">b</tspan></text><text font-family="sans-serif" font-size="6.35" letter-spacing="0" stroke-width=".264583" word-spacing="0" x="88.917084" y="79.270844"><tspan stroke-width=".264583" x="88.917084" y="79.270844">a</tspan></text><text font-family="sans-serif" font-size="6.35" letter-spacing="0" stroke-width=".264583" word-spacing="0" x="96.783203" y="79.270844"><tspan stroke-width=".264583" x="96.783203" y="79.270844">c</tspan></text><text font-family="sans-serif" font-size="6.35" letter-spacing="0" stroke-width=".264583" word-spacing="0" x="104.49119" y="79.270844"><tspan stroke-width=".264583" x="104.49119" y="79.270844">b</tspan></text><text font-family="sans-serif" font-size="6.35" letter-spacing="0" stroke-width=".264583" word-spacing="0" x="112.76347" y="79.270844"><tspan stroke-width=".264583" x="112.76347" y="79.270844">a</tspan></text><text font-family="sans-serif" font-size="6.35" letter-spacing="0" stroke-width=".264583" word-spacing="0" x="120.75361" y="79.270844"><tspan stroke-width=".264583" x="120.75361" y="79.270844">a</tspan></text><text font-family="sans-serif" font-size="6.35" letter-spacing="0" stroke-width=".264583" word-spacing="0" x="128.74376" y="79.270844"><tspan stroke-width=".264583" x="128.74376" y="79.270844">a</tspan></text><text font-family="sans-serif" font-size="6.35" letter-spacing="0" stroke-width=".264583" word-spacing="0" x="136.85789" y="79.270844"><tspan stroke-width=".264583" x="136.85789" y="79.270844">c</tspan></text><path d="m22.719921 94.534294h8v8h-8z" fill="#ffd5d5" stroke="#000" stroke-linecap="round" stroke-width=".235"/><path d="m30.719921 94.534294h8v8h-8z" fill="#fff" stroke="#000" stroke-linecap="round" stroke-width=".235"/><path d="m38.719921 94.534294h8v8h-8z" fill="#d5ffd5" stroke="#000" stroke-linecap="round" stroke-width=".235"/><path d="m46.719925 94.534294h8v8h-8z" fill="#fff" stroke="#000" stroke-linecap="round" stroke-width=".235"/><path d="m54.719921 94.534294h8v8h-8z" fill="#ffd5d5" stroke="#000" stroke-linecap="round" stroke-width=".235"/><path d="m62.719925 94.534294h8v8h-8z" fill="#fff" stroke="#000" stroke-linecap="round" stroke-width=".235"/><path d="m70.719925 94.534294h8v8h-8z" fill="#d5ffd5" stroke="#000" stroke-linecap="round" stroke-width=".235"/><path d="m78.719925 94.534294h8v8h-8z" fill="#fff" stroke="#000" stroke-linecap="round" stroke-width=".235"/><path d="m86.719925 94.534294h8v8h-8z" fill="#ffd5d5" stroke="#000" stroke-linecap="round" stroke-width=".235"/><path d="m94.719925 94.534294h8v8h-8z" fill="#fff" stroke="#000" stroke-linecap="round" stroke-width=".235"/><path d="m102.71992 94.534294h8v8h-8z" fill="#fff6d5" stroke="#000" stroke-linecap="round" stroke-width=".235"/><path d="m110.71993 94.534294h8v8h-8z" fill="#fff" stroke="#000" stroke-linecap="round" stroke-width=".235"/><path d="m118.71992 94.534294h8v8h-8z" fill="#ffd5d5" stroke="#000" stroke-linecap="round" stroke-width=".235"/><path d="m126.71993 94.534294h8v8h-8z" fill="#fff" stroke="#000" stroke-linecap="round" stroke-width=".235"/><text font-family="sans-serif" font-size="6.35" letter-spacing="0" stroke-width=".264583" word-spacing="0" x="24.871971" y="100.90159"><tspan stroke-width=".264583" x="24.871971" y="100.90159">a</tspan></text><text font-family="sans-serif" font-size="6.35" letter-spacing="0" stroke-width=".264583" word-spacing="0" x="32.862106" y="100.90159"><tspan stroke-width=".264583" x="32.862106" y="100.90159">2</tspan></text><text font-family="sans-serif" font-size="6.35" letter-spacing="0" stroke-width=".264583" word-spacing="0" x="40.976265" y="100.90159"><tspan stroke-width=".264583" x="40.976265" y="100.90159">c</tspan></text><text font-family="sans-serif" font-size="6.35" letter-spacing="0" stroke-width=".264583" word-spacing="0" x="48.842384" y="100.90159"><tspan stroke-width=".264583" x="48.842384" y="100.90159">1</tspan></text><text font-family="sans-serif" font-size="6.35" letter-spacing="0" stroke-width=".264583" word-spacing="0" x="56.832523" y="100.90159"><tspan stroke-width=".264583" x="56.832523" y="100.90159">a</tspan></text><text font-family="sans-serif" font-size="6.35" letter-spacing="0" stroke-width=".264583" word-spacing="0" x="64.946678" y="100.90159"><tspan stroke-width=".264583" x="64.946678" y="100.90159">1</tspan></text><text font-family="sans-serif" font-size="6.35" letter-spacing="0" stroke-width=".264583" word-spacing="0" x="72.81279" y="100.90159"><tspan stroke-width=".264583" x="72.81279" y="100.90159">c</tspan></text><text font-family="sans-serif" font-size="6.35" letter-spacing="0" stroke-width=".264583" word-spacing="0" x="80.52076" y="100.90159"><tspan stroke-width=".264583" x="80.52076" y="100.90159">1</tspan></text><text font-family="sans-serif" font-size="6.35" letter-spacing="0" stroke-width=".264583" word-spacing="0" x="88.917084" y="100.90159"><tspan stroke-width=".264583" x="88.917084" y="100.90159">a</tspan></text><text font-family="sans-serif" font-size="6.35" letter-spacing="0" stroke-width=".264583" word-spacing="0" x="96.783203" y="100.90159"><tspan stroke-width=".264583" x="96.783203" y="100.90159">2</tspan></text><text font-family="sans-serif" font-size="6.35" letter-spacing="0" stroke-width=".264583" word-spacing="0" x="104.49119" y="100.90159"><tspan stroke-width=".264583" x="104.49119" y="100.90159">b</tspan></text><text font-family="sans-serif" font-size="6.35" letter-spacing="0" stroke-width=".264583" word-spacing="0" x="112.76347" y="100.90159"><tspan stroke-width=".264583" x="112.76347" y="100.90159">1</tspan></text><text font-family="sans-serif" font-size="6.35" letter-spacing="0" stroke-width=".264583" word-spacing="0" x="120.75361" y="100.90159"><tspan stroke-width=".264583" x="120.75361" y="100.90159">a</tspan></text><text font-family="sans-serif" font-size="6.35" letter-spacing="0" stroke-width=".264583" word-spacing="0" x="128.74376" y="100.90159"><tspan stroke-width=".264583" x="128.74376" y="100.90159">1</tspan></text><text font-family="sans-serif" font-size="6.35" letter-spacing="0" stroke-width=".264583" word-spacing="0" x="135.73578" y="100.90159"><tspan stroke-width=".264583" x="135.73578" y="100.90159">…</tspan></text><path d="m82.738063 83.146492v8.552624" fill="none" marker-end="url(#b)" stroke="#000" stroke-width=".465"/><g transform="translate(0 7.750816)"><path d="m22.719921 112.19217h63.982693v7.982046h-63.982693z" fill="#ffd5d5" stroke="#000" stroke-linecap="round" stroke-width=".235"/><text font-family="sans-serif" font-size="6.35" letter-spacing="0" stroke-width=".264583" word-spacing="0" x="52.935272" y="118.55946"><tspan stroke-width=".264583" x="52.935272" y="118.55946">a</tspan></text><path d="m22.701836 120.15876h8v8h-8z" fill="#e6e6e6" stroke="#000" stroke-linecap="round" stroke-width=".235"/><text font-family="sans-serif" font-size="6.35" letter-spacing="0" stroke-width=".264583" word-spacing="0" x="24.844021" y="126.52605"><tspan stroke-width=".264583" x="24.844021" y="126.52605">1</tspan></text><path d="m30.701836 120.15876h8v8h-8z" fill="#e6e6e6" stroke="#000" stroke-linecap="round" stroke-width=".235"/><text font-family="sans-serif" font-size="6.35" letter-spacing="0" stroke-width=".264583" word-spacing="0" x="32.844021" y="126.52605"><tspan stroke-width=".264583" x="32.844021" y="126.52605">2</tspan></text><path d="m38.701836 120.15876h8v8h-8z" fill="#e6e6e6" stroke="#000" stroke-linecap="round" stroke-width=".235"/><text font-family="sans-serif" font-size="6.35" letter-spacing="0" stroke-width=".264583" word-spacing="0" x="40.844021" y="126.52605"><tspan stroke-width=".264583" x="40.844021" y="126.52605">3</tspan></text><path d="m46.701836 120.15876h8v8h-8z" fill="#e6e6e6" stroke="#000" stroke-linecap="round" stroke-width=".235"/><text font-family="sans-serif" font-size="6.35" letter-spacing="0" stroke-width=".264583" word-spacing="0" x="48.844021" y="126.52605"><tspan stroke-width=".264583" x="48.844021" y="126.52605">4</tspan></text><path d="m54.701836 120.15876h8v8h-8z" fill="#e6e6e6" stroke="#000" stroke-linecap="round" stroke-width=".235"/><text font-family="sans-serif" font-size="6.35" letter-spacing="0" stroke-width=".264583" word-spacing="0" x="56.844021" y="126.52605"><tspan stroke-width=".264583" x="56.844021" y="126.52605">5</tspan></text><path d="m62.701836 120.15876h8v8h-8z" fill="#e6e6e6" stroke="#000" stroke-linecap="round" stroke-width=".235"/><text font-family="sans-serif" font-size="6.35" letter-spacing="0" stroke-width=".264583" word-spacing="0" x="64.844025" y="126.52605"><tspan stroke-width=".264583" x="64.844025" y="126.52605">6</tspan></text><path d="m70.701836 120.15876h8v8h-8z" fill="#e6e6e6" stroke="#000" stroke-linecap="round" stroke-width=".235"/><text font-family="sans-serif" font-size="6.35" letter-spacing="0" stroke-width=".264583" word-spacing="0" x="72.844025" y="126.52605"><tspan stroke-width=".264583" x="72.844025" y="126.52605">7</tspan></text><path d="m78.701836 120.15876h8v8h-8z" fill="#e6e6e6" stroke="#000" stroke-linecap="round" stroke-width=".235"/><text font-family="sans-serif" font-size="6.35" letter-spacing="0" stroke-width=".264583" word-spacing="0" x="80.844025" y="126.52605"><tspan stroke-width=".264583" x="80.844025" y="126.52605">8</tspan></text></g><g transform="translate(2.868018 7.750816)"><path d="m92.613525 112.18319h23.969494v8h-23.969494z" fill="#fff" stroke="#000" stroke-linecap="round" stroke-width=".235"/><text font-family="sans-serif" font-size="6.35" letter-spacing="0" stroke-width=".264583" word-spacing="0" x="102.66351" y="118.55048"><tspan stroke-width=".264583" x="102.66351" y="118.55048">2</tspan></text><g transform="translate(69.925595)"><path d="m22.701836 120.15876h8v8h-8z" fill="#e6e6e6" stroke="#000" stroke-linecap="round" stroke-width=".235"/><text font-family="sans-serif" font-size="6.35" letter-spacing="0" stroke-width=".264583" word-spacing="0" x="24.844021" y="126.52605"><tspan stroke-width=".264583" x="24.844021" y="126.52605">1</tspan></text><path d="m30.701836 120.15876h8v8h-8z" fill="#e6e6e6" stroke="#000" stroke-linecap="round" stroke-width=".235"/><text font-family="sans-serif" font-size="6.35" letter-spacing="0" stroke-width=".264583" word-spacing="0" x="32.844021" y="126.52605"><tspan stroke-width=".264583" x="32.844021" y="126.52605">2</tspan></text><path d="m38.701836 120.15876h8v8h-8z" fill="#e6e6e6" stroke="#000" stroke-linecap="round" stroke-width=".235"/><text font-family="sans-serif" font-size="6.35" letter-spacing="0" stroke-width=".264583" word-spacing="0" x="40.844021" y="126.52605"><tspan stroke-width=".264583" x="40.844021" y="126.52605">3</tspan></text><path d="m46.701836 120.15876h8v8h-8z" fill="#e6e6e6" stroke="#000" stroke-linecap="round" stroke-width=".235"/><text font-family="sans-serif" font-size="6.35" letter-spacing="0" stroke-width=".264583" word-spacing="0" x="48.844021" y="126.52605"><tspan stroke-width=".264583" x="48.844021" y="126.52605">4</tspan></text><path d="m54.701836 120.15876h8v8h-8z" fill="#e6e6e6" stroke="#000" stroke-linecap="round" stroke-width=".235"/><text font-family="sans-serif" font-size="6.35" letter-spacing="0" stroke-width=".264583" word-spacing="0" x="56.844021" y="126.52605"><tspan stroke-width=".264583" x="56.844021" y="126.52605">5</tspan></text><path d="m62.701836 120.15876h8v8h-8z" fill="#e6e6e6" stroke="#000" stroke-linecap="round" stroke-width=".235"/><text font-family="sans-serif" font-size="6.35" letter-spacing="0" stroke-width=".264583" word-spacing="0" x="64.844025" y="126.52605"><tspan stroke-width=".264583" x="64.844025" y="126.52605">6</tspan></text><path d="m70.701836 120.15876h8v8h-8z" fill="#e6e6e6" stroke="#000" stroke-linecap="round" stroke-width=".235"/><text font-family="sans-serif" font-size="6.35" letter-spacing="0" stroke-width=".264583" word-spacing="0" x="72.844025" y="126.52605"><tspan stroke-width=".264583" x="72.844025" y="126.52605">7</tspan></text><path d="m78.701836 120.15876h8v8h-8z" fill="#e6e6e6" stroke="#000" stroke-linecap="round" stroke-width=".235"/><text font-family="sans-serif" font-size="6.35" letter-spacing="0" stroke-width=".264583" word-spacing="0" x="80.844025" y="126.52605"><tspan stroke-width=".264583" x="80.844025" y="126.52605">8</tspan></text></g><path d="m116.58302 112.18319h40.033474v8h-40.033474z" fill="#d5ffd5" stroke="#000" stroke-linecap="round" stroke-width=".235"/><text font-family="sans-serif" font-size="6.35" letter-spacing="0" stroke-width=".264583" word-spacing="0" x="134.87584" y="118.55048"><tspan stroke-width=".264583" x="134.87584" y="118.55048">c</tspan></text></g><path d="m241.07912 119.94299h48.013329v7.982048h-48.013329z" fill="#ffd5d5" stroke="#000" stroke-linecap="round" stroke-width=".235"/><text font-family="sans-serif" font-size="6.35" letter-spacing="0" stroke-width=".264583" word-spacing="0" x="263.23782" y="126.31028"><tspan stroke-width=".264583" x="263.23782" y="126.31028">a</tspan></text><g transform="translate(218.3592 7.750816)"><path d="m22.701836 120.15876h8v8h-8z" fill="#e6e6e6" stroke="#000" stroke-linecap="round" stroke-width=".235"/><text font-family="sans-serif" font-size="6.35" letter-spacing="0" stroke-width=".264583" word-spacing="0" x="24.844021" y="126.52605"><tspan stroke-width=".264583" x="24.844021" y="126.52605">1</tspan></text><path d="m30.701836 120.15876h8v8h-8z" fill="#e6e6e6" stroke="#000" stroke-linecap="round" stroke-width=".235"/><text font-family="sans-serif" font-size="6.35" letter-spacing="0" stroke-width=".264583" word-spacing="0" x="32.844021" y="126.52605"><tspan stroke-width=".264583" x="32.844021" y="126.52605">2</tspan></text><path d="m38.701836 120.15876h8v8h-8z" fill="#e6e6e6" stroke="#000" stroke-linecap="round" stroke-width=".235"/><text font-family="sans-serif" font-size="6.35" letter-spacing="0" stroke-width=".264583" word-spacing="0" x="40.844021" y="126.52605"><tspan stroke-width=".264583" x="40.844021" y="126.52605">3</tspan></text><path d="m46.701836 120.15876h8v8h-8z" fill="#e6e6e6" stroke="#000" stroke-linecap="round" stroke-width=".235"/><text font-family="sans-serif" font-size="6.35" letter-spacing="0" stroke-width=".264583" word-spacing="0" x="48.844021" y="126.52605"><tspan stroke-width=".264583" x="48.844021" y="126.52605">4</tspan></text><path d="m54.701836 120.15876h8v8h-8z" fill="#e6e6e6" stroke="#000" stroke-linecap="round" stroke-width=".235"/><text font-family="sans-serif" font-size="6.35" letter-spacing="0" stroke-width=".264583" word-spacing="0" x="56.844021" y="126.52605"><tspan stroke-width=".264583" x="56.844021" y="126.52605">5</tspan></text><path d="m62.701836 120.15876h8v8h-8z" fill="#e6e6e6" stroke="#000" stroke-linecap="round" stroke-width=".235"/><text font-family="sans-serif" font-size="6.35" letter-spacing="0" stroke-width=".264583" word-spacing="0" x="64.844025" y="126.52605"><tspan stroke-width=".264583" x="64.844025" y="126.52605">6</tspan></text><path d="m70.701836 120.15876h8v8h-8z" fill="#e6e6e6" stroke="#000" stroke-linecap="round" stroke-width=".235"/><text font-family="sans-serif" font-size="6.35" letter-spacing="0" stroke-width=".264583" word-spacing="0" x="72.844025" y="126.52605"><tspan stroke-width=".264583" x="72.844025" y="126.52605">7</tspan></text><path d="m78.701836 120.15876h8v8h-8z" fill="#e6e6e6" stroke="#000" stroke-linecap="round" stroke-width=".235"/><text font-family="sans-serif" font-size="6.35" letter-spacing="0" stroke-width=".264583" word-spacing="0" x="80.844025" y="126.52605"><tspan stroke-width=".264583" x="80.844025" y="126.52605">8</tspan></text></g><g transform="translate(1.880958 7.750816)"><path d="m190.39877 112.18319h23.969494v8h-23.969494z" fill="#fff" stroke="#000" stroke-linecap="round" stroke-width=".235"/><text font-family="sans-serif" font-size="6.35" letter-spacing="0" stroke-width=".264583" word-spacing="0" x="200.44876" y="118.55048"><tspan stroke-width=".264583" x="200.44876" y="118.55048">1</tspan></text><g transform="translate(143.69198)"><path d="m22.701836 120.15876h8v8h-8z" fill="#e6e6e6" stroke="#000" stroke-linecap="round" stroke-width=".235"/><text font-family="sans-serif" font-size="6.35" letter-spacing="0" stroke-width=".264583" word-spacing="0" x="24.844021" y="126.52605"><tspan stroke-width=".264583" x="24.844021" y="126.52605">1</tspan></text><path d="m30.701836 120.15876h8v8h-8z" fill="#e6e6e6" stroke="#000" stroke-linecap="round" stroke-width=".235"/><text font-family="sans-serif" font-size="6.35" letter-spacing="0" stroke-width=".264583" word-spacing="0" x="32.844021" y="126.52605"><tspan stroke-width=".264583" x="32.844021" y="126.52605">2</tspan></text><path d="m38.701836 120.15876h8v8h-8z" fill="#e6e6e6" stroke="#000" stroke-linecap="round" stroke-width=".235"/><text font-family="sans-serif" font-size="6.35" letter-spacing="0" stroke-width=".264583" word-spacing="0" x="40.844021" y="126.52605"><tspan stroke-width=".264583" x="40.844021" y="126.52605">3</tspan></text><path d="m46.701836 120.15876h8v8h-8z" fill="#e6e6e6" stroke="#000" stroke-linecap="round" stroke-width=".235"/><text font-family="sans-serif" font-size="6.35" letter-spacing="0" stroke-width=".264583" word-spacing="0" x="48.844021" y="126.52605"><tspan stroke-width=".264583" x="48.844021" y="126.52605">4</tspan></text><path d="m54.701836 120.15876h8v8h-8z" fill="#e6e6e6" stroke="#000" stroke-linecap="round" stroke-width=".235"/><text font-family="sans-serif" font-size="6.35" letter-spacing="0" stroke-width=".264583" word-spacing="0" x="56.844021" y="126.52605"><tspan stroke-width=".264583" x="56.844021" y="126.52605">5</tspan></text><path d="m62.701836 120.15876h8v8h-8z" fill="#e6e6e6" stroke="#000" stroke-linecap="round" stroke-width=".235"/><text font-family="sans-serif" font-size="6.35" letter-spacing="0" stroke-width=".264583" word-spacing="0" x="64.844025" y="126.52605"><tspan stroke-width=".264583" x="64.844025" y="126.52605">6</tspan></text><path d="m70.701836 120.15876h8v8h-8z" fill="#e6e6e6" stroke="#000" stroke-linecap="round" stroke-width=".235"/><text font-family="sans-serif" font-size="6.35" letter-spacing="0" stroke-width=".264583" word-spacing="0" x="72.844025" y="126.52605"><tspan stroke-width=".264583" x="72.844025" y="126.52605">7</tspan></text><path d="m78.701836 120.15876h8v8h-8z" fill="#e6e6e6" stroke="#000" stroke-linecap="round" stroke-width=".235"/><text font-family="sans-serif" font-size="6.35" letter-spacing="0" stroke-width=".264583" word-spacing="0" x="80.844025" y="126.52605"><tspan stroke-width=".264583" x="80.844025" y="126.52605">8</tspan></text></g><path d="m166.42879 112.18319h23.969978v8h-23.969978z" fill="#d5ffd5" stroke="#000" stroke-linecap="round" stroke-width=".235"/><text font-family="sans-serif" font-size="6.35" letter-spacing="0" stroke-width=".264583" word-spacing="0" x="176.68985" y="118.55048"><tspan stroke-width=".264583" x="176.68985" y="118.55048">c</tspan></text><path d="m214.36684 112.19217h16.016499v7.982048h-16.016499z" fill="#ffd5d5" stroke="#000" stroke-linecap="round" stroke-width=".235"/><text font-family="sans-serif" font-size="6.35" letter-spacing="0" stroke-width=".264583" word-spacing="0" x="220.52713" y="118.55946"><tspan stroke-width=".264583" x="220.52713" y="118.55946">a</tspan></text></g><path d="m82.738063 106.13167v8.55263" fill="none" marker-end="url(#a)" stroke="#000" stroke-width=".465"/><text font-family="sans-serif" font-size="6.35" letter-spacing="0" stroke-width=".264583" word-spacing="0" x="293.69208" y="126.31028"><tspan stroke-width=".264583" x="293.69208" y="126.31028">…</tspan></text></g></svg>