<svg height="29.865746mm" viewBox="0 0 120.23498 29.865746" width="120.23499mm" xmlns="http://www.w3.org/2000/svg" xmlns:xlink="http://www.w3.org/1999/xlink"><marker id="a" orient="auto" overflow="visible" refX="0.0" refY="0.0"><path d="m0 0 5-5-17.5 5 17.5 5z" fill-rule="evenodd" stroke="#000" stroke-width="1pt" transform="matrix(-.4 0 0 -.4 -4 0)"/></marker><g transform="translate(-22.602421 -72.786049)"><g stroke="#000"><path d="m22.719921 72.903549h8v8h-8z" fill="#ffd5d5" stroke-linecap="round" stroke-width=".235"/><path d="m30.719921 72.903549h8v8h-8z" fill="#ffd5d5" stroke-linecap="round" stroke-width=".235"/><path d="m38.719921 72.903549h8v8h-8z" fill="#d5ffd5" stroke-linecap="round" stroke-width=".235"/><path d="m46.719925 72.903549h8v8h-8z" fill="#ffd5d5" stroke-linecap="round" stroke-width=".235"/><path d="m54.719921 72.903549h8v8h-8z" fill="#d5ffd5" stroke-linecap="round" stroke-width=".235"/><path d="m62.719925 72.903549h8v8h-8z" fill="#ffd5d5" stroke-linecap="round" stroke-width=".235"/><path d="m70.719925 72.903549h8v8h-8z" fill="#ffd5d5" stroke-linecap="round" stroke-width=".235"/><path d="m78.719925 72.903549h8v8h-8z" fill="#fff6d5" stroke-linecap="round" stroke-width=".235"/><path d="m86.719925 72.903549h8v8h-8z" fill="#ffd5d5" stroke-linecap="round" stroke-width=".235"/><path d="m94.719925 72.903549h8v8h-8z" fill="#d5ffd5" stroke-linecap="round" stroke-width=".235"/><path d="m102.71992 72.903549h8v8h-8z" fill="#fff6d5" stroke-linecap="round" stroke-width=".235"/><path d="m110.71993 72.903549h8v8h-8z" fill="#ffd5d5" stroke-linecap="round" stroke-width=".235"/><path d="m118.71992 72.903549h8v8h-8z" fill="#ffd5d5" stroke-linecap="round" stroke-width=".235"/><path d="m126.71993 72.903549h8v8h-8z" fill="#ffd5d5" stroke-linecap="round" stroke-width=".235"/><path d="m134.71991 72.903549h8v8h-8z" fill="#d5ffd5" stroke-linecap="round" stroke-width=".235"/></g><text font-family="sans-serif" font-size="6.35" letter-spacing="0" stroke-width=".264583" word-spacing="0" x="24.871971" y="79.270844"><tspan stroke-width=".264583" x="24.871971" y="79.270844">a</tspan></text><text font-family="sans-serif" font-size="6.35" letter-spacing="0" stroke-width=".264583" word-spacing="0" x="32.862106" y="79.270844"><tspan stroke-width=".264583" x="32.862106" y="79.270844">a</tspan></text><text font-family="sans-serif" font-size="6.35" letter-spacing="0" stroke-width=".264583" word-spacing="0" x="40.976265" y="79.270844"><tspan stroke-width=".264583" x="40.976265" y="79.270844">c</tspan></text><text font-family="sans-serif" font-size="6.35" letter-spacing="0" stroke-width=".264583" word-spacing="0" x="48.842384" y="79.270844"><tspan stroke-width=".264583" x="48.842384" y="79.270844">a</tspan></text><text font-family="sans-serif" font-size="6.35" letter-spacing="0" stroke-width=".264583" word-spacing="0" x="56.832523" y="79.270844"><tspan stroke-width=".264583" x="56.832523" y="79.270844">c</tspan></text><text font-family="sans-serif" font-size="6.35" letter-spacing="0" stroke-width=".264583" word-spacing="0" x="64.946678" y="79.270844"><tspan stroke-width=".264583" x="64.946678" y="79.270844">a</tspan></text><text font-family="sans-serif" font-size="6.35" letter-spacing="0" stroke-width=".264583" word-spacing="0" x="72.81279" y="79.270844"><tspan stroke-width=".264583" x="72.81279" y="79.270844">a</tspan></text><text font-family="sans-serif" font-size="6.35" letter-spacing="0" stroke-width=".264583" word-spacing="0" x="80.52076" y="79.270844"><tspan stroke-width=".264583" x="80.52076" y="79.270844">b</tspan></text><text font-family="sans-serif" font-size="6.35" letter-spacing="0" stroke-width=".264583" word-spacing="0" x="88.917084" y="79.270844"><tspan stroke-width=".264583" x="88.917084" y="79.270844">a</tspan></text><text font-family="sans-serif" font-size="6.35" letter-spacing="0" stroke-width=".264583" word-spacing="0" x="96.783203" y="79.270844"><tspan stroke-width=".264583" x="96.783203" y="79.270844">c</tspan></text><text font-family="sans-serif" font-size="6.35" letter-spacing="0" stroke-width=".264583" word-spacing="0" x="104.49119" y="79.270844"><tspan stroke-width=".264583" x="104.49119" y="79.270844">b</tspan></text><text font-family="sans-serif" font-size="6.35" letter-spacing="0" stroke-width=".264583" word-spacing="0" x="112.76347" y="79.270844"><tspan stroke-width=".264583" x="112.76347" y="79.270844">a</tspan></text><text font-family="sans-serif" font-size="6.35" letter-spacing="0" stroke-width=".264583" word-spacing="0" x="120.75361" y="79.270844"><tspan stroke-width=".264583" x="120.75361" y="79.270844">a</tspan></text><text font-family="sans-serif" font-size="6.35" letter-spacing="0" stroke-width=".264583" word-spacing="0" x="128.74376" y="79.270844"><tspan stroke-width=".264583" x="128.74376" y="79.270844">a</tspan></text><text font-family="sans-serif" font-size="6.35" letter-spacing="0" stroke-width=".264583" word-spacing="0" x="136.85789" y="79.270844"><tspan stroke-width=".264583" x="136.85789" y="79.270844">c</tspan></text><path d="m22.719921 94.534294h8v8h-8z" fill="#ffd5d5" stroke="#000" stroke-linecap="round" stroke-width=".235"/><path d="m30.719921 94.534294h8v8h-8z" fill="#fff" stroke="#000" stroke-linecap="round" stroke-width=".235"/><path d="m38.719921 94.534294h8v8h-8z" fill="#d5ffd5" stroke="#000" stroke-linecap="round" stroke-width=".235"/><path d="m46.719925 94.534294h8v8h-8z" fill="#fff" stroke="#000" stroke-linecap="round" stroke-width=".235"/><path d="m54.719921 94.534294h8v8h-8z" fill="#ffd5d5" stroke="#000" stroke-linecap="round" stroke-width=".235"/><path d="m62.719925 94.534294h8v8h-8z" fill="#fff" stroke="#000" stroke-linecap="round" stroke-width=".235"/><path d="m70.719925 94.534294h8v8h-8z" fill="#d5ffd5" stroke="#000" stroke-linecap="round" stroke-width=".235"/><path d="m78.719925 94.534294h8v8h-8z" fill="#fff" stroke="#000" stroke-linecap="round" stroke-width=".235"/><path d="m86.719925 94.534294h8v8h-8z" fill="#ffd5d5" stroke="#000" stroke-linecap="round" stroke-width=".235"/><path d="m94.719925 94.534294h8v8h-8z" fill="#fff" stroke="#000" stroke-linecap="round" stroke-width=".235"/><path d="m102.71992 94.534294h8v8h-8z" fill="#fff6d5" stroke="#000" stroke-linecap="round" stroke-width=".235"/><path d="m110.71993 94.534294h8v8h-8z" fill="#fff" stroke="#000" stroke-linecap="round" stroke-width=".235"/><path d="m118.71992 94.534294h8v8h-8z" fill="#ffd5d5" stroke="#000" stroke-linecap="round" stroke-width=".235"/><path d="m126.71993 94.534294h8v8h-8z" fill="#fff" stroke="#000" stroke-linecap="round" stroke-width=".235"/><text font-family="sans-serif" font-size="6.35" letter-spacing="0" stroke-width=".264583" word-spacing="0" x="24.871971" y="100.90159"><tspan stroke-width=".264583" x="24.871971" y="100.90159">a</tspan></text><text font-family="sans-serif" font-size="6.35" letter-spacing="0" stroke-width=".264583" word-spacing="0" x="32.862106" y="100.90159"><tspan stroke-width=".264583" x="32.862106" y="100.90159">2</tspan></text><text font-family="sans-serif" font-size="6.35" letter-spacing="0" stroke-width=".264583" word-spacing="0" x="40.976265" y="100.90159"><tspan stroke-width=".264583" x="40.976265" y="100.90159">c</tspan></text><text font-family="sans-serif" font-size="6.35" letter-spacing="0" stroke-width=".264583" word-spacing="0" x="48.842384" y="100.90159"><tspan stroke-width=".264583" x="48.842384" y="100.90159">1</tspan></text><text font-family="sans-serif" font-size="6.35" letter-spacing="0" stroke-width=".264583" word-spacing="0" x="56.832523" y="100.90159"><tspan stroke-width=".264583" x="56.832523" y="100.90159">a</tspan></text><text font-family="sans-serif" font-size="6.35" letter-spacing="0" stroke-width=".264583" word-spacing="0" x="64.946678" y="100.90159"><tspan stroke-width=".264583" x="64.946678" y="100.90159">1</tspan></text><text font-family="sans-serif" font-size="6.35" letter-spacing="0" stroke-width=".264583" word-spacing="0" x="72.81279" y="100.90159"><tspan stroke-width=".264583" x="72.81279" y="100.90159">c</tspan></text><text font-family="sans-serif" font-size="6.35" letter-spacing="0" stroke-width=".264583" word-spacing="0" x="80.52076" y="100.90159"><tspan stroke-width=".264583" x="80.52076" y="100.90159">1</tspan></text><text font-family="sans-serif" font-size="6.35" letter-spacing="0" stroke-width=".264583" word-spacing="0" x="88.917084" y="100.90159"><tspan stroke-width=".264583" x="88.917084" y="100.90159">a</tspan></text><text font-family="sans-serif" font-size="6.35" letter-spacing="0" stroke-width=".264583" word-spacing="0" x="96.783203" y="100.90159"><tspan stroke-width=".264583" x="96.783203" y="100.90159">2</tspan></text><text font-family="sans-serif" font-size="6.35" letter-spacing="0" stroke-width=".264583" word-spacing="0" x="104.49119" y="100.90159"><tspan stroke-width=".264583" x="104.49119" y="100.90159">b</tspan></text><text font-family="sans-serif" font-size="6.35" letter-spacing="0" stroke-width=".264583" word-spacing="0" x="112.76347" y="100.90159"><tspan stroke-width=".264583" x="112.76347" y="100.90159">1</tspan></text><text font-family="sans-serif" font-size="6.35" letter-spacing="0" stroke-width=".264583" word-spacing="0" x="120.75361" y="100.90159"><tspan stroke-width=".264583" x="120.75361" y="100.90159">a</tspan></text><text font-family="sans-serif" font-size="6.35" letter-spacing="0" stroke-width=".264583" word-spacing="0" x="128.74376" y="100.90159"><tspan stroke-width=".264583" x="128.74376" y="100.90159">1</tspan></text><text font-family="sans-serif" font-size="6.35" letter-spacing="0" stroke-width=".264583" word-spacing="0" x="135.73578" y="100.90159"><tspan stroke-width=".264583" x="135.73578" y="100.90159">…</tspan></text><path d="m82.738063 83.146492v8.552624" fill="none" marker-end="url(#a)" stroke="#000" stroke-width=".465"/></g></svg>