<svg height="75.469254mm" viewBox="0 0 131.16127 75.469253" width="131.16127mm" xmlns="http://www.w3.org/2000/svg" xmlns:xlink="http://www.w3.org/1999/xlink"><marker id="a" orient="auto" overflow="visible" refX="0" refY="0"><path d="m0 0 5-5-17.5 5 17.5 5z" fill-rule="evenodd" stroke="#000" stroke-width="1pt" transform="matrix(-.4 0 0 -.4 -4 0)"/></marker><marker id="b" orient="auto" overflow="visible" refX="0" refY="0"><path d="m0 0 5-5-17.5 5 17.5 5z" fill-rule="evenodd" stroke="#000" stroke-width="1pt" transform="matrix(-.4 0 0 -.4 -4 0)"/></marker><marker id="c" orient="auto" overflow="visible" refX="0" refY="0"><path d="m0 0 5-5-17.5 5 17.5 5z" fill-rule="evenodd" stroke="#000" stroke-width="1pt" transform="matrix(-.4 0 0 -.4 -4 0)"/></marker><marker id="d" orient="auto" overflow="visible" refX="0" refY="0"><path d="m0 0 5-5-17.5 5 17.5 5z" fill-rule="evenodd" stroke="#000" stroke-width="1pt" transform="matrix(-.4 0 0 -.4 -4 0)"/></marker><marker id="e" orient="auto" overflow="visible" refX="0" refY="0"><path d="m0 0 5-5-17.5 5 17.5 5z" fill-rule="evenodd" stroke="#000" stroke-width="1pt" transform="matrix(-.4 0 0 -.4 -4 0)"/></marker><g transform="translate(-24.917438 -124.98877)"><path d="m34.755783 137.17282h113.32228v54.389347h-113.32228z" fill="#fea" stroke="#000" stroke-linecap="round" stroke-width=".865"/><text font-family="sans-serif" font-size="5.644444" letter-spacing="0" stroke-width=".264583" word-spacing="0" x="27.126629" y="133.16377"><tspan stroke-width=".264583" x="27.126629" y="133.16377">(0, 1)</tspan></text><text font-family="sans-serif" font-size="5.644444" letter-spacing="0" stroke-width=".264583" word-spacing="0" x="140.33051" y="133.16377"><tspan stroke-width=".264583" x="140.33051" y="133.16377">(1, 1)</tspan></text><text font-family="sans-serif" font-size="5.644444" letter-spacing="0" stroke-width=".264583" word-spacing="0" x="27.126629" y="199.71388"><tspan stroke-width=".264583" x="27.126629" y="199.71388">(0, 0)</tspan></text><text font-family="sans-serif" font-size="5.644444" letter-spacing="0" stroke-width=".264583" word-spacing="0" x="140.33051" y="199.71388"><tspan stroke-width=".264583" x="140.33051" y="199.71388">(1, 0)</tspan></text><g stroke="#000"><path d="m57.576309 199.01356h67.159811" fill="none" marker-end="url(#d)" stroke-width=".264583"/><path d="m30.948977 180.7316v-32.20598" fill="none" marker-end="url(#e)" stroke-width=".265"/><circle cx="34.714108" cy="137.07489" r="1.754047" stroke-linecap="round" stroke-width=".491907"/><circle cx="34.714108" cy="191.50346" r="1.754047" stroke-linecap="round" stroke-width=".491907"/><circle cx="147.91798" cy="191.50346" r="1.754047" stroke-linecap="round" stroke-width=".491907"/><circle cx="147.91798" cy="137.26389" r="1.754047" stroke-linecap="round" stroke-width=".491907"/><path d="m91.669466 164.36749h55.228334" fill="none" marker-end="url(#c)" stroke-width=".264583"/><path d="m91.803144 164.47862v-26.43187" fill="none" marker-end="url(#b)" stroke-width=".265"/></g><g fill-rule="evenodd" transform="translate(19.171372 86.862596)"><path d="m87.753754 80.301026-.0075.0065-.0075.0075-.0086.0075-.0086.0075-.0097.0086-.0097.0086-.0097.0097-.0097.0086-.01078.0097-.0097.01078-.02156.02048-.02049.02048-.02048.02264-.01078.01078-.0097.01078-.0086.01078-.0097.01186-.0086.01078-.0075.01078-.0075.01078-.0075.01078-.0065.01078-.0054.01078-.0054.01078-.0043.0097-.0032.0097-.0022.01078-.0011.0086-.0011.0097c0 .05391.05391.107813.107813.107813.04852 0 .07547-.03881.102422-.07116.06469-.08086.187595-.230721.424784-.348237.03773-.02264.09164-.04959.09164-.113204 0-.05391-.03773-.08086-.07655-.107813-.117516-.08086-.176813-.176814-.219939-.305112-.01078-.04852-.03234-.119672-.106735-.119672-.07547 0-.107813.07116-.107813.113204 0 .02695.04205.198376.128298.31158h-1.809106c-.09056 0-.188673 0-.188673.107813s.09811.107813.188673.107813z"/><path d="m85.510161 83.179639-.0011.0075-.0022.0086-.0011.0075-.0022.0086-.0032.01725-.0043.01725-.0043.01725-.0043.01725-.0032.01725-.0043.01725-.0022.0086-.0011.0075-.0022.0075-.0022.0075-.0011.0075-.0011.0075-.0022.0065-.0011.0065-.0011.0065-.0011.0054-.0011.0054v.0043l-.0011.0043v.0043l-.0011.0032v.0022c0 .09595.07655.145548.155251.145548.06577 0 .161719-.04205.198376-.14986.01186-.02264.194064-.753614.215626-.849568.04205-.176814.140158-.552004.172502-.69863.02156-.069.171423-.322361.29972-.439878.04313-.03666.198377-.176814.431253-.176814.138001 0 .218861.06361.224252.06361-.160642.02695-.278158.157408-.278158.295408 0 .08517.0593.188674.203767.188674.144469 0 .29433-.122907.29433-.316971 0-.188673-.171423-.348237-.444191-.348237-.350393 0-.586504.261986-.688926.411847-.04205-.240424-.236111-.411847-.488394-.411847-.246892 0-.349315.20808-.397831.304033-.09595.184361-.16711.505644-.16711.522894 0 .05391.05391.05391.06577.05391.05391 0 .0593-.0075.09056-.125063.09164-.380581.199454-.638255.393518-.638255.09056 0 .166032.04205.166032.245815 0 .113203-.01617.173579-.08517.451737z"/><path d="m92.790787 81.739255h.01402.01617.01509l.0086-.0011h.0075l.0075-.0011.0075-.0011.0075-.0011.0075-.0011.0075-.0011.0075-.0022.0065-.0022.0065-.0022.0065-.0022.0065-.0032.0065-.0032.0054-.0043.0054-.0032.0054-.0054.0043-.0043.0043-.0054.0022-.0032.0022-.0032.0011-.0022.0022-.0032.0011-.0032.0022-.0043.0011-.0032.0011-.0043.0011-.0032.0011-.0043.0011-.0043v-.0043l.0011-.0043v-.0043-.0043-.0054c0-.107814-.102422-.107814-.176813-.107814h-3.217147c-.07547 0-.176813 0-.176813.107814 0 .105657.101344.105657.182204.105657z"/><path d="m92.7951 82.782887h.0075.0065l.01509-.0011h.01509.0075l.0075-.0011.0075-.0011h.0075l.0065-.0011.0075-.0022.0075-.0011.0065-.0022.0075-.0022.0065-.0022.0065-.0022.0065-.0032.0054-.0032.0054-.0043.0054-.0043.0054-.0043.0043-.0054.0022-.0022.0022-.0032.0022-.0022.0022-.0032.0011-.0032.0022-.0032.0011-.0032.0022-.0032.0011-.0043.0011-.0032.0011-.0043.0011-.0043.0011-.0043v-.0043l.0011-.0043v-.0043-.0054-.0043c0-.107813-.102422-.107813-.181126-.107813h-3.207443c-.08086 0-.182204 0-.182204.107813 0 .107814.101344.107814.176813.107814z"/><path d="m96.542687 84.784978v-.0022-.0032-.0011-.0022l-.0011-.0011v-.0022l-.0011-.0011v-.0022l-.0011-.0022-.0011-.0022-.0011-.0022-.0022-.0032-.0011-.0022-.0022-.0032-.0022-.0032-.0032-.0032-.0022-.0032-.0032-.0043-.0022-.0022-.0022-.0022-.0011-.0022-.0022-.0022-.0022-.0022-.0022-.0032-.0022-.0022-.0022-.0022-.0032-.0032-.0022-.0022-.0022-.0032-.0032-.0032-.0032-.0032-.0022-.0032-.0032-.0032-.0032-.0032-.0032-.0032-.0043-.0032-.0032-.0043-.0032-.0032-.0043-.0043-.0032-.0032-.0043-.0043-.0043-.0043c-.670598-.677067-.842021-1.69159-.842021-2.513127 0-.93474.203767-1.870559.863584-2.540079.069-.06577.069-.07655.069-.09272 0-.03773-.01941-.05283-.05175-.05283-.05391 0-.537988.364409-.853881 1.045788-.274923.591895-.338533 1.188102-.338533 1.639839 0 .419394.05822 1.067351.353627 1.675418.321284.660895.78488 1.009132.838787 1.009132.03234 0 .05175-.01509.05175-.05391z"/><path d="m99.319956 81.778067-.0011-.07978-.0011-.08086-.0022-.08086-.0032-.07978-.0043-.08086-.0065-.07978-.0086-.07978-.01078-.0787-.01186-.0787-.01509-.0787-.01725-.07762-.02048-.07763-.02372-.07762-.02587-.07547-.03019-.07547-.01617-.03773-.01725-.03666c-.245814-.517503-.687848-.603754-.913178-.603754-.322361 0-.714801.140157-.93474.640411-.172501.370877-.199455.790271-.199455 1.219367 0 .403222.02264.886225.24258 1.293759.23072.434487.623161.5423.886225.5423v-.11754c-.209158 0-.527207-.134766-.623161-.650114-.0593-.321283-.0593-.815068-.0593-1.134195 0-.342846 0-.696473.0442-.986491.101344-.64041.503487-.687848.638254-.687848.176813 0 .532597.09595.633942.628551.05391.299721.05391.709411.05391 1.045788 0 .4043 0 .768709-.0593 1.112633-.08086.509956-.38705.671676-.628551.671676v.117516c.290017 0 .697551-.112125.93474-.62316.172502-.369799.199455-.788115.199455-1.212899z"/><path d="m100.62881 83.491219v-.03234l-.001-.03234-.002-.03126-.002-.03019-.004-.02911-.003-.02803-.005-.02803-.005-.02587-.006-.02587-.006-.0248-.008-.02372-.009-.02264-.009-.02156-.01-.02048-.0108-.02048-.0108-.01833-.0119-.01725-.0119-.01725-.0129-.01509-.0129-.01402-.014-.01402-.014-.01186-.0151-.01078-.0151-.01078-.0162-.0086-.0172-.0075-.0173-.0065-.0173-.0054-.0183-.0043-.0183-.0032-.0194-.0011-.0194-.0011c-.17681 0-.28462.134767-.28462.284627 0 .14447.10781.284627.28462.284627.0647 0 .13477-.02156.18868-.069.0151-.01186.0226-.01725.0269-.01725.005 0 .0108.0054.0108.08086 0 .397831-.18759.720193-.36548.897006-.0593.05822-.0593.07008-.0593.08517 0 .03881.0269.0593.0539.0593.0593 0 .4884-.412925.4884-1.041476z"/><path d="m105.45884 82.262149h.0173.0173l.0162-.0011h.009l.009-.0011h.008l.009-.0011.008-.0011.008-.0011.008-.0022.008-.0022.008-.0022.006-.0022.006-.0022.006-.0032.005-.0032.006-.0043.005-.0032.004-.0054.004-.0043.004-.0054.002-.0032.002-.0032.001-.0032.002-.0032.001-.0032.002-.0032.001-.0043.001-.0032.001-.0043v-.0043l.001-.0043.001-.0043v-.0043l.001-.0043v-.0054-.0043c0-.107813-.0981-.107813-.18867-.107813h-2.90557c-.0916 0-.18759 0-.18759.107813 0 .107814.096.107814.18759.107814z"/><path d="m108.10134 81.466487-.01-.01833-.01-.01833-.01-.01725-.01-.01725-.0108-.01725-.0119-.01725-.0108-.01617-.0119-.01509-.0119-.01617-.0129-.01401-.0129-.01509-.0129-.01402-.014-.01294-.014-.01294-.0151-.01186-.0151-.01186-.0151-.01186-.0162-.0097-.0162-.01078-.0172-.0086-.0173-.0086-.0173-.0086-.0183-.0065-.0183-.0075-.0194-.0054-.0194-.0054-.0194-.0043-.0205-.0032-.0205-.0032-.0216-.0022-.0216-.0011h-.0226l.004.117516c.34932 0 .42478.439878.42478.471144 0 .0345-.01.06577-.0151.09272l-.26953 1.053335c-.027.09595-.027.105657-.10782.198376-.23611.295408-.45605.380581-.60591.380581-.26845 0-.34392-.29433-.34392-.504566 0-.268455.17142-.928272.29433-1.176242.16711-.316971.40969-.515348.62316-.515348l-.004-.117516c-.62855 0-1.29376.788115-1.29376 1.572995 0 .505644.29433.859271.71372.859271.10674 0 .37627-.02264.69755-.403221.0442.226408.23072.403221.4884.403221.18867 0 .31158-.122907.39783-.295408.0906-.192986.16172-.521816.16172-.531519 0-.05391-.0485-.05391-.0636-.05391-.0539 0-.0593.02156-.0766.09703-.0906.349315-.18867.665208-.40753.665208-.14447 0-.16172-.139079-.16172-.246893 0-.118594.0108-.160641.069-.39783.0614-.22533.0712-.279237.11967-.483004l.19191-.751458c.0388-.14986.0388-.161719.0388-.182204 0-.09272-.0658-.146626-.15633-.146626-.1283 0-.20916.119673-.22533.237189z"/><path d="m110.0215 83.491219-.001-.03234-.001-.03234-.002-.03126-.002-.03019-.003-.02911-.004-.02803-.005-.02803-.005-.02587-.006-.02587-.006-.0248-.008-.02372-.009-.02264-.009-.02156-.01-.02048-.0108-.02048-.0108-.01833-.0108-.01725-.0129-.01725-.0119-.01509-.014-.01402-.0129-.01402-.0151-.01186-.0151-.01078-.0151-.01078-.0162-.0086-.0162-.0075-.0173-.0065-.0183-.0054-.0172-.0043-.0194-.0032-.0183-.0011-.0194-.0011c-.17681 0-.28462.134767-.28462.284627 0 .14447.10781.284627.28462.284627.0636 0 .13477-.02156.18868-.069.0151-.01186.0216-.01725.0269-.01725.004 0 .01.0054.01.08086 0 .397831-.18652.720193-.36549.897006-.0593.05822-.0593.07008-.0593.08517 0 .03881.0269.0593.0539.0593.0593 0 .48948-.412925.48948-1.041476z"/><path d="m113.78202 81.778067v-.07978l-.001-.08086-.002-.08086-.003-.07978-.005-.08086-.006-.07978-.009-.07978-.01-.0787-.0129-.0787-.0151-.0787-.0173-.07762-.0205-.07763-.0226-.07762-.027-.07547-.0302-.07547-.0162-.03773-.0173-.03666c-.24581-.517503-.68677-.603754-.91317-.603754-.32129 0-.71373.140157-.93474.640411-.17143.370877-.19838.790271-.19838 1.219367 0 .403222.0216.886225.24258 1.293759.23072.434487.62316.5423.88622.5423v-.11754c-.20915 0-.5272-.134766-.62423-.650114-.0582-.321283-.0582-.815068-.0582-1.134195 0-.342846 0-.696473.0431-.986491.10135-.64041.50457-.687848.63933-.687848.17682 0 .53152.09595.63287.628551.0539.299721.0539.709411.0539 1.045788 0 .4043 0 .768709-.0593 1.112633-.0809.509956-.38705.671676-.62748.671676v.117516c.28894 0 .69648-.112125.93474-.62316.17143-.369799.19838-.788115.19838-1.212899z"/><path d="m115.55339 82.154335v-.03989l-.001-.04205-.001-.04205-.001-.0442-.004-.09056-.006-.09488-.009-.09919-.0119-.102423-.014-.104578-.0183-.108892-.0205-.109969-.0248-.111048-.0291-.113204-.0334-.114282-.0377-.11536-.042-.11536-.0226-.05714-.0248-.05714-.0248-.05714-.0269-.05714c-.32237-.659817-.78381-1.009132-.83771-1.009132-.0323 0-.0539.02048-.0539.05283 0 .01617 0 .02695.10134.123985.52721.530441.8334 1.3854.8334 2.508813 0 .917491-.19838 1.863013-.86574 2.54008-.069.06361-.069.07547-.069.09056 0 .03234.0216.05391.0539.05391.0539 0 .53583-.365487.85388-1.046867.27276-.589738.33745-1.185945.33745-1.637683z"/></g><g fill-rule="evenodd" transform="translate(-24.043513 68.847816)"><path d="m120.70147 80.301026-.006.0065-.008.0075-.009.0075-.009.0075-.01.0086-.01.0086-.01.0097-.01.0086-.0108.0097-.01.01078-.0216.02048-.0205.02048-.0205.02264-.0108.01078-.01.01078-.009.01078-.01.01186-.009.01078-.008.01078-.008.01078-.008.01078-.006.01078-.005.01078-.005.01078-.004.0097-.003.0097-.002.01078-.001.0086-.001.0097c0 .05391.0539.107813.10781.107813.0496 0 .0765-.03881.1035-.07116.0636-.08086.18652-.230721.42371-.348237.0377-.02264.0916-.04959.0916-.113204 0-.05391-.0377-.08086-.0765-.107813-.11751-.08086-.17681-.176814-.21993-.305112-.0108-.04852-.0323-.119672-.10674-.119672-.0755 0-.10781.07116-.10781.113204 0 .02695.042.198376.12829.31158h-1.8091c-.0916 0-.18867 0-.18867.107813s.097.107813.18867.107813z"/><path d="m119.77536 83.194733.005.02048.006.02048.008.01941.009.01941.009.01833.01.01725.01.01725.0108.01725.0119.01617.0119.01617.0119.01509.014.01402.014.01402.014.01294.0151.01294.0151.01186.0162.01186.0162.01078.0162.0097.0173.0097.0183.0086.0183.0075.0183.0075.0194.0065.0183.0065.0205.0043.0194.0054.0205.0032.0205.0022.0216.0022.0216.0011.0216.0011c.18652 0 .31158-.122907.39675-.295408.0916-.192986.16064-.521816.16064-.531519 0-.05391-.0474-.05391-.0647-.05391-.0539 0-.0582.02156-.0755.09703-.0744.299721-.17682.665208-.40215.665208-.1132 0-.16603-.07008-.16603-.246893 0-.118594.0647-.370877.10674-.557394l.15201-.582191c.0151-.08086.069-.284627.0906-.365487.0269-.122907.0809-.326674.0809-.35794 0-.09811-.0755-.145548-.15633-.145548-.027 0-.16711.0054-.20916.187595-.1035.39244-.33854 1.332572-.40322 1.617199-.006.02156-.21994.450659-.61238.450659-.28032 0-.33422-.24258-.33422-.440956 0-.299721.15201-.724505.29217-1.095383.0636-.161719.0906-.235032.0906-.338533 0-.240424-.17142-.4388-.44095-.4388-.51104 0-.70941.777333-.70941.826927 0 .05391.0539.05391.0658.05391.0539 0 .0582-.01186.0852-.09811.13368-.466831.33853-.665208.54337-.665208.0464 0 .13369.0054.13369.176814 0 .129376-.0604.284627-.0916.365487-.19945.532597-.31158.864662-.31158 1.126648 0 .511035.3698.645801.66197.645801.35363 0 .54662-.241501.63826-.361174z"/><path d="m126.15251 81.739255h.0151.0162.0151l.008-.0011h.009l.008-.0011.008-.0011.008-.0011.008-.0011.008-.0011.006-.0022.008-.0022.006-.0022.006-.0022.006-.0032.006-.0032.005-.0043.005-.0032.005-.0054.004-.0043.004-.0054.002-.0032.002-.0032.001-.0022.002-.0032.001-.0032.002-.0043.001-.0032.001-.0043.001-.0032.001-.0043v-.0043l.001-.0043v-.0043l.001-.0043v-.0043-.0054c0-.107814-.10242-.107814-.17681-.107814h-3.21715c-.0765 0-.17681 0-.17681.107814 0 .105657.10027.105657.18113.105657z"/><path d="m126.1579 82.782887h.008.006l.0151-.0011h.0151.008l.008-.0011.008-.0011h.008l.006-.0011.008-.0022.008-.0011.006-.0022.008-.0022.006-.0022.006-.0022.006-.0032.005-.0032.005-.0043.005-.0043.005-.0043.004-.0054.002-.0022.002-.0032.002-.0022.002-.0032.001-.0032.002-.0032.001-.0032.002-.0032.001-.0043.001-.0032.001-.0043.001-.0043v-.0043l.001-.0043v-.0043l.001-.0043v-.0054-.0043c0-.107813-.10242-.107813-.1822-.107813h-3.20744c-.0809 0-.18113 0-.18113.107813 0 .107814.10027.107814.17681.107814z"/><path d="m129.90549 84.784978v-.0022-.0032-.0011-.0022l-.001-.0011v-.0022l-.001-.0011v-.0022l-.001-.0022-.001-.0022-.001-.0022-.002-.0032-.001-.0022-.002-.0032-.002-.0032-.003-.0032-.002-.0032-.003-.0043-.002-.0022-.002-.0022-.001-.0022-.002-.0022-.002-.0022-.002-.0032-.002-.0022-.002-.0022-.003-.0032-.002-.0022-.002-.0032-.003-.0032-.003-.0032-.002-.0032-.003-.0032-.003-.0032-.003-.0032-.004-.0032-.003-.0043-.003-.0032-.004-.0043-.003-.0032-.004-.0043-.004-.0043c-.6706-.677067-.84203-1.69159-.84203-2.513127 0-.93474.20377-1.870559.86359-2.540079.069-.06577.069-.07655.069-.09272 0-.03773-.0194-.05283-.0517-.05283-.0539 0-.53799.364409-.85388 1.045788-.27493.591895-.33961 1.188102-.33961 1.639839 0 .419394.0593 1.067351.3547 1.675418.32128.660895.78488 1.009132.83879 1.009132.0323 0 .0517-.01509.0517-.05391z"/><path d="m132.68276 81.778067-.001-.07978-.001-.08086-.002-.08086-.003-.07978-.005-.08086-.006-.07978-.008-.07978-.0108-.0787-.0119-.0787-.0151-.0787-.0172-.07762-.0205-.07763-.0237-.07762-.027-.07547-.0291-.07547-.0162-.03773-.0172-.03666c-.24581-.517503-.68785-.603754-.91318-.603754-.32236 0-.7148.140157-.93474.640411-.1725.370877-.19945.790271-.19945 1.219367 0 .403222.0226.886225.24258 1.293759.23072.434487.62316.5423.88622.5423v-.11754c-.20916 0-.5272-.134766-.62316-.650114-.0593-.321283-.0593-.815068-.0593-1.134195 0-.342846 0-.696473.0442-.986491.10134-.64041.50349-.687848.63825-.687848.17682 0 .5326.09595.63394.628551.0539.299721.0539.709411.0539 1.045788 0 .4043 0 .768709-.0593 1.112633-.0809.509956-.38705.671676-.62855.671676v.117516c.29002 0 .69755-.112125.93474-.62316.1725-.369799.19946-.788115.19946-1.212899z"/><path d="m133.99161 83.491219v-.03234l-.001-.03234-.002-.03126-.003-.03019-.003-.02911-.004-.02803-.004-.02803-.005-.02587-.006-.02587-.008-.0248-.008-.02372-.008-.02264-.01-.02156-.009-.02048-.0108-.02048-.0108-.01833-.0119-.01725-.0119-.01725-.0129-.01509-.0129-.01402-.014-.01402-.014-.01186-.0151-.01078-.0151-.01078-.0162-.0086-.0172-.0075-.0173-.0065-.0172-.0054-.0183-.0043-.0183-.0032-.0194-.0011-.0194-.0011c-.17682 0-.28463.134767-.28463.284627 0 .14447.10781.284627.28463.284627.0647 0 .13476-.02156.18867-.069.0151-.01186.0226-.01725.0269-.01725.005 0 .0108.0054.0108.08086 0 .397831-.18759.720193-.36548.897006-.0593.05822-.0593.07008-.0593.08517 0 .03881.0269.0593.0539.0593.0593 0 .48839-.412925.48839-1.041476z"/><path d="m137.75429 81.778067v-.07978-.08086-.08086l-.0108-.07978v-.08086l-.0108-.07978-.0108-.07978-.0108-.0787-.0108-.0787-.0108-.0787-.0216-.07762-.0216-.07763-.0216-.07762-.0216-.07547-.0323-.07547-.0216-.03773-.0108-.03666c-.24797-.517503-.69-.603754-.91641-.603754-.32344 0-.71157.140157-.93797.640411-.16172.370877-.19407.790271-.19407 1.219367 0 .403222.0216.886225.24797 1.293759.22641.434487.61454.5423.88407.5423v-.11754c-.21562 0-.52828-.134766-.62531-.650114-.0647-.321283-.0647-.815068-.0647-1.134195 0-.342846 0-.696473.0539-.986491.097-.64041.49594-.687848.6361-.687848.1725 0 .52829.09595.6361.628551.0539.299721.0539.709411.0539 1.045788 0 .4043 0 .768709-.0647 1.112633-.0755.509956-.38813.671676-.62532.671676v.117516c.2911 0 .69001-.112125.9272-.62316.1725-.369799.20484-.788115.20484-1.212899z"/><path d="m139.05883 83.491219v-.03234-.03234-.03126-.03019-.02911l-.0108-.02803v-.02803l-.0108-.02587v-.02587l-.0108-.0248-.0108-.02372-.0108-.02264v-.02156l-.0108-.02048-.0108-.02048-.0108-.01833-.0108-.01725-.0108-.01725-.0216-.01509-.0108-.01402-.0108-.01402-.0108-.01186-.0216-.01078-.0108-.01078-.0216-.0086-.0108-.0075-.0216-.0065-.0216-.0054-.0108-.0043-.0216-.0032-.0216-.0011-.0108-.0011c-.18328 0-.2911.134767-.2911.284627 0 .14447.10782.284627.2911.284627.0539 0 .12938-.02156.18328-.069.0108-.01186.0216-.01725.0323-.01725v.08086c0 .397831-.18329.720193-.36657.897006-.0539.05822-.0539.07008-.0539.08517 0 .03881.0324.0593.0539.0593.0539 0 .48516-.412925.48516-1.041476z"/><path d="m141.92666 80.058446v-.0054-.0065-.0054-.0054-.0054-.0054-.0043-.0054-.0043-.0043-.0043-.0043-.0043-.0032-.0043-.0032-.0075-.0065-.0054-.0054-.0054l-.0108-.0043v-.0043-.0032-.0032l-.0108-.0032v-.0032-.0022l-.0108-.0022v-.0011-.0011h-.0108v-.0011-.0011l-.0108-.0011v-.0011h-.0108v-.0011h-.0108-.0108-.0108v-.0011h-.0108-.0108c-.33422.343924-.8086.343924-.9811.343924v.167111c.10781 0 .43125 0 .70078-.140157v2.782659c0 .194064-.0108.257674-.49594.257674h-.1725v.16711c.19407-.01725.65766-.01725.87329-.01725.21562 0 .67922 0 .87329.01725v-.167067h-.17251c-.48516 0-.50672-.05822-.50672-.257674z"/><path d="m144.60043 82.154335-.0108-.03989v-.04205-.04205-.0442-.09056l-.0108-.09488-.0108-.09919-.0108-.102423-.0108-.104578-.0216-.108892-.0216-.109969-.0216-.111048-.0324-.113204-.0323-.114282-.0323-.11536-.0431-.11536-.0216-.05714-.0216-.05714-.0323-.05714-.0216-.05714c-.32344-.659817-.78704-1.009132-.84095-1.009132-.0323 0-.0539.02048-.0539.05283 0 .01617 0 .02695.097.123985.52828.530441.84094 1.3854.84094 2.508813 0 .917491-.20484 1.863013-.87329 2.54008-.0647.06361-.0647.07547-.0647.09056 0 .03234.0216.05391.0539.05391.0539 0 .53907-.365487.85173-1.046867.28031-.589738.345-1.185945.345-1.637683z"/></g><text font-family="sans-serif" font-size="5.644444" letter-spacing="0" stroke-width=".264583" word-spacing="0" x="89.593781" y="196.70012"><tspan font-style="italic" stroke-width=".264583" x="89.593781" y="196.70012">u</tspan></text><text font-family="sans-serif" font-size="5.644444" letter-spacing="0" stroke-width=".264583" word-spacing="0" x="25.986517" y="165.9109"><tspan font-style="italic" stroke-width=".264583" x="25.986517" y="165.9109">v</tspan></text><path d="m91.669466 164.36749h-52.400606" fill="none" marker-end="url(#a)" stroke="#000" stroke-width=".257721"/><path d="m41.794353 168.93683h1.499682c.07439 0 .176813 0 .176813-.10781 0-.10782-.102422-.10782-.176813-.10782h-1.499682v-1.50507c0-.0733 0-.17681-.107814-.17681-.105657 0-.105657.1035-.105657.17681v1.50507h-1.503994c-.07655 0-.176814 0-.176814.10782 0 .10781.100267.10781.176814.10781h1.503994v1.50291c0 .0755 0 .1779.105657.1779.107814 0 .107814-.10243.107814-.1779z" fill-rule="evenodd"/><path d="m46.388274 168.125v-.004l.0011-.003.0022-.006.0011-.005.0022-.006.0011-.005.0011-.004.0011-.005.0011-.004.0011-.004.0011-.004.0011-.004.0011-.004v-.003l.0011-.003.0011-.003v-.003-.003l.0011-.003v-.005l.0011-.006v-.005-.005-.005-.003-.003-.003-.003c0-.0981-.07331-.14555-.154173-.14555-.05391 0-.140157.0323-.188673.1132-.01078.027-.05391.19191-.07439.29002-.03881.13908-.07655.28463-.107813.4291l-.24258.96708c-.02048.0809-.251205.45605-.606988.45605-.272768 0-.333143-.23503-.333143-.43448 0-.2469.09272-.58112.274924-1.05226.08517-.22102.107813-.28032.107813-.38813 0-.24042-.172501-.4388-.442034-.4388-.509957 0-.709411.77733-.709411.82693 0 .0539.05391.0539.06577.0539.05391 0 .0593-.0119.08625-.0981.14447-.50565.359018-.66521.542301-.66521.04205 0 .134766 0 .134766.17142 0 .13477-.05391.27277-.09272.37627-.21347.56925-.31158.87544-.31158 1.1288 0 .47654.338533.63826.655504.63826.210236 0 .39244-.0916.542301-.2415-.069.27815-.132611.5423-.348237.828-.140157.18113-.343924.33853-.591895.33853-.07331 0-.315892-.0172-.407534-.2264.08625 0 .15633 0 .230721-.0658.05391-.0464.107813-.11752.107813-.21886 0-.16711-.14447-.18867-.198376-.18867-.122907 0-.301877.0863-.301877.34931 0 .26953.237189.46791.569253.46791.55416 0 1.107242-.49055 1.259259-1.09646z" fill-rule="evenodd"/><g fill-rule="evenodd" transform="translate(33.94323 -27.127857)"><path d="m50.591911 168.93683h1.499682c.07331 0 .175736 0 .175736-.10781 0-.10782-.102423-.10782-.175736-.10782h-1.499682v-1.50507c0-.0733 0-.17681-.107813-.17681-.106735 0-.106735.1035-.106735.17681v1.50507h-1.503994c-.07547 0-.176814 0-.176814.10782 0 .10781.101344.10781.176814.10781h1.503994v1.50291c0 .0755 0 .1779.106735.1779.107813 0 .107813-.10243.107813-.1779z"/><path d="m53.28832 169.72494.02587-.0291.02695-.0269.0248-.0269.0248-.0259.02372-.0248.02372-.0237.02264-.0237.02264-.0226.02156-.0216.02048-.0205.02049-.0205.02048-.0205.02049-.0183.01941-.0194.03773-.0356.03666-.0345.03558-.0324.03558-.0313.03558-.0313.069-.0604.03558-.0313.03558-.0302c0-.005.332065-.29002.526129-.48408.509956-.50025.628551-.75793.628551-.77733 0-.0539-.04959-.0539-.0593-.0539-.03666 0-.05391.01-.08086.0582-.160642.25767-.272768.34392-.403222.34392-.129375 0-.192985-.0809-.273845-.17142-.101345-.12506-.191908-.23072-.370878-.23072-.402143 0-.649035.4981-.649035.6113 0 .027.01617.0582.06469.0582s.0593-.0269.069-.0582c.102423-.24797.414003-.25336.45605-.25336.113204 0 .215627.0388.339612.0809.215626.0809.273845.0809.414002.0809-.194063.23072-.645801.61885-.746067.70402l-.484081.45066c-.365487.3601-.55416.66629-.55416.70402 0 .0539.05391.0539.06361.0539.0442 0 .05391-.0108.08625-.069.125063-.18868.284627-.33422.457128-.33422.123985 0 .177892.0496.31158.20376.09272.11321.188673.19946.343924.19946.53152 0 .8431-.68246.8431-.82693 0-.0269-.02156-.0539-.06361-.0539-.04852 0-.0593.0313-.07547.0701-.123985.34932-.466831.44958-.645801.44958-.105657 0-.203767-.0313-.316971-.069-.181126-.069-.261986-.0906-.37519-.0906-.0097 0-.09595 0-.14447.0151z"/></g><circle cx="91.791382" cy="164.39174" r="1.754047" stroke="#000" stroke-linecap="round" stroke-width=".491907"/></g></svg>