<svg height="75.469254mm" viewBox="0 0 131.16127 75.469253" width="131.16127mm" xmlns="http://www.w3.org/2000/svg" xmlns:xlink="http://www.w3.org/1999/xlink"><marker id="a" orient="auto" overflow="visible" refX="0" refY="0"><path d="m0 0 5-5-17.5 5 17.5 5z" fill-rule="evenodd" stroke="#000" stroke-width="1pt" transform="matrix(-.4 0 0 -.4 -4 0)"/></marker><marker id="b" orient="auto" overflow="visible" refX="0" refY="0"><path d="m0 0 5-5-17.5 5 17.5 5z" fill-rule="evenodd" stroke="#000" stroke-width="1pt" transform="matrix(-.4 0 0 -.4 -4 0)"/></marker><g transform="translate(-24.917438 -124.98877)"><path d="m35.814117 137.17282h113.32228v54.389347h-113.32228z" fill="#fea" stroke="#000" stroke-linecap="round" stroke-width=".865"/><text font-family="sans-serif" font-size="5.644444" letter-spacing="0" stroke-width=".264583" word-spacing="0" x="28.184963" y="133.16377"><tspan stroke-width=".264583" x="28.184963" y="133.16377">(0, 0)</tspan></text><text font-family="sans-serif" font-size="5.644444" letter-spacing="0" stroke-width=".264583" word-spacing="0" x="141.38882" y="133.16377"><tspan stroke-width=".264583" x="141.38882" y="133.16377">(1, 0)</tspan></text><text font-family="sans-serif" font-size="5.644444" letter-spacing="0" stroke-width=".264583" word-spacing="0" x="28.184963" y="199.71388"><tspan stroke-width=".264583" x="28.184963" y="199.71388">(0, 1)</tspan></text><text font-family="sans-serif" font-size="5.644444" letter-spacing="0" stroke-width=".264583" word-spacing="0" x="141.38882" y="199.71388"><tspan stroke-width=".264583" x="141.38882" y="199.71388">(1, 1)</tspan></text><g stroke="#000"><path d="m58.634643 131.39437h67.159817" fill="none" marker-end="url(#a)" stroke-width=".264583"/><path d="m32.007311 148.00339v32.20598" fill="none" marker-end="url(#b)" stroke-width=".265"/><circle cx="35.772442" cy="137.07489" r="1.754047" stroke-linecap="round" stroke-width=".491907"/><circle cx="35.772442" cy="191.50346" r="1.754047" stroke-linecap="round" stroke-width=".491907"/><circle cx="148.9763" cy="191.50346" r="1.754047" stroke-linecap="round" stroke-width=".491907"/><circle cx="148.9763" cy="137.26389" r="1.754047" stroke-linecap="round" stroke-width=".491907"/></g><text font-family="sans-serif" font-size="5.644444" letter-spacing="0" stroke-width=".264583" word-spacing="0" x="90.652115" y="128.60474"><tspan font-style="italic" stroke-width=".264583" x="90.652115" y="128.60474">u</tspan></text><text font-family="sans-serif" font-size="5.644444" letter-spacing="0" stroke-width=".264583" word-spacing="0" x="26.628963" y="165.9109"><tspan font-style="italic" stroke-width=".264583" x="26.628963" y="165.9109">v</tspan></text></g></svg>