<svg height="86.123695mm" viewBox="0 0 263.50897 86.123695" width="263.50897mm" xmlns="http://www.w3.org/2000/svg" xmlns:xlink="http://www.w3.org/1999/xlink"><clipPath id="a"><path d="m62.945 137h334.898v197h-334.898z"/></clipPath><clipPath id="b"><path d="m62.945 194h334.898v140h-334.898z"/></clipPath><clipPath id="c"><path d="m62.945 190h334.898v144h-334.898z"/></clipPath><g transform="translate(2.571336 -64.996388)"><g transform="matrix(.35277777 0 0 .35277777 -24.777536 29.174814)"><g clip-path="url(#a)"><path d="m63.551-332.664 4.121-.434 4.121.258 4.117-.328c8.219.223 16.586-.441 24.723.09l4.121-.012 4.121.133 4.121.492 4.117.66 4.121.532 4.121.175 4.122-.297 4.121-.449 4.117-.347 4.121-.325 4.121-.304 4.121-.106 4.117-.019c8.278-.285 16.457 1.332 24.723 1.375l4.121-.133 4.121-.219c9.672-.637 19.152-.84 28.84-.801l4.121.039 4.121.215 4.121.5 4.121 1.528 4.118 4.261 4.121 8.118 4.121 13.316 4.121 24.652 4.121 42.332 4.117 54.93 4.121 45.016 4.121-7.504 4.121-51.711 4.118-53.324 4.121-36.707 4.121-20.469 4.121-11.711 4.117-5.735 4.121-3.078 4.121-1.664 4.121-1.031c12.254-1.91 24.688-2.613 37.082-2.27l4.121-.179 4.122.074 4.117.043 4.121-.02 4.121-.14 4.121-.031 4.121-.02 4.117.219 4.121-.106 4.121-.058 4.122.011 4.121.227 4.121.375h4.117" fill="none" stroke="#ed1639" stroke-linecap="square" stroke-miterlimit="3.25" stroke-width="1.099475" transform="scale(1 -1)"/></g><g clip-path="url(#b)"><path d="m63.551-333.102 4.121-.093 4.121-.078c8.25.007 16.465-.079 24.719-.082l4.121.074 4.121.183c8.293.157 16.394 1.473 24.723 1.317l4.121.246 4.117 1.015 4.121 2.278 4.121 2.84 4.121 3.187 4.117 4.637 4.121 7.848 4.122 14.093 4.121 21.168 4.121 27.332 4.117 26.793 4.121 19.828 4.121 4.825 4.121-7.504 4.117-16.614 4.121-20.632 4.122-22.239 4.121-19.023 4.121-13.934 4.121-10.984 4.117-8.012 4.121-6.082 4.121-3.777 4.121-2.199 4.121-.856 4.118-.082 4.121.082c8.203-.422 16.797 1.649 24.722-1.18l4.121-1.742 4.118-1.293c8.839-1.937 19.722-1.328 28.843-1.578l4.121-.012 4.122.02 4.117.027 4.121-.035c9.558.145 19.363-.238 28.844.156l4.117.004 4.121-.062c9.617-.305 19.226.156 28.844.043l4.121.09 4.121.019h4.117" fill="none" stroke="#33b540" stroke-linecap="square" stroke-miterlimit="3.25" stroke-width="1.099475" transform="scale(1 -1)"/></g><g clip-path="url(#c)"><path d="m63.551-333.105 4.121-.176c8.016.125 16.801-.055 24.719.672l4.121.671 4.121 3.372 4.121 7.316 4.121 15.164 4.121 25.992 4.117 38.047 4.121 36.442 4.121 14.468 4.122-14.738 4.121-34.832 4.117-31.617 4.121-22.774 4.121-13.507 4.121-6.75 4.117-2.707 4.121.109 4.122 1.738 4.121 1.797 4.121.668 4.117-1.848 4.121-3.722 4.121-4.395 4.121-2.894 4.117-2.063 4.121-1.555c11.094-3.675 25.372-2.773 37.086-3.058l4.118.012 4.121.078 4.121.101 4.121.172 4.121.344 4.117.465 4.121.351 4.121-.129 4.121-.355 4.118-.449 4.121-.305 4.121-.152 8.238-.164 4.121.011c31.594-.105 63.176.11 94.77-.007l4.121.234h4.117" fill="none" stroke="#254aa5" stroke-linecap="square" stroke-miterlimit="3.25" stroke-width="1.099475" transform="scale(1 -1)"/></g><text fill="#231f20" font-family="Time Roman" font-size="9.895276" x="155.01498" y="345.50879"><tspan x="155.01498 159.96263 164.91026 237.41295 242.3606 247.30823 319.8208 324.76846 329.71609" y="345.50879">500600700</tspan></text><g fill="none" stroke="#000" stroke-miterlimit="3.25" stroke-width=".549738"><path d="m80.031 337.461v-203.719"/><path d="m63.551 333.414h329.625"/><path d="m162.438 333.414v-3.891"/><path d="m80.031 333.414v-3.891"/><path d="m244.844 333.414v-3.891"/><path d="m327.25 333.414v-3.891"/></g></g><g transform="matrix(.35277777 0 0 .35277777 120.5971 -48.57724)"><path d="m63.52 553.441 4.121.184c13.004.07 24.05.152 37.082-1.285l4.121-.649 4.121.356 4.121.543 4.117.222 4.121.184 4.121.211 4.121.191 4.118.11 4.121.008 4.121-.075 4.121-.117 4.121-.082 4.117.067 4.121.277 4.121.078 4.121-.012 4.122.047 4.117.082 4.121-.031 4.121.008 4.121-.078 4.117-.196 4.121-.214 4.121.203 4.121.148 4.122.063h4.121l4.117-.192 4.121-1.008 4.121-3.668 4.121-7.539 4.121-4.804 4.121 1.007 4.117 1.582 4.122-27.242 4.121-75.363 4.121-3.742 4.117 54.082 4.121 21.859 4.121 12.946 4.121 14.843 4.117 9.063 4.122-.692 4.121-1.699 4.121 2.016 4.117 1.582 4.121-.461 4.121.891 4.121.691 4.121.316 4.121.086 4.121.547 4.118 1.383 4.121-.059 4.121-7.824 4.117-3.019 4.121 7.507 4.121 5.641 4.121.633 4.121.187 4.121.254 4.118.035 4.121-.179 4.121-.301 4.121.43h4.121l4.121.043 4.117.011 4.121.024 4.122-.664h4.121" fill="none" stroke="#f1471d" stroke-linecap="square" stroke-miterlimit="3.25" stroke-width="1.099475"/><path d="m63.52 553.621 4.121.098c20.605 0 41.203-.16 61.804-.364l4.121-.437 4.118-1.516 4.121-3.996 4.121-8.945 4.121-16.859 4.121-10.645 4.117 4.316 4.121 13.379 4.121 10.325 4.121 4.429 4.122 2.043 4.117 1.551 4.121 1.238 4.121-1.957 4.121-22.379 4.117-92.05 4.121-73.641 4.121 78.531 4.121 79.684 4.122 28.074 4.121 4.66 4.117-.922 4.121-7.851 4.121-11.996 4.121-3.336 4.121 7.164 4.121 10.383 4.117 5.722 4.122-.371 4.121-5.523 4.121 1.265 4.117 6.012 4.121 2.023 4.121.895 4.121.566 4.117.352 4.122-.109 4.121.007 4.121-.007 4.117.242 4.121-.141c6.855.305 13.855-.273 20.605.067l4.118.148 4.121-.34 4.121-1.359 4.117-.692 4.121.953 4.121 1.235 4.121.187 4.121-.011 4.121.004 4.118-.036 4.121-.293 4.121.305 4.121-.281 4.121.031 4.121-.066 4.117.148 4.121-.277 4.122.285h4.121" fill="none" stroke="#33b540" stroke-linecap="square" stroke-miterlimit="3.25" stroke-width="1.099475"/><path d="m63.52 553.645 4.121-.079 4.121.012 4.121-.008 4.117-.191 4.121-.656 4.121-.836 4.121-2.207 4.117-4.805 4.122-7.77 4.121-16.652 4.121-26.754h4.121l4.121 7.766 4.117-2.301 4.121-.863 4.121 2.015 4.121 4.891 4.118 5.75 4.121 6.617 4.121 2.301 4.121-6.902 4.121.289 4.117 12.484 4.121 14.297 4.121 7.191 4.121 3.075 4.122 1.414 4.117.824 4.121.48 4.121.137 4.121-.855 4.117-3.754 4.121-2.672 4.121 3.48 4.121 3.168 4.122.981 4.121.133 4.117.023 4.121-.141 4.121-.226 4.121-.137 4.121.078 4.121.211 4.117.145 4.122-.246 4.121-.7 4.121-.027 4.117.539 4.121.168 4.121.094 4.121.148c17.852-.035 35.711-.262 53.563-.152l4.121-.891 4.117-.32 4.121.797 4.121.617 4.121.109 4.121.008 4.121-.027 4.118-.063 4.121-.015 4.121.027c7.051-.273 13.617.227 20.601-.137l4.122.071h4.121" fill="none" stroke="#254aa5" stroke-linecap="square" stroke-miterlimit="3.25" stroke-width="1.099475"/><text fill="#231f20" font-family="Time Roman" font-size="9.895276" x="154.98421" y="565.91284"><tspan x="154.98421 159.93184 164.87947 237.38217 242.3298 247.27744 319.79001 324.73767 329.6853" y="565.91284">500600700</tspan></text><g fill="none" stroke-miterlimit="3.25"><path d="m162.406 553.82v-3.89" stroke="#000" stroke-width=".549738"/><path d="m80 553.82v-3.89" stroke="#000" stroke-width=".549738"/><path d="m244.812 553.82v-3.89" stroke="#000" stroke-width=".549738"/><path d="m327.219 553.82v-3.89" stroke="#000" stroke-width=".549738"/><path d="m80 557.855v-203.718" stroke="#000" stroke-width=".549738"/><path d="m63.52 553.82h329.625" stroke="#000" stroke-width=".549738"/></g></g><g font-family="sans-serif" font-size="6.35" letter-spacing="0" stroke-width=".264583" word-spacing="0"><text x="36.883194" y="69.8209"><tspan stroke-width=".264583" x="36.883194" y="69.8209">Schermo #1</tspan></text><text x="182.2778" y="69.8209"><tspan stroke-width=".264583" x="182.2778" y="69.8209">Schermo #2</tspan></text></g></g></svg>