<svg height="18.770617mm" viewBox="0 0 120.23498 18.770617" width="120.23499mm" xmlns="http://www.w3.org/2000/svg"><g transform="translate(-22.602421 -72.786049)"><path d="m22.719921 72.903549h8v8h-8z" fill="#ffd5d5" stroke="#000" stroke-linecap="round" stroke-width=".235"/><path d="m30.719921 72.903549h8v8h-8z" fill="#ffd5d5" stroke="#000" stroke-linecap="round" stroke-width=".235"/><path d="m38.719921 72.903549h8v8h-8z" fill="#d5ffd5" stroke="#000" stroke-linecap="round" stroke-width=".235"/><path d="m46.719925 72.903549h8v8h-8z" fill="#ffd5d5" stroke="#000" stroke-linecap="round" stroke-width=".235"/><path d="m54.719921 72.903549h8v8h-8z" fill="#d5ffd5" stroke="#000" stroke-linecap="round" stroke-width=".235"/><path d="m62.719925 72.903549h8v8h-8z" fill="#ffd5d5" stroke="#000" stroke-linecap="round" stroke-width=".235"/><path d="m70.719925 72.903549h8v8h-8z" fill="#ffd5d5" stroke="#000" stroke-linecap="round" stroke-width=".235"/><path d="m78.719925 72.903549h8v8h-8z" fill="#fff6d5" stroke="#000" stroke-linecap="round" stroke-width=".235"/><path d="m86.719925 72.903549h8v8h-8z" fill="#ffd5d5" stroke="#000" stroke-linecap="round" stroke-width=".235"/><path d="m94.719925 72.903549h8v8h-8z" fill="#d5ffd5" stroke="#000" stroke-linecap="round" stroke-width=".235"/><path d="m102.71992 72.903549h8v8h-8z" fill="#fff6d5" stroke="#000" stroke-linecap="round" stroke-width=".235"/><path d="m110.71993 72.903549h8v8h-8z" fill="#ffd5d5" stroke="#000" stroke-linecap="round" stroke-width=".235"/><path d="m118.71992 72.903549h8v8h-8z" fill="#ffd5d5" stroke="#000" stroke-linecap="round" stroke-width=".235"/><path d="m126.71993 72.903549h8v8h-8z" fill="#ffd5d5" stroke="#000" stroke-linecap="round" stroke-width=".235"/><path d="m134.71991 72.903549h8v8h-8z" fill="#d5ffd5" stroke="#000" stroke-linecap="round" stroke-width=".235"/><g font-family="sans-serif" font-size="6.35" letter-spacing="0" stroke-width=".264583" word-spacing="0"><text x="24.871971" y="79.270844"><tspan stroke-width=".264583" x="24.871971" y="79.270844">a</tspan></text><text x="32.862106" y="79.270844"><tspan stroke-width=".264583" x="32.862106" y="79.270844">a</tspan></text><text x="40.976265" y="79.270844"><tspan stroke-width=".264583" x="40.976265" y="79.270844">c</tspan></text><text x="48.842384" y="79.270844"><tspan stroke-width=".264583" x="48.842384" y="79.270844">a</tspan></text><text x="56.832523" y="79.270844"><tspan stroke-width=".264583" x="56.832523" y="79.270844">c</tspan></text><text x="64.946678" y="79.270844"><tspan stroke-width=".264583" x="64.946678" y="79.270844">a</tspan></text><text x="72.81279" y="79.270844"><tspan stroke-width=".264583" x="72.81279" y="79.270844">a</tspan></text><text x="80.52076" y="79.270844"><tspan stroke-width=".264583" x="80.52076" y="79.270844">b</tspan></text><text x="88.917084" y="79.270844"><tspan stroke-width=".264583" x="88.917084" y="79.270844">a</tspan></text><text x="96.783203" y="79.270844"><tspan stroke-width=".264583" x="96.783203" y="79.270844">c</tspan></text><text x="104.49119" y="79.270844"><tspan stroke-width=".264583" x="104.49119" y="79.270844">b</tspan></text><text x="112.76347" y="79.270844"><tspan stroke-width=".264583" x="112.76347" y="79.270844">a</tspan></text><text x="120.75361" y="79.270844"><tspan stroke-width=".264583" x="120.75361" y="79.270844">a</tspan></text><text x="128.74376" y="79.270844"><tspan stroke-width=".264583" x="128.74376" y="79.270844">a</tspan></text><text x="136.85789" y="79.270844"><tspan stroke-width=".264583" x="136.85789" y="79.270844">c</tspan></text><text x="48.230549" y="90.235817"><tspan stroke-width=".264583" x="48.230549" y="90.235817">15 bytes to compress</tspan></text></g></g></svg>