<svg height="79.147285mm" viewBox="0 0 84.954918 79.147285" width="84.954918mm" xmlns="http://www.w3.org/2000/svg" xmlns:xlink="http://www.w3.org/1999/xlink"><marker id="a" orient="auto" overflow="visible" refX="0" refY="0"><path d="m0 0 5-5-17.5 5 17.5 5z" fill-rule="evenodd" stroke="#000" stroke-width="1pt" transform="matrix(-.4 0 0 -.4 -4 0)"/></marker><marker id="b" orient="auto" overflow="visible" refX="0" refY="0"><path d="m0 0 5-5-17.5 5 17.5 5z" fill-rule="evenodd" stroke="#000" stroke-width="1pt" transform="matrix(.4 0 0 .4 4 0)"/></marker><g transform="translate(-58.951329 -72.809833)"><path d="m101.42878 80.511681v70.425519l42.09496-70.158248" fill="none" stroke="#000" stroke-width=".565"/><path d="m101.30049 73.192368a42.094952 7.1857095 0 0 1 42.22301 7.161255 42.094952 7.1857095 0 0 1 -41.93689 7.21008 42.094952 7.1857095 0 0 1 -42.252421-7.156198 42.094952 7.1857095 0 0 1 41.907251-7.215099" fill="#aaffba" stroke="#000" stroke-linecap="round" stroke-width=".765"/><path d="m101.42828 80.211024a.16704345.16704345 0 0 1 .16755.166475.16704345.16704345 0 0 1 -.16642.16761.16704345.16704345 0 0 1 -.16766-.166357.16704345.16704345 0 0 1 .16629-.167727" fill="#aaffba" fill-opacity=".501961" stroke="#000" stroke-linecap="round" stroke-width=".765"/><g stroke-width=".264583"><text font-family="sans-serif" font-size="6.35" letter-spacing="0" word-spacing="0" x="95.004417" y="116.56065"><tspan font-style="italic" stroke-width=".264583" x="95.004417" y="116.56065">d</tspan></text><path d="m101.41409 146.12637a4.8108482 4.8108482 0 0 1 2.34739.60336l-2.3327 4.20746z" fill="none" stroke="#000" stroke-linecap="round"/><text font-family="sans-serif" font-size="6.35" letter-spacing="0" word-spacing="0" x="102.49786" y="140.78096"><tspan font-style="italic" stroke-width=".264583" x="102.49786" y="140.78096">θ</tspan></text><text font-family="sans-serif" font-size="6.35" letter-spacing="0" word-spacing="0" x="108.21009" y="84.164047"><tspan font-style="italic" stroke-width=".264583" x="108.21009" y="84.164047">r</tspan></text></g><path d="m103.12917 80.211024h37.99048" fill="none" marker-end="url(#a)" marker-start="url(#b)" stroke="#000" stroke-width=".265"/></g></svg>