<svg height="48.63578mm" viewBox="0 0 107.60034 48.63578" width="107.60033mm" xmlns="http://www.w3.org/2000/svg" xmlns:xlink="http://www.w3.org/1999/xlink"><marker id="a" orient="auto" overflow="visible" refX="0" refY="0"><path d="m0 0 5-5-17.5 5 17.5 5z" fill-rule="evenodd" stroke="#000" stroke-width="1pt" transform="matrix(-.4 0 0 -.4 -4 0)"/></marker><marker id="b" orient="auto" overflow="visible" refX="0" refY="0"><path d="m0 0 5-5-17.5 5 17.5 5z" fill-rule="evenodd" stroke="#000" stroke-width="1pt" transform="matrix(-.4 0 0 -.4 -4 0)"/></marker><marker id="c" orient="auto" overflow="visible" refX="0" refY="0"><path d="m0 0 5-5-17.5 5 17.5 5z" fill-rule="evenodd" stroke="#000" stroke-width="1pt" transform="matrix(-.4 0 0 -.4 -4 0)"/></marker><marker id="d" orient="auto" overflow="visible" refX="0" refY="0"><path d="m0 0 5-5-17.5 5 17.5 5z" fill-rule="evenodd" stroke="#000" stroke-width="1pt" transform="matrix(-.4 0 0 -.4 -4 0)"/></marker><g transform="translate(-42.478805 -124.05356)"><g stroke="#000"><circle cx="134.5386" cy="157.1488" fill="#fff" fill-opacity=".966805" r="15.308036" stroke-linecap="round" stroke-width=".465"/><circle cx="58.019341" cy="157.1488" fill="#fff" fill-opacity=".721992" r="15.308036" stroke-linecap="round" stroke-width=".465"/><circle cx="93.25" cy="138.10515" r="1.511906" stroke-linecap="round" stroke-width=".865"/><path d="m93.288328 138.17826-23.440801 6.81249" fill="none" marker-end="url(#d)" stroke-width=".465"/><circle cx="58.019341" cy="157.1488" fill="#fff" r="15.308036" stroke-linecap="round" stroke-width=".465"/><circle cx="68.021889" cy="145.52875" r=".924102" stroke-linecap="round" stroke-width=".528702"/><ellipse cx="58.039143" cy="157.16589" rx=".206887" ry=".213062" stroke-linecap="round" stroke-width=".791738"/><path d="m58.036041 157.1876 24.83776-27.74818" fill="none" marker-end="url(#c)" stroke-width=".265"/></g><g fill-rule="evenodd" transform="translate(29.185832 5.238483)"><path d="m470.49 438.18 5.74-5.07.89.89-6.63 6.78-6.67-6.78.89-.89z" transform="matrix(.12985776 0 0 -.12985776 -3.640464 176.05378)"/><path d="m56.082418 122.92378-.0026.009-.0013.0104-.0026.009-.0026.0104-.0039.0208-.0052.0208-.0052.0208-.0052.0208-.0039.0208-.0052.0208-.0026.0104-.0013.009-.0026.009-.0013.009-.0026.009-.0013.009-.0026.008-.0013.008-.0013.008-.0013.006-.0013.006v.005l-.0013.005v.005l-.0013.004v.003c0 .11558.0922.17531.186995.17531.07921 0 .194787-.0506.238938-.1805.0091-.0143.08571-.31686.124664-.47918l.141545-.58176c.03896-.14284.07791-.28439.10908-.43502.02727-.10908.07921-.29608.08571-.32205.09739-.20128.440218-.78954 1.053147-.78954.29218 0 .350616.23894.350616.45191 0 .40256-.318152 1.22975-.422038 1.50765-.05584.14803-.06233.22725-.06233.29867 0 .30257.224654.52982.52982.52982.607734 0 .847971-.94407.847971-.99601 0-.0649-.05844-.0649-.07921-.0649-.06233 0-.06233.0195-.09609.11687-.129858.43892-.342824.80123-.660976.80123-.10908 0-.154531-.0649-.154531-.21297 0-.16232.05974-.31815.115574-.4597.124663-.34282.396066-1.05314.396066-1.42324 0-.43372-.277896-.69084-.744085-.69084-.583061 0-.899914.41295-1.008995.56098-.03246-.3623-.298673-.56098-.596047-.56098-.296076 0-.420739.25062-.485668.3662-.102588.22205-.194787.60254-.194787.62981 0 .0649.06493.0649.07921.0649.06493 0 .07142-.009.110379-.15064.10908-.4584.238938-.76876.472682-.76876.127261 0 .199981.0831.199981.29608 0 .13635-.01948.20907-.102588.5441z"/></g><path d="m101.90666 135.3586-.001-.0961-.007-.0948-.0104-.0922-.013-.0909-.0169-.0883-.0221-.0857-.0234-.0831-.0286-.0805-.0312-.0779-.0351-.0766-.0377-.0727-.0416-.0701-.0441-.0675-.0481-.0649-.0506-.061-.0532-.0584-.0558-.0558-.0597-.0532-.061-.0493-.0636-.0455-.0675-.0429-.0688-.039-.0714-.0364-.074-.0325-.0766-.0286-.0779-.026-.0805-.0208-.0831-.0182-.0831-.013-.087-.0104-.0883-.006-.0896-.001-.0377.16233c.53111 0 1.11288.361 1.11288 1.32454 0 .46619-.17401 1.47519-.81551 2.27252-.31036.39346-.841478.77525-1.382985.77525-.641497 0-1.093402-.52333-1.093402-1.37779 0-.28439.0883-1.22976.588256-1.98683.445412-.67136 1.079118-1.00769 1.590761-1.00769l.0377-.16233c-1.395975 0-2.820515 1.46869-2.820515 2.97634 0 1.07263.724607 1.72581 1.658284 1.72581 1.370001 0 2.814021-1.41545 2.814021-2.96205z" fill-rule="evenodd"/><g fill-rule="evenodd" transform="translate(5.051394 24.695704)"><path d="m81.565705 117.75803-.0091.008-.0091.009-.01039.009-.01039.009-.01039.0104-.01169.0104-.01169.0117-.01299.0104-.01169.0117-.01299.0117-.02597.0247-.02467.026-.02467.026-.01169.0143-.01169.013-.01169.013-.01039.013-.01039.0143-.01039.013-.0091.013-.0091.013-.0065.013-.0078.013-.0052.013-.0052.0117-.0039.0117-.0039.0117-.0013.0117-.0013.0117c0 .0649.06493.12985.129858.12985.05974 0 .0922-.0467.124664-.0857.07662-.0974.224654-.2779.511639-.42074.04415-.026.109081-.0584.109081-.13505 0-.0649-.04415-.0974-.0909-.12986-.142843-.0974-.212966-.21297-.266208-.3675-.01169-.0584-.03896-.14414-.128559-.14414-.0909 0-.129858.0857-.129858.13635 0 .0325.05194.23894.154531.37529h-2.179013c-.109081 0-.227252 0-.227252.12986 0 .12985.118171.12985.227252.12985z"/><path d="m80.790454 118.8865v-.001-.001-.003-.001-.003-.003l-.0013-.003v-.003l-.0013-.003v-.003l-.0013-.003-.0013-.004-.0013-.003-.0013-.004-.0026-.003-.0013-.004-.0026-.003-.0026-.003-.0026-.004-.0013-.001-.0026-.001-.0013-.001-.0013-.001-.0026-.001-.0013-.001-.0026-.001-.0026-.001-.0013-.001-.0026-.001h-.0026l-.0026-.001-.0026-.001h-.0026l-.0026-.001-.0039-.001h-.0026-.0026l-.0039-.001h-.0026-.0039l-.0039-.001h-.0039-.0039c-.09739 0-.71162.0597-.820701.0714-.05324.006-.0922.039-.0922.12336 0 .0779.05974.0779.157128.0779.309062 0 .322048.0442.322048.10908l-.01818.12986-.389573 1.53362c-.115482-.23932-.303776-.41333-.594657-.41333l.0065.14154c.419441 0 .51164.52982.51164.56748 0 .0416-.01299.0792-.01948.11168l-.324644 1.26871c-.03246.11557-.03246.12726-.129858.23894-.28309.35581-.549298.4584-.7298.4584-.322048 0-.414247-.35452-.414247-.60774 0-.32334.206474-1.11807.355811-1.41675.199981-.38178.492161-.62072.750577-.62072l-.0065-.14154c-.757071 0-1.558294.94926-1.558294 1.89462 0 .60904.355811 1.03497.859659 1.03497.128559 0 .453203-.0273.84018-.48567.05324.2727.279194.48567.588255.48567.227251 0 .376588-.14804.479175-.35581.110379-.23245.194787-.62851.194787-.6402 0-.0649-.05844-.0649-.07662-.0649-.06493 0-.07142.026-.0909.11687-.110379.42074-.227251.80123-.490862.80123-.175308 0-.194786-.16752-.194786-.29738 0-.15453.01169-.20128.03766-.31036z"/></g><path d="m66.140042 138.65955.02727-.16622.440218-1.76087c.05584-.22595.07012-.24543.348019-.24543h.62072c.53891 0 .881734.17401.881734.62072 0 .25322-.129858.80901-.381782 1.04276-.324644.28958-.71162.34282-.998606.34282h-.910303l-.02727.16622h1.099895c.919393 0 1.818009-.67137 1.818009-1.39597 0-.49866-.425933-.97783-1.273905-.97783h-2.095904c-.124663 0-.194786 0-.194786.12336 0 .0779.05843.0779.188293.0779.08311 0 .20128.005.277896.0117.103886.0143.142843.0325.142843.10388 0 .026-.0065.0468-.02727.12337l-.866151 3.47369c-.06493.25322-.07662.30387-.588256.30387-.10908 0-.180502 0-.180502.12466 0 .0766.07662.0766.0948.0766.1831 0 .641498-.0208.822-.0208.136351 0 .277895.009.414246.009.144142 0 .285687.0117.422038.0117.04415 0 .12726 0 .12726-.12986 0-.0714-.05584-.0714-.180502-.0714-.238938 0-.41944 0-.41944-.11558 0-.0376.01169-.0701.01818-.10908z" fill-rule="evenodd"/><circle cx="134.5386" cy="157.1488" fill="#fff" fill-opacity=".721992" r="15.308036" stroke="#000" stroke-linecap="round" stroke-width=".465"/><circle cx="139.74155" cy="164.11047" r="1.511906" stroke="#000" stroke-linecap="round" stroke-width=".865"/><circle cx="144.54115" cy="145.52875" r=".924102" stroke="#000" stroke-linecap="round" stroke-width=".528702"/><ellipse cx="134.55841" cy="157.16589" rx=".206887" ry=".213062" stroke="#000" stroke-linecap="round" stroke-width=".791738"/><g fill-rule="evenodd" transform="translate(78.015977 28.437478)"><path d="m477.12 434-6.63 6.78-6.67-6.78.89-.89 5.78 5.07 5.74-5.07z" transform="matrix(.12985776 0 0 -.12985776 -3.640464 176.05378)"/><path d="m56.082418 122.92378-.0026.009-.0013.0104-.0026.009-.0026.0104-.0039.0208-.0052.0208-.0052.0208-.0052.0208-.0039.0208-.0052.0208-.0026.0104-.0013.009-.0026.009-.0013.009-.0026.009-.0013.009-.0026.008-.0013.008-.0013.008-.0013.006-.0013.006v.005l-.0013.005v.005l-.0013.004v.003c0 .11558.0922.17531.186995.17531.07921 0 .194787-.0506.238938-.1805.0091-.0143.08571-.31686.124664-.47918l.141545-.58176c.03896-.14284.07791-.28439.10908-.43502.02727-.10908.07921-.29608.08571-.32205.09739-.20128.440218-.78954 1.053147-.78954.29218 0 .350616.23894.350616.45191 0 .40256-.318152 1.22975-.422038 1.50765-.05584.14803-.06233.22725-.06233.29867 0 .30257.224654.52982.52982.52982.607734 0 .847971-.94407.847971-.99601 0-.0649-.05844-.0649-.07921-.0649-.06233 0-.06233.0195-.09609.11687-.129858.43892-.342824.80123-.660976.80123-.10908 0-.154531-.0649-.154531-.21297 0-.16232.05974-.31815.115574-.4597.124663-.34282.396066-1.05314.396066-1.42324 0-.43372-.277896-.69084-.744085-.69084-.583061 0-.899914.41295-1.008995.56098-.03246-.3623-.298673-.56098-.596047-.56098-.296076 0-.420739.25062-.485668.3662-.102588.22205-.194787.60254-.194787.62981 0 .0649.06493.0649.07921.0649.06493 0 .07142-.009.110379-.15064.10908-.4584.238938-.76876.472682-.76876.127261 0 .199981.0831.199981.29608 0 .13635-.01948.20907-.102588.5441z"/></g><path d="m138.10832 167.81848-.001-.0961-.007-.0948-.0104-.0922-.013-.0909-.0169-.0883-.0221-.0857-.0234-.0831-.0286-.0805-.0312-.0779-.0351-.0766-.0377-.0727-.0416-.0701-.0441-.0675-.0481-.0649-.0506-.061-.0532-.0584-.0558-.0558-.0597-.0532-.061-.0493-.0636-.0455-.0675-.0429-.0688-.039-.0714-.0364-.074-.0325-.0766-.0286-.0779-.026-.0805-.0208-.0831-.0182-.0831-.013-.087-.0104-.0883-.006-.0896-.001-.0377.16233c.53111 0 1.11288.361 1.11288 1.32454 0 .46619-.17401 1.47519-.81551 2.27252-.31036.39346-.84148.77525-1.38299.77525-.6415 0-1.0934-.52333-1.0934-1.37779 0-.28439.0883-1.22976.58825-1.98683.44542-.67136 1.07912-1.00769 1.59077-1.00769l.0377-.16233c-1.39598 0-2.82052 1.46869-2.82052 2.97634 0 1.07263.72461 1.72581 1.65828 1.72581 1.37001 0 2.81403-1.41545 2.81403-2.96205z" fill-rule="evenodd"/><g fill-rule="evenodd" transform="translate(65.855212 37.043556)"><path d="m81.565705 117.75803-.0091.008-.0091.009-.01039.009-.01039.009-.01039.0104-.01169.0104-.01169.0117-.01299.0104-.01169.0117-.01299.0117-.02597.0247-.02467.026-.02467.026-.01169.0143-.01169.013-.01169.013-.01039.013-.01039.0143-.01039.013-.0091.013-.0091.013-.0065.013-.0078.013-.0052.013-.0052.0117-.0039.0117-.0039.0117-.0013.0117-.0013.0117c0 .0649.06493.12985.129858.12985.05974 0 .0922-.0467.124664-.0857.07662-.0974.224654-.2779.511639-.42074.04415-.026.109081-.0584.109081-.13505 0-.0649-.04415-.0974-.0909-.12986-.142843-.0974-.212966-.21297-.266208-.3675-.01169-.0584-.03896-.14414-.128559-.14414-.0909 0-.129858.0857-.129858.13635 0 .0325.05194.23894.154531.37529h-2.179013c-.109081 0-.227252 0-.227252.12986 0 .12985.118171.12985.227252.12985z"/><path d="m80.790454 118.8865v-.001-.001-.003-.001-.003-.003l-.0013-.003v-.003l-.0013-.003v-.003l-.0013-.003-.0013-.004-.0013-.003-.0013-.004-.0026-.003-.0013-.004-.0026-.003-.0026-.003-.0026-.004-.0013-.001-.0026-.001-.0013-.001-.0013-.001-.0026-.001-.0013-.001-.0026-.001-.0026-.001-.0013-.001-.0026-.001h-.0026l-.0026-.001-.0026-.001h-.0026l-.0026-.001-.0039-.001h-.0026-.0026l-.0039-.001h-.0026-.0039l-.0039-.001h-.0039-.0039c-.09739 0-.71162.0597-.820701.0714-.05324.006-.0922.039-.0922.12336 0 .0779.05974.0779.157128.0779.309062 0 .322048.0442.322048.10908l-.01818.12986-.389573 1.53362c-.115482-.23932-.303776-.41333-.594657-.41333l.0065.14154c.419441 0 .51164.52982.51164.56748 0 .0416-.01299.0792-.01948.11168l-.324644 1.26871c-.03246.11557-.03246.12726-.129858.23894-.28309.35581-.549298.4584-.7298.4584-.322048 0-.414247-.35452-.414247-.60774 0-.32334.206474-1.11807.355811-1.41675.199981-.38178.492161-.62072.750577-.62072l-.0065-.14154c-.757071 0-1.558294.94926-1.558294 1.89462 0 .60904.355811 1.03497.859659 1.03497.128559 0 .453203-.0273.84018-.48567.05324.2727.279194.48567.588255.48567.227251 0 .376588-.14804.479175-.35581.110379-.23245.194787-.62851.194787-.6402 0-.0649-.05844-.0649-.07662-.0649-.06493 0-.07142.026-.0909.11687-.110379.42074-.227251.80123-.490862.80123-.175308 0-.194786-.16752-.194786-.29738 0-.15453.01169-.20128.03766-.31036z"/></g><path d="m142.65931 138.65955.0273-.16622.44022-1.76087c.0558-.22595.0701-.24543.34801-.24543h.62072c.53891 0 .88174.17401.88174.62072 0 .25322-.12986.80901-.38178 1.04276-.32465.28958-.71162.34282-.99861.34282h-.9103l-.0273.16622h1.09989c.9194 0 1.81801-.67137 1.81801-1.39597 0-.49866-.42593-.97783-1.2739-.97783h-2.09591c-.12466 0-.19478 0-.19478.12336 0 .0779.0584.0779.18829.0779.0831 0 .20128.005.2779.0117.10388.0143.14284.0325.14284.10388 0 .026-.006.0468-.0273.12337l-.86615 3.47369c-.0649.25322-.0766.30387-.58826.30387-.10908 0-.1805 0-.1805.12466 0 .0766.0766.0766.0948.0766.1831 0 .6415-.0208.822-.0208.13635 0 .27789.009.41425.009.14414 0 .28568.0117.42203.0117.0442 0 .12726 0 .12726-.12986 0-.0714-.0558-.0714-.1805-.0714-.23894 0-.41944 0-.41944-.11558 0-.0376.0117-.0701.0182-.10908z" fill-rule="evenodd"/><path d="m139.59277 163.9965 4.71604-15.35752" fill="none" marker-end="url(#b)" stroke="#000" stroke-width=".465"/><path d="m144.58201 145.69601-9.3094 10.44249" fill="none" marker-end="url(#a)" stroke="#000" stroke-width=".265"/></g></svg>