<svg height="134.13777mm" viewBox="0 0 209.31628 134.13777" width="209.31628mm" xmlns="http://www.w3.org/2000/svg"><g transform="translate(-5.168266 -13.370573)"><g stroke="#000"><path d="m79.559979 50.708143c-4.987698.95574-4.30871-11.015438-.972453-14.550986 5.829824-6.178044 16.478404-3.411239 25.482254.222934-.87013-5.663234 4.10577-13.382716 10.75976-14.202804 6.654-.820089 13.51093 1.915034 15.27491 8.897131-1.01486-4.570954-1.1295-13.590617 8.194-16.712629 9.32351-3.122012 20.4498 3.781819 21.45009 7.916509 5.21133-3.914777 12.93735-4.643906 18.97634-2.280144 9.1838 6.631585 16.8638 16.603697 11.9767 21.017504 6.8401-1.195857 18.57856 4.406161 20.61392 10.491589.90307 6.007923 5.62348 15.898692-5.76734 17.029975 4.179-.982423 10.01988 9.292509 8.4741 14.233095-2.05477 5.393644-8.6674 5.627944-11.69157 8.15479 6.99227 2.764345-2.8787 23.518243-9.46095 22.568993.96375 10.71916-10.86988 12.35112-18.7582 9.63842-3.70613 5.49927-7.73771 9.03072-13.46705 11.94407-9.16747 3.14046-19.03464 3.21566-28.59853 3.29538-4.79668-.56202-9.31373-5.09608-8.22076-10.1493-4.38363 8.43493-16.09347 6.74544-23.55811 3.9712-8.569806-3.18498-18.265094-14.40999-17.503699-21.11613-3.988364 7.49839-13.495677 8.12556-20.297133 3.89755-5.950141-4.12745-8.196863-15.649408-1.989865-22.887007-7.928134-3.146581-8.970608-7.346817-11.669081-14.47155-2.698472-7.124731 2.442168-17.077239 7.82207-21.616865 5.335878-5.396781 14.757446-4.915436 22.930597-5.291725" fill="none" stroke-width=".407706"/><path d="m5.256612 18.332539h29.823307v58.88702h-29.823307z" fill="#ececec" stroke-linecap="round" stroke-width=".176693"/><path d="m5.256688 122.01698h29.823154v14.966036h-29.823154z" fill="#ffe680" stroke-linecap="round" stroke-width=".176845"/></g><text font-family="sans-serif" font-size="6.35" letter-spacing="0" stroke-width=".264583" word-spacing="0" x="18.320316" y="131.23323"><tspan stroke-width=".264583" x="18.320316" y="131.23323">a</tspan></text><path d="m5.278849 92.039146h29.823305v29.921715h-29.823305z" fill="#fca" stroke="#000" stroke-linecap="round" stroke-width=".176695"/><text font-family="sans-serif" font-size="6.35" letter-spacing="0" stroke-width=".264583" word-spacing="0" x="18.060398" y="109.3673"><tspan stroke-width=".264583" x="18.060398" y="109.3673">b</tspan></text><path d="m5.256688 77.146339h29.823154v14.966036h-29.823154z" fill="#ccc" stroke="#000" stroke-linecap="round" stroke-width=".176845"/><text font-family="sans-serif" font-size="6.35" letter-spacing="0" stroke-width=".264583" word-spacing="0" x="18.44434" y="86.362579"><tspan stroke-width=".264583" x="18.44434" y="86.362579">c</tspan></text><g transform="translate(25.135417 -43.65625)"><path d="m149.22659 96.653564h22.851225v15.157459h-22.851225z" fill="#e5ff80" stroke="#000" stroke-linecap="round" stroke-width=".25"/><text font-family="sans-serif" font-size="6.35" letter-spacing="0" stroke-width=".264583" word-spacing="0" x="158.4818" y="106.54688"><tspan stroke-width=".264583" x="158.4818" y="106.54688">A</tspan></text></g><g transform="translate(8.466667 .79375)"><path d="m87.843262 47.705647h47.457474v68.867874h-47.457474z" fill="#afe9dd" stroke="#000" stroke-linecap="round" stroke-width=".25"/><text font-family="sans-serif" font-size="6.35" letter-spacing="0" stroke-width=".264583" word-spacing="0" x="109.30702" y="84.45417"><tspan stroke-width=".264583" x="109.30702" y="84.45417">B</tspan></text></g><text font-family="sans-serif" font-size="6.35" letter-spacing="0" stroke-width=".264583" word-spacing="0" x="11.178117" y="146.1875"><tspan stroke-width=".264583" x="11.178117" y="146.1875">Stack</tspan></text><text font-family="sans-serif" font-size="6.35" letter-spacing="0" stroke-width=".264583" word-spacing="0" x="82.507576" y="146.1875"><tspan stroke-width=".264583" x="82.507576" y="146.1875">Heap (much smaller than real)</tspan></text><g transform="translate(13.229167 -2.116667)"><path d="m149.22659 96.653564h22.851225v15.157459h-22.851225z" fill="#d7d7f4" stroke="#000" stroke-linecap="round" stroke-width=".25"/><text font-family="sans-serif" font-size="6.35" letter-spacing="0" stroke-width=".264583" word-spacing="0" x="158.4818" y="106.54688"><tspan stroke-width=".264583" x="158.4818" y="106.54688">C</tspan></text></g></g></svg>