<svg height="239.085724pt" viewBox="0 0 239.085724 239.085724" width="239.085724pt" xmlns="http://www.w3.org/2000/svg" xmlns:xlink="http://www.w3.org/1999/xlink"><clipPath id="a"><path d="m0 0h238v238h-238zm0 0"/></clipPath><clipPath id="b"><path d="m237.777344 119.085938c0 65.550781-53.140625 118.691406-118.691406 118.691406-65.546876 0-118.691407-53.140625-118.691407-118.691406 0-65.550782 53.144531-118.6875 118.691407-118.6875 65.550781 0 118.691406 53.136718 118.691406 118.6875zm0 0"/></clipPath><radialGradient id="c" cx="316.480409" cy="263.233809" gradientTransform="matrix(-.675554 .888229 -.703663 -.53518 556.254925 -75.220872)" gradientUnits="userSpaceOnUse" r="136.508332"><stop offset="0" stop-color="#fff"/><stop offset=".0078125" stop-color="#fefefe"/><stop offset=".0117188" stop-color="#fdfdfd"/><stop offset=".015625" stop-color="#fdfdfd"/><stop offset=".0195312" stop-color="#fcfcfc"/><stop offset=".0234375" stop-color="#fcfcfc"/><stop offset=".0273438" stop-color="#fbfbfb"/><stop offset=".03125" stop-color="#fbfbfb"/><stop offset=".0351562" stop-color="#fafafa"/><stop offset=".0390625" stop-color="#fafafa"/><stop offset=".0429688" stop-color="#fafafa"/><stop offset=".046875" stop-color="#f9f9f9"/><stop offset=".0507812" stop-color="#f9f9f9"/><stop offset=".0546875" stop-color="#f8f8f8"/><stop offset=".0585938" stop-color="#f8f8f8"/><stop offset=".0625" stop-color="#f7f7f7"/><stop offset=".0664062" stop-color="#f7f7f7"/><stop offset=".0703125" stop-color="#f6f6f6"/><stop offset=".0742188" stop-color="#f6f6f6"/><stop offset=".078125" stop-color="#f5f5f5"/><stop offset=".0820312" stop-color="#f5f5f5"/><stop offset=".0859375" stop-color="#f4f4f4"/><stop offset=".0898438" stop-color="#f4f4f4"/><stop offset=".09375" stop-color="#f3f3f3"/><stop offset=".0976562" stop-color="#f3f3f3"/><stop offset=".101562" stop-color="#f2f2f2"/><stop offset=".105469" stop-color="#f2f2f2"/><stop offset=".109375" stop-color="#f1f1f1"/><stop offset=".113281" stop-color="#f1f1f1"/><stop offset=".117188" stop-color="#f0f0f0"/><stop offset=".121094" stop-color="#f0f0f0"/><stop offset=".125" stop-color="#f0f0f0"/><stop offset=".128906" stop-color="#efefef"/><stop offset=".132812" stop-color="#efefef"/><stop offset=".136719" stop-color="#eee"/><stop offset=".140625" stop-color="#eee"/><stop offset=".144531" stop-color="#ededed"/><stop offset=".148438" stop-color="#ededed"/><stop offset=".152344" stop-color="#ececec"/><stop offset=".15625" stop-color="#ececec"/><stop offset=".160156" stop-color="#ebebeb"/><stop offset=".164062" stop-color="#ebebeb"/><stop offset=".167969" stop-color="#eaeaea"/><stop offset=".171875" stop-color="#eaeaea"/><stop offset=".175781" stop-color="#e9e9e9"/><stop offset=".179688" stop-color="#e9e9e9"/><stop offset=".183594" stop-color="#e8e8e8"/><stop offset=".1875" stop-color="#e8e8e8"/><stop offset=".191406" stop-color="#e7e7e7"/><stop offset=".195312" stop-color="#e7e7e7"/><stop offset=".199219" stop-color="#e6e6e6"/><stop offset=".203125" stop-color="#e6e6e6"/><stop offset=".207031" stop-color="#e6e6e6"/><stop offset=".210938" stop-color="#e5e5e5"/><stop offset=".214844" stop-color="#e5e5e5"/><stop offset=".21875" stop-color="#e4e4e4"/><stop offset=".222656" stop-color="#e4e4e4"/><stop offset=".226562" stop-color="#e3e3e3"/><stop offset=".230469" stop-color="#e3e3e3"/><stop offset=".234375" stop-color="#e2e2e2"/><stop offset=".238281" stop-color="#e2e2e2"/><stop offset=".242188" stop-color="#e1e1e1"/><stop offset=".246094" stop-color="#e1e1e1"/><stop offset=".25" stop-color="#e0e0e0"/><stop offset=".253906" stop-color="#e0e0e0"/><stop offset=".261719" stop-color="#dfdfdf"/><stop offset=".269531" stop-color="#dedede"/><stop offset=".277344" stop-color="#ddd"/><stop offset=".285156" stop-color="#dcdcdc"/><stop offset=".292969" stop-color="#dbdbdb"/><stop offset=".300781" stop-color="#dadada"/><stop offset=".308594" stop-color="#d9d9d9"/><stop offset=".316406" stop-color="#d8d8d8"/><stop offset=".324219" stop-color="#d7d7d7"/><stop offset=".332031" stop-color="#d6d6d6"/><stop offset=".339844" stop-color="#d5d5d5"/><stop offset=".347656" stop-color="#d4d4d4"/><stop offset=".355469" stop-color="#d3d3d3"/><stop offset=".363281" stop-color="#d2d2d2"/><stop offset=".371094" stop-color="#d1d1d1"/><stop offset=".378906" stop-color="#d0d0d0"/><stop offset=".386719" stop-color="#cfcfcf"/><stop offset=".394531" stop-color="#cecece"/><stop offset=".402344" stop-color="#cdcdcd"/><stop offset=".410156" stop-color="#ccc"/><stop offset=".417969" stop-color="#ccc"/><stop offset=".425781" stop-color="#cbcbcb"/><stop offset=".433594" stop-color="#cacaca"/><stop offset=".441406" stop-color="#c9c9c9"/><stop offset=".449219" stop-color="#c8c8c8"/><stop offset=".457031" stop-color="#c7c7c7"/><stop offset=".464844" stop-color="#c6c6c6"/><stop offset=".472656" stop-color="#c5c5c5"/><stop offset=".480469" stop-color="#c4c4c4"/><stop offset=".488281" stop-color="#c3c3c3"/><stop offset=".496094" stop-color="#c2c2c2"/><stop offset=".503906" stop-color="#c1c1c1"/><stop offset=".507812" stop-color="#c1c1c1"/><stop offset=".511719" stop-color="#c0c0c0"/><stop offset=".515625" stop-color="#c0c0c0"/><stop offset=".519531" stop-color="#bfbfbf"/><stop offset=".523438" stop-color="#bfbfbf"/><stop offset=".527344" stop-color="#bebebe"/><stop offset=".53125" stop-color="#bebebe"/><stop offset=".535156" stop-color="#bdbdbd"/><stop offset=".539062" stop-color="#bdbdbd"/><stop offset=".542969" stop-color="#bdbdbd"/><stop offset=".546875" stop-color="#bcbcbc"/><stop offset=".550781" stop-color="#bcbcbc"/><stop offset=".554688" stop-color="#bbb"/><stop offset=".558594" stop-color="#bbb"/><stop offset=".5625" stop-color="#bababa"/><stop offset=".566406" stop-color="#bababa"/><stop offset=".570312" stop-color="#b9b9b9"/><stop offset=".574219" stop-color="#b9b9b9"/><stop offset=".578125" stop-color="#b8b8b8"/><stop offset=".582031" stop-color="#b8b8b8"/><stop offset=".585938" stop-color="#b7b7b7"/><stop offset=".589844" stop-color="#b7b7b7"/><stop offset=".59375" stop-color="#b6b6b6"/><stop offset=".597656" stop-color="#b6b6b6"/><stop offset=".601562" stop-color="#b5b5b5"/><stop offset=".605469" stop-color="#b5b5b5"/><stop offset=".609375" stop-color="#b4b4b4"/><stop offset=".613281" stop-color="#b4b4b4"/><stop offset=".617188" stop-color="#b3b3b3"/><stop offset=".621094" stop-color="#b3b3b3"/><stop offset=".625" stop-color="#b3b3b3"/><stop offset=".628906" stop-color="#b2b2b2"/><stop offset=".636719" stop-color="#b1b1b1"/><stop offset=".644531" stop-color="#b0b0b0"/><stop offset=".652344" stop-color="#afafaf"/><stop offset=".660156" stop-color="#aeaeae"/><stop offset=".667969" stop-color="#adadad"/><stop offset=".675781" stop-color="#acacac"/><stop offset=".683594" stop-color="#ababab"/><stop offset=".691406" stop-color="#aaa"/><stop offset=".699219" stop-color="#a9a9a9"/><stop offset=".707031" stop-color="#a8a8a8"/><stop offset=".714844" stop-color="#a7a7a7"/><stop offset=".722656" stop-color="#a6a6a6"/><stop offset=".730469" stop-color="#a5a5a5"/><stop offset=".738281" stop-color="#a4a4a4"/><stop offset=".746094" stop-color="#a3a3a3"/><stop offset=".753906" stop-color="#a3a3a3"/><stop offset=".757812" stop-color="#a2a2a2"/><stop offset=".761719" stop-color="#a2a2a2"/><stop offset=".765625" stop-color="#a1a1a1"/><stop offset=".769531" stop-color="#a1a1a1"/><stop offset=".773438" stop-color="#a0a0a0"/><stop offset=".777344" stop-color="#a0a0a0"/><stop offset=".78125" stop-color="#9f9f9f"/><stop offset=".785156" stop-color="#9f9f9f"/><stop offset=".789062" stop-color="#9e9e9e"/><stop offset=".792969" stop-color="#9e9e9e"/><stop offset=".796875" stop-color="#9e9e9e"/><stop offset=".800781" stop-color="#9d9d9d"/><stop offset=".804688" stop-color="#9d9d9d"/><stop offset=".808594" stop-color="#9c9c9c"/><stop offset=".8125" stop-color="#9c9c9c"/><stop offset=".816406" stop-color="#9b9b9b"/><stop offset=".824219" stop-color="#9a9a9a"/><stop offset=".832031" stop-color="#999"/><stop offset=".839844" stop-color="#989898"/><stop offset=".847656" stop-color="#979797"/><stop offset=".855469" stop-color="#969696"/><stop offset=".863281" stop-color="#959595"/><stop offset=".871094" stop-color="#949494"/><stop offset=".878906" stop-color="#949494"/><stop offset=".882812" stop-color="#939393"/><stop offset=".886719" stop-color="#939393"/><stop offset=".890625" stop-color="#929292"/><stop offset=".894531" stop-color="#929292"/><stop offset=".898438" stop-color="#919191"/><stop offset=".902344" stop-color="#919191"/><stop offset=".90625" stop-color="#909090"/><stop offset=".910156" stop-color="#8f8f8f"/><stop offset=".917969" stop-color="#8f8f8f"/><stop offset=".925781" stop-color="#8e8e8e"/><stop offset=".933594" stop-color="#8d8d8d"/><stop offset=".941406" stop-color="#8c8c8c"/><stop offset=".945312" stop-color="#8b8b8b"/><stop offset=".949219" stop-color="#8b8b8b"/><stop offset=".953125" stop-color="#8a8a8a"/><stop offset=".957031" stop-color="#8a8a8a"/><stop offset=".964844" stop-color="#898989"/><stop offset=".972656" stop-color="#888"/><stop offset=".976562" stop-color="#888"/><stop offset=".980469" stop-color="#878787"/><stop offset=".988281" stop-color="#868686"/><stop offset=".992188" stop-color="#858585"/><stop offset="1" stop-color="#858585"/></radialGradient><clipPath id="d"><path d="m0 0h238.175781v238.175781h-238.175781zm0 0"/></clipPath><clipPath id="e"><path d="m146 21h76v111h-76zm0 0"/></clipPath><clipPath id="f"><path d="m146.695312 52.199219c-2.695312 11.632812 5.210938 22.589843 14.300782 28.976562 5.421875 5.570313 15.734375 6.871094 17.355468 15.414063 2.640626 9.671875-2.1875 21.191406 4.941407 29.484375 9.371093 9.851562 26.441406 5.351562 33.09375-5.4375 4.402343-6.363281 4.007812-14.417969 4.941406-21.773438.757813-11.019531-2.6875-22.351562-10.523437-30.3125-7.292969-10.519531-22.355469-13.6875-26.953126-26.34375.242188-7.042969-1.378906-15.050781-8.257812-18.601562-6.183594-4.078125-15.523438-3.21875-19.640625 3.390625-5.707031 7.128906-8.429687 16.222656-9.257813 25.203125zm0 0"/></clipPath><radialGradient id="g" cx="362.379271" cy="291.277719" gradientTransform="matrix(.812414 0 0 1.187586 -122.559901 -280.401737)" gradientUnits="userSpaceOnUse" r="46.815324"><stop offset="0" stop-color="#fbe4dc"/><stop offset=".00390625" stop-color="#fbe3db"/><stop offset=".0078125" stop-color="#fbe3da"/><stop offset=".0117188" stop-color="#fbe2da"/><stop offset=".015625" stop-color="#fbe2d9"/><stop offset=".0195312" stop-color="#fbe1d9"/><stop offset=".0234375" stop-color="#fae1d8"/><stop offset=".0273438" stop-color="#fae0d7"/><stop offset=".03125" stop-color="#fae0d7"/><stop offset=".0351562" stop-color="#fae0d6"/><stop offset=".0390625" stop-color="#fadfd6"/><stop offset=".0429688" stop-color="#fadfd5"/><stop offset=".046875" stop-color="#faded4"/><stop offset=".0507812" stop-color="#faded4"/><stop offset=".0546875" stop-color="#faddd3"/><stop offset=".0585938" stop-color="#faddd3"/><stop offset=".0625" stop-color="#fadcd2"/><stop offset=".0664062" stop-color="#fadcd1"/><stop offset=".0703125" stop-color="#fadbd1"/><stop offset=".0742188" stop-color="#f9dbd0"/><stop offset=".078125" stop-color="#f9dad0"/><stop offset=".0820312" stop-color="#f9dacf"/><stop offset=".0859375" stop-color="#f9d9ce"/><stop offset=".0898438" stop-color="#f9d9ce"/><stop offset=".09375" stop-color="#f9d9cd"/><stop offset=".0976562" stop-color="#f9d8cd"/><stop offset=".101562" stop-color="#f9d8cc"/><stop offset=".105469" stop-color="#f9d7cb"/><stop offset=".109375" stop-color="#f9d7cb"/><stop offset=".113281" stop-color="#f9d6ca"/><stop offset=".117188" stop-color="#f9d6ca"/><stop offset=".121094" stop-color="#f9d5c9"/><stop offset=".125" stop-color="#f8d5c8"/><stop offset=".128906" stop-color="#f8d4c8"/><stop offset=".132812" stop-color="#f8d4c7"/><stop offset=".136719" stop-color="#f8d3c7"/><stop offset=".140625" stop-color="#f8d3c6"/><stop offset=".144531" stop-color="#f8d2c5"/><stop offset=".148438" stop-color="#f8d2c5"/><stop offset=".152344" stop-color="#f8d1c4"/><stop offset=".15625" stop-color="#f8d1c3"/><stop offset=".160156" stop-color="#f8d1c3"/><stop offset=".164062" stop-color="#f8d0c2"/><stop offset=".167969" stop-color="#f8d0c2"/><stop offset=".171875" stop-color="#f8cfc1"/><stop offset=".175781" stop-color="#f7cfc0"/><stop offset=".179688" stop-color="#f7cec0"/><stop offset=".183594" stop-color="#f7cebf"/><stop offset=".1875" stop-color="#f7cdbf"/><stop offset=".191406" stop-color="#f7cdbe"/><stop offset=".195312" stop-color="#f7ccbd"/><stop offset=".199219" stop-color="#f7ccbd"/><stop offset=".203125" stop-color="#f7cbbc"/><stop offset=".207031" stop-color="#f7cbbc"/><stop offset=".210938" stop-color="#f7cabb"/><stop offset=".214844" stop-color="#f7caba"/><stop offset=".21875" stop-color="#f7caba"/><stop offset=".222656" stop-color="#f7c9b9"/><stop offset=".226562" stop-color="#f6c9b9"/><stop offset=".230469" stop-color="#f6c8b8"/><stop offset=".234375" stop-color="#f6c8b7"/><stop offset=".238281" stop-color="#f6c7b7"/><stop offset=".242188" stop-color="#f6c7b6"/><stop offset=".246094" stop-color="#f6c6b6"/><stop offset=".25" stop-color="#f6c6b5"/><stop offset=".253906" stop-color="#f6c5b4"/><stop offset=".257812" stop-color="#f6c5b4"/><stop offset=".261719" stop-color="#f6c4b3"/><stop offset=".265625" stop-color="#f6c4b3"/><stop offset=".269531" stop-color="#f6c3b2"/><stop offset=".273438" stop-color="#f5c3b1"/><stop offset=".277344" stop-color="#f5c2b1"/><stop offset=".28125" stop-color="#f5c2b0"/><stop offset=".285156" stop-color="#f5c2af"/><stop offset=".289062" stop-color="#f5c1af"/><stop offset=".292969" stop-color="#f5c1ae"/><stop offset=".296875" stop-color="#f5c0ae"/><stop offset=".300781" stop-color="#f5c0ad"/><stop offset=".304688" stop-color="#f5bfac"/><stop offset=".308594" stop-color="#f5bfac"/><stop offset=".3125" stop-color="#f5beab"/><stop offset=".316406" stop-color="#f5beab"/><stop offset=".320312" stop-color="#f5bdaa"/><stop offset=".324219" stop-color="#f4bda9"/><stop offset=".328125" stop-color="#f4bca9"/><stop offset=".332031" stop-color="#f4bca8"/><stop offset=".335938" stop-color="#f4bba8"/><stop offset=".339844" stop-color="#f4bba7"/><stop offset=".34375" stop-color="#f4bba6"/><stop offset=".347656" stop-color="#f4baa6"/><stop offset=".351562" stop-color="#f4baa5"/><stop offset=".355469" stop-color="#f4b9a5"/><stop offset=".359375" stop-color="#f4b9a4"/><stop offset=".363281" stop-color="#f4b8a3"/><stop offset=".367188" stop-color="#f4b8a3"/><stop offset=".371094" stop-color="#f4b7a2"/><stop offset=".375" stop-color="#f3b7a2"/><stop offset=".378906" stop-color="#f3b6a1"/><stop offset=".382812" stop-color="#f3b6a0"/><stop offset=".386719" stop-color="#f3b5a0"/><stop offset=".390625" stop-color="#f3b59f"/><stop offset=".394531" stop-color="#f3b49f"/><stop offset=".398438" stop-color="#f3b49e"/><stop offset=".402344" stop-color="#f3b39d"/><stop offset=".40625" stop-color="#f3b39d"/><stop offset=".410156" stop-color="#f3b39c"/><stop offset=".414062" stop-color="#f3b29c"/><stop offset=".417969" stop-color="#f3b29b"/><stop offset=".421875" stop-color="#f3b19a"/><stop offset=".425781" stop-color="#f2b19a"/><stop offset=".429688" stop-color="#f2b099"/><stop offset=".433594" stop-color="#f2b098"/><stop offset=".4375" stop-color="#f2af98"/><stop offset=".441406" stop-color="#f2af97"/><stop offset=".445312" stop-color="#f2ae97"/><stop offset=".449219" stop-color="#f2ae96"/><stop offset=".453125" stop-color="#f2ad95"/><stop offset=".457031" stop-color="#f2ad95"/><stop offset=".460938" stop-color="#f2ac94"/><stop offset=".464844" stop-color="#f2ac94"/><stop offset=".46875" stop-color="#f2ac93"/><stop offset=".472656" stop-color="#f2ab92"/><stop offset=".476562" stop-color="#f1ab92"/><stop offset=".480469" stop-color="#f1aa91"/><stop offset=".484375" stop-color="#f1aa91"/><stop offset=".488281" stop-color="#f1a990"/><stop offset=".492188" stop-color="#f1a98f"/><stop offset=".496094" stop-color="#f1a88f"/><stop offset=".5" stop-color="#f1a88e"/><stop offset=".503906" stop-color="#f1a78e"/><stop offset=".507812" stop-color="#f1a78d"/><stop offset=".511719" stop-color="#f1a68c"/><stop offset=".515625" stop-color="#f1a68c"/><stop offset=".519531" stop-color="#f1a58b"/><stop offset=".523438" stop-color="#f0a58b"/><stop offset=".527344" stop-color="#f0a48a"/><stop offset=".53125" stop-color="#f0a489"/><stop offset=".535156" stop-color="#f0a489"/><stop offset=".539062" stop-color="#f0a388"/><stop offset=".542969" stop-color="#f0a388"/><stop offset=".546875" stop-color="#f0a287"/><stop offset=".550781" stop-color="#f0a286"/><stop offset=".554688" stop-color="#f0a186"/><stop offset=".558594" stop-color="#f0a185"/><stop offset=".5625" stop-color="#f0a085"/><stop offset=".566406" stop-color="#f0a084"/><stop offset=".570312" stop-color="#f09f83"/><stop offset=".574219" stop-color="#ef9f83"/><stop offset=".578125" stop-color="#ef9e82"/><stop offset=".582031" stop-color="#ef9e81"/><stop offset=".585938" stop-color="#ef9d81"/><stop offset=".589844" stop-color="#ef9d80"/><stop offset=".59375" stop-color="#ef9d80"/><stop offset=".597656" stop-color="#ef9c7f"/><stop offset=".601562" stop-color="#ef9c7e"/><stop offset=".605469" stop-color="#ef9b7e"/><stop offset=".609375" stop-color="#ef9b7d"/><stop offset=".613281" stop-color="#ef9a7d"/><stop offset=".617188" stop-color="#ef9a7c"/><stop offset=".621094" stop-color="#ef997b"/><stop offset=".625" stop-color="#ee997b"/><stop offset=".628906" stop-color="#ee987a"/><stop offset=".632812" stop-color="#ee987a"/><stop offset=".636719" stop-color="#ee9779"/><stop offset=".640625" stop-color="#ee9778"/><stop offset=".644531" stop-color="#ee9678"/><stop offset=".648438" stop-color="#ee9677"/><stop offset=".652344" stop-color="#ee9577"/><stop offset=".65625" stop-color="#ee9576"/><stop offset=".660156" stop-color="#ee9575"/><stop offset=".664062" stop-color="#ee9475"/><stop offset=".667969" stop-color="#ee9474"/><stop offset=".671875" stop-color="#ee9374"/><stop offset=".675781" stop-color="#ed9373"/><stop offset=".679688" stop-color="#ed9272"/><stop offset=".683594" stop-color="#ed9272"/><stop offset=".6875" stop-color="#ed9171"/><stop offset=".691406" stop-color="#ed9171"/><stop offset=".695312" stop-color="#ed9070"/><stop offset=".699219" stop-color="#ed906f"/><stop offset=".703125" stop-color="#ed8f6f"/><stop offset=".707031" stop-color="#ed8f6e"/><stop offset=".710938" stop-color="#ed8e6e"/><stop offset=".714844" stop-color="#ed8e6d"/><stop offset=".71875" stop-color="#ed8e6c"/><stop offset=".722656" stop-color="#ed8d6c"/><stop offset=".726562" stop-color="#ec8d6b"/><stop offset=".730469" stop-color="#ec8c6a"/><stop offset=".734375" stop-color="#ec8c6a"/><stop offset=".738281" stop-color="#ec8b69"/><stop offset=".742188" stop-color="#ec8b69"/><stop offset=".746094" stop-color="#ec8a68"/><stop offset=".75" stop-color="#ec8a67"/><stop offset=".753906" stop-color="#ec8967"/><stop offset=".757812" stop-color="#ec8966"/><stop offset=".761719" stop-color="#ec8866"/><stop offset=".765625" stop-color="#ec8865"/><stop offset=".769531" stop-color="#ec8764"/><stop offset=".773438" stop-color="#eb8764"/><stop offset=".777344" stop-color="#eb8663"/><stop offset=".78125" stop-color="#eb8663"/><stop offset=".785156" stop-color="#eb8662"/><stop offset=".789062" stop-color="#eb8561"/><stop offset=".792969" stop-color="#eb8561"/><stop offset=".796875" stop-color="#eb8460"/><stop offset=".800781" stop-color="#eb8460"/><stop offset=".804688" stop-color="#eb835f"/><stop offset=".808594" stop-color="#eb835e"/><stop offset=".8125" stop-color="#eb825e"/><stop offset=".816406" stop-color="#eb825d"/><stop offset=".820312" stop-color="#eb815d"/><stop offset=".824219" stop-color="#ea815c"/><stop offset=".828125" stop-color="#ea805b"/><stop offset=".832031" stop-color="#ea805b"/><stop offset=".835938" stop-color="#ea7f5a"/><stop offset=".839844" stop-color="#ea7f5a"/><stop offset=".84375" stop-color="#ea7f59"/><stop offset=".847656" stop-color="#ea7e58"/><stop offset=".851562" stop-color="#ea7e58"/><stop offset=".855469" stop-color="#ea7d57"/><stop offset=".859375" stop-color="#ea7d56"/><stop offset=".863281" stop-color="#ea7c56"/><stop offset=".867188" stop-color="#ea7c55"/><stop offset=".871094" stop-color="#ea7b55"/><stop offset=".875" stop-color="#e97b54"/><stop offset=".878906" stop-color="#e97a53"/><stop offset=".882812" stop-color="#e97a53"/><stop offset=".886719" stop-color="#e97952"/><stop offset=".890625" stop-color="#e97952"/><stop offset=".894531" stop-color="#e97851"/><stop offset=".898438" stop-color="#e97850"/><stop offset=".902344" stop-color="#e97750"/><stop offset=".90625" stop-color="#e9774f"/><stop offset=".910156" stop-color="#e9774f"/><stop offset=".914062" stop-color="#e9764e"/><stop offset=".917969" stop-color="#e9764d"/><stop offset=".921875" stop-color="#e9754d"/><stop offset=".925781" stop-color="#e8754c"/><stop offset=".929688" stop-color="#e8744c"/><stop offset=".933594" stop-color="#e8744b"/><stop offset=".9375" stop-color="#e8734a"/><stop offset=".941406" stop-color="#e8734a"/><stop offset=".945312" stop-color="#e87249"/><stop offset=".949219" stop-color="#e87249"/><stop offset=".953125" stop-color="#e87148"/><stop offset=".957031" stop-color="#e87147"/><stop offset=".960938" stop-color="#e87047"/><stop offset=".964844" stop-color="#e87046"/><stop offset=".96875" stop-color="#e87046"/><stop offset=".972656" stop-color="#e86f45"/><stop offset=".976562" stop-color="#e76f44"/><stop offset=".980469" stop-color="#e76e44"/><stop offset=".984375" stop-color="#e76e43"/><stop offset=".988281" stop-color="#e76d43"/><stop offset=".992188" stop-color="#e76d42"/><stop offset=".996094" stop-color="#e76c41"/><stop offset="1" stop-color="#e76c41"/></radialGradient><g clip-path="url(#a)"><g clip-path="url(#b)"><path d="m352.160156 87.390625-264.769531-201.375-201.375 264.769531 264.769531 201.375zm0 0" fill="url(#c)"/></g></g><g clip-path="url(#d)"><path d="m238.686616 119.541328c0 65.801451-53.343837 119.145288-119.145288 119.145288-65.797529 0-119.145288-53.343837-119.145288-119.145288 0-65.797529 53.347759-119.145288 119.145288-119.145288 65.801451 0 119.145288 53.347759 119.145288 119.145288zm0 0" fill="none" stroke="#000" stroke-linecap="square" stroke-width=".8" transform="scale(.996191)"/></g><path d="m120.741212 122.344977 30.232357-85.948513" fill="none" stroke="#000" stroke-width=".8" transform="scale(.996191)"/><g clip-path="url(#e)"><g clip-path="url(#f)"><path d="m144 19.527344v116.398437h78.085938v-116.398437zm0 0" fill="url(#g)"/></g></g><path d="m147.256283 52.398831c-2.70562 11.677297 5.230864 22.676229 14.355468 29.083449 5.442609 5.595535 15.794544 6.901291 17.421837 15.476928 2.650723 9.708861-2.195865 21.272444 4.960302 29.597125 9.40693 9.889235 26.54252 5.372027 33.220303-5.458293 4.419178-6.387615 4.023138-14.473104 4.960302-21.856701.76071-11.06167-2.697777-22.437036-10.56368-30.428416-7.320857-10.559759-22.440957-13.739842-27.056195-26.44449.243114-7.069901-1.384179-15.108336-8.289391-18.672696-6.20724-4.09372-15.582799-3.231058-19.715731 3.403591-5.728856 7.156168-8.461923 16.284693-9.293215 25.299503zm0 0" fill="none" stroke="#000" stroke-width=".8" transform="scale(.996191)"/><path d="m120.686315 122.399874 74.573148 9.426535" fill="none" stroke="#000" stroke-width=".8" transform="scale(.996191)"/><path d="m153.320312 110.558594h-.585937c-.113281.609375-.207031 1.152344-.414063 1.703125-.117187.375-.1875.570312-1.542968.570312h-1.867188c.300782-1.3125 1.027344-2.433593 2.078125-3.964843 1.097657-1.664063 2.046875-3.273438 2.046875-5.113282 0-3.246094-3.140625-5.855468-7.085937-5.855468-4.007813 0-7.109375 2.664062-7.109375 5.855468 0 1.839844.953125 3.449219 2.046875 5.113282 1.027343 1.53125 1.769531 2.652343 2.078125 3.964843h-1.867188c-1.351562 0-1.421875-.195312-1.539062-.546875-.179688-.53125-.296875-1.140625-.417969-1.726562h-.585937l.777343 3.78125h3.726563c.515625 0 .582031 0 .582031-.492188 0-1.628906-.71875-3.683594-1.257813-5.175781-.492187-1.351563-1.144531-3.195313-1.144531-4.945313 0-3.730468 2.570313-5.316406 4.691407-5.316406 2.238281 0 4.710937 1.679688 4.710937 5.316406 0 1.75-.628906 3.527344-1.3125 5.4375-.34375.976563-1.089844 3.078126-1.089844 4.683594 0 .492188.070313.492188.601563.492188h3.710937zm0 0"/><path d="m120.742188 85.898438-.011719.027343-.003907.035157-.007812.03125-.003906.03125-.015625.070312-.019531.066406-.011719.070313-.015625.0625-.019532.070312-.015624.066407-.003907.03125-.015625.0625-.003906.027343-.011719.03125-.003906.03125-.003906.023438-.003907.027343-.007812.046876-.003906.019531-.003906.015625-.003907.019531v.035156c0 .378907.296875.570313.601563.570313.261718 0 .636718-.160156.785156-.585938.046875-.089844.761719-2.957031.847656-3.335937.164063-.691407.546875-2.167969.671875-2.742188.089844-.269531.675781-1.265625 1.175781-1.722656.175782-.144531.785157-.699219 1.691407-.699219.546875 0 .863281.25.882812.25-.625.105469-1.089843.617188-1.089843 1.160156 0 .335938.230468.742188.800781.742188.566406 0 1.160156-.480469 1.160156-1.246094 0-.738281-.679687-1.363281-1.753906-1.363281-1.371094 0-2.292969 1.027344-2.703125 1.613281-.164063-.941406-.921875-1.613281-1.914063-1.613281-.964843 0-1.371093.8125-1.566406 1.191406-.375.722657-.648437 1.984375-.648437 2.054688 0 .207031.210937.207031.257812.207031.214844 0 .230469-.023438.355469-.488281.355469-1.496094.78125-2.507813 1.539062-2.507813.359375 0 .65625.167969.65625.964844 0 .445312-.066406.683594-.335937 1.777344zm0 0"/><path d="m38.062575 140.361813c-.001395 4.371168-1.256837 7.917763-2.801502 7.917351-1.551829-.001402-2.808089-3.544875-2.809361-7.917871.003225-4.373835 1.261333-7.918601 2.805999-7.91819 1.551829.001402 2.803592 3.545714 2.804864 7.91871zm0 0" fill="none" stroke="#000" stroke-linecap="square" stroke-width=".659796" transform="matrix(.996191 -.683059 .683059 .996191 0 0)"/><path d="m194.21875 70.535156v-.015625l-.003906-.007812v-.015625l-.003906-.003906v-.007813l-.007813-.015625v-.003906l-.011719-.023438-.011718-.011718-.007813-.015626-.007813-.003906-.007812-.007812-.007812-.003906-.007813-.007813-.007813-.003906-.011718-.003907-.003906-.003906-.011719-.003906-.007813-.003906h-.003906l-.003906-.003906h-.011719l-.007813-.003907h-.039062c-.085938 0-.105469.015625-.308594.257813l-.8125.964844c-.4375-.792969-1.324218-1.222657-2.421875-1.222657-2.15625 0-4.1875 1.949219-4.1875 4.003907 0 1.371093.902344 2.152343 1.761719 2.402343l1.808594.476563c.628906.152344 1.570312.40625 1.570312 1.800781 0 1.523437-1.398437 3.117187-3.058594 3.117187-1.082031 0-2.960937-.375-2.960937-2.476562 0-.410156.082031-.8125.097656-.914062.015625-.070313.03125-.085938.03125-.121094 0-.167969-.113281-.1875-.199219-.1875-.085937 0-.117187.019531-.167968.070312-.074219.066406-1.019532 3.929688-1.019532 3.980469 0 .101563.085938.167969.1875.167969.085938 0 .101563-.011719.300782-.253906l.832031-.960938c.730469.984375 1.882813 1.214844 2.867187 1.214844 2.300782 0 4.308594-2.25 4.308594-4.351563 0-1.171875-.578125-1.746093-.835937-1.984375-.382813-.390625-.640625-.453125-2.152344-.847656-.371094-.101562-.984375-.273438-1.136719-.304688-.457031-.152343-1.027344-.640624-1.027344-1.539062 0-1.378906 1.351563-2.816406 2.957032-2.816406 1.414062 0 2.445312.726562 2.445312 2.628906 0 .539062-.070312.84375-.070312.945312 0 .015626 0 .171876.207031.171876.171875 0 .1875-.054688.253906-.34375zm0 0"/></svg>