<svg height="68.953453mm" viewBox="0 0 300.01416 68.953453" width="300.01416mm" xmlns="http://www.w3.org/2000/svg"><path d="m106.539822 7.54593h71.248512v36.85268h-71.248512z" fill="#d1c2c2" stroke="#000" stroke-linecap="round" stroke-width="1.035"/><path d="m-3.66034 233.31619h71.248512v36.85268h-71.248512z" fill="#d1c2c2" stroke="#000" stroke-linecap="round" stroke-width="1.035" transform="matrix(.8660254 -.5 .5 .8660254 -2.695298 -167.55675)"/><text font-family="sans-serif" font-size="6.35" letter-spacing="0" stroke-width=".264583" transform="matrix(.8660254 -.5 .5 .8660254 -2.695298 -167.55675)" word-spacing="0" x="15.967649" y="254.07977"><tspan font-size="7.761111" stroke-width=".264583" x="15.967649" y="254.07977">Rotation</tspan></text><path d="m219.55469 7.54593h71.248512v36.85268h-71.248512z" fill="#d1c2c2" stroke="#000" stroke-linecap="round" stroke-width="1.035"/><g transform="translate(216.341892 -167.55675)"><path d="m11.906251 183.60713h71.248512v36.85268h-71.248512z" fill="#d1c2c2" stroke="#000" stroke-linecap="round" stroke-width="1.035"/><text font-family="sans-serif" font-size="6.35" letter-spacing="0" stroke-width=".264583" word-spacing="0" x="26.727468" y="204.92683"><tspan font-size="7.761111" stroke-width=".264583" x="26.727468" y="204.92683">Translation</tspan></text></g><g transform="translate(-221.732488 -167.55675)"><path d="m222.25 175.10268h71.248512v36.85268h-71.248512z" fill="#d1c2c2" stroke="#000" stroke-linecap="round" stroke-width="1.035"/><path d="m254.94493 195.89136h47.247017v24.568451h-47.247017z" fill="#d1c2c2" stroke="#000" stroke-linecap="round" stroke-width="1.035"/><text font-family="sans-serif" font-size="6.35" letter-spacing="0" stroke-width=".264583" word-spacing="0" x="268.07883" y="211.06894"><tspan font-size="7.761111" stroke-width=".264583" x="268.07883" y="211.06894">Scale</tspan></text></g></svg>