<svg height="167.70599" width="194.72186" xmlns="http://www.w3.org/2000/svg"><path d="m11.117157 150.79679 44.293-134.633008 27.104643 90.043838z" fill="#aaf" fill-opacity=".443983"/><path d="m82.5148 106.20762-27.104643-90.043838 125.785003 134.633008z" fill="#fea" fill-opacity=".443983"/><path d="m11.117157 150.79679 71.397643-44.58917 98.68036 44.58917z" fill="#e9afaf" fill-opacity=".443983"/><g stroke="#000" stroke-miterlimit="10" transform="translate(-135.13284 -41.28121)"><path d="m168.395 124.762-22.145 67.316h170.078l-125.785-134.633z" fill="none" stroke="#000" stroke-width=".797011"/><path d="m190.543 57.445 40.746 134.633" fill="none" stroke="#f00" stroke-width=".797011"/><path d="m146.25 192.078 107.188-67.316" fill="none" stroke="#f00" stroke-width=".797011"/><path d="m316.328 192.078-147.93-67.316" fill="none" stroke="#f00" stroke-width=".797011"/><g stroke="#000"><path d="m153.281 157.09 8.082 2.66" fill="none" stroke-width=".797011"/><path d="m175.43 89.773 8.078 2.661" fill="none" stroke-width=".797011"/><path d="m189.621 196.328v-8.5" fill="none" stroke-width=".797011"/><path d="m187.918 196.328v-8.5" fill="none" stroke-width=".797011"/><path d="m272.957 187.828v8.5" fill="none" stroke-width=".797011"/><path d="m274.66 187.828v8.5" fill="none" stroke-width=".797011"/><path d="m286.828 154.273-6.215 5.809" fill="none" stroke-width=".797011"/><path d="m287.988 155.516-6.215 5.804" fill="none" stroke-width=".797011"/><path d="m289.148 156.758-6.21 5.804" fill="none" stroke-width=".797011"/><path d="m220.043 95.25 6.211-5.809" fill="none" stroke-width=".797011"/><path d="m218.883 94.004 6.211-5.805" fill="none" stroke-width=".797011"/><path d="m217.719 92.762 6.215-5.805" fill="none" stroke-width=".797011"/><path d="m150 192.5c0-1.93-1.57-3.5-3.5-3.5s-3.5 1.57-3.5 3.5 1.57 3.5 3.5 3.5 3.5-1.57 3.5-3.5z" fill="#fff" fill-rule="evenodd" stroke-width=".5"/><path d="m320 192.5c0-1.93-1.57-3.5-3.5-3.5s-3.5 1.57-3.5 3.5 1.57 3.5 3.5 3.5 3.5-1.57 3.5-3.5z" fill="#fff" fill-rule="evenodd" stroke-width=".5"/><path d="m194 57.5c0-1.93-1.57-3.5-3.5-3.5s-3.5 1.57-3.5 3.5 1.57 3.5 3.5 3.5 3.5-1.57 3.5-3.5z" fill="#fff" fill-rule="evenodd" stroke-width=".5"/><path d="m235 192.5c0-1.93-1.57-3.5-3.5-3.5s-3.5 1.57-3.5 3.5 1.57 3.5 3.5 3.5 3.5-1.57 3.5-3.5z" fill="#fff" fill-rule="evenodd" stroke-width=".5"/><path d="m257 124.5c0-1.93-1.57-3.5-3.5-3.5s-3.5 1.57-3.5 3.5 1.57 3.5 3.5 3.5 3.5-1.57 3.5-3.5z" fill="#fff" fill-rule="evenodd" stroke-width=".5"/><path d="m172 124.5c0-1.93-1.57-3.5-3.5-3.5s-3.5 1.57-3.5 3.5 1.57 3.5 3.5 3.5 3.5-1.57 3.5-3.5z" fill="#fff" fill-rule="evenodd" stroke-width=".5"/><path d="m221 147.5c0-1.93-1.57-3.5-3.5-3.5s-3.5 1.57-3.5 3.5 1.57 3.5 3.5 3.5 3.5-1.57 3.5-3.5z" fill="#fff" fill-rule="evenodd" stroke-width=".5"/></g></g><g fill-rule="evenodd"><path d="m1.8005505 166.26561-.0477.0754-.0452.0728-.0477.0703-.0477.0653-.0452.0628-.0477.0578-.0477.0553-.0452.0527-.0477.0502-.0477.0452-.0452.0427-.0477.0402-.0477.0377-.0452.0352-.0477.0327-.0477.0301-.0477.0276-.0477.0251-.0477.0226-.0477.0226-.0477.0176-.0503.0176-.0477.0176-.0503.0126-.0477.0126-.0502.0101-.0502.01-.0477.008-.10299.0126-.10049.008c-.15323.0126-.26377.0126-.26377.25121 0 .0754.0628.13817.16078.13817.33662 0 .72599-.0402 1.07517-.0402.41198 0 .85159.0402 1.25353.0402.0729 0 .23864 0 .23864-.23865 0-.13816-.11304-.15073-.20096-.15073-.28889-.0226-.58783-.1256-.58783-.43459 0-.15323.0754-.2914.17333-.46222l.95208-1.60522h3.1401l-.0352-.38686h-2.86879l2.46937-4.13237.39942 4.13237.0352.38686c.0276.26126.20097 1.96445.20097 2.09005 0 .37682-.65063.41198-.89933.41198-.17584 0-.30145 0-.30145.25121 0 .13817.14822.13817.17585.13817.50995 0 1.05256-.0402 1.56251-.0402.31401 0 1.1028097.0402 1.4168197.0402.0754 0 .22357 0 .22357-.25121 0-.13817-.1256-.13817-.28638-.13817-.7762297 0-.7762297-.0854-.8164197-.44966l-.76116-7.8201c-.0276-.25121-.0276-.30145-.23865-.30145-.20097 0-.2487.0854-.32657.21101z"/><path d="m187.26111 161.56929-.0126.0452-.0101.0427-.0126.0402-.0101.0377-.01.0377-.0126.0327-.0126.0327-.0126.0301-.0126.0276-.0151.0276-.0176.0251-.0176.0226-.0201.0226-.0201.0176-.0251.0201-.0251.0151-.0276.0176-.0327.0126-.0327.0126-.0377.0126-.0402.0101-.0226.005-.0226.002-.0226.005-.0251.005-.0251.002-.0276.002-.0251.003-.0301.005-.0301.002-.0301.002h-.0301l-.0326.002-.0352.002h-.0352l-.0377.002h-.0377l-.0377.002h-.0402-.0427-.0427-.0427-.0452c-.21353 0-.33913 0-.33913.25121 0 .13816.11304.13816.33913.13816h4.46648c1.977 0 3.45411-1.47459 3.45411-2.703 0-.89932-.72599-1.62531-1.93933-1.76348 1.30377-.23864 2.61759-1.1656 2.61759-2.35633 0-.92444-.82899-1.7258-2.33121-1.7258l-.17334.38938c1.1003 0 1.36155.73604 1.36155 1.28618 0 1.1028-1.07517 2.29353-2.60251 2.29353h-1.82377l-.0754.27382h2.36387c1.20078 0 1.43942.92695 1.43942 1.46454 0 1.24097-1.11536 2.45179-2.58995 2.45179h-1.70319c-.17333 0-.20097 0-.27633-.0101-.1256-.0126-.16077-.0251-.16077-.12561 0-.0352 0-.0628.0628-.28637l.86415-3.49431.0754-.27381.77372-3.10493c.11304-.4371.13565-.47479.67826-.47479h1.61275l.17334-.38937h-4.20522c-.23363 0-.35923 0-.35923.25121 0 .13816.10802.13816.34918.13816.0226 0 .26125 0 .47478.0226.22358.0276.33662.0402.33662.20097 0 .0502-.0126.0904-.0502.23865z"/><path d="m56.975295.1250005v-.005-.005-.0025-.005-.005l-.003-.005v-.005l-.003-.005v-.005l-.003-.005-.003-.005-.003-.005-.003-.005-.003-.005-.003-.005-.005-.005-.003-.005-.005-.005-.005-.005-.005-.005-.005-.0025-.005-.005-.008-.0025-.008-.005-.005-.0025-.005-.0025h-.003l-.005-.0025h-.005l-.003-.0025h-.005-.005l-.003-.0025h-.005-.005-.005-.005-.005-.005c-.0352 0-.0528.01005-.18841.148212l-.87672.964639c-.10802-.175846-.68579-1.112851-2.07497-1.112851-2.79092 0-5.60948 2.765799-5.60948 5.667251 0 2.067442 1.47962 3.4289894 3.39633 3.4289894 1.08522 0 2.03479-.4973924 2.69798-1.0751704 1.16811-1.02744 1.37913-2.165413 1.37913-2.200582 0-.125604-.12561-.125604-.14821-.125604-.0754 0-.13817.02261-.1658.125604-.11053.36174-.39942 1.251016-1.26358 1.977007-.86415.698358-1.65295.911885-2.30106.911885-1.12541 0-2.45179-.653141-2.45179-2.602515 0-.715942.26125-2.740679 1.50976-4.205221.76618-.889276 1.94435-1.514784 3.05469-1.514784 1.27865 0 2.0172.962126 2.0172 2.414109 0 .502415-.0402.514976-.0402.64058s.13817.125604.18841.125604c.16077 0 .16077-.02763.22357-.251208z"/><g transform="translate(-19.065703 55.6378)"><path d="m117.1892 26.668539h.0176.0176.0176.0201.0226l.0226-.0025h.0226l.0226-.0025.0251-.0025.0251-.005.0251-.005.0276-.005.0251-.005.0251-.0075.0251-.0075.0251-.01005.0251-.01005.0251-.01256.0226-.01256.0226-.01507.0201-.01758.0201-.01759.0101-.01005.01-.01005.008-.01005.0101-.01256.008-.01005.008-.01256.008-.01256.008-.01256.008-.01256.005-.01507.005-.01507.005-.01507.005-.01507.005-.01507.003-.01758.003-.01759.003-.01758v-.0201l.003-.01758v-.0201c0-.298938-.26377-.298938-.48734-.298938h-2.85372c-1.8916 0-3.28078 2.06493-3.28078 3.552081 0 1.102803.73855 1.979519 1.87652 1.979519l.0151-.276329c-.61546 0-1.11537-.449662-1.11537-1.348987 0-.376812.15073-1.404252.59034-2.142804.52503-.864155 1.27614-1.037488 1.69817-1.037488 1.05256 0 1.15555.823962 1.15555 1.213334 0 .587827-.2512 1.612755-.67574 2.253335-.48986.738552-1.16561 1.06261-1.65295 1.06261l-.0151.276329c1.47962 0 3.14262-1.514784 3.14262-3.444061 0-.211015 0-.811402-.38686-1.361547z"/><path d="m120.78147 27.638201v-.01005-.01005-.01256-.01005-.0075-.01005-.01005-.0075-.01005-.0075l-.003-.0075v-.0075-.0075l-.003-.0075v-.0075-.005l-.003-.0075v-.005l-.003-.0075v-.005l-.003-.01005-.005-.01005-.005-.0075-.005-.0075-.005-.0075-.005-.0075-.008-.005-.008-.005-.008-.005-.0101-.0025-.01-.0025-.0126-.005h-.005-.005l-.008-.0025h-.008l-.005-.0025h-.008-.008-.008-.008l-.0101-.0025h-.008-.0101-.008-.01-.01-.01-.0101-.01-.0126-.01c-.5627.552658-1.35401.560194-1.71575.560194v.31401c.21102 0 .7888 0 1.26609-.243672v4.463966c0 .291401 0 .404445-.8742.404445h-.32909v.31401c.15575-.0075 1.23092-.03517 1.55749-.03517.27131 0 1.37411.02763 1.56754.03517v-.31401h-.33411c-.87671 0-.87671-.113044-.87671-.404445z"/></g><g transform="translate(-87.93229 75.756129)"><path d="m142.48081 26.668539h.0176.0151.0201.0201.0226l.0201-.0025h.0251l.0226-.0025.0251-.0025.0251-.005.0251-.005.0251-.005.0276-.005.0251-.0075.0251-.0075.0251-.01005.0251-.01005.0226-.01256.0251-.01256.0226-.01507.0201-.01758.0201-.01759.0101-.01005.0101-.01005.008-.01005.01-.01256.008-.01005.008-.01256.008-.01256.008-.01256.005-.01256.008-.01507.005-.01507.005-.01507.005-.01507.003-.01507.005-.01758.003-.01759.003-.01758v-.0201l.003-.01758v-.0201c0-.298938-.26377-.298938-.48734-.298938h-2.85372c-1.8916 0-3.28078 2.06493-3.28078 3.552081 0 1.102803.73855 1.979519 1.87652 1.979519l.0151-.276329c-.61545 0-1.11536-.449662-1.11536-1.348987 0-.376812.15073-1.404252.59034-2.142804.52502-.864155 1.27362-1.037488 1.69817-1.037488 1.05256 0 1.15555.823962 1.15555 1.213334 0 .587827-.25121 1.612755-.67575 2.253335-.48985.738552-1.1656 1.06261-1.65295 1.06261l-.0151.276329c1.47962 0 3.14261-1.514784 3.14261-3.444061 0-.211015 0-.811402-.38686-1.361547z"/><path d="m147.56024 31.609799h-.29643c-.0251.19343-.11555.710919-.2286.798842-.0653.05024-.74106.05024-.86415.05024h-1.61276c.91942-.811402 1.2259-1.055073 1.75092-1.467054.64812-.520001 1.25102-1.060098 1.25102-1.894108 0-1.057586-.92445-1.705703-2.04735-1.705703-1.0827 0-1.82125.761161-1.82125 1.565026 0 .44715.37681.492368.46724.492368.20851 0 .46223-.150725.46223-.464735 0-.155749-.0628-.462223-.51749-.462223.2713-.620483.86666-.813914 1.27865-.813914.87671 0 1.3314.680774 1.3314 1.389181 0 .763672-.54261 1.366571-.82396 1.680581l-2.10764 2.085026c-.0904.07787-.0904.09797-.0904.341643h3.60734z"/></g><g transform="translate(-66.524325 93.553112)"><path d="m167.74229 26.668539h.0176.0176.0176.0201.0226l.0226-.0025h.0226l.0251-.0025.0226-.0025.0251-.005.0251-.005.0276-.005.0251-.005.0251-.0075.0251-.0075.0251-.01005.0251-.01005.0251-.01256.0226-.01256.0226-.01507.0201-.01758.0226-.01759.008-.01005.0101-.01005.01-.01005.008-.01256.008-.01005.008-.01256.008-.01256.008-.01256.008-.01256.005-.01507.005-.01507.005-.01507.005-.01507.005-.01507.003-.01758.003-.01759.003-.01758.003-.0201v-.01758-.0201c0-.298938-.26125-.298938-.48734-.298938h-2.85121c-1.89411 0-3.28329 2.06493-3.28329 3.552081 0 1.102803.73855 1.979519 1.87653 1.979519l.0151-.276329c-.61546 0-1.11285-.449662-1.11285-1.348987 0-.376812.14821-1.404252.58782-2.142804.52503-.864155 1.27614-1.037488 1.69817-1.037488 1.05256 0 1.15556.823962 1.15556 1.213334 0 .587827-.25121 1.612755-.67575 2.253335-.48986.738552-1.16561 1.06261-1.65295 1.06261l-.0151.276329c1.47961 0 3.14512-1.514784 3.14512-3.444061 0-.211015 0-.811402-.38937-1.361547z"/><path d="m170.79446 30.280909h.0628l.0628.005.0603.0075.0603.01005.0578.01256.0578.01507.0553.01758.0528.0201.0528.02512.0502.02512.0502.03014.0477.03015.0452.03517.0427.03768.0427.04019.0402.0427.0377.04522.0352.04773.0352.05024.0327.05527.0276.05527.0276.06029.0251.06029.0226.06531.0201.06783.0176.07034.0151.07285.0126.07536.01.07787.005.08039.005.0829.003.08792c0 1.08773-.63305 1.409277-1.14049 1.409277-.34667 0-1.12039-.09546-1.48715-.612948.40947-.01507.50744-.306474.50744-.489855 0-.278841-.21353-.479808-.48232-.479808-.24367 0-.49237.148213-.49237.50744 0 .823963.91189 1.356523 1.97199 1.356523 1.21584 0 2.05488-.816425 2.05488-1.690629 0-.683286-.55517-1.366572-1.52232-1.567538.91942-.334107 1.25352-.987247 1.25352-1.52232 0-.690822-.79884-1.208311-1.76599-1.208311-.97468 0-1.71575.474784-1.71575 1.173142 0 .298937.19092.462222.45469.462222.2713 0 .44464-.198454.44464-.442126 0-.256232-.17334-.439614-.44464-.454686.30647-.389372.90686-.484831 1.23343-.484831.39188 0 .94454.19343.94454.95459 0 .369276-.12058.768696-.34918 1.040001-.2914.334106-.53256.354203-.97217.376812-.22107.0201-.23614.0201-.27884.02763-.0201 0-.0904.01507-.0904.113043 0 .123092.0779.123092.22609.123092z"/></g></g></svg>