<?xml version="1.0" encoding="UTF-8"?>
<svg xmlns="http://www.w3.org/2000/svg" xmlns:xlink="http://www.w3.org/1999/xlink" width="172.07874pt" height="172.07874pt" viewBox="0 0 172.07874 172.07874" version="1.1">
<g id="surface1">
<path style="fill:none;stroke-width:0.02;stroke-linecap:butt;stroke-linejoin:miter;stroke:rgb(0%,0%,0%);stroke-opacity:1;stroke-miterlimit:10;" d="M 0.000000000000000007 3.000011 L 5.958913 3.000011 " transform="matrix(28.346457,0,0,-28.346457,1,171.07874)"/>
<path style="fill-rule:nonzero;fill:rgb(0%,0%,0%);fill-opacity:1;stroke-width:0.02;stroke-linecap:butt;stroke-linejoin:miter;stroke:rgb(0%,0%,0%);stroke-opacity:1;stroke-miterlimit:10;" d="M 5.809947 2.959497 L 5.961393 3.000011 L 5.809947 3.040525 Z M 5.809947 2.959497 " transform="matrix(28.346457,0,0,-28.346457,1,171.07874)"/>
<path style="fill:none;stroke-width:0.02;stroke-linecap:butt;stroke-linejoin:miter;stroke:rgb(0%,0%,0%);stroke-opacity:1;stroke-miterlimit:10;" d="M 2.999989 0.0000217014 L 2.999989 5.958934 " transform="matrix(28.346457,0,0,-28.346457,1,171.07874)"/>
<path style="fill-rule:nonzero;fill:rgb(0%,0%,0%);fill-opacity:1;stroke-width:0.02;stroke-linecap:butt;stroke-linejoin:miter;stroke:rgb(0%,0%,0%);stroke-opacity:1;stroke-miterlimit:10;" d="M 3.040503 5.809969 L 2.999989 5.961415 L 2.959475 5.809969 Z M 3.040503 5.809969 " transform="matrix(28.346457,0,0,-28.346457,1,171.07874)"/>
<path style="fill:none;stroke-width:0.02;stroke-linecap:butt;stroke-linejoin:miter;stroke:rgb(0%,0%,0%);stroke-opacity:1;stroke-miterlimit:10;" d="M 2.999989 3.000011 L 4.999936 4.000053 " transform="matrix(28.346457,0,0,-28.346457,1,171.07874)"/>
<path style="fill:none;stroke-width:0.02;stroke-linecap:butt;stroke-linejoin:miter;stroke:rgb(0%,0%,0%);stroke-opacity:1;stroke-miterlimit:10;" d="M 5.200027 4.000053 C 5.200027 4.110434 5.110455 4.200007 4.999936 4.200007 C 4.889555 4.200007 4.799983 4.110434 4.799983 4.000053 C 4.799983 3.889535 4.889555 3.799962 4.999936 3.799962 C 5.110455 3.799962 5.200027 3.889535 5.200027 4.000053 " transform="matrix(28.346457,0,0,-28.346457,1,171.07874)"/>
</g>
</svg>
