<?xml version="1.0" encoding="UTF-8"?>
<svg xmlns="http://www.w3.org/2000/svg" xmlns:xlink="http://www.w3.org/1999/xlink" width="285.464567pt" height="143.732283pt" viewBox="0 0 285.464567 143.732283" version="1.1">
<g id="surface1">
<path style="fill:none;stroke-width:0.1;stroke-linecap:butt;stroke-linejoin:miter;stroke:rgb(0%,0%,0%);stroke-opacity:1;stroke-miterlimit:10;" d="M 1.999947 2.000011 L 4.854829 4.854893 " transform="matrix(28.346457,0,0,-28.346457,1,142.732283)"/>
<path style="fill-rule:nonzero;fill:rgb(0%,0%,0%);fill-opacity:1;stroke-width:0.1;stroke-linecap:butt;stroke-linejoin:miter;stroke:rgb(0%,0%,0%);stroke-opacity:1;stroke-miterlimit:10;" d="M 4.699524 4.579561 L 4.863372 4.863436 L 4.579497 4.69945 Z M 4.699524 4.579561 " transform="matrix(28.346457,0,0,-28.346457,1,142.732283)"/>
<path style="fill:none;stroke-width:0.1;stroke-linecap:butt;stroke-linejoin:miter;stroke:rgb(0%,0%,0%);stroke-opacity:1;stroke-miterlimit:10;" d="M 2.828423 2.828487 L 4.82837 4.828434 " transform="matrix(28.346457,0,0,-28.346457,1,142.732283)"/>
<path style=" stroke:none;fill-rule:nonzero;fill:rgb(39.215686%,39.215686%,39.215686%);fill-opacity:1;" d="M 114.386719 86.039062 C 114.386719 54.730469 89.003906 29.347656 57.691406 29.347656 C 26.382812 29.347656 1 54.730469 1 86.039062 C 1 117.351562 26.382812 142.730469 57.691406 142.730469 C 89.003906 142.730469 114.386719 117.351562 114.386719 86.039062 "/>
<path style="fill:none;stroke-width:0.02;stroke-linecap:butt;stroke-linejoin:miter;stroke:rgb(0%,0%,0%);stroke-opacity:1;stroke-miterlimit:10;" d="M 4.000031 2.000011 C 4.000031 3.104508 3.104582 3.999958 1.999947 3.999958 C 0.895449 3.999958 0.000000000000000007 3.104508 0.000000000000000007 2.000011 C 0.000000000000000007 0.895375 0.895449 0.0000640191 1.999947 0.0000640191 C 3.104582 0.0000640191 4.000031 0.895375 4.000031 2.000011 Z M 4.000031 2.000011 " transform="matrix(28.346457,0,0,-28.346457,1,142.732283)"/>
<path style="fill:none;stroke-width:0.1;stroke-linecap:butt;stroke-linejoin:miter;stroke:rgb(0%,0%,0%);stroke-opacity:1;stroke-miterlimit:10;" d="M 7.499973 2.000011 L 8.90819 4.816445 " transform="matrix(28.346457,0,0,-28.346457,1,142.732283)"/>
<path style="fill-rule:nonzero;fill:rgb(0%,0%,0%);fill-opacity:1;stroke-width:0.1;stroke-linecap:butt;stroke-linejoin:miter;stroke:rgb(0%,0%,0%);stroke-opacity:1;stroke-miterlimit:10;" d="M 8.847832 4.506111 L 8.913564 4.827194 L 8.69611 4.581903 Z M 8.847832 4.506111 " transform="matrix(28.346457,0,0,-28.346457,1,142.732283)"/>
<path style=" stroke:none;fill-rule:nonzero;fill:rgb(68.627451%,68.627451%,68.627451%);fill-opacity:1;" d="M 241.945312 86.039062 C 241.945312 54.730469 229.253906 29.347656 213.597656 29.347656 C 197.941406 29.347656 185.253906 54.730469 185.253906 86.039062 C 185.253906 117.351562 197.941406 142.730469 213.597656 142.730469 C 229.253906 142.730469 241.945312 117.351562 241.945312 86.039062 "/>
<path style="fill:none;stroke-width:0.02;stroke-linecap:butt;stroke-linejoin:miter;stroke:rgb(0%,0%,0%);stroke-opacity:1;stroke-miterlimit:10;" d="M 9.50003 2.000011 C 9.50003 3.104508 8.604581 3.999958 7.499946 3.999958 C 6.39531 3.999958 5.500137 3.104508 5.500137 2.000011 C 5.500137 0.895375 6.39531 0.0000640191 7.499946 0.0000640191 C 8.604581 0.0000640191 9.50003 0.895375 9.50003 2.000011 Z M 9.50003 2.000011 " transform="matrix(14.173228,0,0,-28.346457,107.299213,142.732283)"/>
</g>
</svg>
