<?xml version="1.0" encoding="UTF-8"?>
<svg xmlns="http://www.w3.org/2000/svg" xmlns:xlink="http://www.w3.org/1999/xlink" width="285.464567pt" height="115.385827pt" viewBox="0 0 285.464567 115.385827" version="1.1">
<g id="surface1">
<path style="fill:none;stroke-width:0.3;stroke-linecap:butt;stroke-linejoin:miter;stroke:rgb(0%,0%,0%);stroke-opacity:1;stroke-miterlimit:10;" d="M 1.999947 2.000053 L 3.6795 3.679468 " transform="matrix(28.346457,0,0,-28.346457,1,114.385827)"/>
<path style="fill-rule:nonzero;fill:rgb(0%,0%,0%);fill-opacity:1;stroke-width:0.3;stroke-linecap:butt;stroke-linejoin:miter;stroke:rgb(0%,0%,0%);stroke-opacity:1;stroke-miterlimit:10;" d="M 3.504489 3.29224 L 3.689835 3.689941 L 3.292271 3.504457 Z M 3.504489 3.29224 " transform="matrix(28.346457,0,0,-28.346457,1,114.385827)"/>
<path style=" stroke:none;fill-rule:nonzero;fill:rgb(39.215686%,39.215686%,39.215686%);fill-opacity:1;" d="M 114.386719 57.691406 C 114.386719 26.382812 89.003906 1 57.691406 1 C 26.382812 1 1 26.382812 1 57.691406 C 1 89.003906 26.382812 114.386719 57.691406 114.386719 C 89.003906 114.386719 114.386719 89.003906 114.386719 57.691406 "/>
<path style="fill:none;stroke-width:0.3;stroke-linecap:butt;stroke-linejoin:miter;stroke:rgb(0%,0%,0%);stroke-opacity:1;stroke-miterlimit:10;" d="M 4.000031 2.000053 C 4.000031 3.104551 3.104582 4 1.999947 4 C 0.895449 4 0.000000000000000007 3.104551 0.000000000000000007 2.000053 C 0.000000000000000007 0.895418 0.895449 -0.000031467 1.999947 -0.000031467 C 3.104582 -0.000031467 4.000031 0.895418 4.000031 2.000053 Z M 4.000031 2.000053 " transform="matrix(28.346457,0,0,-28.346457,1,114.385827)"/>
<path style="fill:none;stroke-width:0.3;stroke-linecap:butt;stroke-linejoin:miter;stroke:rgb(0%,0%,0%);stroke-opacity:1;stroke-miterlimit:10;" d="M 7.499946 2.000053 L 9.179499 3.679468 " transform="matrix(14.173228,0,0,-28.346457,107.299213,114.385827)"/>
<path style="fill-rule:nonzero;fill:rgb(0%,0%,0%);fill-opacity:1;stroke-width:0.3;stroke-linecap:butt;stroke-linejoin:miter;stroke:rgb(0%,0%,0%);stroke-opacity:1;stroke-miterlimit:10;" d="M 9.004488 3.29224 L 9.189972 3.689941 L 8.79227 3.504457 Z M 9.004488 3.29224 " transform="matrix(14.173228,0,0,-28.346457,107.299213,114.385827)"/>
<path style=" stroke:none;fill-rule:nonzero;fill:rgb(68.627451%,68.627451%,68.627451%);fill-opacity:1;" d="M 241.945312 57.691406 C 241.945312 26.382812 229.253906 1 213.597656 1 C 197.941406 1 185.253906 26.382812 185.253906 57.691406 C 185.253906 89.003906 197.941406 114.386719 213.597656 114.386719 C 229.253906 114.386719 241.945312 89.003906 241.945312 57.691406 "/>
<path style="fill:none;stroke-width:0.3;stroke-linecap:butt;stroke-linejoin:miter;stroke:rgb(0%,0%,0%);stroke-opacity:1;stroke-miterlimit:10;" d="M 9.50003 2.000053 C 9.50003 3.104551 8.604581 4 7.499946 4 C 6.39531 4 5.500137 3.104551 5.500137 2.000053 C 5.500137 0.895418 6.39531 -0.000031467 7.499946 -0.000031467 C 8.604581 -0.000031467 9.50003 0.895418 9.50003 2.000053 Z M 9.50003 2.000053 " transform="matrix(14.173228,0,0,-28.346457,107.299213,114.385827)"/>
</g>
</svg>
