<?xml version="1.0" encoding="UTF-8"?>
<svg xmlns="http://www.w3.org/2000/svg" xmlns:xlink="http://www.w3.org/1999/xlink" width="172.07874pt" height="115.385827pt" viewBox="0 0 172.07874 115.385827" version="1.1">
<g id="surface1">
<path style="fill:none;stroke-width:0.02;stroke-linecap:butt;stroke-linejoin:miter;stroke:rgb(0%,0%,0%);stroke-opacity:1;stroke-miterlimit:10;" d="M 0.000000000000000007 1.000011 L 5.958913 1.000011 " transform="matrix(28.346457,0,0,-28.346457,1,114.385827)"/>
<path style="fill-rule:nonzero;fill:rgb(0%,0%,0%);fill-opacity:1;stroke-width:0.02;stroke-linecap:butt;stroke-linejoin:miter;stroke:rgb(0%,0%,0%);stroke-opacity:1;stroke-miterlimit:10;" d="M 5.809947 0.959497 L 5.961393 1.000011 L 5.809947 1.040525 Z M 5.809947 0.959497 " transform="matrix(28.346457,0,0,-28.346457,1,114.385827)"/>
<path style="fill:none;stroke-width:0.02;stroke-linecap:butt;stroke-linejoin:miter;stroke:rgb(0%,0%,0%);stroke-opacity:1;stroke-miterlimit:10;" d="M 2.999989 -0.000031467 L 2.999989 3.958934 " transform="matrix(28.346457,0,0,-28.346457,1,114.385827)"/>
<path style="fill-rule:nonzero;fill:rgb(0%,0%,0%);fill-opacity:1;stroke-width:0.02;stroke-linecap:butt;stroke-linejoin:miter;stroke:rgb(0%,0%,0%);stroke-opacity:1;stroke-miterlimit:10;" d="M 3.040503 3.809969 L 2.999989 3.961415 L 2.959475 3.809969 Z M 3.040503 3.809969 " transform="matrix(28.346457,0,0,-28.346457,1,114.385827)"/>
<path style="fill:none;stroke-width:0.02;stroke-linecap:butt;stroke-linejoin:miter;stroke:rgb(0%,0%,0%);stroke-opacity:1;stroke-miterlimit:10;" d="M 2.999996 1.000015 L 5.000022 1.000049 " transform="matrix(24.548752,-14.173228,-14.173228,-24.548752,26.566344,153.107807)"/>
<path style="fill-rule:nonzero;fill:rgb(0%,0%,0%);fill-opacity:1;stroke-width:0.02;stroke-linecap:butt;stroke-linejoin:miter;stroke:rgb(0%,0%,0%);stroke-opacity:1;stroke-miterlimit:10;" d="M 5.099911 0.99998 C 5.100009 1.133268 4.900042 1.133355 4.900064 0.999998 C 4.899966 0.86671 5.100001 0.866743 5.099911 0.99998 " transform="matrix(24.548752,-14.173228,-14.173228,-24.548752,26.566344,153.107807)"/>
<path style="fill:none;stroke-width:0.02;stroke-linecap:butt;stroke-linejoin:miter;stroke:rgb(0%,0%,0%);stroke-opacity:1;stroke-miterlimit:10;" d="M 3.000001 1.000015 L 4.999951 1.999987 " transform="matrix(18.220751,-21.714646,-21.714646,-18.220751,53.091762,169.404058)"/>
<path style="fill-rule:nonzero;fill:rgb(39.215686%,39.215686%,39.215686%);fill-opacity:1;stroke-width:0.02;stroke-linecap:butt;stroke-linejoin:miter;stroke:rgb(0%,0%,0%);stroke-opacity:1;stroke-miterlimit:10;" d="M 5.100011 1.999938 C 5.099946 2.133362 4.900004 2.133249 4.89998 1.99993 C 4.900062 1.8667 5.099987 1.86662 5.100011 1.999938 " transform="matrix(18.220751,-21.714646,-21.714646,-18.220751,53.091762,169.404058)"/>
<path style="fill:none;stroke-width:0.02;stroke-linecap:butt;stroke-linejoin:miter;stroke:rgb(0%,0%,0%);stroke-opacity:1;stroke-miterlimit:10;" d="M 3.866086 1.499963 C 3.718223 1.756003 3.464801 1.933494 3.173622 1.984757 " transform="matrix(28.346457,0,0,-28.346457,1,114.385827)"/>
<path style=" stroke:none;fill-rule:nonzero;fill:rgb(0%,0%,0%);fill-opacity:1;" d="M 61.277344 50.472656 C 62.171875 50.628906 62.335938 51.710938 62.378906 52.429688 C 62.335938 54.285156 61.679688 56.40625 60.125 57.589844 C 59.617188 57.949219 58.816406 57.898438 58.484375 57.320312 C 57.847656 55.992188 58.1875 54.550781 58.640625 53.191406 C 59.082031 52.121094 59.691406 50.957031 60.832031 50.515625 L 60.90625 50.496094 L 61 50.496094 L 61.019531 50.472656 Z M 61.277344 50.472656 Z M 61.039062 50.699219 C 60.359375 50.925781 60.09375 51.667969 59.792969 52.246094 C 59.558594 52.800781 59.351562 53.398438 59.246094 53.996094 L 61.347656 53.996094 C 61.605469 53.007812 61.875 52.019531 61.574219 51.039062 L 61.484375 50.855469 L 61.390625 50.761719 L 61.316406 50.722656 L 61.257812 50.699219 L 61.246094 50.679688 L 61.058594 50.679688 Z M 61.039062 50.699219 Z M 59.132812 54.347656 C 58.90625 55.386719 58.566406 56.445312 59.03125 57.457031 C 59.421875 57.878906 59.980469 57.375 60.195312 57.011719 C 60.742188 56.210938 61.082031 55.253906 61.257812 54.316406 L 59.15625 54.316406 Z M 59.132812 54.347656 Z M 59.132812 54.347656 "/>
</g>
</svg>
