<?xml version="1.0" encoding="UTF-8" standalone="no"?>
<!DOCTYPE svg PUBLIC "-//W3C//DTD SVG 1.1//EN"
 "http://www.w3.org/Graphics/SVG/1.1/DTD/svg11.dtd">
<!-- Generated by graphviz version 2.50.0 (0)
 -->
<!-- Pages: 1 -->
<svg width="174pt" height="116pt"
 viewBox="0.00 0.00 174.00 116.00" xmlns="http://www.w3.org/2000/svg" xmlns:xlink="http://www.w3.org/1999/xlink">
<g id="graph0" class="graph" transform="scale(1 1) rotate(0) translate(4 112)">
<polygon fill="white" stroke="transparent" points="-4,4 -4,-112 170,-112 170,4 -4,4"/>
<!-- lib -->
<g id="node1" class="node">
<title>lib</title>
<ellipse fill="none" stroke="black" cx="93" cy="-90" rx="42.49" ry="18"/>
<text text-anchor="middle" x="93" y="-86.3" font-family="Times,serif" font-size="14.00">library</text>
</g>
<!-- exec -->
<g id="node2" class="node">
<title>exec</title>
<polygon fill="none" stroke="black" points="94,-36 0,-36 0,0 94,0 94,-36"/>
<text text-anchor="middle" x="47" y="-14.3" font-family="Times,serif" font-size="14.00">executable</text>
</g>
<!-- lib&#45;&#45;exec -->
<g id="edge1" class="edge">
<title>lib&#45;&#45;exec</title>
<path fill="none" stroke="black" d="M82.1,-72.41C74.98,-61.58 65.7,-47.45 58.47,-36.45"/>
</g>
<!-- test -->
<g id="node3" class="node">
<title>test</title>
<polygon fill="none" stroke="black" points="166,-36 112,-36 112,0 166,0 166,-36"/>
<text text-anchor="middle" x="139" y="-14.3" font-family="Times,serif" font-size="14.00">tests</text>
</g>
<!-- lib&#45;&#45;test -->
<g id="edge2" class="edge">
<title>lib&#45;&#45;test</title>
<path fill="none" stroke="black" d="M103.9,-72.41C111.02,-61.58 120.3,-47.45 127.53,-36.45"/>
</g>
</g>
</svg>
