<?xml version="1.0" encoding="UTF-8" standalone="no"?>
<!DOCTYPE svg PUBLIC "-//W3C//DTD SVG 1.1//EN"
 "http://www.w3.org/Graphics/SVG/1.1/DTD/svg11.dtd">
<!-- Generated by graphviz version 10.0.1 (0)
 -->
<!-- Pages: 1 -->
<svg width="658pt" height="44pt"
 viewBox="0.00 0.00 657.77 44.00" xmlns="http://www.w3.org/2000/svg" xmlns:xlink="http://www.w3.org/1999/xlink">
<g id="graph0" class="graph" transform="scale(1 1) rotate(0) translate(4 40)">
<polygon fill="white" stroke="none" points="-4,4 -4,-40 653.77,-40 653.77,4 -4,4"/>
<!-- source -->
<g id="node1" class="node">
<title>source</title>
<ellipse fill="none" stroke="black" cx="54.93" cy="-18" rx="54.93" ry="18"/>
<text text-anchor="middle" x="54.93" y="-12.95" font-family="Times,serif" font-size="14.00">source code</text>
</g>
<!-- lexer -->
<g id="node2" class="node">
<title>lexer</title>
<polygon fill="none" stroke="black" points="199.87,-36 145.87,-36 145.87,0 199.87,0 199.87,-36"/>
<text text-anchor="middle" x="172.87" y="-12.95" font-family="Times,serif" font-size="14.00">lexer</text>
</g>
<!-- source&#45;&#45;lexer -->
<g id="edge1" class="edge">
<title>source&#45;&#45;lexer</title>
<path fill="none" stroke="black" d="M110.17,-18C122.43,-18 134.91,-18 145.41,-18"/>
</g>
<!-- parser -->
<g id="node3" class="node">
<title>parser</title>
<polygon fill="none" stroke="black" points="289.87,-36 235.87,-36 235.87,0 289.87,0 289.87,-36"/>
<text text-anchor="middle" x="262.87" y="-12.95" font-family="Times,serif" font-size="14.00">parser</text>
</g>
<!-- lexer&#45;&#45;parser -->
<g id="edge2" class="edge">
<title>lexer&#45;&#45;parser</title>
<path fill="none" stroke="black" d="M200.27,-18C211.41,-18 224.35,-18 235.48,-18"/>
</g>
<!-- AST -->
<g id="node4" class="node">
<title>AST</title>
<polygon fill="none" stroke="black" points="408.62,-36 325.87,-36 325.87,0 408.62,0 408.62,-36"/>
<text text-anchor="middle" x="367.24" y="-12.95" font-family="Times,serif" font-size="14.00">AST builder</text>
</g>
<!-- parser&#45;&#45;AST -->
<g id="edge3" class="edge">
<title>parser&#45;&#45;AST</title>
<path fill="none" stroke="black" d="M290.23,-18C301.01,-18 313.74,-18 325.66,-18"/>
</g>
<!-- optimizer -->
<g id="node5" class="node">
<title>optimizer</title>
<polygon fill="none" stroke="black" points="513.12,-36 444.62,-36 444.62,0 513.12,0 513.12,-36"/>
<text text-anchor="middle" x="478.87" y="-12.95" font-family="Times,serif" font-size="14.00">optimizer</text>
</g>
<!-- AST&#45;&#45;optimizer -->
<g id="edge4" class="edge">
<title>AST&#45;&#45;optimizer</title>
<path fill="none" stroke="black" d="M409.06,-18C420.63,-18 433.09,-18 444.18,-18"/>
</g>
<!-- executable -->
<g id="node6" class="node">
<title>executable</title>
<ellipse fill="none" stroke="black" cx="599.45" cy="-18" rx="50.33" ry="18"/>
<text text-anchor="middle" x="599.45" y="-12.95" font-family="Times,serif" font-size="14.00">executable</text>
</g>
<!-- optimizer&#45;&#45;executable -->
<g id="edge5" class="edge">
<title>optimizer&#45;&#45;executable</title>
<path fill="none" stroke="black" d="M513.53,-18C524.49,-18 536.89,-18 548.76,-18"/>
</g>
</g>
</svg>
