<?xml version="1.0" encoding="UTF-8"?>
<svg xmlns="http://www.w3.org/2000/svg" xmlns:xlink="http://www.w3.org/1999/xlink" width="285.464567pt" height="143.732283pt" viewBox="0 0 285.464567 143.732283" version="1.1">
<g id="surface1">
<path style=" stroke:none;fill-rule:nonzero;fill:rgb(39.215686%,39.215686%,39.215686%);fill-opacity:1;" d="M 139.898438 71.867188 C 139.898438 34.292969 109.4375 3.835938 71.867188 3.835938 C 34.292969 3.835938 3.835938 34.292969 3.835938 71.867188 C 3.835938 109.4375 34.292969 139.898438 71.867188 139.898438 C 109.4375 139.898438 139.898438 109.4375 139.898438 71.867188 "/>
<path style="fill:none;stroke-width:0.02;stroke-linecap:butt;stroke-linejoin:miter;stroke:rgb(0%,0%,0%);stroke-opacity:1;stroke-miterlimit:10;" d="M 4.900028 2.499963 C 4.900028 3.825498 3.825434 4.899954 2.500037 4.899954 C 1.174502 4.899954 0.100046 3.825498 0.100046 2.499963 C 0.100046 1.174566 1.174502 0.0999718 2.500037 0.0999718 C 3.825434 0.0999718 4.900028 1.174566 4.900028 2.499963 Z M 4.900028 2.499963 " transform="matrix(28.346457,0,0,-28.346457,1,142.732283)"/>
<path style=" stroke:none;fill-rule:nonzero;fill:rgb(68.627451%,68.627451%,68.627451%);fill-opacity:1;" d="M 281.628906 71.867188 C 281.628906 53.078125 251.171875 37.851562 213.597656 37.851562 C 176.027344 37.851562 145.566406 53.078125 145.566406 71.867188 C 145.566406 90.652344 176.027344 105.882812 213.597656 105.882812 C 251.171875 105.882812 281.628906 90.652344 281.628906 71.867188 "/>
<path style="fill:none;stroke-width:0.02;stroke-linecap:butt;stroke-linejoin:miter;stroke:rgb(0%,0%,0%);stroke-opacity:1;stroke-miterlimit:10;" d="M 9.899964 2.499926 C 9.899964 3.825599 8.825508 4.899918 7.499973 4.899918 C 6.174576 4.899918 5.099982 3.825599 5.099982 2.499926 C 5.099982 1.174529 6.174576 0.0999349 7.499973 0.0999349 C 8.825508 0.0999349 9.899964 1.174529 9.899964 2.499926 Z M 9.899964 2.499926 " transform="matrix(28.346457,0,0,-14.173228,1,107.299213)"/>
</g>
</svg>
