<?xml version="1.0" encoding="UTF-8" standalone="no"?>
<!DOCTYPE svg PUBLIC "-//W3C//DTD SVG 1.1//EN"
 "http://www.w3.org/Graphics/SVG/1.1/DTD/svg11.dtd">
<!-- Generated by graphviz version 2.50.0 (0)
 -->
<!-- Pages: 1 -->
<svg width="302pt" height="116pt"
 viewBox="0.00 0.00 302.00 116.00" xmlns="http://www.w3.org/2000/svg" xmlns:xlink="http://www.w3.org/1999/xlink">
<g id="graph0" class="graph" transform="scale(1 1) rotate(0) translate(4 112)">
<polygon fill="white" stroke="transparent" points="-4,4 -4,-112 298,-112 298,4 -4,4"/>
<!-- lib -->
<g id="node1" class="node">
<title>lib</title>
<ellipse fill="none" stroke="black" cx="157.5" cy="-90" rx="84.49" ry="18"/>
<text text-anchor="middle" x="157.5" y="-86.3" font-family="Times,serif" font-size="14.00">library (project)</text>
</g>
<!-- exec -->
<g id="node2" class="node">
<title>exec</title>
<polygon fill="none" stroke="black" points="159,-36 0,-36 0,0 159,0 159,-36"/>
<text text-anchor="middle" x="79.5" y="-14.3" font-family="Times,serif" font-size="14.00">executable (project)</text>
</g>
<!-- lib&#45;&#45;exec -->
<g id="edge1" class="edge">
<title>lib&#45;&#45;exec</title>
<path fill="none" stroke="black" d="M139.02,-72.41C126.85,-61.49 110.97,-47.24 98.67,-36.2"/>
</g>
<!-- test -->
<g id="node3" class="node">
<title>test</title>
<polygon fill="none" stroke="black" points="294,-36 177,-36 177,0 294,0 294,-36"/>
<text text-anchor="middle" x="235.5" y="-14.3" font-family="Times,serif" font-size="14.00">tests (project)</text>
</g>
<!-- lib&#45;&#45;test -->
<g id="edge2" class="edge">
<title>lib&#45;&#45;test</title>
<path fill="none" stroke="black" d="M175.98,-72.41C188.15,-61.49 204.03,-47.24 216.33,-36.2"/>
</g>
</g>
</svg>
