<?xml version="1.0" encoding="UTF-8"?>
<svg xmlns="http://www.w3.org/2000/svg" xmlns:xlink="http://www.w3.org/1999/xlink" width="285.464567pt" height="285.464567pt" viewBox="0 0 285.464567 285.464567" version="1.1">
<g id="surface1">
<path style=" stroke:none;fill-rule:nonzero;fill:rgb(39.215686%,39.215686%,39.215686%);fill-opacity:1;" d="M 284.464844 142.730469 C 284.464844 64.457031 221.007812 1 142.730469 1 C 64.457031 1 1 64.457031 1 142.730469 C 1 221.007812 64.457031 284.464844 142.730469 284.464844 C 221.007812 284.464844 284.464844 221.007812 284.464844 142.730469 "/>
<path style="fill:none;stroke-width:0.02;stroke-linecap:butt;stroke-linejoin:miter;stroke:rgb(0%,0%,0%);stroke-opacity:1;stroke-miterlimit:10;" d="M 10.00001 5.000064 C 10.00001 7.761377 7.761387 10 4.999936 10 C 2.238623 10 0.000000000000000007 7.761377 0.000000000000000007 5.000064 C 0.000000000000000007 2.238613 2.238623 -0.00000976563 4.999936 -0.00000976563 C 7.761387 -0.00000976563 10.00001 2.238613 10.00001 5.000064 Z M 10.00001 5.000064 " transform="matrix(28.346457,0,0,-28.346457,1,284.464567)"/>
</g>
</svg>
