<?xml version="1.0" encoding="UTF-8"?>
<svg xmlns="http://www.w3.org/2000/svg" xmlns:xlink="http://www.w3.org/1999/xlink" width="172.07874pt" height="115.385827pt" viewBox="0 0 172.07874 115.385827" version="1.1">
<g id="surface1">
<path style="fill:none;stroke-width:0.04;stroke-linecap:butt;stroke-linejoin:miter;stroke:rgb(0%,0%,0%);stroke-opacity:1;stroke-miterlimit:10;" d="M 0.000000000000000007 1.000011 L 5.917847 1.000011 " transform="matrix(28.346457,0,0,-28.346457,1,114.385827)"/>
<path style="fill-rule:nonzero;fill:rgb(0%,0%,0%);fill-opacity:1;stroke-width:0.04;stroke-linecap:butt;stroke-linejoin:miter;stroke:rgb(0%,0%,0%);stroke-opacity:1;stroke-miterlimit:10;" d="M 5.746281 0.952744 L 5.92267 1.000011 L 5.746281 1.047278 Z M 5.746281 0.952744 " transform="matrix(28.346457,0,0,-28.346457,1,114.385827)"/>
<path style="fill:none;stroke-width:0.04;stroke-linecap:butt;stroke-linejoin:miter;stroke:rgb(0%,0%,0%);stroke-opacity:1;stroke-miterlimit:10;" d="M 2.999989 -0.000031467 L 2.999989 3.917869 " transform="matrix(28.346457,0,0,-28.346457,1,114.385827)"/>
<path style="fill-rule:nonzero;fill:rgb(0%,0%,0%);fill-opacity:1;stroke-width:0.04;stroke-linecap:butt;stroke-linejoin:miter;stroke:rgb(0%,0%,0%);stroke-opacity:1;stroke-miterlimit:10;" d="M 3.047256 3.746303 L 2.999989 3.922692 L 2.952722 3.746303 Z M 3.047256 3.746303 " transform="matrix(28.346457,0,0,-28.346457,1,114.385827)"/>
<path style="fill:none;stroke-width:0.04;stroke-linecap:butt;stroke-linejoin:miter;stroke:rgb(0%,0%,0%);stroke-opacity:1;stroke-miterlimit:10;" d="M 2.999996 1.000015 L 5.000022 1.000049 " transform="matrix(24.548752,-14.173228,-14.173228,-24.548752,26.566344,153.107807)"/>
<path style="fill-rule:nonzero;fill:rgb(0%,0%,0%);fill-opacity:1;stroke-width:0.04;stroke-linecap:butt;stroke-linejoin:miter;stroke:rgb(0%,0%,0%);stroke-opacity:1;stroke-miterlimit:10;" d="M 5.099911 0.99998 C 5.100009 1.133268 4.900042 1.133355 4.900064 0.999998 C 4.899966 0.86671 5.100001 0.866743 5.099911 0.99998 " transform="matrix(24.548752,-14.173228,-14.173228,-24.548752,26.566344,153.107807)"/>
<path style="fill:none;stroke-width:0.04;stroke-linecap:butt;stroke-linejoin:miter;stroke:rgb(0%,0%,0%);stroke-opacity:1;stroke-miterlimit:10;" d="M 3.000001 1.000015 L 4.999951 1.999987 " transform="matrix(18.220751,-21.714646,-21.714646,-18.220751,53.091762,169.404058)"/>
<path style="fill-rule:nonzero;fill:rgb(39.215686%,39.215686%,39.215686%);fill-opacity:1;stroke-width:0.04;stroke-linecap:butt;stroke-linejoin:miter;stroke:rgb(0%,0%,0%);stroke-opacity:1;stroke-miterlimit:10;" d="M 5.100011 1.999938 C 5.099946 2.133362 4.900004 2.133249 4.89998 1.99993 C 4.900062 1.8667 5.099987 1.86662 5.100011 1.999938 " transform="matrix(18.220751,-21.714646,-21.714646,-18.220751,53.091762,169.404058)"/>
<path style="fill:none;stroke-width:0.04;stroke-linecap:butt;stroke-linejoin:miter;stroke:rgb(0%,0%,0%);stroke-opacity:1;stroke-miterlimit:10;" d="M 3.866086 1.499963 C 3.718223 1.756003 3.464801 1.933494 3.173622 1.984757 " transform="matrix(28.346457,0,0,-28.346457,1,114.385827)"/>
<path style=" stroke:none;fill-rule:nonzero;fill:rgb(0%,0%,0%);fill-opacity:1;" d="M 96.710938 50.472656 C 97.605469 50.628906 97.769531 51.710938 97.8125 52.429688 C 97.769531 54.285156 97.113281 56.40625 95.554688 57.589844 C 95.050781 57.949219 94.25 57.898438 93.917969 57.320312 C 93.28125 55.992188 93.621094 54.550781 94.074219 53.191406 C 94.515625 52.121094 95.125 50.957031 96.265625 50.515625 L 96.339844 50.496094 L 96.433594 50.496094 L 96.453125 50.472656 Z M 96.710938 50.472656 Z M 96.472656 50.699219 C 95.792969 50.925781 95.527344 51.667969 95.226562 52.246094 C 94.988281 52.800781 94.785156 53.398438 94.679688 53.996094 L 96.78125 53.996094 C 97.039062 53.007812 97.308594 52.019531 97.007812 51.039062 L 96.914062 50.855469 L 96.824219 50.761719 L 96.75 50.722656 L 96.6875 50.699219 L 96.679688 50.679688 L 96.492188 50.679688 Z M 96.472656 50.699219 Z M 94.566406 54.347656 C 94.339844 55.386719 94 56.445312 94.464844 57.457031 C 94.855469 57.878906 95.414062 57.375 95.628906 57.011719 C 96.175781 56.210938 96.515625 55.253906 96.6875 54.316406 L 94.589844 54.316406 Z M 94.566406 54.347656 Z M 94.566406 54.347656 "/>
<path style=" stroke:none;fill-rule:nonzero;fill:rgb(0%,0%,0%);fill-opacity:1;" d="M 146.75 53.304688 C 146.964844 53.46875 146.625 53.675781 146.5625 53.851562 C 145.667969 55.046875 144.71875 56.28125 143.886719 57.476562 L 145.347656 57.476562 C 145.800781 57.457031 146.355469 57.230469 146.46875 56.714844 C 146.574219 56.40625 146.582031 56.105469 146.613281 55.796875 L 146.863281 55.796875 C 146.800781 56.4375 146.75 57.074219 146.6875 57.703125 L 143.101562 57.703125 C 142.875 57.519531 143.246094 57.292969 143.320312 57.105469 C 144.203125 55.910156 145.152344 54.707031 145.964844 53.511719 L 144.554688 53.511719 C 144.132812 53.53125 143.617188 53.71875 143.523438 54.203125 L 143.496094 54.347656 L 143.472656 54.367188 L 143.472656 54.460938 L 143.453125 54.480469 L 143.453125 54.613281 L 143.433594 54.625 L 143.433594 54.808594 L 143.410156 54.828125 L 143.410156 54.941406 L 143.175781 54.941406 C 143.214844 54.398438 143.246094 53.851562 143.289062 53.304688 Z M 146.75 53.304688 Z M 146.75 53.304688 "/>
<path style=" stroke:none;fill-rule:nonzero;fill:rgb(0%,0%,0%);fill-opacity:1;" d="M 116.09375 24.847656 L 116.09375 25.925781 C 116.1875 25.785156 116.289062 25.472656 116.445312 25.300781 C 116.816406 24.773438 117.804688 24.628906 118.101562 25.300781 C 118.175781 25.546875 118.074219 25.84375 117.804688 25.90625 C 117.421875 26.011719 117.113281 25.609375 117.28125 25.257812 L 117.300781 25.238281 L 117.320312 25.207031 L 117.363281 25.164062 L 117.394531 25.144531 L 117.433594 25.113281 L 117.464844 25.09375 L 117.484375 25.074219 C 116.785156 24.949219 116.320312 25.699219 116.21875 26.320312 L 116.207031 26.410156 L 116.1875 26.433594 L 116.1875 26.546875 L 116.167969 26.554688 L 116.167969 26.730469 L 116.148438 26.75 L 116.148438 28.769531 C 116.1875 29.039062 116.476562 29.046875 116.671875 29.070312 L 117.15625 29.070312 L 117.15625 29.355469 L 116.929688 29.355469 L 116.910156 29.347656 L 116.035156 29.347656 L 116.011719 29.335938 L 115.664062 29.335938 L 115.640625 29.347656 L 114.902344 29.347656 L 114.878906 29.355469 L 114.695312 29.355469 L 114.695312 29.070312 C 114.984375 29.046875 115.382812 29.152344 115.496094 28.8125 L 115.496094 25.628906 C 115.445312 25.238281 115.003906 25.246094 114.695312 25.257812 L 114.695312 24.960938 C 115.15625 24.917969 115.632812 24.886719 116.09375 24.847656 Z M 116.09375 24.847656 Z M 116.09375 24.847656 "/>
<path style=" stroke:none;fill-rule:nonzero;fill:rgb(0%,0%,0%);fill-opacity:1;" d="M 121.757812 21.664062 L 121.78125 21.683594 L 121.8125 21.707031 L 121.8125 21.796875 C 120.554688 22.960938 120.082031 24.765625 120.007812 26.359375 L 120.007812 27.246094 C 120.082031 28.832031 120.542969 30.644531 121.8125 31.777344 L 121.8125 31.890625 L 121.78125 31.910156 C 121.53125 31.960938 121.378906 31.632812 121.183594 31.519531 C 119.574219 29.933594 119.207031 27.472656 119.546875 25.390625 C 119.78125 23.941406 120.480469 22.550781 121.667969 21.664062 Z M 121.757812 21.664062 Z M 121.757812 21.664062 "/>
<path style=" stroke:none;fill-rule:nonzero;fill:rgb(0%,0%,0%);fill-opacity:1;" d="M 125.992188 22.128906 C 126.886719 22.28125 127.050781 23.363281 127.09375 24.085938 C 127.050781 25.9375 126.394531 28.058594 124.839844 29.242188 C 124.332031 29.605469 123.53125 29.550781 123.199219 28.976562 C 122.5625 27.648438 122.902344 26.207031 123.355469 24.847656 C 123.796875 23.773438 124.40625 22.613281 125.550781 22.167969 L 125.621094 22.148438 L 125.714844 22.148438 L 125.734375 22.128906 Z M 125.992188 22.128906 Z M 125.753906 22.355469 C 125.074219 22.582031 124.808594 23.320312 124.507812 23.898438 C 124.273438 24.453125 124.066406 25.050781 123.964844 25.648438 L 126.0625 25.648438 C 126.320312 24.660156 126.589844 23.671875 126.289062 22.695312 L 126.199219 22.507812 L 126.105469 22.414062 L 126.03125 22.375 L 125.972656 22.355469 L 125.960938 22.332031 L 125.777344 22.332031 Z M 125.753906 22.355469 Z M 123.851562 26 C 123.625 27.039062 123.285156 28.101562 123.746094 29.109375 C 124.136719 29.53125 124.695312 29.027344 124.910156 28.667969 C 125.457031 27.863281 125.796875 26.90625 125.972656 25.96875 L 123.871094 25.96875 Z M 123.851562 26 Z M 123.851562 26 "/>
<path style=" stroke:none;fill-rule:nonzero;fill:rgb(0%,0%,0%);fill-opacity:1;" d="M 127.980469 21.664062 C 129.453125 22.746094 130.140625 24.679688 130.214844 26.410156 C 130.296875 28.367188 129.71875 30.519531 128.125 31.816406 L 128.09375 31.839844 L 128.03125 31.890625 L 128 31.910156 L 127.980469 31.929688 L 127.886719 31.929688 L 127.824219 31.871094 L 127.824219 31.796875 C 129.082031 30.632812 129.566406 28.84375 129.636719 27.246094 L 129.636719 26.359375 C 129.566406 24.765625 129.082031 22.960938 127.824219 21.796875 L 127.824219 21.726562 L 127.886719 21.664062 Z M 127.980469 21.664062 Z M 127.980469 21.664062 "/>
<path style=" stroke:none;fill-rule:nonzero;fill:rgb(0%,0%,0%);fill-opacity:1;" d="M 137.660156 24.960938 C 137.875 25.125 137.535156 25.332031 137.472656 25.503906 C 136.578125 26.699219 135.632812 27.9375 134.796875 29.128906 L 136.257812 29.128906 C 136.710938 29.109375 137.269531 28.882812 137.382812 28.367188 C 137.484375 28.058594 137.496094 27.761719 137.527344 27.453125 L 137.773438 27.453125 C 137.710938 28.089844 137.660156 28.730469 137.597656 29.355469 L 134.015625 29.355469 C 133.789062 29.171875 134.160156 28.945312 134.230469 28.757812 C 135.117188 27.566406 136.0625 26.359375 136.878906 25.164062 L 135.464844 25.164062 C 135.042969 25.1875 134.527344 25.371094 134.4375 25.855469 L 134.40625 26 L 134.386719 26.019531 L 134.386719 26.113281 L 134.363281 26.132812 L 134.363281 26.265625 L 134.34375 26.277344 L 134.34375 26.464844 L 134.324219 26.484375 L 134.324219 26.597656 L 134.085938 26.597656 C 134.128906 26.050781 134.160156 25.503906 134.199219 24.960938 Z M 137.660156 24.960938 Z M 137.660156 24.960938 "/>
</g>
</svg>
