<?xml version="1.0" encoding="UTF-8"?>
<svg xmlns="http://www.w3.org/2000/svg" xmlns:xlink="http://www.w3.org/1999/xlink" width="172.07874pt" height="172.07874pt" viewBox="0 0 172.07874 172.07874" version="1.1">
<g id="surface1">
<path style="fill:none;stroke-width:0.02;stroke-linecap:butt;stroke-linejoin:miter;stroke:rgb(0%,0%,0%);stroke-opacity:1;stroke-miterlimit:10;" d="M 0.000000000000000007 3.000011 L 5.958913 3.000011 " transform="matrix(28.346457,0,0,-28.346457,1,171.07874)"/>
<path style="fill-rule:nonzero;fill:rgb(0%,0%,0%);fill-opacity:1;stroke-width:0.02;stroke-linecap:butt;stroke-linejoin:miter;stroke:rgb(0%,0%,0%);stroke-opacity:1;stroke-miterlimit:10;" d="M 5.809947 2.959497 L 5.961393 3.000011 L 5.809947 3.040525 Z M 5.809947 2.959497 " transform="matrix(28.346457,0,0,-28.346457,1,171.07874)"/>
<path style="fill:none;stroke-width:0.02;stroke-linecap:butt;stroke-linejoin:miter;stroke:rgb(0%,0%,0%);stroke-opacity:1;stroke-miterlimit:10;" d="M 2.999989 0.0000217014 L 2.999989 5.958934 " transform="matrix(28.346457,0,0,-28.346457,1,171.07874)"/>
<path style="fill-rule:nonzero;fill:rgb(0%,0%,0%);fill-opacity:1;stroke-width:0.02;stroke-linecap:butt;stroke-linejoin:miter;stroke:rgb(0%,0%,0%);stroke-opacity:1;stroke-miterlimit:10;" d="M 3.040503 5.809969 L 2.999989 5.961415 L 2.959475 5.809969 Z M 3.040503 5.809969 " transform="matrix(28.346457,0,0,-28.346457,1,171.07874)"/>
<path style="fill:none;stroke-width:0.02;stroke-linecap:butt;stroke-linejoin:miter;stroke:rgb(0%,0%,0%);stroke-opacity:1;stroke-miterlimit:10;" d="M 2.999996 3.000015 L 5.000022 3.000049 " transform="matrix(24.548752,-14.173228,-14.173228,-24.548752,54.9128,202.20531)"/>
<path style="fill-rule:nonzero;fill:rgb(0%,0%,0%);fill-opacity:1;stroke-width:0.02;stroke-linecap:butt;stroke-linejoin:miter;stroke:rgb(0%,0%,0%);stroke-opacity:1;stroke-miterlimit:10;" d="M 5.099911 2.99998 C 5.100009 3.133268 4.900042 3.133355 4.900064 2.999998 C 4.899966 2.86671 5.100001 2.866743 5.099911 2.99998 " transform="matrix(24.548752,-14.173228,-14.173228,-24.548752,54.9128,202.20531)"/>
<path style="fill:none;stroke-width:0.02;stroke-linecap:butt;stroke-linejoin:miter;stroke:rgb(0%,0%,0%);stroke-opacity:1;stroke-miterlimit:10;" d="M 3.000001 3.000015 L 4.999951 3.999987 " transform="matrix(18.220751,-21.714646,-21.714646,-18.220751,96.521054,205.84556)"/>
<path style="fill-rule:nonzero;fill:rgb(39.215686%,39.215686%,39.215686%);fill-opacity:1;stroke-width:0.02;stroke-linecap:butt;stroke-linejoin:miter;stroke:rgb(0%,0%,0%);stroke-opacity:1;stroke-miterlimit:10;" d="M 5.100011 3.999938 C 5.099946 4.133362 4.900004 4.133249 4.89998 3.99993 C 4.900062 3.8667 5.099987 3.86662 5.100011 3.999938 " transform="matrix(18.220751,-21.714646,-21.714646,-18.220751,96.521054,205.84556)"/>
<path style="fill:none;stroke-width:0.02;stroke-linecap:butt;stroke-linejoin:miter;stroke:rgb(0%,0%,0%);stroke-opacity:1;stroke-miterlimit:10;" d="M 3.866086 3.499963 C 3.718223 3.756003 3.464801 3.933494 3.173622 3.984757 " transform="matrix(28.346457,0,0,-28.346457,1,171.07874)"/>
</g>
</svg>
