<?xml version="1.0" encoding="UTF-8" standalone="no"?>
<!DOCTYPE svg PUBLIC "-//W3C//DTD SVG 1.1//EN"
 "http://www.w3.org/Graphics/SVG/1.1/DTD/svg11.dtd">
<!-- Generated by graphviz version 2.43.0 (0)
 -->
<!-- Pages: 1 -->
<svg width="573pt" height="332pt"
 viewBox="0.00 0.00 572.50 332.00" xmlns="http://www.w3.org/2000/svg" xmlns:xlink="http://www.w3.org/1999/xlink">
<g id="graph0" class="graph" transform="scale(1 1) rotate(0) translate(4 328)">
<polygon fill="white" stroke="transparent" points="-4,4 -4,-328 568.5,-328 568.5,4 -4,4"/>
<!-- scene -->
<g id="node1" class="node">
<title>scene</title>
<ellipse fill="none" stroke="black" cx="155.5" cy="-306" rx="37.09" ry="18"/>
<text text-anchor="middle" x="155.5" y="-302.3" font-family="Times,serif" font-size="14.00">scene</text>
</g>
<!-- float_def -->
<g id="node2" class="node">
<title>float_def</title>
<ellipse fill="none" stroke="black" cx="104.5" cy="-234" rx="31.7" ry="18"/>
<text text-anchor="middle" x="104.5" y="-230.3" font-family="Times,serif" font-size="14.00">float</text>
</g>
<!-- scene&#45;&#45;float_def -->
<g id="edge1" class="edge">
<title>scene&#45;&#45;float_def</title>
<path fill="none" stroke="black" d="M143.67,-288.76C135.43,-277.46 124.49,-262.44 116.26,-251.15"/>
</g>
<!-- material_def -->
<g id="node5" class="node">
<title>material_def</title>
<ellipse fill="none" stroke="black" cx="266.5" cy="-234" rx="50.09" ry="18"/>
<text text-anchor="middle" x="266.5" y="-230.3" font-family="Times,serif" font-size="14.00">material</text>
</g>
<!-- scene&#45;&#45;material_def -->
<g id="edge4" class="edge">
<title>scene&#45;&#45;material_def</title>
<path fill="none" stroke="black" d="M177.17,-291.34C195.97,-279.48 223.15,-262.34 242.58,-250.08"/>
</g>
<!-- float_id -->
<g id="node3" class="node">
<title>float_id</title>
<polygon fill="none" stroke="black" points="59,-180 0,-180 0,-144 59,-144 59,-180"/>
<text text-anchor="middle" x="29.5" y="-158.3" font-family="Times,serif" font-size="14.00">shade</text>
</g>
<!-- float_def&#45;&#45;float_id -->
<g id="edge2" class="edge">
<title>float_def&#45;&#45;float_id</title>
<path fill="none" stroke="black" d="M88.59,-218.15C76.64,-207 60.25,-191.7 47.76,-180.04"/>
</g>
<!-- float_val -->
<g id="node4" class="node">
<title>float_val</title>
<polygon fill="none" stroke="black" points="131.5,-180 77.5,-180 77.5,-144 131.5,-144 131.5,-180"/>
<text text-anchor="middle" x="104.5" y="-158.3" font-family="Times,serif" font-size="14.00">0.4</text>
</g>
<!-- float_def&#45;&#45;float_val -->
<g id="edge3" class="edge">
<title>float_def&#45;&#45;float_val</title>
<path fill="none" stroke="black" d="M104.5,-215.7C104.5,-204.85 104.5,-190.92 104.5,-180.1"/>
</g>
<!-- material_id -->
<g id="node6" class="node">
<title>material_id</title>
<polygon fill="none" stroke="black" points="265,-180 150,-180 150,-144 265,-144 265,-180"/>
<text text-anchor="middle" x="207.5" y="-158.3" font-family="Times,serif" font-size="14.00">&#39;sky_material&#39;</text>
</g>
<!-- material_def&#45;&#45;material_id -->
<g id="edge5" class="edge">
<title>material_def&#45;&#45;material_id</title>
<path fill="none" stroke="black" d="M252.52,-216.41C243.39,-205.58 231.48,-191.45 222.21,-180.45"/>
</g>
<!-- brdf_def -->
<g id="node7" class="node">
<title>brdf_def</title>
<ellipse fill="none" stroke="black" cx="325.5" cy="-162" rx="42.49" ry="18"/>
<text text-anchor="middle" x="325.5" y="-158.3" font-family="Times,serif" font-size="14.00">diffuse</text>
</g>
<!-- material_def&#45;&#45;brdf_def -->
<g id="edge6" class="edge">
<title>material_def&#45;&#45;brdf_def</title>
<path fill="none" stroke="black" d="M280.48,-216.41C289.89,-205.25 302.23,-190.6 311.62,-179.47"/>
</g>
<!-- emission_def -->
<g id="node12" class="node">
<title>emission_def</title>
<ellipse fill="none" stroke="black" cx="454.5" cy="-162" rx="47.39" ry="18"/>
<text text-anchor="middle" x="454.5" y="-158.3" font-family="Times,serif" font-size="14.00">uniform</text>
</g>
<!-- material_def&#45;&#45;emission_def -->
<g id="edge11" class="edge">
<title>material_def&#45;&#45;emission_def</title>
<path fill="none" stroke="black" d="M300.11,-220.49C334.54,-207.67 387.72,-187.87 421.81,-175.17"/>
</g>
<!-- brdf_color -->
<g id="node8" class="node">
<title>brdf_color</title>
<ellipse fill="none" stroke="black" cx="314.5" cy="-90" rx="33.6" ry="18"/>
<text text-anchor="middle" x="314.5" y="-86.3" font-family="Times,serif" font-size="14.00">color</text>
</g>
<!-- brdf_def&#45;&#45;brdf_color -->
<g id="edge7" class="edge">
<title>brdf_def&#45;&#45;brdf_color</title>
<path fill="none" stroke="black" d="M322.78,-143.7C321.08,-132.85 318.89,-118.92 317.19,-108.1"/>
</g>
<!-- brdf_red -->
<g id="node9" class="node">
<title>brdf_red</title>
<polygon fill="none" stroke="black" points="269,-36 210,-36 210,0 269,0 269,-36"/>
<text text-anchor="middle" x="239.5" y="-14.3" font-family="Times,serif" font-size="14.00">shade</text>
</g>
<!-- brdf_color&#45;&#45;brdf_red -->
<g id="edge8" class="edge">
<title>brdf_color&#45;&#45;brdf_red</title>
<path fill="none" stroke="black" d="M298.23,-73.81C286.34,-62.71 270.2,-47.65 257.85,-36.13"/>
</g>
<!-- brdf_green -->
<g id="node10" class="node">
<title>brdf_green</title>
<polygon fill="none" stroke="black" points="341.5,-36 287.5,-36 287.5,0 341.5,0 341.5,-36"/>
<text text-anchor="middle" x="314.5" y="-14.3" font-family="Times,serif" font-size="14.00">0</text>
</g>
<!-- brdf_color&#45;&#45;brdf_green -->
<g id="edge9" class="edge">
<title>brdf_color&#45;&#45;brdf_green</title>
<path fill="none" stroke="black" d="M314.5,-71.7C314.5,-60.85 314.5,-46.92 314.5,-36.1"/>
</g>
<!-- brdf_blue -->
<g id="node11" class="node">
<title>brdf_blue</title>
<polygon fill="none" stroke="black" points="413.5,-36 359.5,-36 359.5,0 413.5,0 413.5,-36"/>
<text text-anchor="middle" x="386.5" y="-14.3" font-family="Times,serif" font-size="14.00">0</text>
</g>
<!-- brdf_color&#45;&#45;brdf_blue -->
<g id="edge10" class="edge">
<title>brdf_color&#45;&#45;brdf_blue</title>
<path fill="none" stroke="black" d="M330.12,-73.81C341.54,-62.71 357.03,-47.65 368.88,-36.13"/>
</g>
<!-- emission_red -->
<g id="node13" class="node">
<title>emission_red</title>
<polygon fill="none" stroke="black" points="420.5,-108 366.5,-108 366.5,-72 420.5,-72 420.5,-108"/>
<text text-anchor="middle" x="393.5" y="-86.3" font-family="Times,serif" font-size="14.00">0.7</text>
</g>
<!-- emission_def&#45;&#45;emission_red -->
<g id="edge12" class="edge">
<title>emission_def&#45;&#45;emission_red</title>
<path fill="none" stroke="black" d="M440.35,-144.76C430.78,-133.78 418.15,-119.29 408.42,-108.12"/>
</g>
<!-- emission_green -->
<g id="node14" class="node">
<title>emission_green</title>
<polygon fill="none" stroke="black" points="492.5,-108 438.5,-108 438.5,-72 492.5,-72 492.5,-108"/>
<text text-anchor="middle" x="465.5" y="-86.3" font-family="Times,serif" font-size="14.00">0.5</text>
</g>
<!-- emission_def&#45;&#45;emission_green -->
<g id="edge13" class="edge">
<title>emission_def&#45;&#45;emission_green</title>
<path fill="none" stroke="black" d="M457.22,-143.7C458.92,-132.85 461.11,-118.92 462.81,-108.1"/>
</g>
<!-- emission_blue -->
<g id="node15" class="node">
<title>emission_blue</title>
<polygon fill="none" stroke="black" points="564.5,-108 510.5,-108 510.5,-72 564.5,-72 564.5,-108"/>
<text text-anchor="middle" x="537.5" y="-86.3" font-family="Times,serif" font-size="14.00">1</text>
</g>
<!-- emission_def&#45;&#45;emission_blue -->
<g id="edge14" class="edge">
<title>emission_def&#45;&#45;emission_blue</title>
<path fill="none" stroke="black" d="M473.33,-145.12C486.44,-134.06 503.89,-119.34 517.29,-108.04"/>
</g>
</g>
</svg>
