<?xml version="1.0" encoding="UTF-8" standalone="no"?>
<!DOCTYPE svg PUBLIC "-//W3C//DTD SVG 1.1//EN"
 "http://www.w3.org/Graphics/SVG/1.1/DTD/svg11.dtd">
<!-- Generated by graphviz version 2.43.0 (0)
 -->
<!-- Pages: 1 -->
<svg width="579pt" height="332pt"
 viewBox="0.00 0.00 578.50 332.00" xmlns="http://www.w3.org/2000/svg" xmlns:xlink="http://www.w3.org/1999/xlink">
<g id="graph0" class="graph" transform="scale(1 1) rotate(0) translate(4 328)">
<polygon fill="white" stroke="transparent" points="-4,4 -4,-328 574.5,-328 574.5,4 -4,4"/>
<!-- scene -->
<g id="node1" class="node">
<title>scene</title>
<ellipse fill="none" stroke="black" cx="155.5" cy="-306" rx="37.09" ry="18"/>
<text text-anchor="middle" x="155.5" y="-302.3" font-family="Times,serif" font-size="14.00">scene</text>
</g>
<!-- float_def -->
<g id="node2" class="node">
<title>float_def</title>
<ellipse fill="none" stroke="black" cx="104.5" cy="-234" rx="31.7" ry="18"/>
<text text-anchor="middle" x="104.5" y="-230.3" font-family="Times,serif" font-size="14.00">float</text>
</g>
<!-- scene&#45;&#45;float_def -->
<g id="edge1" class="edge">
<title>scene&#45;&#45;float_def</title>
<path fill="none" stroke="black" d="M143.67,-288.76C135.43,-277.46 124.49,-262.44 116.26,-251.15"/>
</g>
<!-- material_def -->
<g id="node5" class="node">
<title>material_def</title>
<ellipse fill="none" stroke="black" cx="268.5" cy="-234" rx="50.09" ry="18"/>
<text text-anchor="middle" x="268.5" y="-230.3" font-family="Times,serif" font-size="14.00">material</text>
</g>
<!-- scene&#45;&#45;material_def -->
<g id="edge4" class="edge">
<title>scene&#45;&#45;material_def</title>
<path fill="none" stroke="black" d="M177.56,-291.34C196.82,-279.4 224.74,-262.11 244.55,-249.84"/>
</g>
<!-- float_id -->
<g id="node3" class="node">
<title>float_id</title>
<polygon fill="none" stroke="black" points="59,-180 0,-180 0,-144 59,-144 59,-180"/>
<text text-anchor="middle" x="29.5" y="-158.3" font-family="Times,serif" font-size="14.00">shade</text>
</g>
<!-- float_def&#45;&#45;float_id -->
<g id="edge2" class="edge">
<title>float_def&#45;&#45;float_id</title>
<path fill="none" stroke="black" d="M88.59,-218.15C76.64,-207 60.25,-191.7 47.76,-180.04"/>
</g>
<!-- float_val -->
<g id="node4" class="node">
<title>float_val</title>
<polygon fill="none" stroke="black" points="131.5,-180 77.5,-180 77.5,-144 131.5,-144 131.5,-180"/>
<text text-anchor="middle" x="104.5" y="-158.3" font-family="Times,serif" font-size="14.00">0.4</text>
</g>
<!-- float_def&#45;&#45;float_val -->
<g id="edge3" class="edge">
<title>float_def&#45;&#45;float_val</title>
<path fill="none" stroke="black" d="M104.5,-215.7C104.5,-204.85 104.5,-190.92 104.5,-180.1"/>
</g>
<!-- material_id -->
<g id="node6" class="node">
<title>material_id</title>
<polygon fill="none" stroke="black" points="265,-180 150,-180 150,-144 265,-144 265,-180"/>
<text text-anchor="middle" x="207.5" y="-158.3" font-family="Times,serif" font-size="14.00">&#39;sky_material&#39;</text>
</g>
<!-- material_def&#45;&#45;material_id -->
<g id="edge5" class="edge">
<title>material_def&#45;&#45;material_id</title>
<path fill="none" stroke="black" d="M254.04,-216.41C244.6,-205.58 232.29,-191.45 222.7,-180.45"/>
</g>
<!-- brdf_def -->
<g id="node7" class="node">
<title>brdf_def</title>
<ellipse fill="none" stroke="black" cx="330.5" cy="-162" rx="47.39" ry="18"/>
<text text-anchor="middle" x="330.5" y="-158.3" font-family="Times,serif" font-size="14.00">uniform</text>
</g>
<!-- material_def&#45;&#45;brdf_def -->
<g id="edge6" class="edge">
<title>material_def&#45;&#45;brdf_def</title>
<path fill="none" stroke="black" d="M283.19,-216.41C293.08,-205.25 306.05,-190.6 315.91,-179.47"/>
</g>
<!-- emission_def -->
<g id="node12" class="node">
<title>emission_def</title>
<ellipse fill="none" stroke="black" cx="462.5" cy="-162" rx="47.39" ry="18"/>
<text text-anchor="middle" x="462.5" y="-158.3" font-family="Times,serif" font-size="14.00">uniform</text>
</g>
<!-- material_def&#45;&#45;emission_def -->
<g id="edge11" class="edge">
<title>material_def&#45;&#45;emission_def</title>
<path fill="none" stroke="black" d="M302.74,-220.65C338.42,-207.77 393.95,-187.74 429.25,-175"/>
</g>
<!-- brdf_color -->
<g id="node8" class="node">
<title>brdf_color</title>
<ellipse fill="none" stroke="black" cx="320.5" cy="-90" rx="33.6" ry="18"/>
<text text-anchor="middle" x="320.5" y="-86.3" font-family="Times,serif" font-size="14.00">color</text>
</g>
<!-- brdf_def&#45;&#45;brdf_color -->
<g id="edge7" class="edge">
<title>brdf_def&#45;&#45;brdf_color</title>
<path fill="none" stroke="black" d="M328.03,-143.7C326.48,-132.85 324.49,-118.92 322.94,-108.1"/>
</g>
<!-- brdf_red -->
<g id="node9" class="node">
<title>brdf_red</title>
<polygon fill="none" stroke="black" points="275,-36 216,-36 216,0 275,0 275,-36"/>
<text text-anchor="middle" x="245.5" y="-14.3" font-family="Times,serif" font-size="14.00">shade</text>
</g>
<!-- brdf_color&#45;&#45;brdf_red -->
<g id="edge8" class="edge">
<title>brdf_color&#45;&#45;brdf_red</title>
<path fill="none" stroke="black" d="M304.23,-73.81C292.34,-62.71 276.2,-47.65 263.85,-36.13"/>
</g>
<!-- brdf_green -->
<g id="node10" class="node">
<title>brdf_green</title>
<polygon fill="none" stroke="black" points="347.5,-36 293.5,-36 293.5,0 347.5,0 347.5,-36"/>
<text text-anchor="middle" x="320.5" y="-14.3" font-family="Times,serif" font-size="14.00">0</text>
</g>
<!-- brdf_color&#45;&#45;brdf_green -->
<g id="edge9" class="edge">
<title>brdf_color&#45;&#45;brdf_green</title>
<path fill="none" stroke="black" d="M320.5,-71.7C320.5,-60.85 320.5,-46.92 320.5,-36.1"/>
</g>
<!-- brdf_blue -->
<g id="node11" class="node">
<title>brdf_blue</title>
<polygon fill="none" stroke="black" points="419.5,-36 365.5,-36 365.5,0 419.5,0 419.5,-36"/>
<text text-anchor="middle" x="392.5" y="-14.3" font-family="Times,serif" font-size="14.00">0</text>
</g>
<!-- brdf_color&#45;&#45;brdf_blue -->
<g id="edge10" class="edge">
<title>brdf_color&#45;&#45;brdf_blue</title>
<path fill="none" stroke="black" d="M336.12,-73.81C347.54,-62.71 363.03,-47.65 374.88,-36.13"/>
</g>
<!-- emission_red -->
<g id="node13" class="node">
<title>emission_red</title>
<polygon fill="none" stroke="black" points="426.5,-108 372.5,-108 372.5,-72 426.5,-72 426.5,-108"/>
<text text-anchor="middle" x="399.5" y="-86.3" font-family="Times,serif" font-size="14.00">0.7</text>
</g>
<!-- emission_def&#45;&#45;emission_red -->
<g id="edge12" class="edge">
<title>emission_def&#45;&#45;emission_red</title>
<path fill="none" stroke="black" d="M447.89,-144.76C438,-133.78 424.96,-119.29 414.91,-108.12"/>
</g>
<!-- emission_green -->
<g id="node14" class="node">
<title>emission_green</title>
<polygon fill="none" stroke="black" points="498.5,-108 444.5,-108 444.5,-72 498.5,-72 498.5,-108"/>
<text text-anchor="middle" x="471.5" y="-86.3" font-family="Times,serif" font-size="14.00">0.5</text>
</g>
<!-- emission_def&#45;&#45;emission_green -->
<g id="edge13" class="edge">
<title>emission_def&#45;&#45;emission_green</title>
<path fill="none" stroke="black" d="M464.72,-143.7C466.12,-132.85 467.91,-118.92 469.3,-108.1"/>
</g>
<!-- emission_blue -->
<g id="node15" class="node">
<title>emission_blue</title>
<polygon fill="none" stroke="black" points="570.5,-108 516.5,-108 516.5,-72 570.5,-72 570.5,-108"/>
<text text-anchor="middle" x="543.5" y="-86.3" font-family="Times,serif" font-size="14.00">1</text>
</g>
<!-- emission_def&#45;&#45;emission_blue -->
<g id="edge14" class="edge">
<title>emission_def&#45;&#45;emission_blue</title>
<path fill="none" stroke="black" d="M480.88,-145.12C493.67,-134.06 510.7,-119.34 523.78,-108.04"/>
</g>
</g>
</svg>
