<?xml version="1.0" encoding="UTF-8" standalone="no"?>
<!DOCTYPE svg PUBLIC "-//W3C//DTD SVG 1.1//EN"
 "http://www.w3.org/Graphics/SVG/1.1/DTD/svg11.dtd">
<!-- Generated by graphviz version 2.50.0 (0)
 -->
<!-- Pages: 1 -->
<svg width="410pt" height="260pt"
 viewBox="0.00 0.00 410.00 260.00" xmlns="http://www.w3.org/2000/svg" xmlns:xlink="http://www.w3.org/1999/xlink">
<g id="graph0" class="graph" transform="scale(1 1) rotate(0) translate(4 256)">
<polygon fill="white" stroke="transparent" points="-4,4 -4,-256 406,-256 406,4 -4,4"/>
<!-- read -->
<g id="node1" class="node">
<title>read</title>
<polygon fill="none" stroke="black" points="260,-252 142,-252 142,-216 260,-216 260,-252"/>
<text text-anchor="middle" x="201" y="-230.3" font-family="Times,serif" font-size="14.00">read input file</text>
</g>
<!-- solve -->
<g id="node2" class="node">
<title>solve</title>
<polygon fill="none" stroke="black" points="402,-180 0,-180 0,-144 402,-144 402,-180"/>
<text text-anchor="middle" x="201" y="-158.3" font-family="Times,serif" font-size="14.00">solve the rendering equation and create a HDR image</text>
</g>
<!-- read&#45;&gt;solve -->
<g id="edge1" class="edge">
<title>read&#45;&gt;solve</title>
<path fill="none" stroke="black" d="M201,-215.7C201,-207.98 201,-198.71 201,-190.11"/>
<polygon fill="black" stroke="black" points="204.5,-190.1 201,-180.1 197.5,-190.1 204.5,-190.1"/>
</g>
<!-- tonemapping -->
<g id="node3" class="node">
<title>tonemapping</title>
<polygon fill="none" stroke="black" points="365,-108 37,-108 37,-72 365,-72 365,-108"/>
<text text-anchor="middle" x="201" y="-86.3" font-family="Times,serif" font-size="14.00">apply tone mapping to convert HDR to LDR</text>
</g>
<!-- solve&#45;&gt;tonemapping -->
<g id="edge2" class="edge">
<title>solve&#45;&gt;tonemapping</title>
<path fill="none" stroke="black" d="M201,-143.7C201,-135.98 201,-126.71 201,-118.11"/>
<polygon fill="black" stroke="black" points="204.5,-118.1 201,-108.1 197.5,-118.1 204.5,-118.1"/>
</g>
<!-- save -->
<g id="node4" class="node">
<title>save</title>
<polygon fill="none" stroke="black" points="281,-36 121,-36 121,0 281,0 281,-36"/>
<text text-anchor="middle" x="201" y="-14.3" font-family="Times,serif" font-size="14.00">save the LDR image</text>
</g>
<!-- tonemapping&#45;&gt;save -->
<g id="edge3" class="edge">
<title>tonemapping&#45;&gt;save</title>
<path fill="none" stroke="black" d="M201,-71.7C201,-63.98 201,-54.71 201,-46.11"/>
<polygon fill="black" stroke="black" points="204.5,-46.1 201,-36.1 197.5,-46.1 204.5,-46.1"/>
</g>
</g>
</svg>
