<?xml version="1.0" encoding="UTF-8"?>
<svg xmlns="http://www.w3.org/2000/svg" xmlns:xlink="http://www.w3.org/1999/xlink" width="172.07874pt" height="115.385827pt" viewBox="0 0 172.07874 115.385827" version="1.1">
<g id="surface1">
<path style="fill:none;stroke-width:0.02;stroke-linecap:butt;stroke-linejoin:miter;stroke:rgb(0%,0%,0%);stroke-opacity:1;stroke-miterlimit:10;" d="M 0.000000000000000007 1.000011 L 5.958913 1.000011 " transform="matrix(28.346457,0,0,-28.346457,1,114.385827)"/>
<path style="fill-rule:nonzero;fill:rgb(0%,0%,0%);fill-opacity:1;stroke-width:0.02;stroke-linecap:butt;stroke-linejoin:miter;stroke:rgb(0%,0%,0%);stroke-opacity:1;stroke-miterlimit:10;" d="M 5.809947 0.959497 L 5.961393 1.000011 L 5.809947 1.040525 Z M 5.809947 0.959497 " transform="matrix(28.346457,0,0,-28.346457,1,114.385827)"/>
<path style="fill:none;stroke-width:0.02;stroke-linecap:butt;stroke-linejoin:miter;stroke:rgb(0%,0%,0%);stroke-opacity:1;stroke-miterlimit:10;" d="M 2.999989 -0.000031467 L 2.999989 3.958934 " transform="matrix(28.346457,0,0,-28.346457,1,114.385827)"/>
<path style="fill-rule:nonzero;fill:rgb(0%,0%,0%);fill-opacity:1;stroke-width:0.02;stroke-linecap:butt;stroke-linejoin:miter;stroke:rgb(0%,0%,0%);stroke-opacity:1;stroke-miterlimit:10;" d="M 3.040503 3.809969 L 2.999989 3.961415 L 2.959475 3.809969 Z M 3.040503 3.809969 " transform="matrix(28.346457,0,0,-28.346457,1,114.385827)"/>
<path style="fill:none;stroke-width:0.02;stroke-linecap:butt;stroke-linejoin:miter;stroke:rgb(0%,0%,0%);stroke-opacity:1;stroke-miterlimit:10;" d="M 2.999996 1.000015 L 5.000022 1.000049 " transform="matrix(24.548752,-14.173228,-14.173228,-24.548752,26.566344,153.107807)"/>
<path style="fill-rule:nonzero;fill:rgb(0%,0%,0%);fill-opacity:1;stroke-width:0.02;stroke-linecap:butt;stroke-linejoin:miter;stroke:rgb(0%,0%,0%);stroke-opacity:1;stroke-miterlimit:10;" d="M 5.099911 0.99998 C 5.100009 1.133268 4.900042 1.133355 4.900064 0.999998 C 4.899966 0.86671 5.100001 0.866743 5.099911 0.99998 " transform="matrix(24.548752,-14.173228,-14.173228,-24.548752,26.566344,153.107807)"/>
<path style="fill:none;stroke-width:0.02;stroke-linecap:butt;stroke-linejoin:miter;stroke:rgb(0%,0%,0%);stroke-opacity:1;stroke-miterlimit:10;" d="M 3.000001 1.000015 L 4.999951 1.999987 " transform="matrix(18.220751,-21.714646,-21.714646,-18.220751,53.091762,169.404058)"/>
<path style="fill-rule:nonzero;fill:rgb(39.215686%,39.215686%,39.215686%);fill-opacity:1;stroke-width:0.02;stroke-linecap:butt;stroke-linejoin:miter;stroke:rgb(0%,0%,0%);stroke-opacity:1;stroke-miterlimit:10;" d="M 5.100011 1.999938 C 5.099946 2.133362 4.900004 2.133249 4.89998 1.99993 C 4.900062 1.8667 5.099987 1.86662 5.100011 1.999938 " transform="matrix(18.220751,-21.714646,-21.714646,-18.220751,53.091762,169.404058)"/>
<path style="fill:none;stroke-width:0.02;stroke-linecap:butt;stroke-linejoin:miter;stroke:rgb(0%,0%,0%);stroke-opacity:1;stroke-miterlimit:10;" d="M 3.866086 1.499963 C 3.718223 1.756003 3.464801 1.933494 3.173622 1.984757 " transform="matrix(28.346457,0,0,-28.346457,1,114.385827)"/>
<path style=" stroke:none;fill-rule:nonzero;fill:rgb(0%,0%,0%);fill-opacity:1;" d="M 143.710938 50.585938 C 144.359375 50.78125 144.328125 51.617188 144.257812 52.132812 C 144.144531 52.730469 143.835938 53.285156 143.359375 53.65625 L 143.289062 53.65625 L 143.226562 53.605469 L 143.226562 53.511719 C 143.792969 52.996094 144.195312 52.183594 144.050781 51.441406 C 143.792969 51.8125 143.132812 51.679688 143.082031 51.226562 L 143.082031 51.019531 L 143.101562 50.949219 L 143.113281 50.886719 L 143.15625 50.8125 L 143.289062 50.679688 L 143.320312 50.667969 L 143.339844 50.648438 L 143.382812 50.628906 L 143.433594 50.609375 L 143.503906 50.585938 Z M 143.710938 50.585938 Z M 145.71875 50.585938 C 146.378906 50.78125 146.335938 51.617188 146.265625 52.132812 C 146.152344 52.730469 145.84375 53.285156 145.367188 53.65625 L 145.296875 53.65625 L 145.234375 53.605469 L 145.234375 53.511719 C 145.800781 52.996094 146.203125 52.183594 146.058594 51.441406 C 145.800781 51.8125 145.140625 51.679688 145.089844 51.226562 L 145.089844 51.019531 L 145.109375 50.949219 L 145.132812 50.886719 L 145.164062 50.8125 L 145.296875 50.679688 L 145.328125 50.667969 L 145.347656 50.648438 L 145.390625 50.628906 L 145.441406 50.609375 L 145.523438 50.585938 Z M 145.71875 50.585938 Z M 145.71875 50.585938 "/>
<path style=" stroke:none;fill-rule:nonzero;fill:rgb(0%,0%,0%);fill-opacity:1;" d="M 151.464844 50.472656 C 152.359375 50.628906 152.527344 51.710938 152.566406 52.429688 C 152.527344 54.285156 151.867188 56.40625 150.3125 57.589844 C 149.808594 57.949219 149.003906 57.898438 148.675781 57.320312 C 148.035156 55.992188 148.375 54.550781 148.828125 53.191406 C 149.273438 52.121094 149.878906 50.957031 151.023438 50.515625 L 151.09375 50.496094 L 151.1875 50.496094 L 151.207031 50.472656 Z M 151.464844 50.472656 Z M 151.226562 50.699219 C 150.546875 50.925781 150.28125 51.667969 149.980469 52.246094 C 149.746094 52.800781 149.539062 53.398438 149.4375 53.996094 L 151.539062 53.996094 C 151.792969 53.007812 152.0625 52.019531 151.765625 51.039062 L 151.671875 50.855469 L 151.578125 50.761719 L 151.507812 50.722656 L 151.445312 50.699219 L 151.433594 50.679688 L 151.25 50.679688 Z M 151.226562 50.699219 Z M 149.324219 54.347656 C 149.097656 55.386719 148.757812 56.445312 149.21875 57.457031 C 149.613281 57.878906 150.167969 57.375 150.382812 57.011719 C 150.929688 56.210938 151.269531 55.253906 151.445312 54.316406 L 149.34375 54.316406 Z M 149.324219 54.347656 Z M 149.324219 54.347656 "/>
<path style=" stroke:none;fill-rule:nonzero;fill:rgb(0%,0%,0%);fill-opacity:1;" d="M 153.691406 50.585938 C 154.339844 50.78125 154.308594 51.617188 154.234375 52.132812 C 154.121094 52.730469 153.8125 53.285156 153.339844 53.65625 L 153.265625 53.65625 L 153.207031 53.605469 L 153.207031 53.511719 C 153.773438 52.996094 154.171875 52.183594 154.03125 51.441406 C 153.773438 51.8125 153.113281 51.679688 153.0625 51.226562 L 153.0625 51.019531 L 153.082031 50.949219 L 153.09375 50.886719 L 153.132812 50.8125 L 153.265625 50.679688 L 153.296875 50.667969 L 153.320312 50.648438 L 153.359375 50.628906 L 153.410156 50.609375 L 153.484375 50.585938 Z M 153.691406 50.585938 Z M 155.699219 50.585938 C 156.355469 50.78125 156.316406 51.617188 156.242188 52.132812 C 156.128906 52.730469 155.820312 53.285156 155.347656 53.65625 L 155.277344 53.65625 L 155.214844 53.605469 L 155.214844 53.511719 C 155.78125 52.996094 156.183594 52.183594 156.039062 51.441406 C 155.78125 51.8125 155.121094 51.679688 155.070312 51.226562 L 155.070312 51.019531 L 155.089844 50.949219 L 155.109375 50.886719 L 155.140625 50.8125 L 155.277344 50.679688 L 155.304688 50.667969 L 155.328125 50.648438 L 155.367188 50.628906 L 155.417969 50.609375 L 155.503906 50.585938 Z M 155.699219 50.585938 Z M 155.699219 50.585938 "/>
</g>
</svg>
