<?xml version="1.0" encoding="UTF-8" standalone="no"?>
<!DOCTYPE svg PUBLIC "-//W3C//DTD SVG 1.1//EN"
 "http://www.w3.org/Graphics/SVG/1.1/DTD/svg11.dtd">
<!-- Generated by graphviz version 2.43.0 (0)
 -->
<!-- Pages: 1 -->
<svg width="348pt" height="116pt"
 viewBox="0.00 0.00 348.00 116.00" xmlns="http://www.w3.org/2000/svg" xmlns:xlink="http://www.w3.org/1999/xlink">
<g id="graph0" class="graph" transform="scale(1 1) rotate(0) translate(4 112)">
<polygon fill="white" stroke="transparent" points="-4,4 -4,-112 344,-112 344,4 -4,4"/>
<!-- camera -->
<g id="node1" class="node">
<title>camera</title>
<polygon fill="none" stroke="black" points="208.5,-108 136.5,-108 136.5,-72 208.5,-72 208.5,-108"/>
<text text-anchor="middle" x="172.5" y="-86.3" font-family="Times,serif" font-size="14.00">Camera</text>
</g>
<!-- ortho -->
<g id="node2" class="node">
<title>ortho</title>
<polygon fill="none" stroke="black" points="167,-36 0,-36 0,0 167,0 167,-36"/>
<text text-anchor="middle" x="83.5" y="-14.3" font-family="Times,serif" font-size="14.00">OrthographicCamera</text>
</g>
<!-- camera&#45;&#45;ortho -->
<g id="edge1" class="edge">
<title>camera&#45;&#45;ortho</title>
<path fill="none" stroke="black" d="M150.5,-71.7C136.7,-60.85 118.99,-46.92 105.25,-36.1"/>
</g>
<!-- persp -->
<g id="node3" class="node">
<title>persp</title>
<polygon fill="none" stroke="black" points="340,-36 185,-36 185,0 340,0 340,-36"/>
<text text-anchor="middle" x="262.5" y="-14.3" font-family="Times,serif" font-size="14.00">PerspectiveCamera</text>
</g>
<!-- camera&#45;&#45;persp -->
<g id="edge2" class="edge">
<title>camera&#45;&#45;persp</title>
<path fill="none" stroke="black" d="M194.75,-71.7C208.7,-60.85 226.61,-46.92 240.51,-36.1"/>
</g>
</g>
</svg>
