<?xml version="1.0" encoding="UTF-8" standalone="no"?>
<!DOCTYPE svg PUBLIC "-//W3C//DTD SVG 1.1//EN"
 "http://www.w3.org/Graphics/SVG/1.1/DTD/svg11.dtd">
<!-- Generated by graphviz version 2.50.0 (0)
 -->
<!-- Pages: 1 -->
<svg width="334pt" height="116pt"
 viewBox="0.00 0.00 333.50 116.00" xmlns="http://www.w3.org/2000/svg" xmlns:xlink="http://www.w3.org/1999/xlink">
<g id="graph0" class="graph" transform="scale(1 1) rotate(0) translate(4 112)">
<polygon fill="white" stroke="transparent" points="-4,4 -4,-112 329.5,-112 329.5,4 -4,4"/>
<!-- camera -->
<g id="node1" class="node">
<title>camera</title>
<polygon fill="none" stroke="black" points="198,-108 126,-108 126,-72 198,-72 198,-108"/>
<text text-anchor="middle" x="162" y="-86.3" font-family="Times,serif" font-size="14.00">Camera</text>
</g>
<!-- ortho -->
<g id="node2" class="node">
<title>ortho</title>
<polygon fill="none" stroke="black" points="152,-36 0,-36 0,0 152,0 152,-36"/>
<text text-anchor="middle" x="76" y="-14.3" font-family="Times,serif" font-size="14.00">OrthogonalCamera</text>
</g>
<!-- camera&#45;&#45;ortho -->
<g id="edge1" class="edge">
<title>camera&#45;&#45;ortho</title>
<path fill="none" stroke="black" d="M140.74,-71.7C127.41,-60.85 110.3,-46.92 97.01,-36.1"/>
</g>
<!-- persp -->
<g id="node3" class="node">
<title>persp</title>
<polygon fill="none" stroke="black" points="325.5,-36 170.5,-36 170.5,0 325.5,0 325.5,-36"/>
<text text-anchor="middle" x="248" y="-14.3" font-family="Times,serif" font-size="14.00">PerspectiveCamera</text>
</g>
<!-- camera&#45;&#45;persp -->
<g id="edge2" class="edge">
<title>camera&#45;&#45;persp</title>
<path fill="none" stroke="black" d="M183.26,-71.7C196.59,-60.85 213.7,-46.92 226.99,-36.1"/>
</g>
</g>
</svg>
