<?xml version="1.0" encoding="UTF-8" standalone="no"?>
<!DOCTYPE svg PUBLIC "-//W3C//DTD SVG 1.1//EN"
 "http://www.w3.org/Graphics/SVG/1.1/DTD/svg11.dtd">
<!-- Generated by graphviz version 2.43.0 (0)
 -->
<!-- Pages: 1 -->
<svg width="744pt" height="44pt"
 viewBox="0.00 0.00 744.48 44.00" xmlns="http://www.w3.org/2000/svg" xmlns:xlink="http://www.w3.org/1999/xlink">
<g id="graph0" class="graph" transform="scale(1 1) rotate(0) translate(4 40)">
<polygon fill="white" stroke="transparent" points="-4,4 -4,-40 740.48,-40 740.48,4 -4,4"/>
<!-- source -->
<g id="node1" class="node">
<title>source</title>
<ellipse fill="none" stroke="black" cx="65.64" cy="-18" rx="65.79" ry="18"/>
<text text-anchor="middle" x="65.64" y="-14.3" font-family="Times,serif" font-size="14.00">source code</text>
</g>
<!-- lexer -->
<g id="node2" class="node">
<title>lexer</title>
<polygon fill="none" stroke="black" points="221.29,-36 167.29,-36 167.29,0 221.29,0 221.29,-36"/>
<text text-anchor="middle" x="194.29" y="-14.3" font-family="Times,serif" font-size="14.00">lexer</text>
</g>
<!-- source&#45;&#45;lexer -->
<g id="edge1" class="edge">
<title>source&#45;&#45;lexer</title>
<path fill="none" stroke="black" d="M131.45,-18C144.11,-18 156.69,-18 167.16,-18"/>
</g>
<!-- parser -->
<g id="node3" class="node">
<title>parser</title>
<polygon fill="none" stroke="black" points="320.29,-36 257.29,-36 257.29,0 320.29,0 320.29,-36"/>
<text text-anchor="middle" x="288.79" y="-14.3" font-family="Times,serif" font-size="14.00">parser</text>
</g>
<!-- lexer&#45;&#45;parser -->
<g id="edge2" class="edge">
<title>lexer&#45;&#45;parser</title>
<path fill="none" stroke="black" d="M221.55,-18C232.66,-18 245.67,-18 257.21,-18"/>
</g>
<!-- AST -->
<g id="node4" class="node">
<title>AST</title>
<polygon fill="none" stroke="black" points="457.29,-36 356.29,-36 356.29,0 457.29,0 457.29,-36"/>
<text text-anchor="middle" x="406.79" y="-14.3" font-family="Times,serif" font-size="14.00">AST builder</text>
</g>
<!-- parser&#45;&#45;AST -->
<g id="edge3" class="edge">
<title>parser&#45;&#45;AST</title>
<path fill="none" stroke="black" d="M320.57,-18C331.44,-18 343.97,-18 356.01,-18"/>
</g>
<!-- optimizer -->
<g id="node5" class="node">
<title>optimizer</title>
<polygon fill="none" stroke="black" points="578.29,-36 493.29,-36 493.29,0 578.29,0 578.29,-36"/>
<text text-anchor="middle" x="535.79" y="-14.3" font-family="Times,serif" font-size="14.00">optimizer</text>
</g>
<!-- AST&#45;&#45;optimizer -->
<g id="edge4" class="edge">
<title>AST&#45;&#45;optimizer</title>
<path fill="none" stroke="black" d="M457.62,-18C469.29,-18 481.61,-18 492.9,-18"/>
</g>
<!-- executable -->
<g id="node6" class="node">
<title>executable</title>
<ellipse fill="none" stroke="black" cx="675.38" cy="-18" rx="61.19" ry="18"/>
<text text-anchor="middle" x="675.38" y="-14.3" font-family="Times,serif" font-size="14.00">executable</text>
</g>
<!-- optimizer&#45;&#45;executable -->
<g id="edge5" class="edge">
<title>optimizer&#45;&#45;executable</title>
<path fill="none" stroke="black" d="M578.44,-18C589.68,-18 602.06,-18 614.09,-18"/>
</g>
</g>
</svg>
