<?xml version="1.0" encoding="UTF-8"?>
<svg xmlns="http://www.w3.org/2000/svg" xmlns:xlink="http://www.w3.org/1999/xlink" width="172.07874pt" height="115.385827pt" viewBox="0 0 172.07874 115.385827" version="1.1">
<g id="surface1">
<path style="fill:none;stroke-width:0.04;stroke-linecap:butt;stroke-linejoin:miter;stroke:rgb(0%,0%,0%);stroke-opacity:1;stroke-miterlimit:10;" d="M 0.000000000000000007 1.000011 L 5.917847 1.000011 " transform="matrix(28.346457,0,0,-28.346457,1,114.385827)"/>
<path style="fill-rule:nonzero;fill:rgb(0%,0%,0%);fill-opacity:1;stroke-width:0.04;stroke-linecap:butt;stroke-linejoin:miter;stroke:rgb(0%,0%,0%);stroke-opacity:1;stroke-miterlimit:10;" d="M 5.746281 0.952744 L 5.92267 1.000011 L 5.746281 1.047278 Z M 5.746281 0.952744 " transform="matrix(28.346457,0,0,-28.346457,1,114.385827)"/>
<path style="fill:none;stroke-width:0.04;stroke-linecap:butt;stroke-linejoin:miter;stroke:rgb(0%,0%,0%);stroke-opacity:1;stroke-miterlimit:10;" d="M 2.999989 -0.000031467 L 2.999989 3.917869 " transform="matrix(28.346457,0,0,-28.346457,1,114.385827)"/>
<path style="fill-rule:nonzero;fill:rgb(0%,0%,0%);fill-opacity:1;stroke-width:0.04;stroke-linecap:butt;stroke-linejoin:miter;stroke:rgb(0%,0%,0%);stroke-opacity:1;stroke-miterlimit:10;" d="M 3.047256 3.746303 L 2.999989 3.922692 L 2.952722 3.746303 Z M 3.047256 3.746303 " transform="matrix(28.346457,0,0,-28.346457,1,114.385827)"/>
<path style="fill:none;stroke-width:0.04;stroke-linecap:butt;stroke-linejoin:miter;stroke:rgb(0%,0%,0%);stroke-opacity:1;stroke-miterlimit:10;" d="M 2.999996 1.000015 L 5.000022 1.000049 " transform="matrix(24.548752,-14.173228,-14.173228,-24.548752,26.566344,153.107807)"/>
<path style="fill-rule:nonzero;fill:rgb(0%,0%,0%);fill-opacity:1;stroke-width:0.04;stroke-linecap:butt;stroke-linejoin:miter;stroke:rgb(0%,0%,0%);stroke-opacity:1;stroke-miterlimit:10;" d="M 5.099911 0.99998 C 5.100009 1.133268 4.900042 1.133355 4.900064 0.999998 C 4.899966 0.86671 5.100001 0.866743 5.099911 0.99998 " transform="matrix(24.548752,-14.173228,-14.173228,-24.548752,26.566344,153.107807)"/>
<path style="fill:none;stroke-width:0.04;stroke-linecap:butt;stroke-linejoin:miter;stroke:rgb(0%,0%,0%);stroke-opacity:1;stroke-miterlimit:10;" d="M 3.000001 1.000015 L 4.999951 1.999987 " transform="matrix(18.220751,-21.714646,-21.714646,-18.220751,53.091762,169.404058)"/>
<path style="fill-rule:nonzero;fill:rgb(39.215686%,39.215686%,39.215686%);fill-opacity:1;stroke-width:0.04;stroke-linecap:butt;stroke-linejoin:miter;stroke:rgb(0%,0%,0%);stroke-opacity:1;stroke-miterlimit:10;" d="M 5.100011 1.999938 C 5.099946 2.133362 4.900004 2.133249 4.89998 1.99993 C 4.900062 1.8667 5.099987 1.86662 5.100011 1.999938 " transform="matrix(18.220751,-21.714646,-21.714646,-18.220751,53.091762,169.404058)"/>
<path style="fill:none;stroke-width:0.04;stroke-linecap:butt;stroke-linejoin:miter;stroke:rgb(0%,0%,0%);stroke-opacity:1;stroke-miterlimit:10;" d="M 3.866086 1.499963 C 3.718223 1.756003 3.464801 1.933494 3.173622 1.984757 " transform="matrix(28.346457,0,0,-28.346457,1,114.385827)"/>
<path style=" stroke:none;fill-rule:nonzero;fill:rgb(0%,0%,0%);fill-opacity:1;" d="M 103.796875 50.472656 C 104.691406 50.628906 104.855469 51.710938 104.898438 52.429688 C 104.855469 54.285156 104.199219 56.40625 102.644531 57.589844 C 102.136719 57.949219 101.335938 57.898438 101.003906 57.320312 C 100.367188 55.992188 100.707031 54.550781 101.160156 53.191406 C 101.601562 52.121094 102.210938 50.957031 103.355469 50.515625 L 103.425781 50.496094 L 103.519531 50.496094 L 103.539062 50.472656 Z M 103.796875 50.472656 Z M 103.558594 50.699219 C 102.878906 50.925781 102.613281 51.667969 102.3125 52.246094 C 102.078125 52.800781 101.871094 53.398438 101.769531 53.996094 L 103.867188 53.996094 C 104.125 53.007812 104.394531 52.019531 104.09375 51.039062 L 104.003906 50.855469 L 103.910156 50.761719 L 103.835938 50.722656 L 103.777344 50.699219 L 103.765625 50.679688 L 103.582031 50.679688 Z M 103.558594 50.699219 Z M 101.65625 54.347656 C 101.429688 55.386719 101.089844 56.445312 101.550781 57.457031 C 101.941406 57.878906 102.5 57.375 102.714844 57.011719 C 103.261719 56.210938 103.601562 55.253906 103.777344 54.316406 L 101.675781 54.316406 Z M 101.65625 54.347656 Z M 101.65625 54.347656 "/>
<path style=" stroke:none;fill-rule:nonzero;fill:rgb(0%,0%,0%);fill-opacity:1;" d="M 146.75 53.304688 C 146.964844 53.46875 146.625 53.675781 146.5625 53.851562 C 145.667969 55.046875 144.71875 56.28125 143.886719 57.476562 L 145.347656 57.476562 C 145.800781 57.457031 146.355469 57.230469 146.46875 56.714844 C 146.574219 56.40625 146.582031 56.105469 146.613281 55.796875 L 146.863281 55.796875 C 146.800781 56.4375 146.75 57.074219 146.6875 57.703125 L 143.101562 57.703125 C 142.875 57.519531 143.246094 57.292969 143.320312 57.105469 C 144.203125 55.910156 145.152344 54.707031 145.964844 53.511719 L 144.554688 53.511719 C 144.132812 53.53125 143.617188 53.71875 143.523438 54.203125 L 143.496094 54.347656 L 143.472656 54.367188 L 143.472656 54.460938 L 143.453125 54.480469 L 143.453125 54.613281 L 143.433594 54.625 L 143.433594 54.808594 L 143.410156 54.828125 L 143.410156 54.941406 L 143.175781 54.941406 C 143.214844 54.398438 143.246094 53.851562 143.289062 53.304688 Z M 146.75 53.304688 Z M 146.75 53.304688 "/>
<path style=" stroke:none;fill-rule:nonzero;fill:rgb(0%,0%,0%);fill-opacity:1;" d="M 113.261719 19.175781 L 113.261719 20.257812 C 113.351562 20.113281 113.457031 19.804688 113.609375 19.628906 C 113.980469 19.105469 114.96875 18.960938 115.269531 19.628906 C 115.339844 19.878906 115.238281 20.175781 114.96875 20.238281 C 114.589844 20.339844 114.28125 19.9375 114.445312 19.589844 L 114.464844 19.566406 L 114.484375 19.539062 L 114.527344 19.496094 L 114.558594 19.476562 L 114.597656 19.445312 L 114.628906 19.425781 L 114.652344 19.402344 C 113.949219 19.28125 113.488281 20.03125 113.382812 20.648438 L 113.375 20.742188 L 113.351562 20.761719 L 113.351562 20.875 L 113.332031 20.886719 L 113.332031 21.0625 L 113.3125 21.082031 L 113.3125 23.101562 C 113.351562 23.367188 113.640625 23.378906 113.835938 23.398438 L 114.320312 23.398438 L 114.320312 23.6875 L 114.09375 23.6875 L 114.074219 23.675781 L 113.199219 23.675781 L 113.179688 23.667969 L 112.828125 23.667969 L 112.808594 23.675781 L 112.066406 23.675781 L 112.046875 23.6875 L 111.859375 23.6875 L 111.859375 23.398438 C 112.148438 23.378906 112.550781 23.480469 112.664062 23.140625 L 112.664062 19.960938 C 112.613281 19.566406 112.167969 19.578125 111.859375 19.589844 L 111.859375 19.289062 C 112.324219 19.25 112.796875 19.21875 113.261719 19.175781 Z M 113.261719 19.175781 Z M 113.261719 19.175781 "/>
<path style=" stroke:none;fill-rule:nonzero;fill:rgb(0%,0%,0%);fill-opacity:1;" d="M 118.925781 15.996094 L 118.945312 16.015625 L 118.976562 16.035156 L 118.976562 16.128906 C 117.71875 17.292969 117.246094 19.09375 117.175781 20.691406 L 117.175781 21.578125 C 117.246094 23.164062 117.710938 24.976562 118.976562 26.109375 L 118.976562 26.222656 L 118.945312 26.242188 C 118.699219 26.292969 118.542969 25.964844 118.347656 25.851562 C 116.742188 24.265625 116.371094 21.804688 116.710938 19.722656 C 116.949219 18.269531 117.648438 16.878906 118.832031 15.996094 Z M 118.925781 15.996094 Z M 118.925781 15.996094 "/>
<path style=" stroke:none;fill-rule:nonzero;fill:rgb(0%,0%,0%);fill-opacity:1;" d="M 123.15625 16.457031 C 124.054688 16.613281 124.21875 17.695312 124.257812 18.414062 C 124.21875 20.269531 123.558594 22.390625 122.003906 23.574219 C 121.5 23.933594 120.695312 23.882812 120.367188 23.304688 C 119.726562 21.976562 120.066406 20.535156 120.519531 19.175781 C 120.964844 18.105469 121.570312 16.941406 122.714844 16.5 L 122.785156 16.480469 L 122.878906 16.480469 L 122.898438 16.457031 Z M 123.15625 16.457031 Z M 122.921875 16.683594 C 122.242188 16.910156 121.972656 17.652344 121.675781 18.230469 C 121.4375 18.785156 121.230469 19.382812 121.128906 19.980469 L 123.230469 19.980469 C 123.488281 18.992188 123.753906 18.003906 123.457031 17.023438 L 123.363281 16.839844 L 123.269531 16.746094 L 123.199219 16.707031 L 123.136719 16.683594 L 123.125 16.664062 L 122.941406 16.664062 Z M 122.921875 16.683594 Z M 121.015625 20.332031 C 120.789062 21.371094 120.449219 22.429688 120.914062 23.441406 C 121.304688 23.863281 121.859375 23.359375 122.074219 22.996094 C 122.621094 22.195312 122.960938 21.238281 123.136719 20.300781 L 121.035156 20.300781 Z M 121.015625 20.332031 Z M 121.015625 20.332031 "/>
<path style=" stroke:none;fill-rule:nonzero;fill:rgb(0%,0%,0%);fill-opacity:1;" d="M 125.144531 15.996094 C 126.617188 17.074219 127.308594 19.011719 127.378906 20.742188 C 127.460938 22.699219 126.886719 24.851562 125.289062 26.148438 L 125.257812 26.167969 L 125.195312 26.222656 L 125.164062 26.242188 L 125.144531 26.261719 L 125.050781 26.261719 L 124.992188 26.199219 L 124.992188 26.128906 C 126.246094 24.964844 126.730469 23.171875 126.804688 21.578125 L 126.804688 20.691406 C 126.730469 19.09375 126.246094 17.292969 124.992188 16.128906 L 124.992188 16.054688 L 125.050781 15.996094 Z M 125.144531 15.996094 Z M 125.144531 15.996094 "/>
<path style=" stroke:none;fill-rule:nonzero;fill:rgb(0%,0%,0%);fill-opacity:1;" d="M 134.824219 19.289062 C 135.042969 19.453125 134.703125 19.660156 134.640625 19.835938 C 133.742188 21.03125 132.796875 22.265625 131.960938 23.460938 L 133.425781 23.460938 C 133.878906 23.441406 134.433594 23.214844 134.546875 22.699219 C 134.648438 22.390625 134.660156 22.089844 134.691406 21.78125 L 134.9375 21.78125 C 134.875 22.421875 134.824219 23.058594 134.761719 23.6875 L 131.179688 23.6875 C 130.953125 23.503906 131.324219 23.277344 131.394531 23.089844 C 132.28125 21.894531 133.230469 20.691406 134.042969 19.496094 L 132.632812 19.496094 C 132.210938 19.515625 131.695312 19.703125 131.601562 20.1875 L 131.570312 20.332031 L 131.550781 20.351562 L 131.550781 20.445312 L 131.53125 20.464844 L 131.53125 20.597656 L 131.507812 20.609375 L 131.507812 20.792969 L 131.488281 20.8125 L 131.488281 20.925781 L 131.25 20.925781 C 131.292969 20.382812 131.324219 19.835938 131.363281 19.289062 Z M 134.824219 19.289062 Z M 134.824219 19.289062 "/>
</g>
</svg>
