<?xml version="1.0" encoding="UTF-8" standalone="no"?>
<!DOCTYPE svg PUBLIC "-//W3C//DTD SVG 1.1//EN"
 "http://www.w3.org/Graphics/SVG/1.1/DTD/svg11.dtd">
<!-- Generated by graphviz version 2.50.0 (0)
 -->
<!-- Pages: 1 -->
<svg width="231pt" height="260pt"
 viewBox="0.00 0.00 231.00 260.00" xmlns="http://www.w3.org/2000/svg" xmlns:xlink="http://www.w3.org/1999/xlink">
<g id="graph0" class="graph" transform="scale(1 1) rotate(0) translate(4 256)">
<polygon fill="white" stroke="transparent" points="-4,4 -4,-256 227,-256 227,4 -4,4"/>
<!-- read -->
<g id="node1" class="node">
<title>read</title>
<polygon fill="none" stroke="black" points="170.5,-252 52.5,-252 52.5,-216 170.5,-216 170.5,-252"/>
<text text-anchor="middle" x="111.5" y="-230.3" font-family="Times,serif" font-size="14.00">read input file</text>
</g>
<!-- solve -->
<g id="node2" class="node">
<title>solve</title>
<polygon fill="none" stroke="black" points="223,-180 0,-180 0,-144 223,-144 223,-180"/>
<text text-anchor="middle" x="111.5" y="-158.3" font-family="Times,serif" font-size="14.00">solve the rendering equation</text>
</g>
<!-- read&#45;&gt;solve -->
<g id="edge1" class="edge">
<title>read&#45;&gt;solve</title>
<path fill="none" stroke="black" d="M111.5,-215.7C111.5,-207.98 111.5,-198.71 111.5,-190.11"/>
<polygon fill="black" stroke="black" points="115,-190.1 111.5,-180.1 108,-190.1 115,-190.1"/>
</g>
<!-- tonemapping -->
<g id="node3" class="node">
<title>tonemapping</title>
<polygon fill="none" stroke="black" points="190.5,-108 32.5,-108 32.5,-72 190.5,-72 190.5,-108"/>
<text text-anchor="middle" x="111.5" y="-86.3" font-family="Times,serif" font-size="14.00">apply tone mapping</text>
</g>
<!-- solve&#45;&gt;tonemapping -->
<g id="edge2" class="edge">
<title>solve&#45;&gt;tonemapping</title>
<path fill="none" stroke="black" d="M111.5,-143.7C111.5,-135.98 111.5,-126.71 111.5,-118.11"/>
<polygon fill="black" stroke="black" points="115,-118.1 111.5,-108.1 108,-118.1 115,-118.1"/>
</g>
<!-- save -->
<g id="node4" class="node">
<title>save</title>
<polygon fill="none" stroke="black" points="174,-36 49,-36 49,0 174,0 174,-36"/>
<text text-anchor="middle" x="111.5" y="-14.3" font-family="Times,serif" font-size="14.00">save the image</text>
</g>
<!-- tonemapping&#45;&gt;save -->
<g id="edge3" class="edge">
<title>tonemapping&#45;&gt;save</title>
<path fill="none" stroke="black" d="M111.5,-71.7C111.5,-63.98 111.5,-54.71 111.5,-46.11"/>
<polygon fill="black" stroke="black" points="115,-46.1 111.5,-36.1 108,-46.1 115,-46.1"/>
</g>
</g>
</svg>
