<?xml version="1.0" encoding="UTF-8"?>
<svg xmlns="http://www.w3.org/2000/svg" xmlns:xlink="http://www.w3.org/1999/xlink" width="172.07874pt" height="115.385827pt" viewBox="0 0 172.07874 115.385827" version="1.1">
<g id="surface1">
<path style="fill:none;stroke-width:0.04;stroke-linecap:butt;stroke-linejoin:miter;stroke:rgb(0%,0%,0%);stroke-opacity:1;stroke-miterlimit:10;" d="M 0.000000000000000007 1.000011 L 5.917847 1.000011 " transform="matrix(28.346457,0,0,-28.346457,1,114.385827)"/>
<path style="fill-rule:nonzero;fill:rgb(0%,0%,0%);fill-opacity:1;stroke-width:0.04;stroke-linecap:butt;stroke-linejoin:miter;stroke:rgb(0%,0%,0%);stroke-opacity:1;stroke-miterlimit:10;" d="M 5.746281 0.952744 L 5.92267 1.000011 L 5.746281 1.047278 Z M 5.746281 0.952744 " transform="matrix(28.346457,0,0,-28.346457,1,114.385827)"/>
<path style="fill:none;stroke-width:0.04;stroke-linecap:butt;stroke-linejoin:miter;stroke:rgb(0%,0%,0%);stroke-opacity:1;stroke-miterlimit:10;" d="M 2.999989 -0.000031467 L 2.999989 3.917869 " transform="matrix(28.346457,0,0,-28.346457,1,114.385827)"/>
<path style="fill-rule:nonzero;fill:rgb(0%,0%,0%);fill-opacity:1;stroke-width:0.04;stroke-linecap:butt;stroke-linejoin:miter;stroke:rgb(0%,0%,0%);stroke-opacity:1;stroke-miterlimit:10;" d="M 3.047256 3.746303 L 2.999989 3.922692 L 2.952722 3.746303 Z M 3.047256 3.746303 " transform="matrix(28.346457,0,0,-28.346457,1,114.385827)"/>
<path style="fill:none;stroke-width:0.04;stroke-linecap:butt;stroke-linejoin:miter;stroke:rgb(0%,0%,0%);stroke-opacity:1;stroke-miterlimit:10;" d="M 2.999996 1.000015 L 5.000022 1.000049 " transform="matrix(24.548752,-14.173228,-14.173228,-24.548752,26.566344,153.107807)"/>
<path style="fill-rule:nonzero;fill:rgb(0%,0%,0%);fill-opacity:1;stroke-width:0.04;stroke-linecap:butt;stroke-linejoin:miter;stroke:rgb(0%,0%,0%);stroke-opacity:1;stroke-miterlimit:10;" d="M 5.099911 0.99998 C 5.100009 1.133268 4.900042 1.133355 4.900064 0.999998 C 4.899966 0.86671 5.100001 0.866743 5.099911 0.99998 " transform="matrix(24.548752,-14.173228,-14.173228,-24.548752,26.566344,153.107807)"/>
<path style="fill:none;stroke-width:0.04;stroke-linecap:butt;stroke-linejoin:miter;stroke:rgb(0%,0%,0%);stroke-opacity:1;stroke-miterlimit:10;" d="M 3.000001 1.000015 L 4.999951 1.999987 " transform="matrix(18.220751,-21.714646,-21.714646,-18.220751,53.091762,169.404058)"/>
<path style="fill-rule:nonzero;fill:rgb(39.215686%,39.215686%,39.215686%);fill-opacity:1;stroke-width:0.04;stroke-linecap:butt;stroke-linejoin:miter;stroke:rgb(0%,0%,0%);stroke-opacity:1;stroke-miterlimit:10;" d="M 5.100011 1.999938 C 5.099946 2.133362 4.900004 2.133249 4.89998 1.99993 C 4.900062 1.8667 5.099987 1.86662 5.100011 1.999938 " transform="matrix(18.220751,-21.714646,-21.714646,-18.220751,53.091762,169.404058)"/>
<path style="fill:none;stroke-width:0.04;stroke-linecap:butt;stroke-linejoin:miter;stroke:rgb(0%,0%,0%);stroke-opacity:1;stroke-miterlimit:10;" d="M 3.866086 1.499963 C 3.718223 1.756003 3.464801 1.933494 3.173622 1.984757 " transform="matrix(28.346457,0,0,-28.346457,1,114.385827)"/>
<path style=" stroke:none;fill-rule:nonzero;fill:rgb(0%,0%,0%);fill-opacity:1;" d="M 113.21875 45.769531 C 114.699219 46.027344 114.96875 47.8125 115.039062 49 C 114.96875 52.0625 113.882812 55.566406 111.3125 57.523438 C 110.480469 58.117188 109.152344 58.03125 108.609375 57.082031 C 107.554688 54.886719 108.117188 52.503906 108.863281 50.261719 C 109.59375 48.492188 110.597656 46.570312 112.488281 45.839844 L 112.605469 45.804688 L 112.757812 45.804688 L 112.792969 45.769531 Z M 113.21875 45.769531 Z M 112.828125 46.144531 C 111.703125 46.519531 111.261719 47.742188 110.769531 48.695312 C 110.378906 49.613281 110.039062 50.601562 109.867188 51.585938 L 113.335938 51.585938 C 113.761719 49.953125 114.203125 48.320312 113.710938 46.707031 L 113.558594 46.398438 L 113.40625 46.246094 L 113.285156 46.179688 L 113.183594 46.144531 L 113.167969 46.109375 L 112.859375 46.109375 Z M 112.828125 46.144531 Z M 109.679688 52.164062 C 109.304688 53.882812 108.746094 55.636719 109.511719 57.300781 C 110.15625 58 111.074219 57.164062 111.433594 56.570312 C 112.332031 55.242188 112.894531 53.660156 113.183594 52.113281 L 109.714844 52.113281 Z M 109.679688 52.164062 Z M 109.679688 52.164062 "/>
<path style=" stroke:none;fill-rule:nonzero;fill:rgb(0%,0%,0%);fill-opacity:1;" d="M 143.34375 50.449219 L 143.363281 50.480469 L 144.382812 50.480469 L 144.417969 50.515625 L 144.941406 50.515625 L 144.960938 50.480469 L 146.203125 50.480469 L 146.21875 50.449219 L 146.542969 50.449219 L 146.542969 50.941406 C 146.132812 50.890625 145.367188 51.078125 145.640625 51.621094 C 146.285156 53.21875 146.933594 54.835938 147.578125 56.433594 C 148.207031 54.921875 148.804688 53.371094 149.417969 51.859375 C 149.535156 51.367188 149.109375 50.921875 148.617188 50.941406 L 148.617188 50.449219 L 148.871094 50.449219 L 148.90625 50.480469 L 149.875 50.480469 L 149.910156 50.515625 L 150.316406 50.515625 L 150.351562 50.480469 L 151.117188 50.480469 L 151.152344 50.449219 L 151.320312 50.449219 L 151.320312 50.941406 C 150.453125 50.90625 149.839844 51.65625 149.636719 52.453125 C 148.871094 54.257812 148.242188 56.128906 147.390625 57.863281 C 146.832031 58.085938 146.796875 57.300781 146.59375 56.960938 C 145.757812 55.023438 145.113281 53 144.160156 51.128906 L 143.992188 51.027344 L 143.855469 51.007812 L 143.835938 50.976562 L 143.652344 50.976562 L 143.617188 50.941406 L 143.089844 50.941406 L 143.089844 50.449219 Z M 143.34375 50.449219 Z M 143.34375 50.449219 "/>
<path style=" stroke:none;fill-rule:nonzero;fill:rgb(0%,0%,0%);fill-opacity:1;" d="M 114.375 16.246094 L 114.375 18.03125 C 114.527344 17.792969 114.699219 17.28125 114.953125 16.992188 C 115.566406 16.125 117.199219 15.886719 117.691406 16.992188 C 117.808594 17.402344 117.640625 17.894531 117.199219 17.996094 C 116.570312 18.167969 116.058594 17.503906 116.332031 16.925781 L 116.363281 16.890625 L 116.398438 16.839844 L 116.464844 16.773438 L 116.515625 16.738281 L 116.585938 16.6875 L 116.636719 16.652344 L 116.671875 16.617188 C 115.515625 16.414062 114.75 17.65625 114.578125 18.675781 L 114.5625 18.828125 L 114.527344 18.863281 L 114.527344 19.050781 L 114.492188 19.066406 L 114.492188 19.355469 L 114.460938 19.390625 L 114.460938 22.726562 C 114.527344 23.167969 115.003906 23.183594 115.328125 23.21875 L 116.125 23.21875 L 116.125 23.695312 L 115.753906 23.695312 L 115.71875 23.675781 L 114.273438 23.675781 L 114.238281 23.660156 L 113.660156 23.660156 L 113.625 23.675781 L 112.402344 23.675781 L 112.367188 23.695312 L 112.0625 23.695312 L 112.0625 23.21875 C 112.539062 23.183594 113.199219 23.355469 113.386719 22.792969 L 113.386719 17.539062 C 113.304688 16.890625 112.570312 16.90625 112.0625 16.925781 L 112.0625 16.433594 C 112.828125 16.363281 113.609375 16.3125 114.375 16.246094 Z M 114.375 16.246094 Z M 114.375 16.246094 "/>
<path style=" stroke:none;fill-rule:nonzero;fill:rgb(0%,0%,0%);fill-opacity:1;" d="M 123.730469 10.988281 L 123.761719 11.023438 L 123.8125 11.058594 L 123.8125 11.210938 C 121.738281 13.132812 120.957031 16.109375 120.835938 18.746094 L 120.835938 20.207031 C 120.957031 22.828125 121.722656 25.820312 123.8125 27.691406 L 123.8125 27.878906 L 123.761719 27.914062 C 123.355469 27.996094 123.097656 27.453125 122.777344 27.265625 C 120.125 24.648438 119.511719 20.582031 120.070312 17.144531 C 120.464844 14.746094 121.621094 12.453125 123.574219 10.988281 Z M 123.730469 10.988281 Z M 123.730469 10.988281 "/>
<path style=" stroke:none;fill-rule:nonzero;fill:rgb(0%,0%,0%);fill-opacity:1;" d="M 130.71875 11.753906 C 132.199219 12.007812 132.472656 13.796875 132.539062 14.984375 C 132.472656 18.046875 131.382812 21.550781 128.8125 23.507812 C 127.980469 24.101562 126.652344 24.015625 126.109375 23.066406 C 125.054688 20.871094 125.617188 18.488281 126.363281 16.246094 C 127.097656 14.476562 128.101562 12.554688 129.988281 11.824219 L 130.105469 11.789062 L 130.261719 11.789062 L 130.292969 11.753906 Z M 130.71875 11.753906 Z M 130.328125 12.128906 C 129.207031 12.503906 128.761719 13.726562 128.269531 14.679688 C 127.878906 15.597656 127.539062 16.585938 127.367188 17.570312 L 130.839844 17.570312 C 131.261719 15.9375 131.707031 14.304688 131.210938 12.691406 L 131.058594 12.382812 L 130.90625 12.230469 L 130.785156 12.164062 L 130.683594 12.128906 L 130.667969 12.09375 L 130.363281 12.09375 Z M 130.328125 12.128906 Z M 127.179688 18.148438 C 126.808594 19.867188 126.246094 21.621094 127.011719 23.285156 C 127.65625 23.984375 128.574219 23.148438 128.933594 22.554688 C 129.835938 21.226562 130.394531 19.644531 130.683594 18.097656 L 127.214844 18.097656 Z M 127.179688 18.148438 Z M 127.179688 18.148438 "/>
<path style=" stroke:none;fill-rule:nonzero;fill:rgb(0%,0%,0%);fill-opacity:1;" d="M 134 10.988281 C 136.433594 12.773438 137.574219 15.972656 137.691406 18.828125 C 137.828125 22.0625 136.875 25.617188 134.238281 27.757812 L 134.1875 27.792969 L 134.085938 27.878906 L 134.035156 27.914062 L 134 27.945312 L 133.847656 27.945312 L 133.746094 27.84375 L 133.746094 27.726562 C 135.820312 25.804688 136.621094 22.84375 136.738281 20.207031 L 136.738281 18.746094 C 136.621094 16.109375 135.820312 13.132812 133.746094 11.210938 L 133.746094 11.089844 L 133.847656 10.988281 Z M 134 10.988281 Z M 134 10.988281 "/>
<path style=" stroke:none;fill-rule:nonzero;fill:rgb(0%,0%,0%);fill-opacity:1;" d="M 139.988281 16.433594 L 140.003906 16.464844 L 141.027344 16.464844 L 141.058594 16.5 L 141.585938 16.5 L 141.605469 16.464844 L 142.84375 16.464844 L 142.863281 16.433594 L 143.1875 16.433594 L 143.1875 16.925781 C 142.777344 16.875 142.011719 17.0625 142.285156 17.605469 C 142.929688 19.203125 143.578125 20.820312 144.222656 22.417969 C 144.851562 20.90625 145.449219 19.355469 146.058594 17.84375 C 146.179688 17.351562 145.753906 16.90625 145.261719 16.925781 L 145.261719 16.433594 L 145.515625 16.433594 L 145.550781 16.464844 L 146.519531 16.464844 L 146.554688 16.5 L 146.960938 16.5 L 146.996094 16.464844 L 147.761719 16.464844 L 147.796875 16.433594 L 147.964844 16.433594 L 147.964844 16.925781 C 147.097656 16.890625 146.484375 17.640625 146.28125 18.4375 C 145.515625 20.242188 144.886719 22.113281 144.035156 23.847656 C 143.476562 24.066406 143.441406 23.285156 143.238281 22.945312 C 142.402344 21.007812 141.757812 18.984375 140.804688 17.113281 L 140.632812 17.011719 L 140.5 16.992188 L 140.480469 16.960938 L 140.292969 16.960938 L 140.261719 16.925781 L 139.734375 16.925781 L 139.734375 16.433594 Z M 139.988281 16.433594 Z M 139.988281 16.433594 "/>
</g>
</svg>
