<?xml version="1.0" encoding="UTF-8" standalone="no"?>
<!DOCTYPE svg PUBLIC "-//W3C//DTD SVG 1.1//EN"
 "http://www.w3.org/Graphics/SVG/1.1/DTD/svg11.dtd">
<!-- Generated by graphviz version 2.43.0 (0)
 -->
<!-- Pages: 1 -->
<svg width="239pt" height="332pt"
 viewBox="0.00 0.00 239.00 332.00" xmlns="http://www.w3.org/2000/svg" xmlns:xlink="http://www.w3.org/1999/xlink">
<g id="graph0" class="graph" transform="scale(1 1) rotate(0) translate(4 328)">
<polygon fill="white" stroke="transparent" points="-4,4 -4,-328 235,-328 235,4 -4,4"/>
<!-- read -->
<g id="node1" class="node">
<title>read</title>
<polygon fill="none" stroke="black" points="174.5,-324 56.5,-324 56.5,-288 174.5,-288 174.5,-324"/>
<text text-anchor="middle" x="115.5" y="-302.3" font-family="Times,serif" font-size="14.00">read input file</text>
</g>
<!-- solve -->
<g id="node2" class="node">
<title>solve</title>
<polygon fill="none" stroke="black" points="227,-252 4,-252 4,-216 227,-216 227,-252"/>
<text text-anchor="middle" x="115.5" y="-230.3" font-family="Times,serif" font-size="14.00">solve the rendering equation</text>
</g>
<!-- read&#45;&gt;solve -->
<g id="edge1" class="edge">
<title>read&#45;&gt;solve</title>
<path fill="none" stroke="black" d="M115.5,-287.7C115.5,-279.98 115.5,-270.71 115.5,-262.11"/>
<polygon fill="black" stroke="black" points="119,-262.1 115.5,-252.1 112,-262.1 119,-262.1"/>
</g>
<!-- savepfm -->
<g id="node3" class="node">
<title>savepfm</title>
<polygon fill="none" stroke="black" points="179,-180 52,-180 52,-144 179,-144 179,-180"/>
<text text-anchor="middle" x="115.5" y="-158.3" font-family="Times,serif" font-size="14.00">save a PFM file</text>
</g>
<!-- solve&#45;&gt;savepfm -->
<g id="edge2" class="edge">
<title>solve&#45;&gt;savepfm</title>
<path fill="none" stroke="black" d="M115.5,-215.7C115.5,-207.98 115.5,-198.71 115.5,-190.11"/>
<polygon fill="black" stroke="black" points="119,-190.1 115.5,-180.1 112,-190.1 119,-190.1"/>
</g>
<!-- tonemapping -->
<g id="node4" class="node">
<title>tonemapping</title>
<polygon fill="none" stroke="black" points="194.5,-108 36.5,-108 36.5,-72 194.5,-72 194.5,-108"/>
<text text-anchor="middle" x="115.5" y="-86.3" font-family="Times,serif" font-size="14.00">apply tone mapping</text>
</g>
<!-- savepfm&#45;&gt;tonemapping -->
<g id="edge3" class="edge">
<title>savepfm&#45;&gt;tonemapping</title>
<path fill="none" stroke="black" d="M115.5,-143.7C115.5,-135.98 115.5,-126.71 115.5,-118.11"/>
<polygon fill="black" stroke="black" points="119,-118.1 115.5,-108.1 112,-118.1 119,-118.1"/>
</g>
<!-- saveldr -->
<g id="node5" class="node">
<title>saveldr</title>
<polygon fill="none" stroke="black" points="231,-36 0,-36 0,0 231,0 231,-36"/>
<text text-anchor="middle" x="115.5" y="-14.3" font-family="Times,serif" font-size="14.00">save a LDR file (PNG, JPEG...)</text>
</g>
<!-- tonemapping&#45;&gt;saveldr -->
<g id="edge4" class="edge">
<title>tonemapping&#45;&gt;saveldr</title>
<path fill="none" stroke="black" d="M109.58,-71.7C108.79,-63.98 108.56,-54.71 108.9,-46.11"/>
<polygon fill="black" stroke="black" points="112.4,-46.32 109.6,-36.1 105.42,-45.84 112.4,-46.32"/>
</g>
<!-- saveldr&#45;&gt;tonemapping -->
<g id="edge5" class="edge">
<title>saveldr&#45;&gt;tonemapping</title>
<path fill="none" stroke="black" d="M121.4,-36.1C122.2,-43.79 122.44,-53.05 122.1,-61.67"/>
<polygon fill="black" stroke="black" points="118.61,-61.48 121.42,-71.7 125.59,-61.96 118.61,-61.48"/>
</g>
</g>
</svg>
