<?xml version="1.0" encoding="UTF-8"?>
<svg xmlns="http://www.w3.org/2000/svg" xmlns:xlink="http://www.w3.org/1999/xlink" width="568.929134pt" height="285.464567pt" viewBox="0 0 568.929134 285.464567" version="1.1">
<g id="surface1">
<path style="fill:none;stroke-width:0.02;stroke-linecap:butt;stroke-linejoin:miter;stroke:rgb(0%,0%,0%);stroke-opacity:1;stroke-miterlimit:10;" d="M 2.999989 2.999979 L 6.970944 6.970934 " transform="matrix(28.346457,0,0,-28.346457,1,284.464567)"/>
<path style="fill-rule:nonzero;fill:rgb(0%,0%,0%);fill-opacity:1;stroke-width:0.02;stroke-linecap:butt;stroke-linejoin:miter;stroke:rgb(0%,0%,0%);stroke-opacity:1;stroke-miterlimit:10;" d="M 6.842511 6.747279 L 6.972735 6.972726 L 6.747288 6.842501 Z M 6.842511 6.747279 " transform="matrix(28.346457,0,0,-28.346457,1,284.464567)"/>
<path style=" stroke:none;fill-rule:nonzero;fill:rgb(0%,0%,0%);fill-opacity:1;" d="M 118.894531 186.738281 L 118.894531 187.484375 C 120.289062 187.554688 121.734375 188.472656 121.871094 189.96875 C 121.9375 190.445312 121.988281 191.140625 121.375 191.296875 C 120.695312 191.535156 120.101562 190.734375 120.457031 190.121094 L 120.679688 189.902344 L 120.867188 189.816406 L 120.984375 189.78125 L 121.292969 189.78125 L 121.359375 189.796875 C 121.375 189.476562 121.019531 188.929688 120.710938 188.675781 C 120.203125 188.25 119.523438 188.011719 118.894531 188.03125 L 118.894531 192.605469 C 120.441406 192.878906 121.835938 194.167969 121.871094 195.800781 C 122.160156 197.539062 120.796875 199.492188 118.960938 199.59375 L 118.894531 199.664062 L 118.894531 200.394531 L 118.398438 200.394531 L 118.398438 199.664062 C 117.054688 199.59375 115.695312 198.710938 115.457031 197.316406 C 115.355469 196.738281 115.152344 195.820312 115.917969 195.617188 C 116.683594 195.359375 117.261719 196.414062 116.683594 196.941406 L 116.613281 196.976562 L 116.5625 197.042969 L 116.445312 197.09375 L 116.308594 197.128906 L 115.949219 197.128906 L 115.898438 197.113281 C 115.96875 198.132812 116.972656 198.964844 118.007812 199.101562 L 118.042969 199.117188 L 118.28125 199.117188 L 118.347656 199.152344 L 118.398438 199.117188 L 118.398438 194.050781 C 116.632812 193.863281 115.152344 192.265625 115.355469 190.460938 C 115.457031 188.898438 116.867188 187.621094 118.398438 187.484375 L 118.398438 186.738281 Z M 118.894531 186.738281 Z M 118.347656 188.03125 C 116.734375 188.082031 115.542969 190.121094 116.597656 191.449219 C 116.972656 192.0625 117.71875 192.417969 118.398438 192.484375 L 118.398438 188.03125 L 118.367188 187.996094 Z M 118.347656 188.03125 Z M 118.894531 194.203125 L 118.894531 199.101562 C 120.457031 199.066406 121.5625 197.078125 120.867188 195.683594 C 120.527344 194.882812 119.761719 194.273438 118.894531 194.203125 Z M 118.894531 194.203125 Z M 118.894531 194.203125 "/>
<path style=" stroke:none;fill-rule:nonzero;fill:rgb(0%,0%,0%);fill-opacity:1;" d="M 123.503906 192.179688 L 123.519531 192.214844 L 124.539062 192.214844 L 124.574219 192.246094 L 125.101562 192.246094 L 125.117188 192.214844 L 126.359375 192.214844 L 126.375 192.179688 L 126.699219 192.179688 L 126.699219 192.671875 C 126.292969 192.621094 125.527344 192.808594 125.796875 193.351562 C 126.445312 194.953125 127.089844 196.566406 127.738281 198.167969 C 128.367188 196.652344 128.960938 195.105469 129.574219 193.589844 C 129.691406 193.097656 129.269531 192.65625 128.773438 192.671875 L 128.773438 192.179688 L 129.03125 192.179688 L 129.0625 192.214844 L 130.03125 192.214844 L 130.066406 192.246094 L 130.476562 192.246094 L 130.507812 192.214844 L 131.273438 192.214844 L 131.308594 192.179688 L 131.480469 192.179688 L 131.480469 192.671875 C 130.613281 192.640625 130 193.386719 129.796875 194.1875 C 129.03125 195.988281 128.398438 197.859375 127.550781 199.59375 C 126.988281 199.816406 126.953125 199.035156 126.75 198.695312 C 125.917969 196.753906 125.269531 194.730469 124.320312 192.859375 L 124.148438 192.757812 L 124.011719 192.742188 L 123.996094 192.707031 L 123.808594 192.707031 L 123.773438 192.671875 L 123.246094 192.671875 L 123.246094 192.179688 Z M 123.503906 192.179688 Z M 123.503906 192.179688 "/>
<path style=" stroke:none;fill-rule:nonzero;fill:rgb(0%,0%,0%);fill-opacity:1;" d="M 136.359375 186.738281 L 136.359375 187.484375 C 137.753906 187.554688 139.199219 188.472656 139.335938 189.96875 C 139.40625 190.445312 139.457031 191.140625 138.84375 191.296875 C 138.164062 191.535156 137.566406 190.734375 137.925781 190.121094 L 138.144531 189.902344 L 138.332031 189.816406 L 138.453125 189.78125 L 138.757812 189.78125 L 138.824219 189.796875 C 138.84375 189.476562 138.484375 188.929688 138.179688 188.675781 C 137.667969 188.25 136.988281 188.011719 136.359375 188.03125 L 136.359375 192.605469 C 137.90625 192.878906 139.300781 194.167969 139.335938 195.800781 C 139.625 197.539062 138.265625 199.492188 136.429688 199.59375 L 136.359375 199.664062 L 136.359375 200.394531 L 135.867188 200.394531 L 135.867188 199.664062 C 134.523438 199.59375 133.164062 198.710938 132.925781 197.316406 C 132.824219 196.738281 132.617188 195.820312 133.382812 195.617188 C 134.148438 195.359375 134.726562 196.414062 134.148438 196.941406 L 134.082031 196.976562 L 134.03125 197.042969 L 133.910156 197.09375 L 133.773438 197.128906 L 133.417969 197.128906 L 133.367188 197.113281 C 133.433594 198.132812 134.4375 198.964844 135.476562 199.101562 L 135.507812 199.117188 L 135.746094 199.117188 L 135.816406 199.152344 L 135.867188 199.117188 L 135.867188 194.050781 C 134.097656 193.863281 132.617188 192.265625 132.824219 190.460938 C 132.925781 188.898438 134.335938 187.621094 135.867188 187.484375 L 135.867188 186.738281 Z M 136.359375 186.738281 Z M 135.816406 188.03125 C 134.199219 188.082031 133.007812 190.121094 134.0625 191.449219 C 134.4375 192.0625 135.1875 192.417969 135.867188 192.484375 L 135.867188 188.03125 L 135.832031 187.996094 Z M 135.816406 188.03125 Z M 136.359375 194.203125 L 136.359375 199.101562 C 137.925781 199.066406 139.03125 197.078125 138.332031 195.683594 C 137.992188 194.882812 137.226562 194.273438 136.359375 194.203125 Z M 136.359375 194.203125 Z M 136.359375 194.203125 "/>
<path style="fill:none;stroke-width:0.02;stroke-linecap:butt;stroke-linejoin:miter;stroke:rgb(0%,0%,0%);stroke-opacity:1;stroke-miterlimit:10;" d="M 12.999999 2.999979 L 16.958965 2.999979 " transform="matrix(28.346457,0,0,-28.346457,1,284.464567)"/>
<path style="fill-rule:nonzero;fill:rgb(0%,0%,0%);fill-opacity:1;stroke-width:0.02;stroke-linecap:butt;stroke-linejoin:miter;stroke:rgb(0%,0%,0%);stroke-opacity:1;stroke-miterlimit:10;" d="M 16.709953 2.932593 L 16.961308 2.999979 L 16.709953 3.067365 Z M 16.709953 2.932593 " transform="matrix(28.346457,0,0,-28.346457,1,284.464567)"/>
<path style="fill:none;stroke-width:0.02;stroke-linecap:butt;stroke-linejoin:miter;stroke:rgb(0%,0%,0%);stroke-opacity:1;stroke-miterlimit:10;" d="M 17.00003 2.999979 L 17.00003 6.958945 " transform="matrix(28.346457,0,0,-28.346457,1,284.464567)"/>
<path style="fill-rule:nonzero;fill:rgb(0%,0%,0%);fill-opacity:1;stroke-width:0.02;stroke-linecap:butt;stroke-linejoin:miter;stroke:rgb(0%,0%,0%);stroke-opacity:1;stroke-miterlimit:10;" d="M 17.067416 6.709934 L 17.00003 6.961426 L 16.932644 6.709934 Z M 17.067416 6.709934 " transform="matrix(28.346457,0,0,-28.346457,1,284.464567)"/>
<path style="fill:none;stroke-width:0.02;stroke-linecap:butt;stroke-linejoin:miter;stroke:rgb(0%,0%,0%);stroke-opacity:1;stroke-miterlimit:10;" d="M 17.00003 7.000011 L 12.999999 7.000011 L 12.999999 2.999979 " transform="matrix(28.346457,0,0,-28.346457,1,284.464567)"/>
</g>
</svg>
